<svg xmlns="http://www.w3.org/2000/svg" width="20" height="20" viewBox="0 0 20 20">
  <g id="组_13718" data-name="组 13718" transform="translate(-20 -84)">
    <g id="组_13717" data-name="组 13717">
      <g id="组_13716" data-name="组 13716">
        <g id="组_12214" data-name="组 12214" transform="translate(2 -98)">
          <g id="组_10326" data-name="组 10326" transform="translate(-1015 -750)">
            <path id="路径_5784" data-name="路径 5784" d="M5.066,11.061a.855.855,0,0,0,1.21,0L15.641,1.7A.857.857,0,1,0,14.431.483L5.066,9.848A.858.858,0,0,0,5.066,11.061Zm10.371-4.2a.853.853,0,0,0-.853.853v6.865H1.716V1.713H8.581A.856.856,0,0,0,8.581,0H.853A.848.848,0,0,0,0,.853V15.441a.848.848,0,0,0,.853.852H15.442a.849.849,0,0,0,.852-.853V7.713a.855.855,0,0,0-.857-.853Z" transform="translate(1034.999 934)" fill="#2988e6"/>
            <rect id="矩形_19726" data-name="矩形 19726" width="20" height="20" transform="translate(1033 932)" fill="none"/>
          </g>
        </g>
      </g>
    </g>
  </g>
</svg>
