<svg xmlns="http://www.w3.org/2000/svg" width="24" height="24" viewBox="0 0 24 24">
  <g id="组_10393" data-name="组 10393" transform="translate(-492 -1234)">
    <path id="路径_8364" data-name="路径 8364" d="M211.592,128a6.792,6.792,0,0,1,6.792,6.792,8.13,8.13,0,0,1-2.807,6l-.467.46-1.024.968a16.419,16.419,0,0,0-2.493,2.761,14.7,14.7,0,0,0-2.1-2.391l-1.177-1.111-.473-.456c-1.636-1.61-3.039-3.393-3.039-6.23A6.792,6.792,0,0,1,211.592,128Zm0,1.415a5.377,5.377,0,0,0-5.377,5.377c0,2.142.771,3.447,2.993,5.583l1.177,1.112.566.552c.175.175.34.342.491.5l.15.161.15-.161c.229-.243.481-.5.764-.773l.61-.584.548-.514.606-.583c2-1.971,2.7-3.253,2.7-5.3A5.377,5.377,0,0,0,211.592,129.415Zm0,2.83a2.83,2.83,0,1,1-2.83,2.83A2.83,2.83,0,0,1,211.592,132.245Zm0,1.415a1.415,1.415,0,1,0,1.415,1.415A1.415,1.415,0,0,0,211.592,133.66Z" transform="translate(292.2 1110)" fill="#2988e6"/>
    <rect id="矩形_19726" data-name="矩形 19726" width="24" height="24" transform="translate(492 1234)" fill="none"/>
  </g>
</svg>
