<svg xmlns="http://www.w3.org/2000/svg" width="23.362" height="22.47" viewBox="0 0 23.362 22.47">
  <g id="calendar" transform="translate(-0.017 -0.006)">
    <path id="路径_8274" data-name="路径 8274" d="M11.7,22.3H2.336a2.511,2.511,0,0,1-2.018-.87,1.437,1.437,0,0,1-.3-.956V3.932A2.008,2.008,0,0,1,1.966,2.1H3.912c.3,0,.449-.087.449-.347v-.7A1.228,1.228,0,0,1,5.709.013,1.143,1.143,0,0,1,6.833,1.142v.087c.074.956.074.956,1.048.956h8.162c.374,0,.524-.087.524-.435V1.143a1.252,1.252,0,0,1,2.47,0c0,.347-.15.784.074.956a2.385,2.385,0,0,0,1.124.087h1.125A2.034,2.034,0,0,1,23.379,4.1V20.472c0,1.129-.973,1.912-2.322,2C18.062,22.3,14.841,22.3,11.7,22.3Zm.076-14.886H2.411c-.374,0-.524.087-.524.435V19.864c0,.523.225.609.673.609H20.98c.673,0,.673,0,.673-.609V7.938c0-.435-.074-.523-.524-.523H11.771Z" transform="translate(0 0)" fill="#388fcd"/>
    <path id="路径_8275" data-name="路径 8275" d="M180.138,468.661h-1.2a.735.735,0,0,1-.822-.686v-1.458a.669.669,0,0,1,.743-.686h2.549c.524,0,.743.257.743.772v1.373c0,.425-.225.686-.743.686h-1.274Zm5.828,0h-1.2c-.523,0-.822-.257-.822-.686V466.6c0-.515.225-.686.743-.773h2.465a.67.67,0,0,1,.743.686v1.459a.669.669,0,0,1-.743.686h-1.195Zm5.828-2.831h1.274c.448,0,.743.257.672.686v1.545a.669.669,0,0,1-.743.686h-2.541a.67.67,0,0,1-.743-.686V466.6a.669.669,0,0,1,.743-.686A3.538,3.538,0,0,1,191.794,465.83Zm-5.828-2.062h-1.274c-.524,0-.743-.172-.743-.686v-1.545c0-.425.225-.6.672-.6h2.616a.711.711,0,0,1,.743.686v1.458c0,.425-.225.686-.743.686h-1.27Zm-5.828-2.831h1.275c.448,0,.743.257.743.6v1.545c0,.425-.225.6-.672.6h-2.62c-.448,0-.672-.172-.672-.6v-1.63c0-.425.3-.6.743-.6a5.3,5.3,0,0,0,1.2.085Zm11.576,2.831H190.44a.67.67,0,0,1-.743-.686v-1.545c0-.425.225-.6.672-.6h2.62a.589.589,0,0,1,.672.6v1.545a.591.591,0,0,1-.672.6,6,6,0,0,1-1.274.085Z" transform="translate(-174.195 -450.734)" fill="#388fcd"/>
  </g>
</svg>
