<svg xmlns="http://www.w3.org/2000/svg" xmlns:xlink="http://www.w3.org/1999/xlink" width="53" height="56" viewBox="0 0 53 56">
  <defs>
    <filter id="椭圆_698" x="0" y="0" width="53" height="53" filterUnits="userSpaceOnUse">
      <feOffset dy="2" input="SourceAlpha"/>
      <feGaussianBlur stdDeviation="3" result="blur"/>
      <feFlood flood-opacity="0.102"/>
      <feComposite operator="in" in2="blur"/>
      <feComposite in="SourceGraphic"/>
    </filter>
  </defs>
  <g id="组_9702" data-name="组 9702" transform="translate(-241 -730)">
    <g id="组_9707" data-name="组 9707" transform="translate(250 737)">
      <g transform="matrix(1, 0, 0, 1, -9, -7)" filter="url(#椭圆_698)">
        <circle id="椭圆_698-2" data-name="椭圆 698" cx="17.5" cy="17.5" r="17.5" transform="translate(9 7)" fill="#fff"/>
      </g>
      <path id="Icon_ionic-md-calendar" data-name="Icon ionic-md-calendar" d="M15.765,12.562H12.208v3.721h3.557ZM14.579,4.5V5.74H8.65V4.5H6.872V5.74h-.89A1.522,1.522,0,0,0,4.5,7.291V17.833a1.522,1.522,0,0,0,1.482,1.55H17.247a1.522,1.522,0,0,0,1.482-1.55V7.291a1.522,1.522,0,0,0-1.482-1.55h-.889V4.5Zm2.668,13.333H5.982V9.616H17.247Z" transform="translate(5.5 5.558)" fill="#c1c1c1"/>
    </g>
    <text id="Change" transform="translate(269 783)" fill="#c1c1c1" font-size="10" font-family="ArialMT, Arial"><tspan x="-17.515" y="0">Change</tspan></text>
  </g>
</svg>
