<svg id="组件_22_1" data-name="组件 22 – 1" xmlns="http://www.w3.org/2000/svg" width="14" height="14" viewBox="0 0 14 14">
  <g id="组_19830" data-name="组 19830" transform="translate(-0.941)">
    <path id="路径_14977" data-name="路径 14977" d="M298.667,341.333H303.2v.908h-4.538Z" transform="translate(-295.25 -338.173)" fill="#5899ec"/>
    <path id="路径_22319" data-name="路径 22319" d="M298.667,341.333H301v.908h-2.329Z" transform="translate(-287.848 -335.851)" fill="#5899ec"/>
    <path id="路径_22317" data-name="路径 22317" d="M298.667,341.333H303.2v.908h-4.538Z" transform="translate(-295.25 -335.851)" fill="#5899ec"/>
    <path id="路径_22318" data-name="路径 22318" d="M298.667,341.333H301v.908h-2.329Z" transform="translate(-287.848 -333.523)" fill="#5899ec"/>
    <path id="路径_14978" data-name="路径 14978" d="M201.024,194.709h3.158a1.354,1.354,0,0,1,1.354,1.354v9.029h-.9v-9.029a.451.451,0,0,0-.451-.452h-3.158v9.481h-.9V193.354a.451.451,0,0,0-.451-.451h-6.316a.451.451,0,0,0-.451.451v11.738H192V193.354A1.354,1.354,0,0,1,193.354,192h6.316a1.354,1.354,0,0,1,1.354,1.354Z" transform="translate(-190.828 -192)" fill="#5899ec"/>
    <path id="路径_14979" data-name="路径 14979" d="M128,810.667h13.535v.908H128Z" transform="translate(-126.828 -797.574)" fill="#5899ec"/>
  </g>
  <rect id="矩形_22777" data-name="矩形 22777" width="14" height="14" transform="translate(0 0)" fill="none"/>
</svg>
