<svg xmlns="http://www.w3.org/2000/svg" width="30" height="30" viewBox="0 0 30 30">
  <g id="delete" transform="translate(-31 -291)">
    <rect id="矩形_21" data-name="矩形 21" width="30" height="30" rx="4" transform="translate(31 291)" fill="#f1f8fe"/>
    <path id="路径_14314" data-name="路径 14314" d="M124.693,74.667a2.586,2.586,0,0,1,2.582,2.44l0,.146h4.177a.6.6,0,0,1,.081,1.188l-.081.006h-.633L129.8,88.806a2.188,2.188,0,0,1-2.038,1.969l-.14,0H121.76a2.188,2.188,0,0,1-2.159-1.836l-.018-.139-1.019-10.359h-.633a.6.6,0,0,1-.591-.516l-.006-.081a.6.6,0,0,1,.516-.591l.081-.006h4.177A2.586,2.586,0,0,1,124.693,74.667Zm4.931,3.779h-9.862l1.008,10.242a1,1,0,0,0,.889.893l.1,0h5.867a.994.994,0,0,0,.975-.8l.016-.1,1.006-10.242Zm-3.538,2.188a.6.6,0,0,1,.591.516l.006.081V86.8a.6.6,0,0,1-1.188.081l-.006-.081v-5.57A.6.6,0,0,1,126.086,80.634Zm-2.785,0a.6.6,0,0,1,.591.516l.006.081V86.8a.6.6,0,0,1-1.188.081L122.7,86.8v-5.57A.6.6,0,0,1,123.3,80.634Zm1.392-4.774a1.392,1.392,0,0,0-1.388,1.278l0,.115h2.785A1.392,1.392,0,0,0,124.693,75.86Z" transform="translate(-78.333 223.333)" fill="#fb5051"/>
  </g>
</svg>
