<svg xmlns="http://www.w3.org/2000/svg" width="18" height="18" viewBox="0 0 18 18">
  <g id="组_20324" data-name="组 20324" transform="translate(-336 -230)">
    <circle id="椭圆_1" data-name="椭圆 1" cx="9" cy="9" r="9" transform="translate(336 230)" fill="rgba(0,0,0,0.23)"/>
    <path id="联合_2" data-name="联合 2" d="M5626.839,6987.4a.389.389,0,0,1-.059,0h0a.566.566,0,0,1-.129-.029h0l-.056-.024a.582.582,0,0,1-.138-.1l-2.862-2.6a.6.6,0,0,1-.048-.83.564.564,0,0,1,.809-.049l1.913,1.741v-6.519a.574.574,0,1,1,1.147,0v6.518l1.911-1.74a.563.563,0,0,1,.809.048.6.6,0,0,1-.047.83l-2.859,2.6a.577.577,0,0,1-.137.1l-.042.018h0a.547.547,0,0,1-.15.036h0a.4.4,0,0,1-.054,0Z" transform="translate(-5281.839 -6744.399)" fill="#fff"/>
  </g>
</svg>
