<svg xmlns="http://www.w3.org/2000/svg" width="30" height="30" viewBox="0 0 30 30">
  <g id="组_10777" data-name="组 10777" transform="translate(-35 -744)">
    <path id="dashboard" d="M96.99,112.646,83.877,100.154a.907.907,0,0,0-1.253,0L69.552,112.669a.907.907,0,0,0-.028,1.282.908.908,0,0,0,1.283.028l1.8-1.728v10.335a3.116,3.116,0,0,0,3.141,3.227H90.7a3.048,3.048,0,0,0,3.233-3.272v-10.3l1.807,1.722a.907.907,0,1,0,1.251-1.313Zm-11.009,11.3H80.562v-5.215c0-1.207.606-1.757,1.645-1.757h1.983a1.65,1.65,0,0,1,1.79,1.84v5.132Z" transform="translate(-33.272 646.096)" fill="#fff"/>
    <rect id="矩形_20714" data-name="矩形 20714" width="30" height="30" transform="translate(35 744)" fill="none"/>
  </g>
</svg>
