<svg id="组件_26_1" data-name="组件 26 – 1" xmlns="http://www.w3.org/2000/svg" width="30" height="30" viewBox="0 0 30 30">
  <rect id="矩形_22804" data-name="矩形 22804" width="30" height="30" fill="none"/>
  <path id="sacha" d="M9,0A9,9,0,0,0,0,9,9,9,0,1,0,9,0m3.793,12.793a.684.684,0,0,1-.9,0L9,9.9,6.107,12.793a.684.684,0,0,1-.9,0,.684.684,0,0,1,0-.9L8.1,9,5.207,6.107a.684.684,0,0,1,0-.9.684.684,0,0,1,.9,0L9,8.1l2.894-2.894a.684.684,0,0,1,.9,0,.684.684,0,0,1,0,.9L9.9,9l2.893,2.894a.577.577,0,0,1,0,.9" transform="translate(5 6)" fill="#333" opacity="0.2"/>
</svg>
