<svg id="组件_44_6" data-name="组件 44 – 6" xmlns="http://www.w3.org/2000/svg" width="40" height="40" viewBox="0 0 40 40">
  <rect id="矩形_18502" data-name="矩形 18502" width="40" height="40" rx="6" fill="rgba(112,184,253,0.22)"/>
  <path id="路径_8319" data-name="路径 8319" d="M313.28,116.585V113.9a.863.863,0,0,1,.863-.861h6.063a.861.861,0,0,1,.861.861v2.685h2.05v-4.075a1.152,1.152,0,0,0-1.15-1.152h-9.586a1.152,1.152,0,0,0-1.15,1.152v4.073Z" transform="translate(-297.304 -103.479)" fill="#2988e6"/>
  <path id="路径_8320" data-name="路径 8320" d="M404.851,495.618h-2.306v-2.306h-2.29v2.306h-2.3v2.29h2.3v2.3h2.29v-2.3h2.306Z" transform="translate(-381.4 -473.877)" fill="#2988e6"/>
  <path id="路径_8321" data-name="路径 8321" d="M88.225,300.608H66.875A2.876,2.876,0,0,0,64,303.485v12.763a2.873,2.873,0,0,0,2.875,2.873H88.223a2.875,2.875,0,0,0,2.877-2.873V303.485A2.874,2.874,0,0,0,88.225,300.608Zm-20.359,16.85h-.972V302.325h.972Zm9.685-1.589a5.85,5.85,0,1,1,5.848-5.852A5.851,5.851,0,0,1,77.551,315.868Zm10.37,1.589h-.97V302.325h.97Z" transform="translate(-57.55 -287.002)" fill="#2988e6"/>
</svg>
