<svg id="组件_24_1" data-name="组件 24 – 1" xmlns="http://www.w3.org/2000/svg" width="14" height="14" viewBox="0 0 14 14">
  <rect id="矩形_22780" data-name="矩形 22780" width="14" height="14" fill="none"/>
  <g id="组_19937" data-name="组 19937" transform="translate(-142.911 -87.551)">
    <path id="路径_22056" data-name="路径 22056" d="M156.829,442.752a4.142,4.142,0,0,0-.3-1.316,3.669,3.669,0,0,0-1.021-1.407,4.357,4.357,0,0,0-1.2-.712c-.358-.145-.529-.1-.727.118a4.081,4.081,0,0,1-1.2.89,4.517,4.517,0,0,1-1.736.467,4.673,4.673,0,0,1-1.036-.045,4.4,4.4,0,0,1-1.519-.531,4.044,4.044,0,0,1-.976-.765.467.467,0,0,0-.57-.167,4.171,4.171,0,0,0-1.687,1.1,3.742,3.742,0,0,0-.8,1.289,4.315,4.315,0,0,0-.231,1.8,7.627,7.627,0,0,0,.094.847,4.192,4.192,0,0,0,.56,1.5,2.962,2.962,0,0,0,.976.97,3.474,3.474,0,0,0,1.819.49c1.042.006,2.083,0,3.125,0q1.477,0,2.954,0a4.483,4.483,0,0,0,.83-.067,2.968,2.968,0,0,0,1.588-.8,3.28,3.28,0,0,0,.77-1.272,5.259,5.259,0,0,0,.273-1.414A6.906,6.906,0,0,0,156.829,442.752Zm-.89.618a5.293,5.293,0,0,1-.262,1.549,2.424,2.424,0,0,1-.593.958,1.989,1.989,0,0,1-1.083.517,5,5,0,0,1-.841.05c-.919,0-1.837,0-2.756,0h0c-1.039,0-2.077,0-3.116,0a2.781,2.781,0,0,1-.988-.181,2.081,2.081,0,0,1-.874-.645,3.074,3.074,0,0,1-.6-1.381,5.36,5.36,0,0,1-.105-1.2,3.055,3.055,0,0,1,1.7-2.771c.176-.092.175-.086.326.045a5.35,5.35,0,0,0,2.553,1.233,5.494,5.494,0,0,0,1.267.1,5.584,5.584,0,0,0,1.818-.385,5.394,5.394,0,0,0,1.324-.759c.119-.092.23-.195.341-.3a.091.091,0,0,1,.117-.019,2.875,2.875,0,0,1,1.521,1.547,3.621,3.621,0,0,1,.239,1.108A4.748,4.748,0,0,1,155.938,443.37Z" transform="translate(-0.407 -345.726)" fill="#5899ec"/>
    <path id="路径_22057" data-name="路径 22057" d="M324.444,87.551a3.127,3.127,0,1,0,3.13,3.116A3.114,3.114,0,0,0,324.444,87.551Zm.012,5.422a2.3,2.3,0,1,1,2.285-2.3A2.281,2.281,0,0,1,324.457,92.973Z" transform="translate(-174.498)" fill="#5899ec"/>
  </g>
</svg>
