<svg xmlns="http://www.w3.org/2000/svg" width="14.1" height="14" viewBox="0 0 14.1 14">
  <g id="组件_25_1" data-name="组件 25 – 1" transform="translate(0.1)">
    <rect id="矩形_22781" data-name="矩形 22781" width="14" height="14" fill="none"/>
    <g id="组_20390" data-name="组 20390" transform="translate(-66.2 -189.1)">
      <path id="路径_22313" data-name="路径 22313" d="M72.422,196.539a3.053,3.053,0,1,0-3.8,0,4.328,4.328,0,0,0-1.16.859,4.5,4.5,0,0,0-1.258,3.141.559.559,0,1,0,1.118,0,3.2,3.2,0,1,1,6.4,0,.559.559,0,1,0,1.118,0,4.494,4.494,0,0,0-1.258-3.141A4.386,4.386,0,0,0,72.422,196.539Zm-3.835-2.386a1.933,1.933,0,1,1,1.933,1.934A1.936,1.936,0,0,1,68.586,194.153Zm10.722-3.039H74.121a.559.559,0,1,0,0,1.118h4.824v7.791H76.15a.559.559,0,0,0,0,1.118h3.158a.751.751,0,0,0,.755-.746V191.86A.752.752,0,0,0,79.308,191.114Z" fill="#5899ec" stroke="#fff" stroke-width="0.2"/>
      <path id="路径_22314" data-name="路径 22314" d="M590.159,324.719h2.863a.559.559,0,1,0,0-1.118h-2.863a.559.559,0,1,0,0,1.118Zm3.422,1.617a.559.559,0,0,0-.559-.559h-2.863a.559.559,0,1,0,0,1.118h2.863A.56.56,0,0,0,593.581,326.336Z" transform="translate(-515.269 -129.442)" fill="#5899ec" stroke="#fff" stroke-width="0.2"/>
    </g>
  </g>
</svg>
