<svg id="组件_162_29" data-name="组件 162 – 29" xmlns="http://www.w3.org/2000/svg" width="44" height="44" viewBox="0 0 44 44">
  <g id="组_8636" data-name="组 8636" opacity="0.297">
    <circle id="椭圆_698" data-name="椭圆 698" cx="22" cy="22" r="22" transform="translate(0 0)" fill="#fff"/>
  </g>
  <path id="路径_5808" data-name="路径 5808" d="M189.131,76.1a3.652,3.652,0,0,1-3.673-3.63V67.63a3.674,3.674,0,0,1,7.347,0v4.84A3.652,3.652,0,0,1,189.131,76.1ZM182,72.427a.173.173,0,0,1,.173-.173h1.3a.173.173,0,0,1,.173.173,5.489,5.489,0,1,0,10.977,0,.173.173,0,0,1,.173-.173h1.3a.173.173,0,0,1,.173.173A7.131,7.131,0,0,1,190,79.506v2.213h3.14a.627.627,0,0,1,.534.691v.778a.158.158,0,0,1-.134.173h-8.808a.158.158,0,0,1-.134-.173v-.778a.627.627,0,0,1,.534-.691h3.226v-2.2A7.134,7.134,0,0,1,182,72.427Z" transform="translate(-167.131 -51.681)" fill="#fff"/>
</svg>
