<svg id="组件_162_50" data-name="组件 162 – 50" xmlns="http://www.w3.org/2000/svg" width="44" height="44" viewBox="0 0 44 44">
  <g id="组_8639" data-name="组 8639" transform="translate(-90 -718)">
    <g id="组_8636" data-name="组 8636" transform="translate(90 718)" opacity="0.297">
      <circle id="椭圆_698" data-name="椭圆 698" cx="22" cy="22" r="22" transform="translate(0 0)" fill="#fff"/>
    </g>
    <path id="减去_2" data-name="减去 2" d="M5843.535,1717.493h-8.807a.158.158,0,0,1-.134-.173v-.778a.628.628,0,0,1,.533-.691h3.227v-2.2a7.134,7.134,0,0,1-6.354-7.089.173.173,0,0,1,.173-.173h1.3a.173.173,0,0,1,.172.173,5.489,5.489,0,0,0,9.274,3.974l1.058,1.26a7.066,7.066,0,0,1-3.978,1.844v2.213h3.139a.629.629,0,0,1,.534.691v.778A.158.158,0,0,1,5843.535,1717.493Zm-4.4-7.261a3.656,3.656,0,0,1-3.673-3.63v-4.84c0-.038,0-.076,0-.114l6.292,7.5A3.668,3.668,0,0,1,5839.131,1710.233Zm6.334-.4h0l-1.174-1.4a5.465,5.465,0,0,0,.33-1.878.173.173,0,0,1,.173-.173h1.3a.173.173,0,0,1,.172.173,7.151,7.151,0,0,1-.8,3.277Zm-2.662-3.173h0l-6.267-7.469a3.683,3.683,0,0,1,6.27,2.568v4.84c0,.02,0,.04,0,.06Z" transform="translate(-5727.131 -967.812)" fill="#fff"/>
    <rect id="矩形_19741" data-name="矩形 19741" width="1.5" height="19" rx="0.75" transform="translate(106.543 730.958) rotate(-40)" fill="#fff"/>
  </g>
</svg>
