<svg xmlns="http://www.w3.org/2000/svg" width="66.484" height="72.451" viewBox="0 0 66.484 72.451">
  <g id="existing_organization_1" data-name="existing organization – 1" transform="translate(-42.314)">
    <g id="icon_8_" transform="translate(42.314)">
      <path id="路径_5460" data-name="路径 5460" d="M63.46,61.037h59.431v60.241H63.46Z" transform="translate(-59.933 -51.886)" fill="#dbd8dd"/>
      <path id="路径_5461" data-name="路径 5461" d="M141.3,0h33.465V69.391H141.3Z" transform="translate(-124.79)" fill="#eeefee"/>
      <path id="路径_5462" data-name="路径 5462" d="M79.525,79.342h7.634v8.1H79.525Z" transform="translate(-73.319 -67.447)" fill="#69b0ee"/>
      <path id="路径_5463" data-name="路径 5463" d="M79.525,157.152h7.634v8.1H79.525Z" transform="translate(-73.319 -133.591)" fill="#69b0ee"/>
      <path id="路径_5464" data-name="路径 5464" d="M79.525,234.956h7.634v8.1H79.525Z" transform="translate(-73.319 -199.731)" fill="#69b0ee"/>
      <path id="路径_5465" data-name="路径 5465" d="M79.525,312.766h7.634v8.1H79.525Z" transform="translate(-73.319 -265.875)" fill="#69b0ee"/>
      <path id="路径_5466" data-name="路径 5466" d="M79.525,390.57h7.634v8.1H79.525Z" transform="translate(-73.319 -332.014)" fill="#69b0ee"/>
      <path id="路径_5467" data-name="路径 5467" d="M356.164,79.342H363.8v8.1h-7.634Z" transform="translate(-303.819 -67.447)" fill="#69b0ee"/>
      <path id="路径_5468" data-name="路径 5468" d="M356.164,157.152H363.8v8.1h-7.634Z" transform="translate(-303.819 -133.591)" fill="#69b0ee"/>
      <path id="路径_5469" data-name="路径 5469" d="M356.164,234.956H363.8v8.1h-7.634Z" transform="translate(-303.819 -199.731)" fill="#69b0ee"/>
      <path id="路径_5470" data-name="路径 5470" d="M356.164,312.766H363.8v8.1h-7.634Z" transform="translate(-303.819 -265.875)" fill="#69b0ee"/>
      <path id="路径_5471" data-name="路径 5471" d="M356.164,390.57H363.8v8.1h-7.634Z" transform="translate(-303.819 -332.014)" fill="#69b0ee"/>
      <path id="路径_5472" data-name="路径 5472" d="M161.878,22.913h26.6V27.38h-26.6Z" transform="translate(-141.937 -19.478)" fill="#69b0ee"/>
      <path id="路径_5473" data-name="路径 5473" d="M161.861,76.519h26.607v4.467H161.861Z" transform="translate(-141.923 -65.047)" fill="#69b0ee"/>
      <path id="路径_5474" data-name="路径 5474" d="M161.861,130.155h26.607v4.467H161.861Z" transform="translate(-141.923 -110.642)" fill="#69b0ee"/>
      <path id="路径_5475" data-name="路径 5475" d="M161.861,183.79h26.607v4.467H161.861Z" transform="translate(-141.923 -156.236)" fill="#69b0ee"/>
      <path id="路径_5476" data-name="路径 5476" d="M161.861,237.425h26.607v4.467H161.861Z" transform="translate(-141.923 -201.829)" fill="#69b0ee"/>
      <path id="路径_5477" data-name="路径 5477" d="M161.861,291.061h26.607v4.467H161.861Z" transform="translate(-141.923 -247.424)" fill="#69b0ee"/>
      <path id="路径_5478" data-name="路径 5478" d="M170.418,344.472h23.754v17.747H170.418Z" transform="translate(-149.052 -292.828)" fill="#0063a8"/>
      <g id="组_7304" data-name="组 7304" transform="translate(7.213 3.435)">
        <path id="路径_5479" data-name="路径 5479" d="M363.664,398.669h-.286l3.216-8.1h.287Z" transform="translate(-317.043 -335.45)" fill="#eeefee" opacity="0.5"/>
        <path id="路径_5480" data-name="路径 5480" d="M369.482,398.669h-1.666l3.216-8.1H372.7Z" transform="translate(-320.74 -335.45)" fill="#eeefee" opacity="0.5"/>
        <path id="路径_5481" data-name="路径 5481" d="M363.664,320.864h-.286l3.216-8.1h.287Z" transform="translate(-317.043 -269.31)" fill="#eeefee" opacity="0.5"/>
        <path id="路径_5482" data-name="路径 5482" d="M369.482,320.864h-1.666l3.216-8.1H372.7Z" transform="translate(-320.74 -269.31)" fill="#eeefee" opacity="0.5"/>
        <path id="路径_5483" data-name="路径 5483" d="M363.664,243.055h-.286l3.216-8.1h.287Z" transform="translate(-317.043 -203.166)" fill="#eeefee" opacity="0.5"/>
        <path id="路径_5484" data-name="路径 5484" d="M369.482,243.055h-1.666l3.216-8.1H372.7Z" transform="translate(-320.74 -203.166)" fill="#eeefee" opacity="0.5"/>
        <path id="路径_5485" data-name="路径 5485" d="M363.664,165.251h-.286l3.216-8.1h.287Z" transform="translate(-317.043 -137.026)" fill="#eeefee" opacity="0.5"/>
        <path id="路径_5486" data-name="路径 5486" d="M369.482,165.251h-1.666l3.216-8.1H372.7Z" transform="translate(-320.74 -137.026)" fill="#eeefee" opacity="0.5"/>
        <path id="路径_5487" data-name="路径 5487" d="M363.664,87.441h-.286l3.216-8.1h.287Z" transform="translate(-317.043 -70.882)" fill="#eeefee" opacity="0.5"/>
        <path id="路径_5488" data-name="路径 5488" d="M369.482,87.441h-1.666l3.216-8.1H372.7Z" transform="translate(-320.74 -70.882)" fill="#eeefee" opacity="0.5"/>
        <path id="路径_5489" data-name="路径 5489" d="M224.685,22.913l-2.9,4.467h-.9l2.879-4.467Z" transform="translate(-198.318 -22.913)" fill="#eeefee" opacity="0.5"/>
        <path id="路径_5490" data-name="路径 5490" d="M245.175,22.913,242.3,27.38h-4.536l2.879-4.467Z" transform="translate(-212.376 -22.913)" fill="#eeefee" opacity="0.5"/>
        <path id="路径_5491" data-name="路径 5491" d="M224.685,76.525l-2.9,4.466h-.9l2.879-4.466Z" transform="translate(-198.318 -68.487)" fill="#eeefee" opacity="0.5"/>
        <path id="路径_5492" data-name="路径 5492" d="M245.175,76.525,242.3,80.991h-4.536l2.879-4.466Z" transform="translate(-212.376 -68.487)" fill="#eeefee" opacity="0.5"/>
        <path id="路径_5493" data-name="路径 5493" d="M224.685,130.131l-2.9,4.467h-.9l2.879-4.467Z" transform="translate(-198.318 -114.057)" fill="#eeefee" opacity="0.5"/>
        <path id="路径_5494" data-name="路径 5494" d="M245.175,130.131,242.3,134.6h-4.536l2.879-4.467Z" transform="translate(-212.376 -114.057)" fill="#eeefee" opacity="0.5"/>
        <path id="路径_5495" data-name="路径 5495" d="M224.685,183.737l-2.9,4.467h-.9l2.879-4.467Z" transform="translate(-198.318 -159.626)" fill="#eeefee" opacity="0.5"/>
        <path id="路径_5496" data-name="路径 5496" d="M245.175,183.737,242.3,188.2h-4.536l2.879-4.467Z" transform="translate(-212.376 -159.626)" fill="#eeefee" opacity="0.5"/>
        <path id="路径_5497" data-name="路径 5497" d="M224.685,237.349l-2.9,4.466h-.9l2.879-4.466Z" transform="translate(-198.318 -205.2)" fill="#eeefee" opacity="0.5"/>
        <path id="路径_5498" data-name="路径 5498" d="M245.175,237.349l-2.878,4.466h-4.536l2.879-4.466Z" transform="translate(-212.376 -205.2)" fill="#eeefee" opacity="0.5"/>
        <path id="路径_5499" data-name="路径 5499" d="M224.685,290.955l-2.9,4.467h-.9l2.879-4.467Z" transform="translate(-198.318 -250.769)" fill="#eeefee" opacity="0.5"/>
        <path id="路径_5500" data-name="路径 5500" d="M245.175,290.955l-2.878,4.467h-4.536l2.879-4.467Z" transform="translate(-212.376 -250.769)" fill="#eeefee" opacity="0.5"/>
        <path id="路径_5501" data-name="路径 5501" d="M85.846,398.669H85.56l3.216-8.1h.287Z" transform="translate(-85.56 -335.45)" fill="#eeefee" opacity="0.5"/>
        <path id="路径_5502" data-name="路径 5502" d="M91.663,398.669H90l3.216-8.1h1.666Z" transform="translate(-89.257 -335.45)" fill="#eeefee" opacity="0.5"/>
        <path id="路径_5503" data-name="路径 5503" d="M85.846,320.864H85.56l3.216-8.1h.287Z" transform="translate(-85.56 -269.31)" fill="#eeefee" opacity="0.5"/>
        <path id="路径_5504" data-name="路径 5504" d="M91.663,320.864H90l3.216-8.1h1.666Z" transform="translate(-89.257 -269.31)" fill="#eeefee" opacity="0.5"/>
        <path id="路径_5505" data-name="路径 5505" d="M85.846,243.055H85.56l3.216-8.1h.287Z" transform="translate(-85.56 -203.166)" fill="#eeefee" opacity="0.5"/>
        <path id="路径_5506" data-name="路径 5506" d="M91.663,243.055H90l3.216-8.1h1.666Z" transform="translate(-89.257 -203.166)" fill="#eeefee" opacity="0.5"/>
        <path id="路径_5507" data-name="路径 5507" d="M85.846,165.251H85.56l3.216-8.1h.287Z" transform="translate(-85.56 -137.026)" fill="#eeefee" opacity="0.5"/>
        <path id="路径_5508" data-name="路径 5508" d="M91.663,165.251H90l3.216-8.1h1.666Z" transform="translate(-89.257 -137.026)" fill="#eeefee" opacity="0.5"/>
        <path id="路径_5509" data-name="路径 5509" d="M85.846,87.441H85.56l3.216-8.1h.287Z" transform="translate(-85.56 -70.882)" fill="#eeefee" opacity="0.5"/>
        <path id="路径_5510" data-name="路径 5510" d="M91.663,87.441H90l3.216-8.1h1.666Z" transform="translate(-89.257 -70.882)" fill="#eeefee" opacity="0.5"/>
      </g>
      <path id="路径_5511" data-name="路径 5511" d="M42.314,458.379H108.8v3.729H42.314Z" transform="translate(-42.314 -389.657)" fill="#bbbbcd"/>
      <path id="路径_5512" data-name="路径 5512" d="M234.184,339.775h2.483v17.758h-2.483Z" transform="translate(-202.183 -288.835)" fill="#eeefee"/>
    </g>
  </g>
</svg>
