<svg xmlns="http://www.w3.org/2000/svg" width="30" height="30" viewBox="0 0 30 30">
  <g id="组_13562" data-name="组 13562" transform="translate(-30 -210)">
    <g id="组_10779" data-name="组 10779" transform="translate(0 -82)">
      <rect id="矩形_21" data-name="矩形 21" width="30" height="30" rx="4" transform="translate(30 292)" fill="#2988e6" opacity="0.063"/>
      <g id="组_29" data-name="组 29" transform="translate(-93.19 235.498)">
        <path id="路径_44" data-name="路径 44" d="M145.079,133.422v-3.5a1.631,1.631,0,0,0-1.626-1.626h-1.017v1.356a1.088,1.088,0,0,1-1.085,1.085h-5.422a1.088,1.088,0,0,1-1.085-1.085V128.3h-1.017a1.631,1.631,0,0,0-1.626,1.626v10.845a1.631,1.631,0,0,0,1.626,1.626h9.624a1.631,1.631,0,0,0,1.626-1.626v-3.9Zm-2.643,5.283a.544.544,0,0,1-.543.543h-6.507a.543.543,0,1,1,0-1.085h6.506A.545.545,0,0,1,142.436,138.706Zm0-2.543a.544.544,0,0,1-.543.543h-6.507a.543.543,0,0,1,0-1.085h6.506A.545.545,0,0,1,142.436,136.162Zm0-2.543a.544.544,0,0,1-.543.543h-6.507a.543.543,0,1,1,0-1.085h6.506A.545.545,0,0,1,142.436,133.619Z" transform="translate(0 -63.013)" fill="#2fb355"/>
        <path id="路径_45" data-name="路径 45" d="M336.643,66.913h4.88a.544.544,0,0,0,.543-.543V65.285h-.814v-.543a.544.544,0,0,0-.543-.543h-3.252a.544.544,0,0,0-.543.543v.543H336.1V66.37A.544.544,0,0,0,336.643,66.913Z" transform="translate(-200.443)" fill="#2fb355"/>
      </g>
    </g>
  </g>
</svg>
