<svg xmlns="http://www.w3.org/2000/svg" width="16.5" height="16.285" viewBox="0 0 16.5 16.285">
  <g id="组_12216" data-name="组 12216" transform="translate(-20.75 -103.593)">
    <path id="路径_13152" data-name="路径 13152" d="M8.825,10.17a3.633,3.633,0,0,1-2.107-.854A20.389,20.389,0,0,0,3.331,10.4c-.883,1.566-1.708,2.363-2.42,2.363a.741.741,0,0,1-.427-.114A.839.839,0,0,1,0,11.878c0-.256.057-.968,2.761-2.135A20.263,20.263,0,0,0,4.27,6.213C3.929,5.53,3.188,3.85,3.7,3a.906.906,0,0,1,.883-.455.944.944,0,0,1,.74.37c.37.512.342,1.594-.142,3.188A8.587,8.587,0,0,0,6.946,8.377a9.612,9.612,0,0,1,1.793-.2c1.338.028,1.537.655,1.509,1.025C10.249,10.17,9.309,10.17,8.825,10.17ZM.854,11.935l.085-.028a1.834,1.834,0,0,0,.939-.8A2.25,2.25,0,0,0,.854,11.935ZM4.64,3.395H4.555a.171.171,0,0,0-.114.028,2.325,2.325,0,0,0,.171,1.452A2.393,2.393,0,0,0,4.64,3.395Zm.2,4.128-.028.057-.028-.028c-.256.655-.541,1.31-.854,1.936l.057-.028v.057a16.579,16.579,0,0,1,1.936-.569l-.028-.028h.085A8.723,8.723,0,0,1,4.84,7.523ZM8.711,9.031a3.247,3.247,0,0,0-.74.057,2.386,2.386,0,0,0,.854.228,1.258,1.258,0,0,0,.569-.057C9.394,9.174,9.281,9.031,8.711,9.031Z" transform="translate(24 104.306)" fill="#2988e6"/>
    <path id="路径_13153" data-name="路径 13153" d="M32.2,130.816H23.742V145.6h15V130.816Z" transform="translate(-2.242 -26.473)" fill="none" stroke="#2988e6" stroke-linecap="round" stroke-linejoin="round" stroke-width="1.5"/>
  </g>
</svg>
