<svg id="组件_7_1" data-name="组件 7 – 1" xmlns="http://www.w3.org/2000/svg" width="21" height="26" viewBox="0 0 21 26">
  <g id="组_20242" data-name="组 20242" transform="translate(-25 -471)">
    <rect id="矩形_22787" data-name="矩形 22787" width="21" height="26" rx="2" transform="translate(25 471)" fill="#fff"/>
  </g>
  <path id="路径_22302" data-name="路径 22302" d="M78.364,77.8a2.627,2.627,0,0,0-2.031-.572,15.008,15.008,0,0,0-2.177.19A8.283,8.283,0,0,1,71.223,73.9a8.163,8.163,0,0,0,.416-2.624,2.848,2.848,0,0,0-.555-2.126,1.02,1.02,0,0,0-.684-.258.9.9,0,0,0-.539.17c-1.192.872.109,4.982.144,5.091a36.759,36.759,0,0,1-2,4.138c-.237.419-.214.386-.413.726a10.588,10.588,0,0,0-2.994,2.11,1.907,1.907,0,0,0-.593,1.439v.007a1.071,1.071,0,0,0,1.069.761l.064,0A2.829,2.829,0,0,0,66.886,82.2a15.709,15.709,0,0,0,1.669-2.522,43.838,43.838,0,0,1,5.074-1.168,9.3,9.3,0,0,0,3.67,1.2,1.491,1.491,0,0,0,.852-.216,1.019,1.019,0,0,0,.422-.78A1.078,1.078,0,0,0,78.364,77.8Zm-2.265.481a4.328,4.328,0,0,1,1.7.249,1.1,1.1,0,0,1,.179.1.878.878,0,0,1-.476.106,4.536,4.536,0,0,1-1.685-.448Q75.96,78.286,76.1,78.286Zm-5.523-8.571,0,0c.2.105.293.845.274,1.273a4.381,4.381,0,0,1-.132,1.151A4.91,4.91,0,0,1,70.576,69.715Zm.073,5.832a10.26,10.26,0,0,0,1.839,2.181,30.644,30.644,0,0,0-3.353.895A26.227,26.227,0,0,0,70.649,75.547Zm-5.4,6.583a7.044,7.044,0,0,1,1.213-1.266,5.389,5.389,0,0,1-1.34,1.531A1.7,1.7,0,0,1,65.253,82.13Z" transform="translate(-60.797 -63.112)" fill="#d81e06"/>
</svg>
