<svg id="组件_23_1" data-name="组件 23 – 1" xmlns="http://www.w3.org/2000/svg" width="11.789" height="14" viewBox="0 0 11.789 14">
  <path id="路径_22320" data-name="路径 22320" d="M81.842,0H72.018a.974.974,0,0,0-.982.964v12.05a.982.982,0,0,0,1.588.773l3.7-2.7a.982.982,0,0,1,1.21,0l3.707,2.7a.982.982,0,0,0,1.587-.775V.964A.974.974,0,0,0,81.842,0Zm.121,13.015a.107.107,0,0,1-.033.085.138.138,0,0,1-.091.038h0a.108.108,0,0,1-.07-.028l-.011-.009-3.709-2.7a1.844,1.844,0,0,0-2.245,0l-3.7,2.7-.011.009a.108.108,0,0,1-.071.028.125.125,0,0,1-.125-.122V.964a.114.114,0,0,1,.121-.1h9.824a.114.114,0,0,1,.121.1V13.015Z" transform="translate(-71.035)" fill="#5899ec"/>
  <path id="路径_22321" data-name="路径 22321" d="M306.446,192.51l-.893.893a.386.386,0,0,0-.108.34l.211,1.261a.377.377,0,0,1-.544.4l-1.1-.594a.37.37,0,0,0-.349,0l-1.1.6a.377.377,0,0,1-.544-.4l.211-1.261a.391.391,0,0,0-.108-.34l-.893-.893a.388.388,0,0,1,.207-.657l1.233-.184a.374.374,0,0,0,.282-.211l.551-1.146a.372.372,0,0,1,.674,0l.551,1.146a.38.38,0,0,0,.282.211l1.233.184A.387.387,0,0,1,306.446,192.51Z" transform="translate(-297.94 -187.486)" fill="none" stroke="#5899ec" stroke-width="0.8"/>
</svg>
