<svg xmlns="http://www.w3.org/2000/svg" width="634.056" height="634.056" viewBox="0 0 634.056 634.056">
  <g id="组_8528" data-name="组 8528" transform="translate(3325.781 -8174.246)">
    <path id="路径_8269" data-name="路径 8269" d="M687.6,656.994,541.1,510.458,687.6,363.944a22.6,22.6,0,1,0-31.963-31.962L509.138,478.5,362.623,331.981a22.609,22.609,0,0,0-31.963,31.984L477.154,510.48,330.639,656.994a22.609,22.609,0,0,0,31.984,31.963L509.138,542.442l146.5,146.515A22.6,22.6,0,0,0,687.6,656.994Z" transform="translate(-3517.869 7980.805)" fill="#dd3636"/>
    <path id="路径_8270" data-name="路径 8270" d="M703.924,393.242c0-172.324-139.7-312.019-312.028-312.019S79.869,220.918,79.869,393.242c0,172.341,139.7,312.036,312.027,312.036,70.762,0,135.523-24.068,187.865-63.735a13.641,13.641,0,0,0,3.562-9.05,13.833,13.833,0,0,0-13.831-13.831,13.612,13.612,0,0,0-10,4.236h-.176a280.95,280.95,0,0,1-167.1,55.1c-156.055,0-282.576-126.538-282.576-282.568,0-156.061,126.521-282.567,282.576-282.567S674.77,239.37,674.77,395.431c0,47.649-11.185,92.521-32.044,131.929v.225a14.707,14.707,0,0,0-.8,4.012,13.76,13.76,0,0,0,26.7,4.75v.1C690.831,493.505,703.924,444.911,703.924,393.242Z" transform="translate(-3400.65 8098.023)" fill="#d9210a" stroke="#d71f07" stroke-width="10"/>
  </g>
</svg>
