<svg xmlns="http://www.w3.org/2000/svg" width="77" height="30" viewBox="0 0 77 30">
  <g id="recover" transform="translate(-267 -688)">
    <text id="recover-2" data-name="recover" transform="translate(293 708)" fill="#2FB355" font-size="12" font-family="Arial-Regular, Arial"><tspan x="0" y="0">recover</tspan></text>
    <g id="路径_5695" data-name="路径 5695" transform="translate(267 688)" fill="none">
      <path d="M15,0H62a15,15,0,0,1,0,30H15A15,15,0,0,1,15,0Z" stroke="none"/>
      <path d="M 15 1 C 11.26046752929688 1 7.744758605957031 2.456254959106445 5.100502014160156 5.10051155090332 C 2.456253051757812 7.744754791259766 1 11.26046752929688 1 15 C 1 18.73953247070312 2.456253051757812 22.25524520874023 5.100502014160156 24.89948844909668 C 7.744758605957031 27.54374504089355 11.26046752929688 29 15 29 L 62 29 C 65.73953247070312 29 69.25524139404297 27.54374504089355 71.89949035644531 24.89948844909668 C 74.54374694824219 22.25524520874023 76 18.73953247070312 76 15 C 76 11.26046752929688 74.54374694824219 7.744754791259766 71.89949035644531 5.10051155090332 C 69.25524139404297 2.456254959106445 65.73953247070312 1 62 1 L 15 1 M 15 0 L 62 0 C 70.28426361083984 0 77 6.715732574462891 77 15 C 77 23.28426742553711 70.28426361083984 30 62 30 L 15 30 C 6.715721130371094 30 0 23.28426742553711 0 15 C 0 6.715732574462891 6.715721130371094 0 15 0 Z" stroke="none" fill="#2FB355"/>
    </g>
    <path id="路径_5720" data-name="路径 5720" d="M28.184,10.047l-7.689-.14a.538.538,0,0,0,0,1.075l7.684.14a.538.538,0,0,0,0-1.075Zm2.242-6.824a.538.538,0,0,0-.758,0l-.817.817A4.419,4.419,0,1,0,24.441,8.9h.188a.538.538,0,0,0,0-1.075,3.361,3.361,0,1,1,3.189-3.764l-.871-.839a.538.538,0,1,0-.758.758L28.34,6.132l2.151-2.151a.538.538,0,0,0-.065-.758Z" transform="translate(259.037 697.939)" fill="#2FB355"/>
  </g>
</svg>
