<svg xmlns="http://www.w3.org/2000/svg" width="10.555" height="11.921" viewBox="0 0 10.555 11.921">
  <path id="attachment4" d="M10.941,9.624a3.229,3.229,0,0,1-2.5.925A3.911,3.911,0,0,1,5.926,9.411L5.9,9.388.72,4.206A2.463,2.463,0,0,1,2.462,0,2.447,2.447,0,0,1,4.2.721l5.143,5.1a0,0,0,0,0,0,0l.013.012a1.562,1.562,0,0,1,.517,1.125,1.407,1.407,0,0,1-.457.97,1.392,1.392,0,0,1-1,.457,1.493,1.493,0,0,1-1.073-.449l-3.6-3.534a.5.5,0,1,1,.7-.713l3.6,3.543,0,0a.5.5,0,0,0,.348.156.412.412,0,0,0,.288-.14l.013-.016a.515.515,0,0,0,.168-.293.647.647,0,0,0-.236-.4L3.5,1.436A1.459,1.459,0,0,0,1.429,3.5L6.61,8.68a2.89,2.89,0,0,0,1.89.868,2.252,2.252,0,0,0,1.739-.632l.051-.053a2.231,2.231,0,0,0,.633-1.739,2.892,2.892,0,0,0-.868-1.89L6.577,1.745a.5.5,0,1,1,.708-.705L10.761,4.53a3.586,3.586,0,0,1,.232,5.042l-.053.052Z" transform="translate(10.555) rotate(90)" fill="#4c5264"/>
</svg>
