<svg id="组件_6_1" data-name="组件 6 – 1" xmlns="http://www.w3.org/2000/svg" width="345" height="115" viewBox="0 0 345 115">
  <rect id="矩形_22785" data-name="矩形 22785" width="345" height="115" rx="4" fill="#f8f8f8"/>
  <g id="组_13722" data-name="组 13722" transform="translate(71 -1559)">
    <path id="路径_9163" data-name="路径 9163" d="M34,145.006c0,4.739-3.457,8.494-7.848,8.494h-17C4.114,153.5,0,149.037,0,143.589a9.78,9.78,0,0,1,7.518-9.779A10.76,10.76,0,0,1,17,128a11.312,11.312,0,0,1,10.738,8.67A8.5,8.5,0,0,1,34,145.006Zm-11.333-4.643L17,134.184l-5.667,6.184s8.5,0,11.335,0S22.667,140.363,22.667,140.363Zm-7.085,0v8.5h2.835v-8.5Z" transform="translate(85 1467)" fill="#d3d9e0"/>
    <text id="Upload" transform="translate(83 1634)" fill="#9ca2a9" font-size="12" font-family="SegoeUI, Segoe UI"><tspan x="0" y="0">Upload</tspan></text>
  </g>
</svg>
