<svg xmlns="http://www.w3.org/2000/svg" width="44" height="44" viewBox="0 0 44 44">
  <g id="组_11217" data-name="组 11217" transform="translate(-319 -50)">
    <circle id="椭圆_700" data-name="椭圆 700" cx="22" cy="22" r="22" transform="translate(319 50)" opacity="0.4"/>
    <g id="组_11216" data-name="组 11216" transform="translate(1 1)">
      <path id="路径_13137" data-name="路径 13137" d="M269.692,111.963l0,0-5.35-4.585,5.35-4.585,0,0a.864.864,0,0,0,0-1.323l0,0-6.125-5.25,0,0a.871.871,0,0,0-1.442.661v8.6l-4.68-4.012,0,0a.871.871,0,1,0-1.134,1.323l0,0,5.35,4.585-5.35,4.585,0,0a.871.871,0,1,0,1.134,1.323l0,0,4.68-4.012v8.6a.871.871,0,0,0,1.442.662l0,0,6.125-5.25,0,0a.864.864,0,0,0,0-1.323Zm-1.911.662-3.906,3.347v-6.695Zm-3.906-7.153V98.778l3.906,3.347Z" transform="translate(77 -36)" fill="#fff"/>
    </g>
  </g>
</svg>
