<svg xmlns="http://www.w3.org/2000/svg" width="14.065" height="14.064" viewBox="0 0 14.065 14.064">
  <path id="路径_9626" data-name="路径 9626" d="M193.953,201.029a7.03,7.03,0,1,1,4.974-2.059A6.991,6.991,0,0,1,193.953,201.029Zm0-12.983A5.95,5.95,0,1,0,199.9,194,5.956,5.956,0,0,0,193.953,188.046Zm0,10.711a.544.544,0,0,1-.541-.54v-.809l-.082-.021a2.78,2.78,0,0,1-.855-.359,2.454,2.454,0,0,1-.552-.451.541.541,0,0,1,.817-.711,1.529,1.529,0,0,0,.31.245,1.681,1.681,0,0,0,.9.266,1.243,1.243,0,0,0,.92-.357.567.567,0,0,0,.161-.437c-.037-.339-.323-.584-1.224-1.052l-.208-.106a5.283,5.283,0,0,1-1.338-.874,1.681,1.681,0,0,1-.1-2.222,2.19,2.19,0,0,1,1.165-.718l.08-.021v-.813a.543.543,0,0,1,1.084,0v.809l.082.02a2.82,2.82,0,0,1,.855.359,2.482,2.482,0,0,1,.552.451.541.541,0,1,1-.816.711,1.509,1.509,0,0,0-.311-.245,1.671,1.671,0,0,0-.9-.267,1.241,1.241,0,0,0-.92.358.57.57,0,0,0-.162.437c.037.338.323.584,1.225,1.051l.207.106a5.3,5.3,0,0,1,1.338.875,1.676,1.676,0,0,1,.1,2.221,2.186,2.186,0,0,1-1.164.717l-.081.021v.814a.541.541,0,0,1-.542.542Z" transform="translate(-186.92 -186.965)" fill="#fff"/>
</svg>
