<svg xmlns="http://www.w3.org/2000/svg" width="14.816" height="14.816" viewBox="0 0 14.816 14.816">
  <path id="路径_5784" data-name="路径 5784" d="M4.607,10.058a.778.778,0,0,0,1.1,0l8.516-8.516a.779.779,0,1,0-1.1-1.1L4.607,8.955A.78.78,0,0,0,4.607,10.058Zm9.431-3.82a.776.776,0,0,0-.776.776v6.243H1.561V1.557H7.8A.779.779,0,0,0,7.8,0H.776A.772.772,0,0,0,0,.776V14.041a.772.772,0,0,0,.776.775H14.042a.772.772,0,0,0,.775-.776V7.014a.778.778,0,0,0-.779-.776Z" transform="translate(-0.001)" fill="#005795"/>
</svg>
