<svg xmlns="http://www.w3.org/2000/svg" width="13.624" height="14" viewBox="0 0 13.624 14">
  <path id="路径_9706" data-name="路径 9706" d="M84.981,59.5H81.813a.541.541,0,1,0,0,1.083h2.628V63.21a.542.542,0,0,0,1.083,0V60.041A.543.543,0,0,0,84.981,59.5ZM72.442,63.751a.542.542,0,0,0,.542-.541V60.583h2.628a.541.541,0,1,0,0-1.083h-3.17a.542.542,0,0,0-.542.541V63.21A.541.541,0,0,0,72.442,63.751Zm3.168,8.666H72.983V69.79a.542.542,0,0,0-1.083,0v3.168a.542.542,0,0,0,.542.541h3.17a.541.541,0,1,0,0-1.083Zm9.371-3.168a.542.542,0,0,0-.542.541v2.627H81.813a.541.541,0,1,0,0,1.083h3.17a.542.542,0,0,0,.542-.541V69.79A.543.543,0,0,0,84.981,69.249ZM82.69,70.873a.541.541,0,0,0,.373-.933l-1.365-1.3a3.977,3.977,0,0,0-3.007-6.251c-.085,0-.169-.008-.252-.008a3.976,3.976,0,0,0-.246,7.945c.085,0,.169.008.252.008a3.96,3.96,0,0,0,2.516-.9l1.354,1.292A.54.54,0,0,0,82.69,70.873Zm-1.36-4.336a2.893,2.893,0,0,1-2.885,2.712c-.062,0-.124,0-.186-.006a2.893,2.893,0,0,1,.176-5.781c.062,0,.124,0,.184.006a2.9,2.9,0,0,1,2.71,3.069Z" transform="translate(-71.9 -59.5)" fill="#4b5266"/>
</svg>
