<svg id="组_9498" data-name="组 9498" xmlns="http://www.w3.org/2000/svg" width="42" height="42" viewBox="0 0 42 42">
  <path id="Icon_awesome-plus" data-name="Icon awesome-plus" d="M25.235,10.679H16.5V1.942A1.942,1.942,0,0,0,14.558,0H12.617a1.942,1.942,0,0,0-1.941,1.942v8.737H1.941A1.942,1.942,0,0,0,0,12.62v1.942A1.942,1.942,0,0,0,1.941,16.5h8.735v8.737a1.942,1.942,0,0,0,1.941,1.942h1.941A1.942,1.942,0,0,0,16.5,25.241V16.5h8.735a1.942,1.942,0,0,0,1.941-1.942V12.62A1.942,1.942,0,0,0,25.235,10.679Z" transform="translate(3.563 19.216) rotate(-45)" fill="#fff"/>
  <g id="矩形_6060" data-name="矩形 6060" fill="#fff" stroke="#707070" stroke-width="1" opacity="0">
    <rect width="42" height="42" stroke="none"/>
    <rect x="0.5" y="0.5" width="41" height="41" fill="none"/>
  </g>
</svg>
