<?xml version="1.0" standalone="no"?><!DOCTYPE svg PUBLIC "-//W3C//DTD SVG 1.1//EN" "http://www.w3.org/Graphics/SVG/1.1/DTD/svg11.dtd"><svg t="1644302483912" class="icon" viewBox="0 0 1024 1024" version="1.1" xmlns="http://www.w3.org/2000/svg" p-id="1565" xmlns:xlink="http://www.w3.org/1999/xlink" width="200" height="200"><defs><style type="text/css"></style></defs><path d="M225.6 226.496a403.072 403.072 0 0 0-118.272 276.992 9.088 9.088 0 0 1-9.024 8.96H29.696a9.152 9.152 0 0 1-9.152-9.408A491.136 491.136 0 0 1 511.424 20.992a488.448 488.448 0 0 1 385.856 188.16l54.592-42.752a9.088 9.088 0 0 1 14.72 7.168l-0.896 184.576a9.152 9.152 0 0 1-11.328 8.768l-179.2-43.712a9.152 9.152 0 0 1-3.392-16.128l57.152-44.672a402.944 402.944 0 0 0-474.88-122.624 402.944 402.944 0 0 0-128.448 86.72zM925.696 512.448h68.608a9.088 9.088 0 0 1 9.152 9.344 491.136 491.136 0 0 1-490.88 482.048 489.728 489.728 0 0 1-386.048-187.84l-54.656 42.688a9.088 9.088 0 0 1-14.72-7.168l0.896-184.832c0-5.76 5.632-10.176 11.328-8.768l179.2 43.776a9.152 9.152 0 0 1 3.392 16.128l-56.96 44.672a402.944 402.944 0 0 0 317.568 154.368 402.304 402.304 0 0 0 285.696-118.464 403.072 403.072 0 0 0 118.272-277.056 9.216 9.216 0 0 1 9.152-8.96z" p-id="1566" fill="#005795"></path><path d="M507.968 744.704a9.152 9.152 0 0 1-3.2-2.56l-128-162.112A9.088 9.088 0 0 1 384 565.312h84.672V288.384c0-4.992 4.096-9.152 9.152-9.152h68.544c5.056 0 9.152 4.16 9.152 9.152v277.056H640a9.152 9.152 0 0 1 7.168 14.72l-128 161.92a9.152 9.152 0 0 1-11.2 2.624z" p-id="1567" fill="#005795"></path></svg>