<svg xmlns="http://www.w3.org/2000/svg" width="13.639" height="13.639" viewBox="0 0 13.639 13.639">
  <path id="问号_1_" data-name="问号 (1)" d="M107.3,96a6.82,6.82,0,1,1-6.82,6.819A6.82,6.82,0,0,1,107.3,96Zm0,1.049a5.77,5.77,0,1,0,0,11.54,6.016,6.016,0,0,0,3.029-.858,5.643,5.643,0,0,0,2.741-4.912A5.77,5.77,0,0,0,107.3,97.049Zm.142,8.451a.525.525,0,1,1-.525.525A.525.525,0,0,1,107.441,105.5Zm0-6.352a2.084,2.084,0,0,1,2.1,2.734,3.342,3.342,0,0,1-.7,1.088l-.194.206-.279.289a1.075,1.075,0,0,0-.4.767.525.525,0,1,1-1.049,0,1.948,1.948,0,0,1,.6-1.388l.089-.1c.068-.072.307-.317.352-.364a2.57,2.57,0,0,0,.6-.878,1.042,1.042,0,0,0-1.118-1.307c-.788,0-1.227.528-1.2.975l.006.058a.525.525,0,1,1-1.037.157,2.082,2.082,0,0,1,2.233-2.24Z" transform="translate(-100.48 -96)" fill="#333"/>
</svg>
