<svg xmlns="http://www.w3.org/2000/svg" width="15.791" height="7.35" viewBox="0 0 15.791 7.35">
  <path id="invisible" d="M80.3,304.539a.609.609,0,0,0-.111-.79.552.552,0,0,0-.79.111c-.028.028-3.163,3.728-6.892,3.728-3.617,0-6.892-3.728-6.92-3.756a.56.56,0,0,0-.847.734,12.777,12.777,0,0,0,1.808,1.694l-1.441,1.5a.546.546,0,0,0,.028.79.374.374,0,0,0,.339.171.556.556,0,0,0,.4-.171l1.554-1.609A10.95,10.95,0,0,0,70,308.265l-.593,2.006a.565.565,0,0,0,.4.707h.171a.546.546,0,0,0,.536-.425l.593-2.006a7.75,7.75,0,0,0,1.411.143,7.551,7.551,0,0,0,1.411-.143l.593,1.978a.57.57,0,0,0,.536.425.222.222,0,0,0,.143-.028.569.569,0,0,0,.4-.707l-.607-1.974a10.979,10.979,0,0,0,2.571-1.327l1.526,1.583a.565.565,0,0,0,.4.171.556.556,0,0,0,.4-.171.572.572,0,0,0,.028-.79l-1.44-1.5A11.133,11.133,0,0,0,80.3,304.539Zm0,0" transform="translate(-64.61 -303.629)" fill="#999"/>
</svg>
