<svg xmlns="http://www.w3.org/2000/svg" width="13.499" height="15.749" viewBox="0 0 13.499 15.749">
  <path id="路径_9593" data-name="路径 9593" d="M139.249,64a2.25,2.25,0,0,1,2.25,2.25V77.5a2.25,2.25,0,0,1-2.25,2.25h-9A2.25,2.25,0,0,1,128,77.5V66.25A2.25,2.25,0,0,1,130.25,64Zm0,1.125h-9a1.125,1.125,0,0,0-1.117.993l-.008.132V77.5a1.125,1.125,0,0,0,.993,1.117l.132.008h9a1.125,1.125,0,0,0,1.117-.993l.008-.132V66.25a1.125,1.125,0,0,0-.993-1.117Zm-6.187,9a.562.562,0,1,1,0,1.125h-2.25a.562.562,0,0,1,0-1.125Zm2.25-3.375a.562.562,0,0,1,0,1.125h-4.5a.562.562,0,0,1,0-1.125Zm2.25-3.375a.562.562,0,0,1,0,1.125h-6.75a.562.562,0,0,1,0-1.125Z" transform="translate(-128 -64)" fill="#4b4b4b"/>
</svg>
