<svg xmlns="http://www.w3.org/2000/svg" width="19.712" height="14.344" viewBox="0 0 19.712 14.344">
  <path id="pay" d="M18.693,0H1.019A1.022,1.022,0,0,0,0,1.019V3.681H19.712V1.019A1.022,1.022,0,0,0,18.693,0ZM0,13.325a1.022,1.022,0,0,0,1.019,1.019H18.693a1.022,1.022,0,0,0,1.019-1.019V4.665H0Zm12.8-2.431.646-2.48a.242.242,0,0,1,.234-.18h3.89a.243.243,0,0,1,.233.305l-.645,2.478a.242.242,0,0,1-.233.18H13.037a.24.24,0,0,1-.233-.3ZM5.546,6.6a.338.338,0,0,1,.338-.338h.637a.338.338,0,0,1,.338.338v.9a.339.339,0,0,1-.338.338H5.884A.338.338,0,0,1,5.546,7.5Zm-2.1,0a.338.338,0,0,1,.338-.338h.637a.338.338,0,0,1,.338.338v.9a.339.339,0,0,1-.338.338H3.78A.338.338,0,0,1,3.442,7.5Zm-2.1,0a.338.338,0,0,1,.338-.338h.637a.338.338,0,0,1,.338.338v.9a.339.339,0,0,1-.338.338H1.678A.338.338,0,0,1,1.34,7.5Z" fill="#fff"/>
</svg>
