<svg xmlns="http://www.w3.org/2000/svg" width="7.825" height="8.389" viewBox="0 0 7.825 8.389">
  <path id="Icon_awesome-asterisk" data-name="Icon awesome-asterisk" d="M9.118,5.474,6.747,4.194,9.118,2.915a.39.39,0,0,0,.154-.541l-.325-.553a.4.4,0,0,0-.554-.14L6.08,3.059,6.138.4a.4.4,0,0,0-.4-.4h-.65a.4.4,0,0,0-.4.4l.058,2.658L2.433,1.681a.4.4,0,0,0-.554.14l-.325.553a.39.39,0,0,0,.154.541L4.079,4.194,1.708,5.474a.39.39,0,0,0-.154.541l.325.553a.4.4,0,0,0,.554.14L4.746,5.329,4.688,7.987a.4.4,0,0,0,.4.4h.65a.4.4,0,0,0,.4-.4L6.08,5.329,8.393,6.708a.4.4,0,0,0,.554-.14l.325-.553a.39.39,0,0,0-.154-.541Z" transform="translate(-1.5)" fill="red"/>
</svg>
