<svg xmlns="http://www.w3.org/2000/svg" width="105" height="105" viewBox="0 0 105 105">
  <g id="组_9602" data-name="组 9602" transform="translate(-479 -250)">
    <rect id="矩形_18616" data-name="矩形 18616" width="105" height="105" rx="6" transform="translate(479 250)" fill="#f0f2f4"/>
    <path id="路径_8465" data-name="路径 8465" d="M56.477,138.879a3.27,3.27,0,1,1,3.481-3.264A3.468,3.468,0,0,1,56.477,138.879ZM62.569,128a1.893,1.893,0,0,1,2.067,1.849v22.3A1.893,1.893,0,0,1,62.569,154h-28.5A1.893,1.893,0,0,1,32,152.151V129.958a1.893,1.893,0,0,1,2.067-1.849Zm-7.506,13.49,7.18,7.18V131.046a.879.879,0,0,0-.979-.762h-26a.953.953,0,0,0-.979.762V148.67l9.138-10.335a1.747,1.747,0,0,1,1.2-.544,1.356,1.356,0,0,1,1.2.435l3.916,4.025.326.218a2.3,2.3,0,0,0,.762.326,1.447,1.447,0,0,0,.87-.326L53,141.381a1.519,1.519,0,0,1,.979-.326A1.146,1.146,0,0,1,55.063,141.49Z" transform="translate(483 162)" fill="#ccced5"/>
  </g>
</svg>
