<svg xmlns="http://www.w3.org/2000/svg" width="13.601" height="13.601" viewBox="0 0 13.601 13.601">
  <path id="路径_8398" data-name="路径 8398" d="M77.84,65H65.761a.761.761,0,0,0-.761.761v3.8a.456.456,0,1,0,.913,0V66.217a.3.3,0,0,1,.3-.3H77.384a.3.3,0,0,1,.3.3v3.347a.456.456,0,1,0,.913,0v-3.8A.761.761,0,0,0,77.84,65Zm-5.725,3.725a.456.456,0,0,0-.645,0l-3.324,3.33a.457.457,0,1,0,.645.647l2.553-2.557v8a.456.456,0,0,0,.913,0V70.16L74.794,72.7a.457.457,0,1,0,.645-.647Z" transform="translate(-65 -65)" fill="#005795"/>
</svg>
