<svg xmlns="http://www.w3.org/2000/svg" width="14" height="13" viewBox="0 0 14 13">
  <g id="组_12573" data-name="组 12573" transform="translate(-65.25 -95.16)">
    <path id="路径_9688" data-name="路径 9688" d="M290.686,99.131a.5.5,0,0,0,.355-.148l2.1-2.114.014,8.3a.5.5,0,0,0,.5.5h0a.5.5,0,0,0,.5-.5l-.014-8.309,2.142,2.124a.5.5,0,1,0,.705-.711l-3-2.972-.005-.005-.012-.011h0l-.008-.007-.01-.008,0,0-.009-.007-.008-.006,0,0-.01-.007-.007-.005,0,0-.01-.006-.007,0,0,0-.009-.006-.008,0,0,0-.009,0-.01,0,0,0-.008,0-.01,0,0,0-.008,0-.012,0h0l-.007,0-.013,0h0l-.007,0-.014,0h-.01l-.014,0h-.01l-.014,0H293.7l-.013,0h-.1l-.014,0h-.01l-.016,0h-.009l-.016,0-.007,0h0l-.014,0-.007,0h0l-.013,0-.008,0h0l-.011,0-.009,0h0l-.01,0-.01,0,0,0-.008,0-.011.005,0,0-.007,0-.011.006,0,0-.005,0h0l-.011.007,0,0-.005,0h0l-.011.008,0,0-.006,0-.011.009h0l-.008.007-.01.009-.017.017-2.956,2.972a.5.5,0,0,0,.355.857Z" transform="translate(-221.418 0)" fill="#4b5266"/>
    <path id="路径_9689" data-name="路径 9689" d="M78.75,605a.5.5,0,0,0-.5.5V609h-12v-3.5a.5.5,0,1,0-1,0v4a.5.5,0,0,0,.5.5h13a.5.5,0,0,0,.5-.5v-4A.5.5,0,0,0,78.75,605Z" transform="translate(0 -501.846)" fill="#4b5266"/>
  </g>
</svg>
