<svg xmlns="http://www.w3.org/2000/svg" width="45" height="45" viewBox="0 0 45 45">
  <g id="组_12629" data-name="组 12629" transform="translate(-96.154 -96.158)">
    <path id="路径_9675" data-name="路径 9675" d="M141.154,118.658a22.5,22.5,0,1,0-22.5,22.5,22.525,22.525,0,0,0,22.5-22.5m-22.5,19.272a19.271,19.271,0,1,1,19.27-19.272,19.3,19.3,0,0,1-19.27,19.272" fill="#f8f8f8"/>
    <path id="路径_9676" data-name="路径 9676" d="M352.22,352.015l-6.963-6.984,6.957-6.88a1.609,1.609,0,1,0-2.263-2.286l-6.963,6.888-6.86-6.881a1.609,1.609,0,0,0-2.279,2.272l6.852,6.872-6.906,6.831a1.608,1.608,0,0,0,2.262,2.287l6.915-6.84,6.97,7a1.609,1.609,0,0,0,2.279-2.273" transform="translate(-224.339 -226.305)" fill="#f8f8f8"/>
  </g>
</svg>
