<svg xmlns="http://www.w3.org/2000/svg" width="77.975" height="71.98" viewBox="0 0 77.975 71.98">
  <g id="existing_organization_2" data-name="existing organization –2" transform="translate(0.033 -0.11)">
    <path id="路径_1285" data-name="路径 1285" d="M63.355,71.98H14.62C6.545,71.98,0,65.939,0,58.484V13.5C0,6.042,6.545,0,14.62,0H63.355c8.075,0,14.62,6.042,14.62,13.5V58.484C77.975,65.939,71.43,71.98,63.355,71.98Zm0,0" transform="translate(-0.033 0.11)" fill="#e3f8fa"/>
    <path id="路径_1286" data-name="路径 1286" d="M151.24,128c-12.814,0-23.24,9.955-23.24,22.19s10.426,22.19,23.24,22.19,23.24-9.955,23.24-22.19S164.054,128,151.24,128Zm10.168,24.041h-8.23V159.9a1.94,1.94,0,0,1-3.875,0v-7.858h-8.23a1.852,1.852,0,1,1,0-3.7h8.23v-7.858a1.94,1.94,0,0,1,3.875,0v7.858h8.23a1.852,1.852,0,1,1,0,3.7Zm0,0" transform="translate(-112.069 -113.779)" fill="#5b88a8"/>
  </g>
</svg>
