<svg xmlns="http://www.w3.org/2000/svg" xmlns:xlink="http://www.w3.org/1999/xlink" width="51.466" height="55.529" viewBox="0 0 51.466 55.529">
  <defs>
    <radialGradient id="radial-gradient" cx="0.5" cy="0.5" r="0.5" gradientTransform="translate(0)" gradientUnits="objectBoundingBox">
      <stop offset="0" stop-color="#ffd25a"/>
      <stop offset="0.477" stop-color="#fbb432"/>
      <stop offset="0.733" stop-color="#f9a41c"/>
      <stop offset="0.805" stop-color="#f9b61e"/>
      <stop offset="0.947" stop-color="#fad923"/>
      <stop offset="1" stop-color="#fbed25"/>
    </radialGradient>
  </defs>
  <g id="组_6592" data-name="组 6592" transform="translate(0 -24.47)">
    <g id="组_3381" data-name="组 3381" transform="translate(0 24.47)">
      <path id="路径_812" data-name="路径 812" d="M390.929,167.069a39.259,39.259,0,0,0,.519,6.183c.3,1.263.481,2.985,1.824,3.661a2.671,2.671,0,0,0,2.382-.02c.568-.3.995-.794,1.554-1.106a1.424,1.424,0,0,1,1.766.128c.371.488.09,1.172-.265,1.671a7.691,7.691,0,0,1-5.058,3.061,7.959,7.959,0,0,1-5.816-1.408c-2.468-1.813-3.5-4.873-3.953-7.8-1.018-6.647.3-13.435-.331-20.126a9.6,9.6,0,0,0-.894-3.608,1.86,1.86,0,0,0-.6-.732c-.737-.475-1.853-.046-2.569-.55a1.394,1.394,0,0,1,.054-2.1,4.179,4.179,0,0,1,2.3-.861,7.857,7.857,0,0,1,4.778.413,6.506,6.506,0,0,1,2.782,3.551,26.025,26.025,0,0,1,1.454,9.106c.063,3.179.126,6.353.033,9.537" transform="translate(-347.683 -133.38)" fill="#3890ce"/>
      <path id="路径_813" data-name="路径 813" d="M120.151,192.03s-3.012-1.5-3.4-4.176-.973-6.019,2.108-14.126a51.664,51.664,0,0,1,8.042.584c4.572.675,6.55,1.413,7.653,1.566s1.573-.015,1.9-.307.113-.829-.681-1.474-4.653-2.764-15.289-4.146c0,0,3.275-6.848,6.485-10.687s6.518-7.524,9.371-7.861c0,0-1.3-.338-1.557-1.228s1.135-1.689,1.135-1.689-2.854.583-8.2,6.05a71.57,71.57,0,0,0-10.8,15.017,16.225,16.225,0,0,0-9.242,1.228c-3.762,1.75-4.086,3.378-4.378,4.33,0,0,7.977-1.72,11.576-1.29a10.879,10.879,0,0,0-.768,1.736c-.4.992-.8,1.989-1.151,3a29.189,29.189,0,0,0-1.534,6.179,9.292,9.292,0,0,0,.669,5.4C113.646,193.154,117.247,193.523,120.151,192.03Z" transform="translate(-103.293 -138.012)" fill="#30b354"/>
      <ellipse id="椭圆_444" data-name="椭圆 444" cx="4.048" cy="3.834" rx="4.048" ry="3.834" transform="translate(32.811)" fill="url(#radial-gradient)"/>
    </g>
    <text id="AiTmed" transform="translate(31.912 77.999)" font-size="8" font-family="SegoeUI, Segoe UI" letter-spacing="0.007em"><tspan x="-13.329" y="0">AiTmed</tspan></text>
  </g>
</svg>
