<svg xmlns="http://www.w3.org/2000/svg" width="15.76" height="15.76" viewBox="0 0 15.76 15.76"><g transform="translate(-687.5 -289.5)"><path d="M13.76,14.76a1,1,0,0,1-.707-.293L-.707.707a1,1,0,0,1,0-1.414,1,1,0,0,1,1.414,0l13.76,13.76a1,1,0,0,1-.707,1.707Z" transform="translate(688.5 290.5)" fill="#707070"/><path d="M0,14.76a1,1,0,0,1-.707-.293,1,1,0,0,1,0-1.414L13.053-.707a1,1,0,0,1,1.414,0,1,1,0,0,1,0,1.414L.707,14.467A1,1,0,0,1,0,14.76Z" transform="translate(688.5 290.5)" fill="#707070"/></g></svg>