<svg xmlns="http://www.w3.org/2000/svg" width="152.492" height="138.888" viewBox="0 0 152.492 138.888">
  <g id="confetti" transform="translate(-4.093)">
    <path id="路径_5431" data-name="路径 5431" d="M81.414,142.988c-20.033-17.933-42-27.343-49.066-21.019a6.206,6.206,0,0,0-1.664,2.573l-.114-.1L23.821,149.2,17.1,173.883,9.136,203.113,4.093,221.624,33.948,211.51l37.973-12.863,30.294-10.262-.036-.032a7.265,7.265,0,0,0,2.714-1.437C111.959,180.589,101.447,160.923,81.414,142.988Z" transform="translate(0 -85.291)" fill="#0063a8"/>
    <path id="路径_5453" data-name="路径 5453" d="M49.373-.342C76.22-1.826,97.559,4.648,97.036,14.116S74.325,32.464,47.478,33.948-.709,28.958-.185,19.489,22.526,1.142,49.373-.342Z" transform="translate(90.981 115.266) rotate(-135)" fill="#e5f0f7"/>
    <path id="路径_5432" data-name="路径 5432" d="M99.465,354.606a27.917,27.917,0,0,1-10.525-1.87L64.18,361.124,26.194,373.975l-20.369,6.9-1.732,6.356,29.855-10.114,37.973-12.863,27.8-9.418Z" transform="translate(0 -250.712)" fill="#003f6b"/>
    <g id="组_7284" data-name="组 7284" transform="translate(51.409 13.842)">
      <path id="路径_5433" data-name="路径 5433" d="M282.5,273.077a2.939,2.939,0,0,1-.907-.146,88.684,88.684,0,0,0-41.126-3.577l-9.232,1.377a2.554,2.554,0,0,1-2.924-1.964,2.354,2.354,0,0,1,2.071-2.6l9.235-1.388a94.491,94.491,0,0,1,43.791,3.806,2.257,2.257,0,0,1,1.558,2.96A2.589,2.589,0,0,1,282.5,273.077Z" transform="translate(-203.167 -201.305)" fill="#ffbf41"/>
      <path id="路径_5434" data-name="路径 5434" d="M246.709,179.782a2.457,2.457,0,0,1-2.569-2.327,2.308,2.308,0,0,1,1.458-2.069l54.277-23.139a2.724,2.724,0,0,1,3.445,1.094,2.215,2.215,0,0,1-1.223,3.084h0l-54.277,23.139A2.84,2.84,0,0,1,246.709,179.782Z" transform="translate(-213.902 -121.892)" fill="#ffbf41"/>
      <path id="路径_5435" data-name="路径 5435" d="M153.129,101.117a2.807,2.807,0,0,1-.992-.178,2.234,2.234,0,0,1-1.391-3.026h0l3.758-8.073a58.445,58.445,0,0,0,3.859-39.126,2.314,2.314,0,0,1,1.905-2.793,2.613,2.613,0,0,1,3.119,1.706c.007.027.014.055.021.083a62.6,62.6,0,0,1-4.135,41.912l-3.761,8.073a2.6,2.6,0,0,1-2.383,1.423Z" transform="translate(-150.546 -47.855)" fill="#ffbf41"/>
    </g>
    <ellipse id="椭圆_651" data-name="椭圆 651" cx="5.01" cy="4.912" rx="5.01" ry="4.912" transform="translate(138.794 85.198)" fill="#d5557e"/>
    <ellipse id="椭圆_652" data-name="椭圆 652" cx="5.01" cy="4.912" rx="5.01" ry="4.912" transform="translate(76.453 20.797)" fill="#dd95c1"/>
    <path id="路径_5436" data-name="路径 5436" d="M161.262,9.256a4.921,4.921,0,0,1-5.169-4.628,5.2,5.2,0,0,1,10.338,0A4.921,4.921,0,0,1,161.262,9.256Z" transform="translate(-102.892)" fill="#7fcccb"/>
    <g id="组_7285" data-name="组 7285" transform="translate(120.4)">
      <path id="路径_5437" data-name="路径 5437" d="M390.678,46.942a2.461,2.461,0,0,1-2.585-2.314V42.314a2.6,2.6,0,0,1,5.169,0v2.314A2.46,2.46,0,0,1,390.678,46.942Z" transform="translate(-380.339 -28.431)" fill="#2276bb"/>
      <path id="路径_5438" data-name="路径 5438" d="M390.678,6.942a2.461,2.461,0,0,1-2.585-2.314V2.314a2.6,2.6,0,0,1,5.169,0V4.628A2.46,2.46,0,0,1,390.678,6.942Z" transform="translate(-380.339)" fill="#2276bb"/>
      <path id="路径_5439" data-name="路径 5439" d="M409.262,28.628h-2.585a2.461,2.461,0,0,1-2.585-2.314A2.461,2.461,0,0,1,406.678,24h2.585a2.461,2.461,0,0,1,2.585,2.314A2.46,2.46,0,0,1,409.262,28.628Z" transform="translate(-391.17 -17.058)" fill="#2276bb"/>
      <path id="路径_5440" data-name="路径 5440" d="M369.262,28.628h-2.585a2.461,2.461,0,0,1-2.585-2.314A2.461,2.461,0,0,1,366.678,24h2.585a2.461,2.461,0,0,1,2.585,2.314A2.46,2.46,0,0,1,369.262,28.628Z" transform="translate(-364.093 -17.058)" fill="#2276bb"/>
    </g>
    <path id="路径_5441" data-name="路径 5441" d="M51.865,224.608c-.289-.99-.548-1.99-.788-3.008l-6.72,24.685.517,5.644A49.729,49.729,0,0,0,61.2,283.9l37.976-12.851c-.207-.058-.421-.1-.628-.162C75.521,263.156,58.116,245.9,51.865,224.608Z" transform="translate(-27.256 -157.505)" fill="#fff"/>
    <path id="路径_5442" data-name="路径 5442" d="M125.761,385.094c-.207-.058-.421-.1-.628-.162q-3.732-1.265-7.3-2.876l-34.2,11.586a53.924,53.924,0,0,0,4.159,4.315Z" transform="translate(-53.84 -271.551)" fill="#f6f6e7"/>
    <path id="路径_5443" data-name="路径 5443" d="M312.9,95.832V107.45H299.925V95.832Z" transform="translate(-200.256 -68.114)" fill="#c9da53"/>
    <path id="路径_5444" data-name="路径 5444" d="M190.679,177.528a2.46,2.46,0,0,1-2.584-2.314,2.214,2.214,0,0,1,.855-1.719L214.8,152.67a2.8,2.8,0,0,1,3.646.236,2.145,2.145,0,0,1-.187,3.2l-25.846,20.825a2.762,2.762,0,0,1-1.729.595Z" transform="translate(-124.555 -108.111)" fill="#ffbf41"/>
    <g id="组_7286" data-name="组 7286" transform="translate(4.093 2.314)">
      <path id="路径_5445" data-name="路径 5445" d="M422.678,190.942a2.461,2.461,0,0,1-2.585-2.314v-2.314a2.6,2.6,0,0,1,5.169,0v2.314A2.46,2.46,0,0,1,422.678,190.942Z" transform="translate(-285.693 -133.094)" fill="#ffdb43"/>
      <path id="路径_5446" data-name="路径 5446" d="M447.2,180.958a2.725,2.725,0,0,1-1.827-.678l-1.827-1.636a2.147,2.147,0,0,1,.063-3.272,2.807,2.807,0,0,1,3.591,0l1.827,1.636a2.147,2.147,0,0,1,0,3.272,2.745,2.745,0,0,1-1.827.677Z" transform="translate(-301.08 -126.5)" fill="#ffdb43"/>
      <path id="路径_5447" data-name="路径 5447" d="M457.262,156.628h-2.585a2.328,2.328,0,1,1,0-4.628h2.585a2.328,2.328,0,1,1,0,4.628Z" transform="translate(-307.355 -110.35)" fill="#ffdb43"/>
      <path id="路径_5448" data-name="路径 5448" d="M445.311,130.053a2.46,2.46,0,0,1-2.584-2.314,2.2,2.2,0,0,1,.757-1.635l1.827-1.636a2.8,2.8,0,0,1,3.655.057,2.144,2.144,0,0,1,0,3.215l-1.827,1.636a2.746,2.746,0,0,1-1.827.678Z" transform="translate(-301.015 -90.319)" fill="#ffdb43"/>
      <path id="路径_5449" data-name="路径 5449" d="M422.678,118.942a2.461,2.461,0,0,1-2.585-2.314v-2.314a2.6,2.6,0,0,1,5.169,0v2.314A2.46,2.46,0,0,1,422.678,118.942Z" transform="translate(-285.693 -81.919)" fill="#ffdb43"/>
      <path id="路径_5450" data-name="路径 5450" d="M396.283,130.054a2.745,2.745,0,0,1-1.827-.678l-1.827-1.636a2.147,2.147,0,0,1,.063-3.272,2.807,2.807,0,0,1,3.591,0l1.827,1.636a2.147,2.147,0,0,1,0,3.272,2.744,2.744,0,0,1-1.827.677Z" transform="translate(-266.611 -90.319)" fill="#ffdb43"/>
      <path id="路径_5451" data-name="路径 5451" d="M17.016,8l3.993,7.245,8.93,1.162-6.462,5.639L25,30.007l-7.986-3.76L9.03,30.007l1.525-7.962L4.093,16.406l8.93-1.162Z" transform="translate(-4.093 -8)" fill="#ffdb43"/>
    </g>
    <path id="路径_5452" data-name="路径 5452" d="M394.173,369.859a16.4,16.4,0,0,0-7.924-9.35l-1.065-1.43a39.628,39.628,0,0,0-25.952-15.024,2.554,2.554,0,0,0-2.924,1.964,2.354,2.354,0,0,0,2.071,2.6,35.011,35.011,0,0,1,19.723,9.843,15.369,15.369,0,0,0-10.338,6.356c-2.784,4.463-1,10.1,3.987,12.593s11.283.894,14.067-3.569a12.316,12.316,0,0,0,1.677-5.94,10.319,10.319,0,0,1,.566,12.016,2.183,2.183,0,0,0,.9,3.171,2.76,2.76,0,0,0,3.542-.81c.023-.035.046-.071.067-.107a14.613,14.613,0,0,0,1.6-12.312Zm-12.864,1.724a5.5,5.5,0,0,1-7.023,1.816,4.386,4.386,0,0,1-2.028-6.288l.023-.038a9.824,9.824,0,0,1,7-4.077,2.883,2.883,0,0,1,1.292.268C382.754,364.354,382.871,369.079,381.31,371.583Z" transform="translate(-238.405 -244.524)" fill="#2bb3ce"/>
  </g>
</svg>
