<svg xmlns="http://www.w3.org/2000/svg" width="24.756" height="25.588" viewBox="0 0 24.756 25.588">
  <g id="组_7798" data-name="组 7798" transform="translate(-1665.387 -73.412)">
    <g id="document" transform="translate(1668 73.412)">
      <path id="路径_1265" data-name="路径 1265" d="M86.143,10l-5.57-4.282H64V29.3H86.143V10ZM64.8,28.689V6.332H80.007v4.1h5.336V28.689ZM80.807,6.767l3.969,3.052H80.807ZM86.143,10v-.18l-5.57-4.1h0Z" transform="translate(-64 -5.716)"/>
      <path id="路径_1266" data-name="路径 1266" d="M118,116h6.4v.615H118Z" transform="translate(-114.398 -112.718)"/>
      <path id="路径_1267" data-name="路径 1267" d="M118,148h4.268v.615H118Z" transform="translate(-114.398 -143.077)"/>
      <path id="路径_1268" data-name="路径 1268" d="M118,196h14.94v.615H118Z" transform="translate(-114.398 -188.616)"/>
      <path id="路径_1269" data-name="路径 1269" d="M118,228h14.94v.615H118Z" transform="translate(-114.398 -218.975)"/>
      <path id="路径_1270" data-name="路径 1270" d="M118,292h14.94v.615H118Z" transform="translate(-114.398 -279.693)"/>
      <path id="路径_1271" data-name="路径 1271" d="M118,324h10.671v.615H118Z" transform="translate(-114.398 -310.052)"/>
      <path id="路径_1272" data-name="路径 1272" d="M118,260h14.94v.615H118Z" transform="translate(-114.398 -249.334)"/>
      <path id="路径_1273" data-name="路径 1273" d="M262,372h5.336v.615H262Z" transform="translate(-248.794 -355.591)"/>
    </g>
    <path id="Icon_ionic-ios-close" data-name="Icon ionic-ios-close" d="M18.028,17.164l3.894-4.2a1.044,1.044,0,0,0,0-1.391.87.87,0,0,0-1.29,0l-3.894,4.2-3.894-4.2a.87.87,0,0,0-1.29,0,1.036,1.036,0,0,0,0,1.391l3.894,4.2-3.894,4.2a1.036,1.036,0,0,0,0,1.391.87.87,0,0,0,1.29,0l3.894-4.2,3.894,4.2a.87.87,0,0,0,1.29,0,1.044,1.044,0,0,0,0-1.391Z" transform="translate(1654.102 75.961)" fill="#f0142f"/>
  </g>
</svg>
