<svg xmlns="http://www.w3.org/2000/svg" width="62.412" height="27" viewBox="0 0 62.412 27">
  <g id="组_9254" data-name="组 9254" transform="translate(-1738.588 -213)">
    <text id="Edit" transform="translate(1784 235)" fill="#045795" font-size="20" font-family="SegoeUI, Segoe UI"><tspan x="-16.758" y="0">Edit</tspan></text>
    <g id="组_9253" data-name="组 9253">
      <g id="组_9252" data-name="组 9252" transform="matrix(0.966, 0.259, -0.259, 0.966, 1742.165, 218.839)">
        <path id="路径_9096" data-name="路径 9096" d="M354.873,569.134c.178.1,3.31,1.909,3.432,1.979.159.093.2.3.032.373-.136.064-2.865,1.307-3.1,1.412a.277.277,0,0,1-.372-.214c-.02-.185-.311-3.184-.328-3.4a.2.2,0,0,1,.334-.153Z" transform="translate(-354.539 -559.096)" fill="#045795"/>
        <path id="路径_9097" data-name="路径 9097" d="M376.627,238.487a2.231,2.231,0,0,1,.816,3.047l-4.94,8.558-3.864-2.231,4.94-8.558A2.231,2.231,0,0,1,376.627,238.487Z" transform="translate(-368.43 -238.188)" fill="#045795"/>
      </g>
      <path id="路径_9098" data-name="路径 9098" d="M358.4,737.28m1,0h13q1,0,1,.867h0q0,.866-1,.866h-13q-1,0-1-.866h0Q358.4,737.28,359.4,737.28Z" transform="translate(1380.553 -502.682)" fill="#045795"/>
    </g>
  </g>
</svg>
