<svg xmlns="http://www.w3.org/2000/svg" width="19" height="18" viewBox="0 0 19 18">
  <g id="Starred" fill="none">
    <path d="M8.6,1.918a1,1,0,0,1,1.809,0l1.711,3.628a1,1,0,0,0,.78.566l3.986.5a1,1,0,0,1,.558,1.723l-2.925,2.733a1,1,0,0,0-.3.919l.755,3.927a1,1,0,0,1-1.463,1.065L9.981,15.044a1,1,0,0,0-.962,0L5.493,16.978A1,1,0,0,1,4.03,15.912l.755-3.927a1,1,0,0,0-.3-.919L1.56,8.333A1,1,0,0,1,2.119,6.61l3.986-.5a1,1,0,0,0,.78-.566Z" stroke="none"/>
    <path d="M 9.499997138977051 3.047492027282715 L 8.060349464416504 6.099892616271973 C 7.722518920898438 6.81617259979248 7.051689147949219 7.302542686462402 6.265889167785645 7.400932312011719 L 2.915775299072266 7.820433616638184 L 5.372529029846191 10.11571311950684 C 5.953739166259766 10.65872287750244 6.211129188537598 11.44923210144043 6.061038970947266 12.23033332824707 L 5.426810264587402 15.53121185302734 L 8.393988609313965 13.90396308898926 C 8.731999397277832 13.71856307983398 9.114459037780762 13.62057304382324 9.499999046325684 13.62057304382324 C 9.885539054870605 13.62057304382324 10.26799869537354 13.71856307983398 10.60595893859863 13.90393257141113 L 13.57318687438965 15.53120803833008 L 12.9389591217041 12.2303524017334 C 12.78886890411377 11.44923210144043 13.0462589263916 10.65872287750244 13.62746906280518 10.11571311950684 L 16.08422470092773 7.820431709289551 L 12.73408889770508 7.400922775268555 C 11.9482889175415 7.302513122558594 11.27746963500977 6.816152572631836 10.93964862823486 6.099883079528809 L 9.499997138977051 3.047492027282715 M 9.499999046325684 1.34422492980957 C 9.86207389831543 1.34422492980957 10.22414875030518 1.535367965698242 10.40444946289062 1.917652130126953 L 12.11542892456055 5.545332908630371 C 12.26149940490723 5.855032920837402 12.55586910247803 6.068452835083008 12.89562892913818 6.111002922058105 L 16.88134956359863 6.610093116760254 C 17.7226390838623 6.715442657470703 18.05932998657227 7.754232406616211 17.43978881835938 8.333052635192871 L 14.51495933532715 11.06564331054688 C 14.2637996673584 11.30029296875 14.15074920654297 11.64749336242676 14.21560859680176 11.98504257202148 L 14.97017860412598 15.9122428894043 C 15.12986946105957 16.74334335327148 14.24932765960693 17.38467216491699 13.50728893280029 16.97773361206055 L 9.980849266052246 15.04377269744873 C 9.681328773498535 14.87950325012207 9.318669319152832 14.87950325012207 9.019148826599121 15.04377269744873 L 5.492709159851074 16.97773361206055 C 4.750667572021484 17.38467216491699 3.870128631591797 16.74334335327148 4.029819488525391 15.9122428894043 L 4.784389495849609 11.98504257202148 C 4.849248886108398 11.64749336242676 4.736199378967285 11.30029296875 4.485038757324219 11.06564331054688 L 1.560218811035156 8.333052635192871 C 0.9406681060791016 7.754232406616211 1.277359008789062 6.715442657470703 2.118648529052734 6.610093116760254 L 6.104369163513184 6.111002922058105 C 6.44412899017334 6.068462371826172 6.738498687744141 5.855032920837402 6.88456916809082 5.545332908630371 L 8.595548629760742 1.917652130126953 C 8.775849342346191 1.535367965698242 9.137924194335938 1.34422492980957 9.499999046325684 1.34422492980957 Z" stroke="none" fill="#f8ae29"/>
  </g>
</svg>
