<svg xmlns="http://www.w3.org/2000/svg" width="37.21" height="29.239" viewBox="0 0 37.21 29.239">
  <g id="enter-outline" transform="translate(0 0)">
    <path id="路径_8382" data-name="路径 8382" d="M331.121,169.239H313.858a4.433,4.433,0,0,1-.456-.024c-.15-.016-.3-.039-.449-.063a4.408,4.408,0,0,1-.873-.268,3.906,3.906,0,0,1-.409-.2,4,4,0,0,1-.393-.236,4.709,4.709,0,0,1-1.015-.921,5.335,5.335,0,0,1-.5-.763c-.071-.134-.134-.275-.2-.409s-.11-.283-.157-.433a4.514,4.514,0,0,1-.11-.441,4.343,4.343,0,0,1-.094-.9v-3.32a1.33,1.33,0,1,1,2.66,0v3.32a1.644,1.644,0,0,0,.008.2c.008.063.016.126.031.2l.047.189a1.222,1.222,0,0,0,.063.181,1.18,1.18,0,0,0,.087.173,1.163,1.163,0,0,0,.1.165c.039.055.079.11.118.157a1.14,1.14,0,0,0,.134.142c.047.047.094.087.142.134s.1.079.157.118a1.881,1.881,0,0,0,.165.1c.055.031.118.055.181.087a1.649,1.649,0,0,0,.181.063l.189.047a1.465,1.465,0,0,0,.2.031,1.644,1.644,0,0,0,.2.008h17.263a1.644,1.644,0,0,0,.2-.008,1.7,1.7,0,0,0,.2-.031l.189-.047a1.225,1.225,0,0,0,.181-.063,1.185,1.185,0,0,0,.173-.087,1.876,1.876,0,0,0,.165-.1c.055-.039.11-.079.157-.118a1.141,1.141,0,0,0,.142-.134c.047-.047.087-.094.134-.142s.079-.1.118-.157a1.874,1.874,0,0,0,.1-.165c.031-.055.055-.118.087-.173s.047-.126.063-.181l.047-.189a1.468,1.468,0,0,0,.031-.2,1.579,1.579,0,0,0,.008-.2V144.674a1.643,1.643,0,0,0-.008-.2,1.7,1.7,0,0,0-.031-.2l-.047-.189a1.219,1.219,0,0,0-.063-.181,1.825,1.825,0,0,0-.189-.346c-.039-.055-.079-.11-.118-.157a1.139,1.139,0,0,0-.134-.142c-.047-.047-.094-.087-.142-.134s-.1-.079-.157-.118a1.876,1.876,0,0,0-.165-.1c-.055-.031-.118-.055-.173-.087a1.652,1.652,0,0,0-.181-.063l-.189-.047a1.471,1.471,0,0,0-.2-.031,1.647,1.647,0,0,0-.2-.008H313.858a1.647,1.647,0,0,0-.2.008c-.063.008-.126.016-.2.031l-.189.047a1.225,1.225,0,0,0-.181.063,1.184,1.184,0,0,0-.173.087,1.881,1.881,0,0,0-.165.1c-.055.039-.11.079-.157.118a1.139,1.139,0,0,0-.142.134c-.047.047-.087.094-.134.142s-.079.1-.118.157a1.886,1.886,0,0,0-.1.165c-.031.055-.055.118-.087.173a1.647,1.647,0,0,0-.063.181l-.047.189a1.467,1.467,0,0,0-.031.2,1.644,1.644,0,0,0-.008.2v3.32a1.33,1.33,0,1,1-2.66,0v-3.32a4.346,4.346,0,0,1,.094-.9,4.408,4.408,0,0,1,.268-.873,3.906,3.906,0,0,1,.2-.409,4.008,4.008,0,0,1,.236-.393,4.71,4.71,0,0,1,.921-1.015c.118-.094.244-.189.37-.275a4,4,0,0,1,.393-.236c.134-.071.275-.134.409-.2s.283-.11.433-.157a4.513,4.513,0,0,1,.441-.11,4.343,4.343,0,0,1,.9-.094h17.263a4.343,4.343,0,0,1,.9.094,4.011,4.011,0,0,1,.441.11c.142.047.291.094.433.157a3.909,3.909,0,0,1,.409.2,4,4,0,0,1,.393.236,4.71,4.71,0,0,1,1.015.921c.094.118.189.244.275.37a4.008,4.008,0,0,1,.236.393c.071.134.134.275.2.409s.11.283.157.425a4.511,4.511,0,0,1,.11.441,2.931,2.931,0,0,1,.063.449,4.429,4.429,0,0,1,.024.456v19.915a4.429,4.429,0,0,1-.024.456c-.016.15-.039.3-.063.449a4.411,4.411,0,0,1-.268.873,3.912,3.912,0,0,1-.2.409,4.007,4.007,0,0,1-.236.393,4.71,4.71,0,0,1-.921,1.015c-.118.094-.244.189-.37.275a4,4,0,0,1-.393.236c-.134.071-.275.134-.409.2s-.283.11-.433.157a4.5,4.5,0,0,1-.441.11,2.928,2.928,0,0,1-.448.063A3.32,3.32,0,0,1,331.121,169.239Z" transform="translate(-298.585 -140)" fill="#073d68"/>
    <path id="路径_8383" data-name="路径 8383" d="M59.323,325.045a1.316,1.316,0,0,1-.936-.386,1.33,1.33,0,0,1,0-1.881l4.375-4.375H40.73a1.33,1.33,0,1,1,0-2.66H62.753l-4.375-4.375a1.33,1.33,0,1,1,1.881-1.881L66.9,316.13a1.33,1.33,0,0,1,0,1.881l-6.641,6.641A1.292,1.292,0,0,1,59.323,325.045Z" transform="translate(-39.4 -302.447)" fill="#073d68"/>
  </g>
</svg>
