<svg xmlns="http://www.w3.org/2000/svg" width="29.434" height="25.893" viewBox="0 0 29.434 25.893">
  <g id="组_8828" data-name="组 8828" transform="translate(-349 -270.643)">
    <g id="组_8685" data-name="组 8685" transform="translate(349 270.643)">
      <path id="路径_8435" data-name="路径 8435" d="M206.13,238.3H176.7v-17.62h27.24a2.2,2.2,0,0,1,2.194,2.194V238.3Zm-11.037-17.62A3.677,3.677,0,0,0,191.415,217H176.7v3.678h18.392" transform="translate(-176.7 -217)" fill="#ce9f06"/>
      <path id="路径_8436" data-name="路径 8436" d="M260.5,350.033V339h22.074v11.033Z" transform="translate(-256.822 -333.646)" fill="#fff"/>
      <path id="路径_8437" data-name="路径 8437" d="M206.13,404.028V389.739a1.841,1.841,0,0,0-1.839-1.839H178.539a1.841,1.841,0,0,0-1.839,1.839v14.285a2.269,2.269,0,0,0,2.269,2.269h24.9A2.262,2.262,0,0,0,206.13,404.028Z" transform="translate(-176.7 -380.4)" fill="#ffcd2c"/>
    </g>
  </g>
</svg>
