<svg xmlns="http://www.w3.org/2000/svg" width="23.036" height="18.069" viewBox="0 0 23.036 18.069">
  <path id="路径_8440" data-name="路径 8440" d="M87.856,139.52a13.392,13.392,0,0,0-2.062-6.787,11.514,11.514,0,0,0-4-3.709,13.968,13.968,0,0,0-4.207-1.545v-2.318a2.2,2.2,0,0,0-1.127-1.93,2.052,2.052,0,0,0-2.114.066l-.045.031-8.492,6.251a2.226,2.226,0,0,0,0,3.7l8.49,6.25.045.031a2.068,2.068,0,0,0,2.117.066,2.2,2.2,0,0,0,1.127-1.93v-1.952a5.9,5.9,0,0,1,5.389,1.549,9.493,9.493,0,0,1,2.109,2.87,1.445,1.445,0,0,0,2.772-.639h0Zm-3.837-3.381a7.811,7.811,0,0,0-3.423-1.876,7.321,7.321,0,0,0-1.715-.2,9.145,9.145,0,0,0-2.266.3.777.777,0,0,0-.585.753v2.576a.642.642,0,0,1-.322.568.533.533,0,0,1-.256.067.512.512,0,0,1-.261-.073l-8.483-6.246-.045-.031a.67.67,0,0,1,0-1.1l.045-.031,8.486-6.246a.51.51,0,0,1,.515-.006.642.642,0,0,1,.322.568v2.979a.777.777,0,0,0,.675.769,12.27,12.27,0,0,1,4.323,1.466,9.99,9.99,0,0,1,3.467,3.211,11.606,11.606,0,0,1,1.771,5.457A11.046,11.046,0,0,0,84.018,136.139Zm0,0" transform="translate(-64.82 -122.97)" fill="#4b5266"/>
</svg>
