<svg xmlns="http://www.w3.org/2000/svg" width="20" height="13.249" viewBox="0 0 20 13.249"><path d="M23.212,10.342l-5.173,5.042a.086.086,0,0,0,0,.129l3.62,3.689a.579.579,0,0,1,0,.846.647.647,0,0,1-.885,0l-3.606-3.676a.1.1,0,0,0-.139,0l-.88.856a3.959,3.959,0,0,1-2.76,1.113A4.037,4.037,0,0,1,10.572,17.2l-.846-.823a.1.1,0,0,0-.139,0L5.981,20.048a.647.647,0,0,1-.885,0,.579.579,0,0,1,0-.846l3.62-3.689a.1.1,0,0,0,0-.129L3.538,10.342a.1.1,0,0,0-.163.064V20.495a1.511,1.511,0,0,0,1.538,1.472H21.837a1.511,1.511,0,0,0,1.538-1.472V10.406A.1.1,0,0,0,23.212,10.342Z" transform="translate(-3.375 -8.717)" fill="#005795"/><path d="M13.644,16.3a2.674,2.674,0,0,0,1.88-.754L23.067,8.2a1.554,1.554,0,0,0-.952-.322H5.178a1.543,1.543,0,0,0-.952.322l7.543,7.346A2.674,2.674,0,0,0,13.644,16.3Z" transform="translate(-3.644 -7.875)" fill="#005795"/></svg>