<svg xmlns="http://www.w3.org/2000/svg" width="14.363" height="17.646" viewBox="0 0 14.363 17.646">
  <g id="组_8536" data-name="组 8536" transform="translate(-1908 -8456.341)">
    <path id="路径_8273" data-name="路径 8273" d="M150.773,59.078h-.205V58.053a4.719,4.719,0,0,0-9.438,0v1.026h-.205a2.261,2.261,0,0,0-2.257,2.257v7.387a2.261,2.261,0,0,0,2.257,2.257h9.849a2.261,2.261,0,0,0,2.257-2.257V61.335A2.261,2.261,0,0,0,150.773,59.078Zm-8.413-1.026a3.488,3.488,0,1,1,6.976,0v1.026H142.36Zm9.438,10.67a1.026,1.026,0,0,1-1.026,1.026h-9.849a1.026,1.026,0,0,1-1.026-1.026V61.335a1.026,1.026,0,0,1,1.026-1.026h9.849a1.026,1.026,0,0,1,1.026,1.026Z" transform="translate(1769.333 8403.008)"/>
    <g id="矩形_18505" data-name="矩形 18505" transform="translate(1913.973 8465.799)" fill="none" stroke="#000" stroke-width="0.5">
      <rect width="2.24" height="4.48" rx="1.12" stroke="none"/>
      <rect x="0.25" y="0.25" width="1.74" height="3.98" rx="0.87" fill="none"/>
    </g>
  </g>
</svg>
