<svg xmlns="http://www.w3.org/2000/svg" width="21.309" height="12.337" viewBox="0 0 21.309 12.337">
  <g id="组_9691" data-name="组 9691" transform="translate(0 -256)">
    <path id="路径_9527" data-name="路径 9527" d="M19.627,268.337H1.682A1.684,1.684,0,0,1,0,266.654v-8.972A1.684,1.684,0,0,1,1.682,256H19.627a1.684,1.684,0,0,1,1.682,1.682v8.972A1.684,1.684,0,0,1,19.627,268.337ZM1.682,257.122a.561.561,0,0,0-.561.561v8.972a.561.561,0,0,0,.561.561H19.627a.561.561,0,0,0,.561-.561v-8.972a.561.561,0,0,0-.561-.561H1.682Z" transform="translate(0)" fill="#2988e6"/>
    <path id="路径_9528" data-name="路径 9528" d="M104.082,359.521h-1.122a.561.561,0,1,1,0-1.122h1.122a.561.561,0,1,1,0,1.122Zm14.58,0h-1.122a.561.561,0,1,1,0-1.122h1.122a.561.561,0,1,1,0,1.122ZM105.2,361.765h-2.243a.561.561,0,1,1,0-1.122H105.2a.561.561,0,1,1,0,1.122Zm-1.122,4.486h-1.122a.561.561,0,1,1,0-1.122h1.122a.561.561,0,0,1,0,1.122Zm8.972,0h-6.729a.561.561,0,0,1,0-1.122h6.729a.561.561,0,0,1,0,1.122Zm3.365,0H115.3a.561.561,0,1,1,0-1.122h1.122a.561.561,0,0,1,0,1.122Zm2.243-2.243H115.3a.561.561,0,1,1,0-1.122h2.8V361.2a.561.561,0,0,1,1.122,0v2.243A.561.561,0,0,1,118.662,364.008Zm-12.337,0h-3.365a.561.561,0,1,1,0-1.122h3.365a.561.561,0,1,1,0,1.122Zm.561-5.047a.561.561,0,1,1-.561-.561A.561.561,0,0,1,106.886,358.961Zm2.243,0a.561.561,0,1,1-.561-.561A.561.561,0,0,1,109.129,358.961Zm2.243,0a.561.561,0,1,1-.561-.561A.561.561,0,0,1,111.372,358.961Zm2.243,0a.561.561,0,1,1-.561-.561A.561.561,0,0,1,113.615,358.961Zm2.243,0a.561.561,0,1,1-.561-.561A.561.561,0,0,1,115.858,358.961Zm-7.851,2.243a.561.561,0,1,1-.561-.561A.561.561,0,0,1,108.008,361.2Zm2.243,0a.561.561,0,1,1-.561-.561A.561.561,0,0,1,110.251,361.2Zm2.243,0a.561.561,0,1,1-.561-.561A.561.561,0,0,1,112.494,361.2Zm2.243,0a.561.561,0,1,1-.561-.561A.561.561,0,0,1,114.737,361.2Z" transform="translate(-100.157 -100.157)" fill="#2988e6"/>
    <path id="路径_9529" data-name="路径 9529" d="M367.372,461.361a.561.561,0,1,1-.561-.561A.561.561,0,0,1,367.372,461.361Zm-7.851,2.243a.561.561,0,1,1-.561-.561A.561.561,0,0,1,359.521,463.6Zm2.243,0a.561.561,0,1,1-.561-.561A.561.561,0,0,1,361.765,463.6Zm2.243,0a.561.561,0,1,1-.561-.561A.561.561,0,0,1,364.008,463.6Z" transform="translate(-350.549 -200.314)" fill="#2988e6"/>
  </g>
</svg>
