<svg xmlns="http://www.w3.org/2000/svg" xmlns:xlink="http://www.w3.org/1999/xlink" width="242.285" height="220.03" viewBox="0 0 242.285 220.03"><defs><linearGradient id="a" x1="0.5" x2="0.5" y2="1" gradientUnits="objectBoundingBox"><stop offset="0" stop-color="#d4dbe5"/><stop offset="1" stop-color="#fff"/></linearGradient><linearGradient id="b" x1="0.5" y1="1" x2="0.5" gradientUnits="objectBoundingBox"><stop offset="0.112" stop-color="#fff"/><stop offset="0.92" stop-color="#e2e6ed"/></linearGradient><linearGradient id="c" x1="0.5" y1="1" x2="0.5" gradientUnits="objectBoundingBox"><stop offset="0.112" stop-color="#f1f3f6"/><stop offset="0.92" stop-color="#d2d9e3"/></linearGradient><linearGradient id="d" x1="0.5" y1="1" x2="0.5" y2="0" xlink:href="#c"/><linearGradient id="e" x1="-486.372" y1="156.632" x2="-486.372" y2="155.632" xlink:href="#c"/><linearGradient id="f" x1="0.5" y1="1" x2="0.5" gradientUnits="objectBoundingBox"><stop offset="0.112" stop-color="#cad5e2"/><stop offset="0.92" stop-color="#e7ebf0"/></linearGradient><linearGradient id="g" x1="0.5" y1="1" x2="0.5" gradientUnits="objectBoundingBox"><stop offset="0.112" stop-color="#c2cfdd"/><stop offset="0.92" stop-color="#dae0e8"/></linearGradient><linearGradient id="h" x1="0.242" y1="-0.146" x2="0.758" y2="1.146" gradientUnits="objectBoundingBox"><stop offset="0.088" stop-color="#ebeef2"/><stop offset="1" stop-color="#d2d9e3"/></linearGradient><linearGradient id="i" x1="0.25" y1="0.067" x2="0.75" y2="0.933" xlink:href="#h"/><linearGradient id="j" x1="1" y1="0.5" x2="0" y2="0.5" gradientUnits="objectBoundingBox"><stop offset="0.112" stop-color="#cad5e2"/><stop offset="0.92" stop-color="#d2d9e3"/></linearGradient></defs><g transform="translate(-107.68 -128.29)" opacity="0.535"><g transform="translate(107.68 128.29)"><ellipse cx="121.143" cy="30.773" rx="121.143" ry="30.773" transform="translate(0 158.484)" fill="url(#a)"/><path d="M313.408,184.428V135.372l-9.846-7.082-43.009,17.1v50.092h-9.846V181.664H231.881v12.956H222.9V170.435H206.66v42.836h-4.491V137.791H163.824v69.266H144.308v25.652H133.08V257.58H347.952V184.428Z" transform="translate(-122.633 -128.29)" fill="url(#b)"/><circle cx="6.248" cy="6.248" r="6.248" transform="translate(11.389 85.928)" fill="url(#c)"/><circle cx="8.867" cy="8.867" r="8.867" transform="translate(194.513 45.111)" fill="url(#d)"/><circle cx="5.038" cy="5.038" r="5.038" transform="translate(189.475 175.121)" fill="url(#e)"/><g transform="translate(45.518 51.058)"><g transform="translate(43.527 3.48)"><path d="M382.078,294.324l-26.73-27.006-27.993,26.9-3.175-3.3,31.246-30.029L385.331,291.1Z" transform="translate(-324.18 -260.89)" fill="url(#f)"/></g><path d="M349.417,424.407H234.687A16.335,16.335,0,0,1,218.35,408.07V337.447a16.335,16.335,0,0,1,16.337-16.337h114.73a16.335,16.335,0,0,1,16.337,16.337V408.07A16.338,16.338,0,0,1,349.417,424.407Z" transform="translate(-218.35 -292.862)" fill="url(#g)"/><path d="M362.191,432.513H246.617A12.715,12.715,0,0,1,233.9,419.8V347.6a12.715,12.715,0,0,1,12.717-12.717H362.191A12.715,12.715,0,0,1,374.908,347.6v72.2A12.721,12.721,0,0,1,362.191,432.513Z" transform="translate(-227.504 -300.969)" fill="url(#h)"/><circle cx="7.56" cy="7.56" r="7.56" transform="translate(67.103)" fill="url(#i)"/><path d="M388.6,429.28,375.47,416.921a33.892,33.892,0,1,0-7.05,7.07l13.342,12.557a4.99,4.99,0,0,0,6.84-7.268ZM324.338,396.8a23.9,23.9,0,1,1,23.9,23.9A23.921,23.921,0,0,1,324.338,396.8Z" transform="translate(-274.872 -317.482)" fill="url(#j)"/></g></g></g></svg>