<svg xmlns="http://www.w3.org/2000/svg" width="22.5" height="16.75" viewBox="0 0 22.5 16.75"><path d="M21.838,3.09a9.87,9.87,0,0,0-4.093-.84c-4.33,0-8.66,2.331-12.99,2.331A10.079,10.079,0,0,1,1.5,4.068a1.136,1.136,0,0,0-.364-.061A1.154,1.154,0,0,0,0,5.2V17.058a1.2,1.2,0,0,0,.662,1.1A9.864,9.864,0,0,0,4.755,19c4.33,0,8.66-2.331,12.991-2.331A10.079,10.079,0,0,1,21,17.182a1.136,1.136,0,0,0,.364.061A1.154,1.154,0,0,0,22.5,16.053V4.192A1.2,1.2,0,0,0,21.838,3.09ZM1.688,6a11.552,11.552,0,0,0,2.205.334A2.293,2.293,0,0,1,1.688,8.258Zm0,10.656V14.866a2.318,2.318,0,0,1,2.24,2.3A8.059,8.059,0,0,1,1.688,16.653Zm9.563-2.438c-1.554,0-2.813-1.607-2.813-3.589S9.7,7.036,11.25,7.036s2.813,1.607,2.813,3.589S12.8,14.214,11.25,14.214Zm9.563,1.039a11.421,11.421,0,0,0-1.91-.316,2.3,2.3,0,0,1,1.91-1.843Zm0-8.828a2.338,2.338,0,0,1-1.962-2.3,8.027,8.027,0,0,1,1.962.473Z" transform="translate(0 -2.25)" fill="#fff"/></svg>