<svg xmlns="http://www.w3.org/2000/svg" width="13.822" height="15.975" viewBox="0 0 13.822 15.975">
  <g id="room" transform="translate(-76.921 -9.876)">
    <path id="路径_9533" data-name="路径 9533" d="M85.018,10.145a1.022,1.022,0,0,0-.88-.183l-6.864,1.73a.4.4,0,0,0-.3.39V24.19a.4.4,0,0,0,.334.4l6.907,1.2a.99.99,0,0,0,.178.016,1.02,1.02,0,0,0,1.022-1.022V10.952a1.02,1.02,0,0,0-.393-.807ZM84.6,24.782a.218.218,0,0,1-.075.164.223.223,0,0,1-.178.048l-3.444-.6-3.129-.543V12.4l6.557-1.652a.215.215,0,0,1,.269.207Z" transform="translate(0 0)" stroke="#000" stroke-width="0.1"/>
    <path id="路径_9534" data-name="路径 9534" d="M393.3,94.3a.764.764,0,1,0,.767.761A.764.764,0,0,0,393.3,94.3Zm6.963-5.72h-3.371a.4.4,0,1,0,0,.807h3.371a.215.215,0,0,1,.215.215v11.521a.213.213,0,0,1-.215.213h-3.371a.4.4,0,1,0,0,.807h3.371a1.022,1.022,0,0,0,1.022-1.02V89.6a1.022,1.022,0,0,0-1.022-1.025Z" transform="translate(-310.588 -77.406)" stroke="#000" stroke-width="0.1"/>
  </g>
</svg>
