<svg xmlns="http://www.w3.org/2000/svg" xmlns:xlink="http://www.w3.org/1999/xlink" width="94" height="88" viewBox="0 0 94 88">
  <defs>
    <filter id="矩形_16932" x="0" y="0" width="94" height="88" filterUnits="userSpaceOnUse">
      <feOffset dy="3" input="SourceAlpha"/>
      <feGaussianBlur stdDeviation="3" result="blur"/>
      <feFlood flood-opacity="0.078"/>
      <feComposite operator="in" in2="blur"/>
      <feComposite in="SourceGraphic"/>
    </filter>
  </defs>
  <g id="组_7797" data-name="组 7797" transform="translate(-753 -133)">
    <g transform="matrix(1, 0, 0, 1, 753, 133)" filter="url(#矩形_16932)">
      <rect id="矩形_16932-2" data-name="矩形 16932" width="76" height="70" rx="3" transform="translate(9 6)" fill="#f1f1f1"/>
    </g>
    <text id="Compared_to_21340" data-name="Compared to ($21340" transform="translate(786 202)" fill="#517086" font-size="13" font-family="Poppins-Regular, Poppins"><tspan x="0" y="0">Send</tspan></text>
    <g id="mail-send" transform="translate(772 70.383)">
      <path id="路径_1243" data-name="路径 1243" d="M95.393,112.908l.062-.015.053-.013.06-.02.052-.019.055-.025c.018-.008.036-.016.053-.025l.05-.029c.017-.01.035-.02.052-.031s.035-.025.052-.037l.044-.032c.026-.021.051-.043.075-.066l.013-.012.013-.014c.023-.023.046-.047.067-.073s.023-.03.035-.046.025-.031.036-.048.022-.036.033-.054.019-.03.028-.046.018-.037.027-.055.016-.033.024-.05.014-.037.021-.055.014-.036.019-.054.01-.038.015-.057.01-.037.014-.056.007-.045.01-.067.005-.031.007-.047a1.152,1.152,0,0,0,.006-.118v-25.3a1.2,1.2,0,0,0-1.211-1.184H57.012l-.032,0-.069,0-.054.006-.062.009-.057.012-.057.015-.056.017-.056.02-.052.021-.057.027-.047.025-.055.033-.044.029-.051.037-.045.036-.043.038-.046.046-.023.023-.012.015c-.015.017-.029.035-.044.053l-.031.04c-.013.018-.024.036-.036.054s-.019.03-.028.045-.019.036-.028.054-.017.033-.025.05-.015.036-.022.054-.014.036-.02.054-.011.037-.016.055-.011.038-.015.057-.007.036-.01.054-.007.041-.01.062,0,.034,0,.052,0,.044,0,.066c0,.006,0,.013,0,.019v7.3a1.211,1.211,0,0,0,2.422,0V89.073l10.766,9.318a1.217,1.217,0,0,0-.161.131L58.223,108.889V101.11a1.211,1.211,0,0,0-2.422,0v1.446H49.544a1.184,1.184,0,1,0,0,2.368H55.8v6.823a1.2,1.2,0,0,0,1.211,1.184H95.157c.04,0,.08,0,.119-.006l.055-.008Zm-1.447-4.019L83.34,98.521l-.021-.018,7.973-6.613a1.166,1.166,0,0,0,.14-1.669,1.23,1.23,0,0,0-1.707-.137L76.1,101.384,60.206,87.628h33.74Zm-23.4-8.693a1.182,1.182,0,0,0,.211-.279l4.529,3.92a1.232,1.232,0,0,0,1.586.016l4.616-3.828a1.2,1.2,0,0,0,.144.17l10.606,10.368h-32.3Z" transform="translate(-40.529)" fill="#5b88a8"/>
      <path id="路径_1244" data-name="路径 1244" d="M1.211,158.044H21.663a1.184,1.184,0,1,0,0-2.368H1.211a1.184,1.184,0,1,0,0,2.368Z" transform="translate(0 -59.302)" fill="#5b88a8"/>
      <path id="路径_1245" data-name="路径 1245" d="M14.336,116.713h9.183a1.184,1.184,0,1,0,0-2.368H14.336a1.184,1.184,0,1,0,0,2.368Z" transform="translate(-11.006 -24.494)" fill="#5b88a8"/>
      <path id="路径_1246" data-name="路径 1246" d="M10.091,226.51H1.211a1.184,1.184,0,1,0,0,2.368h8.88a1.184,1.184,0,1,0,0-2.368Z" transform="translate(0 -118.956)" fill="#5b88a8"/>
    </g>
  </g>
</svg>
