<svg xmlns="http://www.w3.org/2000/svg" width="17.116" height="15.894" viewBox="0 0 17.116 15.894">
  <path id="路径_9490" data-name="路径 9490" d="M71.947,137.781h1.223a.611.611,0,1,0,0-1.223H71.947a.611.611,0,1,0,0,1.223Zm0,2.445h1.223a.611.611,0,1,0,0-1.223H71.947a.611.611,0,1,0,0,1.223Zm6.724-11H76.226v-.611a.611.611,0,0,0-1.223,0v.611h-4.89v-.611a.611.611,0,0,0-1.223,0v.611H66.445A2.452,2.452,0,0,0,64,131.668v9.781a2.452,2.452,0,0,0,2.445,2.445H78.671a2.452,2.452,0,0,0,2.445-2.445v-9.781A2.452,2.452,0,0,0,78.671,129.223Zm1.223,12.226a1.226,1.226,0,0,1-1.223,1.223H66.445a1.226,1.226,0,0,1-1.223-1.223v-7.335H79.894Zm0-8.558H65.223v-1.223a1.226,1.226,0,0,1,1.223-1.223H68.89v.611a.611.611,0,0,0,1.223,0v-.611H75v.611a.611.611,0,0,0,1.223,0v-.611h2.445a1.226,1.226,0,0,1,1.223,1.223Zm-11.615,7.336H69.5a.611.611,0,1,0,0-1.223H68.279a.611.611,0,1,0,0,1.223Zm7.336-2.445h1.223a.611.611,0,1,0,0-1.223H75.615a.611.611,0,1,0,0,1.223Zm-7.336,0H69.5a.611.611,0,0,0,0-1.223H68.279a.611.611,0,1,0,0,1.223Zm7.336,2.445h1.223a.611.611,0,1,0,0-1.223H75.615a.611.611,0,1,0,0,1.223Z" transform="translate(-64 -128)" fill="#d8d8d8"/>
</svg>
