<svg xmlns="http://www.w3.org/2000/svg" width="21.562" height="22.247" viewBox="0 0 21.562 22.247">
  <path id="路径_5708" data-name="路径 5708" d="M86.7,77.8h2.615a.685.685,0,1,0,0-1.371H86.7a.685.685,0,0,0,0,1.371Zm0,3.2h2.615A.691.691,0,0,0,90,80.316a.683.683,0,0,0-.685-.685H86.7A.685.685,0,0,0,86.7,81Zm5.61,4.316a.719.719,0,0,0-.038.228V85.6a.639.639,0,0,0,.647.635.632.632,0,0,0,.635-.546h.013l.013-.1a4.073,4.073,0,0,1,3.91-3.592h.279a4.1,4.1,0,0,1,3.922,3.592l.013.1h.013a.643.643,0,0,0,1.282-.1v-.025l-.025-.025a.54.54,0,0,0-.025-.14,5.433,5.433,0,0,0-3.021-4.163,3.887,3.887,0,0,0,1.5-3.034A3.8,3.8,0,1,0,95.32,81.23,5.4,5.4,0,0,0,92.312,85.317ZM95.1,78.183a2.513,2.513,0,1,1,2.7,2.526h-.355A2.544,2.544,0,0,1,95.1,78.183ZM89.989,83.5a.683.683,0,0,0-.685-.685H86.7a.685.685,0,0,0,0,1.371h2.615A.68.68,0,0,0,89.989,83.5ZM105.361,69.12H89.024a2.033,2.033,0,0,0-1.9,2.132v2.424a.675.675,0,0,0,.66.673.709.709,0,0,0,.47-.19.631.631,0,0,0,.19-.482V71.265c0-.482.292-.812.571-.812h16.336c.279,0,.571.33.571.812V88.947c0,.482-.292.812-.571.812H89.024c-.279,0-.571-.33-.571-.812v-2.31a.675.675,0,0,0-.66-.673.709.709,0,0,0-.47.19.681.681,0,0,0-.19.482v2.3a2.025,2.025,0,0,0,1.9,2.132h16.336a2.033,2.033,0,0,0,1.9-2.132V71.252a2.043,2.043,0,0,0-1.917-2.132Z" transform="translate(-85.866 -68.97)" fill="#0b4a7e" stroke="#0b4a7e" stroke-width="0.3"/>
</svg>
