<svg xmlns="http://www.w3.org/2000/svg" width="29.882" height="29.859" viewBox="0 0 29.882 29.859">
  <path id="trash" d="M55.3,42.788V36.963c0-.8-.359-1.283-.971-1.3s-1.016.493-1.016,1.328V48.521c0,.807.374,1.3.971,1.313s1.016-.491,1.016-1.326Zm-5.136-.032h0c-.017-1.954,0-3.926,0-5.883-.017-.732-.435-1.193-.988-1.193-.583.015-.956.461-.986,1.208V48.269a2.576,2.576,0,0,0,.019.611c.1.6.431.986.967.971a1.012,1.012,0,0,0,.971-.986,4.266,4.266,0,0,0,.03-.76c-.015,0-.015-5.349-.015-5.349Zm10.182.075c0-1.9,0-3.806-.015-5.734,0-.924-.327-1.418-.952-1.432s-1.018.508-1.018,1.4c-.015,3.795,0,7.556,0,11.351.013.9.4,1.432,1.016,1.416s.971-.536.971-1.447V42.831ZM49.457,29.154h9.514c0-.331-.015-.583,0-.822.028-.463-.179-.642-.613-.642-2.764.015-5.509,0-8.273,0-.448,0-.642.209-.628.642ZM39.273,30.736v-.762a1.432,1.432,0,0,1,1.477-.775c1.912.045,3.84.013,5.752.013.252,0,.523-.013.8-.03v-.924a2.555,2.555,0,0,1,2.643-2.779c.374-.013.747,0,1.121,0,2.391,0,4.781-.013,7.168,0,1.881.015,2.839.956,2.927,2.884l.045.85c2.224,0,4.391.015,6.54-.013a1.371,1.371,0,0,1,1.4.775v.762a1.785,1.785,0,0,1-1.7.687c-.868-.03-1.718,0-2.661,0V50.762a4.151,4.151,0,0,1-2.254,4.06,14.5,14.5,0,0,1-1.464.51H47.338c-3.016-.988-3.7-1.987-3.7-5.332V31.423c-1,0-1.912-.03-2.82.015A1.6,1.6,0,0,1,39.273,30.736Z" transform="translate(-39.273 -25.473)" fill="#5b88a8"/>
</svg>
