<svg xmlns="http://www.w3.org/2000/svg" width="15.092" height="15.084" viewBox="0 0 15.092 15.084">
  <g id="组_8656" data-name="组 8656" transform="translate(-31.85 -31.85)">
    <path id="路径_8393" data-name="路径 8393" d="M40.87,46.784H33.848A1.849,1.849,0,0,1,32,44.936V33.848A1.85,1.85,0,0,1,33.848,32h8.87a1.85,1.85,0,0,1,1.849,1.848v3.327a.37.37,0,1,1-.74,0V33.848a1.107,1.107,0,0,0-1.109-1.109H33.849a1.108,1.108,0,0,0-1.11,1.109V44.937a1.107,1.107,0,0,0,1.109,1.108H40.87a.369.369,0,1,1,0,.739Z" transform="translate(0)" fill="#0b4a7e" stroke="#0b4a7e" stroke-width="0.3"/>
    <path id="路径_8394" data-name="路径 8394" d="M183.57,224.547h-7.393a.369.369,0,0,1,0-.739h7.393a.369.369,0,1,1,0,.739Zm-4.435,2.713h-2.958a.369.369,0,0,1,0-.739h2.958a.369.369,0,0,1,0,.739Zm-1.48,2.705h-1.478a.369.369,0,0,1,0-.739h1.479a.369.369,0,1,1,0,.739Zm.74,2.713h-2.219a.369.369,0,0,1,0-.739H178.4a.369.369,0,1,1,0,.739Zm4.435,1.109a3.7,3.7,0,1,1,3.7-3.7,3.7,3.7,0,0,1-3.7,3.7Zm0-6.653a2.957,2.957,0,1,0,2.957,2.957A2.957,2.957,0,0,0,182.83,227.135Z" transform="translate(-141.59 -188.851)" fill="#0b4a7e" stroke="#0b4a7e" stroke-width="0.3"/>
    <path id="路径_8395" data-name="路径 8395" d="M768.776,768.7a.346.346,0,0,1-.259-.11l-2.735-2.735a.371.371,0,0,1,.525-.525l2.735,2.735a.366.366,0,0,1,0,.525A.374.374,0,0,1,768.776,768.7Z" transform="translate(-722.362 -721.913)" fill="#0b4a7e" stroke="#0b4a7e" stroke-width="0.3"/>
  </g>
</svg>
