<svg xmlns="http://www.w3.org/2000/svg" width="230" height="188" viewBox="0 0 230 188">
  <g id="组_22572" data-name="组 22572" transform="translate(-15 -137.36)">
    <g id="组_20234" data-name="组 20234" transform="translate(15 137.36)">
      <g id="组_19861" data-name="组 19861" transform="translate(0 0)">
        <rect id="矩形_22785" data-name="矩形 22785" width="230" height="188" rx="6" fill="#f8f8f8"/>
      </g>
    </g>
    <g id="组_20237" data-name="组 20237" transform="translate(109 214.36)">
      <path id="路径_22299" data-name="路径 22299" d="M67.091,143.36H97.23a5.651,5.651,0,0,1,5.651,5.651v22.6a5.651,5.651,0,0,1-5.651,5.651H67.091a5.651,5.651,0,0,1-5.651-5.651v-22.6A5.651,5.651,0,0,1,67.091,143.36Z" transform="translate(-61.44 -143.36)" fill="#d3d9e0"/>
      <path id="路径_22300" data-name="路径 22300" d="M166.711,248.631m-2.871,0a2.871,2.871,0,1,0,2.871-2.871A2.871,2.871,0,0,0,163.84,248.631Z" transform="translate(-159.056 -240.976)" fill="#fff"/>
      <path id="路径_22301" data-name="路径 22301" d="M155.517,456.189a1.882,1.882,0,0,1-1.634-.959,1.961,1.961,0,0,1-.007-1.923l4.3-7.674a1.874,1.874,0,0,1,3.283,0l4.64,8.273,8.707-12.774a1.871,1.871,0,0,1,3.106,0l8.2,12.034a1.957,1.957,0,0,1,.123,1.993,1.882,1.882,0,0,1-1.677,1.031H155.517Z" transform="translate(-149.32 -426.971)" fill="#fff"/>
    </g>
  </g>
</svg>
