<svg xmlns="http://www.w3.org/2000/svg" width="20.808" height="20.524" viewBox="0 0 20.808 20.524"><path d="M23.59,14.76A2.642,2.642,0,0,1,25.308,12.3a10.387,10.387,0,0,0-1.284-3.051,2.746,2.746,0,0,1-1.089.23,2.7,2.7,0,0,1-1.891-.769,2.615,2.615,0,0,1-.553-2.939A10.663,10.663,0,0,0,17.4,4.5a2.689,2.689,0,0,1-5,0A10.7,10.7,0,0,0,9.312,5.766a2.608,2.608,0,0,1-.553,2.939,2.69,2.69,0,0,1-1.891.769,2.656,2.656,0,0,1-1.089-.23A10.616,10.616,0,0,0,4.5,12.3a2.627,2.627,0,0,1,.005,4.927A10.387,10.387,0,0,0,5.79,20.279a2.734,2.734,0,0,1,1.084-.224,2.7,2.7,0,0,1,1.891.769,2.616,2.616,0,0,1,.553,2.934,10.758,10.758,0,0,0,3.094,1.266,2.684,2.684,0,0,1,4.985,0,10.7,10.7,0,0,0,3.094-1.266,2.618,2.618,0,0,1,.553-2.934,2.681,2.681,0,0,1,1.891-.769,2.714,2.714,0,0,1,1.084.224A10.447,10.447,0,0,0,25.3,17.228,2.654,2.654,0,0,1,23.59,14.76Zm-8.637,4.269a4.275,4.275,0,1,1,4.335-4.275A4.3,4.3,0,0,1,14.953,19.029Z" transform="translate(-4.5 -4.5)" fill="#fff"/></svg>