<svg xmlns="http://www.w3.org/2000/svg" width="25.777" height="25.776" viewBox="0 0 25.777 25.776">
  <path id="路径_9526" data-name="路径 9526" d="M89.42,84.071c0-2.417-1.259-3.86-3.373-3.86-2.786,0-5.773,2.769-5.773,7.25,0,2.5,1.242,3.927,3.423,3.927,3.373,0,5.722-3.86,5.722-7.317ZM98.884,86.1a7.124,7.124,0,0,1-2.465,5.73,7.289,7.289,0,0,1-4.45,1.553c-.218,0-.3.017-.537.017a3.065,3.065,0,0,1-2.383-.889,2.414,2.414,0,0,1-.554-1.393A6.666,6.666,0,0,1,83.376,93.7c-3.608,0-5.672-2.232-5.672-6.125a10.566,10.566,0,0,1,3.184-7.65,7.294,7.294,0,0,1,5.056-2.049,4.868,4.868,0,0,1,4.38,2.265l.033-.319.185-.94c.017-.134.134-.3.251-.3h1.98c.084,0,.168.117.218.185a.355.355,0,0,1,.05.269l-2.014,10.3a3.715,3.715,0,0,0-.084.806c0,.906.269,1.091.957,1.091,1.141-.033,4.833-.5,4.833-5.135a12.223,12.223,0,0,0-1.273-5.572c-1.532-3.145-4.944-5.168-9.467-5.168a10.74,10.74,0,1,0,6.8,19.064.519.519,0,0,1,.755.068l.688.823a.57.57,0,0,1,.117.4.588.588,0,0,1-.2.369,12.89,12.89,0,1,1-8.156-22.873c7.7,0,12.888,5.185,12.888,12.888Z" transform="translate(-73.106 -73.216)" fill="#fff"/>
</svg>
