<svg xmlns="http://www.w3.org/2000/svg" xmlns:xlink="http://www.w3.org/1999/xlink" width="118" height="118" viewBox="0 0 118 118">
  <defs>
    <filter id="椭圆_491" x="0" y="0" width="118" height="118" filterUnits="userSpaceOnUse">
      <feOffset dy="3" input="SourceAlpha"/>
      <feGaussianBlur stdDeviation="3" result="blur"/>
      <feFlood flood-opacity="0.161"/>
      <feComposite operator="in" in2="blur"/>
      <feComposite in="SourceGraphic"/>
    </filter>
  </defs>
  <g id="组_6620" data-name="组 6620" transform="translate(-391 -246)">
    <g transform="matrix(1, 0, 0, 1, 391, 246)" filter="url(#椭圆_491)">
      <circle id="椭圆_491-2" data-name="椭圆 491" cx="50" cy="50" r="50" transform="translate(9 6)" fill="#d9d9d9"/>
    </g>
    <path id="Icon_awesome-plus" data-name="Icon awesome-plus" d="M29.25,14.625H19.125V4.5a2.25,2.25,0,0,0-2.25-2.25h-2.25a2.25,2.25,0,0,0-2.25,2.25V14.625H2.25A2.25,2.25,0,0,0,0,16.875v2.25a2.25,2.25,0,0,0,2.25,2.25H12.375V31.5a2.25,2.25,0,0,0,2.25,2.25h2.25a2.25,2.25,0,0,0,2.25-2.25V21.375H29.25a2.25,2.25,0,0,0,2.25-2.25v-2.25A2.25,2.25,0,0,0,29.25,14.625Z" transform="translate(470.95 326)" fill="#1492e6"/>
    <g id="building" transform="translate(426 259.105)">
      <g id="组_7300" data-name="组 7300" transform="translate(36.808 28.136)">
        <path id="路径_5454" data-name="路径 5454" d="M405.328,153.611v27.48h10.058v-27.48Zm3.586,5.058h2.829v2.465h-2.829Zm2.829,13.59h-2.829v-2.465h2.829Zm.039-5.563h-2.829v-2.465h2.829Z" transform="translate(-405.328 -147.195)" fill="#fff"/>
        <path id="路径_5455" data-name="路径 5455" d="M405.549,75.514h10.037v3.951H405.549Z" transform="translate(-405.528 -75.514)" fill="#fff"/>
      </g>
      <path id="路径_5456" data-name="路径 5456" d="M0,47.46v36.2H10.1v-33.7Zm3.635,8.224H6.464v2.465H3.635ZM6.467,74.837H3.638V72.372H6.467Zm0-5.563H3.638V66.809H6.467Zm.018-5.563H3.656V61.247H6.485Z" transform="translate(2 -21.629)" fill="#fff"/>
      <g id="组_7301" data-name="组 7301" transform="translate(13.493 23.895)">
        <path id="路径_5457" data-name="路径 5457" d="M211,405.605h2.829v6.778H211Z" transform="translate(-204.303 -374.246)" fill="#fff"/>
        <path id="路径_5458" data-name="路径 5458" d="M271,405.605h2.829v6.778H271Z" transform="translate(-258.646 -374.246)" fill="#fff"/>
        <path id="路径_5459" data-name="路径 5459" d="M139.97,23.895V62.032h3.869V52.79h14.143v9.242h4.177V23.895Zm6.7,25.2h-2.829V43.855h2.829Zm0-7.7h-2.829V36.153h2.829Zm0-7.7h-2.829V28.451h2.829Zm5.657,15.4H149.5V43.855h2.829Zm0-7.7H149.5V36.153h2.829Zm0-7.7H149.5V28.451h2.829Zm5.657,15.4h-2.829V43.855h2.829Zm0-7.7h-2.829V36.153h2.829Zm0-7.7h-2.829V28.451h2.829Z" transform="translate(-139.97 -23.895)" fill="#fff"/>
      </g>
    </g>
  </g>
</svg>
