<svg xmlns="http://www.w3.org/2000/svg" width="18.057" height="18.057" viewBox="0 0 18.057 18.057">
  <g id="组_10135" data-name="组 10135" transform="translate(-225.103 -225.103)">
    <path id="路径_9646" data-name="路径 9646" d="M374.335,410.621l-4.9,4.955a.648.648,0,0,1-.924,0l-2.768-2.8a.663.663,0,0,1,.462-1.129.643.643,0,0,1,.462.194l2.3,2.332,4.433-4.487a.647.647,0,0,1,.462-.194.663.663,0,0,1,.462,1.13Z" transform="translate(-135.91 -178.499)" fill="#30b354" stroke="#30b354" stroke-width="0.5"/>
    <path id="路径_9647" data-name="路径 9647" d="M234.132,242.91a8.779,8.779,0,1,1,8.779-8.779A8.788,8.788,0,0,1,234.132,242.91Zm0-16.321a7.542,7.542,0,1,0,7.542,7.542A7.551,7.551,0,0,0,234.132,226.589Z" transform="translate(0 0)" fill="#30b354" stroke="#30b354" stroke-width="0.5"/>
  </g>
</svg>
