<svg xmlns="http://www.w3.org/2000/svg" width="15.03" height="16.186" viewBox="0 0 15.03 16.186">
  <g id="组_10148" data-name="组 10148" transform="translate(-1848.485 -121)">
    <g id="组_10134" data-name="组 10134" transform="translate(1848.485 121)">
      <path id="路径_9639" data-name="路径 9639" d="M107.273,192H97.445A1.447,1.447,0,0,0,96,193.445v10.984a1.447,1.447,0,0,0,1.445,1.445h9.827a1.446,1.446,0,0,0,1.445-1.445V193.445A1.447,1.447,0,0,0,107.273,192Zm.289,12.429a.29.29,0,0,1-.289.289H97.445a.289.289,0,0,1-.289-.289V193.445a.289.289,0,0,1,.289-.289h9.827a.289.289,0,0,1,.289.289Z" transform="translate(-96 -189.688)" fill="#005795"/>
      <path id="路径_9640" data-name="路径 9640" d="M282.406,64h-9.827a.578.578,0,1,0,0,1.156h9.827a.289.289,0,0,1,.289.289V76.429a.578.578,0,0,0,1.156,0V65.445A1.447,1.447,0,0,0,282.406,64Z" transform="translate(-268.821 -64)" fill="#005795"/>
      <path id="路径_9641" data-name="路径 9641" d="M262.359,360h-5.781a.578.578,0,0,0,0,1.156h5.781a.578.578,0,0,0,0-1.156Zm0,2.89h-5.781a.578.578,0,0,0,0,1.156h5.781a.578.578,0,0,0,0-1.156Zm-2.312,2.866h-3.469a.578.578,0,0,0,0,1.156h3.469a.578.578,0,0,0,0-1.156Z" transform="translate(-253.11 -354.653)" fill="#005795"/>
    </g>
  </g>
</svg>
