<svg xmlns="http://www.w3.org/2000/svg" width="16.46" height="15.897" viewBox="0 0 16.46 15.897">
  <path id="patient" d="M8.13,7.418a3.709,3.709,0,1,1,3.709-3.709A3.709,3.709,0,0,1,8.13,7.418Zm0-6.633a2.926,2.926,0,1,0,2.926,2.924A2.926,2.926,0,0,0,8.13.785Zm0,14.912C4.319,15.7,0,15.7,0,12.844,0,10.3,3.571,8.307,8.13,8.307s8.13,1.993,8.13,4.537C16.26,15.7,11.941,15.7,8.13,15.7Zm0-6.607C4.146,9.09.784,10.809.784,12.844c0,1.914,3.328,2.073,7.346,2.073s7.346-.156,7.346-2.073C15.478,10.809,12.113,9.09,8.13,9.09Z" transform="translate(0.1 0.1)" stroke="#000" stroke-width="0.2"/>
</svg>
