<svg id="组_7572" data-name="组 7572" xmlns="http://www.w3.org/2000/svg" width="20.372" height="17.913" viewBox="0 0 20.372 17.913">
  <path id="路径_5690" data-name="路径 5690" d="M36.033,94.713H18.472a1.409,1.409,0,0,1-1.4-1.4v-15.1a1.409,1.409,0,0,1,1.4-1.4h7.376L27.6,79.259h8.43a1.409,1.409,0,0,1,1.4,1.4V93.308A1.409,1.409,0,0,1,36.033,94.713Zm0-13.7a.332.332,0,0,0-.351-.351H26.55l-1.756-2.459H18.823a.332.332,0,0,0-.351.351v14.4a.332.332,0,0,0,.351.351H35.682a.332.332,0,0,0,.351-.351Zm-3.477,6.568-2.7,2.74A.722.722,0,0,1,28.833,89.3l1.616-1.616H22.335a.7.7,0,0,1,0-1.4h8.219l-1.545-1.545a.7.7,0,0,1,.983-.983l2.775,2.775a.669.669,0,0,1-.035.948A.767.767,0,0,1,32.556,87.583Z" transform="translate(-17.067 -76.8)" fill="#4b5266"/>
</svg>
