<svg xmlns="http://www.w3.org/2000/svg" width="33" height="41.446" viewBox="0 0 33 41.446">
  <g id="quill-drawing-a-line" transform="translate(-13.762)">
    <path id="路径_1215" data-name="路径 1215" d="M15.572,297.8l.48-2.209-1.325-.6-.91,1.727a4.542,4.542,0,0,1-.056,2.819A3.856,3.856,0,0,1,15.572,297.8Zm-.89-1.014a.308.308,0,0,1,.418.2.381.381,0,0,1-.172.474.308.308,0,0,1-.418-.2A.379.379,0,0,1,14.682,296.785Z" transform="translate(0 -258.087)" fill="#5b88a8"/>
    <path id="路径_1216" data-name="路径 1216" d="M45.228,31.372c-3.814,3.6-8.808,11.023-13.042,19.692l0,0-.74,1.5.789.35.417-1.266c2.259-4.69,8.388-16.937,19.595-25.074a73.094,73.094,0,0,0,8.283-6.819,44,44,0,0,1-4.046,2.95C53.672,24.75,50.2,26.671,45.228,31.372Z" transform="translate(-15.76 -17.284)" fill="#5b88a8"/>
    <path id="路径_1217" data-name="路径 1217" d="M27.4,26.94c-.867,3.53-.818,6.219-.482,6.958h.525c1.449-3.456,8.426-15.973,12.769-19.891A65.381,65.381,0,0,1,51.1,5.862a21.584,21.584,0,0,0,3.025-2.245c1.151-1.046,2.319-2.164,3.341-3.259L54.5,2.6,55.821.269,53.3,3.222,54.94,0a20.308,20.308,0,0,0-7.486,2.641,25.377,25.377,0,0,0-2.6,5.1A13.189,13.189,0,0,1,45.733,3.8c-.681.358-3.267,2.059-3.267,2.059-1.265,1.208-1.658,4.386-1.658,4.386a9.961,9.961,0,0,1,.6-3.669,24.954,24.954,0,0,0-6.246,6.534c-1.8,4.072-.32,7.249-.881,6.489s-.44-3.535-.44-3.535c-3.8,4.207-4.2,6.22-4.2,6.22a46.244,46.244,0,0,0-1.2,6.579c-.36-.448,0-2.954,0-2.954a8.156,8.156,0,0,0-.48,4.341C27.517,30.073,27.4,26.94,27.4,26.94Z" transform="translate(-11.523)" fill="#5b88a8"/>
    <path id="路径_1218" data-name="路径 1218" d="M76.649,14.191a41.531,41.531,0,0,1-3.341,3.259c-2.942,2.672-5.774,4.856-5.774,4.856-11.1,7.551-17.278,19.873-19.322,24.1H49.3c.384-.355.961-.622,3.369-1.425a11.918,11.918,0,0,0,4.857-3.132s-2.776,1.79-4.084,1.611a8.5,8.5,0,0,0-3.066.388s-.671-.358,2.638-.925,8.754-4.833,8.754-4.833a9.038,9.038,0,0,1-3.043.895c-.961-.09-3.336,0-3.336,0,1.574-.418,3.043-.179,5.445-1.223a23.666,23.666,0,0,1,2.269-.955c2.722-1.044,3.853-4.3,3.853-4.3-.471.209-4.067.716-5.559.209a9.985,9.985,0,0,0-4.033,0,5.943,5.943,0,0,1,3.523-.537,15.2,15.2,0,0,0,6.246-1.342C70.9,29.348,71.964,27.5,71.964,27.5l-2.538.391A11.667,11.667,0,0,0,72.951,26.3a18.592,18.592,0,0,1-2.936.537A12.3,12.3,0,0,0,73.3,25.559a8.243,8.243,0,0,0,2.429-4.3,9.255,9.255,0,0,1-5.018.6c3.844-.3,4.911-1.432,5.445-1.7s.754-1.38.754-1.38a14.721,14.721,0,0,1-4.144.94,13.009,13.009,0,0,0,4.423-1.813V16.518a11.753,11.753,0,0,1-2.542,1.074l2.522-1.879A1.775,1.775,0,0,0,76.649,14.191Z" transform="translate(-30.708 -12.416)" fill="#5b88a8"/>
    <path id="路径_1219" data-name="路径 1219" d="M23.551,285.223l1.5.692.279-.765-1.5-.692Z" transform="translate(-8.726 -248.875)" fill="#5b88a8"/>
    <path id="路径_1220" data-name="路径 1220" d="M41.682,250.491c-4.956,2.744-9.717,4.614-16.049,4.859-.591.023-.594.7,0,.68a33,33,0,0,0,14.923-4.075c5.064-2.734,9.714-5.024,16.057-5.8.585-.072.336-.727-.245-.656A39.19,39.19,0,0,0,41.682,250.491Z" transform="translate(-10.185 -214.783)" fill="#5b88a8"/>
  </g>
</svg>
