<svg xmlns="http://www.w3.org/2000/svg" width="14.137" height="14.136" viewBox="0 0 14.137 14.136">
  <g id="组_10042" data-name="组 10042" transform="translate(6.1 -2.174)">
    <g id="组_8669" data-name="组 8669" transform="translate(-6 2.274)">
      <path id="路径_8389" data-name="路径 8389" d="M461.172,111.853a.681.681,0,0,1-1.013.112.6.6,0,0,1,.024-.931l6.087-6.286a.767.767,0,0,1,1.056-.142.71.71,0,0,1-.08,1.072l-6.075,6.174Zm-.1,0" transform="translate(-453.822 -103.708)" fill="#c1c1c1" stroke="#c1c1c1" stroke-width="0.2"/>
      <path id="路径_8390" data-name="路径 8390" d="M69.506,62c.363.011.54.351.526.729v5.118a1.742,1.742,0,0,1-1.742,1.742H57.837A1.742,1.742,0,0,1,56.1,67.851V57.4a1.742,1.742,0,0,1,1.742-1.742H64.5c.481,0,.871.1.871.577s-.39.546-.871.546H57.936a.748.748,0,0,0-.748.748V67.773a.748.748,0,0,0,.748.748H68.13a.748.748,0,0,0,.748-.748v-5.04A.618.618,0,0,1,69.434,62Z" transform="translate(-56.095 -55.657)" fill="#c1c1c1" stroke="#c1c1c1" stroke-width="0.2"/>
    </g>
  </g>
</svg>
