<svg xmlns="http://www.w3.org/2000/svg" width="22.941" height="23.142" viewBox="0 0 22.941 23.142">
  <path id="Icon_awesome-pencil-alt" data-name="Icon awesome-pencil-alt" d="M22.311,6.425,20.245,8.509a.535.535,0,0,1-.762,0L14.509,3.491a.546.546,0,0,1,0-.768L16.575.639a2.142,2.142,0,0,1,3.042,0l2.693,2.717A2.18,2.18,0,0,1,22.311,6.425ZM12.735,4.513.968,16.383l-.95,5.492a1.081,1.081,0,0,0,1.246,1.257l5.444-.963L18.475,10.3a.546.546,0,0,0,0-.768L13.5,4.513a.54.54,0,0,0-.766,0ZM5.561,15.366a.634.634,0,0,1,0-.895l6.9-6.961a.621.621,0,0,1,.887,0,.634.634,0,0,1,0,.895l-6.9,6.961a.621.621,0,0,1-.887,0Zm-1.618,3.8H6.095v1.641l-2.89.511L1.811,19.913,2.317,17H3.944Z" transform="translate(-0.002 -0.005)" fill="#003d68"/>
</svg>
