<svg xmlns="http://www.w3.org/2000/svg" width="22.984" height="22.982" viewBox="0 0 22.984 22.982">
  <g id="组_8669" data-name="组 8669" transform="translate(-55.995 -55.557)">
    <path id="路径_8389" data-name="路径 8389" d="M461.947,116.554a1.113,1.113,0,0,1-1.657.184.987.987,0,0,1,.04-1.523l9.95-10.276a1.254,1.254,0,0,1,1.726-.232,1.161,1.161,0,0,1-.13,1.752l-9.931,10.093,0,0Zm-.166,0" transform="translate(-393.837 -47.581)" fill="#fff" stroke="#fff" stroke-width="0.2"/>
    <path id="路径_8390" data-name="路径 8390" d="M78.018,66.032c.593.017.884.573.86,1.191v8.367a2.848,2.848,0,0,1-2.848,2.848H58.943A2.848,2.848,0,0,1,56.1,75.591V58.5a2.848,2.848,0,0,1,2.848-2.848H69.836c.786,0,1.424.156,1.424.943s-.637.893-1.424.893H59.1a1.223,1.223,0,0,0-1.223,1.223V75.464A1.223,1.223,0,0,0,59.1,76.687H75.769a1.223,1.223,0,0,0,1.223-1.223v-8.24a1.011,1.011,0,0,1,.909-1.191Z" fill="#fff" stroke="#fff" stroke-width="0.2"/>
  </g>
</svg>
