<svg xmlns="http://www.w3.org/2000/svg" width="16.149" height="16.149" viewBox="0 0 16.149 16.149">
  <g id="组_8725" data-name="组 8725" transform="translate(-78.95 -78.899)">
    <path id="路径_8454" data-name="路径 8454" d="M335.011,101.787a.825.825,0,0,0,1.189,0l9.281-9.281a.847.847,0,0,0,0-1.207.825.825,0,0,0-1.189,0l-9.281,9.281A.847.847,0,0,0,335.011,101.787Z" transform="translate(-251.038 -11.921)" fill="#008aed"/>
    <path id="路径_8455" data-name="路径 8455" d="M94.249,85.7a.852.852,0,0,0-.852.852v6.8H80.655V80.6h6.8a.863.863,0,0,0,.852-.852.848.848,0,0,0-.834-.852H79.8a.852.852,0,0,0-.852.852V94.2a.848.848,0,0,0,.852.852H94.248A.848.848,0,0,0,95.1,94.2V86.548A.85.85,0,0,0,94.249,85.7Z" fill="#008aed"/>
  </g>
</svg>
