<svg xmlns="http://www.w3.org/2000/svg" width="38.437" height="38.437" viewBox="0 0 38.437 38.437">
  <path id="Icon_awesome-plus" data-name="Icon awesome-plus" d="M25.235,12.929H16.5V4.192A1.942,1.942,0,0,0,14.558,2.25H12.617a1.942,1.942,0,0,0-1.941,1.942v8.737H1.941A1.942,1.942,0,0,0,0,14.87v1.942a1.942,1.942,0,0,0,1.941,1.942h8.735v8.737a1.942,1.942,0,0,0,1.941,1.942h1.941A1.942,1.942,0,0,0,16.5,27.491V18.754h8.735a1.942,1.942,0,0,0,1.941-1.942V14.87A1.942,1.942,0,0,0,25.235,12.929Z" transform="translate(-1.591 17.625) rotate(-45)" fill="#fff"/>
</svg>
