<svg xmlns="http://www.w3.org/2000/svg" width="18.517" height="16.282" viewBox="0 0 18.517 16.282">
  <path id="路径_5690" data-name="路径 5690" d="M34.307,93.082H18.344a1.281,1.281,0,0,1-1.277-1.277V78.077A1.281,1.281,0,0,1,18.344,76.8h6.7l1.6,2.235h7.662a1.281,1.281,0,0,1,1.277,1.277V91.805A1.281,1.281,0,0,1,34.307,93.082Zm0-12.451a.3.3,0,0,0-.319-.319h-8.3l-1.6-2.235H18.663a.3.3,0,0,0-.319.319v13.09a.3.3,0,0,0,.319.319H33.987a.3.3,0,0,0,.319-.319ZM31.146,86.6l-2.458,2.49a.656.656,0,0,1-.926-.926L29.23,86.7H21.856a.639.639,0,0,1,0-1.277h7.471l-1.4-1.4a.634.634,0,0,1,.894-.894l2.522,2.522a.608.608,0,0,1-.032.862A.7.7,0,0,1,31.146,86.6Z" transform="translate(-17.067 -76.8)" fill="#0b4a7e"/>
</svg>
