<svg xmlns="http://www.w3.org/2000/svg" width="17.5" height="20" viewBox="0 0 17.5 20"><path d="M81.267,1.571l-.5-.071L72.847,0h-.142L65,1.5l-.713.071A.327.327,0,0,0,64,1.929v9.857a3.885,3.885,0,0,0,.5,1.929A7.164,7.164,0,0,0,65.713,15.5a17.029,17.029,0,0,0,1.641,1.571c.642.5,1.213.929,1.855,1.357a16.138,16.138,0,0,0,1.855,1,10.865,10.865,0,0,0,1.57.571h.356l.214-.071a6.07,6.07,0,0,0,1.569-.572,11.154,11.154,0,0,0,1.784-1A10.693,10.693,0,0,0,78.342,17a11.3,11.3,0,0,0,1.569-1.643,6.881,6.881,0,0,0,1.142-1.786,4.723,4.723,0,0,0,.428-1.928V1.929c.071-.143-.072-.286-.214-.358ZM71.136,10.644H68.494a.715.715,0,0,1-.713-.714V8.856a.715.715,0,0,1,.713-.714h2.64a.337.337,0,0,0,.357-.358V5.071a.715.715,0,0,1,.714-.714h1.07a.716.716,0,0,1,.714.714V7.714a.337.337,0,0,0,.356.357h2.712a.715.715,0,0,1,.713.714V9.857a.715.715,0,0,1-.713.714h-2.64a.337.337,0,0,0-.357.358v2.643a.715.715,0,0,1-.714.714h-1.07a.715.715,0,0,1-.714-.714V10.929a.481.481,0,0,0-.428-.286Z" transform="translate(-64)" fill="#fff"/></svg>