<svg xmlns="http://www.w3.org/2000/svg" width="30.312" height="17.549" viewBox="0 0 30.312 17.549">
  <g id="组_9695" data-name="组 9695" transform="translate(-24.735 -21.457)">
    <g id="组_9694" data-name="组 9694">
      <g id="组_9691" data-name="组 9691" transform="translate(24.735 -234.543)">
        <path id="路径_9527" data-name="路径 9527" d="M27.919,273.549H2.393A2.4,2.4,0,0,1,0,271.156V258.393A2.4,2.4,0,0,1,2.393,256H27.919a2.4,2.4,0,0,1,2.393,2.393v12.763A2.4,2.4,0,0,1,27.919,273.549ZM2.393,257.6a.8.8,0,0,0-.8.8v12.763a.8.8,0,0,0,.8.8H27.919a.8.8,0,0,0,.8-.8V258.393a.8.8,0,0,0-.8-.8H2.393Z" fill="#fff"/>
        <path id="路径_9528" data-name="路径 9528" d="M104.793,360h-1.6a.8.8,0,1,1,0-1.6h1.6a.8.8,0,1,1,0,1.6Zm20.739,0h-1.6a.8.8,0,1,1,0-1.6h1.6a.8.8,0,1,1,0,1.6Zm-19.144,3.191H103.2a.8.8,0,1,1,0-1.6h3.191a.8.8,0,1,1,0,1.6Zm-1.6,6.381h-1.6a.8.8,0,0,1,0-1.6h1.6a.8.8,0,1,1,0,1.6Zm12.763,0h-9.572a.8.8,0,1,1,0-1.6h9.572a.8.8,0,1,1,0,1.6Zm4.786,0h-1.6a.8.8,0,1,1,0-1.6h1.6a.8.8,0,1,1,0,1.6Zm3.191-3.191h-4.786a.8.8,0,1,1,0-1.6h3.988v-2.393a.8.8,0,0,1,1.6,0v3.191A.8.8,0,0,1,125.532,366.377Zm-17.549,0H103.2a.8.8,0,0,1,0-1.6h4.786a.8.8,0,1,1,0,1.6Zm.8-7.179a.8.8,0,1,1-.8-.8A.8.8,0,0,1,108.781,359.2Zm3.191,0a.8.8,0,1,1-.8-.8A.8.8,0,0,1,111.972,359.2Zm3.191,0a.8.8,0,1,1-.8-.8A.8.8,0,0,1,115.163,359.2Zm3.191,0a.8.8,0,1,1-.8-.8A.8.8,0,0,1,118.353,359.2Zm3.191,0a.8.8,0,1,1-.8-.8A.8.8,0,0,1,121.544,359.2Zm-11.167,3.191a.8.8,0,1,1-.8-.8A.8.8,0,0,1,110.377,362.388Zm3.191,0a.8.8,0,1,1-.8-.8A.8.8,0,0,1,113.567,362.388Zm3.191,0a.8.8,0,1,1-.8-.8A.8.8,0,0,1,116.758,362.388Zm3.191,0a.8.8,0,1,1-.8-.8A.8.8,0,0,1,119.949,362.388Z" transform="translate(-99.209 -99.209)" fill="#fff"/>
        <path id="路径_9529" data-name="路径 9529" d="M371.163,461.6a.8.8,0,1,1-.8-.8A.8.8,0,0,1,371.163,461.6ZM360,464.788a.8.8,0,1,1-.8-.8A.8.8,0,0,1,360,464.788Zm3.191,0a.8.8,0,1,1-.8-.8A.8.8,0,0,1,363.186,464.788Zm3.191,0a.8.8,0,1,1-.8-.8A.8.8,0,0,1,366.377,464.788Z" transform="translate(-347.233 -198.419)" fill="#fff"/>
      </g>
    </g>
  </g>
</svg>
