<svg xmlns="http://www.w3.org/2000/svg" width="20.097" height="20.188" viewBox="0 0 20.097 20.188">
  <path id="路径_8635" data-name="路径 8635" d="M75.176,65.442H65.622a.18.18,0,0,0-.18.18V82.566a.18.18,0,0,0,.18.18h9.553a.721.721,0,1,1,0,1.442H64.721A.721.721,0,0,1,64,83.467V64.721A.721.721,0,0,1,64.721,64H75.176a.721.721,0,1,1,0,1.442Zm6.461,7.934-2.849-2.849a.721.721,0,1,1,1.02-1.02l4.079,4.079a.721.721,0,0,1,0,1.02l-4.079,4.079a.721.721,0,0,1-1.02-1.02l2.846-2.846H69.729a.721.721,0,1,1,0-1.442H81.637Z" transform="translate(-64 -64)" fill="#005795"/>
</svg>
