<svg xmlns="http://www.w3.org/2000/svg" width="14.703" height="16.354" viewBox="0 0 14.703 16.354">
  <g id="组_8644" data-name="组 8644" transform="translate(-163.97 -140.156)" opacity="0.702">
    <g id="组_8652" data-name="组 8652" transform="translate(164.021 140.206)">
      <path id="路径_8444" data-name="路径 8444" d="M122.659,76.973a4.569,4.569,0,0,0,1.535-3.414V69.137a.517.517,0,0,0-.126-.475,6.418,6.418,0,0,0-4.486-1.532,6.554,6.554,0,0,0-4.305,1.378v0a.524.524,0,0,0-.25.446v4.6a4.57,4.57,0,0,0,1.556,3.432,6.131,6.131,0,0,0-4.219,5.282,1.017,1.017,0,0,0,1.013,1.11h12.566a1.018,1.018,0,0,0,1.013-1.112A6.172,6.172,0,0,0,122.659,76.973Zm.483-7.729V72.65a8.574,8.574,0,0,0-7.064-.007V69.212a5.623,5.623,0,0,1,3.5-1.03A5.72,5.72,0,0,1,123.142,69.244Zm-7.05,4.6.016.02a5.98,5.98,0,0,1,3.49-.923,5.886,5.886,0,0,1,3.527.959,3.53,3.53,0,0,1-7.033-.056Zm-2.678,8.491a5.16,5.16,0,0,1,2.818-4.055,3.465,3.465,0,0,0-.164,1.047V79.6a1.092,1.092,0,1,0,1.052-.034v-.239a2.4,2.4,0,0,1,.533-1.51c.053-.009.105-.021.159-.029l.012,0a4.583,4.583,0,0,0,3.568,0,2.4,2.4,0,0,1,.556,1.54v.227a1.076,1.076,0,0,0-.544.933v.646a.438.438,0,1,0,.877,0v-.646a.2.2,0,0,1,.118-.184.523.523,0,0,0,.075.007.509.509,0,0,0,.086-.009.2.2,0,0,1,.12.185v.646a.438.438,0,1,0,.877,0v-.646a1.076,1.076,0,0,0-.557-.94v-.22a3.463,3.463,0,0,0-.211-1.184,5.119,5.119,0,0,1,3.114,4.193H113.413Zm3.211-2.017a.215.215,0,1,1-.215.215A.215.215,0,0,1,116.625,80.315Z" transform="translate(-112.357 -67.13)" fill="#f8ae29" stroke="#f8ae29" stroke-width="0.1"/>
      <path id="路径_8445" data-name="路径 8445" d="M439.086,164.271h.293v.293a.526.526,0,1,0,1.052,0v-.293h.293a.526.526,0,0,0,0-1.052h-.293v-.293a.526.526,0,1,0-1.052,0v.293h-.293a.526.526,0,1,0,0,1.052Z" transform="translate(-432.603 -160.66)" fill="#f8ae29" stroke="#f8ae29" stroke-width="0.1"/>
    </g>
  </g>
</svg>
