<svg xmlns="http://www.w3.org/2000/svg" width="12" height="20" viewBox="0 0 12 20">
  <g id="组_6722" data-name="组 6722" transform="translate(-525 -2030)">
    <path id="color" d="M.293.293A1,1,0,0,0,.21,1.613l.083.094,5,5a1,1,0,0,0,1.32.083l.094-.083,5-5a1,1,0,0,0-1.32-1.5l-.094.083L6,4.585,1.707.293A1,1,0,0,0,.387.21Z" transform="translate(525 2043)"/>
    <path id="color-2" data-name="color" d="M.293,6.707A1,1,0,0,1,.21,5.387l.083-.094,5-5A1,1,0,0,1,6.613.21l.094.083,5,5a1,1,0,0,1-1.32,1.5l-.094-.083L6,2.415,1.707,6.707a1,1,0,0,1-1.32.083Z" transform="translate(525 2030)"/>
  </g>
</svg>
