<svg xmlns="http://www.w3.org/2000/svg" width="5.873" height="27.095" viewBox="0 0 5.873 27.095">
  <g id="组_6553" data-name="组 6553" transform="translate(-1631.061 -73.413)">
    <g id="complain" transform="translate(1600 58.402)">
      <path id="路径_1255" data-name="路径 1255" d="M228.443,142.661a1.7,1.7,0,0,1,.765-1.489,3.434,3.434,0,0,1,1.981-.525,2.51,2.51,0,0,1,1.787.546,1.937,1.937,0,0,1,.57,1.467c0,2.014-.041,2.95-.12,7.507s-.12,5.994-.12,8.007a1.089,1.089,0,0,1-.688.986,3.071,3.071,0,0,1-1.429.356q-2.168,0-2.169-1.343c0-2.013-.1-3.449-.289-8.007S228.443,144.675,228.443,142.661Z" transform="translate(-197.093 -125.638)" fill="#f0142f"/>
    </g>
    <g id="complain-2" data-name="complain" transform="translate(1600 56.402)">
      <path id="路径_1255-2" data-name="路径 1255" d="M228.154,167.084a2.4,2.4,0,0,1,.9-1.884,3.239,3.239,0,0,1,2.188-.776,2.765,2.765,0,0,1,1.959.776,2.534,2.534,0,0,1,0,3.745,2.723,2.723,0,0,1-1.959.8,3.183,3.183,0,0,1-2.187-.8A2.421,2.421,0,0,1,228.154,167.084Z" transform="translate(-197.093 -125.638)" fill="#f0142f"/>
    </g>
  </g>
</svg>
