<svg xmlns="http://www.w3.org/2000/svg" width="15.693" height="14.573" viewBox="0 0 15.693 14.573"><g transform="translate(-64.018 -127.999)"><path d="M72.388,128a7.286,7.286,0,1,1-4.225,13.239c-.332-.325-.381-.639-.151-.946a.7.7,0,0,1,.965-.155,5.915,5.915,0,1,0-2.214-6.791l.865-.767a.58.58,0,0,1,.822.056.594.594,0,0,1,.019.753l-.073.076-2.213,1.958-.043.034-.068.045-.1.043-.046.012-.105.015h-.076l-.092-.016-.058-.019-.073-.034-.038-.022-.081-.063-.075-.086-.041-.065-.022-.047L64.068,132.5a.589.589,0,0,1,.532-.826.581.581,0,0,1,.485.263l.047.086.355.807a7.325,7.325,0,0,1,6.9-4.835Z" transform="translate(0 0)" fill="#e24445"/><path d="M418.6,327.847h-.575v-.868A2.155,2.155,0,0,1,416,325.291l.917-.233a1.222,1.222,0,0,0,1.112,1.064V324.27a2.735,2.735,0,0,1-1.471-.724,1.656,1.656,0,0,1-.341-1.047q0-1.581,1.812-1.824V320h.575v.675a1.872,1.872,0,0,1,1.676,1.439l-.865.2a.947.947,0,0,0-.81-.779v1.637a9.611,9.611,0,0,1,1.125.4,1.279,1.279,0,0,1,.522.548,1.9,1.9,0,0,1,.232.956,1.819,1.819,0,0,1-.482,1.294,2.118,2.118,0,0,1-1.4.6Zm-.575-6.309a.982.982,0,0,0-.62.2.706.706,0,0,0-.25.589c0,.437.291.7.87.782Zm.575,4.585a.965.965,0,0,0,.673-.258.866.866,0,0,0,.269-.661q0-.684-.942-.877v1.795Z" transform="translate(-345.817 -188.638)" fill="#e24445"/></g></svg>