<svg xmlns="http://www.w3.org/2000/svg" width="22.772" height="22.771" viewBox="0 0 22.772 22.771"><path d="M16.635,1.195H3.278A2.139,2.139,0,0,0,1.138,3.334V21.827a2.137,2.137,0,0,0,2.138,2.138h18.5a2.137,2.137,0,0,0,2.138-2.138V8.464L16.635,1.2ZM7.1,3.334h6.442V9.446a1.068,1.068,0,0,1-1.069,1.069H8.171A1.068,1.068,0,0,1,7.1,9.446ZM21.771,21.827H3.278V3.334H4.967V9.446a3.208,3.208,0,0,0,3.206,3.207h4.305a3.208,3.208,0,0,0,3.206-3.207V3.334h.068l6.017,6.017V21.828h0ZM11.258,8.375a1.068,1.068,0,0,0,1.07-1.068V6.031a1.069,1.069,0,1,0-2.138,0V7.308A1.069,1.069,0,0,0,11.26,8.377Z" transform="translate(-1.138 -1.195)" fill="#fff"/></svg>