<svg xmlns="http://www.w3.org/2000/svg" width="20.096" height="18.949" viewBox="0 0 20.096 18.949"><path d="M0,17.172a1.993,1.993,0,0,0,2.153,1.776h15.79A1.993,1.993,0,0,0,20.1,17.172V7.106H0ZM14.354,9.918a.5.5,0,0,1,.538-.444h1.794a.5.5,0,0,1,.538.444V11.4a.5.5,0,0,1-.538.444H14.893a.5.5,0,0,1-.538-.444Zm0,4.737a.5.5,0,0,1,.538-.444h1.794a.5.5,0,0,1,.538.444v1.48a.5.5,0,0,1-.538.444H14.893a.5.5,0,0,1-.538-.444ZM8.613,9.918a.5.5,0,0,1,.538-.444h1.794a.5.5,0,0,1,.538.444V11.4a.5.5,0,0,1-.538.444H9.151a.5.5,0,0,1-.538-.444Zm0,4.737a.5.5,0,0,1,.538-.444h1.794a.5.5,0,0,1,.538.444v1.48a.5.5,0,0,1-.538.444H9.151a.5.5,0,0,1-.538-.444ZM2.871,9.918a.5.5,0,0,1,.538-.444H5.2a.5.5,0,0,1,.538.444V11.4a.5.5,0,0,1-.538.444H3.409a.5.5,0,0,1-.538-.444Zm0,4.737a.5.5,0,0,1,.538-.444H5.2a.5.5,0,0,1,.538.444v1.48a.5.5,0,0,1-.538.444H3.409a.5.5,0,0,1-.538-.444ZM17.943,2.369H15.79V.592A.666.666,0,0,0,15.072,0H13.637a.666.666,0,0,0-.718.592V2.369H7.177V.592A.666.666,0,0,0,6.459,0H5.024a.666.666,0,0,0-.718.592V2.369H2.153A1.993,1.993,0,0,0,0,4.145V5.921H20.1V4.145A1.993,1.993,0,0,0,17.943,2.369Z" fill="#fff"/></svg>