<svg xmlns="http://www.w3.org/2000/svg" width="886.862" height="886.863" viewBox="0 0 886.862 886.863"><path d="M818.215,772.135l128,128q9.216,10.241,9.216,23.04T945.7,945.7q-9.727,9.729-22.528,9.728t-23.04-9.216l-128-128Q635.944,929.831,470.055,920.1T182.311,784.423Q65.575,652.327,68.647,486.439T193.575,193.575Q320.551,71.719,486.439,68.647T784.423,182.311Q910.375,304.168,920.1,470.055T818.215,772.135ZM494.631,855.079q153.6-4.095,254.976-105.472T855.079,494.631q-4.095-153.6-105.472-254.976T494.631,134.183q-153.6,4.1-254.976,105.472T134.183,494.631q4.1,153.6,105.472,254.976T494.631,855.079Z" transform="translate(-68.568 -68.568)" fill="#2988e6"/></svg>