<svg id="图层_1" data-name="图层 1" xmlns="http://www.w3.org/2000/svg" viewBox="0 0 199.9 200"><defs><style>.cls-1{fill:#fece55;}.cls-2{fill:#fff;}</style></defs><path class="cls-1" d="M187.41,31.52V169a18.75,18.75,0,0,1-18.74,18.74H31.23A18.75,18.75,0,0,1,12.49,169V31.52A18.75,18.75,0,0,1,31.23,12.78H168.67A18.75,18.75,0,0,1,187.41,31.52ZM25,.28a25,25,0,0,0-25,25V175.2a25,25,0,0,0,25,25H174.91a25,25,0,0,0,25-25V25.27a25,25,0,0,0-25-25Z"/><rect class="cls-1" x="10.54" y="12.43" width="178.83" height="175.27" rx="21.04"/><path class="cls-2" d="M193.57,47.81s-30,10-64.91,49.93c-32.45,36.2-39.94,51.18-52.43,71.15-1.24-1.25-20-37.45-69.9-63.66l26.21-25s23.72,16.23,39.95,46.19c0,0,41.19-63.66,121.08-94.87V47.81Z"/></svg>