<svg xmlns="http://www.w3.org/2000/svg" width="28.881" height="28.91" viewBox="0 0 28.881 28.91">
  <g id="sent" transform="translate(0 0)">
    <path id="路径_1221" data-name="路径 1221" d="M85.906,289.19l-2.513-1.2-2.122,5.245c-.007.017-.013.033-.019.05a2.261,2.261,0,0,0,.169,2.07,1.766,1.766,0,0,0,1.485.707h0a3.024,3.024,0,0,0,.952-.168l.05-.018,5.24-2.124-1.2-2.516A5.7,5.7,0,0,0,85.906,289.19Zm0,0" transform="translate(-76.512 -271.727)" fill="#5b88a8"/>
    <path id="路径_1222" data-name="路径 1222" d="M234.753,22.488,218.254,39a5.2,5.2,0,0,1,.652.993l4.188,8.778c.563,1.179,1.3,1.355,1.7,1.355h0c.35,0,1.215-.152,1.686-1.565L234.657,24a2.63,2.63,0,0,0,.1-1.507Zm0,0" transform="translate(-205.942 -21.218)" fill="#5b88a8"/>
    <path id="路径_1223" data-name="路径 1223" d="M11.115,16.587,27.615.072A2.111,2.111,0,0,0,27.061,0a3.024,3.024,0,0,0-.953.168L1.563,8.357C.265,8.791.028,9.547,0,9.96s.116,1.192,1.351,1.783l8.769,4.192a5.2,5.2,0,0,1,.992.652Zm0,0" transform="translate(0)" fill="#5b88a8"/>
  </g>
</svg>
