<svg xmlns="http://www.w3.org/2000/svg" width="18.787" height="21.22" viewBox="0 0 18.787 21.22">
  <path id="路径_5687" data-name="路径 5687" d="M19.476,17.131a5.747,5.747,0,0,1-4.444,1.646,6.962,6.962,0,0,1-4.483-2.025l-.042-.042L1.282,7.486A4.383,4.383,0,0,1,4.382,0,4.355,4.355,0,0,1,7.477,1.284l9.155,9.083a.007.007,0,0,0,.007.007l.023.021a2.78,2.78,0,0,1,.92,2,2.5,2.5,0,0,1-.813,1.726,2.478,2.478,0,0,1-1.774.813,2.658,2.658,0,0,1-1.91-.8l-6.4-6.29a.89.89,0,1,1,1.247-1.27l6.407,6.306.007.007a.881.881,0,0,0,.619.278.734.734,0,0,0,.513-.249l.023-.028a.917.917,0,0,0,.3-.522,1.152,1.152,0,0,0-.421-.72L6.221,2.555a2.6,2.6,0,0,0-3.678,3.67l9.222,9.226A5.145,5.145,0,0,0,15.129,17a4.009,4.009,0,0,0,3.095-1.125l.09-.094a3.971,3.971,0,0,0,1.127-3.095A5.148,5.148,0,0,0,17.9,9.32L11.707,3.105A.89.89,0,1,1,12.968,1.85l6.186,6.214c2.58,2.587,2.773,6.614.414,8.975l-.094.092Z" transform="translate(18.787) rotate(90)" fill="#0b4a7e"/>
</svg>
