<svg id="surgery_center_color" data-name="surgery center color" xmlns="http://www.w3.org/2000/svg" width="107.663" height="107.66" viewBox="0 0 107.663 107.66">
  <g id="组_7269" data-name="组 7269" transform="translate(0 34.365)">
    <g id="组_7267" data-name="组 7267">
      <path id="路径_5311" data-name="路径 5311" d="M1.733,236.727H21.441V163.432H6.5a6.5,6.5,0,0,0-6.5,6.5v65.063a1.733,1.733,0,0,0,1.733,1.733Z" transform="translate(0 -163.432)" fill="#f7f6f7"/>
    </g>
    <path id="路径_5312" data-name="路径 5312" d="M71.057,163.432h6.5v73.295h-6.5Z" transform="translate(-56.115 -163.432)" fill="#edebed"/>
    <g id="组_7268" data-name="组 7268" transform="translate(9.748 9.748)">
      <path id="路径_5313" data-name="路径 5313" d="M58.051,209.79H48.092a1.733,1.733,0,0,0-1.733,1.741l.036,8a1.733,1.733,0,0,0,1.733,1.725h9.923V209.79Z" transform="translate(-46.359 -209.79)" fill="#84bde6"/>
      <path id="路径_5314" data-name="路径 5314" d="M58.051,310.675H48.092a1.733,1.733,0,0,0-1.733,1.741l.036,8a1.733,1.733,0,0,0,1.733,1.725h9.923V310.675Z" transform="translate(-46.359 -289.462)" fill="#84bde6"/>
      <path id="路径_5315" data-name="路径 5315" d="M71.057,209.79h6.5v11.466h-6.5Z" transform="translate(-65.863 -209.79)" fill="#0063a8"/>
      <path id="路径_5316" data-name="路径 5316" d="M71.057,310.676h6.5v11.466h-6.5Z" transform="translate(-65.863 -289.462)" fill="#0063a8"/>
      <path id="路径_5317" data-name="路径 5317" d="M58.051,411.114H48.092a1.733,1.733,0,0,0-1.733,1.741l.036,8a1.733,1.733,0,0,0,1.733,1.725h9.923V411.114Z" transform="translate(-46.359 -368.781)" fill="#84bde6"/>
      <path id="路径_5318" data-name="路径 5318" d="M71.057,411.114h6.5V422.58h-6.5Z" transform="translate(-65.863 -368.781)" fill="#0063a8"/>
    </g>
  </g>
  <path id="路径_5319" data-name="路径 5319" d="M166.358,179.66H150.111l-16.144-3.249-16.144,3.249h-16.35V97.67a6.5,6.5,0,0,1,6.5-6.5h51.887a6.5,6.5,0,0,1,6.5,6.5Z" transform="translate(-80.135 -72)" fill="#f7f6f7"/>
  <path id="路径_5320" data-name="路径 5320" d="M354.726,91.171h-6.5a6.5,6.5,0,0,1,6.5,6.5V179.66h6.5V97.67A6.5,6.5,0,0,0,354.726,91.171Z" transform="translate(-275.002 -72)" fill="#edebed"/>
  <g id="组_7270" data-name="组 7270" transform="translate(34.66)">
    <ellipse id="椭圆_649" data-name="椭圆 649" cx="19.171" cy="19.171" rx="19.171" ry="19.171" transform="translate(0 0)" fill="#e5979d"/>
    <path id="路径_5321" data-name="路径 5321" d="M243.8,0a19.229,19.229,0,0,0-3.249.277,19.172,19.172,0,0,1,0,37.788A19.171,19.171,0,1,0,243.8,0Z" transform="translate(-224.625)" fill="#e17f85"/>
    <path id="路径_5322" data-name="路径 5322" d="M219.781,40.329h-7.474a.65.65,0,0,1-.65-.65V32.206a1.3,1.3,0,0,0-1.3-1.3h-3.9a1.3,1.3,0,0,0-1.3,1.3v7.473a.65.65,0,0,1-.65.65h-7.474a1.3,1.3,0,0,0-1.3,1.3v3.9a1.3,1.3,0,0,0,1.3,1.3h7.474a.65.65,0,0,1,.65.65v7.473a1.3,1.3,0,0,0,1.3,1.3h3.9a1.3,1.3,0,0,0,1.3-1.3V47.477a.65.65,0,0,1,.65-.65h7.474a1.3,1.3,0,0,0,1.3-1.3v-3.9a1.3,1.3,0,0,0-1.3-1.3Z" transform="translate(-189.236 -24.407)" fill="#fff"/>
  </g>
  <path id="路径_5323" data-name="路径 5323" d="M179.226,360.488h32.288v31.859H179.226Z" transform="translate(-141.538 -284.687)" fill="#0063a8"/>
  <path id="路径_5324" data-name="路径 5324" d="M301.868,360.487h6.5v31.859h-6.5Z" transform="translate(-238.391 -284.686)" fill="#015087"/>
  <g id="组_7271" data-name="组 7271" transform="translate(52.207 74.176)">
    <path id="路径_5325" data-name="路径 5325" d="M248.274,386.245V354.386a1.625,1.625,0,0,1,3.249,0v31.859Z" transform="translate(-248.274 -352.761)" fill="#f7f6f7"/>
  </g>
  <g id="组_7272" data-name="组 7272" transform="translate(58.706 88.443)">
    <path id="路径_5326" data-name="路径 5326" d="M280.8,427.185a1.625,1.625,0,0,1-1.625-1.625v-3.325a1.625,1.625,0,1,1,3.249,0v3.325A1.624,1.624,0,0,1,280.8,427.185Z" transform="translate(-279.179 -420.611)" fill="#f7f6f7"/>
  </g>
  <g id="组_7273" data-name="组 7273" transform="translate(45.708 88.443)">
    <path id="路径_5327" data-name="路径 5327" d="M218.994,427.185a1.625,1.625,0,0,1-1.625-1.625v-3.325a1.625,1.625,0,0,1,3.249,0v3.325A1.625,1.625,0,0,1,218.994,427.185Z" transform="translate(-217.369 -420.611)" fill="#f7f6f7"/>
  </g>
  <path id="路径_5328" data-name="路径 5328" d="M164,240.166H149.6a1.733,1.733,0,0,1-1.733-1.741l.036-8a1.733,1.733,0,0,1,1.733-1.725H164a1.733,1.733,0,0,1,1.733,1.733v8A1.733,1.733,0,0,1,164,240.166Z" transform="translate(-116.774 -180.611)" fill="#84bde6"/>
  <path id="路径_5329" data-name="路径 5329" d="M200.173,228.7h-6.5a1.733,1.733,0,0,1,1.733,1.733v8a1.733,1.733,0,0,1-1.733,1.733h6.5a1.733,1.733,0,0,0,1.733-1.733v-8A1.733,1.733,0,0,0,200.173,228.7Z" transform="translate(-152.948 -180.61)" fill="#0063a8"/>
  <path id="路径_5330" data-name="路径 5330" d="M280.912,228.7h14.346a1.733,1.733,0,0,1,1.733,1.741l-.036,8a1.733,1.733,0,0,1-1.733,1.725h-14.31a1.733,1.733,0,0,1-1.733-1.733v-8A1.733,1.733,0,0,1,280.912,228.7Z" transform="translate(-220.473 -180.61)" fill="#84bde6"/>
  <path id="路径_5331" data-name="路径 5331" d="M331.1,228.7h-6.5a1.733,1.733,0,0,1,1.733,1.741l-.036,8a1.733,1.733,0,0,1-1.733,1.725h6.5a1.733,1.733,0,0,0,1.733-1.725l.036-8A1.733,1.733,0,0,0,331.1,228.7Z" transform="translate(-256.316 -180.61)" fill="#0063a8"/>
  <g id="组_7276" data-name="组 7276" transform="translate(86.223 34.365)">
    <g id="组_7274" data-name="组 7274" transform="translate(0)">
      <path id="路径_5332" data-name="路径 5332" d="M429.746,236.727H410.038V163.432H424.98a6.5,6.5,0,0,1,6.5,6.5v65.063A1.733,1.733,0,0,1,429.746,236.727Z" transform="translate(-410.038 -163.432)" fill="#f7f6f7"/>
    </g>
    <path id="路径_5333" data-name="路径 5333" d="M456.689,163.432h-6.5a6.5,6.5,0,0,1,6.5,6.5v65.063a1.733,1.733,0,0,1-1.733,1.733h6.5a1.733,1.733,0,0,0,1.733-1.733V169.931A6.5,6.5,0,0,0,456.689,163.432Z" transform="translate(-441.747 -163.432)" fill="#edebed"/>
    <g id="组_7275" data-name="组 7275" transform="translate(0 9.748)">
      <path id="路径_5334" data-name="路径 5334" d="M410.037,209.79H420a1.733,1.733,0,0,1,1.733,1.741l-.036,8a1.733,1.733,0,0,1-1.733,1.725h-9.923" transform="translate(-410.037 -209.79)" fill="#84bde6"/>
      <path id="路径_5335" data-name="路径 5335" d="M410.037,310.675H420a1.733,1.733,0,0,1,1.733,1.741l-.036,8a1.733,1.733,0,0,1-1.733,1.725h-9.923Z" transform="translate(-410.037 -289.462)" fill="#84bde6"/>
      <path id="路径_5336" data-name="路径 5336" d="M410.037,411.114H420a1.733,1.733,0,0,1,1.733,1.741l-.036,8a1.733,1.733,0,0,1-1.733,1.725h-9.923Z" transform="translate(-410.037 -368.781)" fill="#84bde6"/>
    </g>
  </g>
  <path id="路径_5337" data-name="路径 5337" d="M201.261,329.582H165.074a1.3,1.3,0,0,0-1.3,1.3v3.9a1.3,1.3,0,0,0,1.3,1.3h36.187a1.3,1.3,0,0,0,1.3-1.3v-3.9A1.3,1.3,0,0,0,201.261,329.582Z" transform="translate(-129.336 -260.28)" fill="#0875c1"/>
  <path id="路径_5338" data-name="路径 5338" d="M317.639,329.582h-6.5a1.3,1.3,0,0,1,1.3,1.3v3.9a1.3,1.3,0,0,1-1.3,1.3h6.5a1.3,1.3,0,0,0,1.3-1.3v-3.9A1.3,1.3,0,0,0,317.639,329.582Z" transform="translate(-245.714 -260.28)" fill="#015087"/>
</svg>
