<svg xmlns="http://www.w3.org/2000/svg" width="25.808" height="20.019" viewBox="0 0 25.808 20.019"><path d="M3.871,10.829A2.734,2.734,0,0,0,6.452,7.97,2.734,2.734,0,0,0,3.871,5.11,2.734,2.734,0,0,0,1.29,7.97,2.734,2.734,0,0,0,3.871,10.829Zm18.065,0a2.734,2.734,0,0,0,2.581-2.86,2.734,2.734,0,0,0-2.581-2.86,2.734,2.734,0,0,0-2.581,2.86A2.734,2.734,0,0,0,21.936,10.829Zm1.29,1.43H20.646a2.453,2.453,0,0,0-1.819.831,6.573,6.573,0,0,1,3.028,4.888h2.661a1.364,1.364,0,0,0,1.29-1.43v-1.43A2.734,2.734,0,0,0,23.227,12.259Zm-10.323,0a4.777,4.777,0,0,0,4.516-5,4.777,4.777,0,0,0-4.516-5,4.777,4.777,0,0,0-4.516,5A4.777,4.777,0,0,0,12.9,12.259Zm3.1,1.43h-.335a5.693,5.693,0,0,1-5.524,0H9.807a4.917,4.917,0,0,0-4.645,5.148v1.287A2.049,2.049,0,0,0,7.1,22.269H18.711a2.049,2.049,0,0,0,1.936-2.145V18.837A4.917,4.917,0,0,0,16,13.689Zm-9.021-.6a2.453,2.453,0,0,0-1.819-.831H2.581A2.734,2.734,0,0,0,0,15.119v1.43a1.364,1.364,0,0,0,1.29,1.43H3.948A6.589,6.589,0,0,1,6.98,13.09Z" transform="translate(0 -2.25)" fill="#fff"/></svg>