<?xml version="1.0" standalone="no"?><!DOCTYPE svg PUBLIC "-//W3C//DTD SVG 1.1//EN" "http://www.w3.org/Graphics/SVG/1.1/DTD/svg11.dtd"><svg t="1629176494173" class="icon" viewBox="0 0 1024 1024" version="1.1" xmlns="http://www.w3.org/2000/svg" p-id="7065" width="200" height="200" xmlns:xlink="http://www.w3.org/1999/xlink"><defs><style type="text/css"></style></defs><path d="M512 981.333333C253.013333 981.333333 42.666667 770.986667 42.666667 512S253.013333 42.666667 512 42.666667s469.333333 210.346667 469.333333 469.333333-210.346667 469.333333-469.333333 469.333333z m0-844.501333A375.125333 375.125333 0 0 0 136.832 512 375.125333 375.125333 0 0 0 512 887.168 375.125333 375.125333 0 0 0 887.168 512 375.125333 375.125333 0 0 0 512 136.832z" p-id="7066" fill="#30b354"></path><path d="M512 568.490667a46.250667 46.250667 0 0 1-47.104-47.061334V301.653333c0-26.709333 20.437333-47.104 47.104-47.104 26.709333 0 47.104 20.394667 47.104 47.061334v218.197333c0 26.666667-20.394667 48.64-47.104 48.64zM512 722.346667a62.805333 62.805333 0 1 0 0-125.568 62.805333 62.805333 0 0 0 0 125.568z" p-id="7067" fill="#30b354"></path><path d="M512 981.333333C253.013333 981.333333 42.666667 770.986667 42.666667 512S253.013333 42.666667 512 42.666667s469.333333 210.346667 469.333333 469.333333-210.346667 469.333333-469.333333 469.333333z m0-844.501333A375.125333 375.125333 0 0 0 136.832 512 375.125333 375.125333 0 0 0 512 887.168 375.125333 375.125333 0 0 0 887.168 512 375.125333 375.125333 0 0 0 512 136.832z" p-id="7068" fill="#30b354"></path></svg>