<svg xmlns="http://www.w3.org/2000/svg" width="14.312" height="14.312" viewBox="0 0 14.312 14.312"><g transform="translate(-85.333 -85.333)"><path d="M92.489,85.333a7.156,7.156,0,1,0,7.156,7.156A7.156,7.156,0,0,0,92.489,85.333Zm0,12.881a5.725,5.725,0,1,1,5.725-5.725A5.725,5.725,0,0,1,92.489,98.214Z" transform="translate(0 0)" fill="#fff"/><path d="M470.049,640.716m-.716,0a.716.716,0,1,0,.716-.716A.716.716,0,0,0,469.333,640.716Z" transform="translate(-377.56 -545.364)" fill="#fff"/><path d="M470.049,298.667a.716.716,0,0,0-.716.716v3.578a.716.716,0,0,0,1.431,0v-3.578A.716.716,0,0,0,470.049,298.667Z" transform="translate(-377.56 -209.755)" fill="#fff"/></g></svg>