<svg xmlns="http://www.w3.org/2000/svg" width="24" height="24" viewBox="0 0 24 24">
  <g id="组_10477" data-name="组 10477" transform="translate(-227 -1093)">
    <g id="组_9770" data-name="组 9770" transform="translate(-595.138 99.022)">
      <path id="路径_9567" data-name="路径 9567" d="M15.394,12.788A3.394,3.394,0,1,0,12,9.394,3.394,3.394,0,0,0,15.394,12.788Z" transform="translate(816.639 991.978)" fill="#fff" stroke="#fff" stroke-linejoin="round" stroke-width="1"/>
      <path id="路径_9568" data-name="路径 9568" d="M36,29v0Z" transform="translate(803.687 978.298)" fill="none" fill-rule="evenodd"/>
      <path id="路径_9569" data-name="路径 9569" d="M30,35h0Z" transform="translate(806.779 975.206)" fill="none" fill-rule="evenodd"/>
      <g id="组_9771" data-name="组 9771" transform="translate(825.138 1006.813)">
        <path id="路径_9571" data-name="路径 9571" d="M15.086,28H11.538C9.6,28,8.63,28,7.89,28.423a3.7,3.7,0,0,0-1.513,1.7C6,30.948,6,32.034,6,34.206v.582h9.086" transform="translate(-6 -28)" fill="#fff" stroke="#fff" stroke-linejoin="round" stroke-width="1"/>
        <path id="路径_9573" data-name="路径 9573" d="M6,28H8.957c1.616,0,2.423,0,3.041.423a3.555,3.555,0,0,1,1.261,1.7,12.767,12.767,0,0,1,.314,4.088v.582H6" transform="translate(-1.187 -27.999)" fill="#fff" stroke="#fff" stroke-linejoin="round" stroke-width="1"/>
      </g>
      <path id="路径_9572" data-name="路径 9572" d="M16,14a4,4,0,1,0-4-4A4,4,0,0,0,16,14Z" transform="translate(823.689 1000.208)" fill="#fff" stroke="#999" stroke-linejoin="round" stroke-width="0.6"/>
      <path id="路径_9570" data-name="路径 9570" d="M32.083,29v4.167M30,31.083h4.167" transform="translate(807.605 979.124)" fill="none" stroke="#999" stroke-linecap="round" stroke-linejoin="round" stroke-width="1"/>
    </g>
    <rect id="矩形_19726" data-name="矩形 19726" width="24" height="24" transform="translate(227 1093)" fill="none"/>
  </g>
</svg>
