<svg xmlns="http://www.w3.org/2000/svg" xmlns:xlink="http://www.w3.org/1999/xlink" width="102.03" height="83.669" viewBox="0 0 102.03 83.669">
  <defs>
    <clipPath id="clip-path">
      <rect id="矩形_20658" data-name="矩形 20658" width="42.738" height="83.405" rx="3" fill="#263238" stroke="#263238" stroke-linecap="round" stroke-linejoin="round" stroke-width="1"/>
    </clipPath>
    <clipPath id="clip-path-2">
      <rect id="矩形_20673" data-name="矩形 20673" width="38.939" height="72.791" fill="#2988e6" stroke="#263238" stroke-linecap="round" stroke-linejoin="round" stroke-width="1"/>
    </clipPath>
    <clipPath id="clip-path-3">
      <path id="路径_12780" data-name="路径 12780" d="M163.065,253.55s-1.192,18.921,6.024,26.137c0,0,7.612-5.226,7.612-25.91Z" transform="translate(-162.992 -253.55)" fill="#fff" stroke="#263238" stroke-linecap="round" stroke-linejoin="round" stroke-width="1.01"/>
    </clipPath>
  </defs>
  <g id="组_10729" data-name="组 10729" transform="translate(-79.985 -449.253)">
    <g id="组_10573" data-name="组 10573">
      <g id="Online_Doctor-bro_2_" data-name="Online Doctor-bro (2)" transform="translate(36.836 341.083)">
        <g id="freepik--Bottle--inject-2" transform="translate(115.361 154.202)">
          <rect id="矩形_20645" data-name="矩形 20645" width="7.704" height="15.604" rx="1" transform="translate(0.049 3.414)" fill="#fff"/>
          <path id="矩形_20645_-_轮廓" data-name="矩形 20645 - 轮廓" d="M-.019-.505H6.81A.487.487,0,0,1,7.3-.019V14.711a.487.487,0,0,1-.486.486H-.019A.487.487,0,0,1-.5,14.711V-.019A.487.487,0,0,1-.019-.505ZM6.81,15.1a.389.389,0,0,0,.388-.388V-.019A.389.389,0,0,0,6.81-.407H-.019a.389.389,0,0,0-.388.388V14.711a.389.389,0,0,0,.388.388Z" transform="translate(0.505 3.87)" fill="#263238"/>
          <rect id="矩形_20646" data-name="矩形 20646" width="7.289" height="13.184" rx="1" transform="translate(0.257 5.462)" fill="#2988e6"/>
          <rect id="矩形_20647" data-name="矩形 20647" width="7.289" height="13.184" rx="1" transform="translate(0.257 5.462)" fill="#fff" opacity="0.5"/>
          <rect id="矩形_20648" data-name="矩形 20648" width="3.665" height="3.365" transform="translate(2.069 0.049)" fill="#263238"/>
          <path id="矩形_20648_-_轮廓" data-name="矩形 20648 - 轮廓" d="M-.456-.505H3.209a.049.049,0,0,1,.049.049V2.909a.049.049,0,0,1-.049.049H-.456a.049.049,0,0,1-.049-.049V-.456A.049.049,0,0,1-.456-.505Zm3.616.1H-.407V2.86H3.16Z" transform="translate(2.525 0.505)" fill="#263238"/>
          <path id="直线_1387" data-name="直线 1387" d="M-.456,2.263A.049.049,0,0,1-.5,2.214V-.456A.049.049,0,0,1-.456-.5a.049.049,0,0,1,.049.049v2.67A.049.049,0,0,1-.456,2.263Z" transform="translate(2.831 0.838)" fill="#fff"/>
          <path id="直线_1388" data-name="直线 1388" d="M-.456,2.263A.049.049,0,0,1-.5,2.214V-.456A.049.049,0,0,1-.456-.5a.049.049,0,0,1,.049.049v2.67A.049.049,0,0,1-.456,2.263Z" transform="translate(3.397 0.838)" fill="#fff"/>
          <path id="直线_1389" data-name="直线 1389" d="M-.456,1.413A.049.049,0,0,1-.5,1.364V-.456A.049.049,0,0,1-.456-.5a.049.049,0,0,1,.049.049v1.82A.049.049,0,0,1-.456,1.413Z" transform="translate(4.206 1.687)" fill="#fff"/>
          <path id="直线_1390" data-name="直线 1390" d="M-.456.038A.049.049,0,0,1-.5-.011V-.456A.049.049,0,0,1-.456-.5a.049.049,0,0,1,.049.049v.445A.049.049,0,0,1-.456.038Z" transform="translate(4.206 0.838)" fill="#fff"/>
          <rect id="矩形_20649" data-name="矩形 20649" width="6.824" height="7.531" transform="translate(0.489 6.726)" fill="#fff"/>
          <circle id="椭圆_772" data-name="椭圆 772" cx="2.527" cy="2.527" r="2.527" transform="translate(1.328 8.158)" fill="#263238"/>
          <rect id="矩形_20650" data-name="矩形 20650" width="0.925" height="3.478" transform="translate(3.393 8.946)" fill="#2988e6"/>
          <rect id="矩形_20651" data-name="矩形 20651" width="0.925" height="3.478" transform="translate(5.595 10.223) rotate(90)" fill="#2988e6"/>
        </g>
        <g id="freepik--Pills--inject-2" transform="translate(120.758 161.821)">
          <rect id="矩形_20652" data-name="矩形 20652" width="18.376" height="11.296" rx="1" transform="translate(0.076 0.076)" fill="#fff"/>
          <path id="矩形_20652_-_轮廓" data-name="矩形 20652 - 轮廓" d="M.3-.5H17.227a.8.8,0,0,1,.8.8v9.844a.8.8,0,0,1-.8.8H.3a.8.8,0,0,1-.8-.8V.3A.8.8,0,0,1,.3-.5ZM17.227,10.8a.65.65,0,0,0,.649-.649V.3a.65.65,0,0,0-.649-.649H.3A.65.65,0,0,0-.347.3v9.844A.65.65,0,0,0,.3,10.8Z" transform="translate(0.5 0.5)" fill="#263238"/>
          <path id="路径_12759" data-name="路径 12759" d="M316.808,372.3h0a.678.678,0,0,1-.678-.678V369.79a.678.678,0,0,1,.678-.68h0a.68.68,0,0,1,.68.68v1.834a.679.679,0,0,1-.68.678Z" transform="translate(-314.973 -367.321)" fill="#263238"/>
          <path id="路径_12759_-_轮廓" data-name="路径 12759 - 轮廓" d="M316.382,371.951h0a.756.756,0,0,1-.755-.756v-1.833a.756.756,0,1,1,1.513,0V371.2a.756.756,0,0,1-.756.756Zm0-3.192a.6.6,0,0,0-.6.6V371.2a.6.6,0,0,0,.6.6h0a.6.6,0,0,0,.6-.6v-1.833A.6.6,0,0,0,316.381,368.759Z" transform="translate(-314.546 -366.893)" fill="#263238"/>
          <path id="直线_1391" data-name="直线 1391" d="M-.428.786A.077.077,0,0,1-.5.709V-.428A.077.077,0,0,1-.428-.5a.077.077,0,0,1,.077.077V.709A.077.077,0,0,1-.428.786Z" transform="translate(2.723 2.834)" fill="#fff"/>
          <path id="直线_1392" data-name="直线 1392" d="M-.428.273A.077.077,0,0,1-.5.2V-.428A.077.077,0,0,1-.428-.505a.077.077,0,0,1,.077.077V.2A.077.077,0,0,1-.428.273Z" transform="translate(2.723 4.264)" fill="#fff"/>
          <path id="路径_12760" data-name="路径 12760" d="M336.238,372.3h0a.678.678,0,0,1-.678-.678V369.79a.678.678,0,0,1,.678-.68h0a.678.678,0,0,1,.678.68v1.834A.678.678,0,0,1,336.238,372.3Z" transform="translate(-331.435 -367.321)" fill="#263238"/>
          <path id="路径_12760_-_轮廓" data-name="路径 12760 - 轮廓" d="M335.811,371.951a.756.756,0,0,1-.756-.756v-1.833a.756.756,0,1,1,1.511,0V371.2A.756.756,0,0,1,335.811,371.951Zm0-3.192a.6.6,0,0,0-.6.6V371.2a.6.6,0,0,0,1.2,0v-1.833a.6.6,0,0,0-.6-.6Z" transform="translate(-331.007 -366.893)" fill="#263238"/>
          <path id="直线_1393" data-name="直线 1393" d="M-.428.786A.077.077,0,0,1-.5.709V-.428A.077.077,0,0,1-.428-.5a.077.077,0,0,1,.077.077V.709A.077.077,0,0,1-.428.786Z" transform="translate(5.693 2.834)" fill="#fff"/>
          <path id="直线_1394" data-name="直线 1394" d="M-.428.273A.077.077,0,0,1-.5.2V-.428A.077.077,0,0,1-.428-.505a.077.077,0,0,1,.077.077V.2A.077.077,0,0,1-.428.273Z" transform="translate(5.693 4.264)" fill="#fff"/>
          <path id="路径_12761" data-name="路径 12761" d="M355.708,372.3h0a.678.678,0,0,1-.678-.678V369.79a.678.678,0,0,1,.678-.68h0a.678.678,0,0,1,.678.68v1.833A.678.678,0,0,1,355.708,372.3Z" transform="translate(-347.93 -367.321)" fill="#263238"/>
          <path id="路径_12761_-_轮廓" data-name="路径 12761 - 轮廓" d="M355.281,371.951a.756.756,0,0,1-.756-.756v-1.834a.756.756,0,1,1,1.511,0V371.2a.755.755,0,0,1-.756.756Zm0-3.192a.6.6,0,0,0-.6.6V371.2a.6.6,0,0,0,.6.6h0a.6.6,0,0,0,.6-.6v-1.834a.6.6,0,0,0-.6-.6Z" transform="translate(-347.502 -366.893)" fill="#263238"/>
          <path id="直线_1395" data-name="直线 1395" d="M-.428.786A.077.077,0,0,1-.5.709V-.428A.077.077,0,0,1-.428-.5a.077.077,0,0,1,.077.077V.709A.077.077,0,0,1-.428.786Z" transform="translate(8.665 2.834)" fill="#fff"/>
          <path id="直线_1396" data-name="直线 1396" d="M-.428.273A.077.077,0,0,1-.5.2V-.428A.077.077,0,0,1-.428-.505a.077.077,0,0,1,.077.077V.2A.077.077,0,0,1-.428.273Z" transform="translate(8.665 4.264)" fill="#fff"/>
          <path id="路径_12762" data-name="路径 12762" d="M375.158,372.3h0a.678.678,0,0,1-.678-.678V369.79a.678.678,0,0,1,.678-.68h0a.678.678,0,0,1,.678.68v1.834A.678.678,0,0,1,375.158,372.3Z" transform="translate(-364.408 -367.321)" fill="#263238"/>
          <path id="路径_12762_-_轮廓" data-name="路径 12762 - 轮廓" d="M374.731,371.951a.756.756,0,0,1-.756-.756v-1.833a.756.756,0,1,1,1.511,0V371.2A.756.756,0,0,1,374.731,371.951Zm0-3.192a.6.6,0,0,0-.6.6V371.2a.6.6,0,0,0,1.2,0v-1.833a.6.6,0,0,0-.6-.6Z" transform="translate(-363.98 -366.893)" fill="#263238"/>
          <path id="直线_1397" data-name="直线 1397" d="M-.428.786A.077.077,0,0,1-.5.709V-.428A.077.077,0,0,1-.428-.5a.077.077,0,0,1,.077.077V.709A.077.077,0,0,1-.428.786Z" transform="translate(11.637 2.834)" fill="#fff"/>
          <path id="直线_1398" data-name="直线 1398" d="M-.428.273A.077.077,0,0,1-.5.2V-.428A.077.077,0,0,1-.428-.505a.077.077,0,0,1,.077.077V.2A.077.077,0,0,1-.428.273Z" transform="translate(11.637 4.264)" fill="#fff"/>
          <path id="路径_12763" data-name="路径 12763" d="M394.6,372.3h0a.679.679,0,0,1-.68-.678V369.79a.68.68,0,0,1,.68-.68h0a.678.678,0,0,1,.678.68v1.834A.678.678,0,0,1,394.6,372.3Z" transform="translate(-380.878 -367.321)" fill="#263238"/>
          <path id="路径_12763_-_轮廓" data-name="路径 12763 - 轮廓" d="M394.171,371.951a.756.756,0,0,1-.756-.756v-1.833a.756.756,0,1,1,1.513,0V371.2a.756.756,0,0,1-.756.756Zm0-3.192a.6.6,0,0,0-.6.6V371.2a.6.6,0,0,0,.6.6h0a.6.6,0,0,0,.6-.6v-1.833a.6.6,0,0,0-.6-.6Z" transform="translate(-380.45 -366.893)" fill="#263238"/>
          <path id="直线_1399" data-name="直线 1399" d="M-.428.786A.077.077,0,0,1-.5.709V-.428A.077.077,0,0,1-.428-.5a.077.077,0,0,1,.077.077V.709A.077.077,0,0,1-.428.786Z" transform="translate(14.608 2.834)" fill="#fff"/>
          <path id="直线_1400" data-name="直线 1400" d="M-.428.273A.077.077,0,0,1-.5.2V-.428A.077.077,0,0,1-.428-.505a.077.077,0,0,1,.077.077V.2A.077.077,0,0,1-.428.273Z" transform="translate(14.608 4.264)" fill="#fff"/>
          <path id="路径_12764" data-name="路径 12764" d="M414.048,372.3h0a.678.678,0,0,1-.678-.678V369.79a.678.678,0,0,1,.678-.68h0a.678.678,0,0,1,.678.68v1.834A.678.678,0,0,1,414.048,372.3Z" transform="translate(-397.356 -367.321)" fill="#263238"/>
          <path id="路径_12764_-_轮廓" data-name="路径 12764 - 轮廓" d="M413.621,371.951a.756.756,0,0,1-.756-.756v-1.833a.756.756,0,1,1,1.511,0V371.2A.756.756,0,0,1,413.621,371.951Zm0-3.192a.6.6,0,0,0-.6.6V371.2a.6.6,0,0,0,1.2,0v-1.833a.6.6,0,0,0-.6-.6Z" transform="translate(-396.928 -366.893)" fill="#263238"/>
          <path id="直线_1401" data-name="直线 1401" d="M-.428.786A.077.077,0,0,1-.5.709V-.428A.077.077,0,0,1-.428-.5a.077.077,0,0,1,.077.077V.709A.077.077,0,0,1-.428.786Z" transform="translate(17.579 2.834)" fill="#fff"/>
          <path id="直线_1402" data-name="直线 1402" d="M-.428.273A.077.077,0,0,1-.5.2V-.428A.077.077,0,0,1-.428-.505a.077.077,0,0,1,.077.077V.2A.077.077,0,0,1-.428.273Z" transform="translate(17.579 4.264)" fill="#fff"/>
          <path id="路径_12765" data-name="路径 12765" d="M316.808,404.19h0a.678.678,0,0,1-.678-.678v-1.833a.678.678,0,0,1,.678-.678h0a.678.678,0,0,1,.68.678v1.833a.678.678,0,0,1-.68.678Z" transform="translate(-314.973 -394.338)" fill="#263238"/>
          <path id="路径_12765_-_轮廓" data-name="路径 12765 - 轮廓" d="M316.382,403.84h0a.756.756,0,0,1-.755-.756v-1.833a.756.756,0,0,1,.756-.756h0a.756.756,0,0,1,.756.756v1.833a.756.756,0,0,1-.756.756Zm0-3.19h0a.6.6,0,0,0-.6.6v1.833a.6.6,0,0,0,.6.6h0a.6.6,0,0,0,.6-.6v-1.833a.6.6,0,0,0-.6-.6Z" transform="translate(-314.546 -393.91)" fill="#263238"/>
          <path id="直线_1403" data-name="直线 1403" d="M-.428.786A.077.077,0,0,1-.5.709V-.428A.077.077,0,0,1-.428-.5a.077.077,0,0,1,.077.077V.709A.077.077,0,0,1-.428.786Z" transform="translate(2.723 7.713)" fill="#fff"/>
          <path id="直线_1404" data-name="直线 1404" d="M-.428.273A.077.077,0,0,1-.5.2V-.428A.077.077,0,0,1-.428-.505a.077.077,0,0,1,.077.077V.2A.077.077,0,0,1-.428.273Z" transform="translate(2.723 9.143)" fill="#fff"/>
          <path id="路径_12766" data-name="路径 12766" d="M336.238,404.19h0a.678.678,0,0,1-.678-.678v-1.833a.678.678,0,0,1,.678-.678h0a.677.677,0,0,1,.678.678v1.833a.677.677,0,0,1-.678.678Z" transform="translate(-331.435 -394.338)" fill="#263238"/>
          <path id="路径_12766_-_轮廓" data-name="路径 12766 - 轮廓" d="M335.811,403.84a.756.756,0,0,1-.756-.756v-1.833a.756.756,0,0,1,.756-.756h0a.749.749,0,0,1,.533.221.759.759,0,0,1,.221.535v1.833a.759.759,0,0,1-.221.535.749.749,0,0,1-.533.221Zm0-3.19h0a.6.6,0,0,0-.6.6v1.833a.6.6,0,0,0,.6.6h0a.6.6,0,0,0,.424-.176.6.6,0,0,0,.176-.425v-1.834a.6.6,0,0,0-.176-.426A.6.6,0,0,0,335.812,400.649Z" transform="translate(-331.007 -393.91)" fill="#263238"/>
          <path id="直线_1405" data-name="直线 1405" d="M-.428.786A.077.077,0,0,1-.5.709V-.428A.077.077,0,0,1-.428-.5a.077.077,0,0,1,.077.077V.709A.077.077,0,0,1-.428.786Z" transform="translate(5.693 7.713)" fill="#fff"/>
          <path id="直线_1406" data-name="直线 1406" d="M-.428.273A.077.077,0,0,1-.5.2V-.428A.077.077,0,0,1-.428-.505a.077.077,0,0,1,.077.077V.2A.077.077,0,0,1-.428.273Z" transform="translate(5.693 9.143)" fill="#fff"/>
          <path id="路径_12767" data-name="路径 12767" d="M355.708,404.19h0a.678.678,0,0,1-.678-.678v-1.833a.678.678,0,0,1,.678-.678h0a.678.678,0,0,1,.678.678v1.833A.678.678,0,0,1,355.708,404.19Z" transform="translate(-347.93 -394.338)" fill="#263238"/>
          <path id="路径_12767_-_轮廓" data-name="路径 12767 - 轮廓" d="M355.281,403.84a.756.756,0,0,1-.756-.756v-1.833a.756.756,0,1,1,1.511,0v1.833a.755.755,0,0,1-.756.756Zm0-3.19a.6.6,0,0,0-.6.6v1.833a.6.6,0,0,0,.6.6h0a.6.6,0,0,0,.6-.6v-1.833A.6.6,0,0,0,355.281,400.649Z" transform="translate(-347.502 -393.91)" fill="#263238"/>
          <path id="直线_1407" data-name="直线 1407" d="M-.428.786A.077.077,0,0,1-.5.709V-.428A.077.077,0,0,1-.428-.5a.077.077,0,0,1,.077.077V.709A.077.077,0,0,1-.428.786Z" transform="translate(8.665 7.713)" fill="#fff"/>
          <path id="直线_1408" data-name="直线 1408" d="M-.428.273A.077.077,0,0,1-.5.2V-.428A.077.077,0,0,1-.428-.505a.077.077,0,0,1,.077.077V.2A.077.077,0,0,1-.428.273Z" transform="translate(8.665 9.143)" fill="#fff"/>
          <path id="路径_12768" data-name="路径 12768" d="M375.158,404.19h0a.677.677,0,0,1-.678-.678v-1.833a.677.677,0,0,1,.678-.678h0a.678.678,0,0,1,.678.678v1.833A.678.678,0,0,1,375.158,404.19Z" transform="translate(-364.408 -394.338)" fill="#263238"/>
          <path id="路径_12768_-_轮廓" data-name="路径 12768 - 轮廓" d="M374.729,403.84a.749.749,0,0,1-.533-.221.759.759,0,0,1-.221-.535v-1.833a.759.759,0,0,1,.221-.535.749.749,0,0,1,.533-.221h0a.756.756,0,0,1,.755.756v1.833a.756.756,0,0,1-.756.756Zm0-3.19a.6.6,0,0,0-.424.176.6.6,0,0,0-.176.425v1.834a.6.6,0,0,0,.176.426.6.6,0,0,0,.424.176h0a.6.6,0,0,0,.6-.6v-1.833a.6.6,0,0,0-.6-.6Z" transform="translate(-363.98 -393.91)" fill="#263238"/>
          <path id="直线_1409" data-name="直线 1409" d="M-.428.786A.077.077,0,0,1-.5.709V-.428A.077.077,0,0,1-.428-.5a.077.077,0,0,1,.077.077V.709A.077.077,0,0,1-.428.786Z" transform="translate(11.637 7.713)" fill="#fff"/>
          <path id="直线_1410" data-name="直线 1410" d="M-.428.273A.077.077,0,0,1-.5.2V-.428A.077.077,0,0,1-.428-.505a.077.077,0,0,1,.077.077V.2A.077.077,0,0,1-.428.273Z" transform="translate(11.637 9.143)" fill="#fff"/>
          <path id="路径_12769" data-name="路径 12769" d="M394.6,404.19h0a.678.678,0,0,1-.68-.678v-1.833a.678.678,0,0,1,.68-.678h0a.678.678,0,0,1,.678.678v1.833A.678.678,0,0,1,394.6,404.19Z" transform="translate(-380.878 -394.338)" fill="#263238"/>
          <path id="路径_12769_-_轮廓" data-name="路径 12769 - 轮廓" d="M394.171,403.84a.756.756,0,0,1-.756-.756v-1.833a.756.756,0,0,1,.756-.756h0a.756.756,0,0,1,.755.756v1.833a.756.756,0,0,1-.756.756Zm0-3.19a.6.6,0,0,0-.6.6v1.833a.6.6,0,0,0,.6.6h0a.6.6,0,0,0,.6-.6v-1.833a.6.6,0,0,0-.6-.6Z" transform="translate(-380.45 -393.91)" fill="#263238"/>
          <path id="直线_1411" data-name="直线 1411" d="M-.428.786A.077.077,0,0,1-.5.709V-.428A.077.077,0,0,1-.428-.5a.077.077,0,0,1,.077.077V.709A.077.077,0,0,1-.428.786Z" transform="translate(14.608 7.713)" fill="#fff"/>
          <path id="直线_1412" data-name="直线 1412" d="M-.428.273A.077.077,0,0,1-.5.2V-.428A.077.077,0,0,1-.428-.505a.077.077,0,0,1,.077.077V.2A.077.077,0,0,1-.428.273Z" transform="translate(14.608 9.143)" fill="#fff"/>
          <path id="路径_12770" data-name="路径 12770" d="M414.048,404.19h0a.678.678,0,0,1-.678-.678v-1.833a.678.678,0,0,1,.678-.678h0a.677.677,0,0,1,.678.678v1.833a.677.677,0,0,1-.678.678Z" transform="translate(-397.356 -394.338)" fill="#263238"/>
          <path id="路径_12770_-_轮廓" data-name="路径 12770 - 轮廓" d="M413.621,403.84a.756.756,0,0,1-.756-.756v-1.833a.756.756,0,0,1,.756-.756h0a.749.749,0,0,1,.533.221.759.759,0,0,1,.221.535v1.833a.759.759,0,0,1-.221.535.749.749,0,0,1-.533.221Zm0-3.19h0a.6.6,0,0,0-.6.6v1.833a.6.6,0,0,0,.6.6h0a.6.6,0,0,0,.424-.176.6.6,0,0,0,.176-.425v-1.834a.6.6,0,0,0-.176-.426A.6.6,0,0,0,413.622,400.649Z" transform="translate(-396.928 -393.91)" fill="#263238"/>
          <path id="直线_1413" data-name="直线 1413" d="M-.428.786A.077.077,0,0,1-.5.709V-.428A.077.077,0,0,1-.428-.5a.077.077,0,0,1,.077.077V.709A.077.077,0,0,1-.428.786Z" transform="translate(17.579 7.713)" fill="#fff"/>
          <path id="直线_1414" data-name="直线 1414" d="M-.428.273A.077.077,0,0,1-.5.2V-.428A.077.077,0,0,1-.428-.505a.077.077,0,0,1,.077.077V.2A.077.077,0,0,1-.428.273Z" transform="translate(17.579 9.143)" fill="#fff"/>
          <path id="直线_1415" data-name="直线 1415" d="M-.212.208A.038.038,0,0,1-.25.17V-.212A.038.038,0,0,1-.212-.25a.038.038,0,0,1,.038.038V.17A.038.038,0,0,1-.212.208Z" transform="translate(3.55 0.875)" fill="#263238"/>
          <path id="直线_1416" data-name="直线 1416" d="M-.212,7.623A.038.038,0,0,1-.25,7.585V6.876a.038.038,0,0,1,.038-.038.038.038,0,0,1,.038.038v.709A.038.038,0,0,1-.212,7.623Zm0-1.418A.038.038,0,0,1-.25,6.167V5.458A.038.038,0,0,1-.212,5.42a.038.038,0,0,1,.038.038v.709A.038.038,0,0,1-.212,6.205Zm0-1.418A.038.038,0,0,1-.25,4.75V4.041A.038.038,0,0,1-.212,4a.038.038,0,0,1,.038.038V4.75A.038.038,0,0,1-.212,4.788Zm0-1.418A.038.038,0,0,1-.25,3.332V2.623a.038.038,0,0,1,.038-.038.038.038,0,0,1,.038.038v.709A.038.038,0,0,1-.212,3.37Zm0-1.418A.038.038,0,0,1-.25,1.915V1.206a.038.038,0,0,1,.038-.038.038.038,0,0,1,.038.038v.709A.038.038,0,0,1-.212,1.953Zm0-1.418A.038.038,0,0,1-.25.5V-.212A.038.038,0,0,1-.212-.25a.038.038,0,0,1,.038.038V.5A.038.038,0,0,1-.212.535Z" transform="translate(3.55 1.966)" fill="#263238"/>
          <path id="直线_1417" data-name="直线 1417" d="M-.212.208A.038.038,0,0,1-.25.17V-.212A.038.038,0,0,1-.212-.25a.038.038,0,0,1,.038.038V.17A.038.038,0,0,1-.212.208Z" transform="translate(3.55 10.472)" fill="#263238"/>
          <path id="直线_1418" data-name="直线 1418" d="M-.212.208A.038.038,0,0,1-.25.17V-.212A.038.038,0,0,1-.212-.25a.038.038,0,0,1,.038.038V.17A.038.038,0,0,1-.212.208Z" transform="translate(6.522 0.875)" fill="#263238"/>
          <path id="直线_1419" data-name="直线 1419" d="M-.212,7.623A.038.038,0,0,1-.25,7.585V6.876a.038.038,0,0,1,.038-.038.038.038,0,0,1,.038.038v.709A.038.038,0,0,1-.212,7.623Zm0-1.418A.038.038,0,0,1-.25,6.167V5.458A.038.038,0,0,1-.212,5.42a.038.038,0,0,1,.038.038v.709A.038.038,0,0,1-.212,6.205Zm0-1.418A.038.038,0,0,1-.25,4.75V4.041A.038.038,0,0,1-.212,4a.038.038,0,0,1,.038.038V4.75A.038.038,0,0,1-.212,4.788Zm0-1.418A.038.038,0,0,1-.25,3.332V2.623a.038.038,0,0,1,.038-.038.038.038,0,0,1,.038.038v.709A.038.038,0,0,1-.212,3.37Zm0-1.418A.038.038,0,0,1-.25,1.915V1.206a.038.038,0,0,1,.038-.038.038.038,0,0,1,.038.038v.709A.038.038,0,0,1-.212,1.953Zm0-1.418A.038.038,0,0,1-.25.5V-.212A.038.038,0,0,1-.212-.25a.038.038,0,0,1,.038.038V.5A.038.038,0,0,1-.212.535Z" transform="translate(6.522 1.966)" fill="#263238"/>
          <path id="直线_1420" data-name="直线 1420" d="M-.212.208A.038.038,0,0,1-.25.17V-.212A.038.038,0,0,1-.212-.25a.038.038,0,0,1,.038.038V.17A.038.038,0,0,1-.212.208Z" transform="translate(6.522 10.472)" fill="#263238"/>
          <path id="直线_1421" data-name="直线 1421" d="M-.212.208A.038.038,0,0,1-.25.17V-.212A.038.038,0,0,1-.212-.25a.038.038,0,0,1,.038.038V.17A.038.038,0,0,1-.212.208Z" transform="translate(9.494 0.875)" fill="#263238"/>
          <path id="直线_1422" data-name="直线 1422" d="M-.212,7.623A.038.038,0,0,1-.25,7.585V6.876a.038.038,0,0,1,.038-.038.038.038,0,0,1,.038.038v.709A.038.038,0,0,1-.212,7.623Zm0-1.418A.038.038,0,0,1-.25,6.167V5.458A.038.038,0,0,1-.212,5.42a.038.038,0,0,1,.038.038v.709A.038.038,0,0,1-.212,6.205Zm0-1.418A.038.038,0,0,1-.25,4.75V4.041A.038.038,0,0,1-.212,4a.038.038,0,0,1,.038.038V4.75A.038.038,0,0,1-.212,4.788Zm0-1.418A.038.038,0,0,1-.25,3.332V2.623a.038.038,0,0,1,.038-.038.038.038,0,0,1,.038.038v.709A.038.038,0,0,1-.212,3.37Zm0-1.418A.038.038,0,0,1-.25,1.915V1.206a.038.038,0,0,1,.038-.038.038.038,0,0,1,.038.038v.709A.038.038,0,0,1-.212,1.953Zm0-1.418A.038.038,0,0,1-.25.5V-.212A.038.038,0,0,1-.212-.25a.038.038,0,0,1,.038.038V.5A.038.038,0,0,1-.212.535Z" transform="translate(9.494 1.966)" fill="#263238"/>
          <path id="直线_1423" data-name="直线 1423" d="M-.212.208A.038.038,0,0,1-.25.17V-.212A.038.038,0,0,1-.212-.25a.038.038,0,0,1,.038.038V.17A.038.038,0,0,1-.212.208Z" transform="translate(9.494 10.472)" fill="#263238"/>
          <path id="直线_1424" data-name="直线 1424" d="M-.212.208A.038.038,0,0,1-.25.17V-.212A.038.038,0,0,1-.212-.25a.038.038,0,0,1,.038.038V.17A.038.038,0,0,1-.212.208Z" transform="translate(12.464 0.875)" fill="#263238"/>
          <path id="直线_1425" data-name="直线 1425" d="M-.212,7.623A.038.038,0,0,1-.25,7.585V6.876a.038.038,0,0,1,.038-.038.038.038,0,0,1,.038.038v.709A.038.038,0,0,1-.212,7.623Zm0-1.418A.038.038,0,0,1-.25,6.167V5.458A.038.038,0,0,1-.212,5.42a.038.038,0,0,1,.038.038v.709A.038.038,0,0,1-.212,6.205Zm0-1.418A.038.038,0,0,1-.25,4.75V4.041A.038.038,0,0,1-.212,4a.038.038,0,0,1,.038.038V4.75A.038.038,0,0,1-.212,4.788Zm0-1.418A.038.038,0,0,1-.25,3.332V2.623a.038.038,0,0,1,.038-.038.038.038,0,0,1,.038.038v.709A.038.038,0,0,1-.212,3.37Zm0-1.418A.038.038,0,0,1-.25,1.915V1.206a.038.038,0,0,1,.038-.038.038.038,0,0,1,.038.038v.709A.038.038,0,0,1-.212,1.953Zm0-1.418A.038.038,0,0,1-.25.5V-.212A.038.038,0,0,1-.212-.25a.038.038,0,0,1,.038.038V.5A.038.038,0,0,1-.212.535Z" transform="translate(12.464 1.966)" fill="#263238"/>
          <path id="直线_1426" data-name="直线 1426" d="M-.212.208A.038.038,0,0,1-.25.17V-.212A.038.038,0,0,1-.212-.25a.038.038,0,0,1,.038.038V.17A.038.038,0,0,1-.212.208Z" transform="translate(12.464 10.472)" fill="#263238"/>
          <path id="直线_1427" data-name="直线 1427" d="M-.212.208A.038.038,0,0,1-.25.17V-.212A.038.038,0,0,1-.212-.25a.038.038,0,0,1,.038.038V.17A.038.038,0,0,1-.212.208Z" transform="translate(15.436 0.875)" fill="#263238"/>
          <path id="直线_1428" data-name="直线 1428" d="M-.212,7.623A.038.038,0,0,1-.25,7.585V6.876a.038.038,0,0,1,.038-.038.038.038,0,0,1,.038.038v.709A.038.038,0,0,1-.212,7.623Zm0-1.418A.038.038,0,0,1-.25,6.167V5.458A.038.038,0,0,1-.212,5.42a.038.038,0,0,1,.038.038v.709A.038.038,0,0,1-.212,6.205Zm0-1.418A.038.038,0,0,1-.25,4.75V4.041A.038.038,0,0,1-.212,4a.038.038,0,0,1,.038.038V4.75A.038.038,0,0,1-.212,4.788Zm0-1.418A.038.038,0,0,1-.25,3.332V2.623a.038.038,0,0,1,.038-.038.038.038,0,0,1,.038.038v.709A.038.038,0,0,1-.212,3.37Zm0-1.418A.038.038,0,0,1-.25,1.915V1.206a.038.038,0,0,1,.038-.038.038.038,0,0,1,.038.038v.709A.038.038,0,0,1-.212,1.953Zm0-1.418A.038.038,0,0,1-.25.5V-.212A.038.038,0,0,1-.212-.25a.038.038,0,0,1,.038.038V.5A.038.038,0,0,1-.212.535Z" transform="translate(15.436 1.966)" fill="#263238"/>
          <path id="直线_1429" data-name="直线 1429" d="M-.212.208A.038.038,0,0,1-.25.17V-.212A.038.038,0,0,1-.212-.25a.038.038,0,0,1,.038.038V.17A.038.038,0,0,1-.212.208Z" transform="translate(15.436 10.472)" fill="#263238"/>
          <path id="直线_1430" data-name="直线 1430" d="M17.141-.174H16.6a.038.038,0,0,1-.038-.038A.038.038,0,0,1,16.6-.25h.545a.038.038,0,0,1,.038.038A.038.038,0,0,1,17.141-.174Zm-1.309,0h-.764a.038.038,0,0,1-.038-.038.038.038,0,0,1,.038-.038h.764a.038.038,0,0,1,.038.038A.038.038,0,0,1,15.831-.174Zm-1.528,0h-.764A.038.038,0,0,1,13.5-.212a.038.038,0,0,1,.038-.038H14.3a.038.038,0,0,1,.038.038A.038.038,0,0,1,14.3-.174Zm-1.528,0h-.764a.038.038,0,0,1-.038-.038.038.038,0,0,1,.038-.038h.764a.038.038,0,0,1,.038.038A.038.038,0,0,1,12.775-.174Zm-1.528,0h-.764a.038.038,0,0,1-.038-.038.038.038,0,0,1,.038-.038h.764a.038.038,0,0,1,.038.038A.038.038,0,0,1,11.248-.174Zm-1.528,0H8.956a.038.038,0,0,1-.038-.038A.038.038,0,0,1,8.956-.25H9.72a.038.038,0,0,1,.038.038A.038.038,0,0,1,9.72-.174Zm-1.528,0H7.428A.038.038,0,0,1,7.39-.212.038.038,0,0,1,7.428-.25h.764a.038.038,0,0,1,.038.038A.038.038,0,0,1,8.192-.174Zm-1.528,0H5.9a.038.038,0,0,1-.038-.038A.038.038,0,0,1,5.9-.25h.764A.038.038,0,0,1,6.7-.212.038.038,0,0,1,6.664-.174Zm-1.528,0H4.372a.038.038,0,0,1-.038-.038A.038.038,0,0,1,4.372-.25h.764a.038.038,0,0,1,.038.038A.038.038,0,0,1,5.136-.174Zm-1.528,0H2.844a.038.038,0,0,1-.038-.038A.038.038,0,0,1,2.844-.25h.764a.038.038,0,0,1,.038.038A.038.038,0,0,1,3.608-.174Zm-1.528,0H1.316a.038.038,0,0,1-.038-.038A.038.038,0,0,1,1.316-.25H2.08a.038.038,0,0,1,.038.038A.038.038,0,0,1,2.08-.174Zm-1.528,0H-.212A.038.038,0,0,1-.25-.212.038.038,0,0,1-.212-.25H.552A.038.038,0,0,1,.59-.212.038.038,0,0,1,.552-.174Z" transform="translate(0.762 5.937)" fill="#263238"/>
        </g>
        <g id="freepik--Ampoule--inject-2" transform="translate(136.559 154.503)">
          <path id="路径_12771" data-name="路径 12771" d="M393.5,355.091V351.8h-5.322v3.291l-1.276,1.747a1.449,1.449,0,0,0-.276.85v10.171h8.417V357.684a1.449,1.449,0,0,0-.276-.85Z" transform="translate(-386.528 -348.893)" fill="#263238"/>
          <path id="路径_12771_-_轮廓" data-name="路径 12771 - 轮廓" d="M387.778,351.295H393.1a.1.1,0,0,1,.1.1v3.258l1.248,1.716a1.541,1.541,0,0,1,.3.91v10.175a.1.1,0,0,1-.1.1h-8.417a.1.1,0,0,1-.1-.1V357.285a1.541,1.541,0,0,1,.3-.91l1.256-1.721V351.4A.1.1,0,0,1,387.778,351.295Zm5.22.2H387.88v3.189a.1.1,0,0,1-.02.06l-1.276,1.747a1.339,1.339,0,0,0-.257.79v10.069h8.214V357.281a1.339,1.339,0,0,0-.257-.791l-1.267-1.743a.1.1,0,0,1-.019-.06Z" transform="translate(-386.125 -348.49)" fill="#263238"/>
          <rect id="矩形_20653" data-name="矩形 20653" width="5.302" height="0.57" transform="translate(1.676 1.398)" fill="#263238"/>
          <path id="矩形_20653_-_轮廓" data-name="矩形 20653 - 轮廓" d="M-.4-.505H4.9A.1.1,0,0,1,5-.4v.57a.1.1,0,0,1-.1.1H-.4a.1.1,0,0,1-.1-.1V-.4A.1.1,0,0,1-.4-.505Zm5.2.2H-.3V.065H4.8Z" transform="translate(2.079 1.801)" fill="#263238"/>
          <rect id="矩形_20654" data-name="矩形 20654" width="6.868" height="1.461" transform="translate(0.88 0.102)" fill="#2988e6"/>
          <path id="矩形_20654_-_轮廓" data-name="矩形 20654 - 轮廓" d="M-.4-.505H6.464a.1.1,0,0,1,.1.1V1.058a.1.1,0,0,1-.1.1H-.4a.1.1,0,0,1-.1-.1V-.4A.1.1,0,0,1-.4-.505Zm6.766.2H-.3V.956H6.363Z" transform="translate(1.283 0.505)" fill="#263238"/>
          <rect id="矩形_20655" data-name="矩形 20655" width="6.868" height="1.161" rx="0.58" transform="translate(0.88 1.94)" fill="#263238"/>
          <path id="矩形_20655_-_轮廓" data-name="矩形 20655 - 轮廓" d="M-.147-.505H6.209a.358.358,0,0,1,.358.358V.5a.358.358,0,0,1-.358.358H-.147A.358.358,0,0,1-.5.5V-.147A.358.358,0,0,1-.147-.505ZM6.209.656A.154.154,0,0,0,6.363.5V-.147A.154.154,0,0,0,6.209-.3H-.147A.154.154,0,0,0-.3-.147V.5A.154.154,0,0,0-.147.656Z" transform="translate(1.283 2.343)" fill="#263238"/>
          <rect id="矩形_20656" data-name="矩形 20656" width="5.441" height="6.775" transform="translate(0.104 9.418)" fill="#2988e6"/>
          <path id="矩形_20656_-_轮廓" data-name="矩形 20656 - 轮廓" d="M-.4-.505H5.038a.1.1,0,0,1,.1.1V6.372a.1.1,0,0,1-.1.1H-.4a.1.1,0,0,1-.1-.1V-.4A.1.1,0,0,1-.4-.505Zm5.339.2H-.3V6.27H4.936Z" transform="translate(0.507 9.821)" fill="#263238"/>
        </g>
        <g id="freepik--Device--inject-2" transform="translate(62.974 108.17)">
          <rect id="矩形_20657" data-name="矩形 20657" width="42.738" height="83.405" rx="3" transform="translate(0.132 0.132)" fill="#263238"/>
          <g id="组_10551" data-name="组 10551" transform="translate(0.132 0.132)" clip-path="url(#clip-path)">
            <path id="路径_12772" data-name="路径 12772" d="M110.743,115.68a3.683,3.683,0,0,0-3.683,3.683V195.4a3.673,3.673,0,0,0,1.321,2.825l24.935-82.546Z" transform="translate(-107.065 -115.68)" fill="#fff" opacity="0.2"/>
            <path id="路径_12773" data-name="路径 12773" d="M183.545,416.21a1.585,1.585,0,1,1-1.585,1.585A1.575,1.575,0,0,1,183.545,416.21Zm0,2.906a1.321,1.321,0,1,0-1.321-1.321A1.323,1.323,0,0,0,183.545,419.116Z" transform="translate(-162.175 -336.803)" fill="#fff"/>
          </g>
          <path id="矩形_20659" data-name="矩形 20659" d="M3.469-.5H38.534A3.969,3.969,0,0,1,42.5,3.469V79.2a3.969,3.969,0,0,1-3.969,3.969H3.469A3.969,3.969,0,0,1-.5,79.2V3.469A3.969,3.969,0,0,1,3.469-.5ZM38.534,82.9a3.7,3.7,0,0,0,3.7-3.7V3.469a3.7,3.7,0,0,0-3.7-3.7H3.469a3.7,3.7,0,0,0-3.7,3.7V79.2a3.7,3.7,0,0,0,3.7,3.7Z" transform="translate(0.5 0.5)" fill="#263238"/>
          <rect id="矩形_20660" data-name="矩形 20660" width="38.939" height="72.791" transform="translate(2.035 5.797)" fill="#2988e6"/>
          <g id="组_10553" data-name="组 10553" transform="translate(2.035 5.797)" clip-path="url(#clip-path-2)">
            <path id="路径_12774" data-name="路径 12774" d="M125.605,257.528l-6.172-5.578-5.993.1-5.993-.1-6.172,5.578-14.6,9.612V295.5H140.2V267.14Z" transform="translate(-93.973 -221.609)" fill="#fff"/>
            <path id="路径_12774_-_轮廓" data-name="路径 12774 - 轮廓" d="M107.076,251.445h0l5.99.1,5.99-.1a.133.133,0,0,1,.092.034l6.165,5.571,14.587,9.607a.133.133,0,0,1,.06.111V295.13a.133.133,0,0,1-.133.133H86.308a.133.133,0,0,1-.133-.133V266.769a.133.133,0,0,1,.06-.111l14.587-9.607,6.165-5.571A.134.134,0,0,1,107.076,251.445Zm5.993.37h0l-5.94-.1-6.133,5.542-.016.012-14.536,9.573V295H139.7V266.841l-14.536-9.573-.016-.012-6.133-5.542-5.94.1Z" transform="translate(-93.601 -221.238)" fill="#263238"/>
            <path id="路径_12775" data-name="路径 12775" d="M175.628,299.88a.133.133,0,0,1-.109-.21l2.661-3.773a.133.133,0,0,1,.218.154l-2.38,3.375c.981-.439,3.43-1.524,5.785-2.484a17.347,17.347,0,0,0,4.66-3.207,18.771,18.771,0,0,0,3.03-3.344c.744-1.239,1.792-3,2.053-3.441l-3.743-2.884a.133.133,0,0,1,.081-.239h3.987c-.013-.345-.058-1.314-.2-2.556a27.052,27.052,0,0,0-1.131-5.408.133.133,0,0,1,.253-.086,27.324,27.324,0,0,1,1.144,5.467c.179,1.567.2,2.7.205,2.714a.134.134,0,0,1-.133.136h-3.733l3.526,2.717a.134.134,0,0,1,.033.174c-.013.021-1.262,2.125-2.114,3.544a19.128,19.128,0,0,1-3.08,3.4,18.367,18.367,0,0,1-4.739,3.256c-3.017,1.229-6.189,2.665-6.22,2.68A.135.135,0,0,1,175.628,299.88Z" transform="translate(-159.321 -239.073)" fill="#263238"/>
            <path id="路径_12776" data-name="路径 12776" d="M149.114,297.755a.132.132,0,0,1-.052-.01c-.522-.219-.95-.4-1.348-.557a12.453,12.453,0,0,1-2.409-1.37,24.326,24.326,0,0,1-2.333-1.886,19.123,19.123,0,0,1-3.077-3.4c-.852-1.419-2.1-3.523-2.114-3.544a.133.133,0,0,1,.033-.174l3.529-2.717h-3.714a.133.133,0,0,1-.133-.136c0-.011.027-1.147.205-2.714a27.323,27.323,0,0,1,1.144-5.467.133.133,0,1,1,.253.086,27.059,27.059,0,0,0-1.132,5.411c-.142,1.242-.187,2.209-.2,2.554h3.968a.133.133,0,0,1,.081.239l-3.745,2.884c.261.439,1.309,2.2,2.053,3.441a19.18,19.18,0,0,0,3.027,3.344,17.284,17.284,0,0,0,4.663,3.207c.4.161.829.339,1.352.558a.133.133,0,0,1-.052.256Z" transform="translate(-131.361 -239.073)" fill="#263238"/>
            <path id="路径_12777" data-name="路径 12777" d="M163.065,253.55s-1.192,18.921,6.024,26.137c0,0,7.612-5.226,7.612-25.91Z" transform="translate(-150.121 -222.787)" fill="#fff"/>
            <g id="组_10552" data-name="组 10552" transform="translate(12.871 30.763)" clip-path="url(#clip-path-3)">
              <path id="路径_12778" data-name="路径 12778" d="M160.074,172.06h6.138a6.635,6.635,0,0,1,6.635,6.635v13.769a8.907,8.907,0,0,1-8.9,8.91h-1.585a8.907,8.907,0,0,1-8.907-8.907V178.695a6.635,6.635,0,0,1,6.635-6.635Z" transform="translate(-155.971 -193.591)" fill="#2988e6"/>
              <path id="路径_12779" data-name="路径 12779" d="M160.074,172.06h6.138a6.635,6.635,0,0,1,6.635,6.635v13.769a8.907,8.907,0,0,1-8.9,8.91h-1.585a8.907,8.907,0,0,1-8.907-8.907V178.695a6.635,6.635,0,0,1,6.635-6.635Z" transform="translate(-155.971 -193.591)" fill="#fff" opacity="0.5"/>
            </g>
            <path id="路径_12781" data-name="路径 12781" d="M162.694,253.045h0l13.637.227a.133.133,0,0,1,.131.133,62.851,62.851,0,0,1-1.192,12.8,34.23,34.23,0,0,1-2.627,7.968,19.111,19.111,0,0,1-2.636,4.088,7.459,7.459,0,0,1-1.214,1.162.133.133,0,0,1-.17-.016,17.79,17.79,0,0,1-4.018-7.181,43.492,43.492,0,0,1-1.738-8.673,69.905,69.905,0,0,1-.38-7.307c0-1.869.073-3.066.074-3.078A.133.133,0,0,1,162.694,253.045Zm13.5.492-13.377-.223c-.019.354-.067,1.424-.066,2.938a70.241,70.241,0,0,0,.379,7.279,43.221,43.221,0,0,0,1.727,8.617,17.678,17.678,0,0,0,3.871,6.991,8.412,8.412,0,0,0,1.09-1.067,18.339,18.339,0,0,0,2.6-4.039,34.03,34.03,0,0,0,2.6-7.9A62.45,62.45,0,0,0,176.2,253.537Z" transform="translate(-149.75 -222.415)" fill="#263238"/>
            <path id="路径_12782" data-name="路径 12782" d="M174.277,246.945h0l7.533.1a.133.133,0,0,1,.132.133,21.952,21.952,0,0,1-.662,5.609,12.973,12.973,0,0,1-1.461,3.5,6.631,6.631,0,0,1-2.153,2.315.133.133,0,0,1-.146-.013,7.624,7.624,0,0,1-2.243-3.165,15.627,15.627,0,0,1-.965-3.806,23.948,23.948,0,0,1-.169-4.551A.133.133,0,0,1,174.277,246.945Zm7.4.366-7.274-.1a24.045,24.045,0,0,0,.176,4.374,15.354,15.354,0,0,0,.948,3.738,7.431,7.431,0,0,0,2.088,3,4.468,4.468,0,0,0,.571-.446,8.053,8.053,0,0,0,1.42-1.749,12.742,12.742,0,0,0,1.423-3.425A21.577,21.577,0,0,0,181.676,247.311Z" transform="translate(-158.297 -217.927)" fill="#263238"/>
            <path id="路径_12783" data-name="路径 12783" d="M179.235,294a.133.133,0,0,1-.076-.024L174,290.405l-4.586,2.552a.133.133,0,1,1-.13-.233l4.658-2.592a.133.133,0,0,1,.141.007l5.229,3.615a.133.133,0,0,1-.076.243Z" transform="translate(-154.7 -249.69)" fill="#263238"/>
            <path id="路径_12784" data-name="路径 12784" d="M178.316,294.8l.909-2.613-2.161-1.569-2.84,1.569,1.477,2.378-2.33,7a16,16,0,0,0,3.356,5.388s2.024-1.39,3.984-5.572Z" transform="translate(-157.757 -250.062)" fill="#2988e6"/>
            <path id="路径_12784_-_轮廓" data-name="路径 12784 - 轮廓" d="M176.692,290.115a.134.134,0,0,1,.078.025l2.161,1.57a.133.133,0,0,1,.048.152l-.893,2.568,2.378,6.534a.133.133,0,0,1,0,.1,19.732,19.732,0,0,1-2.747,4.385,7.669,7.669,0,0,1-1.283,1.241.133.133,0,0,1-.17-.016,16.114,16.114,0,0,1-3.385-5.432.133.133,0,0,1,0-.092l2.311-6.94-1.444-2.325a.133.133,0,0,1,.049-.187l2.84-1.569A.133.133,0,0,1,176.692,290.115Zm2,1.753-2.013-1.461-2.643,1.461,1.4,2.259a.134.134,0,0,1,.013.113l-2.315,6.953a15.938,15.938,0,0,0,3.227,5.215,8.587,8.587,0,0,0,1.153-1.139A18.84,18.84,0,0,0,180.194,301l-2.375-6.527a.133.133,0,0,1,0-.089Z" transform="translate(-157.385 -249.69)" fill="#263238"/>
            <circle id="椭圆_773" data-name="椭圆 773" cx="3.797" cy="3.797" r="3.797" transform="translate(24.9 52.124) rotate(-9.26)" fill="#fff"/>
            <path id="椭圆_773_-_轮廓" data-name="椭圆 773 - 轮廓" d="M3.93,0A3.93,3.93,0,0,1,6.709,6.709,3.93,3.93,0,1,1,1.151,1.151,3.9,3.9,0,0,1,3.93,0Zm0,7.594A3.663,3.663,0,0,0,6.521,1.34,3.663,3.663,0,1,0,1.34,6.521,3.639,3.639,0,0,0,3.93,7.594Z" transform="translate(24.747 52.013) rotate(-9.26)" fill="#263238"/>
            <circle id="椭圆_774" data-name="椭圆 774" cx="2.729" cy="2.729" r="2.729" transform="translate(25.693 56.744) rotate(-67.65)" fill="#fff"/>
            <path id="椭圆_774_-_轮廓" data-name="椭圆 774 - 轮廓" d="M2.863,0A2.863,2.863,0,0,1,4.887,4.887,2.863,2.863,0,1,1,.839.839,2.844,2.844,0,0,1,2.863,0Zm0,5.459a2.6,2.6,0,1,0-2.6-2.6A2.6,2.6,0,0,0,2.863,5.459Z" transform="translate(25.519 56.817) rotate(-67.65)" fill="#263238"/>
            <path id="路径_12785" data-name="路径 12785" d="M223.381,283.1a.581.581,0,0,1-.581-.581V260.211a.581.581,0,1,1,1.163,0V282.52a.579.579,0,0,1-.581.581Z" transform="translate(-194.127 -227.26)" fill="#263238"/>
            <path id="路径_12786" data-name="路径 12786" d="M137.491,350.876h-.056c-.528-.09-5.6-5.02-6.077-6.341a10.693,10.693,0,0,1-.338-3.514.291.291,0,0,1,.581.037,10.837,10.837,0,0,0,.3,3.287c.388,1.107,4.9,5.528,5.615,5.958a6.285,6.285,0,0,0,2.378-2.761.291.291,0,1,1,.542.214C139.89,349.169,138.16,350.876,137.491,350.876ZM137.573,350.308ZM137.5,350.295Z" transform="translate(-126.581 -286.945)" fill="#fff"/>
            <path id="路径_12786_-_轮廓" data-name="路径 12786 - 轮廓" d="M137.12,350.638h-.056l-.022,0c-.064-.011-.232-.04-1.172-.875-.573-.51-1.269-1.175-1.958-1.872-.636-.643-2.734-2.808-3.05-3.681a10.809,10.809,0,0,1-.346-3.568.425.425,0,0,1,.848.054v.011a10.47,10.47,0,0,0,.3,3.224,15.529,15.529,0,0,0,2.655,3.183,32.463,32.463,0,0,0,2.848,2.669,6.453,6.453,0,0,0,2.239-2.661.425.425,0,0,1,.79.312,6.981,6.981,0,0,1-1.458,2.134C138.491,349.818,137.655,350.638,137.12,350.638Zm-.039-.267h.039a2.925,2.925,0,0,0,1.423-.99,6.705,6.705,0,0,0,1.4-2.046.158.158,0,1,0-.293-.117,6.1,6.1,0,0,1-1.266,1.877,4.1,4.1,0,0,1-1.2.963.133.133,0,0,1-.109-.013,28.779,28.779,0,0,1-2.956-2.746c-.691-.708-1.3-1.366-1.751-1.9a5.718,5.718,0,0,1-.965-1.38,10.733,10.733,0,0,1-.312-3.325v-.015a.158.158,0,0,0-.315-.02,10.526,10.526,0,0,0,.331,3.46,17.867,17.867,0,0,0,2.974,3.569c.682.691,1.372,1.351,1.943,1.859A4.984,4.984,0,0,0,137.08,350.371Z" transform="translate(-126.21 -286.573)" fill="#263238"/>
            <path id="路径_12787" data-name="路径 12787" d="M130.222,350.832c-.671,0-2.4-1.707-2.959-3.136a.291.291,0,1,1,.542-.214,6.237,6.237,0,0,0,2.378,2.761c.713-.431,5.226-4.851,5.615-5.958a10.746,10.746,0,0,0,.3-3.287.291.291,0,0,1,.581-.037,11.244,11.244,0,0,1-.338,3.514c-.465,1.321-5.525,6.262-6.077,6.341ZM130.14,350.264ZM130.212,350.25Z" transform="translate(-123.818 -286.9)" fill="#fff"/>
            <path id="路径_12787_-_轮廓" data-name="路径 12787 - 轮廓" d="M129.85,350.594c-.537,0-1.374-.821-1.617-1.073a7.079,7.079,0,0,1-1.466-2.148.425.425,0,0,1,.79-.312,6.378,6.378,0,0,0,2.238,2.661,32.412,32.412,0,0,0,2.849-2.669,15.527,15.527,0,0,0,2.655-3.184,10.547,10.547,0,0,0,.3-3.23v0a.425.425,0,0,1,.848-.054s0,.006,0,.008,0,.027,0,.05a9.686,9.686,0,0,1-.348,3.509c-.309.879-2.4,3.043-3.037,3.686-.692.7-1.388,1.366-1.961,1.873-.886.784-1.1.855-1.173.869l-.033.012A.135.135,0,0,1,129.85,350.594Zm-2.689-3.535a.158.158,0,0,0-.147.216c.556,1.418,2.225,3.013,2.814,3.051l.021-.008.025-.006c.018,0,.2-.055,1.063-.82.569-.5,1.26-1.165,1.945-1.86a16.487,16.487,0,0,0,2.962-3.574,9.429,9.429,0,0,0,.333-3.409c0-.03,0-.045,0-.055a.158.158,0,0,0-.315.023h0a10.659,10.659,0,0,1-.311,3.339,5.713,5.713,0,0,1-.965,1.38c-.455.537-1.06,1.194-1.751,1.9a28.776,28.776,0,0,1-2.956,2.746.133.133,0,0,1-.107.014,4,4,0,0,1-1.2-.961,6.435,6.435,0,0,1-1.264-1.879A.157.157,0,0,0,127.162,347.059Z" transform="translate(-123.446 -286.529)" fill="#263238"/>
            <path id="路径_12788" data-name="路径 12788" d="M145.691,274.114a.584.584,0,0,1-.581-.581V263.8a.581.581,0,1,1,1.163,0v9.731A.581.581,0,0,1,145.691,274.114Z" transform="translate(-136.964 -229.901)" fill="#263238"/>
            <path id="路径_12789" data-name="路径 12789" d="M138.253,312.58a.584.584,0,0,1-.581-.581v-7A3.335,3.335,0,1,0,131,305v7a.581.581,0,0,1-1.163,0v-7a4.492,4.492,0,1,1,8.984,0v7A.584.584,0,0,1,138.253,312.58Z" transform="translate(-125.729 -257.331)" fill="#263238"/>
            <rect id="矩形_20661" data-name="矩形 20661" width="1.477" height="2.053" rx="0.739" transform="translate(2.276 60.204) rotate(-37.84)" fill="#fff"/>
            <path id="矩形_20661_-_轮廓" data-name="矩形 20661 - 轮廓" d="M.81,0H.934a.811.811,0,0,1,.81.81v.7a.811.811,0,0,1-.81.81H.81A.811.811,0,0,1,0,1.51V.81A.811.811,0,0,1,.81,0ZM.934,2.053a.544.544,0,0,0,.543-.543V.81A.544.544,0,0,0,.934.267H.81A.544.544,0,0,0,.267.81v.7a.544.544,0,0,0,.543.543Z" transform="translate(2.089 60.181) rotate(-37.84)" fill="#263238"/>
            <rect id="矩形_20662" data-name="矩形 20662" width="1.477" height="2.053" rx="0.739" transform="translate(13.677 61.821) rotate(-142.16)" fill="#fff"/>
            <path id="矩形_20662_-_轮廓" data-name="矩形 20662 - 轮廓" d="M.81,0H.934a.811.811,0,0,1,.81.81v.7a.811.811,0,0,1-.81.81H.81A.811.811,0,0,1,0,1.51V.81A.811.811,0,0,1,.81,0ZM.934,2.053a.544.544,0,0,0,.543-.543V.81A.544.544,0,0,0,.934.267H.81A.544.544,0,0,0,.267.81v.7a.544.544,0,0,0,.543.543Z" transform="translate(13.7 62.009) rotate(-142.16)" fill="#263238"/>
            <rect id="矩形_20663" data-name="矩形 20663" width="3.004" height="5.234" rx="1.502" transform="translate(8.212 18.535)" fill="#ffbe9d"/>
            <path id="矩形_20663_-_轮廓" data-name="矩形 20663 - 轮廓" d="M1.008-.505h.246A1.514,1.514,0,0,1,2.766,1.008V3.483A1.514,1.514,0,0,1,1.253,5H1.008A1.514,1.514,0,0,1-.505,3.483V1.008A1.514,1.514,0,0,1,1.008-.505Zm.246,5.234A1.247,1.247,0,0,0,2.5,3.483V1.008A1.247,1.247,0,0,0,1.253-.238H1.008A1.247,1.247,0,0,0-.238,1.008V3.483A1.247,1.247,0,0,0,1.008,4.729Z" transform="translate(8.584 18.907)" fill="#263238"/>
            <rect id="矩形_20664" data-name="矩形 20664" width="3.004" height="5.234" rx="1.502" transform="translate(28.515 18.535)" fill="#ffbe9d"/>
            <path id="矩形_20664_-_轮廓" data-name="矩形 20664 - 轮廓" d="M1.008-.505h.246A1.514,1.514,0,0,1,2.766,1.008V3.483A1.514,1.514,0,0,1,1.253,5H1.008A1.514,1.514,0,0,1-.505,3.483V1.008A1.514,1.514,0,0,1,1.008-.505Zm.246,5.234A1.247,1.247,0,0,0,2.5,3.483V1.008A1.247,1.247,0,0,0,1.253-.238H1.008A1.247,1.247,0,0,0-.238,1.008V3.483A1.247,1.247,0,0,0,1.008,4.729Z" transform="translate(28.886 18.907)" fill="#263238"/>
            <path id="路径_12790" data-name="路径 12790" d="M160.067,157.64H166.2a6.635,6.635,0,0,1,6.635,6.635v13.769a8.907,8.907,0,0,1-8.907,8.907h-1.585a8.907,8.907,0,0,1-8.907-8.907V164.275A6.635,6.635,0,0,1,160.067,157.64Z" transform="translate(-143.093 -152.218)" fill="#ffbe9d"/>
            <path id="路径_12790_-_轮廓" data-name="路径 12790 - 轮廓" d="M159.695,157.135h6.138A6.763,6.763,0,0,1,172.6,163.9v13.769a9.033,9.033,0,0,1-9.04,9.04h-1.585a9.033,9.033,0,0,1-9.04-9.04V163.9a6.762,6.762,0,0,1,6.76-6.768Zm3.866,29.31a8.766,8.766,0,0,0,8.773-8.774V163.9a6.5,6.5,0,0,0-6.5-6.5H159.7a6.5,6.5,0,0,0-6.493,6.5v13.769a8.766,8.766,0,0,0,8.774,8.774Z" transform="translate(-142.721 -151.847)" fill="#263238"/>
            <rect id="矩形_20665" data-name="矩形 20665" width="4.058" height="1.089" rx="0.544" transform="translate(14.202 17.008)" fill="#263238"/>
            <path id="矩形_20665_-_轮廓" data-name="矩形 20665 - 轮廓" d="M.128-.505h3.06A.634.634,0,0,1,3.82.128v.09A.634.634,0,0,1,3.188.85H.128A.634.634,0,0,1-.505.218V.128A.634.634,0,0,1,.128-.505ZM3.188.584A.366.366,0,0,0,3.553.218V.128a.366.366,0,0,0-.366-.366H.128A.366.366,0,0,0-.238.128v.09A.366.366,0,0,0,.128.584Z" transform="translate(14.574 17.38)" fill="#263238"/>
            <rect id="矩形_20666" data-name="矩形 20666" width="4.058" height="1.089" rx="0.544" transform="translate(22.221 17.008)" fill="#263238"/>
            <path id="矩形_20666_-_轮廓" data-name="矩形 20666 - 轮廓" d="M.128-.505h3.06A.634.634,0,0,1,3.82.128v.09A.634.634,0,0,1,3.188.85H.128A.634.634,0,0,1-.505.218V.128A.634.634,0,0,1,.128-.505ZM3.188.584A.366.366,0,0,0,3.553.218V.128a.366.366,0,0,0-.366-.366H.128A.366.366,0,0,0-.238.128v.09A.366.366,0,0,0,.128.584Z" transform="translate(22.593 17.38)" fill="#263238"/>
            <path id="路径_12791" data-name="路径 12791" d="M176.417,210.879c0,.629-.288,1.136-.645,1.136s-.642-.507-.642-1.136.288-1.139.642-1.139S176.417,210.25,176.417,210.879Z" transform="translate(-159.052 -190.552)" fill="#263238"/>
            <path id="路径_12791_-_轮廓" data-name="路径 12791 - 轮廓" d="M175.4,211.777a.678.678,0,0,1-.571-.4,1.8,1.8,0,0,1-.2-.869c0-.713.341-1.272.775-1.272s.778.559.778,1.272S175.837,211.777,175.4,211.777Zm0-2.275a.437.437,0,0,0-.338.266,1.534,1.534,0,0,0-.171.74c0,.6.263,1,.509,1,.165,0,.284-.166.34-.265a1.523,1.523,0,0,0,.171-.738C175.912,209.972,175.673,209.5,175.4,209.5Z" transform="translate(-158.68 -190.181)" fill="#263238"/>
            <path id="路径_12792" data-name="路径 12792" d="M203.789,210.879c0,.629-.288,1.136-.645,1.136s-.645-.507-.645-1.136.288-1.139.645-1.139S203.789,210.25,203.789,210.879Z" transform="translate(-179.19 -190.552)" fill="#263238"/>
            <path id="路径_12792_-_轮廓" data-name="路径 12792 - 轮廓" d="M202.773,211.777c-.436,0-.778-.558-.778-1.27s.342-1.272.778-1.272.778.559.778,1.272S203.209,211.777,202.773,211.777Zm0-2.275a.438.438,0,0,0-.34.266,1.679,1.679,0,0,0,0,1.478c.056.1.175.265.34.265s.284-.166.34-.265a1.679,1.679,0,0,0,0-1.478A.438.438,0,0,0,202.773,209.5Z" transform="translate(-178.819 -190.181)" fill="#263238"/>
            <path id="路径_12793" data-name="路径 12793" d="M166.584,157.64h-6.941a6.233,6.233,0,0,0-6.233,6.233v14.646a8.431,8.431,0,0,0,8.431,8.431H164.4a8.429,8.429,0,0,0,8.431-8.431V163.873a6.233,6.233,0,0,0-6.246-6.233Zm4.756,18.815a5.524,5.524,0,0,1-1.781,3.564s-1.881-2.476-2.674-2.674a25.1,25.1,0,0,0-3.715-.048,24.826,24.826,0,0,0-3.7.048c-.793.2-2.674,2.674-2.674,2.674a5.524,5.524,0,0,1-1.781-3.564v-8.12l.927-1.221a2.751,2.751,0,0,0,.129-3.208,2.626,2.626,0,0,1,.373-3.321l.019-.016a2.626,2.626,0,0,1,3.237-.328l1.385,1.086a3.435,3.435,0,0,0,4.228,0l1.379-1.086a2.642,2.642,0,0,1,3.255.328l.016.016a2.655,2.655,0,0,1,.349,3.358,2.743,2.743,0,0,0,.156,3.171l.959,1.221Z" transform="translate(-143.063 -152.113)" fill="#263238"/>
            <path id="路径_12793_-_轮廓" data-name="路径 12793 - 轮廓" d="M166.226,157.135a6.367,6.367,0,0,1,6.366,6.366v14.646a8.555,8.555,0,0,1-8.562,8.565h-2.56a8.558,8.558,0,0,1-8.565-8.565V163.5a6.361,6.361,0,0,1,6.366-6.366Zm-2.2,29.31a8.288,8.288,0,0,0,8.3-8.3V163.5a6.1,6.1,0,0,0-6.1-6.1h-6.954a6.094,6.094,0,0,0-6.1,6.1v14.646a8.291,8.291,0,0,0,8.3,8.3Zm3.71-27.122a2.763,2.763,0,0,1,1.929.779l0,0,.016.016a2.789,2.789,0,0,1,.366,3.525,2.612,2.612,0,0,0,.149,3.016l.959,1.221a.133.133,0,0,1,.029.084l-.087,8.119a4.018,4.018,0,0,1-.229,1.155,6.465,6.465,0,0,1-1.59,2.5.133.133,0,0,1-.2-.014c-.515-.678-1.987-2.472-2.6-2.625a8.417,8.417,0,0,0-1.6-.083c-.574,0-1.274.013-2.079.04h-.009c-.8-.026-1.5-.04-2.076-.04a8.2,8.2,0,0,0-1.585.083c-.614.153-2.085,1.947-2.6,2.625a.133.133,0,0,1-.2.014,6.465,6.465,0,0,1-1.59-2.5,4,4,0,0,1-.229-1.156v-8.12a.133.133,0,0,1,.027-.081l.927-1.221h0a2.615,2.615,0,0,0,.123-3.052,2.76,2.76,0,0,1,.391-3.491l.006-.006L156,160.1a2.76,2.76,0,0,1,3.4-.341l.011.008,1.385,1.086a3.3,3.3,0,0,0,4.063,0l1.379-1.086.011-.008A2.77,2.77,0,0,1,167.74,159.324Zm1.743.97a2.509,2.509,0,0,0-3.085-.314l-1.374,1.082a3.568,3.568,0,0,1-4.392,0l-1.38-1.082a2.493,2.493,0,0,0-3.067.314l-.006.005-.015.013a2.5,2.5,0,0,0-.351,3.15,2.881,2.881,0,0,1-.135,3.362l-.9,1.184v8.075a3.846,3.846,0,0,0,.22,1.084,6.159,6.159,0,0,0,1.416,2.278c.166-.213.534-.676.952-1.148a4.791,4.791,0,0,1,1.7-1.452,8.743,8.743,0,0,1,1.651-.091c.576,0,1.276.013,2.081.04.806-.026,1.507-.04,2.084-.04a8.968,8.968,0,0,1,1.663.091,4.79,4.79,0,0,1,1.7,1.452c.417.472.785.935.952,1.148a6.158,6.158,0,0,0,1.416-2.278,3.847,3.847,0,0,0,.22-1.084l.087-8.074-.93-1.184a2.879,2.879,0,0,1-.163-3.325v0a2.522,2.522,0,0,0-.331-3.19Z" transform="translate(-142.699 -151.846)" fill="#263238"/>
            <path id="路径_12794" data-name="路径 12794" d="M193.28,227.526s1.189-.159,1.189.528-.695,1.186-2.079.692" transform="translate(-171.752 -203.627)" fill="#ffbe9d"/>
            <path id="路径_12794_-_轮廓" data-name="路径 12794 - 轮廓" d="M193.022,228.707a3.171,3.171,0,0,1-1.049-.206.133.133,0,1,1,.09-.251c.944.337,1.414.155,1.61.017a.683.683,0,0,0,.291-.584.3.3,0,0,0-.1-.244,1.441,1.441,0,0,0-.933-.152.133.133,0,1,1-.035-.265,1.725,1.725,0,0,1,1.144.216.573.573,0,0,1,.2.445.952.952,0,0,1-.4.8A1.378,1.378,0,0,1,193.022,228.707Z" transform="translate(-171.38 -203.256)" fill="#263238"/>
            <path id="路径_12795" data-name="路径 12795" d="M185.97,206.36V212.1a1.189,1.189,0,0,1-1.186,1.189h-1.057c-.756.053-1.02-.132-1.11-.452a.793.793,0,0,1,.1-.631h0c0-.3,1.263-.3,1.263-.3" transform="translate(-164.542 -188.065)" fill="#ffbe9d"/>
            <path id="路径_12795_-_轮廓" data-name="路径 12795 - 轮廓" d="M183.121,213.064c-.584,0-.9-.177-1-.558v0a.928.928,0,0,1,.1-.709c.042-.234.417-.309.746-.347a6.288,6.288,0,0,1,.647-.038.133.133,0,1,1,0,.267s-.27,0-.552.029c-.457.047-.561.127-.578.144a.134.134,0,0,1-.021.061.661.661,0,0,0-.084.524c.061.215.221.406.972.354h1.066a1.057,1.057,0,0,0,1.053-1.056v-5.744a.133.133,0,1,1,.267,0v5.744a1.325,1.325,0,0,1-1.32,1.322H183.36Q183.234,213.064,183.121,213.064Z" transform="translate(-164.171 -187.694)" fill="#263238"/>
            <path id="路径_12796" data-name="路径 12796" d="M181.369,240.418a6.3,6.3,0,0,1-3.147-.822.436.436,0,0,1,.465-.737,5.594,5.594,0,0,0,5.411-.026.436.436,0,1,1,.41.769A6.605,6.605,0,0,1,181.369,240.418Z" transform="translate(-161.185 -211.913)" fill="#fff"/>
            <path id="路径_12796_-_轮廓" data-name="路径 12796 - 轮廓" d="M180.959,240.18a6.446,6.446,0,0,1-3.178-.839l-.008-.005a.569.569,0,0,1,.605-.964,5.46,5.46,0,0,0,5.279-.026.569.569,0,1,1,.537,1,6.76,6.76,0,0,1-3.2.831Zm-3.041-1.069a6.186,6.186,0,0,0,3.076.8,6.492,6.492,0,0,0,3.075-.8l.007,0a.3.3,0,1,0-.284-.534h0a5.727,5.727,0,0,1-5.54.027l0,0a.3.3,0,0,0-.326.509Z" transform="translate(-160.811 -211.542)" fill="#263238"/>
            <path id="直线_1431" data-name="直线 1431" d="M1.547-.238H-.372A.133.133,0,0,1-.5-.372.133.133,0,0,1-.372-.5H1.547a.133.133,0,0,1,.133.133A.133.133,0,0,1,1.547-.238Z" transform="translate(23.737 22.416)" fill="#263238"/>
            <path id="直线_1432" data-name="直线 1432" d="M1.547-.238H-.372A.133.133,0,0,1-.5-.372.133.133,0,0,1-.372-.5H1.547a.133.133,0,0,1,.133.133A.133.133,0,0,1,1.547-.238Z" transform="translate(16.117 22.416)" fill="#263238"/>
            <path id="椭圆_775" data-name="椭圆 775" d="M3.163-.362A3.525,3.525,0,0,1,6.688,3.163,3.525,3.525,0,0,1,3.163,6.688,3.525,3.525,0,0,1-.362,3.163,3.525,3.525,0,0,1,3.163-.362Zm0,6.859A3.334,3.334,0,0,0,5.521.806,3.334,3.334,0,1,0,.806,5.521,3.312,3.312,0,0,0,3.163,6.5Z" transform="translate(4.983 64.515)" fill="#263238"/>
            <path id="路径_12797" data-name="路径 12797" d="M143.162,386.508h0a.692.692,0,0,1-.692-.692v-2.193a.692.692,0,0,1,.692-.692h0a.692.692,0,0,1,.692.692v2.193A.692.692,0,0,1,143.162,386.508Z" transform="translate(-135.022 -317.981)" fill="#263238"/>
            <path id="路径_12798" data-name="路径 12798" d="M141.7,391.731a1.226,1.226,0,0,1-1.223-1.223v-1.031a.127.127,0,0,1,.127-.127.124.124,0,0,1,.127.127v1.031a.972.972,0,0,0,1.942,0v-1.031a.124.124,0,0,1,.127-.127.127.127,0,0,1,.127.127v1.031a1.226,1.226,0,0,1-1.226,1.223Z" transform="translate(-133.557 -322.705)" fill="#263238"/>
            <path id="路径_12799" data-name="路径 12799" d="M144.764,398.94a.124.124,0,0,1-.124-.127v-1.321a.132.132,0,1,1,.264,0v1.321a.124.124,0,0,1-.14.127Z" transform="translate(-136.618 -328.599)" fill="#263238"/>
            <path id="路径_12800" data-name="路径 12800" d="M143.255,402.894h-1.688a.129.129,0,0,1-.127-.127.127.127,0,0,1,.127-.127h1.688a.127.127,0,0,1,.127.127.129.129,0,0,1-.127.127Z" transform="translate(-134.264 -332.484)" fill="#263238"/>
            <g id="组_10567" data-name="组 10567" transform="translate(27.331 64.153)">
              <path id="椭圆_776" data-name="椭圆 776" d="M3.163-.362A3.525,3.525,0,0,1,6.688,3.163,3.525,3.525,0,0,1,3.163,6.688,3.525,3.525,0,0,1-.362,3.163,3.525,3.525,0,0,1,3.163-.362Zm0,6.859A3.334,3.334,0,0,0,5.521.806,3.334,3.334,0,1,0,.806,5.521,3.312,3.312,0,0,0,3.163,6.5Z" transform="translate(0.362 0.362)" fill="#263238"/>
              <path id="路径_12801" data-name="路径 12801" d="M227.7,388.614l-1,.579v-.476a.41.41,0,0,0-.41-.407H224.03a.407.407,0,0,0-.41.407v1.823a.407.407,0,0,0,.41.41h2.262a.41.41,0,0,0,.41-.41v-.462l1,.579Z" transform="translate(-222.061 -386.092)" fill="#263238"/>
            </g>
            <circle id="椭圆_777" data-name="椭圆 777" cx="3.43" cy="3.43" r="3.43" transform="translate(16.073 64.248)" fill="#263238"/>
            <path id="椭圆_777_-_轮廓" data-name="椭圆 777 - 轮廓" d="M3.163-.362A3.525,3.525,0,0,1,6.688,3.163,3.525,3.525,0,0,1,3.163,6.688,3.525,3.525,0,0,1-.362,3.163,3.525,3.525,0,0,1,3.163-.362Zm0,6.859A3.334,3.334,0,0,0,5.521.806,3.334,3.334,0,1,0,.806,5.521,3.312,3.312,0,0,0,3.163,6.5Z" transform="translate(16.339 64.515)" fill="#263238"/>
            <path id="路径_12802" data-name="路径 12802" d="M183.166,390.519h-3.472a.655.655,0,0,0-.645.774l.1.544a.164.164,0,0,0,.159.132h1.057a.164.164,0,0,0,.164-.164v-.589h1.823v.589a.164.164,0,0,0,.164.164h1.057a.164.164,0,0,0,.161-.132l.1-.544a.655.655,0,0,0-.668-.774Z" transform="translate(-161.928 -323.565)" fill="#2988e6"/>
            <path id="矩形_20667" data-name="矩形 20667" d="M-.3-.411H2.927A.108.108,0,0,1,3.035-.3v1.77a.108.108,0,0,1-.108.108H-.3a.108.108,0,0,1-.108-.108V-.3A.108.108,0,0,1-.3-.411Zm3.12.217H-.194V1.36H2.818Z" transform="translate(34.479 1.058)" fill="#263238"/>
            <rect id="矩形_20668" data-name="矩形 20668" width="2.518" height="1.77" transform="translate(34.177 0.756)" fill="#263238"/>
            <path id="矩形_20668_-_轮廓" data-name="矩形 20668 - 轮廓" d="M-.267-.363H2.251a.1.1,0,0,1,.1.1V1.5a.1.1,0,0,1-.1.1H-.267a.1.1,0,0,1-.1-.1V-.267A.1.1,0,0,1-.267-.363Zm2.422.192H-.171V1.408H2.156Z" transform="translate(34.444 1.022)" fill="#263238"/>
            <rect id="矩形_20669" data-name="矩形 20669" width="0.454" height="0.779" transform="translate(37.398 1.25)" fill="#263238"/>
            <path id="矩形_20669_-_轮廓" data-name="矩形 20669 - 轮廓" d="M-.267-.363H.188a.1.1,0,0,1,.1.1V.513a.1.1,0,0,1-.1.1H-.267a.1.1,0,0,1-.1-.1V-.267A.1.1,0,0,1-.267-.363Zm.359.192H-.171V.417H.092Z" transform="translate(37.665 1.517)" fill="#263238"/>
            <rect id="矩形_20670" data-name="矩形 20670" width="0.592" height="1.015" transform="translate(0.668 1.303)" fill="#263238"/>
            <path id="矩形_20670_-_轮廓" data-name="矩形 20670 - 轮廓" d="M-.325-.442H.267a.117.117,0,0,1,.117.117V.69A.117.117,0,0,1,.267.806H-.325A.117.117,0,0,1-.442.69V-.325A.117.117,0,0,1-.325-.442ZM.15-.208H-.208V.573H.15Z" transform="translate(0.993 1.628)" fill="#263238"/>
            <rect id="矩形_20671" data-name="矩形 20671" width="0.592" height="1.371" transform="translate(1.599 0.949)" fill="#263238"/>
            <path id="矩形_20671_-_轮廓" data-name="矩形 20671 - 轮廓" d="M-.325-.442H.267a.117.117,0,0,1,.117.117V1.046a.117.117,0,0,1-.117.117H-.325a.117.117,0,0,1-.117-.117V-.325A.117.117,0,0,1-.325-.442ZM.15-.208H-.208V.93H.15Z" transform="translate(1.923 1.273)" fill="#263238"/>
            <rect id="矩形_20672" data-name="矩形 20672" width="0.592" height="1.791" transform="translate(2.529 0.526)" fill="#263238"/>
            <path id="矩形_20672_-_轮廓" data-name="矩形 20672 - 轮廓" d="M-.325-.442H.267a.117.117,0,0,1,.117.117V1.467a.117.117,0,0,1-.117.117H-.325a.117.117,0,0,1-.117-.117V-.325A.117.117,0,0,1-.325-.442ZM.15-.208H-.208V1.35H.15Z" transform="translate(2.853 0.851)" fill="#263238"/>
          </g>
          <path id="矩形_20674" data-name="矩形 20674" d="M-.368-.5H38.571a.132.132,0,0,1,.132.132V72.423a.132.132,0,0,1-.132.132H-.368A.132.132,0,0,1-.5,72.423V-.368A.132.132,0,0,1-.368-.5Zm38.806.264H-.236V72.291H38.439Z" transform="translate(2.402 6.165)" fill="#263238"/>
        </g>
      </g>
      <g id="组_10568" data-name="组 10568" transform="translate(47.36 390.406)">
        <path id="椭圆_776-2" data-name="椭圆 776" d="M4.7-.362A5.065,5.065,0,0,1,8.285,8.285,5.065,5.065,0,1,1,1.121,1.121,5.032,5.032,0,0,1,4.7-.362Zm0,9.855A4.79,4.79,0,0,0,8.09,1.316,4.79,4.79,0,1,0,1.316,8.09,4.759,4.759,0,0,0,4.7,9.493Z" transform="translate(33.039 77.064)" fill="#2988e6"/>
        <path id="路径_12801-2" data-name="路径 12801" d="M229.485,388.746l-1.439.831v-.683a.589.589,0,0,0-.588-.585h-3.25a.585.585,0,0,0-.588.585v2.62a.585.585,0,0,0,.588.588h3.25a.588.588,0,0,0,.588-.588v-.664l1.439.831Z" transform="translate(-188.703 -308.422)" fill="#2988e6"/>
      </g>
      <g id="组_10569" data-name="组 10569" transform="translate(47.36 406.406)">
        <path id="椭圆_776-3" data-name="椭圆 776" d="M4.7-.362A5.065,5.065,0,0,1,8.285,8.285,5.065,5.065,0,1,1,1.121,1.121,5.032,5.032,0,0,1,4.7-.362Zm0,9.855A4.79,4.79,0,0,0,8.09,1.316,4.79,4.79,0,1,0,1.316,8.09,4.759,4.759,0,0,0,4.7,9.493Z" transform="translate(32.987 77.545)" fill="#2988e6"/>
        <g id="组_10570" data-name="组 10570" transform="translate(-93.375 -134.151)">
          <path id="路径_12917" data-name="路径 12917" d="M257.436,214.769m-1.436,0a1.436,1.436,0,1,0,1.436-1.436A1.436,1.436,0,0,0,256,214.769Z" transform="translate(-126.923)" fill="#2988e6"/>
          <path id="路径_12918" data-name="路径 12918" d="M640,499.2h2.154v.574H640Z" transform="translate(-507.693 -283.462)" fill="#2988e6"/>
          <path id="路径_12919" data-name="路径 12919" d="M734.441,405.333v2.154h-.574v-2.154Z" transform="translate(-600.77 -190.385)" fill="#2988e6"/>
          <path id="路径_12920" data-name="路径 12920" d="M130.153,597.333h.718a2.153,2.153,0,0,1,2.153,2.154H128A2.153,2.153,0,0,1,130.153,597.333Z" transform="translate(0 -380.77)" fill="#2988e6"/>
        </g>
      </g>
      <g id="组_10571" data-name="组 10571" transform="translate(47.36 422.887)">
        <path id="椭圆_776-4" data-name="椭圆 776" d="M4.7-.362A5.065,5.065,0,0,1,8.285,8.285,5.065,5.065,0,1,1,1.121,1.121,5.032,5.032,0,0,1,4.7-.362Zm0,9.855A4.79,4.79,0,0,0,8.09,1.316,4.79,4.79,0,1,0,1.316,8.09,4.759,4.759,0,0,0,4.7,9.493Z" transform="translate(32.987 77.545)" fill="#2988e6"/>
        <path id="路径_12921" data-name="路径 12921" d="M64.033,60.387a2.529,2.529,0,0,1,1.028.2,2.752,2.752,0,0,1,.845.556A2.606,2.606,0,0,1,66.7,63a2.511,2.511,0,0,1-.177.974,2.591,2.591,0,0,1-.511.809,2.8,2.8,0,0,1-.77.58,2.668,2.668,0,0,1-.953.283q-.132.018-.283.03t-.334.018q-.183.006-.409,0t-.508-.036a4.864,4.864,0,0,1-.929-.156q-.3-.1-.244-.108a1.83,1.83,0,0,0,.547-.174.17.17,0,0,0,.1-.189.465.465,0,0,0-.117-.232,2.737,2.737,0,0,1-.5-.785,2.611,2.611,0,0,1-.2-.965,2.529,2.529,0,0,1,.2-1.028,2.687,2.687,0,0,1,.559-.842A2.648,2.648,0,0,1,63,60.6,2.61,2.61,0,0,1,64.033,60.387Zm1.173,2.646a.37.37,0,0,0,.108.268.355.355,0,0,0,.265.111.38.38,0,0,0,.379-.379.355.355,0,0,0-.111-.265.37.37,0,0,0-.268-.108.37.37,0,0,0-.373.373Zm-1.509,0a.385.385,0,0,0,.659.271.385.385,0,0,0-.544-.544A.367.367,0,0,0,63.7,63.033ZM62.2,63.027a.375.375,0,0,0,.111.271.36.36,0,0,0,.268.114.367.367,0,0,0,.274-.114.375.375,0,0,0,.111-.271.365.365,0,0,0-.111-.268.372.372,0,0,0-.274-.111.38.38,0,0,0-.379.379Z" transform="translate(-26.364 19.092)" fill="#2988e6"/>
      </g>
      <g id="组_10572" data-name="组 10572" transform="translate(24.804 399.616)">
        <path id="路径_12922" data-name="路径 12922" d="M382.91,66.548h5.746a1.378,1.378,0,0,0,1.225-1.47,1.473,1.473,0,0,0-.342-1.018,1.286,1.286,0,0,0-.924-.461H382.91a1.488,1.488,0,0,0,0,2.939Zm0,0" transform="translate(-246.77 0)" fill="#88baeb"/>
        <path id="路径_12923" data-name="路径 12923" d="M151.186,181.26c0-.022-.006-.041-.006-.06-6.126,1.028-11.343,4.609-16.97,6.144a12.384,12.384,0,0,1-7.21.7v10.074c8.642-.473,16.14-4.358,24.189-6.22V181.26Z" transform="translate(-0.097 -113.915)" fill="#519ce6"/>
        <path id="路径_12924" data-name="路径 12924" d="M127,529.02v5.164a2.221,2.221,0,0,0,2.146,2.272h19.881a2.091,2.091,0,0,0,1.526-.661,2.332,2.332,0,0,0,.636-1.611V522.8C143.137,524.661,135.642,528.546,127,529.02Z" transform="translate(-0.097 -444.812)" fill="#2988e6"/>
        <path id="路径_12925" data-name="路径 12925" d="M148.946,110.3H145.39a2.766,2.766,0,0,1-2.673,2.836H135.3a2.766,2.766,0,0,1-2.673-2.836h-3.578a2.221,2.221,0,0,0-2.146,2.281v6.79a12.419,12.419,0,0,0,7.213-.7c5.627-1.535,10.844-5.117,16.97-6.144a2.212,2.212,0,0,0-2.137-2.222Z" transform="translate(0 -45.237)" fill="#88baeb"/>
        <path id="路径_12926" data-name="路径 12926" d="M329.442,386.415h6.417a.642.642,0,1,1,0,1.285h-6.417a.642.642,0,1,1,0-1.285Zm0,0,0,2.569h11.552a.642.642,0,0,1,0,1.285H329.442a.642.642,0,1,1,0-1.285Zm0,0,.282-5.135a.258.258,0,0,0,.257-.257V381.7h.357a.614.614,0,0,1,.367.128,2.182,2.182,0,0,1,.442.577l.8,1.319a.258.258,0,0,0,.219.125h.746a.256.256,0,0,0,.216-.395l-.793-1.25a1.987,1.987,0,0,0-.849-.846v-.016a1.776,1.776,0,0,0,.912-.57,1.49,1.49,0,0,0,.332-.971q0-1.5-1.98-1.5h-1.689a.258.258,0,0,0-.257.257v5.029a.258.258,0,0,0,.257.257Zm.837-3.049h-.323a.258.258,0,0,1-.257-.257v-1.081a.258.258,0,0,1,.257-.257h.345c.6,0,.9.251.9.752a.8.8,0,0,1-.254.6A.934.934,0,0,1,330.561,380.8Zm3.929,3.049a.252.252,0,0,0,.226-.135l.53-.968a2.117,2.117,0,0,0,.16-.345h.016a2.968,2.968,0,0,0,.169.354l.517.956a.252.252,0,0,0,.226.135h.711a.258.258,0,0,0,.216-.4l-.956-1.491a.261.261,0,0,1,0-.285l.943-1.388a.256.256,0,0,0-.213-.4h-.617a.264.264,0,0,0-.229.138l-.533,1a2.686,2.686,0,0,0-.166.37h-.013a3.378,3.378,0,0,0-.16-.367l-.514-1a.26.26,0,0,0-.229-.141h-.714a.256.256,0,0,0-.216.395l.918,1.451a.256.256,0,0,1,0,.282l-.971,1.426a.257.257,0,0,0,.213.4h.686Zm.154,0" transform="translate(-195.574 -304.839)" fill="#fff"/>
      </g>
    </g>
  </g>
</svg>
