<svg xmlns="http://www.w3.org/2000/svg" width="44" height="44" viewBox="0 0 44 44">
  <g id="组_10830" data-name="组 10830" transform="translate(-93 -634)">
    <g id="组_10829" data-name="组 10829" transform="translate(69 -87)">
      <circle id="椭圆_699" data-name="椭圆 699" cx="22" cy="22" r="22" transform="translate(24 721)" fill="#fff" opacity="0.301"/>
    </g>
    <path id="减去_1" data-name="减去 1" d="M5781.232,1711h-9.206a.983.983,0,0,1-1.026-.931v-9.315a.969.969,0,0,1,.9-.925l-.027.022,9.355,11.147Zm3.131,0h0l-9.378-11.177h9.348a.982.982,0,0,1,1.024.931v3.26l4.1-3.727v10.248l-4.1-3.727v3.26a.985.985,0,0,1-.993.931Z" transform="translate(-5664.208 -1049.297)" fill="#fff" opacity="0.9"/>
    <rect id="矩形_19739" data-name="矩形 19739" width="1.649" height="21.794" rx="0.825" transform="translate(106.25 648.262) rotate(-40)" fill="#fff"/>
  </g>
</svg>
