<svg xmlns="http://www.w3.org/2000/svg" width="30" height="30" viewBox="0 0 30 30">
  <g id="组_13564" data-name="组 13564" transform="translate(-30 -544)">
    <g id="组_10779" data-name="组 10779" transform="translate(0 252)">
      <rect id="矩形_21" data-name="矩形 21" width="30" height="30" rx="4" transform="translate(30 292)" fill="#2988e6" opacity="0.063"/>
    </g>
    <path id="路径_13137" data-name="路径 13137" d="M78.986,95.182a.415.415,0,0,0-.012-.073V95.1l-.007-.038a1.092,1.092,0,0,0-1.013-.986h-.081a1.527,1.527,0,0,1-1.525-1.525,1.907,1.907,0,0,1,.128-.567,1.2,1.2,0,0,0-.606-1.518L74.01,89.411l-.035-.012a1.53,1.53,0,0,0-.48-.1,1.419,1.419,0,0,0-.948.39,2.492,2.492,0,0,1-1.24.721,2.486,2.486,0,0,1-1.24-.721,1.361,1.361,0,0,0-.948-.39,1.454,1.454,0,0,0-.48.1l-.031.012-1.949,1.055-.012.007a1.236,1.236,0,0,0-.424,1.514l0,.007,0,.007a1.741,1.741,0,0,1,.156.624,1.527,1.527,0,0,1-1.525,1.525H64.78a1.062,1.062,0,0,0-1.013.993l-.007.035v.012a.624.624,0,0,1-.012.073,9.232,9.232,0,0,0-.147,1.383,9.007,9.007,0,0,0,.147,1.383.416.416,0,0,0,.012.073v.014l.007.038a1.092,1.092,0,0,0,1.013.986h.042a1.527,1.527,0,0,1,1.525,1.525,1.907,1.907,0,0,1-.128.567,1.287,1.287,0,0,0,.5,1.538l.014.007,1.836,1.022.035.012a1.508,1.508,0,0,0,.476.1,1.266,1.266,0,0,0,.948-.39c.021-.016.042-.036.066-.057.222-.194.818-.707,1.211-.707a2.381,2.381,0,0,1,1.277.8,1.361,1.361,0,0,0,.948.39,1.31,1.31,0,0,0,.617-.165l.007,0,1.883-1.041.007-.007a1.236,1.236,0,0,0,.424-1.514l0-.007,0-.007a1.238,1.238,0,0,1-.123-.584l0-.017v-.017a1.527,1.527,0,0,1,1.525-1.525h.087a1.062,1.062,0,0,0,1.013-.993l.007-.035v-.012c0-.014.007-.035.012-.062a8.473,8.473,0,0,0,.149-1.393A8.625,8.625,0,0,0,78.986,95.182Zm-7.623,3.853a2.412,2.412,0,1,1,2.412-2.412A2.411,2.411,0,0,1,71.363,99.035Z" transform="translate(-25.937 463.172)" fill="#2987e6"/>
  </g>
</svg>
