<svg xmlns="http://www.w3.org/2000/svg" width="87" height="34" viewBox="0 0 87 34">
  <g id="edit" transform="translate(0.471)">
    <text id="Edit-2" data-name="Edit" transform="translate(38.529 22)" fill="#4c5264" font-size="14" font-family="Arial-Regular, Arial"><tspan x="0" y="0">Edit</tspan></text>
    <g id="矩形_18156" data-name="矩形 18156" transform="translate(-0.471)" fill="none" stroke="#cfd0d3" stroke-width="1">
      <rect width="87" height="34" rx="17" stroke="none"/>
      <rect x="0.5" y="0.5" width="86" height="33" rx="16.5" fill="none"/>
    </g>
    <path id="路径_5722" data-name="路径 5722" d="M94.4,63.243v2.725a.655.655,0,0,0,.664.641h2.809a.658.658,0,0,0,.466-.191l7.015-6.8a.627.627,0,0,0,0-.9L102.543,56a.686.686,0,0,0-.466-.191.652.652,0,0,0-.466.191l-7.022,6.793A.636.636,0,0,0,94.4,63.243Zm1.321.267.015-.015,6.343-6.152,1.87,1.817-6.358,6.16h-1.87ZM94.36,69.326h11.228a.642.642,0,1,0,0-1.282H94.36a.642.642,0,1,0,0,1.282Z" transform="translate(-73.167 -45.892)" fill="#4c5264"/>
  </g>
</svg>
