<svg xmlns="http://www.w3.org/2000/svg" width="36" height="36" viewBox="0 0 36 36">
  <g id="组_10721" data-name="组 10721" transform="translate(-233 -262)">
    <path id="路径_9647" data-name="路径 9647" d="M36,0V23.294A12.706,12.706,0,0,1,23.294,36H0Z" transform="translate(233 262)" opacity="0.38"/>
    <g id="组_10719" data-name="组 10719" transform="translate(251 279)">
      <g id="组_10694" data-name="组 10694" transform="translate(0.453 1.58)">
        <path id="路径_9644" data-name="路径 9644" d="M386.331,414.621a1.616,1.616,0,1,0,1.626,1.615A1.622,1.622,0,0,0,386.331,414.621Z" transform="translate(-380.586 -411.072)" fill="#fff"/>
        <path id="路径_9645" data-name="路径 9645" d="M100.061,168.851a.146.146,0,0,1-.012.023v-6.206a.714.714,0,0,0-.715-.711H97.168l-.012-.024-.28-.556c-.032-.071-.318-.68-.708-.68h-3.8c-.4,0-.693.646-.7.673l-.283.563-.012.024H89.2a.714.714,0,0,0-.715.711V169.6a.714.714,0,0,0,.715.712H99.334a.714.714,0,0,0,.715-.712v-.715c.007-.01.016-.019.022-.03Zm-5.831-.562a2.435,2.435,0,1,1,2.448-2.435A2.445,2.445,0,0,1,94.23,168.288Zm3.747-4.219a.57.57,0,1,1,.57-.57A.571.571,0,0,1,97.977,164.07Z" transform="translate(-88.484 -160.696)" fill="#fff"/>
        <path id="路径_9646" data-name="路径 9646" d="M872.8,755.629h0v0Z" transform="translate(-862.039 -747.427)" fill="#fff"/>
      </g>
      <rect id="矩形_19742" data-name="矩形 19742" width="13" height="13" fill="none"/>
    </g>
  </g>
</svg>
