<svg xmlns="http://www.w3.org/2000/svg" width="30" height="30" viewBox="0 0 30 30">
  <g id="组_13563" data-name="组 13563" transform="translate(-30 -260)">
    <g id="组_10780" data-name="组 10780" transform="translate(0 -80)">
      <rect id="矩形_21" data-name="矩形 21" width="30" height="30" rx="4" transform="translate(30 340)" fill="#2988e6" opacity="0.063"/>
      <g id="组_30" data-name="组 30" transform="translate(-25.057 283.951)">
        <path id="路径_46" data-name="路径 46" d="M210.481,122.081m-3.181,0a3.181,3.181,0,1,0,3.181-3.181A3.181,3.181,0,0,0,207.3,122.081Z" transform="translate(-141.538 -54.491)" fill="#fece55"/>
        <path id="路径_47" data-name="路径 47" d="M74.487,76.133c0,2.779-11.087,2.779-11.087,0s2.482-4.451,5.543-4.451S74.487,73.354,74.487,76.133ZM72.941,63.5a3.168,3.168,0,0,0-2.035.737,3.692,3.692,0,0,1,1.347,5.549,3.15,3.15,0,0,0,.686.075,3.181,3.181,0,0,0,0-6.362Z" transform="translate(0 0)" fill="#fece55"/>
        <path id="路径_48" data-name="路径 48" d="M520.11,513.2a6.248,6.248,0,0,0-1.71.264c2.163.44,4.515,2.122,4.515,4.811a1.611,1.611,0,0,1-.471,1.114c1.807-.3,3.209-.955,3.209-1.979C525.654,514.531,523.171,513.2,520.11,513.2Z" transform="translate(-447.532 -442.319)" fill="#fece55"/>
      </g>
    </g>
  </g>
</svg>
