<svg xmlns="http://www.w3.org/2000/svg" width="30" height="30" viewBox="0 0 30 30">
  <g id="组_13584" data-name="组 13584" transform="translate(-30 -476)">
    <g id="组_13582" data-name="组 13582">
      <g id="组_13581" data-name="组 13581">
        <g id="组_10784" data-name="组 10784" transform="translate(0 73)">
          <g id="组_13580" data-name="组 13580">
            <g id="组_13579" data-name="组 13579">
              <g id="组_13566" data-name="组 13566">
                <rect id="矩形_21" data-name="矩形 21" width="30" height="30" rx="4" transform="translate(30 403)" fill="#2988e6" opacity="0.063"/>
              </g>
            </g>
          </g>
          <path id="路径_39" data-name="路径 39" d="M92.8,96.532a.747.747,0,1,1-.747.747A.747.747,0,0,1,92.8,96.532Zm0-11.2a7.466,7.466,0,1,0,7.466,7.466A7.469,7.469,0,0,0,92.8,85.333Zm1.62,7.593a2.615,2.615,0,0,0-.777,1.262,3.425,3.425,0,0,0-.1.851H92.053v-.373a2.991,2.991,0,0,1,.874-2.113l.926-.941a1.465,1.465,0,0,0,.411-1.344,1.486,1.486,0,0,0-1.038-1.142,1.505,1.505,0,0,0-1.844.948.659.659,0,0,1-.612.485h-.224a.647.647,0,0,1-.612-.836,2.992,2.992,0,0,1,2.412-2.113,3.037,3.037,0,0,1,2.889,1.344,2.469,2.469,0,0,1-.142,3.285m-3.039,2.8h1.493a.747.747,0,0,1-1.493,0Z" transform="translate(-47.377 325.666)" fill="#2988e6"/>
        </g>
      </g>
    </g>
  </g>
</svg>
