<svg xmlns="http://www.w3.org/2000/svg" width="34" height="34" viewBox="0 0 34 34">
  <g id="inbox2" transform="translate(-132 -740)">
    <rect id="矩形_18175" data-name="矩形 18175" width="34" height="34" transform="translate(132 740)" fill="none"/>
    <path id="inbox" d="M15.6,14.187,27.721,2.854A3.206,3.206,0,0,0,24.536,0H3.211A3.211,3.211,0,0,0,0,2.854L12.151,14.187a2.533,2.533,0,0,0,3.444,0ZM0,4.719v8.489L4.563,8.982ZM16.533,15.192a3.911,3.911,0,0,1-5.325,0L5.568,9.924,0,15.083V18.46a3.206,3.206,0,0,0,3.211,3.206H24.536a3.206,3.206,0,0,0,3.206-3.206V15.083L22.174,9.9Zm6.645-6.216L27.742,13.2V4.719Z" transform="translate(135.4 746.164)" fill="#fff"/>
  </g>
</svg>
