<svg xmlns="http://www.w3.org/2000/svg" width="20" height="20" viewBox="0 0 20 20">
  <g id="组_10729" data-name="组 10729" transform="translate(-334 -304)">
    <g id="组_10170" data-name="组 10170" transform="translate(-235 39)">
      <circle id="椭圆_674" data-name="椭圆 674" cx="10" cy="10" r="10" transform="translate(569 265)" fill="#fece55"/>
      <g id="doctor" transform="translate(574 269)">
        <path id="路径_5665" data-name="路径 5665" d="M269.153,279.966h-3.847v-.619c.545-.289,1.143-3.4,1.587-3.389,1.728.356,2.952,1.338,2.952,3.208C269.826,279.657,269.6,279.966,269.153,279.966Zm-1.486-6.254a2.573,2.573,0,0,1-5.084-.007.881.881,0,0,1-.471-.726c-.1-.605.269-.753.269-.753q.04,0,.081.061a1.132,1.132,0,0,1,.289-.437,3.539,3.539,0,0,1,2.421-.726,2.894,2.894,0,0,1,2.32.713,1.225,1.225,0,0,1,.3.477c.034-.054.067-.087.1-.081,0,0,.377.148.276.753A.9.9,0,0,1,267.667,273.712Z" transform="translate(-260.491 -268.204)" fill="#fff"/>
        <path id="路径_5666" data-name="路径 5666" d="M136.424,34.133a5.826,5.826,0,0,0-2.737.767v2.556a4.681,4.681,0,0,1,5.622.007V34.906A7.062,7.062,0,0,0,136.424,34.133Zm.847,1.385h-.619v.619h-.33v-.619h-.612v-.336h.612v-.619h.33v.619h.619Zm-.841,9.758V45.9c-1.675,0-2.845-.007-3.847,0-.43,0-.666-.309-.693-.794,0-1.87,1.224-2.858,2.952-3.208.457-.02,1.049,3.094,1.587,3.383Z" transform="translate(-131.891 -34.133)" fill="#fff"/>
      </g>
    </g>
  </g>
</svg>
