<svg xmlns="http://www.w3.org/2000/svg" width="22" height="22" viewBox="0 0 22 22">
  <g id="Scan_QR_Code" data-name="Scan QR Code" transform="translate(-259 -50)">
    <rect id="矩形_18172" data-name="矩形 18172" width="22" height="22" transform="translate(259 50)" fill="#2988e6"/>
    <g id="scan" transform="translate(234.445 23.324)">
      <g id="组_7613" data-name="组 7613" transform="translate(31.735 33.567)">
        <path id="路径_5731" data-name="路径 5731" d="M559.99,65.1a.526.526,0,0,1-.067,0c-.365,0-.729,0-1.093,0a.928.928,0,0,0-.311.049.488.488,0,0,0-.33.368.865.865,0,0,0-.023.2c0,.644,0,1.288,0,1.932a1.032,1.032,0,0,0,.059.391.493.493,0,0,0,.358.3.751.751,0,0,0,.185.021h2.091a1.241,1.241,0,0,0,.238-.022.511.511,0,0,0,.431-.432c0-.021,0-.05.028-.059V65.637a.019.019,0,0,1,0-.014c-.014-.046-.016-.094-.032-.141a.546.546,0,0,0-.41-.372.644.644,0,0,0-.187-.02c-.013,0-.029.01-.037-.009h-.854C560.027,65.106,560.005,65.1,559.99,65.1Zm.947.39a.385.385,0,0,1,.114.02.142.142,0,0,1,.1.145c0,.717,0,1.435,0,2.152,0,.107-.082.173-.2.174-.366,0-.732,0-1.1,0h-1.084a.374.374,0,0,1-.122-.026c-.081-.03-.092-.1-.093-.172,0-.36,0-.719,0-1.079V65.7a.2.2,0,0,1,.066-.163.224.224,0,0,1,.15-.041Q559.853,65.491,560.936,65.493Z" transform="translate(-553.998 -65.078)" fill="#fff"/>
        <path id="路径_5732" data-name="路径 5732" d="M69.813,64.75H68.677a1.175,1.175,0,0,0-.266.03.529.529,0,0,0-.288.16.6.6,0,0,0-.142.409q0,1,0,2a1.136,1.136,0,0,0,.027.261.542.542,0,0,0,.16.293.585.585,0,0,0,.4.144H70.7a.99.99,0,0,0,.266-.029.514.514,0,0,0,.384-.343c.016-.051.017-.1.036-.154-.031.01-.024.038-.028.059a.51.51,0,0,1-.431.432,1.323,1.323,0,0,1-.238.022H68.6a.751.751,0,0,1-.185-.021.5.5,0,0,1-.358-.3A1.028,1.028,0,0,1,68,67.32c0-.644,0-1.288,0-1.933a.861.861,0,0,1,.023-.2.488.488,0,0,1,.33-.368.954.954,0,0,1,.311-.049c.364,0,.729,0,1.093,0a.522.522,0,0,0,.067,0c.016,0,.037,0,.04-.023C69.848,64.762,69.829,64.75,69.813,64.75Zm-5.96,2.784a.6.6,0,0,0,.137.326.538.538,0,0,0,.412.174q1.08,0,2.162,0A.893.893,0,0,0,66.834,68a.511.511,0,0,0,.375-.509q0-1.065,0-2.128a.715.715,0,0,0-.023-.18.548.548,0,0,0-.456-.406.817.817,0,0,0-.119-.011c-.019,0-.043.006-.05-.023h-.854c-.012.02-.032.009-.047.009-.394,0-.788,0-1.183,0a.754.754,0,0,0-.4.1.52.52,0,0,0-.227.316c-.008.026,0,.055-.018.079v2.235C63.857,67.491,63.85,67.516,63.853,67.534Zm.379-2.215a.164.164,0,0,1,.139-.156.625.625,0,0,1,.127-.01h2.1a.411.411,0,0,1,.119.019.131.131,0,0,1,.1.14v2.163a.146.146,0,0,1-.111.153.356.356,0,0,1-.119.019H65.521c-.362,0-.722,0-1.084,0a.208.208,0,0,1-.166-.058.141.141,0,0,1-.039-.1Q64.231,66.406,64.232,65.319Z" transform="translate(-63.828 -64.74)" fill="#fff"/>
        <path id="路径_5733" data-name="路径 5733" d="M63.838,67.846a.563.563,0,0,0,.061.241.518.518,0,0,0,.495.3c.714.006,1.429,0,2.143,0a1.127,1.127,0,0,0,.266-.029.516.516,0,0,0,.42-.522c0-.708,0-1.416,0-2.123a.774.774,0,0,0-.009-.141.565.565,0,0,0-.232-.374.627.627,0,0,0-.354-.109c-.022,0-.047.011-.066-.009.007.029.032.023.05.023a.982.982,0,0,1,.119.011.548.548,0,0,1,.456.406.715.715,0,0,1,.023.18c0,.71,0,1.418,0,2.128a.513.513,0,0,1-.375.509.892.892,0,0,1-.27.037q-1.08,0-2.162,0a.539.539,0,0,1-.412-.174.6.6,0,0,1-.137-.326c0-.018,0-.044-.025-.05C63.842,67.827,63.838,67.838,63.838,67.846Zm.7,4.557a.449.449,0,0,1,.062,0h1.976a.938.938,0,0,0,.237-.03.511.511,0,0,0,.4-.51c0-.243,0-.486,0-.729V69.714a.554.554,0,0,0-.514-.573c-.109-.012-.22-.016-.33-.019-.331-.007-.662,0-.992.012s-.633,0-.949.007a.684.684,0,0,0-.314.078.478.478,0,0,0-.246.32c-.007.027,0,.062-.035.077V71.86c.019.053.021.109.037.164a.511.511,0,0,0,.382.373.64.64,0,0,0,.191.02c.013,0,.032-.011.042.009H64.5C64.5,72.4,64.521,72.405,64.536,72.4Zm-.109-.389a.179.179,0,0,1-.2-.2c0-.7,0-1.406,0-2.11a.164.164,0,0,1,.175-.177c.715-.023,1.43,0,2.145-.008a.377.377,0,0,1,.188.029.141.141,0,0,1,.082.131c0,.36,0,.719,0,1.079s0,.713,0,1.069c0,.116-.075.169-.179.185a1.487,1.487,0,0,1-.245,0C65.741,72.013,65.084,72.014,64.427,72.014Z" transform="translate(-63.828 -65.078)" fill="#fff"/>
        <path id="路径_5734" data-name="路径 5734" d="M64.44,545.847h1.952a1.327,1.327,0,0,0,.269-.02.567.567,0,0,0,.312-.164.517.517,0,0,0,.139-.361c0-.713,0-1.426,0-2.139a.688.688,0,0,0-.019-.177.555.555,0,0,0-.352-.4,1.12,1.12,0,0,0-.393-.051c-.222,0-.443-.009-.665,0-.182.011-.366,0-.55.01-.265.009-.53,0-.8,0a.834.834,0,0,0-.182.019.53.53,0,0,0-.389.3c-.025.055-.027.115-.05.17.035-.014.029-.05.035-.077a.481.481,0,0,1,.246-.32.688.688,0,0,1,.314-.078c.316,0,.632,0,.948-.007s.661-.019.992-.012c.11,0,.221.007.33.019a.555.555,0,0,1,.514.573v1.419c0,.243,0,.486,0,.729a.511.511,0,0,1-.4.51.935.935,0,0,1-.237.03H64.485c-.021,0-.041,0-.062,0s-.034,0-.035.023C64.4,545.836,64.422,545.847,64.44,545.847Z" transform="translate(-63.716 -538.507)" fill="#fff"/>
        <path id="路径_5735" data-name="路径 5735" d="M63.961,64.967a.763.763,0,0,1,.4-.1c.394,0,.788,0,1.183,0,.015,0,.035.012.047-.009a.1.1,0,0,1-.052,0c-.43,0-.859-.008-1.289.006a.554.554,0,0,0-.446.226.487.487,0,0,0-.093.271c.017-.023.012-.052.018-.079A.523.523,0,0,1,63.961,64.967Zm6.679-.1a.647.647,0,0,1,.187.02.548.548,0,0,1,.41.372c.015.046.017.095.032.141v0a.551.551,0,0,0-.505-.53.908.908,0,0,1-.161-.009C70.61,64.873,70.627,64.864,70.64,64.863Zm-6.314,7.329a.641.641,0,0,1-.191-.02.511.511,0,0,1-.382-.373c-.015-.055-.017-.111-.037-.164.011.051.008.1.02.154a.526.526,0,0,0,.466.4.956.956,0,0,1,.166.008C64.357,72.181,64.339,72.191,64.326,72.192Z" transform="translate(-63.716 -64.852)" fill="#fff"/>
        <path id="路径_5736" data-name="路径 5736" d="M203.8,201.206a.185.185,0,0,0-.2.192v1.648a.183.183,0,0,0,.2.191.181.181,0,0,0,.2-.189c0-.551,0-1.1,0-1.652A.184.184,0,0,0,203.8,201.206Zm2.426,0a.187.187,0,0,0-.223.175c0,.28,0,.559,0,.839v.834a.153.153,0,0,0,0,.047.208.208,0,0,0,.225.134c.109-.026.172-.069.173-.205,0-.532,0-1.065,0-1.6C206.406,201.3,206.363,201.233,206.228,201.208Zm-.889.574a.2.2,0,0,0-.212-.145c-.119.023-.186.063-.187.2,0,.394,0,.789,0,1.183a.185.185,0,0,0,.168.213.191.191,0,0,0,.235-.183v-1.228A.2.2,0,0,0,205.339,201.783Zm-.266-1.75a.183.183,0,0,0-.134.19v.848c0,.126.038.2.174.227a.192.192,0,0,0,.229-.177c0-.152,0-.3,0-.456s0-.293,0-.441C205.344,200.041,205.2,200,205.073,200.032Zm-1.141.025a.238.238,0,0,0-.148-.032.173.173,0,0,0-.177.175v.249c0,.086,0,.173,0,.259a.161.161,0,0,0,.047.118.22.22,0,0,0,.175.062.189.189,0,0,0,.18-.179c0-.17,0-.339,0-.508A.167.167,0,0,0,203.932,200.057Zm2.458.081a.194.194,0,0,0-.172-.115.19.19,0,0,0-.216.219c0,.067,0,.134,0,.2v.24a.153.153,0,0,0,0,.042.2.2,0,0,0,.229.134.18.18,0,0,0,.169-.189c0-.152,0-.3,0-.456A.224.224,0,0,0,206.39,200.139Zm-5.048-2.859a.176.176,0,0,0-.148-.131.261.261,0,0,0-.038,0c-.006,0-.014,0-.016-.008h-.276c0,.007-.011,0-.015,0-.128,0-.255,0-.383,0a.244.244,0,0,0-.131.034.168.168,0,0,0-.074.1c0,.009,0,.018-.006.025v.724c.01,0,.007.011.008.016a.2.2,0,0,0,.044.105.177.177,0,0,0,.133.057h.7a.271.271,0,0,0,.087-.012.167.167,0,0,0,.122-.165v-.69A.2.2,0,0,0,201.342,197.28Zm4.158-.074a.176.176,0,0,0-.148-.131.261.261,0,0,0-.038,0c-.006,0-.014,0-.016-.008h-.276c0,.007-.011,0-.015,0-.128,0-.255,0-.383,0a.244.244,0,0,0-.131.034.167.167,0,0,0-.074.1c0,.009,0,.018-.006.025v.724c.01,0,.007.011.008.016a.2.2,0,0,0,.044.105.177.177,0,0,0,.133.057h.7a.27.27,0,0,0,.087-.013.167.167,0,0,0,.122-.165v-.69A.168.168,0,0,0,205.5,197.206Zm-4.163,4.09a.176.176,0,0,0-.148-.131.262.262,0,0,0-.038,0c-.006,0-.014,0-.016-.008h-.276c0,.007-.011,0-.015,0-.128,0-.255,0-.383,0a.245.245,0,0,0-.131.034.168.168,0,0,0-.074.1c0,.009,0,.018-.006.025v.724c.01,0,.007.011.008.016a.2.2,0,0,0,.044.106.177.177,0,0,0,.133.057h.7a.271.271,0,0,0,.087-.012.167.167,0,0,0,.122-.165v-.69A.2.2,0,0,0,201.336,201.3Z" transform="translate(-199.098 -195.948)" fill="#fff"/>
      </g>
      <g id="组_7614" data-name="组 7614" transform="translate(29.257 30.878)">
        <path id="路径_5739" data-name="路径 5739" d="M3.473,7.324a.394.394,0,0,1-.394-.394V4.338A1.939,1.939,0,0,1,5.014,2.4H7.606a.394.394,0,0,1,0,.788H5.014A1.15,1.15,0,0,0,3.866,4.34V6.931a.392.392,0,0,1-.393.393Zm11.813,0a.394.394,0,0,1-.394-.394V4.338A1.15,1.15,0,0,0,13.743,3.19H11.151a.394.394,0,0,1,0-.788h2.591a1.938,1.938,0,0,1,1.935,1.936V6.928A.394.394,0,0,1,15.286,7.324ZM13.743,15H11.151a.394.394,0,0,1,0-.788h2.591a1.15,1.15,0,0,0,1.149-1.149V10.474a.394.394,0,0,1,.788,0v2.591A1.94,1.94,0,0,1,13.743,15ZM7.607,15H5.014a1.938,1.938,0,0,1-1.936-1.936V10.474a.394.394,0,0,1,.788,0v2.591a1.15,1.15,0,0,0,1.149,1.149H7.607a.394.394,0,1,1,0,.788Zm0,0" transform="translate(-3.079 -2.401)" fill="#fff"/>
        <path id="路径_5740" data-name="路径 5740" d="M46.4,481.283H35.377a.394.394,0,1,1,0-.788H46.4a.394.394,0,1,1,0,.788Zm0,0" transform="translate(-34.589 -474.589)" fill="#fff"/>
      </g>
    </g>
  </g>
</svg>
