<svg xmlns="http://www.w3.org/2000/svg" width="60" height="60" viewBox="0 0 60 60">
  <g id="组_10058" data-name="组 10058" transform="translate(-45.553 -356.553)">
    <rect id="矩形_18502" data-name="矩形 18502" width="60" height="60" rx="6" transform="translate(45.553 356.553)" fill="#f4f4f4"/>
    <g id="yiyuan" transform="translate(52.77 364.918)">
      <path id="路径_8285" data-name="路径 8285" d="M111.134,897.966a.42.42,0,0,1-.4.429H64.7a.42.42,0,0,1-.4-.429v-1.538a.42.42,0,0,1,.4-.429h46.028a.42.42,0,0,1,.4.429Z" transform="translate(-64.3 -853.857)" fill="#333e48"/>
      <path id="路径_8286" data-name="路径 8286" d="M563.3,896H540.4v2.4h22.9a.433.433,0,0,0,.429-.429v-1.538A.426.426,0,0,0,563.3,896Z" transform="translate(-516.896 -853.857)" fill="#00ad68"/>
      <path id="路径_8287" data-name="路径 8287" d="M133.6,183.6h24.065v36.662H133.6Z" transform="translate(-129.74 -178.124)" fill="#d1d3d3"/>
      <path id="路径_8288" data-name="路径 8288" d="M133.6,183.6h24.065v5.493H133.6Z" transform="translate(-129.74 -178.124)"/>
      <path id="路径_8289" data-name="路径 8289" d="M187.6,613.8h18.049v4.891H187.6Z" transform="translate(-180.731 -586.442)" fill="#fff"/>
      <path id="路径_8290" data-name="路径 8290" d="M187.6,613.8h18.049v1.8H187.6Z" transform="translate(-180.731 -586.301)"/>
      <path id="路径_8291" data-name="路径 8291" d="M335.3,613.8h1.593v4.891H335.3Z" transform="translate(-321.148 -586.442)" fill="#333e48"/>
      <path id="路径_8292" data-name="路径 8292" d="M174.893,604.485h16.45v-3.3h-16.45Zm17.252,1.6H174.1a.8.8,0,0,1-.8-.8V600.4a.8.8,0,0,1,.8-.8h18.049a.8.8,0,0,1,.8.8v4.891A.8.8,0,0,1,192.145,606.084Z" transform="translate(-167.228 -573.055)" fill="#0071ce"/>
      <path id="路径_8293" data-name="路径 8293" d="M187.6,469h18.049v4.891H187.6Z" transform="translate(-180.731 -449.137)" fill="#fff"/>
      <path id="路径_8294" data-name="路径 8294" d="M187.6,469h18.049v1.8H187.6Z" transform="translate(-180.731 -449.035)"/>
      <path id="路径_8295" data-name="路径 8295" d="M335.3,469h1.593v4.891H335.3Z" transform="translate(-321.148 -449.137)" fill="#333e48"/>
      <path id="路径_8296" data-name="路径 8296" d="M174.893,459.591h16.45v-3.3h-16.45Zm17.252,1.6H174.1a.8.8,0,0,1-.8-.8v-4.9a.8.8,0,0,1,.8-.8h18.049a.8.8,0,0,1,.8.8v4.891A.8.8,0,0,1,192.145,461.19Z" transform="translate(-167.228 -435.634)" fill="#0071ce"/>
      <path id="路径_8297" data-name="路径 8297" d="M187.6,324.2h18.049v4.891H187.6Z" transform="translate(-180.731 -311.833)" fill="#fff"/>
      <path id="路径_8298" data-name="路径 8298" d="M187.6,324.2h18.049V326H187.6Z" transform="translate(-180.731 -311.77)"/>
      <path id="路径_8299" data-name="路径 8299" d="M335.3,324.2h1.593v4.891H335.3Z" transform="translate(-321.148 -311.833)" fill="#333e48"/>
      <path id="路径_8300" data-name="路径 8300" d="M174.893,314.891h16.45v-3.3h-16.45Zm17.252,1.593H174.1a.8.8,0,0,1-.8-.8V310.8a.8.8,0,0,1,.8-.8h18.049a.8.8,0,0,1,.8.8v4.891a.8.8,0,0,1-.8.8Z" transform="translate(-167.228 -298.402)" fill="#0071ce"/>
      <path id="路径_8301" data-name="路径 8301" d="M266.1,772.8h9.3v6.863h-9.3Z" transform="translate(-255.695 -737.52)" fill="#fff"/>
      <path id="路径_8302" data-name="路径 8302" d="M335.3,772.8h1.593v6.863H335.3Z" transform="translate(-321.148 -737.52)" fill="#333e48"/>
      <path id="路径_8303" data-name="路径 8303" d="M262.7,766.16H261.1v-6.066h-7.71v6.066H251.8V759.3a.8.8,0,0,1,.8-.8h9.3a.8.8,0,0,1,.8.8Z" transform="translate(-242.164 -724.016)" fill="#0071ce"/>
      <path id="路径_8304" data-name="路径 8304" d="M127.633,88.821h-7.5V86.364a1.067,1.067,0,0,0-1.064-1.064h-8.434a1.067,1.067,0,0,0-1.064,1.064v2.457h-7.5A1.067,1.067,0,0,0,101,89.885v4.15a1.067,1.067,0,0,0,1.064,1.064h25.569a1.067,1.067,0,0,0,1.064-1.064v-4.15A1.067,1.067,0,0,0,127.633,88.821Z" transform="translate(-98.956 -85.3)" fill="#ff5959"/>
      <path id="路径_8305" data-name="路径 8305" d="M299.576,119.572h-1.342v-1.343a.529.529,0,0,0-.529-.529h-1.4a.529.529,0,0,0-.529.529v1.343h-1.342a.529.529,0,0,0-.529.529v1.4a.529.529,0,0,0,.529.529h1.342v1.343a.529.529,0,0,0,.529.529h1.4a.529.529,0,0,0,.529-.529v-1.343h1.343a.529.529,0,0,0,.529-.529v-1.4A.521.521,0,0,0,299.576,119.572Z" transform="translate(-281.994 -115.895)" fill="#fff"/>
      <path id="路径_8306" data-name="路径 8306" d="M565.6,571.3h18.06v18.088H565.6Z" transform="translate(-540.692 -547.244)" fill="#d1d3d3"/>
      <path id="路径_8307" data-name="路径 8307" d="M619.7,662.4h12.032v4.891H619.7Z" transform="translate(-591.779 -632.526)" fill="#fff"/>
      <path id="路径_8308" data-name="路径 8308" d="M619.7,662.4h12.032v1.8H619.7Z" transform="translate(-591.779 -632.372)"/>
      <path id="路径_8309" data-name="路径 8309" d="M713.4,662.4h1.593v4.891H713.4Z" transform="translate(-679.502 -632.526)" fill="#333e48"/>
      <path id="路径_8310" data-name="路径 8310" d="M606.993,653.086h10.434v-3.3H606.993Zm11.236,1.6H606.2a.8.8,0,0,1-.8-.8V649a.8.8,0,0,1,.8-.8h12.033a.8.8,0,0,1,.8.8v4.891A.8.8,0,0,1,618.229,654.684Z" transform="translate(-578.275 -619.147)" fill="#0071ce"/>
      <path id="路径_8311" data-name="路径 8311" d="M565.6,515.4h19.035a1.068,1.068,0,0,1,1.064,1.064V518.5a1.068,1.068,0,0,1-1.064,1.064H565.6Z" transform="translate(-540.692 -493.107)" fill="#ff5959"/>
      <path id="路径_8312" data-name="路径 8312" d="M567.612,519.723v-4.258H565.6l0,22.607h2.011V522H583.66v-2.278Z" transform="translate(-540.693 -495.934)"/>
      <path id="路径_8313" data-name="路径 8313" d="M704.107,838.3a3.4,3.4,0,0,0-6.807,0Z" transform="translate(-664.51 -796.161)" fill="#218649"/>
    </g>
  </g>
</svg>
