<svg xmlns="http://www.w3.org/2000/svg" xmlns:xlink="http://www.w3.org/1999/xlink" width="327.782" height="68.818" viewBox="0 0 327.782 68.818">
  <defs>
    <filter id="椭圆_712" x="0" y="15.068" width="45" height="45" filterUnits="userSpaceOnUse">
      <feOffset dy="3" input="SourceAlpha"/>
      <feGaussianBlur stdDeviation="2.5" result="blur"/>
      <feFlood flood-opacity="0.078"/>
      <feComposite operator="in" in2="blur"/>
      <feComposite in="SourceGraphic"/>
    </filter>
    <linearGradient id="linear-gradient" x1="0.637" y1="1" x2="0.632" y2="0.221" gradientUnits="objectBoundingBox">
      <stop offset="0" stop-color="#509ce8"/>
      <stop offset="1" stop-color="#0f71d5"/>
    </linearGradient>
    <filter id="路径_9647" x="277.967" y="18.117" width="37.519" height="46.518" filterUnits="userSpaceOnUse">
      <feOffset dy="3" input="SourceAlpha"/>
      <feGaussianBlur stdDeviation="2" result="blur-2"/>
      <feFlood flood-color="#333" flood-opacity="0.078"/>
      <feComposite operator="in" in2="blur-2"/>
      <feComposite in="SourceGraphic"/>
    </filter>
    <filter id="路径_9648" x="296.843" y="17.646" width="30.938" height="43.481" filterUnits="userSpaceOnUse">
      <feOffset dy="3" input="SourceAlpha"/>
      <feGaussianBlur stdDeviation="2" result="blur-3"/>
      <feFlood flood-color="#333" flood-opacity="0.078"/>
      <feComposite operator="in" in2="blur-3"/>
      <feComposite in="SourceGraphic"/>
    </filter>
    <filter id="路径_9649" x="295.457" y="4.718" width="17.277" height="23.289" filterUnits="userSpaceOnUse">
      <feOffset dy="3" input="SourceAlpha"/>
      <feGaussianBlur stdDeviation="2" result="blur-4"/>
      <feFlood flood-color="#333" flood-opacity="0.078"/>
      <feComposite operator="in" in2="blur-4"/>
      <feComposite in="SourceGraphic"/>
    </filter>
    <filter id="路径_9650" x="263.966" y="25.527" width="32.044" height="39.78" filterUnits="userSpaceOnUse">
      <feOffset dy="3" input="SourceAlpha"/>
      <feGaussianBlur stdDeviation="2" result="blur-5"/>
      <feFlood flood-color="#333" flood-opacity="0.078"/>
      <feComposite operator="in" in2="blur-5"/>
      <feComposite in="SourceGraphic"/>
    </filter>
    <filter id="路径_9651" x="289.182" y="13.652" width="20.741" height="20.04" filterUnits="userSpaceOnUse">
      <feOffset dy="3" input="SourceAlpha"/>
      <feGaussianBlur stdDeviation="2" result="blur-6"/>
      <feFlood flood-color="#333" flood-opacity="0.078"/>
      <feComposite operator="in" in2="blur-6"/>
      <feComposite in="SourceGraphic"/>
    </filter>
    <filter id="路径_9653" x="284.188" y="5.474" width="24.955" height="24.617" filterUnits="userSpaceOnUse">
      <feOffset dy="3" input="SourceAlpha"/>
      <feGaussianBlur stdDeviation="2" result="blur-7"/>
      <feFlood flood-color="#333" flood-opacity="0.078"/>
      <feComposite operator="in" in2="blur-7"/>
      <feComposite in="SourceGraphic"/>
    </filter>
    <filter id="路径_9657" x="284.409" y="0" width="28.325" height="17.792" filterUnits="userSpaceOnUse">
      <feOffset dy="3" input="SourceAlpha"/>
      <feGaussianBlur stdDeviation="2" result="blur-8"/>
      <feFlood flood-color="#333" flood-opacity="0.078"/>
      <feComposite operator="in" in2="blur-8"/>
      <feComposite in="SourceGraphic"/>
    </filter>
    <filter id="路径_9662" x="253.267" y="17.705" width="33.18" height="22.114" filterUnits="userSpaceOnUse">
      <feOffset dy="3" input="SourceAlpha"/>
      <feGaussianBlur stdDeviation="2" result="blur-9"/>
      <feFlood flood-color="#333" flood-opacity="0.078"/>
      <feComposite operator="in" in2="blur-9"/>
      <feComposite in="SourceGraphic"/>
    </filter>
    <linearGradient id="linear-gradient-2" x1="0.524" y1="0.869" x2="0.536" y2="0.167" gradientUnits="objectBoundingBox">
      <stop offset="0" stop-color="#509ce8"/>
      <stop offset="1" stop-color="#1071d4"/>
    </linearGradient>
    <filter id="路径_9673" x="277.469" y="39.778" width="46.232" height="29.04" filterUnits="userSpaceOnUse">
      <feOffset dy="3" input="SourceAlpha"/>
      <feGaussianBlur stdDeviation="2" result="blur-10"/>
      <feFlood flood-color="#333" flood-opacity="0.078"/>
      <feComposite operator="in" in2="blur-10"/>
      <feComposite in="SourceGraphic"/>
    </filter>
    <filter id="Find_a_doctor" x="54.5" y="22" width="104" height="31" filterUnits="userSpaceOnUse">
      <feOffset dy="3" input="SourceAlpha"/>
      <feGaussianBlur stdDeviation="2" result="blur-11"/>
      <feFlood flood-opacity="0.078"/>
      <feComposite operator="in" in2="blur-11"/>
      <feComposite in="SourceGraphic"/>
    </filter>
  </defs>
  <g id="组_10563" data-name="组 10563" transform="translate(-22.5 -107.591)">
    <g transform="matrix(1, 0, 0, 1, 22.5, 107.59)" filter="url(#椭圆_712)">
      <circle id="椭圆_712-2" data-name="椭圆 712" cx="15" cy="15" r="15" transform="translate(7.5 19.57)" fill="#2988e6"/>
    </g>
    <path id="联合_1" data-name="联合 1" d="M2779.718,34a4,4,0,0,1-4-4V21.594l-5.3-3.276a1,1,0,0,1,0-1.7l5.3-3.276V4a4,4,0,0,1,4-4h265a4,4,0,0,1,4,4V30a4,4,0,0,1-4,4Z" transform="translate(-2704.94 125.592)" fill="#e6effc"/>
    <g id="DrawKit_Vector_Illustrations_COVID-19_Vaccinations_6_" data-name="DrawKit Vector Illustrations COVID-19 &amp; Vaccinations (6)" transform="translate(238.116 -6.739)">
      <g transform="matrix(1, 0, 0, 1, -215.62, 114.33)" filter="url(#路径_9647)">
        <path id="路径_9647-2" data-name="路径 9647" d="M433.009,366.07l-18.694,2.622a6.8,6.8,0,0,0-5.95,6.417l-.875,25.479h15.417l3.548-12.729Z" transform="translate(-123.52 -344.95)" fill="url(#linear-gradient)"/>
      </g>
      <g transform="matrix(1, 0, 0, 1, -215.62, 114.33)" filter="url(#路径_9648)">
        <path id="路径_9648-2" data-name="路径 9648" d="M676.459,359.637l-3.155.443-6.555,21.785a8.134,8.134,0,0,0,4.1,8.442,8.265,8.265,0,0,0,10.656-3.513c.556-1.913,1.291-4.495,2.127-7.564,1.5-5.522,1.791-6.985,1.881-8.836.159-3.277.283-6.066-1.586-8.23C681.558,359.4,677.46,359.569,676.459,359.637Z" transform="translate(-363.82 -338.96)" fill="#1071d4"/>
      </g>
      <g transform="matrix(1, 0, 0, 1, -215.62, 114.33)" filter="url(#路径_9649)">
        <path id="路径_9649-2" data-name="路径 9649" d="M648.968,193.4H647.63V182.11h5.277v7.348a3.937,3.937,0,0,1-3.939,3.941Z" transform="translate(-346.17 -174.39)" fill="#bd4632"/>
      </g>
      <g transform="matrix(1, 0, 0, 1, -215.62, 114.33)" filter="url(#路径_9650)">
        <path id="路径_9650-2" data-name="路径 9650" d="M231.067,494.577l-1.705.626a6.453,6.453,0,0,1-8.282-3.833l-5.5-14.988a5.317,5.317,0,0,1,3.159-6.825l3.834-1.408a5.317,5.317,0,0,1,6.825,3.159l5.5,14.988a6.453,6.453,0,0,1-3.83,8.282Z" transform="translate(54.72 -439.29)" fill="#2988e6"/>
      </g>
      <g transform="matrix(1, 0, 0, 1, -215.62, 114.33)" filter="url(#路径_9651)">
        <path id="路径_9651-2" data-name="路径 9651" d="M570.211,311.085a9.644,9.644,0,0,1-4.644,1.691,9.4,9.4,0,0,1-2.83-.191q-.634-3.158-1.268-6.316l7.474-1.5Z" transform="translate(-266.29 -288.12)" fill="#fcd2b3"/>
      </g>
      <path id="路径_9652" data-name="路径 9652" d="M567.94,345.873l4.455-.917a.177.177,0,0,1,.133.32l-4.156,2.753Z" transform="translate(-487.903 -211.045)" fill="#f2caac"/>
      <g transform="matrix(1, 0, 0, 1, -215.62, 114.33)" filter="url(#路径_9653)">
        <path id="路径_9653-2" data-name="路径 9653" d="M505.179,192.49l-3.419.065-4.556.086-2.279.044-1.139.021a1.951,1.951,0,0,0-.594.011c-.143.06-.093.248-.1.412-.044,1.936-.115,3.875-.161,5.813l-.033,3.8v.028a2.258,2.258,0,0,0,2.7,2.3l3.569-.715,6.684-1.379Q505.519,197.73,505.179,192.49Z" transform="translate(-202.71 -184.02)" fill="#fcd2b3"/>
      </g>
      <path id="路径_9654" data-name="路径 9654" d="M597.992,220.666a.182.182,0,0,1-.073-.349l3.685-1.6a.182.182,0,0,1,.145.334l-3.685,1.6A.182.182,0,0,1,597.992,220.666Z" transform="translate(-515.597 -93.986)" fill="#3b1534"/>
      <path id="路径_9655" data-name="路径 9655" d="M615,269.3a.182.182,0,0,1-.119-.32l3.082-2.669a.182.182,0,1,1,.238.275l-3.082,2.669A.181.181,0,0,1,615,269.3Z" transform="translate(-531.369 -138.092)" fill="#3b1534"/>
      <path id="路径_9656" data-name="路径 9656" d="M612.573,183.5h-2.534A2.039,2.039,0,0,1,608,181.458V180.21h4.572Z" transform="translate(-525.045 -58.3)" fill="#bd4632"/>
      <circle id="椭圆_713" data-name="椭圆 713" cx="1.941" cy="1.941" r="1.941" transform="translate(85.423 124.573)" fill="#f2caac"/>
      <g transform="matrix(1, 0, 0, 1, -215.62, 114.33)" filter="url(#路径_9657)">
        <path id="路径_9657-2" data-name="路径 9657" d="M512.265,123.122H495.94V121.8a4.467,4.467,0,0,1,4.467-4.467H507.8a4.467,4.467,0,0,1,4.467,4.467Z" transform="translate(-205.53 -114.33)" fill="#77c8d6"/>
      </g>
      <g id="组_10504" data-name="组 10504" transform="translate(86.598 125.749)">
        <path id="椭圆_714" data-name="椭圆 714" d="M-1.858-2.5a.638.638,0,0,1,.454.188.638.638,0,0,1,.188.454A.638.638,0,0,1-1.4-1.4a.638.638,0,0,1-.454.188A.638.638,0,0,1-2.312-1.4.638.638,0,0,1-2.5-1.858a.638.638,0,0,1,.188-.454A.638.638,0,0,1-1.858-2.5Zm0,1.021a.38.38,0,0,0,.379-.379.38.38,0,0,0-.379-.379.38.38,0,0,0-.379.379A.38.38,0,0,0-1.858-1.479Z" transform="translate(2.5 2.973)" fill="#3b1534"/>
        <path id="路径_9658" data-name="路径 9658" d="M655.221,226.519a.132.132,0,0,1-.128-.163.89.89,0,0,1,.275-.447,1.474,1.474,0,0,1,.4-.254,2.222,2.222,0,0,1,.523-.154.131.131,0,1,1,.037.26,1.99,1.99,0,0,0-.46.137,1.207,1.207,0,0,0-.329.207.633.633,0,0,0-.195.314A.131.131,0,0,1,655.221,226.519Z" transform="translate(-655.034 -225.5)" fill="#3b1534"/>
      </g>
      <path id="直线_1382" data-name="直线 1382" d="M-2.318,8.194a.182.182,0,0,1-.053-.008.182.182,0,0,1-.122-.227L.621-2.371a.182.182,0,0,1,.227-.122.182.182,0,0,1,.122.227L-2.144,8.065A.182.182,0,0,1-2.318,8.194Z" transform="translate(89.635 149.22)" fill="#3b1534"/>
      <path id="路径_9659" data-name="路径 9659" d="M554.6,398.325a5.769,5.769,0,0,1-2.093-.379h0a5.66,5.66,0,0,1-1.088-.571,6.385,6.385,0,0,1-1.278-1.148.182.182,0,0,1,.277-.237,6.027,6.027,0,0,0,1.2,1.083,5.214,5.214,0,0,0,1.017.534,5.426,5.426,0,0,0,2.036.354,7.082,7.082,0,0,0,2.184-.392,9.456,9.456,0,0,0,2.188-1.092,11.791,11.791,0,0,0,2.044-1.739.182.182,0,0,1,.265.25,12.161,12.161,0,0,1-2.108,1.792,9.815,9.815,0,0,1-2.273,1.133,7.441,7.441,0,0,1-2.3.412Z" transform="translate(-471.362 -257.15)" fill="#3b1534"/>
      <path id="路径_9660" data-name="路径 9660" d="M260.4,497.644a.182.182,0,0,1-.152-.081,3.609,3.609,0,0,1-.54-1.466,6.047,6.047,0,0,1-.031-1.464,7.833,7.833,0,0,1,.31-1.589.182.182,0,0,1,.346.114h0a7.614,7.614,0,0,0-.294,1.516,5.676,5.676,0,0,0,.029,1.372,3.247,3.247,0,0,0,.482,1.315.182.182,0,0,1-.151.283Z" transform="translate(-202.066 -348.234)" fill="#3b1534"/>
      <path id="路径_9661" data-name="路径 9661" d="M301.489,490.3h-.019a.182.182,0,0,1-.162-.2,6.554,6.554,0,0,0-1.067-4.314.182.182,0,1,1,.3-.2,6.919,6.919,0,0,1,1.126,4.553A.182.182,0,0,1,301.489,490.3Z" transform="translate(-239.672 -341.355)" fill="#3b1534"/>
      <path id="直线_1391" data-name="直线 1391" d="M-2.318,3.948l-.024,0a.182.182,0,0,1-.157-.2L-1.7-2.342A.182.182,0,0,1-1.5-2.5a.182.182,0,0,1,.157.2L-2.138,3.79A.182.182,0,0,1-2.318,3.948Z" transform="translate(72.427 146.97)" fill="#3b1534"/>
      <g transform="matrix(1, 0, 0, 1, -215.62, 114.33)" filter="url(#路径_9662)">
        <path id="路径_9662-2" data-name="路径 9662" d="M83.863,360.453c-.255-.013-.51-.015-.765-.015l-12.78-.016c-.538,0-1.517-.038-1.838.5a1.31,1.31,0,0,0,.524,1.641,3.512,3.512,0,0,0,1.826.372l2.487.052c-.163.622.437,1.216,1.068,1.352a7.644,7.644,0,0,0,1.919-.049,2.93,2.93,0,0,1,2.217.752,15.017,15.017,0,0,1,1.688,2.476c.325.5.655,1.005.983,1.507a12.565,12.565,0,0,0,.984,1.51l7.356-1.811a17.229,17.229,0,0,0-2.747-6.651,4.169,4.169,0,0,0-1.578-1.344A3.838,3.838,0,0,0,83.863,360.453Z" transform="translate(190.91 -339.72)" fill="#f8ceb0"/>
      </g>
      <path id="矩形_19722" data-name="矩形 19722" d="M-2.5-2.5H-.563V.653H-2.5Zm1.573.364H-2.136V.289H-.927Z" transform="translate(65.821 141.066)" fill="#3b1534"/>
      <path id="路径_9663" data-name="路径 9663" d="M325.024,446.143a.913.913,0,0,0-.913-.913h-2.729a.913.913,0,0,0-.913.913v1.339h4.554Z" transform="translate(-258.457 -304.018)" fill="#ffb6db"/>
      <rect id="矩形_19723" data-name="矩形 19723" width="4.551" height="10.349" transform="translate(62.014 143.464)" fill="#fff"/>
      <path id="直线_1392" data-name="直线 1392" d="M-.266-2.136H-2.318A.182.182,0,0,1-2.5-2.318.182.182,0,0,1-2.318-2.5H-.266a.182.182,0,0,1,.182.182A.182.182,0,0,1-.266-2.136Z" transform="translate(66.832 146.981)" fill="#f2eada"/>
      <path id="直线_1393" data-name="直线 1393" d="M-.266-2.136H-2.318A.182.182,0,0,1-2.5-2.318.182.182,0,0,1-2.318-2.5H-.266a.182.182,0,0,1,.182.182A.182.182,0,0,1-.266-2.136Z" transform="translate(66.832 148.568)" fill="#f2eada"/>
      <path id="直线_1394" data-name="直线 1394" d="M-.266-2.136H-2.318A.182.182,0,0,1-2.5-2.318.182.182,0,0,1-2.318-2.5H-.266a.182.182,0,0,1,.182.182A.182.182,0,0,1-.266-2.136Z" transform="translate(66.832 150.26)" fill="#f2eada"/>
      <path id="直线_1395" data-name="直线 1395" d="M-2.318,1.472A.182.182,0,0,1-2.5,1.29V-2.318A.182.182,0,0,1-2.318-2.5a.182.182,0,0,1,.182.182V1.29A.182.182,0,0,1-2.318,1.472Z" transform="translate(66.608 137.459)" fill="#3b1534"/>
      <path id="路径_9664" data-name="路径 9664" d="M335.094,284.749a.134.134,0,0,0,.026-.025.123.123,0,0,0,.02-.039,7.49,7.49,0,0,0,.2-2.013,3.015,3.015,0,0,0-.283-1.468.575.575,0,0,0-.287-.273c-.39-.159-.633.355-.685.656a4.42,4.42,0,0,0,.413,2.322C334.541,284.02,334.9,284.87,335.094,284.749Z" transform="translate(-271.046 -151.658)" fill="#77c8d6"/>
      <path id="路径_9665" data-name="路径 9665" d="M356.73,307.626a.086.086,0,0,0,.036,0,.145.145,0,0,0,.042-.015,7.509,7.509,0,0,0,1.524-1.33,3.081,3.081,0,0,0,.8-1.264.583.583,0,0,0-.023-.4c-.176-.383-.7-.174-.947.011a4.408,4.408,0,0,0-1.289,1.975C356.824,306.717,356.51,307.582,356.73,307.626Z" transform="translate(-292.004 -173.452)" fill="#77c8d6"/>
      <path id="路径_9667" data-name="路径 9667" d="M407.281,581.723a.182.182,0,0,1-.166-.257,8.767,8.767,0,0,0,.78-3.692.182.182,0,0,1,.181-.184h0a.182.182,0,0,1,.182.18,9.134,9.134,0,0,1-.812,3.846A.182.182,0,0,1,407.281,581.723Z" transform="translate(-338.777 -426.738)" fill="#3b1534"/>
      <path id="路径_9668" data-name="路径 9668" d="M435.068,608.567l-.241-.273,0,0a1.648,1.648,0,0,0,.3-.493,4.883,4.883,0,0,0,.252-.75,9.147,9.147,0,0,0,.215-1.2.182.182,0,0,1,.362.042,9.4,9.4,0,0,1-.233,1.287,5.084,5.084,0,0,1-.281.813A1.781,1.781,0,0,1,435.068,608.567Z" transform="translate(-364.483 -452.791)" fill="#3b1534"/>
      <path id="路径_9669" data-name="路径 9669" d="M443.232,651.048a.182.182,0,0,1-.118-.321,3.034,3.034,0,0,0,.987-1.589.182.182,0,1,1,.354.087,3.4,3.4,0,0,1-1.106,1.78A.182.182,0,0,1,443.232,651.048Z" transform="translate(-372.109 -492.946)" fill="#3b1534"/>
      <path id="路径_9670" data-name="路径 9670" d="M200.9,224.071a2.622,2.622,0,0,0-2.876.011L198,226.52h2.974Q200.936,225.3,200.9,224.071Z" transform="translate(-144.907 -98.573)" fill="#77c8d6"/>
      <path id="椭圆_733" data-name="椭圆 733" d="M-.922-2.5a3.349,3.349,0,0,1,1.046.15,1.165,1.165,0,0,1,.355.183.418.418,0,0,1,.177.328.418.418,0,0,1-.177.328,1.165,1.165,0,0,1-.355.183,3.349,3.349,0,0,1-1.046.15,3.349,3.349,0,0,1-1.046-.15,1.165,1.165,0,0,1-.355-.183A.418.418,0,0,1-2.5-1.839a.418.418,0,0,1,.177-.328,1.165,1.165,0,0,1,.355-.183A3.349,3.349,0,0,1-.922-2.5Zm1.213.661c-.011-.023-.086-.1-.326-.18a3.086,3.086,0,0,0-.887-.117,3.086,3.086,0,0,0-.887.117c-.24.075-.316.156-.326.18.011.023.086.1.326.18a3.086,3.086,0,0,0,.887.117A3.086,3.086,0,0,0-.035-1.66C.206-1.735.281-1.816.292-1.839Z" transform="translate(55.485 127.394)" fill="#3b1534"/>
      <path id="直线_1396" data-name="直线 1396" d="M-2.318-.335A.182.182,0,0,1-2.5-.517v-1.8A.182.182,0,0,1-2.318-2.5a.182.182,0,0,1,.182.182v1.8A.182.182,0,0,1-2.318-.335Z" transform="translate(57.319 128.463)" fill="#3b1534"/>
      <path id="直线_1397" data-name="直线 1397" d="M-2.318-.335A.182.182,0,0,1-2.5-.517v-1.8A.182.182,0,0,1-2.318-2.5a.182.182,0,0,1,.182.182v1.8A.182.182,0,0,1-2.318-.335Z" transform="translate(56.325 128.408)" fill="#3b1534"/>
      <rect id="矩形_19724" data-name="矩形 19724" width="5.669" height="8.183" rx="1" transform="translate(51.729 127.946)" fill="#f2eada"/>
      <path id="路径_9671" data-name="路径 9671" d="M184.441,292.983H180.93V288.09h3.511a.313.313,0,0,1,.313.314v4.268A.313.313,0,0,1,184.441,292.983Z" transform="translate(-129.08 -158.323)" fill="#ffb6db"/>
      <path id="路径_9672" data-name="路径 9672" d="M134.212,376.8H134.2a.182.182,0,0,1-.174-.19,1.3,1.3,0,0,1,.639-1.1,2.664,2.664,0,0,1,1.192-.34c.744-.06,1.51-.052,2.252-.044.36,0,.732.008,1.093,0a.182.182,0,1,1,0,.364c-.365,0-.739,0-1.1,0-.733-.008-1.491-.016-2.219.043a2.314,2.314,0,0,0-1.03.287.932.932,0,0,0-.467.8A.182.182,0,0,1,134.212,376.8Z" transform="translate(-85.596 -239.017)" fill="#3b1534"/>
      <path id="直线_1398" data-name="直线 1398" d="M11.731-2.136H-2.318A.182.182,0,0,1-2.5-2.318.182.182,0,0,1-2.318-2.5H11.731a.182.182,0,0,1,.182.182A.182.182,0,0,1,11.731-2.136Z" transform="translate(78.21 123.617)" fill="#f2eada"/>
      <path id="路径_9678" data-name="路径 9678" d="M500.483,241.3l-7.749,2.9c-.026,1.08-.043,2.159-.043,3.238a4.075,4.075,0,0,0,.186,1.633,2.247,2.247,0,0,0,1,1.058c.916.505,1.935.129,2.878-.066l.9-.185.607-.125.342-.073c.068-.014.327-.025.369-.073l2.912-3.535Z" transform="translate(-418.129 -114.941)" fill="#f2eada"/>
      <path id="直线_1399" data-name="直线 1399" d="M-2.319.011A.182.182,0,0,1-2.49-.11a.182.182,0,0,1,.11-.233L3.633-2.49a.182.182,0,0,1,.233.11.182.182,0,0,1-.11.233L-2.257,0A.182.182,0,0,1-2.319.011Z" transform="translate(76.89 131.153)" fill="#77c8d6"/>
      <path id="直线_1400" data-name="直线 1400" d="M-2.319-.379A.182.182,0,0,1-2.49-.5a.182.182,0,0,1,.111-.232L2.615-2.49a.182.182,0,0,1,.232.111.182.182,0,0,1-.111.232L-2.258-.389A.182.182,0,0,1-2.319-.379Z" transform="translate(76.89 133.614)" fill="#77c8d6"/>
      <g id="组_10392" data-name="组 10392" transform="translate(59.627 141.999)">
        <path id="路径_9666" data-name="路径 9666" d="M5.756,12.358S4.269,11.845,3.2,14.9c0,0-.528,3.037-2.167,2.823,0,0-1.436-.347-.927-2.6l.579-1.987a5.858,5.858,0,0,0,.295-1.1s.151-5.853.1-5.951c.345-4.706-.4,1.1.449-.638L2.708,3.631c.4-.833,1.03-1.091,1.674-1.753A6.361,6.361,0,0,1,5.622.658C7.053-.215,6.5-.027,7.427.148l4.181,3.639,1.508,1.866,1.158,1.009c.3.361.741.644.77,1.182l.125.51a4.212,4.212,0,0,1-.144.576,4.741,4.741,0,0,1-.431.856c-.517.844-.846,1.192-1.175,1.3A3.181,3.181,0,0,1,12.3,13.219a3.027,3.027,0,0,1-1.545.642c-.011.353-.05,2.042-.079,2.662-.157,3.309-.373,4.021-.9,4.5a1.84,1.84,0,0,1-1.174.517,1.487,1.487,0,0,1-.949-.283c-.422-.347-.467-1.084-.494-2.548-.035-1.915.009-2.062-.019-2.563C7.1,15.376,6.733,12.609,5.756,12.358Z" transform="matrix(-1, 0.017, -0.017, -1, 15.542, 21.535)" fill="#f8ceb0"/>
        <path id="路径_9667-2" data-name="路径 9667" d="M408.4,583.1a.243.243,0,0,0,.221-.343,11.7,11.7,0,0,1-1.04-4.926.243.243,0,0,0-.241-.245h0a.243.243,0,0,0-.243.241,12.182,12.182,0,0,0,1.084,5.13A.243.243,0,0,0,408.4,583.1Z" transform="translate(-402.75 -571.138)" fill="#3b1434"/>
        <path id="路径_9668-2" data-name="路径 9668" d="M436,608.916l.322-.306,0,0a1.845,1.845,0,0,1-.394-.553,4.905,4.905,0,0,1-.336-.841,8.787,8.787,0,0,1-.287-1.348.237.237,0,0,0-.269-.179.215.215,0,0,0-.213.226,9.024,9.024,0,0,0,.311,1.443,5.111,5.111,0,0,0,.375.912A2.022,2.022,0,0,0,436,608.916Z" transform="translate(-433.122 -595.031)" fill="#3b1434"/>
        <path id="路径_9669-2" data-name="路径 9669" d="M445.041,652.2a.273.273,0,0,0,.213-.1.3.3,0,0,0-.033-.407l-.9-.885-.147-.211a4.935,4.935,0,0,1-.676-1.334.277.277,0,0,0-.337-.211.289.289,0,0,0-.2.349,3.738,3.738,0,0,0,.743,1.5,9.16,9.16,0,0,0,1.157,1.233A.271.271,0,0,0,445.041,652.2Z" transform="translate(-442.768 -635.85)" fill="#3b1434"/>
      </g>
      <g transform="matrix(1, 0, 0, 1, -215.62, 114.33)" filter="url(#路径_9673)">
        <path id="路径_9673-2" data-name="路径 9673" d="M415,679.708l-11.2-3.771a4.634,4.634,0,0,1-1.994-7.461l3.028-3.423a4.635,4.635,0,0,1,3.744-1.557l21.577-.015a4.72,4.72,0,0,1,4.6,5.779h0A15.408,15.408,0,0,1,415,679.708Z" transform="translate(-117.18 -620.7)" fill="url(#linear-gradient-2)"/>
      </g>
      <path id="路径_9674" data-name="路径 9674" d="M430.27,722.576l-.028,0a6.548,6.548,0,0,1-4.72-3.273.182.182,0,0,1,.318-.178,6.184,6.184,0,0,0,4.457,3.091.182.182,0,0,1-.027.362Z" transform="translate(-355.837 -557.876)" fill="#3b1534"/>
      <path id="路径_9675" data-name="路径 9675" d="M453.57,695.369a.181.181,0,0,1-.136-.061,7.085,7.085,0,0,0-4.444-2.336.182.182,0,0,1,.044-.361,7.453,7.453,0,0,1,4.672,2.456.182.182,0,0,1-.136.3Z" transform="translate(-377.468 -533.38)" fill="#3b1534"/>
      <path id="路径_9676" data-name="路径 9676" d="M472.072,662.012a.182.182,0,0,1-.132-.308,2.005,2.005,0,0,1,1.174-.592,6.039,6.039,0,0,1,1.264-.028l.056,0c1.119.053,2.253.09,3.373.11.882.015,1.765.021,2.628.021,1.376,0,2.7-.015,3.9-.032l10.182-.146h0a.182.182,0,0,1,0,.364l-10.182.146c-1.2.017-2.524.032-3.9.032-.866,0-1.751-.006-2.635-.021-1.123-.02-2.262-.057-3.384-.11l-.056,0a5.771,5.771,0,0,0-1.187.024,1.916,1.916,0,0,0-.52.158,1.5,1.5,0,0,0-.449.327A.182.182,0,0,1,472.072,662.012Z" transform="translate(-398.849 -504.11)" fill="#3b1534"/>
      <path id="路径_9677" data-name="路径 9677" d="M403.921,742.2a.181.181,0,0,1-.058-.009l-4.8-1.616a4.944,4.944,0,0,1-2.275-1.4,4.5,4.5,0,0,1-1.142-2.331,4.3,4.3,0,0,1,.012-1.429,4.76,4.76,0,0,1,.361-1.149,5.059,5.059,0,0,1,.762-1.2.182.182,0,0,1,.274.24,4.676,4.676,0,0,0-.7,1.107,4.395,4.395,0,0,0-.334,1.061,3.937,3.937,0,0,0-.012,1.308,4.133,4.133,0,0,0,1.051,2.142,4.581,4.581,0,0,0,2.111,1.3h.008l4.8,1.617a.182.182,0,0,1-.058.355Z" transform="translate(-328.109 -570.838)" fill="#3b1534"/>
    </g>
    <g transform="matrix(1, 0, 0, 1, 22.5, 107.59)" filter="url(#Find_a_doctor)">
      <text id="Find_a_doctor-2" data-name="Find a doctor" transform="translate(60.5 40)" fill="#2988e6" font-size="14" font-family="SegoeUI-Bold, Segoe UI" font-weight="700"><tspan x="0" y="0">Find A Doctor</tspan></text>
    </g>
    <g id="组_10284" data-name="组 10284" transform="translate(5 -117.84)">
      <g id="椭圆_665" data-name="椭圆 665" transform="translate(33 253)" fill="none" stroke="#fff" stroke-width="1.5">
        <ellipse cx="6.748" cy="6.748" rx="6.748" ry="6.748" stroke="none"/>
        <ellipse cx="6.748" cy="6.748" rx="5.998" ry="5.998" fill="none"/>
      </g>
      <path id="路径_9548" data-name="路径 9548" d="M3932.214,265.438l2.248,2.248" transform="translate(-3887.462 -0.685)" fill="none" stroke="#fff" stroke-linecap="round" stroke-width="1.5"/>
    </g>
  </g>
</svg>
