<svg id="组件_81_139" data-name="组件 81 – 139" xmlns="http://www.w3.org/2000/svg" width="20" height="20" viewBox="0 0 20 20">
  <g id="矩形_17986" data-name="矩形 17986" fill="#fff" stroke="#000" stroke-width="1">
    <rect width="20" height="20" rx="1" stroke="none"/>
    <rect x="0.5" y="0.5" width="19" height="19" rx="0.5" fill="none"/>
  </g>
  <path id="Icon_ionic-ios-checkmark" data-name="Icon ionic-ios-checkmark" d="M26.655,13.668,25.322,12.3a.287.287,0,0,0-.212-.091h0a.275.275,0,0,0-.212.091L15.659,21.6,12.3,18.242a.293.293,0,0,0-.424,0l-1.348,1.348a.3.3,0,0,0,0,.432l4.241,4.241a1.341,1.341,0,0,0,.886.432,1.405,1.405,0,0,0,.878-.416h.008L26.662,14.1A.324.324,0,0,0,26.655,13.668Z" transform="translate(-8.588 -8.45)" fill="#2988e6"/>
</svg>
