<svg xmlns="http://www.w3.org/2000/svg" width="239.833" height="141.421" viewBox="0 0 239.833 141.421">
  <g id="组_102" data-name="组 102" transform="translate(10.78 30.335)">
    <g id="Background_Complete" data-name="Background Complete" transform="translate(-8.079 -29.835)">
      <g id="组_2" data-name="组 2" transform="translate(22.597)">
        <rect id="矩形_8" data-name="矩形 8" width="46.267" height="31.537" fill="none" stroke="#ebebeb" stroke-miterlimit="10" stroke-width="1"/>
        <g id="组_1" data-name="组 1" transform="translate(1.606 0.943)">
          <path id="路径_3" data-name="路径 3" d="M124.276,65.654a.928.928,0,1,1-.928-.928A.928.928,0,0,1,124.276,65.654Z" transform="translate(-122.42 -64.726)" fill="#a6a6a6"/>
          <path id="路径_4" data-name="路径 4" d="M134.568,65.654a.928.928,0,1,1-.928-.928A.928.928,0,0,1,134.568,65.654Z" transform="translate(-128.922 -64.726)" fill="#ebebeb"/>
          <path id="路径_5" data-name="路径 5" d="M144.861,65.654a.928.928,0,1,1-.928-.928A.928.928,0,0,1,144.861,65.654Z" transform="translate(-135.425 -64.726)" fill="#ffc727"/>
        </g>
        <line id="直线_2" data-name="直线 2" x2="46.267" transform="translate(0 3.69)" fill="none" stroke="#ebebeb" stroke-miterlimit="10" stroke-width="1"/>
      </g>
      <g id="组_15" data-name="组 15" transform="translate(1.072 28.672)">
        <g id="组_8" data-name="组 8" transform="translate(204.477)">
          <g id="组_3" data-name="组 3" transform="translate(15.885)">
            <path id="路径_6" data-name="路径 6" d="M658.011,229.609V183.333l9.844-13.435V144.734" transform="translate(-658.011 -143)" fill="none" stroke="#ebebeb" stroke-miterlimit="10" stroke-width="1"/>
            <path id="路径_7" data-name="路径 7" d="M682.367,140.9a.875.875,0,1,0,.875-.875A.874.874,0,0,0,682.367,140.9Z" transform="translate(-673.398 -140.025)" fill="none" stroke="#ebebeb" stroke-miterlimit="10" stroke-width="1"/>
          </g>
          <g id="组_4" data-name="组 4" transform="translate(18.42 9.205)">
            <path id="路径_8" data-name="路径 8" d="M664.9,245.4V200.748l9.844-13.435V169.731" transform="translate(-664.896 -167.997)" fill="none" stroke="#ebebeb" stroke-miterlimit="10" stroke-width="1"/>
            <path id="路径_9" data-name="路径 9" d="M689.251,165.9a.875.875,0,1,0,.875-.875A.875.875,0,0,0,689.251,165.9Z" transform="translate(-680.282 -165.022)" fill="none" stroke="#ebebeb" stroke-miterlimit="10" stroke-width="1"/>
          </g>
          <g id="组_5" data-name="组 5" transform="translate(12.568 23.579)">
            <line id="直线_3" data-name="直线 3" y1="61.281" transform="translate(0.875 1.749)" fill="none" stroke="#ebebeb" stroke-miterlimit="10" stroke-width="1"/>
            <path id="路径_10" data-name="路径 10" d="M649,204.929a.875.875,0,1,0,.875-.875A.874.874,0,0,0,649,204.929Z" transform="translate(-649.003 -204.054)" fill="none" stroke="#ebebeb" stroke-miterlimit="10" stroke-width="1"/>
          </g>
          <g id="组_6" data-name="组 6" transform="translate(3.534 18.512)">
            <path id="路径_11" data-name="路径 11" d="M633.528,261.393V230.249l-6.683-12.605v-22.6" transform="translate(-625.97 -193.297)" fill="none" stroke="#ebebeb" stroke-miterlimit="10" stroke-width="1"/>
            <path id="路径_12" data-name="路径 12" d="M624.47,191.171a.875.875,0,1,0,.875-.875A.874.874,0,0,0,624.47,191.171Z" transform="translate(-624.47 -190.296)" fill="none" stroke="#ebebeb" stroke-miterlimit="10" stroke-width="1"/>
          </g>
          <g id="组_7" data-name="组 7" transform="translate(0 26.244)">
            <path id="路径_13" data-name="路径 13" d="M625.128,274.656v-29.8l-7.879-13.935V216.041" transform="translate(-616.374 -214.292)" fill="none" stroke="#ebebeb" stroke-miterlimit="10" stroke-width="1"/>
            <path id="路径_14" data-name="路径 14" d="M614.874,212.166a.875.875,0,1,0,.875-.875A.875.875,0,0,0,614.874,212.166Z" transform="translate(-614.874 -211.291)" fill="none" stroke="#ebebeb" stroke-miterlimit="10" stroke-width="1"/>
          </g>
        </g>
        <g id="组_14" data-name="组 14" transform="translate(0 29.56)">
          <g id="组_9" data-name="组 9" transform="translate(2.535 3.583)">
            <path id="路径_15" data-name="路径 15" d="M78.711,286.466v-24.18l-9.844-13.435V234.734" transform="translate(-67.993 -233)" fill="none" stroke="#ebebeb" stroke-miterlimit="10" stroke-width="1"/>
            <path id="路径_16" data-name="路径 16" d="M68.241,230.9a.875.875,0,1,1-.875-.875A.874.874,0,0,1,68.241,230.9Z" transform="translate(-66.492 -230.025)" fill="none" stroke="#ebebeb" stroke-miterlimit="10" stroke-width="1"/>
          </g>
          <g id="组_10" data-name="组 10" transform="translate(0 12.788)">
            <path id="路径_17" data-name="路径 17" d="M71.826,302.258V279.7l-9.844-13.435v-6.535" transform="translate(-61.108 -257.997)" fill="none" stroke="#ebebeb" stroke-miterlimit="10" stroke-width="1"/>
            <path id="路径_18" data-name="路径 18" d="M61.357,255.9a.875.875,0,1,1-.875-.875A.875.875,0,0,1,61.357,255.9Z" transform="translate(-59.608 -255.022)" fill="none" stroke="#ebebeb" stroke-miterlimit="10" stroke-width="1"/>
          </g>
          <g id="组_11" data-name="组 11" transform="translate(14.821 16.114)">
            <line id="直线_4" data-name="直线 4" y1="39.186" transform="translate(0.875 1.749)" fill="none" stroke="#ebebeb" stroke-miterlimit="10" stroke-width="1"/>
            <path id="路径_19" data-name="路径 19" d="M101.605,264.929a.875.875,0,1,1-.875-.875A.874.874,0,0,1,101.605,264.929Z" transform="translate(-99.856 -264.054)" fill="none" stroke="#ebebeb" stroke-miterlimit="10" stroke-width="1"/>
          </g>
          <g id="组_12" data-name="组 12" transform="translate(18.047)">
            <path id="路径_20" data-name="路径 20" d="M108.616,280.346v-20.1l6.683-12.605v-22.6" transform="translate(-108.616 -223.297)" fill="none" stroke="#ebebeb" stroke-miterlimit="10" stroke-width="1"/>
            <path id="路径_21" data-name="路径 21" d="M126.138,221.171a.875.875,0,1,1-.875-.875A.874.874,0,0,1,126.138,221.171Z" transform="translate(-118.581 -220.296)" fill="none" stroke="#ebebeb" stroke-miterlimit="10" stroke-width="1"/>
          </g>
          <g id="组_13" data-name="组 13" transform="translate(20.385 7.731)">
            <path id="路径_22" data-name="路径 22" d="M114.965,293.609v-18.75l7.879-13.935V246.041" transform="translate(-114.965 -244.292)" fill="none" stroke="#ebebeb" stroke-miterlimit="10" stroke-width="1"/>
            <path id="路径_23" data-name="路径 23" d="M135.734,242.166a.875.875,0,1,1-.875-.875A.875.875,0,0,1,135.734,242.166Z" transform="translate(-126.981 -241.291)" fill="none" stroke="#ebebeb" stroke-miterlimit="10" stroke-width="1"/>
          </g>
        </g>
      </g>
      <g id="组_16" data-name="组 16" transform="translate(0 8.896)">
        <path id="路径_24" data-name="路径 24" d="M660.676,101.578l2.57-4.143-1.269-.786a1.158,1.158,0,0,1-.538-1.09,6.838,6.838,0,0,0,.023-.729,1.158,1.158,0,0,1,.6-1.052l1.315-.706-2.305-4.3-1.315.705a1.158,1.158,0,0,1-1.211-.078,6.789,6.789,0,0,0-.62-.384,1.159,1.159,0,0,1-.611-1.052l.047-1.492-4.873-.152-.045,1.5a1.161,1.161,0,0,1-.68,1.009q-.162.076-.32.162c-.106.057-.21.116-.312.178a1.157,1.157,0,0,1-1.211.009l-1.278-.792-2.57,4.144,1.271.789a1.159,1.159,0,0,1,.537,1.091,6.726,6.726,0,0,0-.024.726,1.158,1.158,0,0,1-.605,1.051l-1.316.706,2.305,4.3,1.316-.705a1.157,1.157,0,0,1,1.21.077,6.725,6.725,0,0,0,.618.382,1.16,1.16,0,0,1,.612,1.051l-.046,1.5,4.873.151.046-1.5a1.157,1.157,0,0,1,.678-1c.108-.051.216-.106.323-.163s.21-.116.312-.178a1.162,1.162,0,0,1,1.217-.008ZM656.55,98.5a3.994,3.994,0,1,1,1.635-5.406A3.99,3.99,0,0,1,656.55,98.5Z" transform="translate(-428.952 -86.322)" fill="#ebebeb"/>
        <path id="路径_25" data-name="路径 25" d="M64.242,206.952l2.959-1.707-.523-.906a.811.811,0,0,1,.029-.851,4.869,4.869,0,0,0,.256-.442.811.811,0,0,1,.722-.449h1.045v-3.417H67.683a.811.811,0,0,1-.722-.449,4.871,4.871,0,0,0-.256-.442.812.812,0,0,1-.029-.851l.523-.906-2.959-1.707-.524.909a.812.812,0,0,1-.753.4q-.125-.006-.252-.006t-.252.006a.81.81,0,0,1-.75-.4l-.527-.912-2.959,1.707.524.908a.812.812,0,0,1-.03.852,4.782,4.782,0,0,0-.255.44.811.811,0,0,1-.721.449H56.7V202.6h1.046a.811.811,0,0,1,.721.449,4.786,4.786,0,0,0,.255.44.812.812,0,0,1,.03.852l-.524.908,2.959,1.707.524-.908a.811.811,0,0,1,.752-.4q.125.006.253.006t.252-.006a.814.814,0,0,1,.754.4Zm-1.529-3.266a2.8,2.8,0,1,1,2.8-2.8A2.8,2.8,0,0,1,62.713,203.686Z" transform="translate(-56.697 -154.868)" fill="#ebebeb"/>
        <path id="路径_26" data-name="路径 26" d="M624.276,128.194l-1.707-2.959-.906.523a.812.812,0,0,1-.851-.029,4.7,4.7,0,0,0-.442-.256.811.811,0,0,1-.449-.722v-1.046H616.5v1.046a.812.812,0,0,1-.449.722,4.652,4.652,0,0,0-.443.256.812.812,0,0,1-.851.029l-.905-.523-1.707,2.959.91.524a.813.813,0,0,1,.4.753q-.007.125-.007.252c0,.084,0,.168.007.251a.811.811,0,0,1-.4.751l-.912.527,1.707,2.959.908-.524a.812.812,0,0,1,.851.03,4.757,4.757,0,0,0,.44.255.811.811,0,0,1,.448.721v1.046h3.417v-1.046a.811.811,0,0,1,.449-.721,4.748,4.748,0,0,0,.44-.255.812.812,0,0,1,.852-.03l.908.524,1.707-2.959-.908-.524a.811.811,0,0,1-.4-.752q.006-.125.006-.253t-.006-.252a.814.814,0,0,1,.4-.754Zm-3.266,1.529a2.8,2.8,0,1,1-2.8-2.8A2.8,2.8,0,0,1,621.01,129.723Z" transform="translate(-407.602 -109.94)" fill="#ebebeb"/>
      </g>
    </g>
    <g id="Plant" transform="translate(-7.861 31.435)">
      <g id="组_24" data-name="组 24" transform="translate(0)">
        <g id="组_21" data-name="组 21">
          <g id="组_17" data-name="组 17" transform="translate(0 19.65)">
            <path id="路径_28" data-name="路径 28" d="M72.464,288.229c-2.352-4.836-6.469-7.319-11.109-5.947s-5.359,7.842-1.9,9.475,6.927-3.137,8.757-4.117S72.464,288.229,72.464,288.229Z" transform="translate(-57.289 -281.907)" fill="#ffc727"/>
            <path id="路径_29" data-name="路径 29" d="M78.8,303.131c-.012-.583-.035-1.166-.055-1.748q-.062-1.746-.124-3.492a16.266,16.266,0,0,0-1.19-6.181,9.581,9.581,0,0,0-3.732-4.3,7.856,7.856,0,0,0-1.962-.846,4.583,4.583,0,0,0-2.289-1.258,9.353,9.353,0,0,0-3.264-.082c-.039,0-.038.066,0,.062a7.852,7.852,0,0,1,3.088.22,6.48,6.48,0,0,1,1.244.484,5.942,5.942,0,0,1,.72.456,6.672,6.672,0,0,0-2.836.027,6.432,6.432,0,0,0-.984.325,2.9,2.9,0,0,0-.773-.066,4.563,4.563,0,0,0-1,.143,7.594,7.594,0,0,0-1.909.834c-.034.019,0,.071.032.052a7.114,7.114,0,0,1,1.863-.7,6.265,6.265,0,0,1,.957-.14,4.687,4.687,0,0,1,.534,0,6.152,6.152,0,0,0-3,2.989c-.016.036.038.066.054.029A5.64,5.64,0,0,1,68,286.877c.1-.026.207-.04.31-.06a4.513,4.513,0,0,0-.05.468q-.046.353-.118.7a11.894,11.894,0,0,1-.377,1.416,11.112,11.112,0,0,1-.562,1.372,6.527,6.527,0,0,1-.784,1.324.031.031,0,1,0,.049.036c.278-.437.6-.839.857-1.293a9.727,9.727,0,0,0,.629-1.35,9.216,9.216,0,0,0,.414-1.449q.076-.391.122-.787a1.823,1.823,0,0,0,.029-.48,6.347,6.347,0,0,1,1.648-.034A8.982,8.982,0,0,1,69.09,290.1c-.021.033.035.065.054.03a13.522,13.522,0,0,0,.8-1.65,6.267,6.267,0,0,0,.4-1.719,7.608,7.608,0,0,1,2.724.914,9,9,0,0,1,3.627,3.968,14.925,14.925,0,0,1,1.344,5.687c.154,2.471.186,4.959.433,7.423.016.161.271.215.3.034A8.709,8.709,0,0,0,78.8,303.131Z" transform="translate(-61.351 -283.937)" fill="#263238"/>
            <path id="路径_30" data-name="路径 30" d="M85.617,287.592a2.729,2.729,0,0,0-.535-.493c-.193-.16-.39-.314-.6-.454a4.446,4.446,0,0,0-1.337-.62.031.031,0,0,0-.015.06,3.544,3.544,0,0,1,1.319.648c.2.144.385.3.569.459a3.407,3.407,0,0,0,.54.458A.042.042,0,0,0,85.617,287.592Z" transform="translate(-73.602 -284.507)" fill="#263238"/>
            <path id="路径_31" data-name="路径 31" d="M66.3,295.025a14.2,14.2,0,0,0-1.079,1.428,8.659,8.659,0,0,0-.8,1.591c-.006.017.02.026.028.011a19.029,19.029,0,0,1,1.9-2.988C66.366,295.037,66.322,294.994,66.3,295.025Z" transform="translate(-61.791 -290.187)" fill="#263238"/>
            <path id="路径_32" data-name="路径 32" d="M82.041,293.7a3.464,3.464,0,0,1-.266.875,5.779,5.779,0,0,1-.448.775c-.011.016.014.033.027.02a3.144,3.144,0,0,0,.746-1.655C82.107,293.68,82.048,293.665,82.041,293.7Z" transform="translate(-72.474 -289.345)" fill="#263238"/>
          </g>
          <g id="组_18" data-name="组 18" transform="translate(14.078 23.07)">
            <path id="路径_33" data-name="路径 33" d="M103.789,294.215s3.331-4.186,9.761-2.7c6.111,1.41,8.932,12.617,2.756,13.957s-5.087-9.029-7.337-10.789A5.341,5.341,0,0,0,103.789,294.215Z" transform="translate(-100.743 -291.194)" fill="#ffc727"/>
            <path id="路径_34" data-name="路径 34" d="M113.291,299.14a12.547,12.547,0,0,0-1.325-1.015,5.767,5.767,0,0,0-1.413-.705,8.555,8.555,0,0,0-.838-1.078,8.284,8.284,0,0,0-1.943-1.547c.064,0,.127-.011.191-.013a9.857,9.857,0,0,1,1.022.01,5.712,5.712,0,0,1,1.984.494c.036.016.063-.04.026-.056a9.068,9.068,0,0,0-1.981-.6,5.6,5.6,0,0,0-1-.086c-.18,0-.361.014-.54.031l-.1.008a8.616,8.616,0,0,0-1.853-.681c.06-.016.119-.035.179-.049a8.864,8.864,0,0,1,.953-.156,7.478,7.478,0,0,1,1.924.029c.039.006.05-.056.011-.06a12.166,12.166,0,0,0-1.944-.078,8.192,8.192,0,0,0-1.617.21,8.6,8.6,0,0,0-1.173-.134,7.235,7.235,0,0,0-6.065,2.585c-1.385,1.848-1.651,4.305-1.895,6.53a49.581,49.581,0,0,0-.246,9.345c.015.184.273.15.278-.025.084-2.642.177-5.285.43-7.918.117-1.219.247-2.443.45-3.651a10.746,10.746,0,0,1,.886-3.007,5.5,5.5,0,0,1,2.17-2.333,7.318,7.318,0,0,1,3.074-.946,8.28,8.28,0,0,1,2.885.27,1.9,1.9,0,0,0-.016.569,3.173,3.173,0,0,0,.141.7,3.7,3.7,0,0,0,.269.624c.119.221.269.418.4.629.021.034.075,0,.05-.035a2.918,2.918,0,0,1-.5-1.268,5.027,5.027,0,0,1-.077-.655c-.008-.165.006-.333,0-.5a8.5,8.5,0,0,1,2.807,1.482c.157.125.307.258.455.394a3.113,3.113,0,0,0-.545.669,6.6,6.6,0,0,0-.572,1.018,8.646,8.646,0,0,0-.595,2.237c-.006.039.055.05.06.011a6.484,6.484,0,0,1,.732-2.12,8.613,8.613,0,0,1,.57-.942c.109-.155.221-.308.338-.456.063-.08.132-.161.192-.247a8.867,8.867,0,0,1,1.823,2.568s-.008,0-.012.005a4.377,4.377,0,0,0-.753,1.083,10.1,10.1,0,0,0-.6,1.287,21.571,21.571,0,0,0-.767,2.622c-.009.038.053.05.061.011a10.983,10.983,0,0,1,.912-2.582q.288-.6.609-1.191a11.033,11.033,0,0,0,.6-1.124,8.244,8.244,0,0,1,.734,2.978c0,.039.064.034.061-.006a10.394,10.394,0,0,0-1.443-4.57c.393.168.788.329,1.166.533a6.555,6.555,0,0,1,1.337.939C113.28,299.214,113.321,299.166,113.291,299.14Z" transform="translate(-95.518 -292.702)" fill="#263238"/>
            <path id="路径_35" data-name="路径 35" d="M129.442,309.281c-.193.635-.436,1.251-.609,1.892a7.278,7.278,0,0,0-.284,1.891c0,.017.028.018.03,0a18.385,18.385,0,0,1,.921-3.765A.031.031,0,1,0,129.442,309.281Z" transform="translate(-116.385 -302.605)" fill="#263238"/>
            <path id="路径_36" data-name="路径 36" d="M138.824,303.4a3.589,3.589,0,0,0-.851-.608,6.17,6.17,0,0,0-.986-.348c-.037-.011-.05.052-.011.06a3.841,3.841,0,0,1,.949.39,7.128,7.128,0,0,1,.874.537A.02.02,0,0,0,138.824,303.4Z" transform="translate(-121.694 -298.301)" fill="#263238"/>
          </g>
          <g id="组_19" data-name="组 19" transform="translate(16.999 10.084)">
            <path id="路径_37" data-name="路径 37" d="M112.387,266.344s.615-7.522,6.207-9.959c4.669-2.036,7.343,3.211,4.042,6.423C119.965,265.406,115.683,264.234,112.387,266.344Z" transform="translate(-109.097 -255.929)" fill="#ffc727"/>
            <path id="路径_38" data-name="路径 38" d="M115.956,260.134a23.588,23.588,0,0,0-2.487,1.178,18.531,18.531,0,0,0-1.931,1.281c.093-.19.173-.389.267-.575.146-.291.3-.575.475-.85a7.952,7.952,0,0,1,1.231-1.559c.029-.027-.017-.071-.045-.042a12.273,12.273,0,0,0-1.3,1.509,8.91,8.91,0,0,0-.531.851,3.415,3.415,0,0,0-.376.866c-.02.016-.042.029-.061.045a18.359,18.359,0,0,0-2.671,2.613c.015-.074.031-.148.05-.215q.157-.551.339-1.093a9.326,9.326,0,0,1,1.01-2.194c.022-.033-.033-.064-.054-.03a17.559,17.559,0,0,0-1.17,2.14,8.1,8.1,0,0,0-.386,1.112,4.706,4.706,0,0,0-.182.756c-.244.308-.483.62-.709.941a23.1,23.1,0,0,0-3.895,11.687,35.838,35.838,0,0,0-.062,3.7,23.153,23.153,0,0,0,.327,3.719c.015.078.137.054.135-.022-.028-1.087-.14-2.169-.161-3.256s.017-2.18.105-3.265a30.355,30.355,0,0,1,1.219-6.4,22.906,22.906,0,0,1,2.844-6.016c.235-.047.469-.111.7-.171.28-.072.559-.143.837-.221a8.369,8.369,0,0,0,1.559-.572c.035-.018,0-.072-.032-.052a5.023,5.023,0,0,1-1.581.545c-.438.087-.892.144-1.331.245a21.249,21.249,0,0,1,1.3-1.709,9.706,9.706,0,0,0,3.181-.238,12.772,12.772,0,0,0,1.628-.507c.56-.215,1.09-.493,1.643-.724.042-.017.013-.078-.025-.055a9.346,9.346,0,0,1-3.225,1.055,19.954,19.954,0,0,1-3.017.249c.4-.456.808-.9,1.245-1.317a14.719,14.719,0,0,1,5.147-3.354C116.012,260.18,115.992,260.119,115.956,260.134Z" transform="translate(-103.452 -258.221)" fill="#263238"/>
            <path id="路径_39" data-name="路径 39" d="M123.028,261.169a8.417,8.417,0,0,0-.685,1,5.473,5.473,0,0,0-.493,1.166.012.012,0,0,0,.023.009c.186-.369.344-.752.533-1.119a5.574,5.574,0,0,1,.668-1.017C123.1,261.18,123.052,261.138,123.028,261.169Z" transform="translate(-115.074 -259.232)" fill="#263238"/>
            <path id="路径_40" data-name="路径 40" d="M135.181,267.979a5.781,5.781,0,0,1-1.147.478,10.466,10.466,0,0,1-1.167.314c-.019,0-.014.035.005.033a5.676,5.676,0,0,0,1.209-.265,10.153,10.153,0,0,0,1.132-.508C135.248,268.014,135.215,267.959,135.181,267.979Z" transform="translate(-122.027 -263.539)" fill="#263238"/>
          </g>
          <g id="组_20" data-name="组 20" transform="translate(3.591)">
            <path id="路径_41" data-name="路径 41" d="M79.393,247.692a13.57,13.57,0,0,0-5.574-5.443c-4.294-2.464-9.419-8.871-5.209-12.919C72.008,226.062,80.961,233.185,79.393,247.692Z" transform="translate(-67.04 -228.546)" fill="#ffc727"/>
            <path id="路径_42" data-name="路径 42" d="M88.9,269.5a83.886,83.886,0,0,0-.75-9.506,42.794,42.794,0,0,0-2-8.509c-.352-.994-.753-1.973-1.19-2.936a6.768,6.768,0,0,0-.02-1.125c-.023-.481-.067-.962-.111-1.442s-.093-.96-.15-1.439-.159-.956-.179-1.434a.031.031,0,1,0-.06.01,10.169,10.169,0,0,1,.17,1.522c.036.464.063.928.077,1.393s.012.931.012,1.4c0,.168-.009.346-.015.525-.445-.939-.921-1.864-1.437-2.765a16.457,16.457,0,0,0-.5-5.926c-.008-.039-.067-.021-.059.018a16.659,16.659,0,0,1,.312,3.038c.018.8-.02,1.61-.022,2.415-.114-.193-.226-.386-.343-.577-.612-1-1.268-1.982-1.964-2.934a4.6,4.6,0,0,0-.046-1.4,10.779,10.779,0,0,0-.342-1.527q-.226-.752-.524-1.476c-.2-.5-.478-.968-.675-1.466-.017-.042-.078-.013-.056.025a7.215,7.215,0,0,1,.592,1.483,13.539,13.539,0,0,1,.387,1.471c.1.5.182,1,.252,1.5.046.333.075.678.133,1.014A36.191,36.191,0,0,0,77.09,237c-.028-.028-.068.015-.042.044a43.593,43.593,0,0,1,4.807,6.539c.052.087.1.176.152.264-.26-.163-.559-.293-.8-.429q-.687-.382-1.379-.757-.672-.363-1.339-.733c-.229-.127-.456-.26-.689-.379a5.513,5.513,0,0,1-.8-.444c-.036-.027-.074.028-.036.049.455.25.857.622,1.3.9s.891.553,1.35.809c.84.469,1.754.806,2.581,1.291.574,1,1.1,2.036,1.591,3.085q-.753-.483-1.536-.919c-.335-.188-.671-.373-1.011-.551a4.975,4.975,0,0,1-.952-.576.031.031,0,0,0-.042.045,8.953,8.953,0,0,0,1.817,1.264c.607.355,1.221.7,1.853,1.007q.758,1.662,1.368,3.384a63.761,63.761,0,0,1,3.07,17.558c.1,1.772.158,3.541.18,5.315s-.071,3.541-.068,5.311c0,.052.087.064.094.01.212-1.571.25-3.168.319-4.75C88.937,272.73,88.938,271.112,88.9,269.5Z" transform="translate(-73.296 -232.838)" fill="#263238"/>
            <path id="路径_43" data-name="路径 43" d="M77.656,254.005a22.7,22.7,0,0,1-2.512-1.3,26.418,26.418,0,0,1-2.386-1.515c-.013-.009-.028.012-.016.022a20.11,20.11,0,0,0,2.291,1.6,22.963,22.963,0,0,0,2.594,1.244C77.663,254.075,77.693,254.02,77.656,254.005Z" transform="translate(-70.64 -242.851)" fill="#263238"/>
            <path id="路径_44" data-name="路径 44" d="M88.964,239.058c-.07-.275-.157-.545-.249-.813a.024.024,0,0,0,.012-.031c-.06-.152-.123-.3-.184-.455a.568.568,0,0,0-.022-.055c-.012-.029-.024-.058-.035-.087,0-.01-.019-.006-.015,0,.017.052.03.1.046.157a.8.8,0,0,0,.026.087,22.474,22.474,0,0,1,.7,3.21c.005.034.057.035.055,0A10.816,10.816,0,0,0,88.964,239.058Z" transform="translate(-80.578 -234.274)" fill="#263238"/>
          </g>
        </g>
        <g id="组_23" data-name="组 23" transform="translate(9.304 36.202)">
          <g id="组_22" data-name="组 22" transform="translate(1.086 1.605)">
            <path id="路径_45" data-name="路径 45" d="M99.307,331.213l-.337,4-1.033,12.2H86.874l-1.033-12.2-.337-4Z" transform="translate(-85.504 -331.213)" fill="#37474f"/>
            <path id="路径_46" data-name="路径 46" d="M99.307,331.213l-.337,4H85.841l-.337-4Z" transform="translate(-85.504 -331.213)" fill="#263238"/>
          </g>
          <rect id="矩形_9" data-name="矩形 9" width="15.974" height="3.836" fill="#37474f"/>
        </g>
      </g>
    </g>
    <g id="Floor" transform="translate(-10.28 85.437)">
      <line id="直线_5" data-name="直线 5" x2="238.833" transform="translate(0)" fill="none" stroke="#263238" stroke-linecap="round" stroke-linejoin="round" stroke-width="1"/>
    </g>
    <g id="Device" transform="translate(-0.624 -21.766)">
      <g id="组_30" data-name="组 30" transform="translate(0)">
        <rect id="矩形_10" data-name="矩形 10" width="173.663" height="116.168" transform="translate(22.619)" fill="#ebebeb"/>
        <rect id="矩形_11" data-name="矩形 11" width="171.139" height="113.334" transform="translate(23.881 1.417)" fill="#263238"/>
        <g id="组_25" data-name="组 25" transform="translate(0 116.168)">
          <rect id="矩形_12" data-name="矩形 12" width="218.901" height="7.973" transform="translate(0 8.711)" fill="#dbdbdb"/>
          <path id="路径_47" data-name="路径 47" d="M76.943,408.247l22.619-8.711H273.225l22.619,8.711Z" transform="translate(-76.943 -399.536)" fill="#ebebeb"/>
          <path id="路径_48" data-name="路径 48" d="M143.85,405.158l14.6-5.621H298.877l14.6,5.621Z" transform="translate(-119.211 -399.536)" fill="#263238"/>
        </g>
        <g id="组_29" data-name="组 29" transform="translate(33.424 10.028)">
          <rect id="矩形_13" data-name="矩形 13" width="151.796" height="96.113" transform="translate(0.128)" fill="#fff"/>
          <g id="组_27" data-name="组 27">
            <rect id="矩形_14" data-name="矩形 14" width="151.924" height="3.698" fill="#455a64"/>
            <g id="组_26" data-name="组 26" transform="translate(1.105 0.932)">
              <path id="路径_49" data-name="路径 49" d="M172.542,114.756a.917.917,0,1,1-.917-.917A.917.917,0,0,1,172.542,114.756Z" transform="translate(-170.708 -113.839)" fill="#c7c7c7"/>
              <path id="路径_50" data-name="路径 50" d="M182.713,114.756a.917.917,0,1,1-.917-.917A.917.917,0,0,1,182.713,114.756Z" transform="translate(-177.133 -113.839)" fill="#fff"/>
              <path id="路径_51" data-name="路径 51" d="M192.884,114.756a.917.917,0,1,1-.917-.917A.917.917,0,0,1,192.884,114.756Z" transform="translate(-183.559 -113.839)" fill="#ffc727"/>
            </g>
          </g>
          <g id="组_28" data-name="组 28" transform="translate(149.23 3.698)">
            <rect id="矩形_15" data-name="矩形 15" width="2.695" height="92.414" fill="#dbdbdb"/>
            <path id="路径_52" data-name="路径 52" d="M575.406,154.318h0a.7.7,0,0,1-.7-.7V123.516a.7.7,0,0,1,.7-.7h0a.7.7,0,0,1,.7.7v30.106A.7.7,0,0,1,575.406,154.318Z" transform="translate(-574.06 -122.279)" fill="#a6a6a6"/>
          </g>
        </g>
      </g>
    </g>
    <g id="Password" transform="translate(54.605 15.744)">
      <g id="组_45" data-name="组 45">
        <g id="组_31" data-name="组 31">
          <rect id="矩形_16" data-name="矩形 16" width="108.694" height="16.475" transform="translate(0.184 0.184)" fill="#fff"/>
          <path id="路径_53" data-name="路径 53" d="M335.981,202.778H226.918V185.935H335.981Zm-108.695-.368H335.612V186.3H227.286Z" transform="translate(-226.918 -185.935)" fill="#dbdbdb"/>
        </g>
        <g id="组_44" data-name="组 44" transform="translate(6.008 4.649)">
          <g id="组_33" data-name="组 33">
            <g id="组_32" data-name="组 32">
              <path id="路径_54" data-name="路径 54" d="M252.53,198.56a8.963,8.963,0,0,1,.433,1.886,14.879,14.879,0,0,1,.12,1.886,14.622,14.622,0,0,1-.118,1.887,8.856,8.856,0,0,1-.434,1.886,8.859,8.859,0,0,1-.434-1.886,14.617,14.617,0,0,1-.118-1.887,14.885,14.885,0,0,1,.12-1.886A8.967,8.967,0,0,1,252.53,198.56Z" transform="translate(-248.758 -198.56)" fill="#37474f"/>
              <path id="路径_55" data-name="路径 55" d="M250.778,207.857a8.988,8.988,0,0,1-1.886.433,14.877,14.877,0,0,1-1.887.119,14.668,14.668,0,0,1-1.886-.118,8.883,8.883,0,0,1-1.887-.435,8.881,8.881,0,0,1,1.887-.434,14.538,14.538,0,0,1,1.886-.118,14.807,14.807,0,0,1,1.887.119A8.988,8.988,0,0,1,250.778,207.857Z" transform="translate(-243.233 -204.085)" fill="#37474f"/>
              <path id="路径_56" data-name="路径 56" d="M251.569,201.56a8.956,8.956,0,0,1-1.028,1.64,14.842,14.842,0,0,1-1.249,1.418,14.615,14.615,0,0,1-1.417,1.251,8.9,8.9,0,0,1-1.641,1.027,8.894,8.894,0,0,1,1.027-1.641,14.651,14.651,0,0,1,1.251-1.417,14.849,14.849,0,0,1,1.418-1.249A9,9,0,0,1,251.569,201.56Z" transform="translate(-245.129 -200.455)" fill="#37474f"/>
              <path id="路径_57" data-name="路径 57" d="M251.569,206.9a9,9,0,0,1-1.64-1.028,14.849,14.849,0,0,1-1.418-1.249,14.612,14.612,0,0,1-1.251-1.417,8.878,8.878,0,0,1-1.027-1.641,8.9,8.9,0,0,1,1.641,1.027,14.613,14.613,0,0,1,1.417,1.251,14.884,14.884,0,0,1,1.249,1.418A8.972,8.972,0,0,1,251.569,206.9Z" transform="translate(-245.129 -200.455)" fill="#37474f"/>
            </g>
          </g>
          <g id="组_35" data-name="组 35" transform="translate(14.708)">
            <g id="组_34" data-name="组 34">
              <path id="路径_58" data-name="路径 58" d="M292.469,198.56a8.991,8.991,0,0,1,.433,1.886,14.867,14.867,0,0,1,.119,1.886,14.605,14.605,0,0,1-.118,1.887,8.881,8.881,0,0,1-.435,1.886,8.882,8.882,0,0,1-.434-1.886,14.546,14.546,0,0,1-.118-1.887,14.817,14.817,0,0,1,.119-1.886A8.988,8.988,0,0,1,292.469,198.56Z" transform="translate(-288.697 -198.56)" fill="#37474f"/>
              <path id="路径_59" data-name="路径 59" d="M290.717,207.857a8.987,8.987,0,0,1-1.886.433,14.876,14.876,0,0,1-1.887.119,14.668,14.668,0,0,1-1.886-.118,8.874,8.874,0,0,1-1.886-.435,8.872,8.872,0,0,1,1.886-.434,14.538,14.538,0,0,1,1.886-.118,14.806,14.806,0,0,1,1.887.119A8.987,8.987,0,0,1,290.717,207.857Z" transform="translate(-283.172 -204.085)" fill="#37474f"/>
              <path id="路径_60" data-name="路径 60" d="M291.508,201.56a8.977,8.977,0,0,1-1.028,1.64,14.9,14.9,0,0,1-1.249,1.418,14.612,14.612,0,0,1-1.417,1.251,8.9,8.9,0,0,1-1.641,1.027,8.913,8.913,0,0,1,1.027-1.641,14.651,14.651,0,0,1,1.251-1.417,14.894,14.894,0,0,1,1.418-1.249A8.992,8.992,0,0,1,291.508,201.56Z" transform="translate(-285.067 -200.455)" fill="#37474f"/>
              <path id="路径_61" data-name="路径 61" d="M291.508,206.9a8.994,8.994,0,0,1-1.64-1.028,14.894,14.894,0,0,1-1.418-1.249A14.612,14.612,0,0,1,287.2,203.2a8.9,8.9,0,0,1-1.027-1.641,8.9,8.9,0,0,1,1.641,1.027,14.61,14.61,0,0,1,1.417,1.251,14.943,14.943,0,0,1,1.249,1.418A8.993,8.993,0,0,1,291.508,206.9Z" transform="translate(-285.067 -200.455)" fill="#37474f"/>
            </g>
          </g>
          <g id="组_37" data-name="组 37" transform="translate(29.415)">
            <g id="组_36" data-name="组 36">
              <path id="路径_62" data-name="路径 62" d="M332.407,198.56a9.013,9.013,0,0,1,.433,1.886,14.879,14.879,0,0,1,.119,1.886,14.611,14.611,0,0,1-.118,1.887,8.882,8.882,0,0,1-.434,1.886,8.883,8.883,0,0,1-.435-1.886,14.616,14.616,0,0,1-.118-1.887,14.879,14.879,0,0,1,.119-1.886A8.987,8.987,0,0,1,332.407,198.56Z" transform="translate(-328.635 -198.56)" fill="#37474f"/>
              <path id="路径_63" data-name="路径 63" d="M330.656,207.857a8.992,8.992,0,0,1-1.887.433,14.871,14.871,0,0,1-1.886.119,14.673,14.673,0,0,1-1.887-.118,8.879,8.879,0,0,1-1.886-.435,8.877,8.877,0,0,1,1.886-.434,14.543,14.543,0,0,1,1.887-.118,14.8,14.8,0,0,1,1.886.119A8.992,8.992,0,0,1,330.656,207.857Z" transform="translate(-323.11 -204.085)" fill="#37474f"/>
              <path id="路径_64" data-name="路径 64" d="M331.446,201.56a8.977,8.977,0,0,1-1.028,1.64,14.9,14.9,0,0,1-1.25,1.418,14.647,14.647,0,0,1-1.417,1.251,8.887,8.887,0,0,1-1.641,1.027,8.894,8.894,0,0,1,1.027-1.641,14.643,14.643,0,0,1,1.25-1.417,14.9,14.9,0,0,1,1.418-1.249A8.99,8.99,0,0,1,331.446,201.56Z" transform="translate(-325.005 -200.455)" fill="#37474f"/>
              <path id="路径_65" data-name="路径 65" d="M331.446,206.9a8.992,8.992,0,0,1-1.64-1.028,14.9,14.9,0,0,1-1.418-1.249,14.6,14.6,0,0,1-1.25-1.417,8.878,8.878,0,0,1-1.027-1.641,8.887,8.887,0,0,1,1.641,1.027,14.645,14.645,0,0,1,1.417,1.251,14.939,14.939,0,0,1,1.25,1.418A8.993,8.993,0,0,1,331.446,206.9Z" transform="translate(-325.005 -200.455)" fill="#37474f"/>
            </g>
          </g>
          <g id="组_39" data-name="组 39" transform="translate(44.122)">
            <g id="组_38" data-name="组 38">
              <path id="路径_66" data-name="路径 66" d="M372.345,198.56a8.965,8.965,0,0,1,.433,1.886,14.811,14.811,0,0,1,.119,1.886,14.546,14.546,0,0,1-.118,1.887,8.88,8.88,0,0,1-.434,1.886,8.879,8.879,0,0,1-.435-1.886,14.671,14.671,0,0,1-.118-1.887,14.879,14.879,0,0,1,.119-1.886A8.993,8.993,0,0,1,372.345,198.56Z" transform="translate(-368.573 -198.56)" fill="#37474f"/>
              <path id="路径_67" data-name="路径 67" d="M370.593,207.857a8.991,8.991,0,0,1-1.887.433,14.871,14.871,0,0,1-1.886.119,14.674,14.674,0,0,1-1.887-.118,8.886,8.886,0,0,1-1.886-.435,8.884,8.884,0,0,1,1.886-.434,14.544,14.544,0,0,1,1.887-.118,14.8,14.8,0,0,1,1.886.119A8.991,8.991,0,0,1,370.593,207.857Z" transform="translate(-363.048 -204.085)" fill="#37474f"/>
              <path id="路径_68" data-name="路径 68" d="M371.384,201.56a8.957,8.957,0,0,1-1.028,1.64,14.9,14.9,0,0,1-1.249,1.418,14.565,14.565,0,0,1-1.417,1.251,8.9,8.9,0,0,1-1.641,1.027,8.871,8.871,0,0,1,1.027-1.641,14.651,14.651,0,0,1,1.251-1.417,14.846,14.846,0,0,1,1.418-1.249A9,9,0,0,1,371.384,201.56Z" transform="translate(-364.944 -200.455)" fill="#37474f"/>
              <path id="路径_69" data-name="路径 69" d="M371.384,206.9a9,9,0,0,1-1.64-1.028,14.846,14.846,0,0,1-1.418-1.249,14.612,14.612,0,0,1-1.251-1.417,8.856,8.856,0,0,1-1.027-1.641,8.9,8.9,0,0,1,1.641,1.027,14.562,14.562,0,0,1,1.417,1.251,14.939,14.939,0,0,1,1.249,1.418A8.973,8.973,0,0,1,371.384,206.9Z" transform="translate(-364.944 -200.455)" fill="#37474f"/>
            </g>
          </g>
          <g id="组_41" data-name="组 41" transform="translate(58.829)">
            <g id="组_40" data-name="组 40">
              <path id="路径_70" data-name="路径 70" d="M412.283,198.56a8.967,8.967,0,0,1,.433,1.886,14.885,14.885,0,0,1,.12,1.886,14.606,14.606,0,0,1-.118,1.887,8.856,8.856,0,0,1-.434,1.886,8.856,8.856,0,0,1-.434-1.886,14.606,14.606,0,0,1-.118-1.887,14.89,14.89,0,0,1,.12-1.886A8.969,8.969,0,0,1,412.283,198.56Z" transform="translate(-408.511 -198.56)" fill="#37474f"/>
              <path id="路径_71" data-name="路径 71" d="M410.531,207.857a8.987,8.987,0,0,1-1.886.433,14.876,14.876,0,0,1-1.887.119,14.668,14.668,0,0,1-1.886-.118,8.882,8.882,0,0,1-1.887-.435,8.88,8.88,0,0,1,1.887-.434,14.537,14.537,0,0,1,1.886-.118,14.805,14.805,0,0,1,1.887.119A8.986,8.986,0,0,1,410.531,207.857Z" transform="translate(-402.986 -204.085)" fill="#37474f"/>
              <path id="路径_72" data-name="路径 72" d="M411.322,201.56a8.959,8.959,0,0,1-1.028,1.64,14.8,14.8,0,0,1-1.249,1.418,14.561,14.561,0,0,1-1.417,1.251,8.9,8.9,0,0,1-1.641,1.027,8.894,8.894,0,0,1,1.027-1.641,14.651,14.651,0,0,1,1.251-1.417,14.846,14.846,0,0,1,1.418-1.249A9,9,0,0,1,411.322,201.56Z" transform="translate(-404.882 -200.455)" fill="#37474f"/>
              <path id="路径_73" data-name="路径 73" d="M411.322,206.9a9,9,0,0,1-1.64-1.028,14.846,14.846,0,0,1-1.418-1.249,14.612,14.612,0,0,1-1.251-1.417,8.878,8.878,0,0,1-1.027-1.641,8.9,8.9,0,0,1,1.641,1.027,14.559,14.559,0,0,1,1.417,1.251,14.837,14.837,0,0,1,1.249,1.418A8.975,8.975,0,0,1,411.322,206.9Z" transform="translate(-404.882 -200.455)" fill="#37474f"/>
            </g>
          </g>
          <g id="组_43" data-name="组 43" transform="translate(73.537)">
            <g id="组_42" data-name="组 42">
              <path id="路径_74" data-name="路径 74" d="M452.222,198.56a8.985,8.985,0,0,1,.433,1.886,14.873,14.873,0,0,1,.119,1.886,14.682,14.682,0,0,1-.118,1.887,8.879,8.879,0,0,1-.435,1.886,8.88,8.88,0,0,1-.434-1.886,14.54,14.54,0,0,1-.118-1.887,14.806,14.806,0,0,1,.119-1.886A8.965,8.965,0,0,1,452.222,198.56Z" transform="translate(-448.45 -198.56)" fill="#37474f"/>
              <path id="路径_75" data-name="路径 75" d="M450.47,207.857a8.988,8.988,0,0,1-1.886.433,14.875,14.875,0,0,1-1.886.119,14.668,14.668,0,0,1-1.886-.118,8.874,8.874,0,0,1-1.886-.435,8.872,8.872,0,0,1,1.886-.434,14.537,14.537,0,0,1,1.886-.118,14.805,14.805,0,0,1,1.886.119A8.988,8.988,0,0,1,450.47,207.857Z" transform="translate(-442.925 -204.085)" fill="#37474f"/>
              <path id="路径_76" data-name="路径 76" d="M451.261,201.56a8.981,8.981,0,0,1-1.028,1.64,14.888,14.888,0,0,1-1.249,1.418,14.6,14.6,0,0,1-1.417,1.251,8.894,8.894,0,0,1-1.641,1.027,8.91,8.91,0,0,1,1.027-1.641,14.651,14.651,0,0,1,1.251-1.417,14.887,14.887,0,0,1,1.418-1.249A8.99,8.99,0,0,1,451.261,201.56Z" transform="translate(-444.82 -200.455)" fill="#37474f"/>
              <path id="路径_77" data-name="路径 77" d="M451.261,206.9a8.991,8.991,0,0,1-1.64-1.028,14.887,14.887,0,0,1-1.418-1.249,14.612,14.612,0,0,1-1.251-1.417,8.894,8.894,0,0,1-1.027-1.641,8.894,8.894,0,0,1,1.641,1.027,14.6,14.6,0,0,1,1.417,1.251,14.93,14.93,0,0,1,1.249,1.418A9,9,0,0,1,451.261,206.9Z" transform="translate(-444.82 -200.455)" fill="#37474f"/>
            </g>
          </g>
        </g>
      </g>
    </g>
    <g id="Padlock" transform="translate(83.287 1.03)">
      <g id="组_47" data-name="组 47">
        <g id="组_46" data-name="组 46" transform="translate(7.264)">
          <path id="路径_78" data-name="路径 78" d="M361.7,165.785V185.84h-5.667V165.785c0-7.626-5.793-13.828-12.918-13.828s-12.918,6.2-12.918,13.828V185.84H324.53V165.785c0-10.922,8.337-19.8,18.586-19.8S361.7,154.862,361.7,165.785Z" transform="translate(-324.53 -145.98)" fill="#455a64"/>
          <path id="路径_79" data-name="路径 79" d="M324.53,213.92l5.667.228v14.612H324.53Z" transform="translate(-324.53 -188.901)" fill="#263238"/>
          <path id="路径_80" data-name="路径 80" d="M415.747,217.632v13.327H410.08V217.4Z" transform="translate(-378.576 -191.1)" fill="#263238"/>
        </g>
        <rect id="矩形_17" data-name="矩形 17" width="51.699" height="46.902" transform="translate(0 28.44)" fill="#ffc727"/>
        <rect id="矩形_18" data-name="矩形 18" width="25.849" height="46.902" transform="translate(25.849 28.44)" opacity="0.1"/>
        <path id="路径_81" data-name="路径 81" d="M368.894,277.022l2.164,10.266h-9.185l2.164-10.266a4.592,4.592,0,1,1,4.856,0Z" transform="translate(-340.858 -223.413)" fill="#263238"/>
      </g>
    </g>
    <g id="Shield" transform="translate(57.115 42.572)">
      <g id="组_51" data-name="组 51">
        <g id="组_49" data-name="组 49">
          <path id="路径_82" data-name="路径 82" d="M270.739,270.84s-2.7,21.639-7.145,26.508c-5.333,5.841-9.2,4.987-11.355,8a0,0,0,0,0,0,0c-2.153-3.016-6.023-2.158-11.36-8-4.442-4.869-7.14-26.508-7.14-26.508a81.108,81.108,0,0,0,18.5-12.05l0,0A81.277,81.277,0,0,0,270.739,270.84Z" transform="translate(-233.734 -258.79)" fill="#ebebeb"/>
          <path id="路径_83" data-name="路径 83" d="M252.239,258.794v46.552a0,0,0,0,0,0,0c-2.153-3.016-6.023-2.158-11.36-8-4.442-4.869-7.14-26.508-7.14-26.508a81.108,81.108,0,0,0,18.5-12.05Z" transform="translate(-233.734 -258.79)" fill="#dbdbdb"/>
          <g id="组_48" data-name="组 48" transform="translate(2.871 3.613)">
            <path id="路径_84" data-name="路径 84" d="M272.793,278.781s-2.283,18.279-6.035,22.395c-4.508,4.942-7.78,4.215-9.6,6.761-1.819-2.545-5.09-1.819-9.6-6.761-3.752-4.115-6.031-22.395-6.031-22.395a68.6,68.6,0,0,0,15.629-10.18A68.7,68.7,0,0,0,272.793,278.781Z" transform="translate(-241.53 -268.601)" fill="#dbdbdb"/>
            <path id="路径_85" data-name="路径 85" d="M241.543,278.791s2.283,18.277,6.036,22.394c4.5,4.938,7.772,4.216,9.593,6.754V268.615A68.811,68.811,0,0,1,241.543,278.791Z" transform="translate(-241.538 -268.61)" fill="#c7c7c7"/>
          </g>
        </g>
        <g id="组_50" data-name="组 50" transform="translate(8.252 13.03)">
          <circle id="椭圆_1" data-name="椭圆 1" cx="7.248" cy="7.248" r="7.248" transform="translate(0 10.251) rotate(-45)" fill="#ffc727"/>
          <path id="路径_86" data-name="路径 86" d="M276.2,320.141l-3.228-3.357,1.2-1.152,1.78,1.851,3.836-5.885,1.392.907Z" transform="translate(-266.772 -305.181)" fill="#fff"/>
        </g>
      </g>
    </g>
    <g id="Key" transform="translate(30.101 72.621)">
      <g id="组_53" data-name="组 53" transform="translate(0 0)">
        <g id="组_52" data-name="组 52" transform="translate(20.507 13.838)">
          <path id="矩形_19" data-name="矩形 19" d="M0,0H4.486a0,0,0,0,1,0,0V51.955A2.243,2.243,0,0,1,2.243,54.2h0A2.243,2.243,0,0,1,0,51.956V0A0,0,0,0,1,0,0Z" transform="translate(0.002 4.404) rotate(-78.954)" fill="#ffc727"/>
          <rect id="矩形_20" data-name="矩形 20" width="4.488" height="6.326" transform="translate(0 4.405) rotate(-78.953)" opacity="0.1"/>
        </g>
        <path id="路径_87" data-name="路径 87" d="M162.092,348.618l-1.525,7.811a10.182,10.182,0,1,0,19.986,3.9l1.525-7.811a10.182,10.182,0,0,0-19.986-3.9Zm16.792,1.958a5.791,5.791,0,0,1-4.992,4.4,5.8,5.8,0,0,1,2.971,5.955c-.607,3.105-4.034,5.058-7.652,4.352s-6.055-3.8-5.449-6.909a5.791,5.791,0,0,1,4.993-4.4,5.792,5.792,0,0,1-2.971-5.955c.607-3.11,4.029-5.055,7.647-4.348S179.491,347.466,178.884,350.576Z" transform="translate(-160.377 -340.387)" fill="#ffc727"/>
        <rect id="矩形_21" data-name="矩形 21" width="10.198" height="2.07" rx="1.035" transform="translate(19.962 21.045) rotate(-78.953)" fill="#ffc727"/>
        <rect id="矩形_22" data-name="矩形 22" width="10.198" height="2.07" rx="1.035" transform="translate(21.993 21.442) rotate(-78.953)" fill="#ffc727"/>
        <path id="路径_88" data-name="路径 88" d="M320.832,385.349l1.533.3.869-4.449,1.308.255-.453,2.319,1.528.3.453-2.319,1.16.226-.716,3.667,1.533.3.716-3.667,1.645.321-.956,4.9,1.533.3.956-4.9,1.555.3-1.222,6.26-13.685-2.672,1.222-6.26,1.892.369Z" transform="translate(-260.325 -365.748)" fill="#ffc727"/>
      </g>
    </g>
    <g id="Character" transform="translate(128.463 -9.123)">
      <g id="组_101" data-name="组 101" transform="translate(0)">
        <g id="组_69" data-name="组 69" transform="translate(0 35.74)">
          <g id="组_61" data-name="组 61" transform="translate(0 0.003)">
            <g id="组_56" data-name="组 56" transform="translate(0 42.674)">
              <path id="路径_89" data-name="路径 89" d="M442.393,331.353l-10.035,8.109c-1.926,1.54-3.586,2.924-4.379,3.72a.039.039,0,0,0-.013.013c-.3.3-.472.514-.481.618a.066.066,0,0,0,0,.021c.07.883,11.925,16.632,12.523,17.042s1.814-1.263,1.842-2.241-1.817-9.04-1.817-9.04l9.946-8.2Z" transform="translate(-427.482 -331.353)" fill="#c95f50"/>
              <path id="路径_90" data-name="路径 90" d="M434.417,348.856l-2.059,1.663c-1.926,1.54-3.586,2.924-4.379,3.72a.039.039,0,0,0-.013.013,3.348,3.348,0,0,0-.481.618.066.066,0,0,0,0,.021c.07.883,11.925,16.632,12.523,17.042s1.814-1.263,1.842-2.241-1.817-9.04-1.817-9.04l2.112-1.66Z" transform="translate(-427.482 -342.41)" fill="#ebebeb"/>
              <g id="组_55" data-name="组 55" transform="translate(0 8.043)">
                <path id="路径_91" data-name="路径 91" d="M440.005,374.673c-.6-.41-12.454-16.157-12.524-17.043-.032-.336,2.161-2.2,4.877-4.37l.086-.067,7.761,10.074-.175.126s1.842,8.057,1.816,9.039S440.6,375.086,440.005,374.673Z" transform="translate(-427.481 -353.193)" fill="#ffc727"/>
                <g id="组_54" data-name="组 54" transform="translate(0.876 4.881)">
                  <path id="路径_92" data-name="路径 92" d="M441.984,382.409c-1.933-2.7-9.985-13.425-12.1-15.951-.017-.021-.032-.01-.017.013,1.857,2.721,10,13.377,12.075,15.971C441.985,382.5,442.025,382.466,441.984,382.409Z" transform="translate(-429.86 -366.447)" fill="#263238"/>
                  <path id="路径_93" data-name="路径 93" d="M457.889,378.833a4.63,4.63,0,0,0-3.059-2.586c-.052-.009-.064.065-.028.091a18.385,18.385,0,0,1,2.952,2.591A.084.084,0,0,0,457.889,378.833Z" transform="translate(-445.604 -372.638)" fill="#263238"/>
                  <path id="路径_94" data-name="路径 94" d="M458.2,381.81a4.63,4.63,0,0,0-3.059-2.586c-.052-.009-.064.065-.028.091a18.392,18.392,0,0,1,2.952,2.591A.084.084,0,0,0,458.2,381.81Z" transform="translate(-445.798 -374.518)" fill="#263238"/>
                  <path id="路径_95" data-name="路径 95" d="M458.5,384.786a4.63,4.63,0,0,0-3.058-2.586c-.052-.009-.065.065-.028.091a18.371,18.371,0,0,1,2.952,2.59A.084.084,0,0,0,458.5,384.786Z" transform="translate(-445.992 -376.398)" fill="#263238"/>
                </g>
              </g>
            </g>
            <g id="组_60" data-name="组 60" transform="translate(5.068)">
              <path id="路径_96" data-name="路径 96" d="M456.509,248.489C455.8,252,441.243,266,441.243,266l10.148,11.714s20.666-20.629,19.587-28.38c-.938-6.743-11.033-33.857-11.033-33.857H448.3S457.207,245.04,456.509,248.489Z" transform="translate(-441.243 -215.472)" fill="#37474f"/>
              <path id="路径_97" data-name="路径 97" d="M456.509,248.489C455.8,252,441.243,266,441.243,266l10.148,11.714s20.666-20.629,19.587-28.38c-.938-6.743-11.033-33.857-11.033-33.857H448.3S457.207,245.04,456.509,248.489Z" transform="translate(-441.243 -215.472)" fill="#37474f"/>
              <g id="组_59" data-name="组 59" transform="translate(3.134 1.215)">
                <g id="组_58" data-name="组 58" transform="translate(0 48.547)">
                  <g id="组_57" data-name="组 57">
                    <path id="路径_98" data-name="路径 98" d="M457.921,360.292c-1.349-1.678-.938-1.216-2.3-2.879-.669-.814-5.07-6.159-5.828-6.808-.017-.014-.045.009-.034.028.507.859,5,6.126,5.685,6.927,1.4,1.636,1.015,1.152,2.432,2.772A.031.031,0,0,0,457.921,360.292Z" transform="translate(-449.753 -350.6)" fill="#263238"/>
                  </g>
                </g>
                <path id="路径_99" data-name="路径 99" d="M464.236,248.861c-.167-.876-.356-1.748-.541-2.62q-.568-2.672-1.2-5.329-1.257-5.269-2.736-10.48c-.993-3.485-2.042-6.964-3.251-10.381-.149-.422-.3-.843-.458-1.264a.027.027,0,0,0-.051.015c1.047,3.423,2.125,6.837,3.107,10.279s1.882,6.876,2.734,10.338c.428,1.738.826,3.483,1.216,5.23q.287,1.288.561,2.578a18.48,18.48,0,0,1,.488,2.657,4.045,4.045,0,0,1-.684,2.393c-.437.714-.95,1.386-1.447,2.06-1,1.35-10.474,11.913-10.779,12.2-.024.022.013.057.036.035,1.272-1.142,9.315-9.848,10.336-11.195q.758-1,1.481-2.025a8,8,0,0,0,1.157-2.039A4.8,4.8,0,0,0,464.236,248.861Z" transform="translate(-450.658 -218.77)" fill="#263238"/>
              </g>
              <path id="路径_100" data-name="路径 100" d="M470.04,215.47l-2.114,27.748c-2.018-9.5-7.516-27.748-7.516-27.748Z" transform="translate(-453.352 -215.47)" fill="#263238"/>
            </g>
          </g>
          <g id="组_68" data-name="组 68" transform="translate(4.371)">
            <g id="组_64" data-name="组 64" transform="translate(12.392 57.134)">
              <path id="路径_101" data-name="路径 101" d="M473,370.612s2.514,12.241,2.514,12.251c.034,2.465.107,4.626.249,5.74a.039.039,0,0,0,0,.018,1.722,1.722,0,0,0,.192.759c.006.006.009.012.015.016.74.487,20.45.793,21.141.572s.116-2.207-.639-2.829-8.252-4.114-8.252-4.114l-2.636-12.234Z" transform="translate(-472.999 -370.612)" fill="#c95f50"/>
              <path id="路径_102" data-name="路径 102" d="M500.678,407.329c-.691.221-20.4-.084-21.141-.571-.007,0-.01-.01-.017-.016a1.734,1.734,0,0,1-.191-.759.041.041,0,0,1,0-.019c-.143-1.113-.214-3.273-.25-5.738,0,0-.435-2.131-.435-2.131h12.65l.492,2.29s7.493,3.493,8.255,4.116S501.372,407.112,500.678,407.329Z" transform="translate(-476.563 -387.974)" fill="#ebebeb"/>
              <g id="组_63" data-name="组 63" transform="translate(2.514 12.142)">
                <path id="路径_103" data-name="路径 103" d="M501.426,410.8c-.692.221-20.4-.085-21.142-.573-.285-.181-.408-3.055-.457-6.532v-.109l12.716.055-.008.216s7.491,3.491,8.251,4.114S502.118,410.579,501.426,410.8Z" transform="translate(-479.827 -403.583)" fill="#ffc727"/>
                <g id="组_62" data-name="组 62" transform="translate(1.347 0.214)">
                  <path id="路径_104" data-name="路径 104" d="M503.526,420.625c-3.321-.133-16.727-.356-20.02-.236-.027,0-.027.019,0,.021,3.289.2,16.7.319,20.02.27C503.6,420.679,503.6,420.628,503.526,420.625Z" transform="translate(-483.486 -414.393)" fill="#263238"/>
                  <path id="路径_105" data-name="路径 105" d="M510.489,404.276a4.631,4.631,0,0,0-3.919.827c-.039.036.012.091.055.078a18.408,18.408,0,0,1,3.857-.741A.084.084,0,0,0,510.489,404.276Z" transform="translate(-498.06 -404.164)" fill="#263238"/>
                  <path id="路径_106" data-name="路径 106" d="M513.028,405.86a4.63,4.63,0,0,0-3.919.827c-.039.036.012.091.054.078a18.416,18.416,0,0,1,3.857-.741A.084.084,0,0,0,513.028,405.86Z" transform="translate(-499.664 -405.165)" fill="#263238"/>
                  <path id="路径_107" data-name="路径 107" d="M515.566,407.444a4.63,4.63,0,0,0-3.919.827c-.039.036.012.091.055.078a18.386,18.386,0,0,1,3.857-.74A.084.084,0,0,0,515.566,407.444Z" transform="translate(-501.268 -406.165)" fill="#263238"/>
                </g>
              </g>
            </g>
            <g id="组_67" data-name="组 67">
              <path id="路径_108" data-name="路径 108" d="M457.626,215.466a47.563,47.563,0,0,0-1,5.811c-.243,2.437-.547,4.593-.872,4.862-.368.3-2.208,1.485-2.828,1.863,0,0,5.739,17.4,7.219,23.194,2.147,8.406,7.288,33.626,7.288,33.626l-13.7,0s-4.166-24.009-5.987-32.012c-1.561-6.861-7.542-27.444-7.542-27.444a11.951,11.951,0,0,1,.484-9.9S457.628,215.457,457.626,215.466Z" transform="translate(-439.349 -215.462)" fill="#37474f"/>
              <g id="组_66" data-name="组 66" transform="translate(1.141 0.492)">
                <path id="路径_109" data-name="路径 109" d="M492.544,396.52c-2.153-.011-1.535-.039-3.688-.026-1.054.006-7.977.053-8.959.232a.023.023,0,0,0,0,.044c.987.148,7.908-.02,8.961-.046,2.152-.054,1.534-.062,3.685-.14A.031.031,0,0,0,492.544,396.52Z" transform="translate(-466.096 -330.319)" fill="#263238"/>
                <g id="组_65" data-name="组 65" transform="translate(12.436)">
                  <path id="路径_110" data-name="路径 110" d="M480.015,242.569a26.138,26.138,0,0,0-3.779,2.53.047.047,0,0,0,.051.078c1.281-.8,2.592-1.583,3.828-2.456A.091.091,0,0,0,480.015,242.569Z" transform="translate(-476.216 -233.071)" fill="#263238"/>
                  <path id="路径_111" data-name="路径 111" d="M479.989,216.833c-.011-.047-.1-.045-.088.007a46.224,46.224,0,0,1,.482,4.621c.046.717.084,4.711-1.186,4.617-.213-.015-.349-.2-.429-.506a4.971,4.971,0,0,1-.024-1.223c.009-.839-.009-1.676-.067-2.513a22.683,22.683,0,0,0-.767-4.614.04.04,0,0,0-.078.017,42.9,42.9,0,0,1,.617,6.437c0,1.04-.27,2.649.817,2.64,1.107-.008,1.409-2.68,1.433-3.4A23.69,23.69,0,0,0,479.989,216.833Z" transform="translate(-477.237 -216.799)" fill="#263238"/>
                  <path id="路径_112" data-name="路径 112" d="M481.346,242.083a6.68,6.68,0,0,0-.15.853,1.854,1.854,0,0,0-.011.683c.011.042.069.038.088.005a2.379,2.379,0,0,0,.184-.692c.055-.265.115-.529.161-.8A.139.139,0,0,0,481.346,242.083Z" transform="translate(-479.337 -232.704)" fill="#263238"/>
                </g>
                <path id="路径_113" data-name="路径 113" d="M446.838,234.273a13.55,13.55,0,0,0,3.471-.657,8.215,8.215,0,0,0,3.366-2.078,6.585,6.585,0,0,0,1.291-1.806c.011-.026.054-.007.045.02a6.061,6.061,0,0,1-.913,1.809,6.973,6.973,0,0,1-1.483,1.416,7.769,7.769,0,0,1-3.769,1.455,6.053,6.053,0,0,1-2.027-.032C446.743,234.387,446.773,234.28,446.838,234.273Z" transform="translate(-445.181 -224.962)" fill="#263238"/>
                <path id="路径_114" data-name="路径 114" d="M467.89,345.651c-.036-.317-.079-.634-.124-.95-.086-.607-.188-1.212-.281-1.818-.187-1.218-.4-2.432-.612-3.645-.43-2.419-.926-4.83-1.449-7.231-.3-1.357-.64-2.7-1-4.038-.025-.094-.157-.049-.141.042.221,1.227.433,2.455.684,3.676s.5,2.436.742,3.655c.479,2.411.924,4.827,1.4,7.238.134.68.257,1.363.39,2.043.066.339.135.679.208,1.017s.178.669.233,1.009c.006.032.054.017.049-.014C467.933,346.31,467.927,345.978,467.89,345.651Z" transform="translate(-456.239 -286.998)" fill="#263238"/>
                <path id="路径_115" data-name="路径 115" d="M485.064,278c-.456-2.273-1.072-4.517-1.69-6.75-1.245-4.5-2.71-8.926-4.173-13.354q-.632-1.914-1.264-3.828c-.211-.637-1.244-4.077-1.372-4.4a.028.028,0,0,0-.053.016c.3,1.172.7,2.88,1.044,4.04s.707,2.284,1.063,3.425c.7,2.243,1.411,4.482,2.091,6.731,1.343,4.446,2.677,8.889,3.767,13.4.3,1.265.609,2.528.888,3.8s.517,2.545.782,3.817a.032.032,0,0,0,.062-.01C485.98,282.571,485.521,280.28,485.064,278Z" transform="translate(-463.967 -237.549)" fill="#263238"/>
                <path id="路径_116" data-name="路径 116" d="M455.028,269.33c-.754-4.337-1.657-8.65-2.658-12.936q-1.509-6.461-3.359-12.835c-1.234-4.247-2.6-8.456-4.069-12.628a52.867,52.867,0,0,1-1.861-6.007,14.338,14.338,0,0,1-.209-6.26,10.469,10.469,0,0,1,.468-1.522c.014-.034-.036-.063-.051-.028-1.648,3.839-.579,8.038.676,11.823.688,2.073,1.421,4.131,2.1,6.208q1.043,3.2,2,6.423c1.264,4.26,2.438,8.546,3.49,12.864s1.988,8.662,2.812,13.028c.827,4.382,1.522,8.781,2.227,13.184.092.573.164,1.148.239,1.723,0,.032.055.031.051,0C456.353,278.005,455.781,273.66,455.028,269.33Z" transform="translate(-442.447 -216.988)" fill="#263238"/>
              </g>
            </g>
          </g>
        </g>
        <g id="组_100" data-name="组 100" transform="translate(2.158)">
          <g id="组_78" data-name="组 78" transform="translate(15.045 7.534)">
            <g id="组_71" data-name="组 71" transform="translate(0.31 6.55)">
              <path id="路径_117" data-name="路径 117" d="M475.338,160.126c1.611,5.889,6.257,13,8.459,13.977,1.924.854,10.842-2.444,14.207-4.588.959-.611-3-6.124-4.153-5.74-3.765,1.256-7.865,3.111-8.182,3-.64-.217-4.64-5.122-7.551-8.42C474.857,154.665,474.7,157.779,475.338,160.126Z" transform="translate(-475.038 -156.654)" fill="#c95f50"/>
              <g id="组_70" data-name="组 70" transform="translate(18.141 5.086)">
                <path id="路径_118" data-name="路径 118" d="M553.268,173.377c.757-.318,6.6-.5,6.594-1.769s-7.429-.911-7.429-.911Z" transform="translate(-542.072 -170.583)" fill="#c95f50"/>
                <path id="路径_119" data-name="路径 119" d="M524.3,173.407c1.02-1.268,1.917-2.635,2.8-2.886.615-.173,7.223.112,8.256.049s4.717.032,4.8.938c.12,1.28-4.24,1.268-4.705,1.922-1.607,2.258-7.715,5.6-7.715,5.6Z" transform="translate(-524.3 -170.464)" fill="#c95f50"/>
                <path id="路径_120" data-name="路径 120" d="M560.03,171.6a.99.99,0,0,0-.422-.569,3.131,3.131,0,0,0-1.577-.387,14.532,14.532,0,0,0-2.422-.019.014.014,0,0,0,0,.028c.605.009,1.208.016,1.811.066a7.436,7.436,0,0,1,1.637.25,1.334,1.334,0,0,1,.63.378.521.521,0,0,1,.124.487c-.176.558-1.276.723-1.783.836-.664.148-1.352.279-2.018.415-.029.006-.015.05.014.045.692-.137,1.422-.19,2.117-.316a3.454,3.454,0,0,0,1.621-.59A.641.641,0,0,0,560.03,171.6Z" transform="translate(-544.071 -170.54)" fill="#263238"/>
              </g>
            </g>
            <g id="组_72" data-name="组 72" transform="translate(0 6.439)">
              <path id="路径_121" data-name="路径 121" d="M492.4,163.712l5.227,7.656s-8.109,4.059-11.2,3.986c-2.951-.07-4.02-.5-4.951-1.385-.576-.544-3.859-5.179-6.535-12.876-2.246-6.461,1.077-5.509,4.04-1.932,1.477,1.783,6.2,7.1,6.436,7.077S492.4,163.712,492.4,163.712Z" transform="translate(-474.198 -156.354)" fill="#ffc727"/>
              <path id="路径_122" data-name="路径 122" d="M519.181,179.7c.785,1.133,1.535,2.289,2.277,3.451.364.57,1.72,2.89,2.114,3.547.016.026-.056.069-.073.044-.409-.581-1.886-2.9-2.24-3.474-.721-1.173-1.434-2.35-2.11-3.55A.019.019,0,0,1,519.181,179.7Z" transform="translate(-502.593 -171.097)" fill="#263238"/>
              <path id="路径_123" data-name="路径 123" d="M487.988,175.508a6.7,6.7,0,0,1-1.567.194c-2.949-.069-4.019-.5-4.949-1.385-.577-.543-3.859-5.176-6.535-12.876a10.973,10.973,0,0,1-.74-3.34c0-.072,0-.144.007-.209a1.716,1.716,0,0,1,.019-.2c.007-.057.015-.11.027-.159a1.129,1.129,0,0,1,.323-.63C476.383,159.345,484.963,170.924,487.988,175.508Z" transform="translate(-474.197 -156.702)" opacity="0.1"/>
            </g>
            <g id="组_77" data-name="组 77" transform="translate(13.162)">
              <g id="组_75" data-name="组 75" transform="translate(0 10.653)">
                <g id="组_73" data-name="组 73">
                  <rect id="矩形_23" data-name="矩形 23" width="19.827" height="1.066" fill="#c7c7c7"/>
                </g>
                <g id="组_74" data-name="组 74" transform="translate(7.785)">
                  <path id="路径_124" data-name="路径 124" d="M543.12,167.8v1.066H531.078l.816-1.066Z" transform="translate(-531.078 -167.796)" fill="#a6a6a6"/>
                </g>
              </g>
              <g id="组_76" data-name="组 76" transform="translate(9.476)">
                <path id="路径_125" data-name="路径 125" d="M535.671,150.587h13.26l6.9-11.719h-13.26Z" transform="translate(-535.671 -138.868)" fill="#c7c7c7"/>
                <path id="路径_126" data-name="路径 126" d="M561.509,153.5a.892.892,0,0,0,.407,1.275,1.13,1.13,0,0,0,1.3-.69.892.892,0,0,0-.407-1.275A1.129,1.129,0,0,0,561.509,153.5Z" transform="translate(-551.924 -147.651)" fill="#fff"/>
              </g>
            </g>
          </g>
          <g id="组_80" data-name="组 80" transform="translate(0.644 13.394)">
            <g id="组_79" data-name="组 79" transform="translate(1.617)">
              <path id="路径_127" data-name="路径 127" d="M439.5,181.164c.049.053,20.759-.1,20.946-.31.26-.3-4.645-22.692-6.8-25.442-.461-.588-1.963-.737-3.236-.566a5.667,5.667,0,0,0-.98.211.165.165,0,0,1-.033.009,2.359,2.359,0,0,0-.718.361c-3.519,2.868-6.4,12.8-7.069,15.778C440.5,176.114,439.324,180.971,439.5,181.164Z" transform="translate(-439.48 -154.78)" fill="#ebebeb"/>
            </g>
            <path id="路径_128" data-name="路径 128" d="M446.4,155.673s1.351,9.218,1.669,11.6.016,15.006.016,15.006l-12.995,1.1s2.724-8.381,2.751-8.912c0,0,2.156-10.071,4.379-14.231A12.589,12.589,0,0,1,446.4,155.673Z" transform="translate(-435.09 -155.344)" fill="#ffc727"/>
            <path id="路径_129" data-name="路径 129" d="M477.554,156.109s1.754,9.324,1.911,10.094,2.4,15.923,2.4,15.923l3.253.068-1.767-6.921S479.582,157.542,477.554,156.109Z" transform="translate(-461.916 -155.62)" fill="#ffc727"/>
          </g>
          <g id="组_93" data-name="组 93" transform="translate(11.974)">
            <g id="组_82" data-name="组 82" transform="translate(0.191 9.687)">
              <g id="组_81" data-name="组 81">
                <path id="路径_130" data-name="路径 130" d="M469.76,151.891c-.989.113-2.858-1.261-3.38-2.717-.035-.1.259-1.047.562-2.214.181-.709.366-1.5.483-2.239.023-.151,4.44,1.853,4.44,1.853a11.884,11.884,0,0,0-.893,2.757,1.631,1.631,0,0,0-.016.307c0,.014,0,.032,0,.051C470.957,150.278,470.818,151.77,469.76,151.891Z" transform="translate(-466.377 -144.714)" fill="#c95f50"/>
              </g>
              <path id="路径_131" data-name="路径 131" d="M473.034,149.7c0,.015,0,.033,0,.051a3.15,3.15,0,0,1-.477-.05c-2.708-.49-2.888-4.006-2.889-4.89.8.247,4.277,1.825,4.277,1.825a11.918,11.918,0,0,0-.894,2.758A1.643,1.643,0,0,0,473.034,149.7Z" transform="translate(-468.454 -144.775)" fill="#263238"/>
            </g>
            <g id="组_92" data-name="组 92">
              <g id="组_83" data-name="组 83" transform="translate(0.893 1.625)">
                <path id="路径_132" data-name="路径 132" d="M468.679,125.023c-.709,1.582-.439,6.443.6,7.649,1.5,1.749,4.261,2.246,5.822.371,1.514-1.817,1.049-8.146-.137-9.273A4.134,4.134,0,0,0,468.679,125.023Z" transform="translate(-468.283 -122.82)" fill="#c95f50"/>
              </g>
              <g id="组_89" data-name="组 89" transform="translate(3.833 5.317)">
                <g id="组_84" data-name="组 84" transform="translate(0.331 1.625)">
                  <path id="路径_133" data-name="路径 133" d="M478.537,138.14c0-.012-.025.017-.024.031.027.327,0,.706-.288.83-.009,0-.007.02,0,.018C478.589,138.949,478.616,138.446,478.537,138.14Z" transform="translate(-477.832 -137.813)" fill="#263238"/>
                  <path id="路径_134" data-name="路径 134" d="M477.563,137.257c-.529-.013-.517,1.045-.027,1.058S478.006,137.268,477.563,137.257Z" transform="translate(-477.167 -137.257)" fill="#263238"/>
                </g>
                <g id="组_85" data-name="组 85" transform="translate(3.032 1.59)">
                  <path id="路径_135" data-name="路径 135" d="M484.523,138.1c0-.013.026.015.025.028-.006.328.041.7.339.811.009,0,.009.02,0,.018C484.523,138.91,484.464,138.409,484.523,138.1Z" transform="translate(-484.503 -137.752)" fill="#263238"/>
                  <path id="路径_136" data-name="路径 136" d="M484.824,137.163c.527-.046.581,1.011.092,1.054S484.382,137.2,484.824,137.163Z" transform="translate(-484.515 -137.162)" fill="#263238"/>
                </g>
                <path id="路径_137" data-name="路径 137" d="M476.571,134.665a4.113,4.113,0,0,0,.408-.149.7.7,0,0,0,.387-.232.224.224,0,0,0-.039-.27.555.555,0,0,0-.56-.051.813.813,0,0,0-.465.358A.239.239,0,0,0,476.571,134.665Z" transform="translate(-476.268 -133.519)" fill="#263238"/>
                <path id="路径_138" data-name="路径 138" d="M484.937,133.547a4.232,4.232,0,0,1-.422-.1.7.7,0,0,1-.41-.189.224.224,0,0,1,.01-.273.555.555,0,0,1,.551-.111.814.814,0,0,1,.5.306A.239.239,0,0,1,484.937,133.547Z" transform="translate(-481.192 -132.845)" fill="#263238"/>
                <path id="路径_139" data-name="路径 139" d="M478.731,146.375c.079.076.159.181.278.189a.871.871,0,0,0,.351-.087.011.011,0,0,1,.014.017.442.442,0,0,1-.414.183.35.35,0,0,1-.261-.287C478.695,146.371,478.72,146.364,478.731,146.375Z" transform="translate(-477.804 -141.389)" fill="#263238"/>
                <g id="组_87" data-name="组 87" transform="translate(1.253 0.425)">
                  <g id="组_86" data-name="组 86">
                    <path id="路径_140" data-name="路径 140" d="M479.679,137.575a1.118,1.118,0,0,0,.751.488,1.426,1.426,0,0,0,.4.014.4.4,0,0,0,.077-.01.689.689,0,0,0,.071-.012.082.082,0,0,0,.065-.074v0a.179.179,0,0,0,0-.033v-.031c0-.252-.025-.636-.025-.636.093.045.566.251.557.119a16.8,16.8,0,0,0-.473-3.374.03.03,0,0,0-.06.009c.034,1.052.252,2.09.3,3.146a1.947,1.947,0,0,0-.529-.154c-.036.011.069.74.059.854a.047.047,0,0,1,0,.012,1.547,1.547,0,0,1-1.16-.345C479.685,137.527,479.659,137.549,479.679,137.575Z" transform="translate(-479.672 -134)" fill="#263238"/>
                  </g>
                </g>
                <g id="组_88" data-name="组 88" transform="translate(1.128 3.991)">
                  <path id="路径_141" data-name="路径 141" d="M480.467,144.068a1.325,1.325,0,0,1-.526.417.6.6,0,0,1-.362.027c-.263-.066-.272-.306-.226-.512a1.435,1.435,0,0,1,.114-.316A1.716,1.716,0,0,0,480.467,144.068Z" transform="translate(-479.332 -143.684)" fill="#263238"/>
                  <path id="路径_142" data-name="路径 142" d="M479.941,145.027a.6.6,0,0,1-.362.027c-.263-.066-.272-.306-.226-.512A.615.615,0,0,1,479.941,145.027Z" transform="translate(-479.332 -144.226)" fill="#ff9bbc"/>
                </g>
              </g>
              <g id="组_90" data-name="组 90" transform="translate(0.027)">
                <path id="路径_143" data-name="路径 143" d="M466.791,126.459s-1.174-2.916-.775-4.425c.181-.683,1.2-1,1.2-1a1.589,1.589,0,0,1,.752-1.5c.946-.638,2.9-.142,2.9-.142s1.591-1.65,3.291-.616.178,2.905.178,2.905.514,1.057-1.239,1.533c-1.707.463-4.841-.777-4.841-.777a11.48,11.48,0,0,1-.6,3.357A1.044,1.044,0,0,1,466.791,126.459Z" transform="translate(-465.933 -118.43)" fill="#263238"/>
                <path id="路径_144" data-name="路径 144" d="M473.2,120.394a3.242,3.242,0,0,0-1.243-.443,3.488,3.488,0,0,0-1.183-.007,1.937,1.937,0,0,0-1.582,1.218,1.353,1.353,0,0,0,.09,1.05c.007.014.027,0,.02-.013a1.413,1.413,0,0,1,.523-1.73,2.926,2.926,0,0,1,2.038-.4,5.7,5.7,0,0,1,1.319.36A.021.021,0,0,0,473.2,120.394Z" transform="translate(-467.949 -119.348)" fill="#263238"/>
                <path id="路径_145" data-name="路径 145" d="M484.168,119.853a1.579,1.579,0,0,0-.917-1.17,2.692,2.692,0,0,0-1.734-.221,3.4,3.4,0,0,0-1.581.815c-.01.009.005.027.016.018a2.981,2.981,0,0,1,2.986-.588,1.458,1.458,0,0,1,.775,2.332,3.041,3.041,0,0,1-1.362.983.01.01,0,0,0,.007.019,3.121,3.121,0,0,0,1.329-.806A1.765,1.765,0,0,0,484.168,119.853Z" transform="translate(-474.778 -118.408)" fill="#263238"/>
                <path id="路径_146" data-name="路径 146" d="M476.08,129.6a5.567,5.567,0,0,1-2.355.024,11.4,11.4,0,0,1-2.357-.723c-.442-.186-.877-.389-1.308-.6-.014-.007-.023.013-.011.021a12.4,12.4,0,0,0,2.343,1.163,6.234,6.234,0,0,0,2.384.366,5.281,5.281,0,0,0,1.31-.236C476.1,129.615,476.091,129.6,476.08,129.6Z" transform="translate(-468.53 -124.659)" fill="#263238"/>
              </g>
              <g id="组_91" data-name="组 91" transform="translate(0 6.523)">
                <path id="路径_147" data-name="路径 147" d="M467.855,137.5s-.914-1.653-1.653-1.343-.165,2.628.623,3.02a.839.839,0,0,0,1.165-.331Z" transform="translate(-465.859 -136.121)" fill="#c95f50"/>
                <path id="路径_148" data-name="路径 148" d="M467.258,138.02c-.013,0-.017.015-.007.021a2.12,2.12,0,0,1,.951,1.435.463.463,0,0,0-.676-.2c-.016.009,0,.034.013.032a.516.516,0,0,1,.546.239,2.478,2.478,0,0,1,.222.486c.021.054.117.036.1-.025l0-.014A1.864,1.864,0,0,0,467.258,138.02Z" transform="translate(-466.735 -137.32)" fill="#263238"/>
              </g>
            </g>
          </g>
          <g id="组_99" data-name="组 99" transform="translate(0 14.368)">
            <g id="组_96" data-name="组 96" transform="translate(0.253 0.107)">
              <g id="组_95" data-name="组 95">
                <g id="组_94" data-name="组 94">
                  <path id="路径_149" data-name="路径 149" d="M443.119,159.083c-5.214,5.854-9.136,14.1-9.088,16.039.052,2.135,2.768,9.657,5.359,13.192.333.454,2.35.264,4.058-.676,1.8-.991,3.276-2.76,2.922-3.286-1.328-1.976-4.477-9.636-4.448-10.834.026-1.107,2.607-7.885,3.59-11.807C446.456,157.943,445.544,156.359,443.119,159.083Z" transform="translate(-434.03 -157.715)" fill="#c95f50"/>
                </g>
              </g>
            </g>
            <g id="组_98" data-name="组 98">
              <path id="路径_150" data-name="路径 150" d="M435.788,187.552l9.71-4.742s-3.82-8.521-3.826-9.44,2.511-8.127,3.458-11.455.581-7.069-3.566-2.036-7.769,12.519-8.181,14.508S435.788,187.552,435.788,187.552Z" transform="translate(-433.342 -157.424)" fill="#ffc727"/>
              <g id="组_97" data-name="组 97" transform="translate(2.278 7.473)">
                <path id="路径_151" data-name="路径 151" d="M456.3,183.743q.3-.948.62-1.89.358-1.056.746-2.1c.253-.679.536-1.342.807-2.012.02-.048.1-.017.087.033-.323.9-.625,1.8-.926,2.706.227-.412.458-.823.7-1.227a.03.03,0,0,1,.053.029c-.271.5-.557.992-.848,1.482l-.218.654c-.407,1.216-.8,2.439-1.149,3.672a4.264,4.264,0,0,0-.174.847,2.6,2.6,0,0,0,.144.966c.177.569.375,1.133.576,1.695.4,1.128.846,2.242,1.309,3.347.526,1.257,1.124,2.5,1.722,3.726,0,0-.363.1-.373.1s-.028-.011-.02-.021.229-.119.235-.119c-.607-1.062-1.187-2.1-1.7-3.218s-.959-2.226-1.367-3.368c-.21-.588-.412-1.178-.6-1.774a3.325,3.325,0,0,1-.163-1.736A18.507,18.507,0,0,1,456.3,183.743Z" transform="translate(-449.752 -177.717)" fill="#263238"/>
                <path id="路径_152" data-name="路径 152" d="M439.536,225.472a9.948,9.948,0,0,1,1.06-.5c.316-.147.63-.3.949-.443.694-.313,1.387-.63,2.083-.94s1.386-.621,2.083-.923,1.38-.626,2.089-.888a.025.025,0,0,1,.021.046c-.645.4-1.332.725-2.009,1.063s-1.345.646-2.025.95-1.395.6-2.1.887c-.339.137-.683.262-1.027.389a8.8,8.8,0,0,1-1.108.393A.019.019,0,0,1,439.536,225.472Z" transform="translate(-439.527 -205.551)" fill="#263238"/>
              </g>
            </g>
          </g>
        </g>
      </g>
    </g>
  </g>
</svg>
