<?xml version="1.0" encoding="utf-8"?>
<!-- Generator: Adobe Illustrator 25.3.1, SVG Export Plug-In . SVG Version: 6.00 Build 0)  -->
<svg version="1.1" xmlns="http://www.w3.org/2000/svg" xmlns:xlink="http://www.w3.org/1999/xlink" x="0px" y="0px"
	 viewBox="0 0 1125 741.8" style="enable-background:new 0 0 1125 741.8;" xml:space="preserve">
<style type="text/css">
	.st0{display:none;}
	.st1{fill:#fff;}
</style>
<g id="Layer_1" class="st0">
	
		<image style="display:inline;overflow:visible;" width="600" height="399" xlink:href="cloud.svg"  transform="matrix(1.875 0 0 1.875 0 -1.2162)">
	</image>
</g>
<g id="Layer_2">
	<path class="st1" d="M392.5,631.7v110H237c0,0-179,1.9-227-181c-52-198.2,111.7-302.1,170.3-314.2c0,0,42.6-166.9,237.8-133.8
		c0,0,145.3-182.4,379.7-85.8c0,0,162.2,70.9,183.1,235.8c0,0,108.1,39.2,137.2,170.9c0,0,68.9,232.3-225,308H771.4l0.2-111.4
		l108.1,0.7c0,0,144.6-5.7,133.9-158.7c0,0,1.5-124.8-133.9-132.4c0,0,12.6-200.5-181-229.6c0,0-177.6-33.7-241.9,141.6
		c0,0-46.7-77.3-143.9-13.8c0,0-52.8,29.1-33.7,103.3c0,0-166.9-32.1-169.9,154.6c0,0,0,113.3,124,136.2L392.5,631.7z"/>
	<polygon class="st1" points="582.3,328.9 382.3,532.4 782.3,532.4 	"/>
	<rect x="474" y="532.4" class="st1" width="217.6" height="209.3"/>
</g>
</svg>
