<svg xmlns="http://www.w3.org/2000/svg" width="13.859" height="13.859" viewBox="0 0 13.859 13.859">
  <g id="组_9602" data-name="组 9602" transform="translate(-113.5 -161)">
    <g id="组件_25_1" data-name="组件 25 – 1" transform="translate(113.5 161)">
      <path id="路径_9234" data-name="路径 9234" d="M6.929,0A6.929,6.929,0,1,1,0,6.929,6.929,6.929,0,0,1,6.929,0Zm0,9.42a.681.681,0,1,0,.641.679.662.662,0,0,0-.641-.679h0Zm0-6.34a.661.661,0,0,0-.641.679V7.835a.643.643,0,1,0,1.283,0V3.76a.661.661,0,0,0-.641-.68Z" fill="#e24445"/>
    </g>
  </g>
</svg>
