<svg xmlns="http://www.w3.org/2000/svg" xmlns:xlink="http://www.w3.org/1999/xlink" width="101" height="77" viewBox="0 0 101 77">
  <defs>
    <clipPath id="clip-path">
      <rect id="矩形_20170" data-name="矩形 20170" width="101" height="77" rx="8" transform="translate(244 442)" fill="none"/>
    </clipPath>
  </defs>
  <g id="组_10650" data-name="组 10650" transform="translate(-244 -437)">
    <g id="蒙版组_3" data-name="蒙版组 3" transform="translate(0 -5)" clip-path="url(#clip-path)">
      <g id="Medicine-cuate" transform="translate(254.214 444.879)">
        <g id="freepik--Character--inject-21" transform="translate(4.497 20.254)">
          <path id="路径_11527" data-name="路径 11527" d="M40.2,15.094a3.725,3.725,0,0,1,3.359.86c1.273,1.257,2.334,5.532,2.707,6.441s1.636.854,2.1,1.9c.4.9-.229,1.36-.19,2.062.031.546.7,1.264.338,2.136-.329.793-1.136.766-1.574,1.068S46.378,31,45.549,31.435s-1.729-.239-2.193-.161-.787,1.592-2.322,1.709-2.178-1.095-2.844-1.248-2.167.536-3.009-.132-1.132-1.691-1.517-2.023-1.05-.164-1.593-.989.192-1.522.186-2.312c0-.55-.561-.968-.357-1.843.281-1.2,1.7-1.181,2.042-2.425.268-.974.489-5.058,2.722-6.419A5.452,5.452,0,0,1,40.2,15.094Z" transform="translate(-23.088 -14.981)" fill="#263238"/>
          <path id="路径_11528" data-name="路径 11528" d="M49.79,23.984a1.367,1.367,0,0,0,.486.446l.561.347a4.112,4.112,0,0,1,1.02.784,1.319,1.319,0,0,1,.33,1.126,2.029,2.029,0,0,1-.234.577,2.371,2.371,0,0,0-.281.635,1.12,1.12,0,0,0,.176.7c.1.2.213.387.3.58a1.552,1.552,0,0,1,.149,1.19.9.9,0,0,1-.35.475,1.636,1.636,0,0,1-.583.228c-.211.049-.428.077-.647.115a1.113,1.113,0,0,0-.608.245,1.166,1.166,0,0,1,.617-.178c.219-.019.439-.028.66-.061a1.758,1.758,0,0,0,.647-.214,1.083,1.083,0,0,0,.446-.543,1.7,1.7,0,0,0-.126-1.355c-.092-.205-.2-.4-.3-.6a.91.91,0,0,1-.149-.55c.074-.366.415-.744.492-1.211a1.479,1.479,0,0,0-.412-1.3,4.232,4.232,0,0,0-1.1-.76l-.6-.3A1.477,1.477,0,0,1,49.79,23.984Z" transform="translate(-26.698 -16.791)" fill="#263238"/>
          <path id="路径_11529" data-name="路径 11529" d="M34.718,18.984a19.039,19.039,0,0,0-.657,2.267c-.107.376-.2.757-.335,1.12a2.573,2.573,0,0,1-.237.509.382.382,0,0,1-.076.1.446.446,0,0,1-.094.085,2.185,2.185,0,0,1-.237.159,11.858,11.858,0,0,0-.988.666,2.014,2.014,0,0,0-.717.992,1.257,1.257,0,0,0-.024.626,1.627,1.627,0,0,0,.271.55,2.537,2.537,0,0,1,.537,1.029,2.387,2.387,0,0,0-.434-1.1,1.514,1.514,0,0,1-.217-.516,1.071,1.071,0,0,1,.054-.537,1.943,1.943,0,0,1,.674-.87,11.466,11.466,0,0,1,.982-.634c.083-.055.167-.112.248-.176a.832.832,0,0,0,.208-.248,2.764,2.764,0,0,0,.251-.562,9.6,9.6,0,0,0,.306-1.151l.226-1.16A10.084,10.084,0,0,1,34.718,18.984Z" transform="translate(-22.981 -15.784)" fill="#263238"/>
          <path id="路径_11530" data-name="路径 11530" d="M33.609,33.006a2.053,2.053,0,0,1,.375.744c.106.26.2.527.32.787a4.084,4.084,0,0,0,.419.754,1.867,1.867,0,0,0,.665.6,2.354,2.354,0,0,0,1.734-.073c.269-.1.528-.2.793-.3a1.76,1.76,0,0,1,.815-.128,1.636,1.636,0,0,0-.849.009c-.278.065-.546.149-.817.226a2.345,2.345,0,0,1-1.569.03,1.69,1.69,0,0,1-.582-.515,5.106,5.106,0,0,1-.437-.7c-.134-.245-.254-.5-.381-.744-.065-.126-.132-.251-.205-.373a.843.843,0,0,0-.281-.317Z" transform="translate(-23.441 -18.607)" fill="#263238"/>
          <path id="路径_11531" data-name="路径 11531" d="M48.456,71.615H35.571l-.766-15.938H46.319Z" transform="translate(-23.682 -23.17)" fill="#37474f"/>
          <path id="路径_11532" data-name="路径 11532" d="M42.713,55.677,41.352,66.471v.016l-.03.225-.055.442-.062.492-.022.176-.018.141-.46,3.652H35.571l-.766-15.938Z" transform="translate(-23.682 -23.17)" fill="#263238"/>
          <path id="路径_11533" data-name="路径 11533" d="M48.17,72.444h-.341c-.018-.141-.034-.281-.052-.422-.458-3.719-.9-7.438-1.29-11.157-.036-.341-.071-.683-.106-1.023,0-.054.086-.064.094-.01.031.229.064.458.094.687C47.12,64.49,47.643,68.468,48.17,72.444Z" transform="translate(-26.012 -23.999)" fill="#263238"/>
          <path id="路径_11534" data-name="路径 11534" d="M43.07,55.663a.047.047,0,0,1,0,.012c-.034.159-.411,1.906-.907,4.016-.027.115-.054.231-.082.347-.22.921-.46,1.9-.7,2.826a23.948,23.948,0,0,1-1.427,4.43.585.585,0,0,1-.162.189c-.119.07-.372.195-.686.342l-.208.1L38.717,68c-.714.327-1.572.7-1.97.867h0V68.9l-.138,2.713H24.472l1.285-7.735,1.552-8.21Z" transform="translate(-21.602 -23.167)" fill="#37474f"/>
          <path id="路径_11535" data-name="路径 11535" d="M43.929,69.795a25.963,25.963,0,0,0-4.079,1.9.046.046,0,0,0,.039.083c1.373-.6,2.774-1.154,4.113-1.819a.09.09,0,1,0-.073-.164Z" transform="translate(-24.693 -26.01)" fill="#263238"/>
          <path id="路径_11536" data-name="路径 11536" d="M44.775,58.009c0-.048-.086-.058-.086,0,.01,1.636-.094,3.064-.231,4.589-.064.707-.632,4.611-1.859,4.332-.205-.048-.311-.25-.342-.559a4.939,4.939,0,0,1,.162-1.2c.137-.818.245-1.636.315-2.466a22.352,22.352,0,0,0-.049-4.625.04.04,0,0,0-.079,0,42.81,42.81,0,0,1-.373,6.385c-.149,1.016-.666,2.547.4,2.7s1.785-2.405,1.916-3.107A23.443,23.443,0,0,0,44.775,58.009Z" transform="translate(-25.125 -23.632)" fill="#263238"/>
          <path id="路径_11537" data-name="路径 11537" d="M42.7,69.29a6.486,6.486,0,0,0-.277.809,1.876,1.876,0,0,0-.115.666c0,.043.062.048.085.018a2.319,2.319,0,0,0,.286-.647c.094-.251.192-.5.278-.753a.137.137,0,1,0-.257-.094Z" transform="translate(-25.192 -25.892)" fill="#263238"/>
          <path id="路径_11538" data-name="路径 11538" d="M31.292,70.323c-.122,1.413-.266,2.826-.418,4.235h-.132q.223-2.12.5-4.237C31.247,70.29,31.295,70.29,31.292,70.323Z" transform="translate(-22.864 -26.113)" fill="#263238"/>
          <path id="路径_11539" data-name="路径 11539" d="M41.761,36.957c1.111,3.624,5.92,16.567,9.145,18.539,2.111,1.29,12.713,2.023,14.752,1.077,1.132-.527.779-9.089-.555-9.136-1.665-.06-9.848-.28-10.753-.713S47.332,38.117,45,35.641C40.988,31.369,41.02,34.544,41.761,36.957Z" transform="translate(-25.004 -18.714)" fill="#eb9481"/>
          <path id="路径_11540" data-name="路径 11540" d="M62.5,46.685,60.984,57.157s-8.61.253-10.957-1.668c-3.345-2.734-8.143-16.568-8.687-18.733-1.29-5.132,1.584-4.275,3.845-1.785,1.468,1.621,7.244,9.916,9.383,11.444C55.175,46.854,62.5,46.685,62.5,46.685Z" transform="translate(-24.933 -18.605)" fill="#fff"/>
          <path id="路径_11541" data-name="路径 11541" d="M63.36,60.256c.177-1.554,1.134-7.884,1.433-9.242.021-.094.086-.1.077,0a83.231,83.231,0,0,1-1.447,9.25C63.415,60.3,63.355,60.3,63.36,60.256Z" transform="translate(-29.429 -22.217)" fill="#263238"/>
          <path id="路径_11542" data-name="路径 11542" d="M44.517,47.01,45.955,56.9s-16.122.238-20.125-.043c0,0,3.265-18.495,7.569-23.169,2.152-2.337,4.68-2.161,6.291-.528.408.414,5.27,6.843,5.782,9.3A7.509,7.509,0,0,1,44.517,47.01Z" transform="translate(-21.875 -18.391)" fill="#2fb355"/>
          <path id="路径_11543" data-name="路径 11543" d="M41.353,49.409a17.648,17.648,0,0,1,2.585-.043c.427.031.851.08,1.275.14.211.03.424.052.635.073a2.724,2.724,0,0,0,.669,0c.019,0,.024.027,0,.031a4.924,4.924,0,0,1-.625.1,4.436,4.436,0,0,1-.613,0c-.434-.027-.867-.073-1.3-.1-.875-.062-1.749-.126-2.627-.125C41.315,49.482,41.313,49.414,41.353,49.409Z" transform="translate(-24.994 -21.894)" fill="#263238"/>
          <path id="路径_11544" data-name="路径 11544" d="M38.918,50.681A19.125,19.125,0,0,1,41,50.2c.351-.06.7-.1,1.059-.128.168-.013.339-.025.509-.034s.375,0,.561,0a.016.016,0,1,1,0,.031c-.176.016-.35.062-.524.091l-.527.08c-.35.055-.7.115-1.052.167-.7.1-1.4.213-2.1.341C38.882,50.742,38.876,50.689,38.918,50.681Z" transform="translate(-24.504 -22.034)" fill="#263238"/>
          <path id="路径_11545" data-name="路径 11545" d="M35.6,66.933H22.884c1.488-9.345,3.273-18.916,4.991-23.732,3.7-10.385,6.716-10.782,6.716-10.782v.012c.016.439.446,12.21.776,24.659C35.456,60.39,35.538,63.737,35.6,66.933Z" transform="translate(-21.282 -18.489)" fill="#fff"/>
          <path id="路径_11546" data-name="路径 11546" d="M34.268,67.979c0-.363-.08-2.083-.113-2.429h0c0-.04-.015-.12-.048-.12-.475,0-2.121.168-3.78.168a30.1,30.1,0,0,1-3.545-.277c-.055.016-.055,1.906-.085,2.819-.059,1.906.028,4.061.434,4.463.759.744,2.78.68,3.421.674s2.9-.007,3.432-1.174A21.816,21.816,0,0,0,34.268,67.979Zm-.3,1.934a4.39,4.39,0,0,1-.418,2.28c-.309.418-1.183.839-3.192.837a4.971,4.971,0,0,1-3.012-.653,5.138,5.138,0,0,1-.446-2.587V66.724a18.8,18.8,0,0,0,7.066.094c0,.046.03,2.359.007,3.1Zm.007-3.273a20.976,20.976,0,0,1-7.072-.149v-.977a19.769,19.769,0,0,0,3.453.327c1.177,0,2.905-.164,3.639-.251-.021.289-.006.916-.015,1.049Z" transform="translate(-22.046 -25.112)" fill="#dbdbdb"/>
          <path id="路径_11547" data-name="路径 11547" d="M33.8,37.494c-.716,2.962-4.4,13.5-5.311,14.41-1.09,1.089-5.845,4.437-7.5-.021-1.148-3.087,6.655-13.907,10.343-17.4C33.135,32.782,35,32.532,33.8,37.494Z" transform="translate(-20.878 -18.681)" fill="snow"/>
          <path id="路径_11548" data-name="路径 11548" d="M34.681,44.99c-.223.412-.469.812-.71,1.214q.085-.223.165-.446c.232-.641.446-1.29.683-1.934.009-.021-.024-.028-.033-.009-.248.558-.512,1.111-.754,1.673s-.446,1.1-.666,1.662c-.433,1.123-.872,2.245-1.273,3.38a18.6,18.6,0,0,0-.61,1.916c0,.018.022.031.031.013.266-.537.476-1.1.69-1.662s.428-1.113.637-1.672.43-1.138.65-1.7c.11-.286.225-.568.336-.852a8.925,8.925,0,0,0,.867-1.58S34.684,44.982,34.681,44.99Z" transform="translate(-23.013 -20.78)" fill="#263238"/>
          <path id="路径_11549" data-name="路径 11549" d="M36.79,32.436q-.6,1.255-1.154,2.529c-.372.848-.756,1.69-1.116,2.544l-.045.107.1.065,1.56,1.055-.037-.225c-.424.634-.835,1.275-1.248,1.914l-.04.062.022.068c.418,1.3.821,2.6,1.26,3.885s.869,2.581,1.33,3.868q-.531-1.975-1.113-3.932c-.375-1.309-.785-2.606-1.181-3.909l-.018.131c.419-.635.842-1.269,1.253-1.912l.085-.134-.129-.085-1.58-1.026.054.173c.354-.855.681-1.721,1.023-2.581S36.472,33.3,36.79,32.436Z" transform="translate(-23.615 -18.492)" fill="#dbdbdb"/>
          <path id="路径_11550" data-name="路径 11550" d="M50.876,67.034H46.282c-.272-3.218-.552-6.581-.829-9.888-.394-4.726-.784-9.337-1.147-13.25a80.14,80.14,0,0,0-1.715-10.817c-.021-.091-.034-.149-.037-.156h0a2.026,2.026,0,0,1,.486.424l.015.015.049.055a.467.467,0,0,1,.037.042,39.309,39.309,0,0,1,3.286,4.463,18.706,18.706,0,0,1,2.38,4.622l.013.059c.007.034.013.067.019.1a5.767,5.767,0,0,1,.082.857h0a6.57,6.57,0,0,1-.879,3.345.208.208,0,0,1-.013.025c-.039.065-.062.1-.062.1v.016l1.505,10.306Z" transform="translate(-25.241 -18.59)" fill="#fff"/>
          <path id="路径_11551" data-name="路径 11551" d="M48.093,40.52c-.446-.717-.912-1.427-1.354-2.15-.013-.021.019-.045.034-.025.446.6.893,1.19,1.325,1.8-.149-.323-.284-.647-.414-.977-.015-.037.037-.068.055-.031.2.424.381.855.559,1.29a12.3,12.3,0,0,1,1.029,1.7,5.936,5.936,0,0,1,.546,4.024,5.006,5.006,0,0,1-.4,1.1c-.119.238-.507.756-.5.771.253,1.41.446,2.837.641,4.256s.4,2.871.573,4.314c.094.815.149,1.636.274,2.45,0,.03-.042.042-.046.012-.1-.708-.256-1.409-.382-2.114s-.244-1.41-.359-2.118c-.229-1.428-.434-2.862-.641-4.295-.116-.809-.244-1.62-.336-2.434a7.82,7.82,0,0,1,.464-.893,5.768,5.768,0,0,0,.354-.931,5.206,5.206,0,0,0,.17-2A9.211,9.211,0,0,0,48.093,40.52Z" transform="translate(-26.083 -19.68)" fill="#263238"/>
          <path id="路径_11552" data-name="路径 11552" d="M42.6,33.12q.711,1.08,1.447,2.141c.494.705.976,1.419,1.479,2.117l.01-.167L44.33,38.476l-.1.1.106.1c.509.492,1.026.976,1.543,1.461l-.043-.125c-.187,1.312-.388,2.621-.555,3.936s-.344,2.628-.488,3.946c.25-1.3.478-2.608.7-3.915s.422-2.617.631-3.924l.012-.074-.055-.052c-.51-.491-1.02-.983-1.538-1.465v.207l1.19-1.288.074-.08-.064-.086c-.507-.695-1.041-1.374-1.553-2.063S43.138,33.795,42.6,33.12Z" transform="translate(-25.251 -18.63)" fill="#dbdbdb"/>
          <path id="路径_11553" data-name="路径 11553" d="M35.2,34.374c-.12-1.76,2.011-2.459,3.329-2.64,1.56-.214,2.6-.085,3.351,1.43a19.483,19.483,0,0,1,1.517,5.2.258.258,0,0,0,.509-.083c-.358-2.013-.873-5.769-2.878-6.861-1.846-1.007-6.545.06-6.337,3.041C34.714,34.788,35.223,34.7,35.2,34.374Z" transform="translate(-23.657 -18.212)" fill="#455a64"/>
          <path id="路径_11554" data-name="路径 11554" d="M46.975,40.866a1.19,1.19,0,1,1-1.357-.979A1.19,1.19,0,0,1,46.975,40.866Z" transform="translate(-25.655 -19.989)" fill="#263238"/>
          <path id="路径_11555" data-name="路径 11555" d="M46.63,41.06a.711.711,0,1,1-.284-.468A.713.713,0,0,1,46.63,41.06Z" transform="translate(-25.777 -20.106)" fill="#ebebeb"/>
          <path id="路径_11556" data-name="路径 11556" d="M37.415,42.115c1.3,4.943,1.1,6.151.69,6.719a3.273,3.273,0,0,1-1.16.937l-.149-.326.074.162-.074-.162a2.975,2.975,0,0,0,1.019-.821c.3-.411.541-1.523-.744-6.419Z" transform="translate(-24.082 -20.44)" fill="#c7c7c7"/>
          <rect id="矩形_20183" data-name="矩形 20183" width="0.765" height="1.244" rx="0.207" transform="matrix(-0.485, -0.875, 0.875, -0.485, 12.369, 29.83)" fill="#263238"/>
          <path id="路径_11557" data-name="路径 11557" d="M33.186,42.254c-.98,3.719-1.217,5.766-.744,6.419a2.966,2.966,0,0,0,1.019.82l-.149.327a3.273,3.273,0,0,1-1.16-.937c-.562-.777-.363-2.724.689-6.719Z" transform="translate(-23.086 -20.45)" fill="#c7c7c7"/>
          <rect id="矩形_20184" data-name="矩形 20184" width="0.765" height="1.244" rx="0.207" transform="translate(9.636 29.265) rotate(-61.06)" fill="#263238"/>
          <path id="路径_11558" data-name="路径 11558" d="M32.933,40.524a20.507,20.507,0,0,1,.641-2.437,2.154,2.154,0,0,1,.717-.881,3.528,3.528,0,0,0,0-1.147,2.754,2.754,0,0,1,.028-1.125.354.354,0,0,1,.492-.025,2.781,2.781,0,0,1,.149,1.116,3.6,3.6,0,0,0,.125,1.139,2.349,2.349,0,0,1,.766.814,17,17,0,0,1,.857,2.432c.115.53-.06.6-.211.649-.214.073-.351-.074-.519-.66-.268-.928-.605-2.492-1.253-2.487h0c-.641.065-.9,1.721-1.107,2.645-.129.579-.251.634-.473.583C32.991,41.1,32.832,41.037,32.933,40.524Z" transform="translate(-23.298 -18.972)" fill="#263238"/>
          <path id="路径_11559" data-name="路径 11559" d="M41.758,31.153s.149,2.866-.381,2.914c-1.605.149-3.39-2.059-3.488-2.408-.025-.089.1-2.315.21-4.045.067-1.113.125-2.02.125-2.02l4.1,2.35L41.8,30.938Z" transform="translate(-24.302 -17.115)" fill="#f7a9a0"/>
          <path id="路径_11560" data-name="路径 11560" d="M42.378,27.944l-.528,2.994a6.1,6.1,0,0,1-3.7-3.325c.067-1.113.125-2.02.125-2.02l.516.274Z" transform="translate(-24.355 -17.115)" fill="#ef8174"/>
          <path id="路径_11561" data-name="路径 11561" d="M46.274,21.1c.855,5.269-2.2,6.376-3.341,6.559-1.031.167-4.564.6-5.959-4.55s.784-7.215,3.124-7.72S45.419,15.827,46.274,21.1Z" transform="translate(-24.03 -15.035)" fill="#f7a9a0"/>
          <path id="路径_11562" data-name="路径 11562" d="M46.922,21.614a3.389,3.389,0,0,1-.367-.043.6.6,0,0,1-.364-.115.19.19,0,0,1-.021-.231.469.469,0,0,1,.446-.149.683.683,0,0,1,.455.2.2.2,0,0,1-.149.333Z" transform="translate(-25.963 -16.204)" fill="#263238"/>
          <path id="路径_11563" data-name="路径 11563" d="M42.589,22.168c.123-.027.232-.071.351-.109a.6.6,0,0,0,.339-.18.189.189,0,0,0-.022-.231.467.467,0,0,0-.472-.067.692.692,0,0,0-.411.283.2.2,0,0,0,.214.3Z" transform="translate(-25.2 -16.3)" fill="#263238"/>
          <path id="路径_11564" data-name="路径 11564" d="M43.831,23.827c0-.013-.025.019-.024.034.054.36.054.781-.26.939-.009,0,0,.022,0,.019C43.944,24.718,43.939,24.159,43.831,23.827Z" transform="translate(-25.44 -16.759)" fill="#263238"/>
          <path id="路径_11565" data-name="路径 11565" d="M43.344,23.4c-.585.022-.5,1.19.046,1.172S43.835,23.382,43.344,23.4Z" transform="translate(-25.32 -16.673)" fill="#263238"/>
          <path id="路径_11566" data-name="路径 11566" d="M42.99,23.5c-.1.074-.189.2-.311.22s-.259-.089-.36-.2c-.01-.01-.021,0-.019.016.013.223.118.446.36.463s.364-.2.4-.427C43.07,23.528,43.025,23.472,42.99,23.5Z" transform="translate(-25.19 -16.692)" fill="#263238"/>
          <path id="路径_11567" data-name="路径 11567" d="M46.394,23.49c0-.015.03.015.03.03.013.363.089.776.425.875.01,0,.01.022,0,.021C46.443,24.387,46.348,23.835,46.394,23.49Z" transform="translate(-26.012 -16.691)" fill="#263238"/>
          <path id="路径_11568" data-name="路径 11568" d="M46.692,22.987c.58-.083.705,1.083.168,1.16S46.206,23.058,46.692,22.987Z" transform="translate(-26.012 -16.589)" fill="#263238"/>
          <path id="路径_11569" data-name="路径 11569" d="M47.07,23.019c.1.052.2.149.314.149s.208-.149.277-.271c.007-.013.018,0,.019.01.031.223-.018.463-.228.528s-.356-.116-.433-.332C47.007,23.065,47.03,23,47.07,23.019Z" transform="translate(-26.14 -16.571)" fill="#263238"/>
          <path id="路径_11570" data-name="路径 11570" d="M44.273,27.378c.089.082.18.2.312.2a.967.967,0,0,0,.388-.1.012.012,0,0,1,.015.018.488.488,0,0,1-.446.211.387.387,0,0,1-.3-.312C44.233,27.378,44.26,27.378,44.273,27.378Z" transform="translate(-25.581 -17.474)" fill="#263238"/>
          <path id="路径_11571" data-name="路径 11571" d="M45.723,24.694s.122.534.149.79c0,.024-.06.04-.149.054h-.009a1.214,1.214,0,0,1-1.217-.35c-.021-.024.009-.052.034-.039a1.837,1.837,0,0,0,1.135.22c.012-.071-.239-.907-.2-.913a2.167,2.167,0,0,1,.6.08c-.222-1.12-.622-2.2-.826-3.314A.036.036,0,0,1,45.3,21.2a18.5,18.5,0,0,1,1.041,3.531C46.37,24.874,45.829,24.728,45.723,24.694Z" transform="translate(-25.631 -16.227)" fill="#263238"/>
          <path id="路径_11572" data-name="路径 11572" d="M45.408,26.489a1.206,1.206,0,0,1-.472.4.538.538,0,0,1-.333.036c-.244-.052-.259-.274-.223-.466a1.3,1.3,0,0,1,.1-.3A1.569,1.569,0,0,0,45.408,26.489Z" transform="translate(-25.606 -17.229)" fill="#263238"/>
          <path id="路径_11573" data-name="路径 11573" d="M44.936,26.964A.538.538,0,0,1,44.6,27c-.244-.052-.259-.274-.223-.466A.57.57,0,0,1,44.936,26.964Z" transform="translate(-25.606 -17.304)" fill="#ff99ba"/>
          <path id="路径_11574" data-name="路径 11574" d="M36.886,23.246a2.2,2.2,0,0,0,1.239-1.785,5.727,5.727,0,0,0,2.346-1.871c-.036.11-.3.9-.446,1.3a5.931,5.931,0,0,0,4.445-3.2,5.788,5.788,0,0,1,1.465,2.151,6.334,6.334,0,0,0-1.026-3.47,3.067,3.067,0,0,0-3.168-1.159,4.283,4.283,0,0,0-4.588,1.19C34.943,18.783,36.886,23.246,36.886,23.246Z" transform="translate(-23.941 -14.978)" fill="#263238"/>
          <path id="路径_11575" data-name="路径 11575" d="M43.8,20.9a6.248,6.248,0,0,1-1.737.629h0a5.317,5.317,0,0,0,2.49-1.488,4.949,4.949,0,0,0,.735-1.017,3.491,3.491,0,0,0,.457-1.288.027.027,0,0,1,.052,0,4.075,4.075,0,0,1-.275,1.339,3.719,3.719,0,0,1-.76,1.105,4.269,4.269,0,0,1-.962.72" transform="translate(-25.142 -15.529)" fill="#263238"/>
          <path id="路径_11576" data-name="路径 11576" d="M42.647,25.421a1.666,1.666,0,1,1,1.566-2.114h0a1.668,1.668,0,0,1-1.157,2.053A1.7,1.7,0,0,1,42.647,25.421Zm-.071-3.109a1.41,1.41,0,0,0-.356.054,1.441,1.441,0,1,0,.356-.054Z" transform="translate(-24.917 -16.409)" fill="#2fb355"/>
          <path id="路径_11577" data-name="路径 11577" d="M47.466,24.735a1.556,1.556,0,0,1-1.352-1.488,1.987,1.987,0,0,1,.187-1.2,1.041,1.041,0,0,1,1.758-.248,1.987,1.987,0,0,1,.512,1.105,1.5,1.5,0,0,1-1,1.822A.654.654,0,0,1,47.466,24.735Zm-.239-3.094a.811.811,0,0,0-.085,0,.893.893,0,0,0-.644.5,1.766,1.766,0,0,0-.162,1.067c.11.788.652,1.367,1.208,1.288s.918-.784.808-1.571a1.785,1.785,0,0,0-.446-.982.915.915,0,0,0-.678-.306Z" transform="translate(-25.953 -16.275)" fill="#2fb355"/>
          <path id="路径_11578" data-name="路径 11578" d="M44.96,23.728l-.167-.149a.911.911,0,0,1,1.223-.235l-.14.174C45.461,23.182,44.979,23.707,44.96,23.728Z" transform="translate(-25.692 -16.63)" fill="#2fb355"/>
          <path id="路径_11579" data-name="路径 11579" d="M35.819,25.332l-.21-.074c.034-.1.35-.962.83-1.111.446-.138,3.447-.278,3.57-.283l.01.222c-.858.039-3.17.167-3.517.274C36.188,24.451,35.9,25.088,35.819,25.332Z" transform="translate(-23.844 -16.767)" fill="#2fb355"/>
          <path id="路径_11580" data-name="路径 11580" d="M37.648,25.116s-1.285-1.575-2.01-1.1.33,2.819,1.238,3.076a.9.9,0,0,0,1.169-.573Z" transform="translate(-23.801 -16.779)" fill="#f7a9a0"/>
          <path id="路径_11581" data-name="路径 11581" d="M36.1,24.865a.012.012,0,1,0,0,.024,2.286,2.286,0,0,1,1.282,1.339.5.5,0,0,0-.754-.08.02.02,0,0,0,.019.033.553.553,0,0,1,.623.149,2.677,2.677,0,0,1,.329.472c.033.054.131.016.106-.046V26.74C37.65,25.944,36.952,24.882,36.1,24.865Z" transform="translate(-23.939 -16.968)" fill="#263238"/>
          <path id="路径_11582" data-name="路径 11582" d="M37.762,27.5a.187.187,0,1,1-.195-.164.187.187,0,0,1,.195.164Z" transform="translate(-24.202 -17.466)" fill="#fff"/>
          <path id="路径_11583" data-name="路径 11583" d="M37.122,27.145A.118.118,0,1,1,37,27.033.118.118,0,0,1,37.122,27.145Z" transform="translate(-24.101 -17.405)" fill="#fff"/>
          <path id="路径_11584" data-name="路径 11584" d="M41.568,32.6l-.893,2.338-2.939-2.881-.8.958s2.91,4.611,2.923,4.4l.918-2.019,1.407,1.366-.179-3.491Z" transform="translate(-24.111 -18.415)" fill="#2fb355"/>
          <path id="路径_11585" data-name="路径 11585" d="M42.187,35.268c-.048-.576-.082-1.156-.149-1.729a.02.02,0,0,0-.04,0,32.064,32.064,0,0,0,.1,3.286h0c-.058-.06-1.3-1.2-1.315-1.181-.2.321-.875,1.785-.921,1.925-.46-.732-2.408-3.618-2.95-4.314a.02.02,0,0,0-.034.021c.409.775,2.929,4.583,2.963,4.571a22.731,22.731,0,0,0,.959-2.133,15.287,15.287,0,0,0,1.473,1.455A17.936,17.936,0,0,0,42.187,35.268Z" transform="translate(-24.099 -18.655)" fill="#263238"/>
          <path id="路径_11586" data-name="路径 11586" d="M42.863,41.6s-1.15-1.517-.052-2.218,1.989.982,1.989.982Z" transform="translate(-25.198 -19.856)" fill="#455a64"/>
          <path id="路径_11587" data-name="路径 11587" d="M52.082,51.859h0l.159,1.855.057.613-.537-.3-1.613-.931h0l-7.2-11.282,1.934-1.236Z" transform="translate(-25.321 -20.13)" fill="#455a64"/>
          <path id="路径_11588" data-name="路径 11588" d="M54.466,57.03l.054.611-.536-.3Z" transform="translate(-27.542 -23.443)" fill="#37474f"/>
          <rect id="矩形_20185" data-name="矩形 20185" width="2.682" height="0.533" transform="matrix(0.843, -0.538, 0.538, 0.843, 17.426, 21.724)" fill="#263238"/>
          <rect id="矩形_20186" data-name="矩形 20186" width="2.682" height="0.533" transform="matrix(0.843, -0.538, 0.538, 0.843, 17.741, 22.222)" fill="#263238"/>
          <path id="路径_11589" data-name="路径 11589" d="M43.449,43.242l.729-.466,2.2,4.339-.278.155Z" transform="translate(-25.421 -20.573)" fill="#263238"/>
          <path id="路径_11590" data-name="路径 11590" d="M34.477,47.188c1.105-.219,4.463,9.23,2.849,9.63-7.164,1.785-13.029.66-14.419,0a3.073,3.073,0,0,1-1.212-4.293C23.023,50.652,32.763,47.528,34.477,47.188Z" transform="translate(-20.956 -21.461)" fill="#f7a9a0"/>
          <path id="路径_11591" data-name="路径 11591" d="M51.455,45.942c-.018,1.09-2.7.82-2.7.82a2.008,2.008,0,0,1,.8,1.114c.186.808-1,1.453-1,1.453a2.484,2.484,0,0,1,.652,1.308c.1.791-1,1.612-1,1.612a2.175,2.175,0,0,1-.149,1.511c-.665,1.229-8.085,2.416-9.009,2.584l-1.785-9.669s5.83-3.3,7.438-3.186C46.046,43.571,51.482,44.271,51.455,45.942Z" transform="translate(-24.175 -20.716)" fill="#f7a9a0"/>
          <path id="路径_11592" data-name="路径 11592" d="M50.507,47.383a18.141,18.141,0,0,0-4.4-.634.025.025,0,1,0,0,.051c1.461.067,2.938.527,4.393.653a.036.036,0,0,0,.01-.07Z" transform="translate(-25.951 -21.373)" fill="#263238"/>
          <path id="路径_11593" data-name="路径 11593" d="M50.276,50.637a3.884,3.884,0,0,0-1.009-.077q-.538,0-1.075.009-1.077.027-2.151.109a.025.025,0,0,0,0,.051c.714-.016,1.43-.022,2.145-.009.359,0,.716.016,1.074.028a4.6,4.6,0,0,0,1.012-.012.052.052,0,0,0,0-.1Z" transform="translate(-25.938 -22.139)" fill="#263238"/>
          <path id="路径_11594" data-name="路径 11594" d="M49.94,54.439a2.707,2.707,0,0,0-.91-.021l-.982.04c-.653.022-1.306.045-1.961.045a.025.025,0,1,0,0,.051c.665,0,1.33.016,1.993.013.327,0,.653,0,.98-.009a2.481,2.481,0,0,0,.893-.086.018.018,0,0,0-.013-.033Z" transform="translate(-25.947 -22.911)" fill="#263238"/>
          <path id="路径_11595" data-name="路径 11595" d="M33.331,47.345l3.209,10.646s-11.686.57-14.193-1.253a3.267,3.267,0,0,1-.811-4.473C23.254,50.473,33.331,47.345,33.331,47.345Z" transform="translate(-20.898 -21.493)" fill="snow"/>
          <path id="路径_11596" data-name="路径 11596" d="M35.935,57.874c-.5-1.488-2.347-7.616-2.657-8.968-.021-.094.033-.129.068-.036a83.56,83.56,0,0,1,2.646,8.982C36,57.891,35.949,57.914,35.935,57.874Z" transform="translate(-23.373 -21.789)" fill="#263238"/>
          <path id="路径_11597" data-name="路径 11597" d="M33.947,47.207c-.064-.013-1.19.278-1.55.384q-1.055.314-2.094.681a42.651,42.651,0,0,0-4.058,1.669l-.2.1c-.483.116-.955.283-1.425.437-.013,0,0,.025,0,.021.376-.125.759-.223,1.141-.324-.211.1-.424.207-.632.315-.37.192-.732.4-1.1.6a.01.01,0,1,0,.01.018c.617-.32,1.258-.6,1.892-.893s1.294-.57,1.949-.835c1.29-.522,2.6-.989,3.936-1.4.375-.115.744-.225,1.128-.332.184-.052.952-.312.985-.315a.321.321,0,0,1,.04.089c.009.031.045.031.037,0A.927.927,0,0,0,33.947,47.207Z" transform="translate(-21.512 -21.465)" fill="#263238"/>
          <path id="路径_11598" data-name="路径 11598" d="M35.831,60.609c-.339-.024-1.59.037-1.925.037-.675,0-1.349,0-2.025-.012-1.357-.036-2.707-.134-4.058-.263-.373-.036-.744-.076-1.122-.116s-.784-.07-1.168-.14c-.015,0-.021.021,0,.024.336.049.666.128,1,.186s.671.109,1.009.156c.675.1,1.354.162,2.033.219a40.651,40.651,0,0,0,4.083.123,21.39,21.39,0,0,0,2.188-.149C35.886,60.673,35.87,60.612,35.831,60.609Z" transform="translate(-21.813 -24.064)" fill="#263238"/>
          <path id="路径_11599" data-name="路径 11599" d="M63.465,59.282l-12.272.89L55.78,44.014l12.272-.89Z" transform="translate(-26.98 -20.644)" fill="#fff"/>
          <path id="路径_11600" data-name="路径 11600" d="M64.516,59.206l-12.271.89,4.588-16.158,12.271-.89Z" transform="translate(-27.192 -20.628)" fill="#37474f"/>
          <path id="路径_11601" data-name="路径 11601" d="M59.4,43.9a1.078,1.078,0,0,1-.479.678c-.112.071-.149-.079-.043-.149a.817.817,0,0,0,.327-.43c.007-.028.016-.061.021-.089a.57.57,0,0,0,0-.3.19.19,0,0,0-.076-.1.027.027,0,0,1-.009-.007h-.015a.092.092,0,0,1-.024,0,.162.162,0,0,0-.086.013.355.355,0,0,0-.134.1.769.769,0,0,0-.11.173.921.921,0,0,0-.048.094v.022a.124.124,0,0,0-.012.033s-.009.013-.007.021l-.174.013a1.324,1.324,0,0,1,.149-.315.672.672,0,0,1,.446-.335.271.271,0,0,1,.3.232.7.7,0,0,1-.024.345Z" transform="translate(-28.458 -20.683)" fill="#2fb355"/>
          <path id="路径_11602" data-name="路径 11602" d="M60.606,43.809a1.09,1.09,0,0,1-.479.678c-.113.071-.149-.079-.043-.149a.806.806,0,0,0,.326-.43.652.652,0,0,0,.022-.089.57.57,0,0,0,0-.3.192.192,0,0,0-.077-.1h-.046a.162.162,0,0,0-.086.013.355.355,0,0,0-.134.1.677.677,0,0,0-.11.173.946.946,0,0,0-.048.1v.021a.1.1,0,0,0-.013.033c0,.007-.007.015,0,.021l-.174.013a1.269,1.269,0,0,1,.149-.315.669.669,0,0,1,.446-.335.272.272,0,0,1,.3.232A.719.719,0,0,1,60.606,43.809Z" transform="translate(-28.701 -20.666)" fill="#2fb355"/>
          <path id="路径_11603" data-name="路径 11603" d="M61.8,43.728a1.093,1.093,0,0,1-.48.68c-.112.07-.149-.08-.043-.149a.809.809,0,0,0,.327-.43.632.632,0,0,1,.022-.088.6.6,0,0,0,0-.3.183.183,0,0,0-.076-.1H61.5a.149.149,0,0,0-.085.012.36.36,0,0,0-.135.1.769.769,0,0,0-.11.173c-.018.03-.031.062-.048.1v.021a.149.149,0,0,0-.012.033c0,.007-.007.015,0,.021l-.174.013a1.262,1.262,0,0,1,.149-.315.668.668,0,0,1,.446-.333.269.269,0,0,1,.3.231A.717.717,0,0,1,61.8,43.728Z" transform="translate(-28.942 -20.651)" fill="#2fb355"/>
          <path id="路径_11604" data-name="路径 11604" d="M63.009,43.64a1.086,1.086,0,0,1-.479.68c-.112.071-.149-.08-.043-.149a.823.823,0,0,0,.327-.43c.007-.03.016-.061.021-.089a.574.574,0,0,0,0-.3.2.2,0,0,0-.076-.1h-.048a.138.138,0,0,0-.086.013.336.336,0,0,0-.134.1.769.769,0,0,0-.11.173.946.946,0,0,0-.048.1v.021a.176.176,0,0,0-.012.033c0,.007-.009.015-.007.022l-.174.012a1.324,1.324,0,0,1,.149-.315.669.669,0,0,1,.446-.333.269.269,0,0,1,.3.231A.7.7,0,0,1,63.009,43.64Z" transform="translate(-29.184 -20.633)" fill="#2fb355"/>
          <path id="路径_11605" data-name="路径 11605" d="M64.223,43.552a1.1,1.1,0,0,1-.479.68c-.113.071-.149-.08-.043-.149a.812.812,0,0,0,.326-.43.656.656,0,0,0,.022-.089.568.568,0,0,0,0-.3.2.2,0,0,0-.077-.1h-.046a.149.149,0,0,0-.086.013.351.351,0,0,0-.134.1.711.711,0,0,0-.11.174.788.788,0,0,0-.048.094v.021a.118.118,0,0,0-.013.033c0,.007-.007.015,0,.022l-.174.012a1.269,1.269,0,0,1,.149-.315.671.671,0,0,1,.446-.333.271.271,0,0,1,.3.231A.719.719,0,0,1,64.223,43.552Z" transform="translate(-29.429 -20.615)" fill="#2fb355"/>
          <path id="路径_11606" data-name="路径 11606" d="M65.417,43.466a1.1,1.1,0,0,1-.48.678c-.112.071-.149-.08-.043-.149a.815.815,0,0,0,.327-.43c.007-.028.018-.061.022-.089a.585.585,0,0,0,0-.3.192.192,0,0,0-.076-.1h-.024a.092.092,0,0,1-.024,0,.149.149,0,0,0-.085.013.345.345,0,0,0-.135.1.769.769,0,0,0-.11.173c-.018.028-.031.061-.048.094v.022a.134.134,0,0,0-.012.031.041.041,0,0,0,0,.022l-.174.012a1.278,1.278,0,0,1,.149-.314.674.674,0,0,1,.446-.335.269.269,0,0,1,.3.231A.723.723,0,0,1,65.417,43.466Z" transform="translate(-29.67 -20.597)" fill="#2fb355"/>
          <path id="路径_11607" data-name="路径 11607" d="M66.618,43.377a1.078,1.078,0,0,1-.479.678c-.112.071-.149-.079-.043-.149a.817.817,0,0,0,.327-.43c.007-.028.016-.061.021-.089a.57.57,0,0,0,0-.3.19.19,0,0,0-.076-.1.027.027,0,0,1-.009-.007h-.015a.092.092,0,0,1-.024,0,.162.162,0,0,0-.086.013.356.356,0,0,0-.134.1.72.72,0,0,0-.11.173.922.922,0,0,0-.048.094v.022a.216.216,0,0,0-.013.033s-.007.013,0,.021l-.174.013a1.323,1.323,0,0,1,.149-.315.672.672,0,0,1,.446-.335.271.271,0,0,1,.3.232.7.7,0,0,1-.03.345Z" transform="translate(-29.912 -20.578)" fill="#2fb355"/>
          <path id="路径_11608" data-name="路径 11608" d="M67.821,43.292a1.09,1.09,0,0,1-.479.678c-.113.071-.149-.079-.043-.149a.806.806,0,0,0,.326-.428.655.655,0,0,0,.022-.089.585.585,0,0,0,0-.3.192.192,0,0,0-.077-.1h-.046a.162.162,0,0,0-.086.013.356.356,0,0,0-.134.1.677.677,0,0,0-.11.173.95.95,0,0,0-.048.1v.021a.1.1,0,0,0-.013.033c0,.007-.007.015,0,.021l-.174.013a1.268,1.268,0,0,1,.149-.315.669.669,0,0,1,.446-.335.272.272,0,0,1,.3.232.718.718,0,0,1-.03.336Z" transform="translate(-30.154 -20.563)" fill="#2fb355"/>
          <path id="路径_11609" data-name="路径 11609" d="M69.024,43.2a1.093,1.093,0,0,1-.48.68c-.112.07-.149-.08-.043-.149a.809.809,0,0,0,.327-.43c.007-.028.018-.06.022-.088a.6.6,0,0,0,0-.3.183.183,0,0,0-.076-.1h-.048a.149.149,0,0,0-.085.012.36.36,0,0,0-.135.1.769.769,0,0,0-.11.173c-.018.03-.031.062-.048.1v.021a.176.176,0,0,0-.012.033v.021l-.174.013a1.261,1.261,0,0,1,.149-.315.668.668,0,0,1,.446-.333.269.269,0,0,1,.3.231A.717.717,0,0,1,69.024,43.2Z" transform="translate(-30.396 -20.545)" fill="#2fb355"/>
          <path id="路径_11610" data-name="路径 11610" d="M70.225,43.117a1.086,1.086,0,0,1-.479.68c-.112.071-.149-.08-.043-.149a.829.829,0,0,0,.327-.43c.007-.03.016-.061.021-.089a.574.574,0,0,0,0-.3.2.2,0,0,0-.076-.1h-.048a.138.138,0,0,0-.086.013.336.336,0,0,0-.134.1.72.72,0,0,0-.11.173.948.948,0,0,0-.048.1v.021a.191.191,0,0,0-.013.033c0,.007-.007.015,0,.022l-.174.012a1.324,1.324,0,0,1,.149-.315.669.669,0,0,1,.446-.333.269.269,0,0,1,.3.231A.7.7,0,0,1,70.225,43.117Z" transform="translate(-30.638 -20.527)" fill="#2fb355"/>
          <path id="路径_11611" data-name="路径 11611" d="M71.429,43.029a1.1,1.1,0,0,1-.479.68c-.113.071-.149-.08-.043-.149a.812.812,0,0,0,.326-.43.649.649,0,0,0,.022-.089.585.585,0,0,0,0-.3.2.2,0,0,0-.077-.1h-.046a.149.149,0,0,0-.086.013.351.351,0,0,0-.134.1.764.764,0,0,0-.112.174.783.783,0,0,0-.046.094v.021a.118.118,0,0,0-.013.033c0,.007-.007.015,0,.022l-.174.012a1.269,1.269,0,0,1,.149-.315.671.671,0,0,1,.446-.333.271.271,0,0,1,.3.231.719.719,0,0,1-.03.339Z" transform="translate(-30.88 -20.509)" fill="#2fb355"/>
          <path id="路径_11612" data-name="路径 11612" d="M72.632,42.943a1.1,1.1,0,0,1-.48.678c-.112.071-.149-.08-.043-.149a.815.815,0,0,0,.327-.43c.007-.028.016-.061.022-.089a.585.585,0,0,0,0-.3.192.192,0,0,0-.076-.1h-.024a.092.092,0,0,1-.024,0,.149.149,0,0,0-.085.013.345.345,0,0,0-.135.1.769.769,0,0,0-.11.173c-.018.028-.031.061-.048.094v.022a.134.134,0,0,0-.012.031.042.042,0,0,0,0,.022l-.174.012a1.312,1.312,0,0,1,.149-.315.677.677,0,0,1,.446-.333.269.269,0,0,1,.3.231.723.723,0,0,1-.031.341Z" transform="translate(-31.122 -20.492)" fill="#2fb355"/>
          <path id="路径_11613" data-name="路径 11613" d="M70.867,47.6c.65,1.328,2.266,2.975,2.41,4.06a1.26,1.26,0,0,1-.686,1.339,1.877,1.877,0,0,1,1.064,1.541c-.018.521-.863.949-.863.949a1.509,1.509,0,0,1,.775,1.361c-.068.714-.9,1.041-.9,1.041a1.794,1.794,0,0,1,.318,1.526c-.611,1.431-6.771,1.5-7.749-.756-.457-1.052,1.049-.988,1.049-.988s-2.142-.614-2.19-1.885,1.9-1.068,1.9-1.068-2.071-.614-1.987-1.934c.088-1.374,2.005-.839,2.005-.839s-1.38-.913-1.084-1.91c.488-1.645,3.1.387,4.463.051l.721-2.242Z" transform="translate(-29.559 -21.544)" fill="#f7a9a0"/>
          <path id="路径_11614" data-name="路径 11614" d="M73.66,48.748c-.5-1.312,1.108-2.957.8-4.28-.409-1.785-2.41-.009-2.826,2.6l.03,2.083Z" transform="translate(-31.096 -20.769)" fill="#f7a9a0"/>
          <path id="路径_11615" data-name="路径 11615" d="M73.073,60.466c.019,0,.027.027,0,.031a10.727,10.727,0,0,1-6.349-.3c-.064-.025-.051-.14.025-.125A22.246,22.246,0,0,0,73.073,60.466Z" transform="translate(-30.098 -24.055)" fill="#263238"/>
          <path id="路径_11616" data-name="路径 11616" d="M73.286,57.279a.022.022,0,0,1,0,.043,10,10,0,0,1-6.905-.763c-.074-.039-.1-.149-.012-.109A17.981,17.981,0,0,0,73.286,57.279Z" transform="translate(-30.024 -23.324)" fill="#263238"/>
          <path id="路径_11617" data-name="路径 11617" d="M66.336,52.875a13.756,13.756,0,0,0,6.63,1.208c.03,0,.028.042,0,.049a9,9,0,0,1-3.746.051A6.158,6.158,0,0,1,66.3,52.95C66.267,52.923,66.3,52.855,66.336,52.875Z" transform="translate(-30.018 -22.606)" fill="#263238"/>
        </g>
      </g>
    </g>
    <g id="freepik--Medicine--inject-47" transform="translate(186.019 418.349)">
      <path id="路径_12404" data-name="路径 12404" d="M144.608,124.545h0a.116.116,0,0,1-.113-.118,1.4,1.4,0,0,0-.2-.752.116.116,0,0,1,.2-.118,1.634,1.634,0,0,1,.229.875A.116.116,0,0,1,144.608,124.545Z" transform="translate(-64.703 -76.883)" fill="#fff"/>
      <g id="组_10559" data-name="组 10559" transform="translate(1.063 -1.112)" opacity="0.584">
        <circle id="椭圆_762" data-name="椭圆 762" cx="4.979" cy="4.979" r="4.979" transform="translate(64.76 45.781) rotate(-45)" fill="#fff"/>
        <path id="椭圆_762_-_轮廓" data-name="椭圆 762 - 轮廓" d="M5.061,0a5.062,5.062,0,0,1,1.97,9.725A5.062,5.062,0,0,1,3.091.4,5.03,5.03,0,0,1,5.061,0Zm0,9.957A4.9,4.9,0,0,0,6.967.55,4.9,4.9,0,0,0,3.156,9.572,4.865,4.865,0,0,0,5.061,9.957Z" transform="translate(64.643 45.781) rotate(-45)" fill="#263238"/>
        <path id="路径_12400" data-name="路径 12400" d="M107.045,119.625a1.594,1.594,0,0,1-1.083,1.51l-2.224.749-2.707.914a1.591,1.591,0,1,1-1.017-3.014l2.459-.827,2.47-.827a1.592,1.592,0,0,1,2.1,1.5Z" transform="translate(-31.104 -74.607)" fill="#fff"/>
        <path id="路径_12401" data-name="路径 12401" d="M124.922,119.617a1.594,1.594,0,0,1-1.083,1.51l-2.224.749a4.6,4.6,0,0,0-1.265-2.928l2.47-.827a1.592,1.592,0,0,1,2.1,1.5Z" transform="translate(-48.98 -74.599)" fill="#2fb355"/>
        <path id="路径_12402" data-name="路径 12402" d="M105.032,117.547a1.675,1.675,0,0,1,1.675,1.643.084.084,0,0,1,0,.018,1.676,1.676,0,0,1-1.139,1.588l-2.224.749-2.707.914a1.673,1.673,0,1,1-1.07-3.171l2.459-.827,2.47-.827A1.671,1.671,0,0,1,105.032,117.547Zm1.511,1.684a.082.082,0,0,1,0-.015,1.51,1.51,0,0,0-1.991-1.425l-2.47.827-2.459.827a1.508,1.508,0,1,0,.964,2.858l2.707-.914,2.224-.749A1.51,1.51,0,0,0,106.543,119.232Z" transform="translate(-30.684 -74.19)" fill="#263238"/>
        <path id="路径_12403" data-name="路径 12403" d="M121.2,126.134a.083.083,0,0,1-.083-.079,4.421,4.421,0,0,0-1.242-2.875.083.083,0,0,1,.119-.115,4.587,4.587,0,0,1,1.288,2.982.083.083,0,0,1-.079.086Z" transform="translate(-48.563 -78.774)" fill="#263238"/>
        <path id="路径_12405" data-name="路径 12405" d="M123.733,120.977a.083.083,0,0,1-.026-.161l1.984-.661a1.351,1.351,0,0,1,1.151.129.083.083,0,1,1-.087.141,1.186,1.186,0,0,0-1.011-.113l-1.985.662A.083.083,0,0,1,123.733,120.977Z" transform="translate(-51.734 -76.304)" fill="#fff"/>
      </g>
      <g id="组_10557" data-name="组 10557" transform="translate(-5.818 15.286)" opacity="0.584">
        <circle id="椭圆_763" data-name="椭圆 763" cx="5.381" cy="5.381" r="5.381" transform="matrix(0.921, -0.39, 0.39, 0.921, 110.065, 27.818)" fill="#fff"/>
        <path id="椭圆_763_-_轮廓" data-name="椭圆 763 - 轮廓" d="M5.47,0A5.472,5.472,0,0,1,7.6,10.51,5.472,5.472,0,0,1,3.341.43,5.436,5.436,0,0,1,5.47,0Zm0,10.762A5.293,5.293,0,0,0,7.53.595a5.293,5.293,0,0,0-4.119,9.751A5.258,5.258,0,0,0,5.47,10.762Z" transform="matrix(0.921, -0.39, 0.39, 0.921, 109.948, 27.77)" fill="#263238"/>
        <path id="路径_12406" data-name="路径 12406" d="M299.758,55.112l-4.693-1.571a1.553,1.553,0,0,1-.978-1.966h0a1.553,1.553,0,0,1,1.966-.978l4.693,1.569a1.555,1.555,0,0,1,.978,1.966h0A1.555,1.555,0,0,1,299.758,55.112Z" transform="translate(-180.785 -22.184)" fill="#2fb355"/>
        <path id="直线_1371" data-name="直线 1371" d="M-.411,1.557A.089.089,0,0,1-.445,1.55a.089.089,0,0,1-.048-.117L.293-.445A.089.089,0,0,1,.41-.493a.089.089,0,0,1,.048.117L-.328,1.5A.089.089,0,0,1-.411,1.557Z" transform="translate(115.946 29.765)" fill="#263238"/>
        <path id="直线_1372" data-name="直线 1372" d="M-.411,1.551a.089.089,0,0,1-.034-.007.089.089,0,0,1-.048-.117L.29-.445A.089.089,0,0,1,.406-.493a.089.089,0,0,1,.048.117L-.328,1.5A.089.089,0,0,1-.411,1.551Z" transform="translate(118.531 30.629)" fill="#263238"/>
        <circle id="椭圆_764" data-name="椭圆 764" cx="0.159" cy="0.159" r="0.159" transform="translate(116.024 31.025)" fill="#263238"/>
        <path id="路径_12407" data-name="路径 12407" d="M317.868,68.359a.159.159,0,1,1-.159-.159.159.159,0,0,1,.159.159Z" transform="translate(-200.121 -36.707)" fill="#263238"/>
        <circle id="椭圆_765" data-name="椭圆 765" cx="0.159" cy="0.159" r="0.159" transform="translate(116.641 29.609)" fill="#263238"/>
        <path id="路径_12408" data-name="路径 12408" d="M321.188,60.359a.159.159,0,1,1-.159-.159.159.159,0,0,1,.159.159Z" transform="translate(-202.847 -30.137)" fill="#263238"/>
        <path id="路径_12409" data-name="路径 12409" d="M299.841,54.871a1.641,1.641,0,0,1-.521-.085l-4.693-1.571a1.642,1.642,0,1,1,1.045-3.113l4.693,1.569a1.643,1.643,0,0,1-.524,3.2ZM295.15,50.2a1.463,1.463,0,0,0-.466,2.85l4.693,1.571a1.464,1.464,0,0,0,.931-2.776l-4.693-1.569A1.462,1.462,0,0,0,295.15,50.2Z" transform="translate(-180.376 -21.773)" fill="#263238"/>
      </g>
      <g id="组_10558" data-name="组 10558" transform="translate(4 1.466)" opacity="0.584">
        <circle id="椭圆_766" data-name="椭圆 766" cx="5.272" cy="5.272" r="5.272" transform="translate(85.962 25.413)" fill="#fff"/>
        <path id="椭圆_766_-_轮廓" data-name="椭圆 766 - 轮廓" d="M4.86-.5a5.358,5.358,0,0,1,3.79,9.149A5.36,5.36,0,1,1,2.773-.079,5.326,5.326,0,0,1,4.86-.5Zm0,10.544A5.183,5.183,0,0,0,8.526,1.194,5.185,5.185,0,1,0,2.842,9.637,5.152,5.152,0,0,0,4.86,10.044Z" transform="translate(86.375 25.826)" fill="#263238"/>
        <path id="路径_12410" data-name="路径 12410" d="M190.931,52.176v2.161a.907.907,0,0,1-.779.993h-4.482a.906.906,0,0,1-.779-.993V52.176a.907.907,0,0,1,.779-.993h.737V49.93h2.977v1.254h.763A.907.907,0,0,1,190.931,52.176Z" transform="translate(-96.676 -21.356)" fill="#fff"/>
        <path id="路径_12410_-_轮廓" data-name="路径 12410 - 轮廓" d="M185.994,49.43h2.977a.088.088,0,0,1,.088.088v1.166h.676a.793.793,0,0,1,.624.324,1.221,1.221,0,0,1,.248.756v2.161a.993.993,0,0,1-.867,1.08h-4.482a.787.787,0,0,1-.62-.324,1.226,1.226,0,0,1-.247-.756V51.764a.993.993,0,0,1,.867-1.08h.65V49.518A.088.088,0,0,1,185.994,49.43Zm2.889.175h-2.8v1.166a.088.088,0,0,1-.088.088h-.737a.821.821,0,0,0-.692.905v2.161a.821.821,0,0,0,.692.905h4.482a.821.821,0,0,0,.692-.905V51.764a.823.823,0,0,0-.7-.905h-.763a.088.088,0,0,1-.088-.088Z" transform="translate(-96.263 -20.944)" fill="#263238"/>
        <rect id="矩形_20527" data-name="矩形 20527" width="6.039" height="1.339" transform="translate(88.214 31.069)" fill="#2fb355"/>
        <path id="矩形_20527_-_轮廓" data-name="矩形 20527 - 轮廓" d="M-.5-.5H5.714V1.015H-.5Zm6.039.175H-.325V.839H5.539Z" transform="translate(88.627 31.481)" fill="#263238"/>
        <path id="路径_12411" data-name="路径 12411" d="M191.454,41.55h2.213a.942.942,0,0,1,.942.942v.979h-4.1v-.979a.942.942,0,0,1,.944-.942Z" transform="translate(-101.312 -14.444)" fill="#2fb355"/>
        <path id="路径_12411_-_轮廓" data-name="路径 12411 - 轮廓" d="M191.04,41.05h2.215a1.031,1.031,0,0,1,1.03,1.03v1.066H190.01V42.08a1.03,1.03,0,0,1,1.03-1.03Zm3.069,1.921V42.08a.855.855,0,0,0-.854-.854H191.04a.854.854,0,0,0-.854.854v.891Z" transform="translate(-100.899 -14.031)" fill="#263238"/>
        <path id="直线_1373" data-name="直线 1373" d="M-.412,1.536A.088.088,0,0,1-.5,1.449V-.412A.088.088,0,0,1-.412-.5a.088.088,0,0,1,.088.088V1.449A.088.088,0,0,1-.412,1.536Z" transform="translate(90.327 27.578)" fill="#263238"/>
        <path id="直线_1374" data-name="直线 1374" d="M-.412,1.6A.088.088,0,0,1-.5,1.508V-.412A.088.088,0,0,1-.412-.5a.088.088,0,0,1,.088.088V1.508A.088.088,0,0,1-.412,1.6Z" transform="translate(91.295 27.519)" fill="#263238"/>
        <path id="直线_1375" data-name="直线 1375" d="M-.412,1.6A.088.088,0,0,1-.5,1.508V-.412A.088.088,0,0,1-.412-.5a.088.088,0,0,1,.088.088V1.508A.088.088,0,0,1-.412,1.6Z" transform="translate(92.263 27.519)" fill="#263238"/>
        <path id="直线_1376" data-name="直线 1376" d="M-.412,1.487A.088.088,0,0,1-.5,1.4V-.412A.088.088,0,0,1-.412-.5a.088.088,0,0,1,.088.088V1.4A.088.088,0,0,1-.412,1.487Z" transform="translate(93.232 27.627)" fill="#263238"/>
      </g>
      <g id="组_10560" data-name="组 10560" transform="translate(-0.059 -4)" opacity="0.584">
        <circle id="椭圆_767" data-name="椭圆 767" cx="4.637" cy="4.637" r="4.637" transform="translate(60.215 70.434) rotate(-80.69)" fill="#fff"/>
        <path id="椭圆_767_-_轮廓" data-name="椭圆 767 - 轮廓" d="M4.714,0A4.716,4.716,0,0,1,6.549,9.058,4.716,4.716,0,0,1,2.879.371,4.685,4.685,0,0,1,4.714,0Zm0,9.275A4.562,4.562,0,0,0,6.489.512a4.562,4.562,0,0,0-3.55,8.4A4.532,4.532,0,0,0,4.714,9.275Z" transform="translate(60.127 70.497) rotate(-80.69)" fill="#263238"/>
        <ellipse id="椭圆_768" data-name="椭圆 768" cx="2.139" cy="2.728" rx="2.139" ry="2.728" transform="translate(62.048 67.406) rotate(-64.69)" fill="#2fb355"/>
        <path id="椭圆_768_-_轮廓" data-name="椭圆 768 - 轮廓" d="M2.216,0a1.815,1.815,0,0,1,.869.224,2.264,2.264,0,0,1,.7.6A3.2,3.2,0,0,1,4.433,2.8,3.2,3.2,0,0,1,3.79,4.781a2.264,2.264,0,0,1-.7.6,1.8,1.8,0,0,1-1.738,0,2.264,2.264,0,0,1-.7-.6A3.2,3.2,0,0,1,0,2.8,3.2,3.2,0,0,1,.643.828a2.264,2.264,0,0,1,.7-.6A1.815,1.815,0,0,1,2.216,0Zm0,5.455A2.415,2.415,0,0,0,4.279,2.8,2.415,2.415,0,0,0,2.216.154,2.415,2.415,0,0,0,.154,2.8,2.415,2.415,0,0,0,2.216,5.455Z" transform="translate(61.946 67.443) rotate(-64.69)" fill="#263238"/>
        <ellipse id="椭圆_769" data-name="椭圆 769" cx="2.007" cy="2.728" rx="2.007" ry="2.728" transform="translate(62.273 66.923) rotate(-64.69)" fill="#2fb355"/>
        <path id="椭圆_769_-_轮廓" data-name="椭圆 769 - 轮廓" d="M2.084,0A1.628,1.628,0,0,1,2.9.225,2.171,2.171,0,0,1,3.565.83a3.343,3.343,0,0,1,.6,1.974,3.343,3.343,0,0,1-.6,1.974,2.171,2.171,0,0,1-.662.606,1.607,1.607,0,0,1-1.639,0A2.171,2.171,0,0,1,.6,4.779,3.343,3.343,0,0,1,0,2.8,3.343,3.343,0,0,1,.6.83,2.171,2.171,0,0,1,1.264.225,1.628,1.628,0,0,1,2.084,0Zm0,5.455c1.064,0,1.93-1.189,1.93-2.651S3.148.154,2.084.154.154,1.343.154,2.8,1.02,5.455,2.084,5.455Z" transform="translate(62.171 66.96) rotate(-64.69)" fill="#263238"/>
        <path id="直线_1377" data-name="直线 1377" d="M-.423,2.021a.077.077,0,0,1-.045-.014A.077.077,0,0,1-.486,1.9L1.2-.468A.077.077,0,0,1,1.3-.486a.077.077,0,0,1,.018.107L-.36,1.989A.077.077,0,0,1-.423,2.021Z" transform="translate(65.123 65.327)" fill="#263238"/>
        <path id="路径_12412" data-name="路径 12412" d="M94.411,207.978a.077.077,0,0,1-.024,0,3.563,3.563,0,0,0-.65-.151.077.077,0,0,1,.021-.153,3.72,3.72,0,0,1,.678.157.077.077,0,0,1-.024.15Z" transform="translate(-28.377 -143.227)" fill="#fff"/>
        <path id="路径_12413" data-name="路径 12413" d="M81.909,210.112a.077.077,0,0,1-.057-.025,1.785,1.785,0,0,1-.341-.613,1.305,1.305,0,0,1,.322-1.34l0,0a1.371,1.371,0,0,1,.762-.392.077.077,0,0,1,.024.152,1.215,1.215,0,0,0-.675.347,1.147,1.147,0,0,0-.289,1.183,1.657,1.657,0,0,0,.31.56.077.077,0,0,1-.057.129Z" transform="translate(-18.034 -143.286)" fill="#fff"/>
      </g>
      <g id="组_10555" data-name="组 10555" transform="translate(-5.362 -17.752)" opacity="0.584">
        <circle id="椭圆_770" data-name="椭圆 770" cx="4.873" cy="4.873" r="4.873" transform="translate(140.524 67.908) rotate(-80.69)" fill="#fff"/>
        <path id="椭圆_770_-_轮廓" data-name="椭圆 770 - 轮廓" d="M4.954,0A4.955,4.955,0,0,1,6.883,9.519,4.955,4.955,0,0,1,3.026.389,4.923,4.923,0,0,1,4.954,0Zm0,9.747A4.794,4.794,0,0,0,6.82.538,4.794,4.794,0,0,0,3.089,9.37,4.762,4.762,0,0,0,4.954,9.747Z" transform="translate(140.432 67.975) rotate(-80.69)" fill="#263238"/>
        <path id="路径_12414" data-name="路径 12414" d="M397.479,210.942c-.037.053-.074.108-.113.162a5.63,5.63,0,0,1-2.688,2.141v-.013a5.56,5.56,0,0,1-2.628-2.06c-.04-.053-.079-.108-.117-.162-.7-1.007-1-2.064-.217-2.5,1.589-.887,2.962,1.015,2.962,1.015s1.376-1.887,2.962-1C398.4,208.946,398.139,209.959,397.479,210.942Z" transform="translate(-248.56 -146.566)" fill="#2fb355"/>
        <path id="路径_12414_-_轮廓" data-name="路径 12414 - 轮廓" d="M394.179,212.927v-.05a3.789,3.789,0,0,1-1.313-.731,7.457,7.457,0,0,1-1.3-1.345c-.041-.055-.081-.111-.118-.164a2.763,2.763,0,0,1-.667-2,.931.931,0,0,1,.477-.622,1.853,1.853,0,0,1,.91-.246,2.04,2.04,0,0,1,.862.2,3.139,3.139,0,0,1,.681.441,4.106,4.106,0,0,1,.548.556,4.094,4.094,0,0,1,.548-.55,3.143,3.143,0,0,1,.68-.437,2.05,2.05,0,0,1,.861-.2,1.858,1.858,0,0,1,.913.247.929.929,0,0,1,.474.612,1.664,1.664,0,0,1-.085.911,4.351,4.351,0,0,1-.522,1.012h0l-.032.047c-.026.038-.054.078-.082.117a7.466,7.466,0,0,1-1.32,1.4,3.7,3.7,0,0,1-1.416.777Zm-2.01-4.991a1.693,1.693,0,0,0-.831.225.776.776,0,0,0-.4.517,1.555,1.555,0,0,0,.1.856,4.379,4.379,0,0,0,.543,1.01c.036.051.075.106.115.159a7.292,7.292,0,0,0,1.27,1.316,3.5,3.5,0,0,0,1.311.715l.01,0a5.639,5.639,0,0,0,2.6-2.1c.027-.037.054-.076.08-.114l.032-.047a2.526,2.526,0,0,0,.584-1.795.774.774,0,0,0-.4-.509,1.7,1.7,0,0,0-.834-.226,1.889,1.889,0,0,0-.791.185,2.978,2.978,0,0,0-.644.413,3.8,3.8,0,0,0-.589.607l-.066.09-.065-.09a3.822,3.822,0,0,0-.589-.613,2.973,2.973,0,0,0-.644-.417A1.879,1.879,0,0,0,392.168,207.935Z" transform="translate(-248.143 -146.147)" fill="#263238"/>
        <path id="路径_12415" data-name="路径 12415" d="M401.007,216.3c-.037.053-.074.108-.113.162h-.4l-.46.607-.312-1.8-.486,1.224h-1.148l-.587.979-.453-1.983-.584,1.034h-.885c-.04-.053-.079-.108-.117-.162h.908l.743-1.316.456,2,.432-.72h1.133l.647-1.657.346,2,.283-.374Z" transform="translate(-252.088 -151.927)" fill="#fff"/>
      </g>
      <g id="组_10556" data-name="组 10556" transform="translate(-2.864 -12.991)" opacity="0.584">
        <circle id="椭圆_771" data-name="椭圆 771" cx="4.993" cy="4.993" r="4.993" transform="translate(127.865 41.714)" fill="#fff"/>
        <path id="椭圆_771_-_轮廓" data-name="椭圆 771 - 轮廓" d="M4.575-.5A5.074,5.074,0,0,1,8.164,8.164,5.075,5.075,0,1,1,2.6-.1,5.044,5.044,0,0,1,4.575-.5Zm0,9.985A4.908,4.908,0,0,0,8.047,1.1a4.91,4.91,0,1,0-5.383,8A4.879,4.879,0,0,0,4.575,9.485Z" transform="translate(128.282 42.131)" fill="#263238"/>
        <path id="路径_12416" data-name="路径 12416" d="M373.592,118.367c.048.108-.252.347-.663.534s-.8.252-.844.143.25-.347.663-.534S373.542,118.264,373.592,118.367Z" transform="translate(-241.109 -73.968)" fill="#fff"/>
        <path id="路径_12416_-_轮廓" data-name="路径 12416 - 轮廓" d="M373.027,117.816c.116,0,.19.033.222.1v0c.042.093-.018.2-.183.336a2.561,2.561,0,0,1-.521.308,2.024,2.024,0,0,1-.732.2c-.118,0-.193-.035-.223-.1-.041-.093.021-.206.183-.336a2.548,2.548,0,0,1,.522-.307A2.017,2.017,0,0,1,373.027,117.816Zm.064.172a.259.259,0,0,0-.064-.006,1.882,1.882,0,0,0-.663.186,2.517,2.517,0,0,0-.455.261.536.536,0,0,0-.161.161.234.234,0,0,0,.065.007,1.891,1.891,0,0,0,.663-.188,2.527,2.527,0,0,0,.454-.261A.571.571,0,0,0,373.091,117.988Z" transform="translate(-240.691 -73.551)" fill="#263238"/>
        <path id="路径_12417" data-name="路径 12417" d="M375.839,123.068l-1.494.723-1.34-2.759-.925-1.907,1.494-.725.9,1.86Z" transform="translate(-241.109 -74.038)" fill="#fff"/>
        <path id="路径_12417_-_轮廓" data-name="路径 12417 - 轮廓" d="M373.928,123.456a.083.083,0,0,1-.075-.047l-1.34-2.759-.925-1.907a.083.083,0,0,1,.038-.111l1.494-.725a.083.083,0,0,1,.111.038l.9,1.86,1.363,2.807a.083.083,0,0,1-.038.111l-1.494.723A.083.083,0,0,1,373.928,123.456Zm-2.154-4.71.889,1.832,1.3,2.685,1.345-.651-1.327-2.732-.866-1.786Z" transform="translate(-240.692 -73.62)" fill="#263238"/>
        <path id="路径_12418" data-name="路径 12418" d="M373.75,124.69l.648-.3" transform="translate(-242.502 -79.034)" fill="#2fb355"/>
        <path id="路径_12418_-_轮廓" data-name="路径 12418 - 轮廓" d="M373.333,124.356a.083.083,0,0,1-.035-.158l.648-.3a.083.083,0,1,1,.07.15l-.648.3A.083.083,0,0,1,373.333,124.356Z" transform="translate(-242.085 -78.617)" fill="#263238"/>
        <path id="路径_12419" data-name="路径 12419" d="M375.45,128.31l.648-.3" transform="translate(-243.92 -82.054)" fill="#2fb355"/>
        <path id="路径_12419_-_轮廓" data-name="路径 12419 - 轮廓" d="M375.033,127.976a.083.083,0,0,1-.035-.158l.648-.3a.083.083,0,0,1,.07.15l-.648.3A.082.082,0,0,1,375.033,127.976Z" transform="translate(-243.503 -81.637)" fill="#263238"/>
        <path id="路径_12420" data-name="路径 12420" d="M389.19,148.3l.771,1.011-.385-1.2Z" transform="translate(-255.382 -98.821)" fill="#fff"/>
        <path id="路径_12420_-_轮廓" data-name="路径 12420 - 轮廓" d="M389.159,147.61a.083.083,0,0,1,.079.058l.385,1.2a.083.083,0,0,1-.145.076l-.771-1.011a.083.083,0,0,1,.03-.125l.386-.187A.083.083,0,0,1,389.159,147.61Zm.159.848-.208-.649-.209.1Z" transform="translate(-254.965 -98.404)" fill="#263238"/>
        <path id="路径_12421" data-name="路径 12421" d="M380.494,132.427h0a2.487,2.487,0,0,1-1.282.683l-.212.04-1.34-2.759,1.471-.771Z" transform="translate(-245.764 -83.397)" fill="#2fb355"/>
        <path id="路径_12421_-_轮廓" data-name="路径 12421 - 轮廓" d="M378.4,132.674l-1.4-2.888,1.618-.848,1.426,2.937-.042.042a2.561,2.561,0,0,1-1.324.706Zm-1.183-2.816,1.277,2.63.15-.028a2.4,2.4,0,0,0,1.2-.619l-1.3-2.677Z" transform="translate(-245.212 -82.828)" fill="#263238"/>
        <path id="直线_1378" data-name="直线 1378" d="M-.417-.052A.083.083,0,0,1-.492-.1a.083.083,0,0,1,.04-.11l.61-.282a.083.083,0,0,1,.11.04.083.083,0,0,1-.04.11l-.61.282A.083.083,0,0,1-.417-.052Z" transform="translate(132.595 47.653)" fill="#263238"/>
        <path id="路径_12422" data-name="路径 12422" d="M381.38,139.924l.6-.274" transform="translate(-248.867 -91.764)" fill="#2fb355"/>
        <path id="路径_12422_-_轮廓" data-name="路径 12422 - 轮廓" d="M380.963,139.589a.083.083,0,0,1-.035-.158l.6-.274a.083.083,0,0,1,.069.151l-.6.274A.083.083,0,0,1,380.963,139.589Z" transform="translate(-248.45 -91.347)" fill="#263238"/>
        <path id="路径_12423" data-name="路径 12423" d="M372.823,114.843l-.473-1.063.371-.211.509,1.076Z" transform="translate(-241.335 -70.009)" fill="#fff"/>
        <path id="路径_12423_-_轮廓" data-name="路径 12423 - 轮廓" d="M372.405,114.509a.083.083,0,0,1-.076-.049l-.473-1.063a.083.083,0,0,1,.035-.106l.371-.211a.083.083,0,0,1,.116.037l.509,1.076a.083.083,0,0,1-.039.11l-.408.2A.083.083,0,0,1,372.405,114.509Zm-.366-1.111.407.916.257-.124-.436-.921Z" transform="translate(-240.917 -69.591)" fill="#263238"/>
        <path id="路径_12424" data-name="路径 12424" d="M369.512,111.539l-.113-.249-1.99.89.113.249c.046.106.529-.01,1.079-.255S369.559,111.643,369.512,111.539Z" transform="translate(-237.214 -68.106)" fill="#fff"/>
        <path id="路径_12424_-_轮廓" data-name="路径 12424 - 轮廓" d="M368.983,110.79a.083.083,0,0,1,.076.049l.113.249c.044.1-.036.211-.259.367a4.36,4.36,0,0,1-.693.378,3.071,3.071,0,0,1-1,.3c-.1,0-.162-.03-.188-.088l-.113-.248a.083.083,0,0,1,.042-.11l1.99-.89A.083.083,0,0,1,368.983,110.79Zm.031.351-.072-.159-1.838.823.072.16a.191.191,0,0,0,.043,0,3.032,3.032,0,0,0,.933-.288,4.438,4.438,0,0,0,.618-.33A.769.769,0,0,0,369.013,111.141Z" transform="translate(-236.797 -67.689)" fill="#263238"/>
        <path id="路径_12425" data-name="路径 12425" d="M369.382,111.1c-.046-.1-.531.01-1.079.255s-.957.531-.91.635.531-.01,1.079-.257S369.428,111.2,369.382,111.1Z" transform="translate(-237.195 -67.912)" fill="#fff"/>
        <path id="路径_12425_-_轮廓" data-name="路径 12425 - 轮廓" d="M368.85,110.557h0c.1,0,.162.03.188.088.043.1-.037.21-.26.365a4.518,4.518,0,0,1-.692.378,3.077,3.077,0,0,1-1,.3c-.1,0-.162-.03-.188-.088-.043-.1.037-.21.26-.366a4.394,4.394,0,0,1,.692-.378A3.046,3.046,0,0,1,368.85,110.557Zm.012.166h-.012a2.924,2.924,0,0,0-.934.287,4.473,4.473,0,0,0-.617.33,1.05,1.05,0,0,0-.228.185h.012a2.9,2.9,0,0,0,.934-.288,4.621,4.621,0,0,0,.617-.33A1.06,1.06,0,0,0,368.862,110.723Z" transform="translate(-236.776 -67.495)" fill="#263238"/>
      </g>
    </g>
    <g id="freepik--Clipboard--inject-6" transform="translate(305.441 474.443)">
      <path id="路径_11489" data-name="路径 11489" d="M105.418,76.764H84.859V49.68h20.559Z" transform="translate(-84.859 -46.674)" fill="#455a64"/>
      <rect id="矩形_20136" data-name="矩形 20136" width="16.66" height="23.61" transform="translate(1.949 4.742)" fill="#fff"/>
      <rect id="矩形_20137" data-name="矩形 20137" width="6.242" height="23.61" transform="translate(1.949 4.742)" fill="#ebebeb"/>
      <path id="路径_11490" data-name="路径 11490" d="M90.637,55.933a1.626,1.626,0,0,1-.482.2,1.667,1.667,0,1,1,.482-.2Z" transform="translate(-84.592 -46.412)" fill="#a6a6a6"/>
      <path id="路径_11491" data-name="路径 11491" d="M90.174,54.245a.509.509,0,1,1-.509-.508A.509.509,0,0,1,90.174,54.245Z" transform="translate(-84.504 -46.338)" fill="#fff"/>
      <path id="路径_11492" data-name="路径 11492" d="M90.576,55.573v.21a1.626,1.626,0,0,1-.482.2,1.651,1.651,0,0,1-1.275-.2v-.208a.88.88,0,1,1,1.758,0Z" transform="translate(-84.532 -46.262)" fill="#fff"/>
      <rect id="矩形_20138" data-name="矩形 20138" width="4.497" height="0.311" transform="translate(9.293 6.738)" fill="#ebebeb"/>
      <rect id="矩形_20139" data-name="矩形 20139" width="7.77" height="0.311" transform="translate(9.293 7.598)" fill="#ebebeb"/>
      <rect id="矩形_20140" data-name="矩形 20140" width="6.038" height="0.311" transform="translate(9.293 8.456)" fill="#ebebeb"/>
      <rect id="矩形_20141" data-name="矩形 20141" width="3.485" height="0.311" transform="translate(9.293 10.175)" fill="#ebebeb"/>
      <rect id="矩形_20142" data-name="矩形 20142" width="6.038" height="0.311" transform="translate(9.293 11.034)" fill="#ebebeb"/>
      <rect id="矩形_20143" data-name="矩形 20143" width="7.77" height="0.311" transform="translate(9.293 11.894)" fill="#ebebeb"/>
      <rect id="矩形_20144" data-name="矩形 20144" width="4.497" height="0.311" transform="translate(9.293 12.752)" fill="#ebebeb"/>
      <rect id="矩形_20145" data-name="矩形 20145" width="7.77" height="0.311" transform="translate(9.293 14.472)" fill="#ebebeb"/>
      <rect id="矩形_20146" data-name="矩形 20146" width="5.636" height="0.311" transform="translate(9.293 15.33)" fill="#ebebeb"/>
      <rect id="矩形_20147" data-name="矩形 20147" width="4.186" height="0.311" transform="translate(9.293 16.19)" fill="#ebebeb"/>
      <rect id="矩形_20148" data-name="矩形 20148" width="6.999" height="0.311" transform="translate(9.293 17.05)" fill="#ebebeb"/>
      <rect id="矩形_20149" data-name="矩形 20149" width="5.636" height="0.311" transform="translate(9.293 18.768)" fill="#ebebeb"/>
      <rect id="矩形_20150" data-name="矩形 20150" width="7.77" height="0.311" transform="translate(9.293 19.628)" fill="#ebebeb"/>
      <rect id="矩形_20151" data-name="矩形 20151" width="6.999" height="0.311" transform="translate(9.293 21.346)" fill="#ebebeb"/>
      <rect id="矩形_20152" data-name="矩形 20152" width="4.146" height="0.311" transform="translate(9.293 22.206)" fill="#ebebeb"/>
      <rect id="矩形_20153" data-name="矩形 20153" width="7.77" height="0.311" transform="translate(9.293 23.064)" fill="#ebebeb"/>
      <rect id="矩形_20154" data-name="矩形 20154" width="5.636" height="0.311" transform="translate(9.293 24.784)" fill="#ebebeb"/>
      <rect id="矩形_20155" data-name="矩形 20155" width="7.77" height="0.311" transform="translate(9.293 25.642)" fill="#ebebeb"/>
      <rect id="矩形_20156" data-name="矩形 20156" width="6.999" height="0.311" transform="translate(9.293 26.502)" fill="#ebebeb"/>
      <rect id="矩形_20157" data-name="矩形 20157" width="2.063" height="0.311" transform="translate(3.496 11.034)" fill="#a6a6a6"/>
      <rect id="矩形_20158" data-name="矩形 20158" width="3.434" height="0.311" transform="translate(3.496 11.894)" fill="#a6a6a6"/>
      <rect id="矩形_20159" data-name="矩形 20159" width="2.871" height="0.311" transform="translate(3.496 12.752)" fill="#a6a6a6"/>
      <rect id="矩形_20160" data-name="矩形 20160" width="3.434" height="0.311" transform="translate(3.496 14.472)" fill="#a6a6a6"/>
      <rect id="矩形_20161" data-name="矩形 20161" width="3.649" height="0.311" transform="translate(3.496 15.33)" fill="#a6a6a6"/>
      <rect id="矩形_20162" data-name="矩形 20162" width="2.56" height="0.311" transform="translate(3.496 16.19)" fill="#a6a6a6"/>
      <rect id="矩形_20163" data-name="矩形 20163" width="3.024" height="0.311" transform="translate(3.496 17.05)" fill="#a6a6a6"/>
      <rect id="矩形_20164" data-name="矩形 20164" width="10.42" height="3.693" transform="translate(5.069 1.433)" fill="#a6a6a6"/>
      <path id="路径_11493" data-name="路径 11493" d="M98.343,49.769H90.929V46.9h7.414v2.865Z" transform="translate(-84.357 -46.904)" fill="#a6a6a6"/>
    </g>
  </g>
</svg>
