<svg xmlns="http://www.w3.org/2000/svg" width="12.4" height="12.403" viewBox="0 0 12.4 12.403">
  <path id="路径_12950" data-name="路径 12950" d="M28.109,68.863a1.334,1.334,0,0,1-.582-.122,1.2,1.2,0,0,1-.618-.76,3.487,3.487,0,0,1-.153-.867q-.009-.128-.017-.257l-.007-.115v-.863l0-.016c0-.008,0-.016,0-.025v-.007c0-.274.008-.542.012-.8,0-.06,0-.121,0-.181,0-.119,0-.243.006-.366a5.052,5.052,0,0,1,.236-1.267,9.444,9.444,0,0,1,1.191-2.468A7.081,7.081,0,0,1,29.523,59.2a2.613,2.613,0,0,1,.869-.517,1.026,1.026,0,0,1,.967.115,1.455,1.455,0,0,1,.428.505,3.545,3.545,0,0,1,.311.818c0-.658,0-1.323,0-1.969V57.6c0-.031,0-.063,0-.1a.69.69,0,0,1,.26-.506.6.6,0,0,1,.531-.109.68.68,0,0,1,.476.684q0,.293,0,.586c0,.648,0,1.317,0,1.976q.029-.122.063-.243a2.4,2.4,0,0,1,.442-.9,1.013,1.013,0,0,1,1-.394,1.8,1.8,0,0,1,.666.266,4.587,4.587,0,0,1,1.061.942,9.669,9.669,0,0,1,1.871,3.342,4.737,4.737,0,0,1,.236,1.178c.013.224.016.451.018.67l0,.282c.006.423.011.861.01,1.292a5.357,5.357,0,0,1-.1,1.085,1.838,1.838,0,0,1-.257.666,1.133,1.133,0,0,1-.981.5,2.539,2.539,0,0,1-.874-.138,5.528,5.528,0,0,1-2.7-1.93,3.854,3.854,0,0,1-.594-1.09,3.616,3.616,0,0,1-.191-1.259c.005-.232.008-.469.011-.7.007-.552.015-1.123.051-1.687-.107-.1-.213-.212-.315-.316a3.029,3.029,0,0,1-.423.387l.008.175c.018.39.036.794.045,1.192.008.354.009.732,0,1.226a3.166,3.166,0,0,1-.045.489,3.584,3.584,0,0,1-.615,1.457,5.532,5.532,0,0,1-1.777,1.626,3.95,3.95,0,0,1-1.742.6Q28.176,68.863,28.109,68.863ZM27.1,66.721l.007.109c.005.083.011.169.017.253a3.107,3.107,0,0,0,.132.764.827.827,0,0,0,.419.533,1.063,1.063,0,0,0,.54.085,3.615,3.615,0,0,0,1.588-.553A5.088,5.088,0,0,0,31.463,66.4a3.186,3.186,0,0,0,.549-1.293,2.745,2.745,0,0,0,.04-.424c.006-.489,0-.863,0-1.211-.009-.394-.027-.795-.045-1.183l-.009-.191a.344.344,0,0,1,.142-.314,2.669,2.669,0,0,0,.461-.438l0,0a.241.241,0,0,1,.182-.088h0a.241.241,0,0,1,.182.085c.011.013.024.027.036.04l.023.023c.115.117.234.238.353.353a.313.313,0,0,1,.1.255c-.037.566-.045,1.145-.053,1.705,0,.23-.006.468-.011.7a3.2,3.2,0,0,0,.7,2.09,5.164,5.164,0,0,0,2.52,1.8,2.188,2.188,0,0,0,.755.121.782.782,0,0,0,.689-.339,1.447,1.447,0,0,0,.2-.522,4.954,4.954,0,0,0,.088-1c0-.428,0-.864-.01-1.286l0-.282c0-.214-.005-.436-.018-.65a4.328,4.328,0,0,0-.217-1.074,9.272,9.272,0,0,0-1.794-3.2,4.162,4.162,0,0,0-.973-.867,1.456,1.456,0,0,0-.536-.217.659.659,0,0,0-.661.264,2.021,2.021,0,0,0-.366.753c-.044.153-.078.307-.114.47-.016.071-.032.145-.049.218l-.009.038-.1.4-.232-.3-.043-.058a.852.852,0,0,0-.065-.083A.7.7,0,0,1,33,60.173c0-.672,0-1.356,0-2.018q0-.293,0-.586a.288.288,0,0,0-.2-.3.252.252,0,0,0-.222.045.289.289,0,0,0-.108.212c0,.022,0,.047,0,.073v.559c0,.725,0,1.474,0,2.211a.556.556,0,0,1-.063.255c-.042.077-.088.147-.133.216l-.05.077-.069.108-.255-.053-.026-.128-.022-.116c-.016-.081-.032-.165-.049-.247a3.567,3.567,0,0,0-.332-.973,1.069,1.069,0,0,0-.313-.376.688.688,0,0,0-.654-.067,2.237,2.237,0,0,0-.748.449,6.71,6.71,0,0,0-1.264,1.47,9.045,9.045,0,0,0-1.141,2.363,4.648,4.648,0,0,0-.218,1.162c-.005.115-.005.228-.006.349q0,.093,0,.186c0,.256-.007.526-.012.8a.4.4,0,0,1-.008.069v.808Zm0,0" transform="translate(-26.532 -56.66)" fill="#e24445" stroke="#e24445" stroke-width="0.4"/>
</svg>
