<svg xmlns="http://www.w3.org/2000/svg" width="12" height="12" viewBox="0 0 12 12">
  <g id="组_10723" data-name="组 10723" transform="translate(-90.73 -79.4)">
    <path id="路径_12958" data-name="路径 12958" d="M101.307,79.4H92.153a1.4,1.4,0,0,0-1.423,1.381v9.239A1.4,1.4,0,0,0,92.153,91.4h9.154a1.4,1.4,0,0,0,1.423-1.381V80.781A1.4,1.4,0,0,0,101.307,79.4Zm.379,10.619a.374.374,0,0,1-.379.367H92.153a.374.374,0,0,1-.379-.367V80.781a.373.373,0,0,1,.379-.367h9.154a.373.373,0,0,1,.379.367Z" transform="translate(0)" fill="rgba(226,68,69,0.9)"/>
    <path id="路径_12959" data-name="路径 12959" d="M272.956,240.46a3.539,3.539,0,0,0-3.525,2.817.511.511,0,0,0,.519.591.521.521,0,0,0,.519-.416,2.549,2.549,0,0,1,4.972,0,.521.521,0,0,0,.519.416.511.511,0,0,0,.519-.591A3.539,3.539,0,0,0,272.956,240.46Zm.644,5.842a1.03,1.03,0,0,0-.447-.048l-1.108-1.5a.544.544,0,0,0-.734-.122.487.487,0,0,0-.128.7l1.141,1.546a.935.935,0,0,0,.6,1.2,1.009,1.009,0,0,0,1.274-.565A.935.935,0,0,0,273.6,246.3Z" transform="translate(-176.226 -158.836)" fill="rgba(226,68,69,0.9)"/>
  </g>
</svg>
