<svg xmlns="http://www.w3.org/2000/svg" width="12" height="12" viewBox="0 0 12 12">
  <path id="路径_12948" data-name="路径 12948" d="M57.277,63.751h2.518a.386.386,0,1,0,0-.773H57.277a.386.386,0,1,0,0,.773Zm9.372.013H68.5a.386.386,0,1,0,0-.773H66.649a.386.386,0,1,0,0,.773Zm-6.478-.292,1.549-6.109a.388.388,0,0,0-.752-.189l-1.549,6.109a.388.388,0,0,0,.752.189Zm.791-6.136,2.015,11.227a.388.388,0,0,0,.764-.136L61.725,57.2a.388.388,0,0,0-.764.136Zm2.775,11.248,1.592-6.717a.388.388,0,0,0-.755-.178l-1.592,6.717a.388.388,0,0,0,.755.178Zm.948-6.525,1.7,1.6a.389.389,0,0,0,.548-.015.385.385,0,0,0-.015-.546l-1.7-1.6a.389.389,0,0,0-.548.015.385.385,0,0,0,.015.546Z" transform="translate(-56.889 -56.882)" fill="#e24445"/>
</svg>
