<?xml version="1.0" encoding="utf-8"?>
<!-- Generator: Adobe Illustrator 25.3.1, SVG Export Plug-In . SVG Version: 6.00 Build 0)  -->
<svg version="1.1" id="Layer_1" xmlns="http://www.w3.org/2000/svg" xmlns:xlink="http://www.w3.org/1999/xlink" x="0px" y="0px"
	 viewBox="0 0 595.3 595.3" style="enable-background:new 0 0 595.3 595.3;" xml:space="preserve">
<style type="text/css">
	.st0{fill:none;}
	.st1{fill:#3890CE;}
	.st2{fill:#30B354;}
	.st3{fill:url(#Ellipse_444_1_);}
</style>
<g id="Group_3381" transform="translate(0 0)">
	<line id="Line_1161" class="st0" x1="265.5" y1="210.7" x2="265.5" y2="212"/>
	<g id="Group_7803_1_" transform="translate(0 0)">
		<g id="Group_3381_1_" transform="translate(0 0)">
			<path id="Path_812" class="st1" d="M496.3,365.6c0.1,22.5,2.1,44.9,6,67c3.5,13.7,5.5,32.4,20.9,39.7c8.7,4,18.7,3.9,27.3-0.2
				c6.5-3.2,11.4-8.6,17.8-12c6.3-4,14.5-3.5,20.3,1.4c4.3,5.3,1,12.7-3,18.1c-14.3,18.2-35.1,30.1-58,33.2
				c-23.4,3.3-47.2-2.1-66.8-15.3c-28.3-19.7-40.2-52.8-45.4-84.6c-11.7-72.1,3.5-145.7-3.8-218.2c-0.7-13.6-4.2-26.9-10.3-39.1
				c-1.6-3.2-3.9-5.9-6.9-7.9c-8.5-5.1-21.3-0.5-29.5-6c-6.1-5.2-6.9-14.4-1.7-20.5c0.7-0.8,1.5-1.5,2.3-2.2
				c7.7-5.6,16.9-8.8,26.4-9.3c18.5-2.6,38.5-3.7,54.8,4.5c14.9,8.6,26.3,22.2,31.9,38.5c13.1,31.5,16,65.4,16.7,98.7
				c0.7,34.5,1.5,68.9,0.4,103.4"/>
			<path id="Path_813" class="st2" d="M193.5,586c0,0-34.5-16.3-39-45.3c-4.5-29-11.2-65.3,24.2-153.2c30.9-0.2,61.7,1.9,92.3,6.3
				c52.5,7.3,75.2,15.3,87.8,17c12.7,1.7,18.1-0.2,21.8-3.3c3.7-3.2,1.3-9-7.8-16c-9.1-7-53.4-30-175.5-45c0,0,37.6-74.2,74.4-115.9
				s74.8-81.5,107.6-85.2c0,0-14.9-3.7-17.9-13.3s13-18.3,13-18.3s-32.8,6.3-94.1,65.6c-48.3,48.6-90,103.3-123.9,162.8
				c-35.9-5.5-72.6-0.8-106.1,13.3C7.1,374.6,3.4,392.3,0,402.6c0,0,91.6-18.7,132.9-14c-3.5,6-6.4,12.3-8.8,18.8
				c-4.6,10.7-9.1,21.5-13.2,32.5c-8.4,21.6-14.3,44.1-17.6,67c-3.7,19.8-1,40.3,7.6,58.6C118.8,598.2,160.2,602.2,193.5,586z"/>
			
				<radialGradient id="Ellipse_444_1_" cx="422.6066" cy="42.2291" r="45.9787" fx="424.7807" fy="41.7037" gradientTransform="matrix(1 5.700991e-03 -5.182419e-03 0.909 0.2257 1.4326)" gradientUnits="userSpaceOnUse">
				<stop  offset="0" style="stop-color:#FFD25A"/>
				<stop  offset="0.477" style="stop-color:#FBB432"/>
				<stop  offset="0.733" style="stop-color:#F9A41C"/>
				<stop  offset="0.805" style="stop-color:#F9B61E"/>
				<stop  offset="0.947" style="stop-color:#FAD923"/>
			</radialGradient>
			<ellipse id="Ellipse_444" class="st3" cx="423" cy="41.9" rx="46.5" ry="41.6"/>
		</g>
	</g>
</g>
</svg>
