<?xml version="1.0" encoding="utf-8"?>
<!-- Generator: Adobe Illustrator 25.3.1, SVG Export Plug-In . SVG Version: 6.00 Build 0)  -->
<svg version="1.1" id="Layer_1" xmlns="http://www.w3.org/2000/svg" xmlns:xlink="http://www.w3.org/1999/xlink" x="0px" y="0px"
	 viewBox="0 0 595.3 595.3" style="enable-background:new 0 0 595.3 595.3;" xml:space="preserve">
<style type="text/css">
	.st0{opacity:0.15;fill:#1D42AD;enable-background:new    ;}
	.st1{fill:#2988E6;}
	.st2{fill:#FFFFFF;}
	.st3{fill:#FFFFFF;stroke:#FFFFFF;stroke-width:11;stroke-miterlimit:10;}
</style>
<circle id="Ellipse_601" class="st0" cx="297.6" cy="297.6" r="297.6"/>
<circle id="Ellipse_602" class="st1" cx="297.6" cy="297.6" r="260.4"/>
<g>
	<circle class="st2" cx="268.8" cy="236.5" r="21.6"/>
	<circle class="st2" cx="333.8" cy="258.1" r="21.6"/>
	<circle class="st2" cx="398.9" cy="192.7" r="21.6"/>
	<circle class="st2" cx="203.7" cy="290.5" r="21.6"/>
	<line class="st3" x1="203.7" y1="288" x2="268.8" y2="236.5"/>
	<line class="st3" x1="272.9" y1="237" x2="336.6" y2="255.5"/>
	<line class="st3" x1="339.2" y1="252.2" x2="398.9" y2="192.7"/>
</g>
<g>
	<g>
		<path class="st2" d="M283.5,301.4h-30.5c-4.2,0-7.6,3.6-7.6,8.1v106.8h45.8V309.5C291.1,305,287.7,301.4,283.5,301.4z"/>
	</g>
</g>
<g>
	<g>
		<path class="st2" d="M350.1,323h-30.5c-4.2,0-7.6,4.1-7.6,9.2v84.1h45.8v-84.1C357.7,327.2,354.3,323,350.1,323z"/>
	</g>
</g>
<g>
	<g>
		<path class="st2" d="M413.5,257.3h-30.5c-4.2,0-7.6,3.9-7.6,8.8v150.2h45.8V266.1C421.1,261.3,417.7,257.3,413.5,257.3z"/>
	</g>
</g>
<g>
	<g>
		<path class="st2" d="M219.8,354.3h-30.5c-4.2,0-7.6,3.4-7.6,7.6v54.4h45.8v-54.4C227.4,357.7,224,354.3,219.8,354.3z"/>
	</g>
</g>
<g>
	<g>
		<path class="st2" d="M424,416.3c-34.1,0-49.7,0-55.9,0c-2.8,0-3.8,0-3.8,0c-11.2,0-53.1,0-185.5,0c-4.2,0-7.6,3.4-7.6,7.6
			s3.4,7.6,7.6,7.6c92.3,0,158.9,0,245.2,0c4.2,0,7.6-3.4,7.6-7.6C431.6,419.7,428.2,416.3,424,416.3z"/>
	</g>
</g>
</svg>
