<svg xmlns="http://www.w3.org/2000/svg" width="113.666" height="136.767" viewBox="0 0 113.666 136.767">
  <g id="doctor" transform="translate(-7.911 -1.998)">
    <path id="Path_7715" data-name="Path 7715" d="M51.6,78.349c-17.621-.574-21.847-15.661-22.752-20.532A7.649,7.649,0,0,1,24.567,55.1a8.61,8.61,0,0,1-1.6-5.861,8.085,8.085,0,0,1,1.907-6.285,5.912,5.912,0,0,1,1.424-1.075,31.075,31.075,0,0,1-4.63-17.65C23.7,9.649,35.45,8.23,39.129,8.148A17.222,17.222,0,0,1,45.32,3.582,21.82,21.82,0,0,1,59.346,2.8c9.108,2.378,15.183,6.938,18.065,13.555,4.1,9.405.5,20.231-1.563,25.092a5.985,5.985,0,0,1,2.134,1.225,7.837,7.837,0,0,1,2.18,6.567,8.6,8.6,0,0,1-1.6,5.861,7.661,7.661,0,0,1-4.287,2.722C73.369,62.688,69.152,77.775,51.6,78.349ZM29.559,45a2.643,2.643,0,0,0-1.887.672,4.656,4.656,0,0,0-.8,3.5,2.007,2.007,0,0,1-.014.391,4.824,4.824,0,0,0,.819,3.175A4.46,4.46,0,0,0,30.8,54.212a1.954,1.954,0,0,1,1.717,1.774c.064.727,1.8,17.891,19.086,18.457,17.193-.567,18.934-17.73,19-18.461a1.954,1.954,0,0,1,1.717-1.77,4.457,4.457,0,0,0,3.126-1.481,4.834,4.834,0,0,0,.819-3.19,2.046,2.046,0,0,1-.014-.379,4.656,4.656,0,0,0-.881-3.587,2.964,2.964,0,0,0-2.122-.555,1.954,1.954,0,0,1-2.061-2.851c.072-.137,7.229-13.719,2.63-24.276-2.382-5.455-7.581-9.263-15.456-11.318a17.9,17.9,0,0,0-11.474.586,13.139,13.139,0,0,0-5.263,4.119,1.936,1.936,0,0,1-1.733.782c-.506-.041-12.469-.815-14.345,12.559h0s-.541,10.638,5.621,17.086a1.954,1.954,0,0,1,.371,2.149,1.85,1.85,0,0,1-1.85,1.155Z" transform="translate(13.092 0)" fill="#114a8f"/>
    <path id="Path_7716" data-name="Path 7716" d="M69.972,36.87A1.954,1.954,0,0,1,68.018,35c-.023-.506-.629-12.309-9.441-13.444a29.748,29.748,0,0,1-22.689-6.572C33.4,16.856,27.657,22.551,28.761,34.7a1.954,1.954,0,0,1-3.884.354c-1.62-17.82,9.824-24.006,10.31-24.26a1.954,1.954,0,0,1,2.255.32A26.093,26.093,0,0,0,58.2,17.663a2.184,2.184,0,0,1,.541-.02c9.933,1.034,12.967,11.705,13.182,17.193a1.954,1.954,0,0,1-1.872,2.028Z" transform="translate(16.032 8.175)" fill="#114a8f"/>
    <path id="Path_7717" data-name="Path 7717" d="M119.624,96.253H9.865A1.954,1.954,0,0,1,7.911,94.3V72.519A26,26,0,0,1,33.9,46.571h3.751a1.954,1.954,0,0,1,0,3.908H33.9a22.089,22.089,0,0,0-22.078,22.04V92.346H117.67V72.519a22.066,22.066,0,0,0-22.04-22.04H91.609a1.954,1.954,0,0,1,0-3.908h4.021a25.985,25.985,0,0,1,25.948,25.948V94.3A1.954,1.954,0,0,1,119.624,96.253Z" transform="translate(0 42.512)" fill="#114a8f"/>
    <path id="Path_7718" data-name="Path 7718" d="M41.3,99.452a1.954,1.954,0,0,1-1.932-2.245l7.907-52.328A1.954,1.954,0,0,1,49.766,43.3l13.645,4.113A1.954,1.954,0,0,1,64.6,50.148L59.175,61.031l3.146,3.53a1.954,1.954,0,0,1,.2,2.327L42.957,98.526A1.954,1.954,0,0,1,41.3,99.452Zm9.5-51.759L44.654,88.356l13.78-22.273-3.054-3.429a1.954,1.954,0,0,1-.291-2.171l4.978-9.992Z" transform="translate(29.978 39.314)" fill="#114a8f"/>
    <path id="Path_7719" data-name="Path 7719" d="M45.021,99.449a1.954,1.954,0,0,1-1.663-.926L23.793,66.891a1.954,1.954,0,0,1,.2-2.327l3.146-3.53L21.711,50.151A1.954,1.954,0,0,1,22.9,47.416L36.544,43.3a1.954,1.954,0,0,1,2.493,1.579L46.947,97.21a1.954,1.954,0,0,1-1.926,2.239ZM27.882,66.074l13.78,22.273L35.518,47.689l-9.269,2.794,4.976,9.992a1.954,1.954,0,0,1-.289,2.171Z" transform="translate(12.969 39.317)" fill="#114a8f"/>
    <path id="Path_7720" data-name="Path 7720" d="M44.054,55.632a105.919,105.919,0,0,1-12.639-.766,1.954,1.954,0,1,1,.465-3.878,98.5,98.5,0,0,0,24.045,0,1.954,1.954,0,1,1,.488,3.877,98.665,98.665,0,0,1-12.36.768Z" transform="translate(20.724 46.705)" fill="#114a8f"/>
    <path id="Path_7721" data-name="Path 7721" d="M46.853,52.752a1.954,1.954,0,0,1-1.563-.791c-2.9-3.925-3.429-11.705-3.478-12.578a1.954,1.954,0,0,1,1.837-2.063,1.975,1.975,0,0,1,2.063,1.837c.119,2.055.842,7.946,2.718,10.482a1.954,1.954,0,0,1-1.563,3.114Z" transform="translate(32.331 33.686)" fill="#114a8f"/>
    <path id="Path_7722" data-name="Path 7722" d="M30.444,52.754a1.954,1.954,0,0,1-1.563-3.114c1.88-2.54,2.6-8.429,2.72-10.482a1.957,1.957,0,1,1,3.908.227c-.049.873-.586,8.653-3.478,12.578a1.954,1.954,0,0,1-1.586.791Z" transform="translate(19.636 33.683)" fill="#114a8f"/>
    <path id="Path_7723" data-name="Path 7723" d="M61.035,68.8a1.954,1.954,0,0,1-1.954-1.9c-.365-12.723-5.2-16.726-5.25-16.765a1.967,1.967,0,0,1-.34-2.735,1.942,1.942,0,0,1,2.706-.375c.258.2,6.363,4.937,6.791,19.762a1.954,1.954,0,0,1-1.9,2.008Z" transform="translate(43.088 42.58)" fill="#114a8f"/>
    <path id="Path_7724" data-name="Path 7724" d="M60.931,71.429a7.723,7.723,0,1,1,7.721-7.723,7.723,7.723,0,0,1-7.721,7.723Zm0-11.539A3.816,3.816,0,1,0,64.745,63.7a3.816,3.816,0,0,0-3.814-3.815Z" transform="translate(43.201 51.488)" fill="#114a8f"/>
    <path id="Path_7725" data-name="Path 7725" d="M17.082,68.749a1.954,1.954,0,0,1-1.954-1.815c-1.065-15,7.2-19.788,7.549-19.985a1.954,1.954,0,1,1,1.921,3.4c-.3.176-6.447,3.972-5.574,16.306a1.954,1.954,0,0,1-1.811,2.087Z" transform="translate(6.793 42.632)" fill="#114a8f"/>
    <path id="Path_7726" data-name="Path 7726" d="M16.085,75.761a1.954,1.954,0,0,1-1.563-.77,12.213,12.213,0,0,1-2.069-4.2A11.746,11.746,0,0,1,20.13,56.156a10.941,10.941,0,0,1,8.4,1.039,12.539,12.539,0,0,1,6.1,12.918,1.954,1.954,0,1,1-3.855-.641,8.64,8.64,0,0,0-4.154-8.87,7.071,7.071,0,0,0-5.428-.69,7.842,7.842,0,0,0-4.978,9.839,8.337,8.337,0,0,0,1.418,2.872,1.954,1.954,0,0,1-1.553,3.136Z" transform="translate(3.838 51.265)" fill="#114a8f"/>
    <path id="Path_7727" data-name="Path 7727" d="M24.606,65.973a1.559,1.559,0,0,1-.232-.012l-2.2-.26a1.955,1.955,0,0,1,.461-3.882l2.2.262a1.954,1.954,0,0,1-.229,3.894Z" transform="translate(11.957 57.043)" fill="#114a8f"/>
    <path id="Path_7728" data-name="Path 7728" d="M15.014,68.331a1.954,1.954,0,0,1-.68-3.786l2.345-.866a1.955,1.955,0,0,1,1.368,3.663L15.7,68.21a1.954,1.954,0,0,1-.688.121Z" transform="translate(4.909 58.712)" fill="#114a8f"/>
  </g>
</svg>
