<?xml version="1.0" encoding="utf-8"?>
<!-- Generator: Adobe Illustrator 25.3.1, SVG Export Plug-In . SVG Version: 6.00 Build 0)  -->
<svg version="1.1" id="Layer_1" xmlns="http://www.w3.org/2000/svg" xmlns:xlink="http://www.w3.org/1999/xlink" x="0px" y="0px"
	 viewBox="0 0 595.3 595.3" style="enable-background:new 0 0 595.3 595.3;" xml:space="preserve">
<style type="text/css">
	.st0{opacity:0.15;fill:#1D42AD;enable-background:new    ;}
	.st1{fill:#2988E6;}
	.st2{fill:#FFFFFF;}
</style>
<g id="Group_7920" transform="translate(-966 -3794)">
	<circle id="Ellipse_586" class="st0" cx="1263.6" cy="4091.6" r="297.6"/>
	<circle id="Ellipse_589" class="st1" cx="1263.6" cy="4091.6" r="260.4"/>
	<path id="Icon_awesome-clock" class="st2" d="M1263.6,3946.2c-80.3,0-145.5,65.1-145.5,145.5s65.1,145.5,145.5,145.5
		s145.5-65.1,145.5-145.5l0,0C1409.1,4011.3,1344,3946.2,1263.6,3946.2C1263.7,3946.2,1263.7,3946.2,1263.6,3946.2z M1297.1,4151.5
		l-51.7-37.6c-1.8-1.3-2.9-3.4-2.9-5.7v-98.7c0-3.9,3.2-7,7-7h28.1c3.9,0,7,3.2,7,7v80.8l37.2,27.1c3.1,2.3,3.8,6.7,1.5,9.8
		c0,0,0,0,0,0l-16.5,22.8C1304.6,4153.1,1300.3,4153.8,1297.1,4151.5L1297.1,4151.5z"/>
</g>
</svg>
