<?xml version="1.0" encoding="utf-8"?>
<!-- Generator: Adobe Illustrator 25.3.1, SVG Export Plug-In . SVG Version: 6.00 Build 0)  -->
<svg version="1.1" id="Layer_1" xmlns="http://www.w3.org/2000/svg" xmlns:xlink="http://www.w3.org/1999/xlink" x="0px" y="0px"
	 viewBox="0 0 595.3 595.3" style="enable-background:new 0 0 595.3 595.3;" xml:space="preserve">
<style type="text/css">
	.st0{opacity:0.15;fill:#1D42AD;enable-background:new    ;}
	.st1{fill:#2988E6;}
	.st2{fill:#FFFFFF;}
</style>
<g id="Group_7922" transform="translate(-231 -4001)">
	<circle id="Ellipse_601" class="st0" cx="528.6" cy="4298.6" r="297.6"/>
	<circle id="Ellipse_602" class="st1" cx="528.6" cy="4298.6" r="260.4"/>
	<path id="Icon_awesome-check" class="st2" d="M485.6,4409.4l-87-87c-5.2-5.2-5.2-13.7,0-18.9c0,0,0,0,0,0l18.9-19
		c5.2-5.2,13.7-5.2,18.9,0c0,0,0,0,0,0l58.6,58.7l125.6-125.6c5.2-5.2,13.7-5.2,18.9,0c0,0,0,0,0,0l18.9,19c5.2,5.2,5.2,13.7,0,18.9
		c0,0,0,0,0,0l-154,154C499.3,4414.6,490.9,4414.6,485.6,4409.4C485.6,4409.4,485.6,4409.4,485.6,4409.4z"/>
</g>
</svg>
