<?xml version="1.0" encoding="utf-8"?>
<!-- Generator: Adobe Illustrator 25.3.1, SVG Export Plug-In . SVG Version: 6.00 Build 0)  -->
<svg version="1.1" id="Layer_1" xmlns="http://www.w3.org/2000/svg" xmlns:xlink="http://www.w3.org/1999/xlink" x="0px" y="0px"
	 viewBox="0 0 595.3 595.3" style="enable-background:new 0 0 595.3 595.3;" xml:space="preserve">
<style type="text/css">
	.st0{opacity:0.15;fill:#1D42AD;enable-background:new    ;}
	.st1{fill:#FFFFFF;}
	.st2{font-family:'ProximaNova-Bold';}
	.st3{font-size:306.3941px;}
	.st4{fill:#2988E6;}
</style>
<circle id="Ellipse_578" class="st0" cx="297.6" cy="297.6" r="297.6"/>
<text transform="matrix(1 0 0 1 201.3438 393.9365)" class="st1 st2 st3">5</text>
<circle id="Ellipse_580" class="st4" cx="297.6" cy="297.6" r="260.4"/>
<path id="Icon_awesome-calendar-alt" class="st1" d="M163.7,431.9c-0.6,16.4,12.2,30.2,28.6,30.8h210.1
	c16.4-0.6,29.2-14.4,28.6-30.8V257.2H163.7V431.9z M354.7,306.1c-0.1-4.1,3.1-7.5,7.2-7.7h23.9c4.1,0.1,7.3,3.6,7.2,7.7c0,0,0,0,0,0
	v25.7c0.2,4.1-3.1,7.6-7.2,7.7c0,0,0,0,0,0h-23.9c-4.1-0.1-7.3-3.6-7.2-7.7c0,0,0,0,0,0V306.1z M354.7,388.3
	c-0.2-4.1,3.1-7.6,7.2-7.7c0,0,0,0,0,0h23.9c4.1,0.1,7.3,3.6,7.2,7.7c0,0,0,0,0,0V414c0.2,4.1-3.1,7.6-7.2,7.7c0,0,0,0,0,0h-23.9
	c-4.1-0.1-7.3-3.6-7.2-7.7c0,0,0,0,0,0V388.3z M278.3,306.1c-0.2-4.1,3.1-7.6,7.2-7.7c0,0,0,0,0,0h23.9c4.1,0.1,7.3,3.6,7.2,7.7
	c0,0,0,0,0,0v25.7c0.2,4.1-3.1,7.6-7.2,7.7c0,0,0,0,0,0h-23.9c-4.1-0.1-7.3-3.6-7.2-7.7c0,0,0,0,0,0L278.3,306.1z M278.3,388.3
	c-0.2-4.1,3.1-7.6,7.2-7.7c0,0,0,0,0,0h23.9c4.1,0.1,7.3,3.6,7.2,7.7c0,0,0,0,0,0V414c0.2,4.1-3.1,7.6-7.2,7.7c0,0,0,0,0,0h-23.9
	c-4.1-0.1-7.3-3.6-7.2-7.7c0,0,0,0,0,0L278.3,388.3z M201.9,306.1c-0.1-4.1,3.1-7.5,7.2-7.7h23.8c4.1,0.1,7.3,3.6,7.2,7.7
	c0,0,0,0,0,0v25.7c0.1,4.1-3.1,7.5-7.2,7.7h-23.8c-4.1-0.1-7.3-3.6-7.2-7.7c0,0,0,0,0,0L201.9,306.1z M201.9,388.3
	c-0.2-4.1,3.1-7.6,7.2-7.7c0,0,0,0,0,0h23.8c4.1,0.1,7.3,3.6,7.2,7.7c0,0,0,0,0,0V414c0.2,4.1-3.1,7.6-7.2,7.7c0,0,0,0,0,0h-23.8
	c-4.1-0.1-7.3-3.6-7.2-7.7c0,0,0,0,0,0L201.9,388.3z M402.4,175h-28.6v-30.8c0.2-5.5-4.1-10.1-9.5-10.3h-19.1
	c-5.5,0.2-9.7,4.8-9.6,10.3V175h-76.4v-30.8c0.2-5.5-4.1-10.1-9.6-10.3h-19.1c-5.5,0.2-9.7,4.8-9.6,10.3V175h-28.6
	c-16.4,0.6-29.2,14.4-28.6,30.8v30.8h267.4v-30.8C431.7,189.5,418.9,175.7,402.4,175z"/>
</svg>
