<?xml version="1.0" encoding="utf-8"?>
<!-- Generator: Adobe Illustrator 25.3.1, SVG Export Plug-In . SVG Version: 6.00 Build 0)  -->
<svg version="1.1" id="Layer_1" xmlns="http://www.w3.org/2000/svg" xmlns:xlink="http://www.w3.org/1999/xlink" x="0px" y="0px"
	 viewBox="0 0 595.3 595.3" style="enable-background:new 0 0 595.3 595.3;" xml:space="preserve">
<style type="text/css">
	.st0{opacity:0.501;fill:#FFFFFF;enable-background:new    ;}
	.st1{fill:#2988E6;}
	.st2{fill:#FFFFFF;}
</style>
<circle id="Ellipse_592" class="st0" cx="297.6" cy="297.6" r="297.6"/>
<circle id="Ellipse_593" class="st1" cx="297.6" cy="297.6" r="260.4"/>
<g id="waiting-room_2_" transform="translate(17 12.465)">
	<g id="Group_7817" transform="translate(18.066 31.799)">
		<g id="Group_7816">
			<path id="Path_6054" class="st2" d="M295.3,328.9c-1.5-6.9,0.3-14,4.9-19.3c-0.6-2.4-1.5-4.7-2.6-6.9l-25.6-11.3
				c-3.1-1.4-5.9-3.5-8.1-6.2c-2.2,2.7-4.9,4.8-8.1,6.2l-26.8,11.8c-1.1,2.3-2,4.8-2.6,7.3c4,5.1,5.5,11.6,4.3,18l-5,26v56.7
				c0,5.1,4.2,9.2,9.3,9.2c5.1,0,9.2-4.1,9.2-9.2v-93.9c0-7.5,6.1-13.6,13.6-13.6h11.3c7.5,0,13.6,6.1,13.6,13.6v93.9
				c0,5.1,4.2,9.2,9.3,9.2c5.1,0,9.2-4.1,9.2-9.2v-55L295.3,328.9z"/>
		</g>
	</g>
	<g id="Group_7819" transform="translate(39.506 31.806)">
		<g id="Group_7818">
			<path id="Path_6055" class="st2" d="M405,285.2h-3c-2.1,2.7-4.9,4.8-8,6.1l-26.8,11.8c-1.1,2.3-2,4.8-2.6,7.3
				c4,5.1,5.5,11.6,4.3,18l-5,26v56.7c0,5.1,4.2,9.2,9.3,9.2c5.1,0,9.2-4.1,9.2-9.2v-93.9c0-7.5,6.1-13.6,13.6-13.6h8.9
				c5.1,0,9.2-4.2,9.2-9.3c0-5.1-4.1-9.2-9.2-9.2L405,285.2z"/>
		</g>
	</g>
	<g id="Group_7821" transform="translate(32.603 33.444)">
		<g id="Group_7820">
			<path id="Path_6056" class="st2" d="M329.2,295.7c-1.7,5-5.1,9.2-9.7,11.8c2.6,2.9,4.5,6.5,5.3,10.3l3.7,17.1l3.2-16.7
				c0.8-4.4,2.9-8.4,6.1-11.5C333.8,304.1,330.8,300.2,329.2,295.7z"/>
		</g>
	</g>
	<g id="Group_7823" transform="translate(30.521 14.09)">
		<g id="Group_7822">
			<circle id="Ellipse_594" class="st2" cx="331.4" cy="196.3" r="25.3"/>
		</g>
	</g>
	<g id="Group_7825" transform="translate(28.546 35.23)">
		<g id="Group_7824">
			<path id="Path_6057" class="st2" d="M320.2,397.4l8-41.7l-8.1-37.9c-1.5-7.3-8.6-12-15.9-10.6c-7.3,1.5-12,8.6-10.6,15.9
				c0,0.1,0,0.2,0.1,0.3l17.4,81c1.3,6.2,6.8,10.7,13.2,10.7C320.4,410.1,318.9,403.7,320.2,397.4z"/>
		</g>
	</g>
	<g id="Group_7827" transform="translate(33.301 35.23)">
		<g id="Group_7826">
			<path id="Path_6058" class="st2" d="M355.6,307.4c-7.3-1.4-14.4,3.4-15.8,10.7l-15.6,81c-1.6,7.3,3.1,14.5,10.4,16
				c7.3,1.6,14.5-3.1,16-10.4c0-0.2,0.1-0.4,0.1-0.5l15.6-81C367.7,315.9,362.9,308.9,355.6,307.4z"/>
		</g>
	</g>
	<g id="Group_7829" transform="translate(0 31.807)">
		<g id="Group_7828">
			<path id="Path_6059" class="st2" d="M153.9,328.8c-1.3-5.8-0.1-11.9,3.1-16.9c0.5-0.8,1.2-1.7,1.8-2.4c-0.6-2.4-1.5-4.7-2.6-6.9
				l-25.6-11.3c-3.1-1.4-5.9-3.5-8-6.1h-3.8c-5.1-0.1-9.3,3.9-9.5,9c-0.1,5.1,3.9,9.3,9,9.5c0.2,0,0.4,0,0.5,0h8.9
				c7.5,0,13.6,6.1,13.6,13.6v93.9c0,5.1,4.1,9.2,9.2,9.2s9.2-4.1,9.2-9.2v-55L153.9,328.8z"/>
		</g>
	</g>
	<g id="Group_7831" transform="translate(11.163 33.444)">
		<g id="Group_7830">
			<path id="Path_6060" class="st2" d="M191.1,295.7c-1.7,5-5.1,9.2-9.7,11.8c2.6,2.9,4.5,6.5,5.3,10.3l3.7,17.1l3.2-16.7
				c0.8-4.4,2.9-8.4,6.1-11.5C195.7,304.1,192.7,300.2,191.1,295.7z"/>
		</g>
	</g>
	<g id="Group_7833" transform="translate(2.359 21.968)">
		<g id="Group_7832">
			<path id="Path_6061" class="st2" d="M274.3,276.9c-3.4-8.5-11-25.8-17.7-39.4c-4.7-9.6-14.4-15.6-25.1-15.7h-63.2
				c-10.6,0-20.3,6.1-25,15.6c-6.5,13.4-14.3,31.1-17.7,39.4c-2.4,6.1,0.4,13,6.4,15.7c48.6,21.4,42.1,18.6,42.9,18.9
				c5.9,2.7,12.9,0.1,15.6-5.9c0.1-0.1,0.1-0.3,0.2-0.4c2.7-6.2-0.1-13.4-6.2-16.1c0,0,0,0,0,0l-31.7-14c3.6-8.2,8.2-18.4,12.4-27
				l0.1-0.1c0.3-0.6,1.1-0.8,1.6-0.5c0.4,0.2,0.7,0.6,0.7,1.1v22.9l20.7,9.1c5.5,2.4,9.8,7,11.7,12.7c1.9-5.7,6.2-10.3,11.7-12.7
				l20.6-9.1v-22.9c0-0.7,0.6-1.3,1.3-1.3c0.5,0,0.9,0.3,1.2,0.7l0.1,0.1c4.3,8.8,8.9,18.9,12.4,27l-31.7,14
				c-6.2,2.7-9,9.9-6.2,16.1c0,0,0,0,0,0c2.9,5.9,9.8,8.6,15.9,6.3c0.8-0.4,9.2-4,42.9-18.9C273.9,289.9,276.7,283,274.3,276.9z"/>
		</g>
	</g>
	<g id="Group_7835" transform="translate(9.081 14.09)">
		<g id="Group_7834">
			<circle id="Ellipse_595" class="st2" cx="193.3" cy="196.3" r="25.3"/>
		</g>
	</g>
	<g id="Group_7837" transform="translate(7.105 35.23)">
		<g id="Group_7836">
			<path id="Path_6062" class="st2" d="M182.1,397.4l8-41.7l-8.1-37.9c-1.5-7.3-8.6-12-15.9-10.6c-7.3,1.5-12,8.6-10.6,15.9
				c0,0.1,0,0.2,0.1,0.3l17.4,81c1.4,6.2,6.9,10.6,13.2,10.6C182.4,410.1,180.9,403.7,182.1,397.4z"/>
		</g>
	</g>
	<g id="Group_7839" transform="translate(11.861 35.23)">
		<g id="Group_7838">
			<path id="Path_6063" class="st2" d="M217.5,307.4c-7.3-1.4-14.4,3.4-15.8,10.7l-15.6,81c-1.6,7.3,3.1,14.5,10.4,16
				c7.3,1.6,14.5-3.1,16-10.4c0-0.2,0.1-0.4,0.1-0.5l15.6-81C229.6,315.9,224.8,308.9,217.5,307.4z"/>
		</g>
	</g>
	<g id="Group_7841" transform="translate(23.8 21.968)">
		<g id="Group_7840" transform="translate(0 0)">
			<path id="Path_6064" class="st2" d="M412.4,276.9c-3.3-8.2-10.8-25.3-17.7-39.4c-4.7-9.6-14.4-15.7-25.1-15.7h-63.2
				c-10.7,0-20.4,6.1-25.1,15.7c-6.5,13.4-14.3,31.1-17.7,39.4c-2.4,6.1,0.4,13,6.4,15.7l42.7,18.8l0.3,0.1c6.2,2.6,13.4-0.2,16-6.4
				c2.6-6.2-0.2-13.4-6.4-16l-31.7-14c3.6-8.3,8.3-18.5,12.4-27l0.1-0.1c0.3-0.6,1.1-0.8,1.6-0.5c0.4,0.2,0.7,0.6,0.7,1.1v22.9
				l20.7,9.1c5.5,2.4,9.8,7,11.7,12.7c1.9-5.7,6.2-10.3,11.7-12.7l20.6-9.1v-22.9c0-0.7,0.6-1.3,1.3-1.3c0.5,0,0.9,0.3,1.2,0.7
				l0.1,0.1c4.2,8.6,8.8,18.8,12.4,27l-31.7,14c-6.2,2.7-8.9,9.9-6.2,16.1c2.7,6.1,9.7,8.9,15.9,6.3l0.2-0.1l42.7-18.8
				C412,289.9,414.8,283,412.4,276.9z"/>
		</g>
	</g>
	<g id="Group_7843" transform="translate(17.407 4.535)">
		<g id="Group_7842" transform="translate(0 0)">
			<path id="Path_6065" class="st2" d="M264.2,109.5c-23.5,0-42.6,19.1-42.6,42.6s19.1,42.6,42.6,42.6s42.6-19.1,42.6-42.6
				c0,0,0,0,0,0C306.8,128.6,287.7,109.5,264.2,109.5z M269.7,152.1c0,1.9-1,3.7-2.6,4.7L254,165c-2.6,1.6-6,0.8-7.6-1.8
				c-1.6-2.6-0.8-6,1.8-7.6l0,0l10.5-6.5v-23.5c0.1-3.1,2.7-5.4,5.7-5.3c2.9,0.1,5.2,2.4,5.3,5.3L269.7,152.1L269.7,152.1z"/>
		</g>
	</g>
</g>
</svg>
