<?xml version="1.0" encoding="utf-8"?>
<!-- Generator: Adobe Illustrator 25.3.1, SVG Export Plug-In . SVG Version: 6.00 Build 0)  -->
<svg version="1.1" id="Layer_1" xmlns="http://www.w3.org/2000/svg" xmlns:xlink="http://www.w3.org/1999/xlink" x="0px" y="0px"
	 viewBox="0 0 595.3 595.3" style="enable-background:new 0 0 595.3 595.3;" xml:space="preserve">
<style type="text/css">
	.st0{opacity:0.501;fill:#FFFFFF;enable-background:new    ;}
	.st1{fill:#2988E6;}
	.st2{fill:#FFFFFF;}
</style>
<circle id="Ellipse_588" class="st0" cx="297.6" cy="297.6" r="297.6"/>
<circle id="Ellipse_591" class="st1" cx="297.6" cy="297.6" r="260.4"/>
<path id="Icon_awesome-user-check" class="st2" d="M249.7,296.4c34.2,0,61.9-33,61.9-73.8s-27.7-73.8-61.9-73.8s-61.9,33-61.9,73.8
	S215.5,296.4,249.7,296.4z M293,314.9h-8.1c-21.9,12.3-48.6,12.3-70.5,0h-8.1c-35.9,0-65,34.7-65,77.5v24
	c0,15.3,10.4,27.7,23.2,27.7h170.2c12.8,0,23.2-12.4,23.2-27.7v-24C357.9,349.6,328.8,314.9,293,314.9z M449.1,240.8l-13.4-16.2
	c-1.7-2.3-4.9-2.7-7.1-1c-0.4,0.3-0.7,0.6-1,1l-50.7,60l-22-26.4c-1.7-2.3-4.9-2.7-7.1-1c-0.4,0.3-0.7,0.6-1,1l-13.6,16.1
	c-2.3,2.8-2.3,6.8,0,9.7l39.5,47.4c1.7,2.3,4.9,2.7,7.1,1c0.4-0.3,0.7-0.6,1-1l68.3-80.8C451.3,247.7,451.3,243.7,449.1,240.8z"/>
</svg>
