<?xml version="1.0" encoding="utf-8"?>
<!-- Generator: Adobe Illustrator 25.3.1, SVG Export Plug-In . SVG Version: 6.00 Build 0)  -->
<svg version="1.1" id="Layer_1" xmlns="http://www.w3.org/2000/svg" xmlns:xlink="http://www.w3.org/1999/xlink" x="0px" y="0px"
	 viewBox="0 0 595.3 595.3" style="enable-background:new 0 0 595.3 595.3;" xml:space="preserve">
<style type="text/css">
	.st0{opacity:0.501;fill:#FFFFFF;enable-background:new    ;}
	.st1{fill:#2988E6;}
	.st2{fill:#FFFFFF;}
	.st3{fill:none;stroke:#FFFFFF;stroke-width:7;stroke-linecap:round;}
</style>
<circle id="Ellipse_587" class="st0" cx="297.6" cy="297.6" r="297.6"/>
<circle id="Ellipse_590" class="st1" cx="297.6" cy="297.6" r="260.4"/>
<g id="Group_7848" transform="translate(-1035 -1695.583)">
	<path id="Icon_awesome-user-md" class="st2" d="M1211.5,1995.6c22.8,0,41.4-20.5,41.4-45.8c0-25.3-18.5-45.8-41.4-45.8
		s-41.4,20.5-41.4,45.8C1170.2,1975.1,1188.7,1995.6,1211.5,1995.6z M1172.8,2055.7c-0.2,4.5,3.2,8.4,7.8,8.6
		c4.7-0.5,8.2-4.7,7.7-9.5c-0.4-4.1-3.6-7.3-7.7-7.7C1176,2047.4,1172.5,2051.2,1172.8,2055.7z M1242.6,2007.2v17.5
		c12.6,3.4,21.1,15.1,20.7,28.1v14.9c0.1,2.6-1.6,4.9-4.2,5.6l-10.4,2.3c-1.4,0.3-2.8-0.7-3-2.1c0,0,0-0.1,0-0.1l-1-5.6
		c-0.3-1.5,0.6-3,2-3.4l6.2-1.4v-10.2c0-22.5-31-23.3-31,0.7v9.6l6.2,1.4c1.4,0.4,2.3,1.9,2,3.4l-1,5.6c-0.2,1.4-1.5,2.4-3,2.2
		c0,0,0,0,0,0l-10.1-1.5c-2.7-0.5-4.6-3-4.5-5.7v-15.7c-0.4-13,8.1-24.6,20.7-28.1v-16.2c-0.7,0.3-1.4,0.4-2.1,0.7
		c-11.9,4.7-25.2,4.7-37.1,0c-2.4-0.9-4.8-1.5-7.3-1.9v29.2c8,2.9,13.2,10.6,12.9,19.1c0.5,10.5-7.6,19.5-18.1,20
		c-10.5-0.6-18.6-9.5-18.1-20.1c-0.2-8.5,5-16.2,12.9-19.1v-28.8c-21.8,5.1-37,24.9-36.2,47.3v16c-0.4,8.4,6.1,15.6,14.5,16h115.8
		c8.4-0.5,14.9-7.6,14.5-16v-16C1285,2030.8,1266.9,2009.8,1242.6,2007.2L1242.6,2007.2z"/>
	<path id="Icon_awesome-user-md-2" class="st2" d="M1449.7,1995.6c22.8,0,41.4-20.5,41.4-45.8c0-25.3-18.5-45.8-41.4-45.8
		s-41.4,20.5-41.4,45.8C1408.4,1975.1,1426.9,1995.6,1449.7,1995.6z M1411,2055.7c-0.2,4.5,3.2,8.4,7.8,8.6c4.7-0.5,8.2-4.7,7.7-9.5
		c-0.4-4.1-3.6-7.3-7.7-7.7C1414.2,2047.4,1410.7,2051.2,1411,2055.7z M1480.7,2007.2v17.5c12.6,3.4,21.1,15.1,20.7,28.1v14.9
		c0.1,2.6-1.6,4.9-4.2,5.6l-10.4,2.3c-1.4,0.3-2.8-0.7-3-2.1c0,0,0-0.1,0-0.1l-1-5.6c-0.3-1.5,0.6-3,2-3.4l6.2-1.4v-10.2
		c0-22.5-31-23.3-31,0.7v9.6l6.2,1.4c1.4,0.4,2.3,1.9,2,3.4l-1,5.6c-0.2,1.4-1.5,2.4-3,2.2c0,0,0,0,0,0l-10.1-1.5
		c-2.7-0.5-4.6-3-4.5-5.7v-15.7c-0.4-13,8.1-24.6,20.7-28.1v-16.2c-0.7,0.3-1.4,0.4-2.1,0.7c-11.9,4.7-25.2,4.7-37.1,0
		c-2.4-0.9-4.8-1.5-7.3-1.9v29.2c8,2.9,13.2,10.6,12.9,19.1c0.5,10.5-7.6,19.5-18.1,20c-10.5-0.6-18.6-9.5-18.1-20.1
		c-0.2-8.5,5-16.2,12.9-19.1v-28.8c-21.8,5.1-37,24.9-36.2,47.3v16c-0.4,8.4,6.1,15.6,14.5,16h115.8c8.4-0.5,14.9-7.6,14.5-16v-16
		C1523.2,2030.8,1505,2009.8,1480.7,2007.2L1480.7,2007.2z"/>
	<g id="Group_7847" transform="translate(-2.29 -1)">
		<line id="Line_1160" class="st3" x1="1291.8" y1="1997.3" x2="1381.4" y2="1997.3"/>
		<circle id="Ellipse_596" class="st2" cx="1290.3" cy="1997.3" r="7.4"/>
		<circle id="Ellipse_597" class="st2" cx="1387" cy="1997.3" r="7.4"/>
	</g>
</g>
</svg>
