<svg xmlns="http://www.w3.org/2000/svg" width="149.492" height="147.722" viewBox="0 0 149.492 147.722"><path d="M443.188,358.526H406.406V322.468a10.17,10.17,0,0,0-2.929-7.368,10.419,10.419,0,0,0-7.372-3.1H363.147a10.8,10.8,0,0,0-10.887,10.468v36.058H314.887A10.8,10.8,0,0,0,304,369v32.569a10.8,10.8,0,0,0,10.887,10.468H352.26v37.221a10.8,10.8,0,0,0,10.887,10.468h32.958a10.42,10.42,0,0,0,7.372-3.1,10.171,10.171,0,0,0,2.929-7.368V412.032h36.783a10.42,10.42,0,0,0,7.372-3.1,10.17,10.17,0,0,0,2.929-7.368V369a10.171,10.171,0,0,0-2.929-7.368,10.419,10.419,0,0,0-7.372-3.1Zm-6.178,37.221h-36.2a10.8,10.8,0,0,0-10.887,10.468v37.221H368.739V406.216a10.171,10.171,0,0,0-2.929-7.368,10.419,10.419,0,0,0-7.372-3.1h-37.96V374.811h37.96a10.42,10.42,0,0,0,7.372-3.1,10.171,10.171,0,0,0,2.929-7.368V328.284h21.187v36.058a10.8,10.8,0,0,0,10.887,10.468h36.2Z" transform="translate(-304 -312)" fill="#dee6ef" opacity="0.499"/></svg>