<svg xmlns="http://www.w3.org/2000/svg" xmlns:xlink="http://www.w3.org/1999/xlink" width="194" height="88" viewBox="0 0 194 88">
  <defs>
    <radialGradient id="radial-gradient" cx="0.5" cy="0.5" r="0.5" gradientTransform="translate(0)" gradientUnits="objectBoundingBox">
      <stop offset="0" stop-color="#ffd25a"/>
      <stop offset="0.477" stop-color="#fbb432"/>
      <stop offset="0.733" stop-color="#f9a41c"/>
      <stop offset="0.805" stop-color="#f9b61e"/>
      <stop offset="0.947" stop-color="#fad923"/>
      <stop offset="1" stop-color="#fbed25"/>
    </radialGradient>
  </defs>
  <g id="组_11342" data-name="组 11342" transform="translate(-1340.629 -64.5)">
    <g id="组_3382" data-name="组 3382" transform="translate(1340.629 40.03)">
      <g id="组_3381" data-name="组 3381" transform="translate(0 24.47)">
        <path id="路径_812" data-name="路径 812" d="M397.984,181.424s.069,6.731.827,9.916c.482,2.026.766,4.788,2.907,5.871a4.23,4.23,0,0,0,3.8-.032c.9-.477,1.584-1.273,2.475-1.773s2.209-.594,2.814.206c.592.782.143,1.88-.422,2.68a12.242,12.242,0,0,1-8.059,4.909,12.617,12.617,0,0,1-9.266-2.258c-3.932-2.907-5.584-7.815-6.3-12.51-1.623-10.661.48-21.547-.528-32.277a15.472,15.472,0,0,0-1.425-5.787,2.978,2.978,0,0,0-.955-1.174c-1.175-.761-2.952-.074-4.093-.882-1.072-.759-.861-2.464.087-3.361a6.632,6.632,0,0,1,3.661-1.38c2.566-.382,5.342-.539,7.612.662,2.215,1.172,3.546,3.433,4.432,5.7,1.825,4.657,2.219,9.675,2.316,14.6.1,5.1.2,10.189.052,15.294" transform="translate(-329.081 -127.394)" fill="#3890ce"/>
        <path id="路径_813" data-name="路径 813" d="M130.152,218.322s-4.8-2.413-5.418-6.7-1.55-9.653,3.358-22.655a81.793,81.793,0,0,1,12.813.936c7.285,1.083,10.436,2.266,12.193,2.512s2.506-.024,3.022-.492.181-1.33-1.085-2.364-7.414-4.432-24.36-6.649c0,0,5.218-10.983,10.333-17.139s10.385-12.066,14.931-12.608c0,0-2.067-.542-2.48-1.97s1.808-2.709,1.808-2.709-4.546.936-13.071,9.7a114.786,114.786,0,0,0-17.2,24.083,25.694,25.694,0,0,0-14.724,1.97c-5.993,2.807-6.51,5.418-6.975,6.944,0,0,12.709-2.758,18.444-2.068a17.5,17.5,0,0,0-1.224,2.784c-.645,1.59-1.268,3.189-1.834,4.807a47.065,47.065,0,0,0-2.444,9.91,14.992,14.992,0,0,0,1.066,8.663C119.787,220.124,125.526,220.715,130.152,218.322Z" transform="translate(-103.293 -131.688)" fill="#30b354"/>
        <ellipse id="椭圆_444" data-name="椭圆 444" cx="6.45" cy="6.149" rx="6.45" ry="6.149" transform="translate(52.277)" fill="url(#radial-gradient)"/>
      </g>
    </g>
    <text id="Care" transform="translate(1434.629 122.5)" fill="#333" font-size="34" font-family="Arial-BoldMT, Arial" font-weight="700" letter-spacing="0.03em"><tspan x="0" y="0">CARE</tspan></text>
  </g>
</svg>
