<svg xmlns="http://www.w3.org/2000/svg" xmlns:xlink="http://www.w3.org/1999/xlink" width="154.268" height="175.871" viewBox="0 0 154.268 175.871">
  <defs>
    <radialGradient id="radial-gradient" cx="0.5" cy="0.5" r="0.5" gradientTransform="translate(0)" gradientUnits="objectBoundingBox">
      <stop offset="0" stop-color="#ffd25a"/>
      <stop offset="0.477" stop-color="#fbb432"/>
      <stop offset="0.733" stop-color="#f9a41c"/>
      <stop offset="0.805" stop-color="#f9b61e"/>
      <stop offset="0.947" stop-color="#fad923"/>
      <stop offset="1" stop-color="#fbed25"/>
    </radialGradient>
  </defs>
  <g id="组_3382" data-name="组 3382" transform="translate(-103.293 -51.228)">
    <g id="组_3381" data-name="组 3381" transform="translate(103.293 51.228)">
      <path id="路径_812" data-name="路径 812" d="M414.4,217.951s.129,13.179,1.543,19.415c.9,3.966,1.43,9.374,5.425,11.5a7.567,7.567,0,0,0,7.084-.062c1.688-.935,2.958-2.493,4.62-3.472s4.124-1.162,5.252.4c1.1,1.531.267,3.682-.788,5.247a22.421,22.421,0,0,1-32.338,5.191c-7.339-5.692-10.423-15.3-11.756-24.494-3.028-20.874.9-42.189-.985-63.2-.348-3.887-.919-7.838-2.66-11.331a5.783,5.783,0,0,0-1.782-2.3c-2.193-1.491-5.51-.145-7.639-1.726-2-1.486-1.606-4.824.162-6.58s4.37-2.318,6.832-2.7c4.789-.748,9.97-1.056,14.208,1.3,4.135,2.294,6.618,6.721,8.273,11.151,3.406,9.119,4.142,18.943,4.323,28.6.187,9.983.376,19.949.1,29.946" transform="translate(-285.794 -112.162)" fill="#3890ce"/>
      <path id="路径_813" data-name="路径 813" d="M153.425,285.224s-8.956-4.725-10.113-13.115-2.893-18.9,6.268-44.359a145.634,145.634,0,0,1,23.915,1.832c13.6,2.121,19.479,4.436,22.758,4.918s4.677-.048,5.641-.964.337-2.6-2.025-4.629S186.031,220.23,154.4,215.89c0,0,9.739-21.5,19.286-33.558s19.383-23.626,27.869-24.686c0,0-3.857-1.061-4.629-3.857s3.375-5.3,3.375-5.3-8.486,1.832-24.4,19-28.833,40.308-32.111,47.155a45.879,45.879,0,0,0-27.483,3.857c-11.186,5.5-12.15,10.607-13.018,13.6,0,0,23.722-5.4,34.426-4.05-.326-.041-2.1,4.967-2.285,5.452-1.2,3.114-2.366,6.245-3.423,9.412a95.889,95.889,0,0,0-4.561,19.4c-.655,5.734-.547,11.777,1.99,16.962C134.08,288.754,144.79,289.91,153.425,285.224Z" transform="translate(-103.293 -115.597)" fill="#30b354"/>
      <circle id="椭圆_444" data-name="椭圆 444" cx="12.039" cy="12.039" r="12.039" transform="translate(97.574)" fill="url(#radial-gradient)"/>
    </g>
    <text id="AiTmed" transform="translate(208.561 220.099)" font-size="29" font-family="SegoeUI, Segoe UI" letter-spacing="0.007em"><tspan x="-48.319" y="0">AiTmed</tspan></text>
  </g>
</svg>
