<svg xmlns="http://www.w3.org/2000/svg" xmlns:xlink="http://www.w3.org/1999/xlink" width="213.53" height="213.53" viewBox="0 0 213.53 213.53">
  <defs>
    <filter id="矩形_17403" x="0" y="0" width="213.53" height="213.53" filterUnits="userSpaceOnUse">
      <feOffset dy="3" input="SourceAlpha"/>
      <feGaussianBlur stdDeviation="3" result="blur"/>
      <feFlood flood-opacity="0.161"/>
      <feComposite operator="in" in2="blur"/>
      <feComposite in="SourceGraphic"/>
    </filter>
  </defs>
  <g id="组件_44_5" data-name="组件 44 – 5" transform="translate(9 6)">
    <g id="组_10175" data-name="组 10175">
      <g transform="matrix(1, 0, 0, 1, -9, -6)" filter="url(#矩形_17403)">
        <g id="矩形_17403-2" data-name="矩形 17403" transform="translate(9 6)" fill="#fff" stroke="#dfe1e5" stroke-width="1">
          <rect width="195.53" height="195.53" rx="11" stroke="none"/>
          <rect x="0.5" y="0.5" width="194.53" height="194.53" rx="10.5" fill="none"/>
        </g>
      </g>
      <g id="组_10174" data-name="组 10174" transform="translate(-3 -7.275)">
        <text id="Back_pain" data-name="Back pain" transform="translate(60 153.465)" fill="#143459" font-size="20" font-family="SegoeUI, Segoe UI" letter-spacing="-0.02em"><tspan x="0" y="0">Back pain</tspan></text>
        <g id="组_7078" data-name="组 7078" transform="translate(75 52.275)">
          <g id="组_7037" data-name="组 7037" transform="translate(1.275 5.608)">
            <path id="路径_5052" data-name="路径 5052" d="M66.381,34.966V91.052h47.451V34.966L90.565,33Z" transform="translate(-66.381 -33)" fill="#eff6ff"/>
          </g>
          <g id="组_7038" data-name="组 7038" transform="translate(6.931 9.579)">
            <path id="路径_5053" data-name="路径 5053" d="M100.928,79.76a4.691,4.691,0,0,0,.222,6.634l6.412-6.86A4.691,4.691,0,0,0,100.928,79.76Z" transform="translate(-99.661 -78.269)" fill="#d3cfd2"/>
          </g>
          <g id="组_7039" data-name="组 7039" transform="translate(6.931 48.298)">
            <path id="路径_5054" data-name="路径 5054" d="M101.149,414.1a4.695,4.695,0,0,0,6.412,6.86Z" transform="translate(-99.661 -414.103)" fill="#d3cfd2"/>
          </g>
          <g id="组_7040" data-name="组 7040" transform="translate(10.86 22.015)">
            <path id="路径_5055" data-name="路径 5055" d="M172.791,208.463v6.253l5.94,9.2,7.332,5.188,9.066-5.188,5.94-9.2v-6.253a5.415,5.415,0,0,0-5.4-5.4h-4.562l-4.181,6.287-4.181-6.287h-4.557a5.416,5.416,0,0,0-5.4,5.4Z" transform="translate(-172.791 -203.063)" fill="#fe8d94"/>
          </g>
          <g id="组_7041" data-name="组 7041" transform="translate(30.088 32.302)">
            <path id="路径_5056" data-name="路径 5056" d="M304.23,271.633V282.15a2.97,2.97,0,0,0,5.94,0V271.633Z" transform="translate(-304.23 -271.633)" fill="#ffeee6"/>
          </g>
          <g id="组_7042" data-name="组 7042" transform="translate(14.214 54.247)">
            <path id="路径_5057" data-name="路径 5057" d="M185.484,454.014c-2.356.607-5.111,2.023-4.716,4.509H193.52v-7.376L190.3,449.11l-3.348,2.038c0,1.436-.034,2.5-1.469,2.867Z" transform="translate(-180.73 -449.11)" fill="#ffeee6"/>
          </g>
          <g id="组_7043" data-name="组 7043" transform="translate(21.515 53.684)">
            <path id="路径_5058" data-name="路径 5058" d="M247.751,448.4l-1.686,3.96,1.686,3.416h12.756c.39-2.486-2.36-3.9-4.721-4.509-1.436-.371-1.469-1.431-1.469-2.866l-3.83-2.6Z" transform="translate(-246.065 -445.795)" fill="#ffeee6"/>
          </g>
          <g id="组_7044" data-name="组 7044" transform="translate(13.969 32.302)">
            <path id="路径_5059" data-name="路径 5059" d="M172.791,275.005v7.144a2.97,2.97,0,0,0,5.94,0V271.633h-5.94Z" transform="translate(-172.791 -271.633)" fill="#ffeee6"/>
          </g>
          <g id="组_7045" data-name="组 7045" transform="translate(1.275 1.275)">
            <path id="路径_5060" data-name="路径 5060" d="M66.381,14.548h47.451V10.077c0-1.416-.855-2.577-1.9-2.577H68.278c-1.043,0-1.9,1.161-1.9,2.577Z" transform="translate(-66.381 -7.5)" fill="#7e707d"/>
          </g>
          <g id="组_7046" data-name="组 7046" transform="translate(37.829 1.275)">
            <path id="路径_5061" data-name="路径 5061" d="M384.083,10.077v4.471H392.4V10.077A2.587,2.587,0,0,0,389.816,7.5H381.5A2.587,2.587,0,0,1,384.083,10.077Z" transform="translate(-381.501 -7.5)" fill="#6a5c69"/>
          </g>
          <g id="组_7047" data-name="组 7047" transform="translate(40.411 8.323)">
            <path id="路径_5062" data-name="路径 5062" d="M396.694,104.309h8.315V48.971h-8.315Z" transform="translate(-396.694 -48.971)" fill="#d9eeff"/>
          </g>
          <g id="组_7048" data-name="组 7048" transform="translate(35.169 9.579)">
            <path id="路径_5063" data-name="路径 5063" d="M365.854,79.533l6.407,6.86a4.693,4.693,0,1,0-6.407-6.86Z" transform="translate(-365.854 -78.269)" fill="#d3cfd2"/>
          </g>
          <g id="组_7049" data-name="组 7049" transform="translate(35.169 48.298)">
            <path id="路径_5064" data-name="路径 5064" d="M372.261,414.1l-6.407,6.86a4.693,4.693,0,0,0,6.407-6.86Z" transform="translate(-365.854 -414.103)" fill="#d3cfd2"/>
          </g>
          <g id="组_7050" data-name="组 7050" transform="translate(15.308 32.302)">
            <path id="路径_5065" data-name="路径 5065" d="M184.1,276.72v5.429a2.979,2.979,0,0,1-1.643,2.654,2.931,2.931,0,0,0,1.325.313,2.976,2.976,0,0,0,2.972-2.967V271.633H184.1v5.087Z" transform="translate(-182.457 -271.633)" fill="#ffdfcf"/>
          </g>
          <g id="组_7051" data-name="组 7051" transform="translate(31.589 32.302)">
            <path id="路径_5066" data-name="路径 5066" d="M315.539,276.72v5.429A2.979,2.979,0,0,1,313.9,284.8a2.936,2.936,0,0,0,1.33.313,2.975,2.975,0,0,0,2.967-2.967V271.633h-2.654Z" transform="translate(-313.896 -271.633)" fill="#ffdfcf"/>
          </g>
          <g id="组_7052" data-name="组 7052" transform="translate(28.171 24.4)">
            <path id="路径_5067" data-name="路径 5067" d="M299.866,214.716v-6.253a5.415,5.415,0,0,0-5.4-5.4h-2.654a5.415,5.415,0,0,1,5.4,5.4v6.253Z" transform="translate(-291.816 -203.063)" fill="#ff6d75"/>
          </g>
          <g id="组_7053" data-name="组 7053" transform="translate(26.268 56.285)">
            <path id="路径_5068" data-name="路径 5068" d="M279.173,465.563c2.356.607,3.536,1.749,3.738,2.915h3.854c.39-2.486-2.36-3.9-4.721-4.509-1.436-.371-1.469-1.431-1.469-2.866H277.7c0,1.436.034,4.09,1.474,4.461Z" transform="translate(-277.699 -461.102)" fill="#ffdfcf"/>
          </g>
          <g id="组_7054" data-name="组 7054" transform="translate(22.545 56.285)">
            <path id="路径_5069" data-name="路径 5069" d="M239.347,461.1h2.828v7.376h-2.828Z" transform="translate(-239.347 -461.101)" fill="#ffdfcf"/>
          </g>
          <g id="组_7055" data-name="组 7055" transform="translate(20.817 25.072)">
            <path id="路径_5070" data-name="路径 5070" d="M231.382,204.749a4.2,4.2,0,1,0,8.363,0v-1.686h-8.363Z" transform="translate(-231.382 -203.063)" fill="#ffdfcf"/>
          </g>
          <g id="组_7056" data-name="组 7056" transform="translate(16.525 12.744)">
            <path id="路径_5071" data-name="路径 5071" d="M223.073,114.722l-8.474-5.458-8.474,5.458v2.592c0,3.04,2.857,6.855,6.354,8.151a5.466,5.466,0,0,0,4.244,0c3.493-1.3,6.349-5.111,6.349-8.151v-2.592Z" transform="translate(-206.126 -109.264)" fill="#ffeee6"/>
          </g>
          <g id="组_7057" data-name="组 7057" transform="translate(16.525 10.345)">
            <path id="路径_5072" data-name="路径 5072" d="M214.6,93.157a15.546,15.546,0,0,1-3.189-.708c-2.365-.612-1.855,2.009-5.285,2.25,0-6.3,4.239-9.486,8.474-9.558,4.239.072,8.474,3.261,8.474,9.558-3.43-.241-2.919-2.862-5.285-2.25a15.547,15.547,0,0,1-3.189.708Z" transform="translate(-206.126 -85.141)" fill="#7e707d"/>
          </g>
          <g id="组_7058" data-name="组 7058" transform="translate(23.107 10.345)">
            <path id="路径_5073" data-name="路径 5073" d="M251.536,85.19c3.131.886,5.834,3.589,6.224,8.1a4.132,4.132,0,0,0,3.006,1.412c0-6.3-4.234-9.486-8.474-9.558-.251,0-.506.019-.756.048Z" transform="translate(-251.536 -85.142)" fill="#6a5c69"/>
          </g>
          <g id="组_7059" data-name="组 7059" transform="translate(20.096 15.907)">
            <path id="路径_5074" data-name="路径 5074" d="M231.042,144.093a9.2,9.2,0,0,0,1.5.877q.3.145.622.26a6.759,6.759,0,0,0,1.546.395,5.65,5.65,0,0,0,.573.034,5.349,5.349,0,0,0,1.175-.14s.01,0,.014,0c.251-.058.506-.135.776-.226.236-.087.472-.188.776-.318h0c3.2-1.489,5.728-5.034,5.728-7.891v-2.592a4.132,4.132,0,0,1-3.006-1.412v2.592c0,3.04-2.861,6.855-6.354,8.151a6.025,6.025,0,0,1-2.124.429,5.223,5.223,0,0,1-1.229-.154Z" transform="translate(-231.042 -133.075)" fill="#ffdfcf"/>
          </g>
          <g id="组_7060" data-name="组 7060" transform="translate(20.817 25.45)">
            <path id="路径_5075" data-name="路径 5075" d="M232.524,205.3c.125.053.251.1.381.149a7.547,7.547,0,0,0,2.659.535,6.978,6.978,0,0,0,1.749-.241c.294-.077.6-.178.915-.294.039-.014.212-.087.385-.159.193-.082.385-.164.39-.164.25-.12.5-.246.742-.38v-1.686H238.3l-.226.1c-.159.067-.352.149-.39.164-.251.092-.491.173-.732.236-.072.019-.144.039-.217.053a6.036,6.036,0,0,1-.8.125c-.125.01-.246.014-.371.014a5.839,5.839,0,0,1-1.869-.337c-.087-.029-.169-.063-.251-.092q-.318-.116-.621-.26h-1.44v1.686c.246.135.491.26.742.38.135.058.265.12.4.173Z" transform="translate(-231.382 -203.064)" fill="#ffcebf"/>
          </g>
          <g id="组_7061" data-name="组 7061" transform="translate(16.799 33.282)">
            <path id="路径_5076" data-name="路径 5076" d="M207.741,327.067v20.864a.825.825,0,0,0,.819.819h14.76a.821.821,0,0,0,.819-.819V325.747h-16.4v1.32Z" transform="translate(-207.741 -325.747)" fill="#7e707d"/>
          </g>
          <g id="组_7062" data-name="组 7062" transform="translate(27.071 33.282)">
            <path id="路径_5077" data-name="路径 5077" d="M278.513,327.067v20.864a.823.823,0,0,1-.814.819h3.69a.821.821,0,0,0,.819-.819V325.747h-3.695Z" transform="translate(-277.699 -325.747)" fill="#6a5c69"/>
          </g>
          <g id="组_7063" data-name="组 7063">
            <path id="路径_5078" data-name="路径 5078" d="M129.32,144.537h.081a1.275,1.275,0,1,0,0-2.549h-.081a1.275,1.275,0,1,0,0,2.549Z" transform="translate(-119.395 -124.165)"/>
            <path id="路径_5079" data-name="路径 5079" d="M143.118,177.308h-.024a1.275,1.275,0,0,0,0,2.549h.024a1.275,1.275,0,1,0,0-2.549Z" transform="translate(-131.444 -155.051)"/>
            <path id="路径_5080" data-name="路径 5080" d="M164.609,119.837v0a1.275,1.275,0,1,0-1.275,1.279A1.272,1.272,0,0,0,164.609,119.832Z" transform="translate(-149.15 -103.678)"/>
            <path id="路径_5081" data-name="路径 5081" d="M129.32,385.737h.008a1.278,1.278,0,1,0-.008,0Z" transform="translate(-119.392 -335.088)"/>
            <path id="路径_5082" data-name="路径 5082" d="M143.095,350.418h.011a1.28,1.28,0,1,0-.011,0Z" transform="translate(-131.443 -304.203)"/>
            <path id="路径_5083" data-name="路径 5083" d="M163.334,409.152h.006a1.278,1.278,0,1,0-.006,0Z" transform="translate(-149.149 -355.564)"/>
            <path id="路径_5084" data-name="路径 5084" d="M370.2,141.988a1.275,1.275,0,0,0,0,2.549h0a1.275,1.275,0,1,0,0-2.549Z" transform="translate(-330.134 -124.165)"/>
            <path id="路径_5085" data-name="路径 5085" d="M356.426,179.857h.018a1.275,1.275,0,1,0,0-2.549h-.018a1.275,1.275,0,0,0,0,2.549Z" transform="translate(-318.085 -155.051)"/>
            <path id="路径_5086" data-name="路径 5086" d="M337.461,119.831a1.275,1.275,0,1,0-1.275,1.279,1.272,1.272,0,0,0,1.275-1.279Z" transform="translate(-300.375 -103.677)"/>
            <path id="路径_5087" data-name="路径 5087" d="M370.2,385.737h0a1.275,1.275,0,1,0-1.28-1.275A1.273,1.273,0,0,0,370.206,385.737Z" transform="translate(-330.133 -335.088)"/>
            <path id="路径_5088" data-name="路径 5088" d="M356.426,350.418h.021a1.275,1.275,0,0,0,0-2.549h-.021a1.275,1.275,0,0,0,0,2.549Z" transform="translate(-318.086 -304.203)"/>
            <path id="路径_5089" data-name="路径 5089" d="M334.912,407.878a1.275,1.275,0,0,0,1.275,1.275h.015a1.268,1.268,0,0,0,1.267-1.275,1.278,1.278,0,0,0-2.557,0Z" transform="translate(-300.376 -355.564)"/>
            <path id="路径_5090" data-name="路径 5090" d="M106,0H61.756a2.878,2.878,0,0,0-2.875,2.875v61.11a.951.951,0,0,0,.951.951h48.1a.951.951,0,0,0,.951-.951v-28.5a.951.951,0,1,0-1.9,0V60.107l-2.948-2.755a4.462,4.462,0,0,0-.786-5.527.951.951,0,0,0-1.345.045l-4.785,5.119a.951.951,0,0,0,.047,1.346,4.466,4.466,0,0,0,5.571.408l4.246,3.968v.322H94.318c-.309-1.509-1.8-2.717-4.2-3.335-.187-.048-.286-.076-.337-.318a1.564,1.564,0,0,0,1.172-1.511V45.2a3.165,3.165,0,0,0,4.433-2.9V29.784A4.985,4.985,0,0,0,90.4,24.8h-1.57a7.538,7.538,0,0,0,2.32-4.938V17.931a8.239,8.239,0,0,0-2.253-5.98,7.2,7.2,0,0,0-5.006-2.1h-.032a7.194,7.194,0,0,0-5,2.1,8.238,8.238,0,0,0-2.254,5.98v1.934A7.536,7.536,0,0,0,78.925,24.8H77.358a4.987,4.987,0,0,0-4.981,4.981V42.3a3.165,3.165,0,0,0,4.433,2.9V57.869a1.564,1.564,0,0,0,1.172,1.511c-.05.242-.149.27-.336.318-2.4.619-3.895,1.827-4.2,3.335H60.783v-.322l4.244-3.967a4.423,4.423,0,0,0,2.378.785l.156,0a4.422,4.422,0,0,0,3.036-1.2.951.951,0,0,0,.046-1.345L65.858,51.87a.951.951,0,0,0-1.345-.045,4.453,4.453,0,0,0-.785,5.53l-2.945,2.752V8.4l2.945,2.752a4.453,4.453,0,0,0,.785,5.53.951.951,0,0,0,.65.257H65.2a.95.95,0,0,0,.663-.3l4.785-5.119a.951.951,0,0,0-.046-1.345,4.454,4.454,0,0,0-5.571-.411l-2.784-2.6H82.006a.951.951,0,1,0,0-1.9H60.783V2.875a.973.973,0,0,1,.972-.972H106a.975.975,0,0,1,.976.972V5.26H86.4a.951.951,0,0,0,0,1.9h19.123l-2.785,2.6a4.454,4.454,0,0,0-5.572.409.951.951,0,0,0-.047,1.346l4.785,5.119a.951.951,0,0,0,.663.3h.032a.952.952,0,0,0,.65-.257,4.462,4.462,0,0,0,.786-5.527L106.979,8.4V31.1a.951.951,0,1,0,1.9,0V2.875A2.88,2.88,0,0,0,106,0Zm-3.938,56.821a2.556,2.556,0,0,1-2.784.637L102.514,54A2.555,2.555,0,0,1,102.065,56.821Zm-19.137.708H78.712V42.265H89.047V57.529H84.83V47.064h.289a.951.951,0,1,0,0-1.9H82.639a.951.951,0,1,0,0,1.9h.289V57.529Zm9.357,5.5H84.83v-3.6h3.037a2.224,2.224,0,0,0,1.772,2.109,4.977,4.977,0,0,1,2.646,1.492ZM93.479,42.3a1.265,1.265,0,0,1-2.53,0V35.4h2.53Zm-9.6-30.549a5.44,5.44,0,0,1,5.28,4.913,3.261,3.261,0,0,1-.571-.5,2.472,2.472,0,0,0-1.843-.929,2.887,2.887,0,0,0-.723.1c-.32.082-.593.155-.83.219a6.119,6.119,0,0,1-1.312.28,6.118,6.118,0,0,1-1.312-.28c-.237-.063-.511-.136-.83-.219a2.385,2.385,0,0,0-2.567.831,3.266,3.266,0,0,1-.571.5,5.439,5.439,0,0,1,5.28-4.913Zm-5.372,8.115V18.74a4.04,4.04,0,0,0,2.023-1.247c.391-.4.4-.406.732-.32.314.081.582.153.815.215a4.9,4.9,0,0,0,3.6,0c.233-.062.5-.134.816-.215.333-.086.341-.079.731.32a4.04,4.04,0,0,0,2.023,1.247v1.125c0,1.62-1.546,3.994-3.678,5.005a4.565,4.565,0,0,1-1.694.446,4.373,4.373,0,0,1-1.679-.441C80.06,23.867,78.507,21.488,78.507,19.865Zm7.542,6.875v.272a2.189,2.189,0,1,1-4.338,0v-.274c.085.036.171.069.256.1a5.021,5.021,0,0,0,3.829,0c.085-.031.169-.065.253-.1ZM76.809,42.3a1.265,1.265,0,0,1-2.53,0V35.4h2.53Zm.951-11.463a.951.951,0,0,0-.951.951V33.5h-2.53V29.784a3.082,3.082,0,0,1,3.079-3.079h2.45v.307a4.083,4.083,0,1,0,8.143,0v-.307H90.4a3.08,3.08,0,0,1,3.075,3.079V33.5h-2.53V31.786a.951.951,0,0,0-1.9,0v8.576H78.712V31.786a.951.951,0,0,0-.951-.951Zm.36,30.7a2.223,2.223,0,0,0,1.771-2.109h3.037v3.6H75.476A4.978,4.978,0,0,1,78.121,61.54ZM65.243,54l3.236,3.462A2.555,2.555,0,0,1,65.243,54Zm.451-42.31a2.527,2.527,0,0,1,1.773-.808l.091,0a2.543,2.543,0,0,1,.921.171l-3.236,3.462a2.553,2.553,0,0,1,.451-2.824Zm36.82,2.823L99.28,11.05a2.562,2.562,0,0,1,1.01-.17,2.526,2.526,0,0,1,1.776.81,2.554,2.554,0,0,1,.448,2.821Z" transform="translate(-58.881)"/>
          </g>
        </g>
      </g>
    </g>
  </g>
</svg>
