<?xml version="1.0" standalone="no"?><!DOCTYPE svg PUBLIC "-//W3C//DTD SVG 1.1//EN" "http://www.w3.org/Graphics/SVG/1.1/DTD/svg11.dtd"><svg class="icon" width="200px" height="200.00px" viewBox="0 0 1024 1024" version="1.1" xmlns="http://www.w3.org/2000/svg"><path d="M0 438.857143h1024v512a73.142857 73.142857 0 0 1-73.142857 73.142857H73.142857a73.142857 73.142857 0 0 1-73.142857-73.142857V438.857143z m146.285714 73.142857v146.285714h146.285715V512H146.285714z m292.571429 0v146.285714h146.285714V512H438.857143z m-292.571429 219.428571v146.285715h146.285715v-146.285715H146.285714z m292.571429 0v146.285715h146.285714v-146.285715H438.857143z m292.571428-219.428571v146.285714h146.285715V512h-146.285715z m0 219.428571v146.285715h146.285715v-146.285715h-146.285715zM292.571429 146.285714h438.857142V73.142857a73.142857 73.142857 0 1 1 146.285715 0v73.142857h73.142857a73.142857 73.142857 0 0 1 73.142857 73.142857v146.285715H0V219.428571a73.142857 73.142857 0 0 1 73.142857-73.142857h73.142857V73.142857a73.142857 73.142857 0 1 1 146.285715 0v73.142857z" fill="#ffffff" /></svg>