<?xml version="1.0" standalone="no"?><!DOCTYPE svg PUBLIC "-//W3C//DTD SVG 1.1//EN" "http://www.w3.org/Graphics/SVG/1.1/DTD/svg11.dtd"><svg class="icon" width="200px" height="200.00px" viewBox="0 0 1024 1024" version="1.1" xmlns="http://www.w3.org/2000/svg"><path d="M227.456 250.432h58.88c8.896 0 16.128-8.32 16.128-18.56V82.56c0-10.24-7.232-18.56-16.128-18.56h-58.88c-8.96 0-16.064 8.32-16.064 18.56v149.312c0 10.24 7.104 18.56 16.064 18.56z m510.848 0h58.88c8.96 0 16.128-8.32 16.128-18.56V82.56c0-10.24-7.232-18.56-16.064-18.56h-58.88c-8.96 0-16.256 8.32-16.256 18.56v149.312c0 10.24 7.296 18.56 16.192 18.56z m128.192-115.072h-20.672v96.512c0 30.848-21.76 56.128-48.64 56.128h-58.88c-26.752 0-48.64-25.28-48.64-56.128V135.36H334.912v96.512c0 30.848-21.76 56.128-48.64 56.128h-58.88c-26.816 0-48.64-25.28-48.64-56.128V135.36h-20.864c-51.648 0-93.632 48.448-93.632 107.968v608.512c0 59.776 41.984 108.16 93.632 108.16h708.544c51.776 0 93.824-48.384 93.824-108.16V243.328c0-59.52-42.048-107.968-93.824-107.968z m34.496 716.48c0 22.016-15.424 39.744-34.496 39.744H157.952c-18.88 0-34.304-17.728-34.304-39.68V443.712h777.344v408.064z" fill="#4E586E" /></svg>