<svg xmlns="http://www.w3.org/2000/svg" width="16" height="16" viewBox="0 0 16 16">
  <g id="组_9604" data-name="组 9604" transform="translate(-615 -875)">
    <path id="sacha" d="M8,0A8,8,0,0,0,0,8,8,8,0,1,0,8,0m3.372,11.372a.608.608,0,0,1-.8,0L8,8.8,5.428,11.372a.608.608,0,0,1-.8,0,.608.608,0,0,1,0-.8L7.2,8,4.628,5.428a.608.608,0,0,1,0-.8.608.608,0,0,1,.8,0L8,7.2l2.572-2.572a.608.608,0,0,1,.8,0,.608.608,0,0,1,0,.8L8.8,8l2.572,2.572a.512.512,0,0,1,0,.8" transform="translate(615 875)" fill="#d81e06"/>
  </g>
</svg>
