<svg xmlns="http://www.w3.org/2000/svg" xmlns:xlink="http://www.w3.org/1999/xlink" width="48" height="48" viewBox="0 0 48 48">
  <defs>
    <filter id="椭圆_672" x="0" y="0" width="48" height="48" filterUnits="userSpaceOnUse">
      <feOffset input="SourceAlpha"/>
      <feGaussianBlur stdDeviation="2" result="blur"/>
      <feFlood flood-opacity="0.161"/>
      <feComposite operator="in" in2="blur"/>
      <feComposite in="SourceGraphic"/>
    </filter>
  </defs>
  <g id="组_11289" data-name="组 11289" transform="translate(6 6)">
    <g transform="matrix(1, 0, 0, 1, -6, -6)" filter="url(#椭圆_672)">
      <circle id="椭圆_672-2" data-name="椭圆 672" cx="18" cy="18" r="18" transform="translate(6 6)" fill="#2988e6"/>
    </g>
    <path id="路径_9634" data-name="路径 9634" d="M199.02,144.381l11-11a.936.936,0,0,0,0-1.324l-1.986-1.986a.936.936,0,0,0-1.324,0l-11,11-.237,3.547,3.546-.237Zm-5.491,1.285.362-5.421,11.5-11.5a2.808,2.808,0,0,1,3.971,0l1.986,1.986a2.808,2.808,0,0,1,0,3.971l-11.5,11.5-5.421.361a.842.842,0,0,1-.9-.9Zm11.862-14.273-1.323,1.323,3.309,3.311L208.7,134.7Z" transform="translate(-184.525 -118.922)" fill="#fff"/>
  </g>
</svg>
