<svg id="组_10138" data-name="组 10138" xmlns="http://www.w3.org/2000/svg" width="99" height="26" viewBox="0 0 99 26">
  <g id="矩形_18598" data-name="矩形 18598" fill="none" stroke="#999" stroke-width="1">
    <rect width="99" height="26" rx="4" stroke="none"/>
    <rect x="0.5" y="0.5" width="98" height="25" rx="3.5" fill="none"/>
  </g>
  <g id="组_8644" data-name="组 8644" transform="translate(9 3)">
    <text id="External" transform="translate(24 15)" fill="#999" font-size="16" font-family="ProximaNova-Regular, Proxima Nova"><tspan x="0" y="0">External</tspan></text>
    <g id="组_10655" data-name="组 10655" transform="translate(0 1)">
      <g id="组_8608" data-name="组 8608" transform="translate(2 2.001)">
        <path id="路径_8368" data-name="路径 8368" d="M183.266,175.1a.406.406,0,0,0,.406-.406v-2.008a2.024,2.024,0,0,0-2.023-2.021H172.69a2.024,2.024,0,0,0-2.023,2.021v6.525a2.024,2.024,0,0,0,2.023,2.021h8.959a2.024,2.024,0,0,0,2.023-2.021v-2.043a.406.406,0,0,0-.813,0v2.043a1.211,1.211,0,0,1-1.21,1.208H172.69a1.211,1.211,0,0,1-1.21-1.208v-6.525a1.211,1.211,0,0,1,1.21-1.208h8.959a1.211,1.211,0,0,1,1.21,1.208V174.7a.406.406,0,0,0,.406.406m-.745,7.757H171.852a.406.406,0,1,0,0,.813H182.52a.406.406,0,0,0,0-.813" transform="translate(-170.667 -170.666)" fill="#999"/>
        <rect id="矩形_18587" data-name="矩形 18587" width="12.502" height="9.5" rx="2" transform="translate(0.502 0.503)" fill="#999"/>
      </g>
      <rect id="矩形_19723" data-name="矩形 19723" width="18" height="18" fill="none"/>
    </g>
  </g>
</svg>
