<svg xmlns="http://www.w3.org/2000/svg" width="92.966" height="8" viewBox="0 0 92.966 8"><g transform="translate(-608.5 -1482)"><path d="M77,1H72a1,1,0,0,1-1-1,1,1,0,0,1,1-1h5a1,1,0,0,1,1,1A1,1,0,0,1,77,1ZM66,1H60a1,1,0,0,1-1-1,1,1,0,0,1,1-1h6a1,1,0,0,1,1,1A1,1,0,0,1,66,1ZM54,1H48a1,1,0,0,1-1-1,1,1,0,0,1,1-1h6a1,1,0,0,1,1,1A1,1,0,0,1,54,1ZM42,1H36a1,1,0,0,1-1-1,1,1,0,0,1,1-1h6a1,1,0,0,1,1,1A1,1,0,0,1,42,1ZM30,1H24a1,1,0,0,1-1-1,1,1,0,0,1,1-1h6a1,1,0,0,1,1,1A1,1,0,0,1,30,1ZM18,1H12a1,1,0,0,1-1-1,1,1,0,0,1,1-1h6a1,1,0,0,1,1,1A1,1,0,0,1,18,1ZM6,1H0A1,1,0,0,1-1,0,1,1,0,0,1,0-1H6A1,1,0,0,1,7,0,1,1,0,0,1,6,1Z" transform="translate(609.5 1486)" fill="#425061"/><path d="M4,0,8,11.966H0Z" transform="translate(701.466 1482) rotate(90)" fill="#425061"/><path d="M4,0l1.9,5.69a1,1,0,1,1-1.9.634L4,6.309,2.969,9.392a1,1,0,0,1-.526.589,1.006,1.006,0,0,1,.174-.015H7.331l.669,2H2.617a1,1,0,0,1-.423-1.906,1,1,0,0,1-1.122-1.3l.7-2.083v0l0,0,0-.011v0L1.78,6.64v0L2.946,3.154h0Z" transform="translate(701.466 1482) rotate(90)" fill="#425061"/></g></svg>