<svg xmlns="http://www.w3.org/2000/svg" width="19" height="19" viewBox="0 0 19 19">
  <g id="组_10165" data-name="组 10165" transform="translate(-128 -128)">
    <path id="路径_9670" data-name="路径 9670" d="M137.5,145.417a7.917,7.917,0,1,1,7.917-7.917,7.926,7.926,0,0,1-7.917,7.917m0-17.417a9.5,9.5,0,1,0,9.5,9.5,9.511,9.511,0,0,0-9.5-9.5" fill="#2988e6"/>
    <path id="路径_9671" data-name="路径 9671" d="M417.337,352.208a.8.8,0,1,0-1.068,1.19l3.348,3.006-3.36,3.144a.8.8,0,0,0,1.092,1.167l4-3.74a.8.8,0,0,0-.012-1.178l-4-3.59Z" transform="translate(-280.907 -218.509)" fill="#2988e6"/>
  </g>
</svg>
