<svg xmlns="http://www.w3.org/2000/svg" width="37.075" height="37.075" viewBox="0 0 37.075 37.075">
  <path id="schedule-_clock" data-name="schedule- clock" d="M75.177,93.465a18.232,18.232,0,1,1,12.948-5.34,18.181,18.181,0,0,1-12.948,5.34Zm11.331-6.956a16.085,16.085,0,1,0-11.331,4.669A15.846,15.846,0,0,0,86.509,86.509ZM75.177,75.177h8a1.143,1.143,0,0,1,0,2.286H74.034a1.143,1.143,0,0,1-1.143-1.143V64.891a1.143,1.143,0,1,1,2.286,0Z" transform="translate(-56.64 -56.64)" stroke="#000" stroke-width="0.5"/>
</svg>
