<svg xmlns="http://www.w3.org/2000/svg" width="294.896" height="203.849" viewBox="0 0 294.896 203.849"><g transform="translate(742.335 8011.191)"><g transform="translate(-8524.33 3924.803)" opacity="0.1"><path d="M393.978,229.389a36.681,36.681,0,0,1-3.444-26.157c6.052-25.017,23.23-68.926,68.7-62.709,63.083,8.635,81.42,10.794,107.3,2.7s70.636-8.088,84.656,10.244c8.5,11.113,37.2,60.924,18.872,78.194s8.875,51.414,9.7,69.559-25.341,20.479-58.233,21.031-224.067-5.73-224.067-5.73-24.509-42.27-5.1-57.37C404.38,249.81,399,238.619,393.978,229.389Z" transform="translate(7397.11 -12074.047)" fill="#388fcd"/><path d="M434.724,793.48c-4.207-.146-19.968,2.005-20.892,2.83-.24.223-3.687,10.472,11.48,23.72,24.264,21.194,89.561,21.918,110.724,13.857,30.7-11.7,64.345,10.237,134.081,1.842,22.285-2.682,37.178-36.818,27.047-41.244-6.066-2.638-13.329,4.363-19.429,1.29-7.021-3.543-21.247-5.757-30.054-3.039a.681.681,0,0,0,.307,1.326l-4.639,1.48c-5.155,3.838-3.994-1.262-16.085-1.919l-35.65-.88c-12.746.384-61.79,2.54-80.979,1.773H500.08c-7.042-.88-25.31-1.3-25.967-1.319Z" transform="translate(7375.491 -12570.78)" fill="#388fcd"/></g><g transform="translate(-661.33 -7982.197)"><path d="M131.9,389.23l-3.486,9.4H132.5l7.578-5.163Z" transform="translate(-99.001 -298.506)" fill="#388fcd"/><path d="M131.9,389.23l-3.486,9.4H132.5l7.578-5.163Z" transform="translate(-99.001 -298.506)" opacity="0.1"/><path d="M332.034,389.23l3.486,9.4h-4.092l-7.578-5.163Z" transform="translate(-246.665 -298.506)" fill="#388fcd"/><path d="M332.034,389.23l3.486,9.4h-4.092l-7.578-5.163Z" transform="translate(-246.665 -298.506)" opacity="0.1"/><circle cx="41.814" cy="41.814" r="41.814" transform="translate(0 59.134) rotate(-45)" fill="#388fcd"/><circle cx="39.9" cy="39.9" r="39.9" transform="translate(18.724 18.547)" opacity="0.1"/><circle cx="37.379" cy="37.379" r="37.379" transform="translate(6.27 58.956) rotate(-45)" fill="#fff"/><path d="M180.47,149.037c-17.021,10.313-45,27.232-60.624,36.507a37.4,37.4,0,0,1-10.216-13.736l51.709-47.927a37.416,37.416,0,0,1,19.131,25.157Z" transform="translate(-84.812 -98.022)" fill="#ebebeb"/><path d="M232.88,264.58a37.052,37.052,0,0,1-2.471,12.147L183.8,298.774a37,37,0,0,1-5.889-2.53C191.983,288.106,217.719,273.3,232.88,264.58Z" transform="translate(-136.4 -204.327)" fill="#ebebeb"/><rect width="0.721" height="5.666" transform="translate(58.77 24.289)" fill="#c7c7c7"/><rect width="0.724" height="5.666" transform="translate(41.487 29.11) rotate(-30)" fill="#c7c7c7"/><rect width="0.721" height="5.666" transform="translate(28.929 41.929) rotate(-60)" fill="#c7c7c7"/><rect width="5.666" height="0.721" transform="translate(24.466 58.593)" fill="#c7c7c7"/><rect width="5.666" height="0.721" transform="translate(28.925 75.978) rotate(-30)" fill="#c7c7c7"/><rect width="5.666" height="0.724" transform="translate(41.488 88.803) rotate(-60.03)" fill="#c7c7c7"/><rect width="0.721" height="5.666" transform="translate(58.77 87.954)" fill="#c7c7c7"/><rect width="0.724" height="5.666" transform="translate(73.321 84.249) rotate(-30)" fill="#c7c7c7"/><rect width="0.721" height="5.666" transform="translate(84.065 73.761) rotate(-60)" fill="#c7c7c7"/><rect width="5.666" height="0.721" transform="translate(88.131 58.593)" fill="#c7c7c7"/><rect width="5.666" height="0.721" transform="translate(84.066 44.149) rotate(-30)" fill="#c7c7c7"/><rect width="5.666" height="0.724" transform="translate(73.324 33.665) rotate(-60.03)" fill="#c7c7c7"/><path d="M278.6,253.413l-36.255,1.012.044-3.545,36.22,1.569Z" transform="translate(-185.088 -193.976)" fill="#388fcd"/><path d="M244.908,154.942l1.569,27.589-3.547-.046,1.017-27.555Z" transform="translate(-185.526 -121.481)" fill="#263238"/><circle cx="1.21" cy="1.21" r="1.21" transform="translate(57.922 57.745)" fill="#388fcd"/></g><path d="M281.842,216.833a3.252,3.252,0,0,0-.569-.953l-.672-.986c-.444-.655-.888-1.316-1.311-1.988,0-.038-.076,0-.054.027.422.688.84,1.381,1.273,2.064.211.336.422.672.639,1a3.1,3.1,0,0,0,.661.856Z" transform="translate(-854.349 -8102.501)" fill="#263238"/><path d="M342.273,233.507c-.208-.628-11.347-15.338-12.1-15.618-.087-.038-5.061,3.5-5.061,3.5-.208.272-9.664-1.725-9.664-1.725l-.1,11.408,17.229-.378s2.326,1.369,4.456,2.485h0a25.523,25.523,0,0,0,2.8,1.358C340.707,234.774,342.485,234.131,342.273,233.507Z" transform="translate(-871.303 -8108.085)" fill="#ffc4c0"/><path d="M352,234.551a24.459,24.459,0,0,1-2.8-1.358h0c-2.13-1.135-4.456-2.485-4.456-2.485l-3.835.083L334.9,221.1a9.277,9.277,0,0,0,2.368.287s4.974-3.544,5.061-3.5c.757.28,11.892,14.986,12.1,15.618S352.863,234.774,352,234.551Z" transform="translate(-883.458 -8108.085)" fill="#fff"/><path d="M358.423,233.523c-.219-.643-11.4-15.341-12.183-15.633-.3-.114-2.727,1.392-5.08,3.5l7.217,9.456s6.661,3.529,7.565,3.756S358.642,234.166,358.423,233.523Z" transform="translate(-887.35 -8108.083)" fill="#3186c5"/><path d="M366.341,235.345c-1.937-2.417-9.513-12.35-11.241-14.888h0c1.967,2.353,9.456,12.35,11.264,14.869C366.409,235.367,366.383,235.4,366.341,235.345Z" transform="translate(-896.017 -8109.669)" fill="#263238"/><path d="M376.011,254.944a2.474,2.474,0,0,1-.518-1.929,2.394,2.394,0,0,1,.9-1.555s.034,0,.023.03a2.871,2.871,0,0,0-.378,3.431.019.019,0,1,1-.023.023Z" transform="translate(-908.679 -8128.958)" fill="#263238"/><path d="M360.722,247.745a4.344,4.344,0,0,1-.946-3.612c0-.049.083-.026.087,0a17.087,17.087,0,0,0,1,3.525.081.081,0,0,1-.136.087Z" transform="translate(-898.86 -8124.385)" fill="#263238"/><path d="M363.042,249.159a4.336,4.336,0,0,1-.946-3.608c0-.049.079-.03.087,0a17.292,17.292,0,0,0,.991,3.521.079.079,0,1,1-.132.087Z" transform="translate(-900.302 -8125.266)" fill="#263238"/><path d="M365.352,250.577a4.344,4.344,0,0,1-.946-3.612c0-.045.083-.027.091,0a16.817,16.817,0,0,0,.991,3.521.082.082,0,0,1-.136.091Z" transform="translate(-901.739 -8126.146)" fill="#263238"/><path d="M367.672,252.019a4.336,4.336,0,0,1-.946-3.608c0-.049.079-.03.087,0a17.294,17.294,0,0,0,.991,3.521.079.079,0,1,1-.132.087Z" transform="translate(-903.181 -8127.043)" fill="#263238"/><path d="M349.81,224.019a1.082,1.082,0,1,1,1.474.162,1.082,1.082,0,0,1-1.474-.162Z" transform="translate(-892.589 -8110.822)" fill="#263238"/><path d="M357.767,253.137a10.73,10.73,0,0,0,.049-3.264.151.151,0,0,0-.216-.117.03.03,0,0,0-.049,0,6.529,6.529,0,0,0-1.842,2.814c-.2.635-.121,1.574.673,1.759S357.6,253.753,357.767,253.137Zm-.783.666c-1.135.719-1.059-.874-.9-1.339a7.426,7.426,0,0,1,.378-.866,19.388,19.388,0,0,1,1.036-1.664c0,.526.03,1.052.042,1.577.026.628.076,1.9-.56,2.292Z" transform="translate(-896.34 -8127.89)" fill="#263238"/><path d="M351.53,241.331c-.586.567-.166,1.407.329,1.85a6.5,6.5,0,0,0,3.026,1.464.034.034,0,0,0,.038-.035.155.155,0,0,0,.125-.212,10.859,10.859,0,0,0-1.725-2.773C352.873,241.184,352.09,240.794,351.53,241.331Zm2.455,1.8c.261.458.5.927.779,1.373a19.54,19.54,0,0,1-1.751-.893,7.347,7.347,0,0,1-.779-.541c-.378-.31-1.275-1.634.076-1.611.756.015,1.369,1.127,1.683,1.672Z" transform="translate(-893.62 -8122.499)" fill="#263238"/><path d="M266.96,208.911h-7.731s-8.091-3.888-14.6-2.322c-7.47,1.8-8.427,11.177-2.844,14.494,7.077,4.2,38.554,3.4,38.554,3.4l-6.8-11.544a97.777,97.777,0,0,0-19.963-1.891l13.393,1.827Z" transform="translate(-823.336 -8100.829)" fill="#0e5294"/><path d="M291.541,220.5a.339.339,0,0,1,0-.061v-.049a.651.651,0,0,0-.026-.11c-.008-.038-.053-.151-.079-.227a2.269,2.269,0,0,0-.1-.219,1.406,1.406,0,0,0-.125-.2h-.019c-1.154-.216-8.976-1.335-10.137-1.468s-2.349-.242-3.525-.34a69.768,69.768,0,0,0-7.058-.253h-.662a.659.659,0,0,1-.144-.034l-.34-.079c-.212-.038-.427-.072-.639-.1-.446-.068-.893-.117-1.339-.2a.021.021,0,1,0,0,.042c.446.1.881.231,1.328.325l.378.083c-.862.045-1.725.113-2.587.189-.026,0-.026.045,0,.045,1.173-.072,2.356-.079,3.529-.061s2.33.045,3.495.113c2.356.136,4.709.344,7.054.59,1.316.14,9.293,1.3,10.613,1.358h.019a.9.9,0,0,0,.034.091l.113.216c.038.068.076.132.117.2l.064.1.034.045a.21.21,0,0,1,.034.049C291.579,220.547,291.56,220.5,291.541,220.5Z" transform="translate(-840.897 -8107.626)" fill="#263238"/><path d="M332.9,235.245c-.416-.673-.794-1.373-1.173-2.088s-.757-1.4-1.161-2.092c-.775-1.388-3.552-6.052-3.828-6.388,0-.019-.053,0-.045.026.132.378,1.868,3.457,2.269,4.161.8,1.381,1.638,2.731,2.466,4.1.235.378.48.756.719,1.157s.5.756.715,1.165C332.858,235.291,332.911,235.268,332.9,235.245Z" transform="translate(-878.352 -8112.302)" fill="#263238"/><path d="M290.8,222.715c-.692-.17-1.4-.276-2.107-.409l-2.111-.4-4.229-.756c-2.818-.477-5.647-.87-8.492-1.135-1.6-.151-3.211-.253-4.823-.378-.034,0-.03.049,0,.053,2.863.129,5.723.514,8.56.923s5.609.847,8.408,1.32l2.368.4c.8.14,1.6.31,2.409.412C290.819,222.764,290.835,222.719,290.8,222.715Z" transform="translate(-842.494 -8109.175)" fill="#263238"/><path d="M318.137,317c-.677-.068-17.539-7.648-18-8.344-.174-.261.787-2.78,2.031-5.8.272-.651.552-1.32.843-2,1.891-4.41,3.975-9.047,3.975-9.047l11.294,5.038L314,305.766l-.938,1.955s5.155,5.787,5.579,6.6S318.818,317.071,318.137,317Z" transform="translate(-861.831 -8154.053)" fill="#ffc4c0"/><path d="M318.137,331.876c-.677-.068-17.539-7.648-18-8.344-.212-.318,1.248-3.971,2.875-7.792l10.969,4.9-.938,1.956s5.155,5.787,5.579,6.6S318.818,331.944,318.137,331.876Z" transform="translate(-861.83 -8168.926)" fill="#fff"/><path d="M318.137,335.159c-.677-.068-17.539-7.648-18-8.344-.174-.261.787-2.78,2.031-5.8l10.889,4.857s5.155,5.787,5.579,6.6S318.818,335.227,318.137,335.159Z" transform="translate(-861.831 -8172.208)" fill="#3186c5"/><path d="M319.847,343.851c-2.8-1.339-14.2-6.479-17.062-7.591h0c2.742,1.388,14.188,6.43,17.051,7.622C319.874,343.923,319.9,343.878,319.847,343.851Z" transform="translate(-863.477 -8181.684)" fill="#263238"/><path d="M341.49,348.026a2.489,2.489,0,0,0-2-.068,2.391,2.391,0,0,0-1.309,1.226s.023.03.034,0a2.871,2.871,0,0,1,3.26-1.135.019.019,0,0,0,.015-.023Z" transform="translate(-885.497 -8188.848)" fill="#263238"/><path d="M330.722,335.108a4.326,4.326,0,0,0-3.733-.1c-.045.023,0,.083.03.079a17.211,17.211,0,0,1,3.661.174.079.079,0,0,0,.042-.151Z" transform="translate(-878.527 -8180.667)" fill="#263238"/><path d="M332.625,337.044a4.326,4.326,0,0,0-3.733-.106c-.042.026,0,.087.034.083a17.168,17.168,0,0,1,3.658.17.077.077,0,0,0,.042-.148Z" transform="translate(-879.711 -8181.87)" fill="#263238"/><path d="M334.532,338.982a4.313,4.313,0,0,0-3.733-.106c-.045.023,0,.087.03.083a17.152,17.152,0,0,1,3.658.17.079.079,0,0,0,.045-.147Z" transform="translate(-880.896 -8183.075)" fill="#263238"/><path d="M336.435,340.922a4.313,4.313,0,0,0-3.733-.106c-.042.023,0,.083.034.083a17.166,17.166,0,0,1,3.658.17.077.077,0,1,0,.042-.148Z" transform="translate(-882.08 -8184.281)" fill="#263238"/><path d="M305.441,329.833a1.083,1.083,0,1,0,.523,1.418A1.083,1.083,0,0,0,305.441,329.833Z" transform="translate(-864.207 -8177.625)" fill="#263238"/><path d="M336.81,328.506c-.359-.734-1.29-.594-1.865-.261a6.5,6.5,0,0,0-2.326,2.432.03.03,0,0,0,.019.049.151.151,0,0,0,.163.182,10.734,10.734,0,0,0,3.173-.787C336.541,329.822,337.15,329.2,336.81,328.506Zm-2.47,1.778c-.514.11-1.036.193-1.547.322.454-.473.889-.965,1.388-1.392a7.409,7.409,0,0,1,.756-.579c.416-.261,1.952-.707,1.513.575-.25.7-1.494.945-2.11,1.074Z" transform="translate(-882.035 -8176.532)" fill="#263238"/><path d="M323.3,329.376a11.249,11.249,0,0,0,3.094,1.055c.106.03.182-.076.178-.17a.03.03,0,0,0,.023-.045,6.483,6.483,0,0,0-2.111-2.621c-.545-.378-1.46-.6-1.891.1S322.758,329.039,323.3,329.376Zm-.4-.953c-.329-1.312,1.165-.738,1.555-.439a7.506,7.506,0,0,1,.7.639,19.182,19.182,0,0,1,1.267,1.513c-.5-.17-1.01-.3-1.513-.45-.605-.189-1.831-.537-2.012-1.263Z" transform="translate(-875.711 -8176.075)" fill="#263238"/><path d="M308.45,246.993l12.69,5.742s15.13-29.019,15.508-37.9c.337-7.565-4.917-10.477-21.938-5.587l-4.161.053v2.875c1.827.242,6.71,1.01,6.71,1.01,3.552,1.339,4.694,1.891,4.637,2.008a273.877,273.877,0,0,0-13.446,31.8Z" transform="translate(-867.012 -8101.213)" fill="#0e5294"/><path d="M328.752,219.871c-.511.685-.987,1.4-1.441,2.122a30.48,30.48,0,0,0-8.654-2.269q-1.252-.155-2.519-.223a.026.026,0,0,0,0,.053,37.97,37.97,0,0,1,8.809,1.649c.791.242,1.566.526,2.345.806-.545.874-1.059,1.766-1.551,2.667a53.027,53.027,0,0,0-2.485,5.2c-.409.98-.806,1.967-1.157,2.969,0,.03.038.049.049.019q2.334-5.189,5.084-10.16c.518-.934,1.059-1.857,1.566-2.8C328.813,219.878,328.771,219.848,328.752,219.871Z" transform="translate(-871.777 -8109.087)" fill="#263238"/><path d="M324.217,312.2c-.757-.291-1.46-.651-2.186-.976l-2.182-.98c-1.449-.651-6.472-2.731-6.888-2.829a.028.028,0,0,0-.019.049c.321.208,3.563,1.649,4.293,1.963,1.467.628,2.946,1.21,4.425,1.808.424.17.847.329,1.271.5s.855.318,1.267.5C324.225,312.254,324.24,312.212,324.217,312.2Z" transform="translate(-869.798 -8163.752)" fill="#263238"/><path d="M329.536,223.946c-1,1.891-1.857,3.9-2.727,5.867s-1.71,3.93-2.53,5.908q-2.447,5.916-4.539,11.967c-.8,2.269-1.543,4.577-2.27,6.88,0,.03.042.045.053,0,1.346-4.074,2.8-8.109,4.327-12.1s3.132-7.966,4.838-11.888q.719-1.649,1.46-3.294c.5-1.1,1.01-2.186,1.475-3.294C329.623,223.919,329.559,223.881,329.536,223.946Z" transform="translate(-872.621 -8111.831)" fill="#263238"/><path d="M293.953,179.524c.288.284,17.948.114,18.034,0,.231-.31-2.413-11.438-4.4-15.659-2.542-5.409-3.885-5.859-4.69-6.162a6.248,6.248,0,0,0-3.3-.026,11.665,11.665,0,0,0-3.2,4.762C295.2,166.47,293.7,179.274,293.953,179.524Z" transform="translate(-857.981 -8070.518)" fill="#388fcd"/><path d="M320.773,159.811c7.8,5.469,14.638,13.193,14.086,15.727-.583,2.678-5.745,5.825-10.371,6.581-.946.155-4.119-6.725-3.155-7.081.757-.272,4.161-1.365,4.569-1.853.276-.34-5.326-7.7-7.187-11.582C316.744,157.546,318.692,158.348,320.773,159.811Z" transform="translate(-872.886 -8071.234)" fill="#ffc4c0"/><path d="M311.524,201.31s-2.893.378-4.777.726a11.709,11.709,0,0,0-3.525,1.173c-1.055.738-5.008,4.493-4.115,5.473.806.885,1.929-.594,1.929-.594s-1.381,1.513-.31,2.129,2.356-1.43,2.356-1.43-1.577,1.49-.378,2.058c1.044.492,2.776-1.732,2.776-1.732s-1.827,1.384-.806,1.993c1.135.673,4.161-2.334,4.161-2.334a13.7,13.7,0,0,0,5.753-.571C314.9,208.1,311.524,201.31,311.524,201.31Z" transform="translate(-861.122 -8097.778)" fill="#ffc4c0"/><path d="M308.293,217.541l.329-.469a9.627,9.627,0,0,1,.666-.9c.238-.272.488-.533.756-.791s.575-.511.84-.787a.023.023,0,1,1,.03.03,10.651,10.651,0,0,0-.757.851l-.707.859c-.231.284-.477.545-.715.821-.117.136-.231.28-.34.42a3.347,3.347,0,0,1-.329.4l-.026-.019a2.629,2.629,0,0,1,.253-.415Z" transform="translate(-866.757 -8106.032)" fill="#263238"/><path d="M303.675,214.912a14.5,14.5,0,0,1,1.2-1.687,10.351,10.351,0,0,1,1.486-1.449.023.023,0,0,1,.03.03c-.446.533-.9,1.059-1.35,1.581-.223.257-1.191,1.456-1.309,1.57C303.7,214.984,303.66,214.942,303.675,214.912Z" transform="translate(-864.041 -8104.284)" fill="#263238"/><path d="M313.386,220.028a14.746,14.746,0,0,1,1.157-1.566,12.955,12.955,0,0,1,1.513-1.286.023.023,0,0,1,.03.03c-.473.465-.953.919-1.4,1.411-.219.238-1.036,1.237-1.267,1.445C313.409,220.081,313.375,220.055,313.386,220.028Z" transform="translate(-870.08 -8107.641)" fill="#263238"/><path d="M328.985,166.224l-5.674,3.945s-4.516-6.517-5.734-9.634.083-3.166,3.2-.98S328.985,166.224,328.985,166.224Z" transform="translate(-872.406 -8070.873)" fill="#388fcd"/><path d="M337.124,177.535a47.466,47.466,0,0,1-4.72,3.4c-.019,0-.042-.019-.019-.034.431-.28,2.738-2.1,4.717-3.4C337.124,177.482,337.15,177.516,337.124,177.535Z" transform="translate(-881.888 -8082.971)" fill="#263238"/><path d="M326.973,178.967a2.726,2.726,0,0,0-.344.193c-.681-1.089-1.411-2.194-2.1-3.279-.337-.53-.677-1.059-1.014-1.592s-.673-1.135-1.055-1.668h-.026a17.6,17.6,0,0,0,.843,1.551,2.782,2.782,0,0,0-.189-.231c-.147-.166-.291-.333-.427-.507-.023-.03-.068,0-.045.026.129.17.246.344.359.522a6.039,6.039,0,0,0,.378.518l.378.473.049.057c.185.318.378.635.564.949.681,1.1,2.22,3.3,2.239,3.294a3.177,3.177,0,0,0,.409-.291A.015.015,0,0,0,326.973,178.967Z" transform="translate(-875.704 -8079.938)" fill="#263238"/><path d="M278.99,159.817c-6.075,3.4-11.725,7.5-12.747,10.25-.628,1.729.318,4.792,1.067,6.631.378.893,8.794-2.909,8.06-3.635-1.816-1.8-2.122-2.538-1.944-2.92.11-.242,6.68-6.332,8.488-9.036C284.436,157.335,281.645,158.33,278.99,159.817Z" transform="translate(-840.642 -8071.153)" fill="#ffc4c0"/><path d="M280.135,201.671c-.794.48-1.808-1.573-1.808-1.573a1.706,1.706,0,0,1-.443,1.074c-.5.5-1.494-.064-1.494-.064a2.118,2.118,0,0,1-.647,1.059c-.526.427-1.611,0-1.611,0a1.865,1.865,0,0,1-1.157.571c-1.184.076-2.239-1.4-2.92-2.326a34.8,34.8,0,0,1-2-4.8l5.923-4.418s4.236,3.294,4.879,4.5C279.378,196.716,281.33,200.952,280.135,201.671Z" transform="translate(-841.893 -8091.484)" fill="#ffc4c0"/><path d="M292.658,208.968a15.4,15.4,0,0,0-1.513-3.453c0-.023-.049,0-.038.023.609,1.082.946,2.349,1.513,3.453a.03.03,0,0,0,.038-.023Z" transform="translate(-856.228 -8100.386)" fill="#263238"/><path d="M286.97,212.219a3.166,3.166,0,0,0-.4-.756c-.159-.261-.325-.514-.492-.757q-.5-.756-1.048-1.513c0-.023-.053,0-.038,0,.337.507.662,1.017.976,1.539.155.261.31.522.461.783a4.163,4.163,0,0,0,.465.726.042.042,0,0,0,.072-.023Z" transform="translate(-852.428 -8102.672)" fill="#263238"/><path d="M277.1,164.64l4.667,4.285s5.776-5.458,7.4-8.386.344-3.147-3.026-1.4S277.1,164.64,277.1,164.64Z" transform="translate(-847.52 -8070.87)" fill="#388fcd"/><path d="M277.1,164.64l4.667,4.285s5.776-5.458,7.4-8.386.344-3.147-3.026-1.4S277.1,164.64,277.1,164.64Z" transform="translate(-847.52 -8070.87)" fill="#388fcd"/><path d="M285.046,177.321a44.306,44.306,0,0,1-4.119-3.847c-.019,0,0-.042.026-.023.348.356,2.5,2.209,4.123,3.839C285.111,177.31,285.065,177.336,285.046,177.321Z" transform="translate(-849.895 -8080.454)" fill="#263238"/><path d="M299.913,167.73c-.212.492-.424.983-.6,1.49a.926.926,0,0,0,0-.1,6.871,6.871,0,0,1,.11-.915c0-.034-.045-.045-.049,0-.06.3-.113.609-.151.919-.019.148-.026.3-.034.443v.053h0c-.2.673-.314,1.358-.48,2.035,0,.034.045.045.053,0,.163-.666.408-1.312.62-1.963s.378-1.312.579-1.963C299.954,167.722,299.924,167.707,299.913,167.73Z" transform="translate(-860.956 -8076.891)" fill="#263238"/><path d="M308.339,155.049c1,.242,2.731-1.286,3.4-2.523.045-.087-.079-.983-.182-2.084-.06-.666-.11-1.411-.11-2.092,0-.14-4.282,1.021-4.282,1.021a10.938,10.938,0,0,1,.4,2.621,1.317,1.317,0,0,1-.03.28.279.279,0,0,1,0,.045C307.457,152.852,307.37,154.815,308.339,155.049Z" transform="translate(-866.216 -8064.842)" fill="#ffc4c0"/><path d="M311.214,148.41c-.2,1.154-.934,3.937-3.219,3.979a2.272,2.272,0,0,1-.435-.026v-.045a1.659,1.659,0,0,0,.034-.28,10.85,10.85,0,0,0-.4-2.621S310.284,148.576,311.214,148.41Z" transform="translate(-866.229 -8064.887)" fill="#263238"/><path d="M307.149,130.507c.756,1.4.828,5.851-.038,7.02-1.256,1.7-3.741,2.334-5.3.726s-1.513-7.364-.492-8.473a3.8,3.8,0,0,1,5.83.727Z" transform="translate(-862.129 -8052.654)" fill="#ffc4c0"/><path d="M308.968,143.94a.024.024,0,0,1,.023.026c0,.3.045.647.318.756h0C308.968,144.685,308.912,144.227,308.968,143.94Z" transform="translate(-867.323 -8062.106)" fill="#263238"/><path d="M309.219,143.1c.48-.045.541.919.1.965S308.814,143.139,309.219,143.1Z" transform="translate(-867.32 -8061.582)" fill="#263238"/><path d="M304.1,144.24a.024.024,0,0,0-.023.027c.03.3,0,.647-.253.756h0C304.149,144.978,304.168,144.527,304.1,144.24Z" transform="translate(-864.134 -8062.293)" fill="#263238"/><path d="M303.207,143.45c-.484,0-.461.965,0,.968S303.612,143.458,303.207,143.45Z" transform="translate(-863.532 -8061.803)" fill="#263238"/><path d="M309.333,140.033a3.438,3.438,0,0,1-.4-.042.639.639,0,0,1-.4-.117.212.212,0,0,1-.026-.25.511.511,0,0,1,.488-.17.756.756,0,0,1,.492.212.219.219,0,0,1-.159.367Z" transform="translate(-867.033 -8059.312)" fill="#263238"/><path d="M302.049,140.539a3.159,3.159,0,0,0,.378-.125.628.628,0,0,0,.378-.2.2.2,0,0,0-.026-.25.5.5,0,0,0-.541-.057.756.756,0,0,0-.439.314.219.219,0,0,0,.25.314Z" transform="translate(-862.861 -8059.568)" fill="#263238"/><path d="M309.8,151.21c-.068.076-.132.178-.242.193a.809.809,0,0,1-.325-.057h0a.4.4,0,0,0,.378.14.318.318,0,0,0,.219-.28.031.031,0,0,0-.03,0Z" transform="translate(-867.496 -8066.624)" fill="#263238"/><path d="M306.877,143.719a1.017,1.017,0,0,1-.651.5,1.473,1.473,0,0,1-.378.042h-.136a.076.076,0,0,1-.064-.064h0v-.057h0c-.023-.231-.019-.583-.019-.583-.083.045-.5.265-.5.144a15.611,15.611,0,0,1,.208-3.109.03.03,0,0,1,.057,0c.038.965-.091,1.925-.068,2.894a1.925,1.925,0,0,1,.473-.178,5.943,5.943,0,0,1,0,.783h0a1.43,1.43,0,0,0,1.036-.378C306.87,143.678,306.9,143.7,306.877,143.719Z" transform="translate(-864.94 -8060.011)" fill="#263238"/><path d="M307.42,149.316a1.229,1.229,0,0,0,.507.348.556.556,0,0,0,.333,0c.234-.079.227-.3.174-.484a1.329,1.329,0,0,0-.125-.28,1.566,1.566,0,0,1-.889.416Z" transform="translate(-866.372 -8065.19)" fill="#263238"/><path d="M308.76,150.1a.556.556,0,0,0,.333,0c.234-.079.227-.3.174-.484A.567.567,0,0,0,308.76,150.1Z" transform="translate(-867.205 -8065.639)" fill="#ff98b9"/><path d="M299.839,130.345c1.577.825,3.4-.923,3.4-.923a1.6,1.6,0,0,0,1.729.813s.579,2.436,1.225,2.353c.991-.125.9-3.525.511-4.161a1.793,1.793,0,0,0-1.252-.7,1.649,1.649,0,0,0-.79-.9c-.757-.439-2.992.537-2.992.537a2.186,2.186,0,0,0-.7-.756.62.62,0,0,0-.874.185,1.407,1.407,0,0,1,.31.582c.2.707-.378.775-.458.121a1.021,1.021,0,0,1,.147-.7c-.34-.378-.832-.477-1.093-.212C298.523,127.092,298.531,129.675,299.839,130.345Z" transform="translate(-860.959 -8051.224)" fill="#263238"/><path d="M301.723,143.7c-.45.03-.855-.5-.9-1.173s.276-1.26.726-1.29.851.5.9,1.173S302.173,143.666,301.723,143.7Zm-.163-2.3c-.359.023-.617.522-.575,1.112s.378,1.044.726,1.017.617-.522.571-1.112-.366-1.039-.721-1.017Z" transform="translate(-862.268 -8060.426)" fill="#388fcd"/><path d="M308.186,143.183a1.237,1.237,0,1,1,1.063-1.312A1.2,1.2,0,0,1,308.186,143.183Zm-.163-2.3a1.074,1.074,0,1,0,1.063,1,1.036,1.036,0,0,0-1.063-1Z" transform="translate(-865.973 -8060.105)" fill="#388fcd"/><path d="M305.7,143.512c-.632-.174-.9.049-.9.049l-.113-.121a1.148,1.148,0,0,1,1.052-.087Z" transform="translate(-864.675 -8061.698)" fill="#388fcd"/><path d="M313,142.066l-.042-.163c.106-.026,2.583-.669,2.856-.7a2.963,2.963,0,0,1,1.063.329l-.068.148a3.177,3.177,0,0,0-.961-.314h0C315.623,141.389,313.891,141.835,313,142.066Z" transform="translate(-869.817 -8060.404)" fill="#388fcd"/><path d="M317.275,140.926s.722-1.57,1.418-1.335.325,2.387-.378,2.8a.756.756,0,0,1-1.086-.227Z" transform="translate(-872.471 -8059.388)" fill="#ffc4c0"/><path d="M319.243,141.26v.019a1.928,1.928,0,0,0-.757,1.369.424.424,0,0,1,.605-.223v.03a.469.469,0,0,0-.48.253,2.241,2.241,0,0,0-.174.458c0,.049-.1.042-.1,0h0a1.691,1.691,0,0,1,.9-1.906Z" transform="translate(-873.142 -8060.44)" fill="#263238"/><path d="M312.255,159.707a20.048,20.048,0,0,1-1.437,1.706,3.287,3.287,0,0,1-1.793,1.036,1.311,1.311,0,0,1-1.638-.84,4.919,4.919,0,0,1-.14-2.171c0-.038-.049-.045-.053,0-.11,1.093-.2,2.776.8,3.109a2.812,2.812,0,0,0,2.916-1.033,10.326,10.326,0,0,0,1.365-1.785S312.266,159.7,312.255,159.707Z" transform="translate(-866.191 -8071.724)" fill="#263238"/><rect width="20.293" height="0.912" transform="translate(-567.474 -7887.341)" fill="#263238"/><path d="M289.553,205.761H269.775L268.13,192.33H287.9Z" transform="translate(-841.943 -8092.193)" fill="#263238"/><path d="M295.669,208.107a1.176,1.176,0,0,1-1.184,1.2,1.233,1.233,0,0,1-1.226-1.2,1.18,1.18,0,0,1,1.184-1.207A1.233,1.233,0,0,1,295.669,208.107Z" transform="translate(-857.567 -8101.252)" fill="#fff"/><g transform="translate(-546.392 -7942.547)"><path d="M345.264,96.493a6.055,6.055,0,0,1-10.123,3.833l-3.031.445,1.516-2.621a5.992,5.992,0,0,1-.416-2.916,6.06,6.06,0,1,1,12.054,1.259Z" transform="translate(-331.915 -89.749)" fill="#fff"/><path d="M344.66,96.326a6.111,6.111,0,0,1-1.222,3.073,7.1,7.1,0,0,1-.55.631,6.77,6.77,0,0,1-.64.543,6.109,6.109,0,0,1-3.923,1.22,5.36,5.36,0,0,1-.838-.088,6.112,6.112,0,0,1-3-1.481l.073.022-3.029.467-.22.032.112-.193,1.506-2.625v.1a6.133,6.133,0,0,1,7.6-8.138,6.221,6.221,0,0,1,2.337,1.433A6.111,6.111,0,0,1,344.66,96.326Zm0,0a6.019,6.019,0,0,0-9.375-5.578,6.255,6.255,0,0,0-1.811,1.978,5.967,5.967,0,0,0-.342,5.2l.02.054-.027.049-1.525,2.616-.11-.159,3.034-.425h.044l.029.029a5.952,5.952,0,0,0,2.9,1.494,4.865,4.865,0,0,0,.821.1,5.987,5.987,0,0,0,3.914-1.144,7,7,0,0,0,.64-.535,6.365,6.365,0,0,0,.55-.626,6.074,6.074,0,0,0,1.238-3.053Z" transform="translate(-331.31 -89.583)" fill="#263238"/><path d="M350.366,107.492l-2.586-2.618.868-.86,1.513,1.53,3.141-4.923,1.029.658Z" transform="translate(-343.754 -97.922)" fill="#388fcd"/></g></g></svg>