<svg xmlns="http://www.w3.org/2000/svg" xmlns:xlink="http://www.w3.org/1999/xlink" width="294.896" height="203.849" viewBox="0 0 294.896 203.849"><defs><clipPath id="a"><rect width="89.042" height="55.842" fill="none"/></clipPath></defs><g transform="translate(538.697 8620.071)"><g transform="translate(-8320.691 3315.923)" opacity="0.1"><path d="M393.978,229.389a36.681,36.681,0,0,1-3.444-26.157c6.052-25.017,23.23-68.926,68.7-62.709,63.083,8.635,81.42,10.794,107.3,2.7s70.636-8.088,84.656,10.244c8.5,11.113,37.2,60.924,18.872,78.194s8.875,51.414,9.7,69.559-25.341,20.479-58.233,21.031-224.067-5.73-224.067-5.73-24.509-42.27-5.1-57.37C404.38,249.81,399,238.619,393.978,229.389Z" transform="translate(7397.11 -12074.047)" fill="#388fcd"/><path d="M434.724,793.48c-4.207-.146-19.968,2.005-20.892,2.83-.24.223-3.687,10.472,11.48,23.72,24.264,21.194,89.561,21.918,110.724,13.857,30.7-11.7,64.345,10.237,134.081,1.842,22.285-2.682,37.178-36.818,27.047-41.244-6.066-2.638-13.329,4.363-19.429,1.29-7.021-3.543-21.247-5.757-30.054-3.039a.681.681,0,0,0,.307,1.326l-4.639,1.48c-5.155,3.838-3.994-1.262-16.085-1.919l-35.65-.88c-12.746.384-61.79,2.54-80.979,1.773H500.08c-7.042-.88-25.31-1.3-25.967-1.319Z" transform="translate(7375.491 -12570.78)" fill="#388fcd"/></g><g transform="translate(-454.691 -8571.076)"><rect width="126.683" height="90.228" fill="#263238"/><rect width="114.435" height="64.791" transform="translate(6.124 5.866)" fill="#fff"/><rect width="126.683" height="13.308" transform="translate(0 76.917)" fill="#ebebeb"/><rect width="51.714" height="3.415" transform="translate(37.486 103.079)" fill="#c7c7c7"/><path d="M341.958,398.852h-39.4l1-5.925.049-.28.092-.555.046-.28.1-.557.011-.084.035-.193.1-.557.046-.28.7-4.139h35.05l.661,3.9.035.188.109.647.03.188.041.242.071.4.03.19.109.65.033.185Z" transform="translate(-258.917 -295.77)" fill="#dbdbdb"/><rect width="114.435" height="3.505" transform="translate(6.124 5.866)" fill="#455a64"/><path d="M170.17,79.87a.867.867,0,1,1-.253-.615.867.867,0,0,1,.253.615Z" transform="translate(-161.262 -72.253)" fill="#c7c7c7"/><path d="M183.22,79.87a.867.867,0,1,1-.253-.615.867.867,0,0,1,.253.615Z" transform="translate(-170.763 -72.253)" fill="#fff"/><path d="M196.27,79.87a.867.867,0,1,1-.253-.615.867.867,0,0,1,.253.615Z" transform="translate(-180.264 -72.253)" fill="#388fcd"/><circle cx="2.19" cy="2.19" r="2.19" transform="matrix(0.231, -0.973, 0.973, 0.231, 60.311, 84.559)" fill="#263238"/><path d="M344.131,391.169h-36.8l.035-.193.1-.557.046-.28.7-4.139h35.05l.661,3.9.035.188.109.647.03.188Z" transform="translate(-262.39 -295.77)" fill="#c7c7c7"/><rect width="25.396" height="61.289" transform="translate(95.166 9.371)" fill="#ebebeb"/><path d="M515.13,155.125h15.084V145.3H515.13Z" transform="translate(-413.682 -120.524)" fill="#388fcd"/><rect width="11.5" height="0.188" transform="translate(103.24 26.476)" fill="#fff"/><rect width="5.749" height="0.188" transform="translate(103.24 27.484)" fill="#fff"/><rect width="9.221" height="0.188" transform="translate(103.24 29.499)" fill="#fff"/><rect width="11.5" height="0.188" transform="translate(103.24 30.508)" fill="#fff"/><rect width="11.5" height="0.188" transform="translate(103.24 31.517)" fill="#fff"/><rect width="3.826" height="0.188" transform="translate(103.24 32.523)" fill="#fff"/><path d="M563.77,174.8l1.039,3.375-3.579-1.583Z" transform="translate(-447.246 -142.002)" fill="#388fcd"/><rect width="15.084" height="8.289" transform="translate(99.202 13.447)" fill="#263238"/><path d="M504.089,127.53l-1.039,3.377,3.579-1.585Z" transform="translate(-404.887 -107.586)" fill="#263238"/><rect width="6.869" height="0.188" transform="translate(101.029 14.978)" fill="#fff"/><rect width="11.5" height="0.188" transform="translate(101.029 15.987)" fill="#fff"/><rect width="11.5" height="0.188" transform="translate(101.029 16.993)" fill="#fff"/><rect width="9.306" height="0.188" transform="translate(101.029 18.002)" fill="#fff"/><rect width="11.5" height="0.188" transform="translate(101.029 19.011)" fill="#fff"/><rect width="4.267" height="0.188" transform="translate(101.029 20.02)" fill="#fff"/><rect width="15.084" height="5.673" transform="translate(99.202 37.383)" fill="#263238"/><path d="M504.089,205.93l-1.039,3.37,3.579-1.583Z" transform="translate(-404.887 -164.667)" fill="#263238"/><rect width="9.958" height="0.188" transform="translate(101.029 38.914)" fill="#fff"/><rect width="5.202" height="0.188" transform="translate(101.029 39.923)" fill="#fff"/><rect width="8.683" height="0.188" transform="translate(101.029 40.929)" fill="#fff"/><rect width="19.4" height="3.573" transform="translate(98.163 55.866)" fill="#fff"/><path d="M566.552,264.008a.881.881,0,1,1-.878-.878.881.881,0,0,1,.878.878Z" transform="translate(-449.838 -206.312)" fill="#388fcd"/><path d="M567.142,264.49l.544.509-.544.508-.112-.12.413-.389-.413-.389Z" transform="translate(-451.469 -207.302)" fill="#fff"/><rect width="0.234" height="2.132" transform="translate(98.932 56.587)" fill="#263238"/><rect width="114.435" height="8.952" transform="translate(6.124 61.707)" fill="#388fcd"/><circle cx="3.076" cy="3.076" r="3.076" transform="translate(49.506 63.108)" fill="#a6a6a6"/><rect width="0.141" height="1.58" transform="translate(54.422 65.392)" fill="#fff"/><path d="M339.451,294.66v1.58l-.729-.185L338.51,296v-1.1l.549-.139Z" transform="translate(-285.091 -229.268)" fill="#fff"/><rect width="2.82" height="2.529" rx="1.264" transform="translate(50.596 64.919)" fill="#fff"/><circle cx="3.076" cy="3.076" r="3.076" transform="translate(71.026 63.108)" fill="#a6a6a6"/><path d="M414.347,302.218a.087.087,0,0,1-.087-.087v-1.014a.087.087,0,0,1,.174,0v1.014a.087.087,0,0,1-.087.087Z" transform="translate(-340.242 -233.906)" fill="#fff"/><path d="M413.409,304.934H412.3a.087.087,0,0,1-.087-.087.09.09,0,0,1,.087-.087h1.112a.09.09,0,0,1,.087.087.087.087,0,0,1-.09.087Z" transform="translate(-338.75 -236.621)" fill="#fff"/><path d="M413.363,290.506v1.477a.712.712,0,0,1-1.36.315.683.683,0,0,1-.073-.315v-1.477a.715.715,0,0,1,1.428-.035Z" transform="translate(-338.546 -225.739)" fill="#fff"/><path d="M411.792,296.948a1.039,1.039,0,0,1-1.036-1.039v-.623a.087.087,0,1,1,.171,0v.623a.859.859,0,0,0,.272.625.846.846,0,0,0,.636.237.886.886,0,0,0,.816-.892v-.593a.087.087,0,0,1,.174,0v.593a1.05,1.05,0,0,1-.99,1.066Z" transform="translate(-337.69 -229.649)" fill="#fff"/><path d="M364.059,292.408h-2.972A3.073,3.073,0,0,1,358,289.336h0a3.076,3.076,0,0,1,3.076-3.076h2.972a3.076,3.076,0,0,1,3.076,3.076h0a3.076,3.076,0,0,1-3.065,3.072Z" transform="translate(-299.281 -223.152)" fill="#455a64"/><g transform="translate(60.92 65.015)"><path d="M366.11,294.388a.543.543,0,0,1,.092-.272l.073-.111.163-.163c.063-.043.122-.092.188-.133a2.33,2.33,0,0,1,.848-.329,5.337,5.337,0,0,1,2.107,0,2.288,2.288,0,0,1,.838.324c.065.044.128.092.193.139l.155.155a.89.89,0,0,1,.182.389H369.57a.055.055,0,0,1-.054-.033.457.457,0,0,0-.392-.25,9.889,9.889,0,0,0-1.2,0,.465.465,0,0,0-.392.253c0,.019-.019.033-.046.033Z" transform="translate(-366.106 -293.274)" fill="#fff"/><path d="M366.1,298.89v-.5h1.36v.5a.152.152,0,0,1-.174.174h-1.017a.155.155,0,0,1-.169-.174Z" transform="translate(-366.095 -296.999)" fill="#fff"/><path d="M378.868,298.891c0-.171,0-.343.014-.511h1.343a.1.1,0,0,1,0,.03v.476a.15.15,0,0,1-.166.169h-1.028a.15.15,0,0,1-.163-.163Z" transform="translate(-375.394 -296.991)" fill="#fff"/></g></g><rect width="26.845" height="26.277" transform="translate(-386.373 -8561.706)" fill="#dbdbdb"/><path d="M399.459,124.183a16.485,16.485,0,0,1-9.975,3.859c-2.175.052-6.54-8.27-7.369-10.078-1.387-3.016,4.017-3.753,5.267-3.456,1.558.37,3.932,7.239,4.792,7.949.3.25,4.522-.315,6.309-.674C400.392,121.4,400.49,123.2,399.459,124.183Z" transform="translate(-771.365 -8669.138)" fill="#eb9481"/><path d="M378.275,101.48a33.056,33.056,0,0,1-1.683-5.039c-.13-1-.3-3.924.454-4.1s.878.672.878.672.122-1.245.9-1.36.922,1.218.922,1.218.218-1.267,1-1.322.7,1.3.7,1.3.147-1.167.816-.941c.8.272.288,2.4.517,3.5.052.247,1.417,4.976,1.417,4.976Z" transform="translate(-767.424 -8652.463)" fill="#eb9481"/><path d="M393.653,95.739a5.606,5.606,0,0,0,.245,3.807c0,.03-.033.052-.046.022a4.169,4.169,0,0,1-.272-3.853C393.61,95.644,393.672,95.665,393.653,95.739Z" transform="translate(-779.616 -8655.468)" fill="#263238"/><path d="M387.71,95.838a8.637,8.637,0,0,0,.272,4.079c0,.024-.033.035-.041.014a5.709,5.709,0,0,1-.326-4.079C387.648,95.756,387.724,95.753,387.71,95.838Z" transform="translate(-775.356 -8655.545)" fill="#263238"/><path d="M381.309,97.022a7.549,7.549,0,0,0,.566,4.027c0,.035-.038.06-.054.027a5.4,5.4,0,0,1-.563-4.052C381.279,96.924,381.314,96.921,381.309,97.022Z" transform="translate(-770.785 -8656.397)" fill="#263238"/><path d="M395.587,109.291a19.957,19.957,0,0,0,.794-2.8c.114-.892-.688-4.4-1.455-4.275-.99.169-.925,2.284-.759,3.318,0,0-2.292.386-2.573,1.9S395.587,109.291,395.587,109.291Z" transform="translate(-778.422 -8660.234)" fill="#eb9481"/><path d="M394.487,102.73c-.794.816-.487,2.146-.4,3.16a.092.092,0,0,1-.111.1,3.722,3.722,0,0,0-2.6,1.781.022.022,0,1,1-.044,0,3.062,3.062,0,0,1,2.524-1.952c-.106-1.039-.353-2.4.625-3.086Z" transform="translate(-778.239 -8660.607)" fill="#263238"/><path d="M393.5,122s-5.77,4.4-5.762,4.895c0,0,3.9,6.646,5.711,6.782,2.719.2,6.926-1.332,9.4-3.029,2.651-1.817,2.828-4-.5-3.551-3.579.479-5.526.816-5.877.544S393.793,122.109,393.5,122Z" transform="translate(-775.625 -8674.637)" fill="#388fcd"/><path d="M396.894,128.183a15.975,15.975,0,0,0-1.346.946c-.441.329-.878.663-1.3,1.009s-.857.693-1.273,1.052-.791.712-1.191,1.063c-.019.016,0,.046.027.033.43-.34.873-.664,1.308-1s.862-.677,1.3-1.017.859-.683,1.289-1.028.838-.661,1.224-1.025C396.943,128.2,396.916,128.172,396.894,128.183Z" transform="translate(-778.56 -8679.137)" fill="#263238"/><path d="M417.292,145.471c-2.477,1.7-6.692,3.231-9.4,3.029a1.057,1.057,0,0,1-.318-.082l11.538-6.059C419.652,143.045,418.959,144.329,417.292,145.471Z" transform="translate(-790.063 -8689.46)" opacity="0.1"/><path d="M444.244,131.8c.9.326,2.657-.911,3.416-1.991.052-.073.024-.916.041-1.944.014-.623.041-1.319.114-1.95l-4.079.514a10.156,10.156,0,0,1,.109,2.466,1.216,1.216,0,0,1-.057.256v.043C443.649,129.681,443.372,131.492,444.244,131.8Z" transform="translate(-816.319 -8677.491)" fill="#eb9481"/><path d="M447.851,126c-.231.851-1.142,3.522-3.394,3.318a2.72,2.72,0,0,1-.4-.068v-.044a1.213,1.213,0,0,0,.057-.256,10.154,10.154,0,0,0-.109-2.466Z" transform="translate(-816.586 -8677.549)" fill="#263238"/><path d="M442.965,101.363c.476,1.4-.141,5.5-1.118,6.442-1.417,1.36-3.807,1.564-4.971-.152-1.139-1.662-.239-6.994.859-7.856a3.521,3.521,0,0,1,5.23,1.566Z" transform="translate(-811.015 -8658.022)" fill="#eb9481"/><path d="M448.447,117s.022.016.019.027c-.049.272-.06.6.177.726v.016C448.341,117.688,448.357,117.272,448.447,117Z" transform="translate(-819.782 -8670.997)" fill="#263238"/><path d="M448.781,116.089c.449.03.353.927-.063.9S448.4,116.064,448.781,116.089Z" transform="translate(-819.825 -8670.333)" fill="#263238"/><path d="M441.588,116.16a.024.024,0,0,0-.025.024c-.022.272-.092.593-.353.658v.016C441.523,116.848,441.612,116.429,441.588,116.16Z" transform="translate(-814.555 -8670.385)" fill="#263238"/><path d="M440.7,114.986c-.443-.082-.574.816-.163.887S441.069,115.054,440.7,114.986Z" transform="translate(-813.883 -8669.527)" fill="#263238"/><path d="M449.359,112.9a2.915,2.915,0,0,1-.334-.16.593.593,0,0,1-.31-.226.193.193,0,0,1,.054-.228.478.478,0,0,1,.479,0,.7.7,0,0,1,.367.343.2.2,0,0,1-.256.272Z" transform="translate(-820.007 -8667.521)" fill="#263238"/><path d="M440.094,111.687a2.745,2.745,0,0,0,.353-.054.582.582,0,0,0,.364-.128.19.19,0,0,0,.014-.231.476.476,0,0,0-.46-.139.688.688,0,0,0-.449.22.2.2,0,0,0,.177.332Z" transform="translate(-813.578 -8666.717)" fill="#263238"/><path d="M446.765,126.435c-.076.057-.15.139-.253.139a.747.747,0,0,1-.291-.1s-.019,0-.014.014a.372.372,0,0,0,.337.188.3.3,0,0,0,.245-.223S446.773,126.427,446.765,126.435Z" transform="translate(-818.192 -8677.865)" fill="#263238"/><path d="M443.213,114.858a.955.955,0,0,1-.677.356,1.321,1.321,0,0,1-.343-.022h-.065l-.06-.016a.073.073,0,0,1-.049-.068h0a.076.076,0,0,1,0-.027h0v-.024c.016-.215.071-.544.071-.544-.082.033-.5.169-.481.057a14.378,14.378,0,0,1,.672-2.825.025.025,0,1,1,.049,0c-.112.889-.381,1.754-.508,2.646a1.687,1.687,0,0,1,.462-.09c.03.014-.117.623-.117.721h0a1.321,1.321,0,0,0,1.012-.2C443.21,114.817,443.232,114.839,443.213,114.858Z" transform="translate(-814.844 -8667.152)" fill="#263238"/><path d="M444.28,123.513a1.122,1.122,0,0,0,.43.378.544.544,0,0,0,.307.038c.226-.046.242-.25.212-.427a1.279,1.279,0,0,0-.082-.272,1.463,1.463,0,0,1-.867.283Z" transform="translate(-816.79 -8675.532)" fill="#263238"/><path d="M445.86,124.618a.544.544,0,0,0,.307.038c.226-.046.242-.25.212-.427A.519.519,0,0,0,445.86,124.618Z" transform="translate(-817.94 -8676.26)" fill="#ff99ba"/><path d="M438.109,95.639c1.245,1.237,3.467.117,3.467.117a1.577,1.577,0,0,0,1.392,1.273s-.163,2.464.473,2.575c.971.171,1.874-3.062,1.689-3.766a1.748,1.748,0,0,0-.979-1.02,1.632,1.632,0,0,0-.484-1.088c-.568-.62-2.975-.359-2.975-.359a2.158,2.158,0,0,0-.441-.9.609.609,0,0,0-.878-.082,1.428,1.428,0,0,1,.125.639c-.016.726-.593.62-.47-.019a1.015,1.015,0,0,1,.345-.62c-.207-.47-.647-.691-.971-.519C437.812,92.188,437.07,94.608,438.109,95.639Z" transform="translate(-811.918 -8652.662)" fill="#263238"/><path d="M457.263,116.7s.908-1.33,1.509-1.006-.068,2.243-.77,2.513a.718.718,0,0,1-.963-.375Z" transform="translate(-826.08 -8670.009)" fill="#eb9481"/><path d="M459.586,117.83v.019a1.809,1.809,0,0,0-.922,1.142.394.394,0,0,1,.59-.114s0,.03-.014.027a.443.443,0,0,0-.484.158,2.171,2.171,0,0,0-.226.394c-.024.044-.1.022-.087-.03h0C458.433,118.787,458.912,117.9,459.586,117.83Z" transform="translate(-827.101 -8671.601)" fill="#263238"/><path d="M441.839,149.653c-1.477-4.922-3.5-10.32-5.458-11.892-.185-.272.06-1.284-.071-1.387a31.787,31.787,0,0,0-4.435.171c-.122.1,0,.726-.133.887a31.057,31.057,0,0,0-2.254,4.37,50.049,50.049,0,0,0-1.838,7.851Z" transform="translate(-804.682 -8685.079)" fill="#388fcd"/><path d="M457.9,137.48a3.244,3.244,0,0,0,0,.954,3.008,3.008,0,0,0,0-.954Z" transform="translate(-826.684 -8685.907)" fill="#263238"/><path d="M455.958,137.48a3.015,3.015,0,0,0,0,.954,3.007,3.007,0,0,0,0-.954Z" transform="translate(-825.265 -8685.907)" fill="#263238"/><path d="M454.038,137.48a3.008,3.008,0,0,0,0,.954,3.242,3.242,0,0,0,0-.954Z" transform="translate(-823.867 -8685.907)" fill="#263238"/><path d="M452.115,137.48a3.239,3.239,0,0,0,0,.954,2.792,2.792,0,0,0,.038-.476A3.13,3.13,0,0,0,452.115,137.48Z" transform="translate(-822.469 -8685.907)" fill="#263238"/><path d="M450.188,137.48a3.124,3.124,0,0,0-.038.479,2.807,2.807,0,0,0,.038.476,3.239,3.239,0,0,0,0-.954Z" transform="translate(-821.064 -8685.907)" fill="#263238"/><path d="M448.265,137.48a3.237,3.237,0,0,0,0,.954,2.555,2.555,0,0,0,.038-.476,2.834,2.834,0,0,0-.038-.478Z" transform="translate(-819.666 -8685.907)" fill="#263238"/><path d="M446.338,137.48a3.013,3.013,0,0,0,0,.954,3.009,3.009,0,0,0,0-.954Z" transform="translate(-818.26 -8685.907)" fill="#263238"/><path d="M444.418,137.48a3.007,3.007,0,0,0,0,.954,3.24,3.24,0,0,0,0-.954Z" transform="translate(-816.863 -8685.907)" fill="#263238"/><path d="M434.326,150.474a8.131,8.131,0,0,0-.43.857,1.165,1.165,0,0,1,.035-.185c.033-.163.076-.329.122-.489h-.014a3.374,3.374,0,0,0-.158.484,2.8,2.8,0,0,0-.065.373c-.016.038-.035.076-.049.117a11.423,11.423,0,0,0-.389,1.188c0,.027.033.035.041,0,.3-.786.636-1.553.927-2.341C434.364,150.468,434.332,150.463,434.326,150.474Z" transform="translate(-808.854 -8695.363)" fill="#263238"/><path d="M464.506,151.524c-2.812-3.807-6.526-7.424-8.289-8.329-2.121-1.088-.481,2.972.865,5.338,1.088,1.928,3.508,5.167,3.353,5.259s-.672-1.2-1.468-1.335c-.914-.152-4.794,0-4.729.544a5.549,5.549,0,0,0,.726,1.507h9.542Z" transform="translate(-824.039 -8689.937)" fill="#eb9481"/><path d="M466.684,153.835v-3.212a58.691,58.691,0,0,0-6.48-7.04c-2.51-2.2-4.008-2.314-2.135,2.14a27.251,27.251,0,0,0,4.422,7.225s-2.673.506-4.242.889Z" transform="translate(-826.217 -8689.27)" fill="#388fcd"/><path d="M459.025,155.7a5.6,5.6,0,0,1,.587.489l.155.158c-.245-.416-.484-.835-.712-1.259a.027.027,0,1,1,.049-.024c.68,1.088,1.36,2.175,2.042,3.233s1.4,2.1,2.1,3.146c.4.593.789,1.2,1.194,1.789.016.022-.022.046-.038.024-.389-.5-.791-.99-1.164-1.5s-.718-1.014-1.063-1.531q-1.063-1.585-2.034-3.231l-.193-.326c-.054-.052-.112-.1-.166-.144-.1-.082-.188-.166-.272-.25a5.978,5.978,0,0,1-.5-.544S459.012,155.685,459.025,155.7Z" transform="translate(-827.519 -8698.695)" fill="#263238"/><path d="M458.483,173.7a1.139,1.139,0,0,0-1.107.674s-.34-.949-1.12-.949c-.4,0-.753.644-.753.644a1.166,1.166,0,0,0-1.033-.628c-.544.035-.816.674-.816.674a1.371,1.371,0,0,0-1.177-.272c-1.12.441-1.316,5.2.408,6,.816.375.786-.789.786-.789s.427,1.67,1.406,1.735.867-1.447.867-1.447.427,1.613,1.449,1.577.694-1.528.694-1.528.674,1.088,1.449.881c1.284-.34-.169-2.589.122-3.625h2.665S460.376,173.955,458.483,173.7Z" transform="translate(-822.128 -8712.081)" fill="#eb9481"/><path d="M444.077,176.06c-1.071.177-2.064-1.3-3.111-1.281-1.419.027-.517,2.426,1.439,2.847h1.667Z" transform="translate(-813.873 -8713.064)" fill="#eb9481"/><path d="M457.941,176.282c0-.016-.022-.022-.024,0a8.263,8.263,0,0,0,.09,4.911c.019.049.109.041.1-.016a16.939,16.939,0,0,1-.166-4.9Z" transform="translate(-826.478 -8714.147)" fill="#263238"/><path d="M465.027,175.688a.019.019,0,0,0-.035,0,7.747,7.747,0,0,0,.432,5.349c.03.057.114.082.084,0a13.846,13.846,0,0,1-.481-5.349Z" transform="translate(-831.66 -8713.717)" fill="#263238"/><path d="M473,181.916a10.606,10.606,0,0,1-.783-5.145c0-.024-.03-.024-.038,0a6.961,6.961,0,0,0-.122,2.893,4.737,4.737,0,0,0,.887,2.284C472.959,181.97,473.013,181.951,473,181.916Z" transform="translate(-836.944 -8714.5)" fill="#263238"/><path d="M451.576,179.287a3.781,3.781,0,0,0-.212,1.6.022.022,0,1,0,.044,0c.033-.272.112-1.1.212-1.6C451.625,179.276,451.587,179.266,451.576,179.287Z" transform="translate(-821.938 -8716.337)" fill="#263238"/><g transform="translate(-448.567 -8565.211)"><g clip-path="url(#a)"><path d="M241.932,100.841a117.158,117.158,0,0,0-.166,17.825c.4,4.582,2.287,8.37,7.032,9.545,4.4,1.088,10.687,1.071,14.451-1.814a6.1,6.1,0,0,0,2.284-5.422c-.128-2.991-2.333-19.443-2.991-24.569a53.4,53.4,0,0,0-1.724-9.314c-1.988-6.344-5.115-6.325-5.547-6.456a8.087,8.087,0,0,0-6.192-.288,6.659,6.659,0,0,0-4.1,3.573C242.474,88.969,242.3,95.332,241.932,100.841Z" transform="translate(-220.577 -78.774)" fill="#263238"/><path d="M295.619,85.859c3.745,1.8,4.6,5.915,5.471,9.607,1.216,5.14,2.341,10.3,3.217,15.5q.632,3.757,1.088,7.541a41.275,41.275,0,0,1,.544,7.429c-.31,4.025-4.017,5.819-7.592,6.355a.138.138,0,0,1-.049-.272,10.52,10.52,0,0,0,5.648-2.418c1.963-1.9,1.765-4.443,1.561-6.959-.345-4.286-.936-8.547-1.678-12.781s-1.632-8.449-2.594-12.642c-.914-3.992-1.553-9.246-5.618-11.31C295.559,85.895,295.581,85.84,295.619,85.859Z" transform="translate(-259.961 -83.11)" fill="#263238"/><path d="M241.069,89.063c.748-3.07,2.379-6.053,5.629-6.913h0c-4.2,1.292-5.273,5.857-5.871,9.678q-.941,6.023-1.438,12.112c-.321,3.9-.56,7.829-.525,11.745.038,4.223.761,8.188,3.217,11.693a.071.071,0,0,1-.106.09c-2.426-2.842-3.2-6.728-3.358-10.361a109.512,109.512,0,0,1,.577-14.412,93.577,93.577,0,0,1,1.875-13.632Z" transform="translate(-218.441 -80.412)" fill="#263238"/><path d="M298.143,179.559l-2.249,15.587s-11.745.2-16.316-2.48c-5.542-3.263-10.54-23.471-11.122-26.745-.957-5.376.193-8.28,2.823-6.983a11.713,11.713,0,0,1,3.7,3.513c1.5,1.963,9.863,14.429,12.767,17.05C289.379,180.967,298.143,179.559,298.143,179.559Z" transform="translate(-239.968 -136.095)" fill="#ebebeb"/><path d="M360,251.619c.272-2.314,1.689-11.742,2.135-13.757.03-.141.125-.155.111,0a126.053,126.053,0,0,1-2.154,13.768.047.047,0,1,1-.092-.011Z" transform="translate(-306.861 -193.7)" fill="#263238"/><path d="M290.971,195.018c-3.772-.223-8.754-.816-11.372-2.352-5.542-3.263-10.54-23.471-11.122-26.745-.957-5.376.193-8.28,2.823-6.983a2.66,2.66,0,0,1,.245.131Z" transform="translate(-239.983 -136.095)" fill="#263238"/><path d="M223.311,191l-.7-11.669s3.138-3.473,2.447-6.608a131.4,131.4,0,0,0-6.3-14.157c-2.135-1.988-5.735-1.2-7.212-.079-8.185,6.187-13.956,19.462-16.724,32.512Z" transform="translate(-186.599 -135.161)" fill="#388fcd"/><path d="M223.311,191l-.7-11.669s3.138-3.473,2.447-6.608a131.4,131.4,0,0,0-6.3-14.157c-2.135-1.988-5.735-1.2-7.212-.079-8.185,6.187-13.956,19.462-16.724,32.512Z" transform="translate(-186.599 -135.161)" fill="#388fcd"/><path d="M222.613,180.938l.7,11.669H194.83c2.766-13.053,8.536-26.329,16.721-32.515.106-.079.223-.155.348-.231l.212-.12a2.546,2.546,0,0,1,.272-.13l.136-.06,8.12,19.8-1.852-19.177c.449.479,3.807,7.859,5.439,11.832a.092.092,0,0,1,.016.033l.253.634c.03.076.06.152.09.223.044.117.087.231.128.334a10.605,10.605,0,0,1,.367,1.088C225.76,177.462,222.613,180.938,222.613,180.938Z" transform="translate(-186.607 -136.765)" fill="#ebebeb"/><path d="M251.849,160.25c-.693,1.931-1.417,3.851-2.124,5.776l-.12-.182,4.163.1h.272l-.111.256-1.406,3.241-.027-.228,4.063,5.409,2.031,2.706,2.012,2.719-.47.136.462-5.784c.147-1.931.326-3.856.492-5.784l.035.12L259.164,166l-.1-.15.166-.063,1.275-.489-.062.15c-.645-1.585-1.3-3.168-1.925-4.762.723,1.553,1.425,3.114,2.135,4.672l.046.106-.109.046-1.256.544.06-.212,2.023,2.689.038.052v.068c-.122,1.931-.234,3.861-.381,5.792l-.413,5.789-.049.693-.419-.544-2.026-2.719-2.01-2.719-4.016-5.439-.082-.109.057-.12,1.485-3.209.163.272-4.158-.2h-.193l.073-.171C250.269,164.035,251.042,162.137,251.849,160.25Z" transform="translate(-226.345 -137.274)" fill="#dbdbdb"/><path d="M266.932,136.116s.084,4.269-.693,4.318c-2.393.152-4.955-3.212-5.085-3.736-.033-.133.258-3.44.49-6.007.15-1.653.272-2.991.272-2.991l5.993,3.666-.916,4.433Z" transform="translate(-234.893 -113.576)" fill="#f7a9a0"/><path d="M269.254,131.366l-.916,4.433A9.077,9.077,0,0,1,263,130.691c.15-1.653.272-2.991.272-2.991l.756.43Z" transform="translate(-236.239 -113.576)" fill="#263238"/><path d="M271.2,91.94c1.042,7.886-3.557,9.39-5.256,9.613-1.542.2-6.817.693-8.667-7.032s1.482-10.7,4.979-11.348S270.158,84.065,271.2,91.94Z" transform="translate(-231.687 -81.06)" fill="#f7a9a0"/><path d="M300.9,109.832a4.6,4.6,0,0,1-.544-.079.886.886,0,0,1-.544-.188.272.272,0,0,1-.019-.345.7.7,0,0,1,.677-.2,1.017,1.017,0,0,1,.669.324.3.3,0,0,1-.239.492Z" transform="translate(-262.985 -99.958)" fill="#263238"/><path d="M283.429,111.507a5.1,5.1,0,0,0,.53-.147.9.9,0,0,0,.511-.25.286.286,0,0,0-.022-.345.707.707,0,0,0-.7-.122,1.017,1.017,0,0,0-.62.405.3.3,0,0,0,.3.46Z" transform="translate(-250.857 -101.124)" fill="#263238"/><path d="M288.4,120.656c0-.022-.041.03-.038.052.065.544.046,1.164-.427,1.384-.014,0,0,.033,0,.03C288.529,121.986,288.546,121.154,288.4,120.656Z" transform="translate(-254.388 -108.443)" fill="#263238"/><path d="M286.045,118.75c-.873,0-.794,1.751,0,1.746S286.774,118.742,286.045,118.75Z" transform="translate(-252.562 -107.059)" fill="#263238"/><path d="M283.718,119.122a1.5,1.5,0,0,1-.47.313c-.182.041-.381-.144-.528-.315-.016-.016-.03,0-.03.022a.633.633,0,0,0,.514.707c.359.035.544-.272.62-.617C283.835,119.168,283.778,119.081,283.718,119.122Z" transform="translate(-250.575 -107.323)" fill="#263238"/><path d="M300.506,119.565c0-.022.044.024.044.046,0,.544.1,1.161.6,1.322a.016.016,0,0,1,0,.03C300.541,120.9,300.421,120.079,300.506,119.565Z" transform="translate(-263.528 -107.649)" fill="#263238"/><path d="M300.981,117.419c.865-.1,1,1.632.2,1.735S300.253,117.5,300.981,117.419Z" transform="translate(-263.542 -106.088)" fill="#263238"/><path d="M303.406,117.314c.147.082.294.239.46.237s.318-.2.427-.392c0-.019.024,0,.027.019.035.332-.049.685-.364.775s-.522-.188-.628-.514C303.308,117.382,303.349,117.281,303.406,117.314Z" transform="translate(-265.596 -105.895)" fill="#263238"/><path d="M289.7,136.23c.131.128.272.3.457.318a1.392,1.392,0,0,0,.579-.136c.019,0,.035,0,.024.027a.723.723,0,0,1-.685.294.574.574,0,0,1-.427-.479C289.639,136.224,289.68,136.213,289.7,136.23Z" transform="translate(-255.639 -119.78)" fill="#263238"/><path d="M292.794,114.57s.158.8.179,1.18c0,.035-.09.057-.217.073h0a1.814,1.814,0,0,1-1.8-.574c-.027-.035.019-.079.054-.057a2.719,2.719,0,0,0,1.678.378c.022-.106-.315-1.36-.256-1.36a3.34,3.34,0,0,1,.876.144c-.272-1.675-.816-3.293-1.088-4.965a.052.052,0,0,1,.1-.03,27.479,27.479,0,0,1,1.392,5.3C293.748,114.866,292.949,114.624,292.794,114.57Z" transform="translate(-256.588 -100.201)" fill="#263238"/><path d="M291.831,131.514a1.817,1.817,0,0,1-.721.574.816.816,0,0,1-.495.038c-.362-.09-.375-.419-.313-.7a1.879,1.879,0,0,1,.169-.424,2.35,2.35,0,0,0,1.36.512Z" transform="translate(-256.097 -115.978)" fill="#263238"/><path d="M291.131,133.224a.816.816,0,0,1-.495.038c-.362-.09-.375-.419-.313-.7a.848.848,0,0,1,.808.664Z" transform="translate(-256.111 -117.114)" fill="#ff99ba"/><path d="M253.934,92.733c1.838-.046,1.721-2.942,1.721-2.942s2.078-.272,2.113-3.63a5.136,5.136,0,0,0,3.91,2.311c.6.068-1.455-1.414-1.455-1.414s2.475,2.091,6.9,1.112c.315-.071-.519-4.748-4.079-6.23a7.421,7.421,0,0,0-8.756,1.819s-2.524,1.267-2.719,3.7S253.219,92.749,253.934,92.733Z" transform="translate(-227.907 -79.753)" fill="#263238"/><path d="M278.781,117.929a2.48,2.48,0,1,1,2.423-3.076h0a2.483,2.483,0,0,1-2.423,3.076Zm.03-4.623a2.077,2.077,0,0,0-.53.063,2.148,2.148,0,1,0,.53-.063Z" transform="translate(-245.934 -102.851)" fill="#388fcd"/><path d="M300.888,115.546a2.3,2.3,0,0,1-1.944-2.268,2.942,2.942,0,0,1,.329-1.781,1.545,1.545,0,0,1,2.63-.291,2.948,2.948,0,0,1,.71,1.678c.152,1.36-.544,2.556-1.561,2.668Q300.969,115.546,300.888,115.546Zm-.22-4.623a.934.934,0,0,0-.125,0,1.316,1.316,0,0,0-.982.721,2.624,2.624,0,0,0-.288,1.58c.131,1.177.908,2.061,1.743,1.969s1.4-1.126,1.267-2.3a2.613,2.613,0,0,0-.628-1.477,1.36,1.36,0,0,0-.987-.481Z" transform="translate(-262.39 -101.125)" fill="#388fcd"/><path d="M293.459,118.9l-.239-.228a1.351,1.351,0,0,1,1.83-.3l-.218.25C294.232,118.1,293.489,118.861,293.459,118.9Z" transform="translate(-258.241 -106.597)" fill="#388fcd"/><path d="M253.177,122.417l-.307-.12c.054-.144.56-1.417,1.284-1.615.677-.188,5.14-.272,5.327-.272v.332c-1.278.022-4.721.109-5.243.253C253.756,121.133,253.3,122.069,253.177,122.417Z" transform="translate(-228.864 -108.268)" fill="#388fcd"/><path d="M254.691,121.929s-1.844-2.4-2.94-1.732.367,4.2,1.708,4.623a1.343,1.343,0,0,0,1.768-.816Z" transform="translate(-227.77 -108.028)" fill="#f7a9a0"/><path d="M254.378,124.2a.019.019,0,0,0,0,.035,3.4,3.4,0,0,1,1.849,2.042.742.742,0,0,0-1.118-.152.03.03,0,0,0,.027.049.816.816,0,0,1,.922.247,4.044,4.044,0,0,1,.468.715c.046.082.2.03.158-.063v-.022C256.64,125.872,255.651,124.263,254.378,124.2Z" transform="translate(-229.953 -111.027)" fill="#263238"/><path d="M260.284,135.412a.272.272,0,1,1-.272-.272A.272.272,0,0,1,260.284,135.412Z" transform="translate(-233.865 -118.993)" fill="#fff"/><path d="M257.9,133.947a.177.177,0,1,1-.177-.177.177.177,0,0,1,.177.177Z" transform="translate(-232.271 -117.995)" fill="#fff"/><path d="M278.483,187.742s-1.863-2.447-.087-3.59,3.222,1.591,3.222,1.591Z" transform="translate(-246.889 -154.474)" fill="#455a64"/><path d="M295.333,208.637h0l.258,3,.092.99-.87-.492-2.616-1.5h0L280.54,192.361l3.138-2,11.658,18.277Z" transform="translate(-249.009 -159.196)" fill="#455a64"/><path d="M333.81,268.63l.09.993-.87-.495Z" transform="translate(-287.225 -216.182)" fill="#37474f"/><rect width="4.343" height="0.862" transform="translate(31.203 33.239) rotate(-32.54)" fill="#263238"/><rect width="4.343" height="0.862" transform="translate(31.714 34.045) rotate(-32.54)" fill="#263238"/><path d="M282.92,201.586l1.18-.756,3.568,7.027-.451.253Z" transform="translate(-250.742 -166.819)" fill="#263238"/><path d="M193.937,166.311c-9.112,9.659-19.533,26.054-15.3,29.69,3.859,3.323,18.277.544,27.37-2.793,1.732-.636-4.911-15.973-6.681-15.106a50.412,50.412,0,0,1-5.765,2.447c-.5.122,2.059-5.732,5.2-12.833C202.255,159.807,199.155,160.788,193.937,166.311Z" transform="translate(-174.107 -138.53)" fill="#f7a9a0"/><path d="M276.376,208.118c-.027,1.768-4.375,1.327-4.375,1.327a3.264,3.264,0,0,1,1.286,1.8c.3,1.308-1.632,2.355-1.632,2.355a4.025,4.025,0,0,1,1.058,2.118c.16,1.281-1.632,2.613-1.632,2.613a3.535,3.535,0,0,1-.247,2.447c-1.088,1.988-4.558,1.958-6.717,2.363a46.112,46.112,0,0,0-7.1,2.1L253.36,209.3s9.439-5.338,12.041-5.167C267.623,204.287,276.425,205.421,276.376,208.118Z" transform="translate(-229.22 -169.218)" fill="#f7a9a0"/><path d="M302.6,220.758a29.548,29.548,0,0,0-7.13-1.028.041.041,0,0,0,0,.082c2.366.112,4.759.854,7.114,1.058a.057.057,0,0,0,.016-.112Z" transform="translate(-259.847 -180.58)" fill="#263238"/><path d="M302.023,237.953a6.186,6.186,0,0,0-1.632-.128c-.582,0-1.161,0-1.743.016q-1.74.046-3.481.177a.041.041,0,0,0,0,.082c1.158-.027,2.317-.038,3.475-.016q.867.016,1.738.046a7.345,7.345,0,0,0,1.632-.019.082.082,0,0,0,.011-.158Z" transform="translate(-259.629 -193.748)" fill="#263238"/><path d="M301.653,256.155a4.409,4.409,0,0,0-1.477-.033q-.794.035-1.588.063c-1.061.038-2.118.073-3.176.073a.043.043,0,0,0,0,.084c1.088,0,2.154.025,3.228.022.53,0,1.058,0,1.585-.016a3.978,3.978,0,0,0,1.436-.139.03.03,0,0,0-.008-.054Z" transform="translate(-259.814 -207.041)" fill="#263238"/><path d="M197.111,161.217c-6.526,3.745-23.759,26.476-20.939,32.972s23.715.117,23.715.117L198.62,176.87s-5.531,2.88-5.711,2.6,3.263-8.115,4.645-11.3S200.584,159.229,197.111,161.217Z" transform="translate(-172.798 -137.681)" fill="#ebebeb"/><path d="M251.256,242.586c-.307-2.309-1.226-11.8-1.286-13.869,0-.144.087-.182.109-.033a126.167,126.167,0,0,1,1.27,13.869C251.351,242.627,251.264,242.646,251.256,242.586Z" transform="translate(-226.752 -187.03)" fill="#263238"/><path d="M223.773,219.909a12.513,12.513,0,0,0-1.773.748c-.519.239-1.039.479-1.553.726-1.12.544-2.227,1.088-3.331,1.67s-2.2,1.15-3.288,1.749-2.137,1.256-3.222,1.857c-.049.027,0,.1.046.073,1.1-.582,2.246-1.088,3.361-1.632l3.282-1.632c1.088-.544,2.192-1.074,3.282-1.632.544-.272,1.069-.544,1.6-.816a13.869,13.869,0,0,0,1.694-.908.122.122,0,0,0-.1-.2Z" transform="translate(-198.077 -180.71)" fill="#263238"/><path d="M241.628,197.09c-.345.416-.688.835-1.014,1.267-.06.079-.114.163-.174.245l.272-.674a22.958,22.958,0,0,0,.938-2.385.035.035,0,0,0-.063-.024,24.558,24.558,0,0,0-1.167,2.409c-.364.789-.737,1.577-1.088,2.371s-.712,1.591-1.047,2.4a17.432,17.432,0,0,0-.906,2.4.045.045,0,0,0,.082.03,17.834,17.834,0,0,0,1.2-2.39c.362-.794.7-1.6,1.047-2.393.147-.334.286-.672.427-1.009l.174-.226c.163-.207.315-.422.465-.636.307-.449.593-.906.876-1.36a.016.016,0,0,0-.019-.024Z" transform="translate(-217.586 -162.941)" fill="#263238"/><path d="M256.29,174.337l-.465.226-3.736-5.063-.082-.109.057-.12,1.36-2.961-3.881-.188h-.193l.073-.171c.791-1.9,1.564-3.793,2.371-5.681q-1.007,2.806-2.059,5.6l3.978.1h.272l-.112.256-1.36,3.119Z" transform="translate(-226.301 -137.289)" fill="#dbdbdb"/><path d="M250.13,180.82h.185l-.065.177Z" transform="translate(-226.869 -152.251)" fill="#dbdbdb"/><path d="M260.76,193.23l.079.106-.052.122Z" transform="translate(-234.608 -161.286)" fill="#dbdbdb"/><path d="M264.484,181.59l.163.261-.277-.014Z" transform="translate(-237.236 -152.811)" fill="#dbdbdb"/><path d="M318.886,229l-18.266,1.324,6.828-24.047,18.263-1.324Z" transform="translate(-263.629 -169.819)" fill="#fff"/><path d="M323.483,228.66l-18.263,1.324,6.828-24.047,18.263-1.327Z" transform="translate(-266.978 -169.571)" fill="#455a64"/><path d="M334.034,206.753a1.613,1.613,0,0,1-.715,1.009c-.166.106-.231-.117-.065-.218a1.218,1.218,0,0,0,.487-.642.761.761,0,0,0,.033-.13.862.862,0,0,0,0-.449.272.272,0,0,0-.111-.152h-.071a.215.215,0,0,0-.128.019.545.545,0,0,0-.2.15,1.141,1.141,0,0,0-.163.272c-.027.043-.046.09-.071.139v.033a.124.124,0,0,0-.019.049.147.147,0,0,0,0,.033l-.258.019a1.863,1.863,0,0,1,.215-.47,1.011,1.011,0,0,1,.669-.5.4.4,0,0,1,.435.345,1.088,1.088,0,0,1-.038.493Z" transform="translate(-287.021 -170.521)" fill="#388fcd"/><path d="M339.32,206.309a1.632,1.632,0,0,1-.713,1.009c-.169.106-.231-.117-.065-.218a1.218,1.218,0,0,0,.487-.642.859.859,0,0,1,.033-.133.853.853,0,0,0,0-.446.272.272,0,0,0-.114-.155h-.06a.2.2,0,0,0-.125.019.519.519,0,0,0-.2.15,1.058,1.058,0,0,0-.163.258.836.836,0,0,0-.071.139v.033a.375.375,0,0,0-.019.049v.03l-.258.019a1.889,1.889,0,0,1,.215-.468.982.982,0,0,1,.669-.5.4.4,0,0,1,.435.345,1.058,1.058,0,0,1-.051.511Z" transform="translate(-290.88 -170.186)" fill="#388fcd"/><path d="M344.563,205.926a1.631,1.631,0,0,1-.715,1.012c-.166.106-.228-.12-.063-.22a1.212,1.212,0,0,0,.487-.639.794.794,0,0,1,.033-.133.882.882,0,0,0,0-.446.288.288,0,0,0-.114-.155h-.057a.215.215,0,0,0-.128.019.487.487,0,0,0-.2.15,1.208,1.208,0,0,0-.166.256c-.027.044-.046.092-.071.141v.033a.179.179,0,0,0-.019.049v.03l-.272.019a2.109,2.109,0,0,1,.215-.468,1,1,0,0,1,.669-.5.4.4,0,0,1,.438.343A1.088,1.088,0,0,1,344.563,205.926Z" transform="translate(-294.688 -169.909)" fill="#388fcd"/><path d="M349.8,205.554a1.631,1.631,0,0,1-.715,1.012c-.166.106-.231-.12-.065-.22a1.213,1.213,0,0,0,.487-.639.789.789,0,0,0,.033-.133.815.815,0,0,0,0-.446.272.272,0,0,0-.111-.155H349.4a.115.115,0,0,1-.035,0,.242.242,0,0,0-.128.022.5.5,0,0,0-.2.15,1.126,1.126,0,0,0-.163.256c-.027.043-.046.092-.071.141v.033a.129.129,0,0,0-.019.046.153.153,0,0,0,0,.033l-.258.019a1.841,1.841,0,0,1,.215-.468,1,1,0,0,1,.669-.5.4.4,0,0,1,.435.343A1.089,1.089,0,0,1,349.8,205.554Z" transform="translate(-298.503 -169.639)" fill="#388fcd"/><path d="M355.09,205.174a1.632,1.632,0,0,1-.712,1.012c-.169.106-.231-.12-.065-.22a1.213,1.213,0,0,0,.487-.639.788.788,0,0,1,.033-.133.862.862,0,0,0,0-.449.272.272,0,0,0-.114-.152h-.024a.116.116,0,0,1-.035,0,.229.229,0,0,0-.125.022.494.494,0,0,0-.2.15.993.993,0,0,0-.163.256.871.871,0,0,0-.071.141v.033a.318.318,0,0,0-.019.046v.033l-.258.019a1.845,1.845,0,0,1,.215-.468.982.982,0,0,1,.669-.5.4.4,0,0,1,.435.343A1.058,1.058,0,0,1,355.09,205.174Z" transform="translate(-302.362 -169.363)" fill="#388fcd"/><path d="M360.277,204.793a1.632,1.632,0,0,1-.712,1.012c-.169.106-.231-.12-.065-.22a1.213,1.213,0,0,0,.487-.639.742.742,0,0,1,.033-.133.89.89,0,0,0,0-.449.293.293,0,0,0-.114-.152h-.071a.215.215,0,0,0-.128.019.519.519,0,0,0-.2.152,1.088,1.088,0,0,0-.166.256c-.027.043-.046.092-.071.141v.03a.182.182,0,0,0-.019.049v.033l-.272.019a2.127,2.127,0,0,1,.215-.47,1,1,0,0,1,.669-.495.4.4,0,0,1,.438.343,1.086,1.086,0,0,1-.024.5Z" transform="translate(-306.119 -169.085)" fill="#388fcd"/><path d="M365.563,204.413a1.632,1.632,0,0,1-.715,1.012c-.166.106-.231-.12-.065-.22a1.213,1.213,0,0,0,.487-.639.871.871,0,0,0,.033-.133.832.832,0,0,0,0-.449.289.289,0,0,0-.112-.152h-.071a.215.215,0,0,0-.128.019.544.544,0,0,0-.2.15,1.144,1.144,0,0,0-.163.258c-.027.044-.046.092-.071.141v.03a.122.122,0,0,0-.019.049.144.144,0,0,0,0,.033l-.258.019a1.86,1.86,0,0,1,.215-.47,1,1,0,0,1,.669-.495.4.4,0,0,1,.435.343,1.089,1.089,0,0,1-.037.5Z" transform="translate(-309.977 -168.809)" fill="#388fcd"/><path d="M370.824,204.027a1.632,1.632,0,0,1-.712,1.009c-.169.106-.231-.117-.065-.218a1.218,1.218,0,0,0,.487-.642.758.758,0,0,1,.033-.13.863.863,0,0,0,0-.449.272.272,0,0,0-.114-.152h-.06a.2.2,0,0,0-.125.019.544.544,0,0,0-.2.15,1.053,1.053,0,0,0-.163.258,1.325,1.325,0,0,0-.071.139v.033a.37.37,0,0,0-.019.049v.033l-.272.019a1.86,1.86,0,0,1,.215-.47,1.006,1.006,0,0,1,.669-.5.4.4,0,0,1,.435.345A1.059,1.059,0,0,1,370.824,204.027Z" transform="translate(-313.807 -168.526)" fill="#388fcd"/><path d="M376.047,203.639a1.632,1.632,0,0,1-.713,1.009c-.169.106-.231-.117-.065-.218a1.218,1.218,0,0,0,.487-.642.766.766,0,0,1,.033-.13.889.889,0,0,0,0-.449.3.3,0,0,0-.114-.155H375.6a.215.215,0,0,0-.128.019.544.544,0,0,0-.2.15,1.158,1.158,0,0,0-.166.258c-.027.044-.046.09-.071.139v.033a.184.184,0,0,0-.019.049v.033l-.272.016a2.111,2.111,0,0,1,.215-.468,1,1,0,0,1,.669-.5.4.4,0,0,1,.438.345A1.087,1.087,0,0,1,376.047,203.639Z" transform="translate(-317.6 -168.242)" fill="#388fcd"/><path d="M381.344,203.259a1.631,1.631,0,0,1-.715,1.009c-.166.106-.228-.117-.065-.218a1.219,1.219,0,0,0,.487-.642.736.736,0,0,0,.033-.133.815.815,0,0,0,0-.446.271.271,0,0,0-.111-.155H380.9a.215.215,0,0,0-.128.019.5.5,0,0,0-.2.15,1.189,1.189,0,0,0-.163.256c-.027.046-.046.092-.071.141v.033a.124.124,0,0,0-.019.049v.03l-.258.019a1.887,1.887,0,0,1,.215-.468,1,1,0,0,1,.669-.5.4.4,0,0,1,.435.345A1.088,1.088,0,0,1,381.344,203.259Z" transform="translate(-321.466 -167.965)" fill="#388fcd"/><path d="M386.6,202.884a1.631,1.631,0,0,1-.712,1.012c-.169.106-.231-.12-.065-.22a1.213,1.213,0,0,0,.487-.639.788.788,0,0,1,.033-.133.852.852,0,0,0,0-.446.272.272,0,0,0-.114-.155H386.2a.116.116,0,0,1-.035,0,.228.228,0,0,0-.125.022.5.5,0,0,0-.2.15,1.088,1.088,0,0,0-.163.256,1.132,1.132,0,0,0-.071.141v.033a.358.358,0,0,0-.019.049v.03l-.258.019a1.843,1.843,0,0,1,.215-.468.99.99,0,0,1,.669-.5.4.4,0,0,1,.435.343,1.057,1.057,0,0,1-.049.506Z" transform="translate(-325.303 -167.696)" fill="#388fcd"/><path d="M391.853,202.5a1.632,1.632,0,0,1-.712,1.012c-.169.106-.231-.12-.065-.22a1.212,1.212,0,0,0,.487-.639.792.792,0,0,1,.033-.133.892.892,0,0,0,0-.449.294.294,0,0,0-.114-.152h-.022a.113.113,0,0,1-.035,0,.242.242,0,0,0-.128.022.486.486,0,0,0-.2.15,1.086,1.086,0,0,0-.166.256c-.027.044-.046.092-.071.141v.033a.207.207,0,0,0-.019.046v.033l-.272.019a2.052,2.052,0,0,1,.215-.468,1,1,0,0,1,.669-.5.4.4,0,0,1,.438.343,1.088,1.088,0,0,1-.038.506Z" transform="translate(-329.118 -167.418)" fill="#388fcd"/><path d="M366.812,224.5c.965,1.977,3.372,4.419,3.584,6.04a1.879,1.879,0,0,1-1.02,2,2.79,2.79,0,0,1,1.583,2.292c-.024.772-1.284,1.414-1.284,1.414a2.237,2.237,0,0,1,1.153,2.023c-.1,1.063-1.346,1.545-1.346,1.545a2.679,2.679,0,0,1,.468,2.284c-.911,2.129-10.078,2.235-11.533-1.123-.68-1.566,1.561-1.471,1.561-1.471s-3.187-.916-3.263-2.806,2.834-1.588,2.834-1.588-3.084-.914-2.959-2.88c.13-2.048,2.991-1.251,2.991-1.251s-2.053-1.36-1.613-2.842c.726-2.447,4.623.576,6.63.073l1.074-3.334Z" transform="translate(-304.376 -184.053)" fill="#f7a9a0"/><path d="M393,215.062c-.753-1.952,1.648-4.4,1.2-6.371-.609-2.665-3.587,0-4.21,3.878l.046,3.1Z" transform="translate(-328.696 -171.759)" fill="#f7a9a0"/><path d="M377.866,279.59a.024.024,0,0,1,0,.046,15.9,15.9,0,0,1-9.45-.454c-.1-.038-.076-.209.038-.188A32.555,32.555,0,0,0,377.866,279.59Z" transform="translate(-312.945 -223.727)" fill="#263238"/><path d="M377.094,264.407a.033.033,0,0,1,0,.065,14.893,14.893,0,0,1-10.279-1.134c-.109-.06-.147-.223-.016-.163C369.012,264.154,374.135,264.7,377.094,264.407Z" transform="translate(-311.751 -212.201)" fill="#263238"/><path d="M366.669,247.563a20.446,20.446,0,0,0,9.866,1.8c.046,0,.044.06,0,.073a13.414,13.414,0,0,1-5.575.076,9.165,9.165,0,0,1-4.351-1.838C366.565,247.634,366.6,247.531,366.669,247.563Z" transform="translate(-311.659 -200.839)" fill="#263238"/><path d="M328.325,122.5h-1.9v-2.061H324.36v-1.9h2.061V116.47h1.9v2.048h2.061v1.9h-2.061Zm-1.632-.272h1.36v-2.061h2.061V118.8h-2.061v-2.061h-1.36v2.048h-2.061v1.36h2.061Z" transform="translate(-280.913 -105.4)" fill="#388fcd"/><path d="M187.435,190.529h-1.9v-2.061H183.47v-1.9h2.048V184.5h1.9v2.064h2.064v1.9h-2.064Zm-1.632-.272h1.36V188.2h2.064v-1.36h-2.064v-2.064H185.8v2.064h-2.061v1.36h2.048Z" transform="translate(-178.336 -154.93)" fill="#388fcd"/></g></g></g></svg>