<svg xmlns="http://www.w3.org/2000/svg" width="294.895" height="203.854" viewBox="0 0 294.895 203.854"><g transform="translate(-316 -1263)"><g transform="translate(16 -14)" opacity="0.097"><path d="M393.978,229.389a36.681,36.681,0,0,1-3.444-26.157c6.052-25.017,23.23-68.926,68.7-62.709,63.083,8.635,81.42,10.794,107.3,2.7s70.636-8.088,84.656,10.244c8.5,11.113,37.2,60.924,18.872,78.194s8.875,51.414,9.7,69.559-25.341,20.479-58.233,21.031-224.067-5.73-224.067-5.73-24.509-42.27-5.1-57.37C404.38,249.81,399,238.619,393.978,229.389Z" transform="translate(-84.889 1138.952)" fill="#388fcd"/><path d="M434.724,793.48c-4.207-.146-19.968,2.005-20.892,2.83-.24.223-3.687,10.472,11.48,23.72,24.264,21.194,89.561,21.918,110.724,13.857,30.7-11.7,64.345,10.237,134.081,1.842,22.285-2.682,37.178-36.818,27.047-41.244-6.066-2.638-13.329,4.363-19.429,1.29-7.021-3.543-21.247-5.757-30.054-3.039a.681.681,0,0,0,.307,1.326l-4.639,1.48c-5.155,3.838-3.994-1.262-16.085-1.919l-35.65-.88c-12.746.384-61.79,2.54-80.979,1.773H500.08c-7.042-.88-25.31-1.3-25.967-1.319Z" transform="translate(-106.509 642.219)" fill="#388fcd"/></g><g transform="translate(16 -14)"><path d="M207.309,36.967H197.272a2.5,2.5,0,0,0-2.448,2.556v1.829a2.5,2.5,0,0,1-2.448,2.556H172.794a2.5,2.5,0,0,1-2.448-2.556V39.51a2.5,2.5,0,0,0-2.448-2.56h-12.26a7.91,7.91,0,0,0-7.9,7.928l-.024,127.156a7.917,7.917,0,0,0,7.9,7.931l51.671.031a7.91,7.91,0,0,0,7.9-7.928l.025-127.16a7.914,7.914,0,0,0-7.9-7.942Z" transform="translate(245.379 1265.128)" fill="#fff"/><path d="M207.144,36.823h.273a5.924,5.924,0,0,1,.8.063,7.459,7.459,0,0,1,2.969,1.049,7.693,7.693,0,0,1,1.8,1.469,7.9,7.9,0,0,1,1.5,2.371,8.2,8.2,0,0,1,.587,3.214V48.72c0,10.55,0,25.818.021,44.681s0,41.327,0,66.267v11.869c0,.4-.024.808-.042,1.213a8.742,8.742,0,0,1-.227,1.2,8.043,8.043,0,0,1-2.577,4.1,8.588,8.588,0,0,1-2.1,1.287,8.064,8.064,0,0,1-2.416.566l-.626.031H156.039A8.274,8.274,0,0,1,150.9,178.5a8.078,8.078,0,0,1-3.112-4.336,8.785,8.785,0,0,1-.325-2.675V44.971c0-.318.024-.64.035-.958a7.148,7.148,0,0,1,.14-.944,8.222,8.222,0,0,1,1.609-3.378,8.008,8.008,0,0,1,6.445-2.955h11.851a2.535,2.535,0,0,1,2.567,1.626,2.84,2.84,0,0,1,.175.776c.021.269,0,.521,0,.78V41.45a2.553,2.553,0,0,0,.549,1.35,2.381,2.381,0,0,0,1.192.8,5.494,5.494,0,0,0,1.441.091h18.985a2.269,2.269,0,0,0,.976-.35,2.511,2.511,0,0,0,1.126-1.591,4.04,4.04,0,0,0,.07-.962v-.906a5.8,5.8,0,0,1,.038-.923,2.545,2.545,0,0,1,.287-.85,2.507,2.507,0,0,1,1.245-1.133,3.8,3.8,0,0,1,1.567-.175l5.141.024h-5.137a3.78,3.78,0,0,0-1.546.178A2.448,2.448,0,0,0,195,38.11a2.574,2.574,0,0,0-.276.829,6.035,6.035,0,0,0-.035.913V40.8a4.2,4.2,0,0,1-.066.976,2.6,2.6,0,0,1-1.154,1.64,2.367,2.367,0,0,1-1.011.35c-.35.024-.72,0-1.088,0H172.751a2.647,2.647,0,0,1-.741-.094,2.507,2.507,0,0,1-1.248-.832,2.71,2.71,0,0,1-.577-1.4c-.028-.518,0-1.021,0-1.542v-.769a2.594,2.594,0,0,0-.171-.745,2.413,2.413,0,0,0-2.448-1.549H155.689a7.886,7.886,0,0,0-6.295,2.913,8.123,8.123,0,0,0-1.581,3.322c-.049.308-.1.615-.133.927a7.73,7.73,0,0,0-.035.948V171.456a8.592,8.592,0,0,0,.318,2.623,7.882,7.882,0,0,0,3.042,4.238,8.074,8.074,0,0,0,5.036,1.4h51.052l.612-.031a7.826,7.826,0,0,0,2.364-.556,8.211,8.211,0,0,0,2.067-1.255,7.816,7.816,0,0,0,2.528-3.969,8.341,8.341,0,0,0,.224-1.171c0-.4.049-.794.042-1.2V159.668c0-24.94.021-47.4.031-66.267s.028-34.13.038-44.681V44.988a8.186,8.186,0,0,0-.563-3.2,7.935,7.935,0,0,0-1.483-2.357,7.564,7.564,0,0,0-1.787-1.469,7.48,7.48,0,0,0-2.948-1.049,6.344,6.344,0,0,0-.8-.073Z" transform="translate(245.544 1265.272)" fill="#263238"/><rect width="51.65" height="11.26" rx="3" transform="translate(399.485 1394.268)" fill="#3186c5"/><path d="M207.48,126.967l.409-.913a3.07,3.07,0,0,0,1.724.546c.7,0,1.007-.238,1.007-.56,0-.976-3.035-.3-3.035-2.245,0-.888.717-1.626,2.2-1.626a3.528,3.528,0,0,1,1.815.462l-.374.92a2.958,2.958,0,0,0-1.448-.413c-.717,0-.993.269-.993.6,0,.962,3.035.3,3.035,2.217,0,.871-.72,1.619-2.214,1.619a3.728,3.728,0,0,1-2.126-.6Z" transform="translate(206.51 1209.71)"/><path d="M221.62,121.213a.664.664,0,0,1,.724-.65.654.654,0,0,1,.724.626.727.727,0,0,1-1.448.024Zm.143,1.206h1.161v4.015h-1.171Z" transform="translate(197.315 1210.756)"/><path d="M232,125.765v3.343a1.966,1.966,0,0,1-2.256,2.179,3.3,3.3,0,0,1-1.969-.553l.462-.836a2.413,2.413,0,0,0,1.42.455c.818,0,1.178-.371,1.178-1.095v-.171a1.657,1.657,0,0,1-1.269.5,1.941,1.941,0,1,1,0-3.878,1.623,1.623,0,0,1,1.329.574v-.514Zm-1.15,1.881a1.049,1.049,0,1,0-1.049.983.976.976,0,0,0,1.049-.983Z" transform="translate(193.462 1207.411)"/><path d="M247.482,127.484v2.3h-1.164v-2.119c0-.647-.3-.948-.811-.948a.961.961,0,0,0-.965,1.081v1.986H243.38v-4.014h1.109v.472a1.748,1.748,0,0,1,1.329-.532A1.574,1.574,0,0,1,247.482,127.484Z" transform="translate(183.164 1207.409)"/><path d="M263.75,121.213a.664.664,0,0,1,.724-.65.65.65,0,0,1,.72.626.724.724,0,0,1-1.444.024Zm.14,1.206h1.164v4.015H263.89Z" transform="translate(169.918 1210.756)"/><path d="M274.685,127.484v2.3h-1.154v-2.119c0-.647-.3-.948-.815-.948a.959.959,0,0,0-.962,1.081v1.986H270.59v-4.014H271.7v.472a1.749,1.749,0,0,1,1.329-.532A1.57,1.57,0,0,1,274.685,127.484Z" transform="translate(165.469 1207.409)"/><path d="M170.692,183.078v.189H169.23V181.2h1.42v.189h-1.2v.734h1.07v.189h-1.07v.766Z" transform="translate(231.384 1171.321)" fill="#263238"/><path d="M174.26,184.56h.773v.185h-.773Z" transform="translate(228.113 1169.136)" fill="#263238"/><path d="M180.383,183.295v.9h-.21v-.878c0-.329-.164-.5-.444-.5a.5.5,0,0,0-.521.563v.815H179v-.878c0-.329-.164-.5-.448-.5a.5.5,0,0,0-.521.563v.815h-.21v-1.553h.2v.283a.636.636,0,0,1,.57-.3.559.559,0,0,1,.553.329.7.7,0,0,1,.615-.329.588.588,0,0,1,.626.668Z" transform="translate(225.798 1170.395)" fill="#263238"/><path d="M187.721,183.224v.962h-.2v-.241a.584.584,0,0,1-.535.259c-.35,0-.567-.185-.567-.455s.15-.441.6-.441h.493v-.094c0-.266-.15-.409-.441-.409a.8.8,0,0,0-.518.182l-.094-.157a.993.993,0,0,1,.633-.21.553.553,0,0,1,.629.6Zm-.21.5v-.255h-.486c-.3,0-.4.119-.4.28s.143.29.392.29a.493.493,0,0,0,.493-.315Z" transform="translate(220.206 1170.402)" fill="#263238"/><path d="M191.64,180.974a.154.154,0,1,1,.154.154.15.15,0,0,1-.154-.154Zm.045.493h.213v1.553h-.213Z" transform="translate(216.811 1171.568)" fill="#263238"/><path d="M194.05,180.84h.21v2.193h-.21Z" transform="translate(215.244 1171.556)" fill="#263238"/><path d="M168.609,240.147c0,.441-.318.7-.846.7h-.556v.654H167v-2.07h.773C168.29,239.437,168.609,239.706,168.609,240.147Zm-.217,0c0-.329-.22-.518-.633-.518h-.553v1.049h.553c.413,0,.64-.206.64-.532Z" transform="translate(232.835 1133.454)"/><path d="M173.714,241.484v.962h-.2V242.2a.581.581,0,0,1-.535.255c-.35,0-.57-.182-.57-.451s.154-.441.6-.441h.493v-.094c0-.266-.15-.409-.441-.409a.8.8,0,0,0-.518.182l-.094-.157a.993.993,0,0,1,.633-.21.553.553,0,0,1,.629.6Zm-.21.5v-.255h-.486c-.3,0-.4.119-.4.276s.147.294.4.294a.5.5,0,0,0,.493-.329Z" transform="translate(229.316 1132.516)"/><path d="M177.16,242.278l.094-.164a.927.927,0,0,0,.553.175c.294,0,.416-.1.416-.255,0-.406-1.007-.084-1.007-.7,0-.255.217-.444.612-.444a1.049,1.049,0,0,1,.553.147l-.094.168a.79.79,0,0,0-.458-.133c-.28,0-.4.108-.4.255,0,.42,1.007.1,1.007.7,0,.269-.238.441-.643.441a1.014,1.014,0,0,1-.629-.189Z" transform="translate(226.227 1132.505)"/><path d="M181.29,242.278l.094-.164a.927.927,0,0,0,.553.175c.3,0,.416-.1.416-.255,0-.406-1.007-.084-1.007-.7,0-.255.22-.444.615-.444a1.049,1.049,0,0,1,.549.147l-.091.168a.8.8,0,0,0-.458-.133c-.283,0-.406.108-.406.255,0,.42,1.007.1,1.007.7,0,.269-.234.441-.64.441A1.018,1.018,0,0,1,181.29,242.278Z" transform="translate(223.542 1132.505)"/><path d="M187.739,240.93l-.587,1.553h-.2l-.49-1.273-.49,1.273h-.2l-.584-1.553h.2l.49,1.318.5-1.318h.178l.5,1.318.493-1.318Z" transform="translate(221.006 1132.479)"/><path d="M192.809,241.667a.794.794,0,1,1,.794.79.766.766,0,0,1-.794-.79Zm1.371,0a.58.58,0,1,0-.577.6.567.567,0,0,0,.577-.6Z" transform="translate(216.051 1132.518)"/><path d="M199.343,240.884v.2h-.049a.5.5,0,0,0-.525.573v.79h-.21V240.9h.2v.3A.577.577,0,0,1,199.343,240.884Z" transform="translate(212.311 1132.511)"/><path d="M202.941,239.1v2.193h-.2v-.308a.671.671,0,0,1-.6.322.79.79,0,1,1,0-1.581.7.7,0,0,1,.591.308V239.1Zm-.206,1.416a.581.581,0,1,0-.577.6.567.567,0,0,0,.577-.6Z" transform="translate(210.497 1133.669)"/><path d="M220.56,314.735l.206-.458a1.535,1.535,0,0,0,.864.273c.35,0,.5-.119.5-.28,0-.49-1.521-.154-1.521-1.126,0-.444.35-.815,1.1-.815a1.749,1.749,0,0,1,.909.231l-.185.462a1.469,1.469,0,0,0-.727-.206c-.35,0-.5.133-.5.3,0,.483,1.521.15,1.521,1.112,0,.437-.35.811-1.109.811A1.871,1.871,0,0,1,220.56,314.735Z" transform="translate(198.004 1086.048)" fill="#fff"/><path d="M227.6,311.853a.35.35,0,0,1,.35-.325.325.325,0,0,1,.35.311.362.362,0,1,1-.724,0Zm.07.6h.584v2.011h-.584Z" transform="translate(193.439 1086.569)" fill="#fff"/><path d="M233.176,315.008v1.151H232.6V315.11c0-.329-.15-.476-.409-.476a.479.479,0,0,0-.483.542v.993h-.584v-2.011h.56v.234a.878.878,0,0,1,.664-.266.787.787,0,0,1,.832.881Z" transform="translate(191.137 1084.879)" fill="#fff"/><path d="M240.255,314.161v1.682a.983.983,0,0,1-1.13,1.091,1.637,1.637,0,0,1-.986-.276l.231-.42a1.2,1.2,0,0,0,.7.231c.413,0,.591-.189.591-.553v-.073a.825.825,0,0,1-.633.252.976.976,0,1,1,0-1.948.8.8,0,0,1,.664.29v-.259Zm-.574.941a.532.532,0,1,0-.528.5.49.49,0,0,0,.528-.5Z" transform="translate(186.668 1084.867)" fill="#fff"/><path d="M248.794,311.853a.35.35,0,0,1,.35-.325.325.325,0,0,1,.35.311.362.362,0,0,1-.724,0Zm.07.6h.584v2.011h-.6Z" transform="translate(179.659 1086.569)" fill="#fff"/><path d="M254.316,315.008v1.151h-.58V315.11c0-.329-.15-.476-.409-.476a.479.479,0,0,0-.483.542v.993h-.584v-2.011h.556v.234a.888.888,0,0,1,.668-.266.787.787,0,0,1,.832.881Z" transform="translate(177.39 1084.879)" fill="#fff"/><rect width="51.65" height="11.173" rx="3" transform="translate(399.485 1356.83)" fill="#ebebeb"/><path d="M215.043,204.524h.077a1.089,1.089,0,0,0,.234-.021,2.364,2.364,0,0,0,.86-.29,2.448,2.448,0,0,0,1-1.049,2.388,2.388,0,0,0,.238-.906c0-.35,0-.7,0-1.084,0-1.535,0-3.42-.028-5.6a2.427,2.427,0,0,0-.7-1.465,2.388,2.388,0,0,0-1.577-.7h-3.917l-42.943.028a2.371,2.371,0,0,0-2.259,1.668,5.534,5.534,0,0,0-.1,1.511v5.329a2.479,2.479,0,0,0,.08.72,2.35,2.35,0,0,0,.748,1.2,2.378,2.378,0,0,0,1.283.556c.472.024.972,0,1.455,0h8.459l19.3.017,13.012.031h0l-13.012.028-19.3.021h-9.924a2.532,2.532,0,0,1-2.186-1.8,2.724,2.724,0,0,1-.084-.766v-6.1a2.9,2.9,0,0,1,.112-.79,2.556,2.556,0,0,1,2.448-1.8l42.932.024h3.92a2.5,2.5,0,0,1,2.381,2.249c.021,2.193,0,4.063,0,5.6v1.088a2.465,2.465,0,0,1-.252.927,2.427,2.427,0,0,1-1.032,1.07,2.3,2.3,0,0,1-.878.276A2.1,2.1,0,0,1,215.043,204.524Z" transform="translate(233.644 1163.479)" fill="#263238"/><rect width="51.65" height="11.173" rx="3" transform="translate(399.485 1376.993)" fill="#ebebeb"/><path d="M215.043,262.184h.077a2.047,2.047,0,0,0,.234-.024,2.413,2.413,0,0,0,.86-.287,2.473,2.473,0,0,0,1-1.049,2.388,2.388,0,0,0,.238-.906c0-.35,0-.7,0-1.088,0-1.532,0-3.42-.028-5.6a2.406,2.406,0,0,0-.7-1.462,2.374,2.374,0,0,0-1.577-.682h-3.917l-42.943.01a2.374,2.374,0,0,0-2.259,1.672,5.5,5.5,0,0,0-.1,1.507v5.329a2.449,2.449,0,0,0,.08.72,2.35,2.35,0,0,0,.748,1.2,2.378,2.378,0,0,0,1.283.556c.472.028.972,0,1.455,0h8.459l19.3.021,13.012.028,3.539.017h0l-3.539.017-13.012.031-19.3.017H169.5c-.49,0-.965.017-1.472,0a2.532,2.532,0,0,1-2.186-1.825,2.71,2.71,0,0,1-.084-.766v-6.113a2.921,2.921,0,0,1,.112-.794,2.556,2.556,0,0,1,2.448-1.8l42.932.024,3.9,0a2.483,2.483,0,0,1,1.651.72,2.514,2.514,0,0,1,.731,1.528c.021,2.193,0,4.063,0,5.6v1.091a2.479,2.479,0,0,1-1.283,2,2.345,2.345,0,0,1-.878.273A2.1,2.1,0,0,1,215.043,262.184Z" transform="translate(233.644 1125.982)" fill="#263238"/><path d="M215.468,379.675a2.112,2.112,0,0,0,.315-.035,2.025,2.025,0,0,0,.839-.35,1.986,1.986,0,0,0,.794-1.22,4.9,4.9,0,0,0,.038-.951c0-.35,0-.7,0-1.1,0-1.549,0-3.441-.017-5.637a1.969,1.969,0,0,0-.7-1.451,1.913,1.913,0,0,0-.769-.392,3.306,3.306,0,0,0-.9-.063h-3.952l-43.254.024a1.941,1.941,0,0,0-1.357.56,1.906,1.906,0,0,0-.57,1.346v6.927a3.339,3.339,0,0,0,.045.731,1.92,1.92,0,0,0,.776,1.164,1.952,1.952,0,0,0,.643.294,2.839,2.839,0,0,0,.717.06h10l19.447.021,13.11.028,3.563.017h0l-3.563.017-13.121.073-19.447.021h-10a2.819,2.819,0,0,1-.759-.063,2.028,2.028,0,0,1-.7-.318,2.1,2.1,0,0,1-.85-1.273,3.4,3.4,0,0,1-.049-.769v-6.931a2.1,2.1,0,0,1,2.1-2.1l43.254.028h3.952a3.308,3.308,0,0,1,.927.07,2.039,2.039,0,0,1,.811.416,2.1,2.1,0,0,1,.734,1.532v6.739a5.045,5.045,0,0,1-.045.962,2.046,2.046,0,0,1-.829,1.241,2.018,2.018,0,0,1-.857.35,1.561,1.561,0,0,1-.329.028Z" transform="translate(233.649 1049.643)" fill="#e0e0e0"/><path d="M229.289,384.541c0,.049-5.228.091-11.676.091s-11.673-.042-11.673-.091,5.224-.091,11.673-.091S229.289,384.492,229.289,384.541Z" transform="translate(207.512 1039.147)" fill="#e0e0e0"/><circle cx="4.378" cy="4.378" r="4.378" transform="translate(421.061 1324.529) rotate(-45)" fill="#f5f5f5"/><path d="M242.978,106.026a2.8,2.8,0,0,0-2.829-2.486,2.875,2.875,0,0,0-2.829,2.5,3.878,3.878,0,0,0,2.829,1.049A4.011,4.011,0,0,0,242.978,106.026Z" transform="translate(187.105 1221.825)" fill="#e0e0e0"/><circle cx="1.717" cy="1.717" r="1.717" transform="translate(425.537 1322.23)" fill="#e0e0e0"/><path d="M243.042,99.951a3.458,3.458,0,0,0-.266-.808,2.72,2.72,0,0,0-.619-.762,3.4,3.4,0,0,0-1.119-.626l-.087-.031.08-.042a1.706,1.706,0,0,0,.682-.7,1.675,1.675,0,0,0-.35-2.039,1.658,1.658,0,0,0-2.224,0,1.626,1.626,0,0,0-.539.993,1.654,1.654,0,0,0,.175,1.049,1.615,1.615,0,0,0,.3.4,1.977,1.977,0,0,0,.378.29l.077.049-.087.024a2.623,2.623,0,0,0-1.119.619,2.773,2.773,0,0,0-.584.79,3.035,3.035,0,0,0-.231.591,1.606,1.606,0,0,0-.042.161.245.245,0,0,1-.017.056s0-.021,0-.059a.376.376,0,0,1,.031-.164,3.116,3.116,0,0,1,.213-.6,2.867,2.867,0,0,1,.584-.818,2.64,2.64,0,0,1,1.14-.647v.07a2.183,2.183,0,0,1-.4-.294,1.9,1.9,0,0,1-.318-.42,1.773,1.773,0,0,1-.192-1.1,1.749,1.749,0,0,1,.566-1.049,1.783,1.783,0,0,1,1.178-.451,1.748,1.748,0,0,1,1.542,2.609,1.787,1.787,0,0,1-.724.7v-.073a3.466,3.466,0,0,1,1.14.654,2.7,2.7,0,0,1,.615.79,2.1,2.1,0,0,1,.136.35,1.215,1.215,0,0,1,.063.262l.024.168C243.045,99.934,243.045,99.951,243.042,99.951Z" transform="translate(187.021 1227.749)" fill="#263238"/><path d="M241.484,92.935a.192.192,0,0,1,0-.07V92.5a1.328,1.328,0,0,0-.028-.185,3.077,3.077,0,0,0-.094-.451,4.225,4.225,0,0,0-.486-1.158,4.34,4.34,0,0,0-1.109-1.231,4.29,4.29,0,0,0-1.864-.794,4.361,4.361,0,0,0-2.28.189,4.752,4.752,0,0,0-.566.252,4.5,4.5,0,0,0-.528.35,4.669,4.669,0,0,0-.493.42,4.613,4.613,0,0,0-1.049,1.7,4.328,4.328,0,0,0,.619,3.931,4.872,4.872,0,0,0,.427.5,5.009,5.009,0,0,0,.49.42,5.479,5.479,0,0,0,.532.35,4.725,4.725,0,0,0,.566.248,4.339,4.339,0,0,0,5.217-1.85,4.224,4.224,0,0,0,.486-1.157,3.081,3.081,0,0,0,.094-.451,1.326,1.326,0,0,1,.028-.182,1.128,1.128,0,0,0,0-.154v-.21a.191.191,0,0,1,0-.07V93.4a.512.512,0,0,1-.024.185,2.892,2.892,0,0,1-.084.455,4.07,4.07,0,0,1-.479,1.178,4.281,4.281,0,0,1-1.112,1.259,4.382,4.382,0,0,1-1.857.836,4.462,4.462,0,0,1-2.325-.189,4.651,4.651,0,0,1-.577-.252,4.764,4.764,0,0,1-.546-.35,5.754,5.754,0,0,1-.5-.427,5.134,5.134,0,0,1-.437-.514,4.417,4.417,0,0,1,0-5.238,5.092,5.092,0,0,1,.437-.511,4.452,4.452,0,0,1,.532-.448,4.082,4.082,0,0,1,.542-.35,4.653,4.653,0,0,1,.577-.252A4.407,4.407,0,0,1,240.9,90.69a4.071,4.071,0,0,1,.479,1.178,2.888,2.888,0,0,1,.084.455c0,.066.021.129.025.185s0,.108,0,.154v.28Z" transform="translate(190.149 1231.593)" fill="#263238"/><path d="M220.6,153.051c0,.052-12.3.091-27.465.091s-27.469-.038-27.469-.091,12.3-.091,27.469-.091S220.6,153,220.6,153.051Z" transform="translate(233.699 1189.686)" fill="#e0e0e0"/><path d="M220.6,350.681c0,.049-12.3.091-27.465.091s-27.469-.042-27.469-.091,12.3-.091,27.469-.091S220.6,350.632,220.6,350.681Z" transform="translate(233.699 1061.166)" fill="#e0e0e0"/><path d="M177.846,264.4l.78.441-.2.35-.8-.469v.9h-.4v-.9l-.794.469-.206-.35.79-.441-.79-.434.206-.35.794.465v-.888h.4v.888l.8-.465.2.35Z" transform="translate(226.832 1118.003)" fill="#fff"/><path d="M185.752,264.4l.787.441-.206.35-.794-.469v.9h-.4v-.9l-.8.469-.2-.35.787-.441-.787-.434.2-.35.8.465v-.888h.4v.888l.794-.465.206.35Z" transform="translate(221.688 1118.003)" fill="#fff"/><path d="M193.633,264.422l.783.441-.2.35-.808-.455v.9h-.4v-.9l-.8.469-.2-.35.79-.441-.79-.434.2-.35.8.465v-.888h.4v.888l.8-.465.2.35Z" transform="translate(216.57 1117.977)" fill="#fff"/><path d="M201.552,264.4l.783.441-.2.35-.8-.469v.9h-.4v-.9l-.794.469-.206-.35.79-.441-.769-.434.206-.35.794.465v-.888h.4v.888l.8-.465.2.35Z" transform="translate(211.414 1118.003)" fill="#fff"/><path d="M178.64,208.221v.888h-.21v-.881a.437.437,0,0,0-.469-.5.511.511,0,0,0-.542.563v.815h-.21v-1.539h.2v.287a.654.654,0,0,1,.591-.3.6.6,0,0,1,.64.664Z" transform="translate(226.195 1154.183)" fill="#fff"/><path d="M183.864,208.128v.948h-.2v-.241a.581.581,0,0,1-.535.259c-.35,0-.567-.185-.567-.455s.154-.441.6-.441h.5V208.1c0-.266-.15-.409-.441-.409a.787.787,0,0,0-.518.182l-.094-.157a.979.979,0,0,1,.633-.21.553.553,0,0,1,.629.619Zm-.21.5v-.248h-.49c-.3,0-.4.119-.4.276s.143.294.392.294a.5.5,0,0,0,.5-.322Z" transform="translate(222.716 1154.217)" fill="#fff"/><path d="M190.487,208.221v.888h-.21v-.881c0-.325-.168-.5-.448-.5a.5.5,0,0,0-.521.563v.815h-.21v-.881c0-.325-.164-.5-.448-.5a.5.5,0,0,0-.521.563v.815h-.21V207.57h.2v.283a.636.636,0,0,1,.57-.3.566.566,0,0,1,.556.329.678.678,0,0,1,.612-.329.587.587,0,0,1,.629.664Z" transform="translate(219.23 1154.183)" fill="#fff"/><path d="M198,208.407h-1.3a.57.57,0,0,0,.612.539.612.612,0,0,0,.476-.2l.119.136a.822.822,0,0,1-1.4-.539.757.757,0,1,1,1.511,0Zm-1.3-.157h1.1a.553.553,0,0,0-1.1,0Z" transform="translate(213.646 1154.186)" fill="#fff"/><path d="M204.437,207.395c0,.5-.185.8-.49.8a.315.315,0,0,1-.332-.325.657.657,0,0,1-.591.325.766.766,0,0,1,0-1.528.661.661,0,0,1,.584.311v-.3h.192v1.133c0,.164.084.224.182.224.185,0,.3-.227.3-.626a1.126,1.126,0,0,0-1.217-1.154,1.189,1.189,0,1,0,0,2.374,1.326,1.326,0,0,0,.566-.129l.049.143a1.4,1.4,0,0,1-.615.136,1.339,1.339,0,0,1,0-2.679,1.28,1.28,0,0,1,1.367,1.29Zm-.825.035a.563.563,0,1,0-.563.591.553.553,0,0,0,.563-.591Z" transform="translate(210.249 1155.128)" fill="#fff"/><path d="M213.307,208.221v.888h-.21v-.881c0-.325-.164-.5-.448-.5a.5.5,0,0,0-.518.563v.815h-.21v-.881c0-.325-.168-.5-.451-.5a.5.5,0,0,0-.521.563v.815h-.21v-1.539h.2v.283a.633.633,0,0,1,.57-.3.56.56,0,0,1,.553.329.7.7,0,0,1,.615-.329.587.587,0,0,1,.626.664Z" transform="translate(204.39 1154.182)" fill="#fff"/><path d="M220.644,208.128v.948h-.2v-.241a.581.581,0,0,1-.535.259c-.35,0-.567-.185-.567-.455s.154-.441.6-.441h.493V208.1c0-.266-.15-.409-.441-.409a.787.787,0,0,0-.518.182l-.094-.157a.993.993,0,0,1,.633-.21.552.552,0,0,1,.629.619Zm-.21.5v-.248h-.49c-.3,0-.4.119-.4.276s.147.294.4.294A.5.5,0,0,0,220.435,208.624Z" transform="translate(198.798 1154.217)" fill="#fff"/><path d="M224.57,205.914a.15.15,0,1,1,.045.108A.15.15,0,0,1,224.57,205.914Zm.045.493h.21v1.539h-.21Z" transform="translate(195.397 1155.347)" fill="#fff"/><path d="M227,205.77h.21v2.179H227Z" transform="translate(193.816 1155.343)" fill="#fff"/><path d="M228.86,211.321a.157.157,0,0,1,.157-.161.161.161,0,0,1,.157.161.164.164,0,0,1-.157.164A.161.161,0,0,1,228.86,211.321Z" transform="translate(192.607 1151.838)" fill="#fff"/><path d="M230.469,208.349a.766.766,0,0,1,.8-.79.7.7,0,0,1,.608.308l-.157.108a.525.525,0,0,0-.451-.231.6.6,0,0,0,0,1.21.521.521,0,0,0,.451-.227l.157.108a.7.7,0,0,1-.608.308.769.769,0,0,1-.8-.794Z" transform="translate(191.561 1154.181)" fill="#fff"/><path d="M235.149,208.357a.79.79,0,1,1,.79.794.766.766,0,0,1-.79-.794Zm1.367,0a.577.577,0,1,0-.577.6.566.566,0,0,0,.577-.6Z" transform="translate(188.517 1154.173)" fill="#fff"/><path d="M243.467,208.221v.888h-.21v-.881c0-.325-.168-.5-.448-.5a.5.5,0,0,0-.521.563v.815h-.21v-.881c0-.325-.164-.5-.448-.5a.5.5,0,0,0-.521.563v.815h-.21V207.57h.2v.283a.636.636,0,0,1,.57-.3.566.566,0,0,1,.556.329.678.678,0,0,1,.612-.329.587.587,0,0,1,.629.664Z" transform="translate(184.777 1154.183)" fill="#fff"/><path d="M168.512,71.925a.157.157,0,0,1-.112-.045l-1.644-1.441a.171.171,0,0,1,0-.262l1.644-1.364a.168.168,0,0,1,.241.021.171.171,0,0,1-.021.245l-1.469,1.234,1.49,1.308a.171.171,0,0,1,.017.245A.182.182,0,0,1,168.512,71.925Z" transform="translate(233.033 1244.434)" fill="#263238"/><path d="M305.015,71.648a.878.878,0,1,1-.878-.878A.878.878,0,0,1,305.015,71.648Z" transform="translate(144.224 1243.134)" fill="#263238"/><path d="M312.255,71.648a.878.878,0,1,1-.258-.622A.878.878,0,0,1,312.255,71.648Z" transform="translate(139.516 1243.134)" fill="#263238"/><path d="M319.5,71.648a.878.878,0,1,1-.874-.878A.878.878,0,0,1,319.5,71.648Z" transform="translate(134.808 1243.134)" fill="#263238"/><g transform="translate(472.196 1346.685)"><path d="M398.407,164.81H377.471a3.3,3.3,0,0,0-3.3,3.3v5.21a3.3,3.3,0,0,0,3.3,3.3h.217V179.6l3.354-2.976h17.366a3.3,3.3,0,0,0,3.3-3.3v-5.21A3.3,3.3,0,0,0,398.407,164.81Z" transform="translate(-374.085 -164.705)" fill="#fff"/><path d="M398.248,164.615h.182a3.018,3.018,0,0,1,.483.045c.1.021.224.052.35.084a3.547,3.547,0,0,1,.406.157,3.252,3.252,0,0,1,.9.608,3.392,3.392,0,0,1,.78,1.119,3.8,3.8,0,0,1,.262,1.6v5.106a3.371,3.371,0,0,1-2.1,2.916,3.545,3.545,0,0,1-1.329.248h-17.3l.059-.024-3.35,2.979-.154.133V176.41l.091.091a3.553,3.553,0,0,1-1.878-.437,3.458,3.458,0,0,1-1.332-1.36,3.711,3.711,0,0,1-.325-.9,4.465,4.465,0,0,1-.073-.934v-4.487c0-.29,0-.58.024-.878a3.4,3.4,0,0,1,1.951-2.686,3.557,3.557,0,0,1,1.623-.311h10.033l7.83.028h0l-7.83.031H377.522a3.347,3.347,0,0,0-1.553.3,3.221,3.221,0,0,0-1.85,2.553,7.8,7.8,0,0,0-.021.86v4.487a4.274,4.274,0,0,0,.07.9,3.576,3.576,0,0,0,.311.846,3.259,3.259,0,0,0,1.262,1.287,3.378,3.378,0,0,0,1.787.413h.091v3.07l-.154-.066,3.354-2.976.025-.024h15.95a7.263,7.263,0,0,0,2.658-.231,3.231,3.231,0,0,0,2.021-2.8c.021-.378,0-.762,0-1.13v-3.969a3.766,3.766,0,0,0-.241-1.574,3.329,3.329,0,0,0-.752-1.1,3.189,3.189,0,0,0-.878-.608,3.769,3.769,0,0,0-.4-.161l-.35-.091q-.306.015-.608.059Z" transform="translate(-373.926 -164.51)" fill="#263238"/><path d="M388.543,178.613l.671.35-.381.629-.7-.413.021.755h-.748l.018-.755-.7.413-.374-.629.668-.35-.668-.367.374-.633.7.423-.018-.766h.748l-.021.766.7-.423.381.633Z" transform="translate(-382.005 -172.808)" fill="#e0e0e0"/><path d="M397.41,178.613l.671.35-.381.629-.7-.413.021.755h-.748v-.755l-.7.413-.374-.629.668-.35-.668-.367.374-.633.7.423v-.766h.748l-.021.766.7-.423.381.633Z" transform="translate(-387.76 -172.808)" fill="#e0e0e0"/><path d="M406.336,178.613l.671.35-.381.629-.7-.413.017.755H405.2l.017-.755-.7.413-.374-.629.668-.35-.668-.367.374-.633.7.423-.017-.766h.748l-.017.766.7-.423.381.633Z" transform="translate(-393.574 -172.808)" fill="#e0e0e0"/><path d="M415.236,178.613l.671.35-.381.629-.7-.413.018.755H414.1l.018-.755-.7.413-.374-.629.671-.35-.671-.367.374-.633.7.423-.018-.766h.748l-.018.766.7-.423.381.633Z" transform="translate(-399.362 -172.808)" fill="#e0e0e0"/><path d="M424.162,178.613l.671.35-.381.629-.7-.413.017.755h-.734l.018-.755-.7.413-.374-.629.671-.35-.664-.367.374-.633.7.423-.017-.766h.748l-.017.766.7-.423.381.633Z" transform="translate(-405.176 -172.808)" fill="#e0e0e0"/><path d="M433.095,178.671l.671.35-.364.661-.7-.413v.755h-.748l.018-.755-.668.413-.374-.629.671-.35-.671-.367.374-.633.7.423-.018-.766h.717v.766l.7-.423.381.633Z" transform="translate(-410.996 -172.866)" fill="#e0e0e0"/></g><path d="M355.884,385.474s25.077-13.065,30.514-5.857-5.459,12.869-7.564,14.142-23.405,8.508-23.405,8.508l-5.62-6Z" transform="translate(113.952 1043.7)" fill="#0e5294"/><path d="M389.913,420.39l10,5.382,9.138,1.979a1.168,1.168,0,0,1,.871,1.462h0a1.147,1.147,0,0,1-.731.773c-2.27.79-10.624,3.654-11.334,3.221-.822-.5-10.924-4.98-10.924-4.98Z" transform="translate(89.813 1015.775)" fill="#3186c5"/><g transform="translate(486.986 1444.974)" opacity="0.6"><path d="M428.966,445.594l-12.746,3.63.427.22a1.748,1.748,0,0,0,1.2.143c1.081-.255,4.053-1.049,10.368-3.2a1.161,1.161,0,0,0,.748-.8Z" transform="translate(-416.22 -445.58)" fill="#fff"/></g><g transform="translate(484.436 1444.817)" opacity="0.6"><path d="M409.272,445.208a.7.7,0,0,1,.906.245.678.678,0,0,1-.234.9.745.745,0,0,1-.958-.266.7.7,0,0,1,.35-.909" transform="translate(-408.929 -445.132)" fill="#fff"/></g><path d="M435.547,441a3.89,3.89,0,0,1-.35-1.287,3.61,3.61,0,0,1,.371-1.28c-.056-.045-.164.066-.318.287a1.825,1.825,0,0,0-.3.99,1.8,1.8,0,0,0,.273,1C435.383,440.928,435.526,441.019,435.547,441Z" transform="translate(58.586 1004.049)" fill="#263238"/><path d="M441.109,441.668a10.2,10.2,0,0,1,.021-1.116c.115-.6.434-1,.378-1.049s-.5.322-.622,1.007A1.3,1.3,0,0,0,441.109,441.668Z" transform="translate(54.745 1003.348)" fill="#263238"/><path d="M429.094,440.764a11.019,11.019,0,0,1-.084-1.728,14.749,14.749,0,0,1,.416-1.679,2.488,2.488,0,0,0-.664,1.654A2.647,2.647,0,0,0,429.094,440.764Z" transform="translate(62.62 1004.742)" fill="#263238"/><path d="M420.571,438.143c.073,0,.122-.671.469-1.4s.811-1.227.762-1.283a2.168,2.168,0,0,0-.99,1.178A2.237,2.237,0,0,0,420.571,438.143Z" transform="translate(67.967 1005.977)" fill="#263238"/><path d="M411.994,433.859a5.655,5.655,0,0,1,.451-1.486,6.562,6.562,0,0,1,1.018-1.172c-.031-.063-.2.021-.448.185a2.468,2.468,0,0,0-.79.864,2.51,2.51,0,0,0-.315,1.13C411.906,433.68,411.962,433.862,411.994,433.859Z" transform="translate(73.569 1008.758)" fill="#263238"/><path d="M407.1,429.574a1.348,1.348,0,0,0-.374-.21,2.98,2.98,0,0,0-1.158-.206,1.332,1.332,0,0,0-.822.217.479.479,0,0,0-.147.518.773.773,0,0,0,.378.4,1.644,1.644,0,0,0,2.007-.594,1.9,1.9,0,0,0-.038-2.123.657.657,0,0,0-.476-.28.462.462,0,0,0-.434.318,1.623,1.623,0,0,0,0,.843,3.3,3.3,0,0,0,.434,1.091,1.433,1.433,0,0,0,.273.35,5.245,5.245,0,0,1-.531-1.458,1.493,1.493,0,0,1,0-.734.241.241,0,0,1,.234-.175.448.448,0,0,1,.3.2,1.7,1.7,0,0,1,0,1.839,1.427,1.427,0,0,1-1.7.528.563.563,0,0,1-.276-.262.255.255,0,0,1,.077-.287,1.2,1.2,0,0,1,.7-.2,4.395,4.395,0,0,1,1.546.227Z" transform="translate(78.341 1011.288)" fill="#263238"/><path d="M328.212,390.449s-23.629-14.317-26.822-16.086c-2.745-1.528-11.418-4.9-14.474,3.41s13.4,20.576,13.4,20.576l13.967.626,4.661-1.78,5.294,1.63Z" transform="translate(155.099 1046.996)" fill="#0e5294"/><path d="M321.192,435.613,310.6,439.722l-7.442,5.655a1.164,1.164,0,0,1-1.679-.287h0a1.161,1.161,0,0,1-.112-1.049c.874-2.235,4.133-10.445,4.924-10.7.916-.3,10.886-5.06,10.886-5.06Z" transform="translate(145.505 1010.644)" fill="#3186c5"/><g transform="translate(446.777 1443.663)" opacity="0.6"><path d="M301.445,453.884l5.522-12.054-.444.182a1.748,1.748,0,0,0-.892.818c-.507.99-1.85,3.756-4.312,9.963a1.168,1.168,0,0,0,.126,1.091Z" transform="translate(-301.238 -441.83)" fill="#fff"/></g><g transform="translate(455.463 1443.624)" opacity="0.6"><path d="M327.394,442.517a.7.7,0,0,1-.776.528.675.675,0,0,1-.532-.762.745.745,0,0,1,.825-.556.7.7,0,0,1,.465.857" transform="translate(-326.078 -441.719)" fill="#fff"/></g><path d="M312.11,463.906a3.525,3.525,0,0,1,1.2.584,4.223,4.223,0,0,1,.731,1.112c.07-.014.056-.168,0-.427a1.85,1.85,0,0,0-1.49-1.311C312.271,463.836,312.11,463.885,312.11,463.906Z" transform="translate(138.469 987.509)" fill="#263238"/><path d="M309,467.789c-.025.07.455.266.832.745s.486.979.556.969a1.279,1.279,0,0,0-.35-1.126C309.607,467.837,309,467.722,309,467.789Z" transform="translate(140.493 984.963)" fill="#263238"/><path d="M315.619,457.9a13.416,13.416,0,0,1,1.367,1.049,12.164,12.164,0,0,1,1,1.4,2.468,2.468,0,0,0-.825-1.581A2.545,2.545,0,0,0,315.619,457.9Z" transform="translate(136.188 991.39)" fill="#263238"/><path d="M324.523,453.581c-.052.052.43.532.769,1.276s.406,1.416.479,1.4a2.84,2.84,0,0,0-1.248-2.675Z" transform="translate(130.399 994.194)" fill="#263238"/><path d="M333.325,449.919a5.486,5.486,0,0,1,.839,1.308,6.615,6.615,0,0,1,.224,1.535c.073.014.112-.161.154-.462a2.447,2.447,0,0,0-.147-1.161,2.5,2.5,0,0,0-.65-.976C333.518,449.965,333.343,449.891,333.325,449.919Z" transform="translate(124.674 996.575)" fill="#263238"/><path d="M337.237,448.932a.944.944,0,0,0,.4-.15,2.956,2.956,0,0,0,.909-.745,1.308,1.308,0,0,0,.367-.766.461.461,0,0,0-.3-.448.759.759,0,0,0-.542.031,1.647,1.647,0,0,0-.857,1.913,1.909,1.909,0,0,0,1.64,1.35.661.661,0,0,0,.521-.182.462.462,0,0,0,.038-.535,1.584,1.584,0,0,0-.643-.542,3.392,3.392,0,0,0-1.112-.381,1.05,1.05,0,0,0-.43,0,5.356,5.356,0,0,1,1.455.542,1.511,1.511,0,0,1,.549.49.238.238,0,0,1-.021.29.451.451,0,0,1-.35.1,1.706,1.706,0,0,1-1.4-1.189,1.43,1.43,0,0,1,.7-1.633.538.538,0,0,1,.378-.038.252.252,0,0,1,.168.245,1.193,1.193,0,0,1-.3.654,4.392,4.392,0,0,1-1.178.993Z" transform="translate(122.178 998.608)" fill="#263238"/><path d="M332.384,436.514c.3-.154,12.26-5.025,12.26-5.025l-11.89-5.889-7.155,3.71Z" transform="translate(129.696 1012.387)" fill="#0e5294"/><path d="M302.75,399.389l.164.049.472.157,1.808.626,6.644,2.332,21.908,7.732,1.049.325-.108.049,3.99-8.347.035.108-13.781-8.428-3.966-2.448-1.049-.657-.269-.175c-.059-.038-.091-.059-.087-.063l.094.052.28.161L321,391.5l3.994,2.4,13.813,8.372.066.042-.031.07-3.98,8.358-.035.07-.073-.024-1.049-.325c-.549-.157-1.074-.35-1.6-.542l-1.574-.56-3.088-1.1-5.808-2.074-9.837-3.5L305.17,400.3l-1.8-.657-.465-.175a1.374,1.374,0,0,1-.157-.077Z" transform="translate(144.556 1035.115)" fill="#455a64"/><path d="M332.072,438.667a4.946,4.946,0,0,1-.444-.423l-1.161-1.2c-.976-1.018-2.315-2.448-3.787-4l-1.479-1.584-.08-.087.1-.052,3.63-1.748,1.049-.5a2.8,2.8,0,0,1,.388-.161,1.964,1.964,0,0,1-.35.213l-1.018.518-3.6,1.818.024-.14,1.486,1.581c1.472,1.57,2.8,3,3.749,4.042l1.119,1.238a3.336,3.336,0,0,1,.371.486Z" transform="translate(130.008 1010.234)" fill="#455a64"/><path d="M389.418,390.487c.021.045-2.923,1.325-6.574,2.854s-6.623,2.735-6.644,2.689,2.923-1.325,6.574-2.857S389.418,390.438,389.418,390.487Z" transform="translate(96.791 1035.222)" fill="#455a64"/><path d="M332.294,287.449c-.248,0-8.875-.08-10.617,1.661s-5.357,28.413-5.357,28.413a14.831,14.831,0,0,1,4.2,1.6l14.663,8.55,6.347-3.3a1.595,1.595,0,0,0,.448-2.423h0l8.445-30.525a15.59,15.59,0,0,0-4.112-2.238C343.834,288.281,332.294,287.449,332.294,287.449Z" transform="translate(135.731 1102.228)" fill="#3a9ee8"/><path d="M400.917,295.55s2.595.574,3.588,2.175c2.329,3.752,9.484,17.079,10.687,20.282,1.273,3.382-.094,5.3-1.014,6.732-.99,1.535-6.427,1.532-8.893-1.1-1.049-1.133-6.945-6.473-6.945-6.473Z" transform="translate(82.393 1096.959)" fill="#3a9ee8"/><path d="M398.491,309.7a1.775,1.775,0,0,1-.1.262l-.318.741c-.262.647-.629,1.588-1.049,2.763-.846,2.353-1.881,5.644-2.979,9.295s-2.053,6.955-2.763,9.368c-.35,1.2-.65,2.168-.864,2.833l-.252.766a1.488,1.488,0,0,1-.1.262,1.8,1.8,0,0,1,.063-.273q.084-.29.22-.776c.2-.7.469-1.658.808-2.847.678-2.406,1.616-5.728,2.71-9.386s2.154-6.941,3.032-9.284c.437-1.175.825-2.1,1.109-2.749l.35-.727A1.4,1.4,0,0,1,398.491,309.7Z" transform="translate(87.771 1087.757)" fill="#263238"/><path d="M302.221,291.011a30.983,30.983,0,0,0-3.721,2.448c-1,.9-11.292,15.589-12.61,20.167-.766,2.651,2.154,8.134,5.3,7.868,4.116-.35,19.558-6.27,19.558-6.27l-3.465-7.543-8.742,1.4,6.347-6.378-2.367-11.862" transform="translate(155.6 1100.022)" fill="#3a9ee8"/><path d="M413.5,343.369a.814.814,0,0,1-.154-.094l-.427-.294-1.549-1.105c-1.3-.944-3.091-2.263-5.064-3.728l-1.318-.983.122-.017c-1.255,1.64-2.374,3.07-3.189,4.081a12.1,12.1,0,0,1-1.36,1.57l1.269-1.644,3.147-4.116.052-.07.07.052,1.322.979c1.972,1.465,3.749,2.8,5.032,3.773l1.5,1.151.406.322A.831.831,0,0,1,413.5,343.369Z" transform="translate(80.949 1070.023)" fill="#263238"/><path d="M354.794,331.37l-6.924,3.1,2.763,6,4.329-2.857Z" transform="translate(115.214 1073.665)" fill="#ffb9b9"/><path d="M375.663,326.918l4.633-3.147a.853.853,0,0,1,.556-.147l6.057.518a.465.465,0,0,1,.427.476.825.825,0,0,1-.255.643l-9.837,6.844L369.9,330.94Z" transform="translate(100.888 1078.704)" fill="#e0e0e0"/><path d="M367.67,327.565a19.271,19.271,0,0,1,3.088-1.955c.588-.1,3.228-.091,3.228-.091l2.224,1.269-1.378.934a2.105,2.105,0,0,1-1.227-.58l-1.539.1Z" transform="translate(102.338 1077.47)" fill="#ffb9b9"/><path d="M370.469,329.07l3.948,1.374,5.679.8a1.241,1.241,0,0,1-1.133,1.276c-.7.073-1.881.154-1.881.154a1.912,1.912,0,0,1-1.175,1.276,2.9,2.9,0,0,1-.853,1.011.7.7,0,0,1-.175.077c-.546.157-1.633,1.637-2.36,1.836s-4.7-.738-4.7-.738l-.168-6.246Z" transform="translate(102.351 1075.161)" fill="#ffb9b9"/><path d="M379,338.286c0-.017.315.066.815.168a15.091,15.091,0,0,0,1.99.259,14.45,14.45,0,0,0,2,0c.514-.035.829-.08.832-.063a1.051,1.051,0,0,1-.22.052c-.14.028-.35.059-.6.087a11.85,11.85,0,0,1-2.014.035,11.717,11.717,0,0,1-2-.294c-.252-.059-.455-.115-.591-.161A1.016,1.016,0,0,1,379,338.286Z" transform="translate(94.97 1069.169)" fill="#8e4842"/><path d="M377.513,342.92a.888.888,0,0,1-.038.392.829.829,0,0,1-.213.381.7.7,0,0,1-.514.171,1.343,1.343,0,0,1-.511-.147c-.143-.073-.262-.15-.367-.206-.2-.122-.35-.168-.35-.185a.814.814,0,0,1,.371.115,2.346,2.346,0,0,0,.85.315.6.6,0,0,0,.441-.136.772.772,0,0,0,.206-.332A3.351,3.351,0,0,1,377.513,342.92Z" transform="translate(97.233 1066.154)" fill="#8e4842"/><path d="M383.99,343.993a1.72,1.72,0,0,1-.434.112,9.823,9.823,0,0,1-1.049.129,9.5,9.5,0,0,1-1.074,0,1.748,1.748,0,0,1-.444-.049c0-.035.678,0,1.511-.073S383.983,343.972,383.99,343.993Z" transform="translate(93.676 1065.459)" fill="#8e4842"/><path d="M378.477,348.714a1.4,1.4,0,0,1-1.357.213c0-.035.315.024.7-.035S378.477,348.686,378.477,348.714Z" transform="translate(96.193 1062.389)" fill="#8e4842"/><path d="M383.464,348.479a1.01,1.01,0,0,1-.423.112.954.954,0,0,1-.441,0,.941.941,0,0,1,.427-.112C383.264,348.451,383.46,348.447,383.464,348.479Z" transform="translate(92.629 1062.554)" fill="#8e4842"/><path d="M380.243,330.373a10.739,10.739,0,0,1-1.85-.619c-.5-.2-.955-.381-1.276-.528a2.278,2.278,0,0,1-.507-.266,4.1,4.1,0,0,1,.535.2l1.287.5,1.283.5A1.8,1.8,0,0,1,380.243,330.373Z" transform="translate(96.524 1075.232)" fill="#8e4842"/><path d="M394.33,334.933s-.437-.15.035-.839,1.794.147,1.794.147l1.689,1s.378.878-.091,1.112l-.35.427s.661.668.4,1.252a.909.909,0,0,1-.92.5,3.034,3.034,0,0,1-.308,1.637,1.29,1.29,0,0,1-.734.5,2.1,2.1,0,0,1-1.458,1.269c-1.133.29-1.727.311-2.035-.168a5.214,5.214,0,0,1-.5-1.081s-2.43-1.276-2.483-1.923.059-.7.059-.7a1.213,1.213,0,0,1,.049-.934c.245-.4,1.21-.049,1.21-.049l3.1.727a17.544,17.544,0,0,1-2.777-1.546c-.294-.381.021-.85,1.018-.731s4.008.682,4.008.682a.923.923,0,0,0-.35-.385c-.2-.084-.822-.444-.822-.444Z" transform="translate(88.239 1072.071)" fill="#ffb9b9"/><path d="M395.337,347.606c0,.028-1.266-.294-2.8-.717s-2.8-.794-2.78-.822,1.266.294,2.8.717S395.344,347.578,395.337,347.606Z" transform="translate(87.973 1064.108)" fill="#8e4842"/><path d="M398.229,354.128a3.574,3.574,0,0,1-.906-.231,6.373,6.373,0,0,1-.619-.238,1.156,1.156,0,0,1-.182-.1.237.237,0,0,1-.042-.038V353.5c0,.007.385.133.871.294A4.81,4.81,0,0,1,398.229,354.128Z" transform="translate(83.603 1059.276)" fill="#8e4842"/><path d="M404.027,345.73c0,.028-.612-.094-1.36-.217a13.685,13.685,0,0,1-1.357-.234,6.382,6.382,0,0,1,1.374.129A6.161,6.161,0,0,1,404.027,345.73Z" transform="translate(80.462 1064.621)" fill="#8e4842"/><path d="M408.928,341.12c-.021.028-.266-.147-.608-.269s-.64-.154-.64-.185a1.147,1.147,0,0,1,.678.084A1.164,1.164,0,0,1,408.928,341.12Z" transform="translate(76.319 1067.632)" fill="#8e4842"/><path d="M399.842,325.68h-.112l-.325-.038c-.28-.038-.7-.091-1.185-.147-1-.115-2.4-.238-3.938-.273a2.182,2.182,0,0,0-1.077.126,4.543,4.543,0,0,0-.441.29l-.42.3-1.451,1.025-.983.682-.273.182c-.059.042-.094.059-.1.056a.97.97,0,0,1,.087-.073l.259-.2.965-.7,1.437-1.049.416-.3a5.052,5.052,0,0,1,.451-.3,1.27,1.27,0,0,1,.556-.14h.574a37.88,37.88,0,0,1,3.941.3c.5.066.909.133,1.185.182l.322.059a.349.349,0,0,1,.108.014Z" transform="translate(88.116 1077.729)" fill="#263238"/><path d="M406.972,328.042a.294.294,0,0,0-.29-.112h-.049a.412.412,0,0,0-.238.133.252.252,0,0,0,0,.318.291.291,0,0,0,.171.08.427.427,0,0,0,.35-.087A.294.294,0,0,0,406.972,328.042Z" transform="translate(77.192 1075.905)" fill="#fff"/><path d="M347.71,230.978l-.671-.35a1.427,1.427,0,0,0-1.025-.238c-.332.094-.563.413-.906.448-.4.045-.727-.315-1.126-.294s-.675.35-1.049.35c-.28,0-.577-.2-.818-.063-.049.028-.091.066-.136.1a.993.993,0,0,1-.93-.052,1.283,1.283,0,0,0-.93-.161,1.479,1.479,0,0,0-.483.388.668.668,0,0,1-.563.231c-.115-.024-.21-.1-.325-.126-.35-.091-.661.294-1.028.392s-.734-.077-1.049.077a.535.535,0,0,0-.259.657.811.811,0,0,0,.608.458,1.685,1.685,0,0,0,.822-.059,1.993,1.993,0,0,1,.661-.15c.521.017.93.556,1.441.444a1.8,1.8,0,0,0,.629-.4,1.749,1.749,0,0,1,1.014-.329,1.958,1.958,0,0,0,.717-.038c.276-.112.434-.4.72-.479s.615.108.934.077c.206-.017.4-.133.608-.143.3-.017.567.175.864.15s.56-.276.864-.252a2.05,2.05,0,0,1,.35.094.378.378,0,0,0,.35-.052c.066-.063.087-.164.168-.21a.35.35,0,0,1,.2-.021l.986.1Z" transform="translate(122.687 1139.343)" fill="#263238"/><path d="M350.232,231.313c-.332-.245-.776-.5-1.151-.294-.136.073-.238.2-.374.262-.315.147-.7-.045-1.028.045-.283.08-.472.35-.734.472-.423.21-1.049.087-1.308.458-.143.2-.168.528-.416.584a.619.619,0,0,1-.266-.031,2.217,2.217,0,0,0-.923-.028.982.982,0,0,0-.479.2c-.252.227-.259.615-.5.853-.35.35-1,.185-1.465.413a2.868,2.868,0,0,0-.563.465,6.387,6.387,0,0,1-1.189.724,2.581,2.581,0,0,0-1.049.885.937.937,0,0,0,.133,1.2.476.476,0,0,0,.591.028c.052-.049.087-.119.136-.175a1.157,1.157,0,0,1,.409-.206c.143-.056.294-.164.294-.311,0-.091-.052-.2.021-.262a.221.221,0,0,1,.108-.035c.371-.038.825-.021,1.025-.322a2.143,2.143,0,0,0,.15-.444.832.832,0,0,1,.6-.5c.227-.052.483-.018.664-.157s.213-.458.4-.633c.311-.294.927-.08,1.206-.4.07-.08.108-.182.2-.241.252-.164.556.175.853.119s.35-.35.528-.518a3.052,3.052,0,0,1,.864-.4c.367-.178.633-.525,1.021-.64.35-.1.748-.031,1-.269.094-.091.161-.22.29-.262a.57.57,0,0,1,.231,0,1.749,1.749,0,0,0,1.109-.224Z" transform="translate(121.224 1138.973)" fill="#263238"/><path d="M357.893,234.464a2.8,2.8,0,0,0-2.371.7,1.872,1.872,0,0,1-.448.35,2.511,2.511,0,0,1-.874.1,1.72,1.72,0,0,0-1.444,1.168c-.133.4-.182.93-.57,1.07a1.194,1.194,0,0,0-.213.077c-.259.161-.08.573-.084.892,0,.525-.587.885-.608,1.4a1.357,1.357,0,0,0,.136.556q.3.752.668,1.469c.108.213.252.451.483.483.35.045.539-.35.636-.7a1.018,1.018,0,0,0,.021-.731c-.1-.185-.3-.294-.385-.486-.136-.3.084-.643.241-.934a2.8,2.8,0,0,0,.269-1.927c.35-.066.535-.563.9-.633a2.195,2.195,0,0,0,.3-.038c.241-.1.269-.465.483-.615s.7-.035.818-.332c.035-.094.018-.206.077-.283a.3.3,0,0,1,.192-.1l.881-.22a1.017,1.017,0,0,0,.469-.206c.227-.217.262-.629.549-.741Z" transform="translate(112.996 1136.71)" fill="#263238"/><path d="M355.938,219.6c-.035-.518-.133-1.14-.591-1.35-.269-.126-.6-.059-.864-.2-.511-.255-.553-1.081-1.049-1.343s-1.161.143-1.56-.241c-.206-.2-.234-.532-.4-.766a1.168,1.168,0,0,0-.9-.385,2.829,2.829,0,0,1-.986-.133c-.525-.231-.86-.881-1.423-.927-.479-.035-.853.385-1.154.769a.737.737,0,0,0-.171.322.563.563,0,0,0,.311.528c.381.224.871.189,1.224.451a3.5,3.5,0,0,0,.381.308c.2.108.458.084.654.206.381.234.374.874.755,1.112s.825-.042,1.238.052c.56.133.867.913,1.441.934a5.517,5.517,0,0,0,.741-.164.822.822,0,0,1,.794.469c.091.2.1.427.213.615a.892.892,0,0,0,.661.416,2.507,2.507,0,0,0,.79-.045Z" transform="translate(115.885 1149.826)" fill="#263238"/><path d="M348.043,227.585a3.4,3.4,0,0,0-1.5-1.675,9.288,9.288,0,0,1-1.112-.388c-.287-.168-.49-.437-.759-.629a3.089,3.089,0,0,0-2.259-.294,5.921,5.921,0,0,1-2.318.129,11.526,11.526,0,0,0-1.965-.668,3.385,3.385,0,0,0-1.116.192l-1.266.35a.587.587,0,0,0-.35.21c-.136.227.129.49.381.594a2.322,2.322,0,0,0,1.308.14,3.21,3.21,0,0,1,1.049-.157,6.874,6.874,0,0,1,.7.224,2.623,2.623,0,0,0,.906,0l1.4-.147a1.962,1.962,0,0,1,1.067.091c.252.122.451.35.731.385s.608-.2.92-.15c.371.059.556.472.9.629.4.185.923-.031,1.308.182.262.143.374.437.542.678a1.692,1.692,0,0,0,.535.5,3.636,3.636,0,0,0,.9.329Z" transform="translate(123.347 1143.449)" fill="#263238"/><path d="M362.329,212.874c-.168-.231-.423-.465-.35-.745.035-.136.147-.248.171-.388.042-.252-.213-.448-.308-.7s0-.629-.161-.888-.532-.311-.839-.388a1.049,1.049,0,0,1-.783-.612,3.6,3.6,0,0,1-.042-.7,1.322,1.322,0,0,0-1.269-1.084,1.378,1.378,0,0,1-.525-.059c-.3-.14-.35-.521-.535-.8a1.112,1.112,0,0,0-1.143-.535c-.21.042-.441.262-.318.437.049.07.14.1.206.154.238.2.066.612.206.888s.588.35.724.643c.1.227-.018.511.08.741.122.283.49.35.8.35s.675.084.79.35a1.689,1.689,0,0,1,.059.4.78.78,0,0,0,.4.556c.3.15.7.122.892.406s-.087.769.091,1.1c.129.241.441.3.675.451a.266.266,0,0,1,.122.14.3.3,0,0,1-.042.185c-.185.378-.42.811-.241,1.189a1.564,1.564,0,0,0,.322.392,3.312,3.312,0,0,1,.811,1.4l.325-1.423A1.458,1.458,0,0,0,362.329,212.874Z" transform="translate(109.802 1155.222)" fill="#263238"/><path d="M374.845,209.793a.955.955,0,0,0-.413-1.1.752.752,0,0,0-1.049.4c-.14.465.252,1.011,0,1.43a1.487,1.487,0,0,0-.213.332c-.087.308.3.567.3.888s-.444.549-.535.892.29.808.147,1.189a1.4,1.4,0,0,1-.185.287,2.439,2.439,0,0,0,.024,2.1l.927-.136c-.171-.643.734-1.287.427-1.874-.147-.28-.549-.483-.458-.787a.6.6,0,0,1,.14-.21l.864-.944a.87.87,0,0,0,.276-.479c.038-.409-.472-.675-.539-1.084C374.53,210.366,374.75,210.083,374.845,209.793Z" transform="translate(99.09 1153.499)" fill="#263238"/><path d="M370.924,226.329c-.087-.3-.483-.4-.794-.35a3.612,3.612,0,0,0-2.039,1.525,18.185,18.185,0,0,0-1.7,2.311,1.532,1.532,0,0,0-.238.587.6.6,0,0,0,.217.567.374.374,0,0,0,.542-.126l.255-.063a12.47,12.47,0,0,1,3.266-3.644C370.7,226.927,371.015,226.644,370.924,226.329Z" transform="translate(103.329 1142.208)" fill="#3186c5"/><path d="M365.672,242.992a29.965,29.965,0,0,1-.318-5.127,10.411,10.411,0,0,1,1.371-4.9c.136-.224,1.206-1.679,1.455-1.605.178.052-.581,1.458-.518,1.633a8.967,8.967,0,0,1,0,5.245A23.114,23.114,0,0,1,365.683,243" transform="translate(103.849 1138.7)" fill="#263238"/><path d="M370.583,251.287c.245-1.185.441-2.119.451-2.119s4.158.385,5.214-3.605c.511-1.927,1.234-5.98,1.85-9.655a7.693,7.693,0,0,0-5.707-8.742l-.388-.1c-4.224-.8-7.267,2.336-7.952,6.581l-2.871,14.771,6.581,6.917Z" transform="translate(106.558 1141.575)" fill="#ffb9b9"/><path d="M380.392,285.2a9.963,9.963,0,0,1-4.822-2.85s.539,3.231,4.619,3.875Z" transform="translate(97.201 1105.543)" fill="#8e4842"/><path d="M401.548,260.4a.587.587,0,0,1-.7.437.563.563,0,0,1-.458-.664.591.591,0,0,1,.7-.437.56.56,0,0,1,.458.664Z" transform="translate(81.067 1120.259)" fill="#263238"/><path d="M401.747,254.981c-.087.056-.441-.371-1.049-.525s-1.143.042-1.192-.052c-.021-.042.084-.157.315-.252a1.651,1.651,0,0,1,.979-.049,1.553,1.553,0,0,1,.818.511C401.775,254.806,401.792,254.957,401.747,254.981Z" transform="translate(81.637 1123.946)" fill="#263238"/><path d="M385.6,257.335a.591.591,0,0,1-.7.441.563.563,0,0,1-.458-.664.588.588,0,0,1,.7-.437.56.56,0,0,1,.458.661Z" transform="translate(91.439 1122.25)" fill="#263238"/><path d="M384.345,251.361c-.091.056-.444-.371-1.049-.525s-1.143.042-1.192-.052c-.024-.038.08-.157.315-.248a1.609,1.609,0,0,1,.976-.052,1.525,1.525,0,0,1,.818.511C384.359,251.186,384.387,251.33,384.345,251.361Z" transform="translate(92.954 1126.3)" fill="#263238"/><path d="M391.43,258.533a4.2,4.2,0,0,1,1.049.07c.161.024.318.031.371-.07a.815.815,0,0,0,0-.493c-.052-.416-.1-.853-.164-1.311a21.322,21.322,0,0,1-.255-3.389,21.561,21.561,0,0,1,.528,3.361c.052.458.1.9.143,1.315a.937.937,0,0,1-.073.636.416.416,0,0,1-.315.164.924.924,0,0,1-.276-.031A4.154,4.154,0,0,1,391.43,258.533Z" transform="translate(86.887 1124.408)" fill="#263238"/><path d="M385.593,268.107c.1.017-.066.7.388,1.3s1.182.72,1.161.815-.189.091-.493.024a1.728,1.728,0,0,1-.979-.647,1.486,1.486,0,0,1-.283-1.081C385.415,268.237,385.53,268.09,385.593,268.107Z" transform="translate(90.825 1114.806)" fill="#263238"/><path d="M384.869,244.371c-.1.154-.7-.08-1.441-.175s-1.378-.045-1.434-.22c-.024-.08.115-.213.392-.315a2.5,2.5,0,0,1,2.189.3C384.813,244.134,384.915,244.3,384.869,244.371Z" transform="translate(93.024 1130.786)" fill="#263238"/><path d="M402.8,248.91c-.143.112-.532-.136-1.049-.273s-.965-.143-1.028-.315c-.024-.08.077-.2.3-.29a1.563,1.563,0,0,1,1.665.476C402.843,248.7,402.864,248.854,402.8,248.91Z" transform="translate(80.846 1127.908)" fill="#263238"/><path d="M362.194,254.088c-.063-.045-2.546-1.5-3.147,1.252a2.12,2.12,0,0,0,2.315,2.714C361.383,257.97,362.194,254.088,362.194,254.088Z" transform="translate(107.999 1124.199)" fill="#ffb9b9"/><path d="M362.1,258.431a.767.767,0,0,1-.143.042.482.482,0,0,1-.35-.07,1.225,1.225,0,0,1-.318-1.185,1.581,1.581,0,0,1,.283-.657.563.563,0,0,1,.441-.29.248.248,0,0,1,.255.192.279.279,0,0,1,0,.143c0,.007.07-.031.073-.15a.314.314,0,0,0-.07-.2.367.367,0,0,0-.252-.129.7.7,0,0,0-.594.318,1.7,1.7,0,0,0-.35.731,1.285,1.285,0,0,0,.444,1.346.535.535,0,0,0,.455.021C362.08,258.5,362.108,258.438,362.1,258.431Z" transform="translate(106.644 1122.594)" fill="#8e4842"/><path d="M380.163,229.876c.5-.154-.542-1.881-1.535-2.609a9.986,9.986,0,0,0-5.567-1.976,6.779,6.779,0,0,0-4.948,2.221,11.1,11.1,0,0,0-2.378,5.294,3.371,3.371,0,0,0,.038,1.769c.259.7.92,1.231.7,2.067a1.175,1.175,0,0,0,.112.9c.392.643,1.116.266,1.507-.182a12.254,12.254,0,0,0,1.853-6.123c-.038-.49-.164-.972-.178-1.462a1.707,1.707,0,0,1,.486-1.339,2.1,2.1,0,0,1,.269-.178,2.938,2.938,0,0,1,2.972.052c1.441.874,3.927,2.249,4.731,1.867a4.381,4.381,0,0,0,1.5-1Z" transform="translate(103.661 1142.655)" fill="#263238"/><path d="M311.951,350.739a1.109,1.109,0,0,1,.224-.1l.654-.255,2.469-.923,8.547-3.147-.049.119c-.7-1.542-1.483-3.221-2.287-4.959l-1.178-2.57.094.049-8.561,1.315h0a17.322,17.322,0,0,0-4.424,1.944c-.49.3-.857.56-1.109.734l-.28.2a.35.35,0,0,1-.1.063l.087-.08.269-.217c.241-.189.6-.458,1.091-.769a16.743,16.743,0,0,1,4.427-2.011h0l8.557-1.336h.066l.031.059c.381.836.78,1.7,1.182,2.57.8,1.748,1.57,3.417,2.277,4.962l.042.084-.091.035-8.571,3.077-2.483.878-.664.227Z" transform="translate(142.475 1068.833)" fill="#263238"/><path d="M327.916,328a5.993,5.993,0,0,1-.7.86c-.455.514-1.091,1.213-1.815,1.972s-1.4,1.427-1.906,1.885a5.669,5.669,0,0,1-.636.514c-.087.049-.147.1-.224.084a.052.052,0,0,1,0-.07v-.017s0,.045.021.052a.493.493,0,0,0,.168-.1c.143-.119.35-.311.588-.549.486-.483,1.143-1.164,1.864-1.92l1.853-1.934A6.782,6.782,0,0,1,327.916,328Z" transform="translate(131.633 1075.856)" fill="#263238"/><path d="M336.267,301.882c-.038,0,.073-.549.073-1.434a9.207,9.207,0,0,0-.133-1.539,9.533,9.533,0,0,0-1.35-3.514,9.659,9.659,0,0,0-.937-1.234c-.594-.654-1.049-.983-1.014-1.011a1.606,1.606,0,0,1,.322.217,3.46,3.46,0,0,1,.35.29,5.762,5.762,0,0,1,.437.416A8.641,8.641,0,0,1,335,295.3a9.7,9.7,0,0,1,.881,1.714,10,10,0,0,1,.5,1.864,8.537,8.537,0,0,1,.094,1.57,5.731,5.731,0,0,1-.045.6,3.146,3.146,0,0,1-.066.451A1.608,1.608,0,0,1,336.267,301.882Z" transform="translate(124.946 1098.52)" fill="#263238"/><path d="M368,388.675a10.973,10.973,0,0,1,1.147,0,10.435,10.435,0,0,0,5.217-1.539c.6-.35.944-.643.965-.619s-.07.087-.22.22a7.066,7.066,0,0,1-.675.507,9.441,9.441,0,0,1-2.525,1.182,9.333,9.333,0,0,1-2.763.378,6.593,6.593,0,0,1-.843-.059A1.115,1.115,0,0,1,368,388.675Z" transform="translate(102.123 1037.804)" fill="#263238"/><path d="M369.562,370.608a1.515,1.515,0,0,1-.234.3c-.157.185-.4.444-.7.762-.6.633-1.455,1.483-2.448,2.367s-1.927,1.647-2.623,2.172c-.35.262-.633.472-.836.608a1.4,1.4,0,0,1-.322.2,1.568,1.568,0,0,1,.28-.255l.8-.654c.671-.549,1.595-1.318,2.584-2.2s1.853-1.717,2.476-2.325l.734-.72A1.429,1.429,0,0,1,369.562,370.608Z" transform="translate(105.765 1048.148)" fill="#263238"/></g></g></svg>