<svg xmlns="http://www.w3.org/2000/svg" width="28" height="28" viewBox="0 0 28 28">
  <g id="组_11334" data-name="组 11334" transform="translate(-94 2)">
    <path id="路径_9653" data-name="路径 9653" d="M97.333,85.333a12,12,0,1,0,12,12A12.035,12.035,0,0,0,97.333,85.333Zm8.28,7.2h-3.48a18.969,18.969,0,0,0-1.68-4.32A9.659,9.659,0,0,1,105.613,92.533Zm-8.28-4.8a16.112,16.112,0,0,1,2.28,4.8h-4.56A17.644,17.644,0,0,1,97.333,87.733Zm-9.24,12a8.18,8.18,0,0,1,0-4.8h4.08a16.083,16.083,0,0,0-.12,2.4c0,.84.12,1.56.12,2.4Zm.96,2.4h3.48a18.966,18.966,0,0,0,1.68,4.32A9.659,9.659,0,0,1,89.053,102.133Zm3.48-9.6h-3.48a10.114,10.114,0,0,1,5.16-4.32A18.967,18.967,0,0,0,92.533,92.533Zm4.8,14.4a16.114,16.114,0,0,1-2.28-4.8h4.56A17.643,17.643,0,0,1,97.333,106.933Zm2.76-7.2h-5.52a12.12,12.12,0,0,1,0-4.8h5.64a16.265,16.265,0,0,1,.24,2.4A16.565,16.565,0,0,1,100.093,99.733Zm.36,6.72a17.027,17.027,0,0,0,1.68-4.32h3.48A9.659,9.659,0,0,1,100.453,106.453Zm2.16-6.72a16.083,16.083,0,0,0,.12-2.4c0-.84-.12-1.56-.12-2.4h4.08a8.18,8.18,0,0,1,0,4.8Z" transform="translate(10.667 -85.333)" fill="#143459"/>
    <g id="组_11333" data-name="组 11333" transform="translate(-575 -1130)">
      <rect id="矩形_19726" data-name="矩形 19726" width="28" height="28" transform="translate(669 1128)" fill="none"/>
    </g>
  </g>
</svg>
