<svg xmlns="http://www.w3.org/2000/svg" width="25.68" height="32.101" viewBox="0 0 25.68 32.101">
  <path id="路径_8364" data-name="路径 8364" d="M217.64,128a12.84,12.84,0,0,1,12.84,12.84c0,5.109-2.408,8.408-5.307,11.342l-.883.869-1.937,1.83a31.043,31.043,0,0,0-4.713,5.219,27.787,27.787,0,0,0-3.975-4.521l-2.226-2.1-.893-.861c-3.092-3.044-5.746-6.415-5.746-11.778A12.84,12.84,0,0,1,217.64,128Zm0,2.675a10.165,10.165,0,0,0-10.165,10.165c0,4.05,1.458,6.516,5.658,10.556l2.226,2.1,1.07,1.043c.332.332.642.647.928.952l.284.3.284-.3c.433-.46.91-.942,1.444-1.46l1.153-1.1,1.035-.971,1.145-1.1c3.777-3.726,5.1-6.15,5.1-10.015A10.165,10.165,0,0,0,217.64,130.675Zm0,5.35a5.35,5.35,0,1,1-5.35,5.35A5.35,5.35,0,0,1,217.64,136.025Zm0,2.675a2.675,2.675,0,1,0,2.675,2.675A2.675,2.675,0,0,0,217.64,138.7Z" transform="translate(-204.8 -128)" fill="#143459"/>
</svg>
