<svg xmlns="http://www.w3.org/2000/svg" width="30" height="30" viewBox="0 0 30 30">
  <g id="组_10170" data-name="组 10170" transform="translate(-569 -265)">
    <circle id="椭圆_674" data-name="椭圆 674" cx="15" cy="15" r="15" transform="translate(569 265)" fill="#2988e6"/>
    <g id="doctor" transform="translate(577 271)">
      <path id="路径_5665" data-name="路径 5665" d="M272.839,284.585h-5.856v-.942c.829-.44,1.74-5.18,2.416-5.16,2.631.543,4.494,2.037,4.494,4.883C273.863,284.114,273.515,284.585,272.839,284.585Zm-2.262-9.521a3.917,3.917,0,0,1-7.739-.01,1.341,1.341,0,0,1-.717-1.106c-.154-.921.409-1.147.409-1.147q.061,0,.123.092a1.722,1.722,0,0,1,.44-.665,5.388,5.388,0,0,1,3.685-1.106,4.406,4.406,0,0,1,3.532,1.085,1.865,1.865,0,0,1,.45.727c.051-.082.1-.133.154-.123,0,0,.573.225.42,1.147A1.364,1.364,0,0,1,270.577,275.064Z" transform="translate(-259.654 -266.68)" fill="#fff"/>
      <path id="路径_5666" data-name="路径 5666" d="M138.791,34.133a8.869,8.869,0,0,0-4.167,1.167v3.89s1.249-1.423,4.279-1.423a5.783,5.783,0,0,1,4.279,1.433V35.31a10.75,10.75,0,0,0-4.392-1.177Zm1.29,2.109h-.942v.942h-.5v-.942h-.932V35.73h.932v-.942h.5v.942h.942ZM138.8,51.1v.942c-2.549,0-4.33-.01-5.856,0-.655,0-1.013-.471-1.054-1.208,0-2.846,1.863-4.351,4.494-4.883.7-.031,1.6,4.709,2.416,5.149Z" transform="translate(-131.891 -34.133)" fill="#fff"/>
    </g>
  </g>
</svg>
