<svg xmlns="http://www.w3.org/2000/svg" width="18.11" height="19.227" viewBox="0 0 18.11 19.227">
  <path id="jigou-2" d="M11.786,15.726H10.751a.327.327,0,0,0-.327.327v1.038a.327.327,0,0,0,.327.327h1.036a.327.327,0,0,0,.327-.327V16.053a.327.327,0,0,0-.327-.327Zm0-7.829H10.751a.327.327,0,0,0-.327.327V9.262a.326.326,0,0,0,.327.327h1.036a.327.327,0,0,0,.327-.327V8.223A.327.327,0,0,0,11.786,7.9Zm0,2.611H10.751a.327.327,0,0,0-.327.328v1.033a.327.327,0,0,0,.327.327h1.036a.327.327,0,0,0,.327-.328V10.831a.324.324,0,0,0-.327-.323Zm0,2.607H10.751a.327.327,0,0,0-.327.327V14.48a.327.327,0,0,0,.327.327h1.036a.327.327,0,0,0,.327-.327V13.442a.327.327,0,0,0-.327-.327Zm0-7.829H10.751a.327.327,0,0,0-.327.327V6.651a.326.326,0,0,0,.327.327h1.036a.327.327,0,0,0,.327-.327V5.612a.327.327,0,0,0-.327-.327ZM24.178,19.119H6.727a.327.327,0,0,1-.327-.328V17.73a.327.327,0,0,1,.327-.327h.979V4.168a.923.923,0,0,1,.559-.848L14.044-.03a.914.914,0,0,1,1.283.843V17.4h1.045V2.3a.919.919,0,0,1,1.382-.792l4.99,2.91a.919.919,0,0,1,.454.8V17.408h.985a.327.327,0,0,1,.326.327v1.057A.335.335,0,0,1,24.178,19.119Zm-3.905-8.511H19.237a.327.327,0,0,0-.327.327v1.033a.327.327,0,0,0,.327.327h1.036a.327.327,0,0,0,.327-.327V10.931A.324.324,0,0,0,20.273,10.609Zm0-5.222H19.237a.327.327,0,0,0-.327.327V6.752a.327.327,0,0,0,.327.327h1.036a.327.327,0,0,0,.327-.327V5.713A.327.327,0,0,0,20.273,5.387Zm0,7.828H19.237a.327.327,0,0,0-.327.328V14.58a.327.327,0,0,0,.327.327h1.036a.327.327,0,0,0,.327-.327V13.543a.327.327,0,0,0-.327-.328Zm0,2.612H19.237a.327.327,0,0,0-.327.327v1.037a.329.329,0,0,0,.327.328h1.036a.327.327,0,0,0,.327-.328V16.154a.327.327,0,0,0-.327-.327Zm0-7.829H19.237a.327.327,0,0,0-.327.327V9.362a.327.327,0,0,0,.327.327h1.036a.327.327,0,0,0,.327-.327V8.324A.327.327,0,0,0,20.273,8Z" transform="translate(-6.4 0.108)" fill="#fff"/>
</svg>
