<svg xmlns="http://www.w3.org/2000/svg" width="174" height="174" viewBox="0 0 174 174">
  <g id="组_11302" data-name="组 11302" transform="translate(-33 -102)">
    <path id="路径_9632" data-name="路径 9632" d="M87,0A87,87,0,1,1,0,87,87,87,0,0,1,87,0Z" transform="translate(33 102)" fill="#e9f2fc"/>
    <g id="组_11203" data-name="组 11203" transform="translate(-48.38 -123.206)">
      <g id="组_9640" data-name="组 9640" transform="translate(126.38 257.206)">
        <g id="组_9599" data-name="组 9599" transform="translate(0 0)">
          <g id="组_9540" data-name="组 9540">
            <path id="路径_9227" data-name="路径 9227" d="M278.285,156.517c1.066-.286,2.131-.256,2.438.882a6.482,6.482,0,0,1-.128,4.05c-.4,1.153-2.068,2.206-2.952,3.2a2.417,2.417,0,0,1-1.9.554,44.338,44.338,0,0,1-3.807,7.741c-3.536,5.565-8.357,9.606-14.161,9.606s-10.623-4.05-14.159-9.606a42.418,42.418,0,0,1-3.807-7.741,2.417,2.417,0,0,1-1.9-.554c-.885-.983-2.558-2.036-2.967-3.2a6.584,6.584,0,0,1-.128-4.05,1.439,1.439,0,0,1,1.812-1.01,28.169,28.169,0,0,1-.769-11.469c1.113-5.115,2.724-6.5,5.633-7.628a17.1,17.1,0,0,1,15.685-8.681c7.373,0,14.389,2.264,18.757,10.973a10.323,10.323,0,0,0,.912.627C280.767,142.528,279.185,152.616,278.285,156.517Zm-7.272-14.1a20,20,0,0,1-19.993,2.946,22.357,22.357,0,0,0,8.713,2.078,23.884,23.884,0,0,0,3.807-.143,18.053,18.053,0,0,0,3.393-.727,1.262,1.262,0,1,1,.769,2.4,20.094,20.094,0,0,1-3.879.825,26.792,26.792,0,0,1-4.193.156,24.1,24.1,0,0,1-10.838-2.918,11.546,11.546,0,0,1-4.22-3.928,13.854,13.854,0,0,0-3.478,6.3c-.043.512-.058,1.025-.058,1.537a42.7,42.7,0,0,0,5.6,20.193c2.952,4.61,6.789,7.969,11.152,7.969s8.2-3.359,11.152-7.969c4.608-7.213,7.773-21.287,2.07-28.729Zm-48.882,53.322c2.168-4.34,7.272-5.678,13.3-7.3a44.792,44.792,0,0,0,1.17,29.444,4.51,4.51,0,1,0,2.895-1.366c-3.293-8.411-4.15-20.564-.185-29.115,1.569-.426,4.406-1.564,5.633-2.036a81.42,81.42,0,0,0,8.455,20.564l1.918-11.186-1.1-2.647,3.528-2.952,3.536,2.946-1.1,2.632,1.918,11.171a85.591,85.591,0,0,0,8.526-20.564c1.611.627,4.676,1.722,6.844,2.291a21.34,21.34,0,0,1-.243,10.06,9.592,9.592,0,0,0-9.924,7.315c-2.01,6.789-8.771,17.433.2,19.424a1.6,1.6,0,0,0,.7-3.116c-2.025-.456-2.253-2.078-1.769-4.2.7-3.074,2.924-7.726,3.949-11.213a6.436,6.436,0,1,1,12.564,2.8c-.572,3.623-.585,8.779-1.28,11.81-.484,2.121-1.383,3.5-3.41,3.046a1.6,1.6,0,0,0-.7,3.116c8.984,2.006,7.46-10.531,8.57-17.478a9.519,9.519,0,0,0-5.755-10.8,26.382,26.382,0,0,0,.571-9.847c5.689,1.579,10.48,3.074,12.505,7.145,4.448,8.907,5.5,29.97,6.688,42.136H215.5c1.2-12.765,1.982-32.824,6.631-42.094Z" transform="translate(-215.5 -128.591)" fill="#2988e6"/>
            <path id="路径_9228" data-name="路径 9228" d="M-8379.812,6367l-16.616,4.834c-4.155,1.208-8.561,6.087-10.36,24.475s-2.013,23.727-2.013,23.727h84.637l-3.1-25s-1.506-16.325-5.84-20.379S-8354.22,6367-8354.22,6367s-7.1,20.229-8.025,21.13-2.071-11.3-8.8,0c0,0-.51,1.385-.753.853S-8379.812,6367-8379.812,6367Z" transform="translate(8409.164 -6310.801)" fill="#2988e6"/>
          </g>
        </g>
        <path id="路径_9529" data-name="路径 9529" d="M-8958.1-10285.721l12.6,21.243,13.1-21.243,2.375.864-11.778,29.781-9.415-.262-9.047-29.793Z" transform="translate(8987.395 10341.978)" fill="#2988e6"/>
        <path id="路径_9530" data-name="路径 9530" d="M-8958.579-10283.55l7.772,13.428,3.016,5.357,11.221-18.632Z" transform="translate(8989.667 10342.589)" fill="#ebf2fb"/>
      </g>
      <path id="路径_9531" data-name="路径 9531" d="M-8402.892,70.33c-.529,0-1.1-.021-1.646-.064a28.122,28.122,0,0,1-14.958-5.782l2.9-3.409a23.98,23.98,0,0,0,12.407,4.729,13.569,13.569,0,0,0,2.111.02l.145-.017a18.094,18.094,0,0,0,10.985-4.883l-.007.009,3.327,3a22.287,22.287,0,0,1-13.846,6.331A11.514,11.514,0,0,1-8402.892,70.33Z" transform="translate(8572.526 209.442)" fill="#2988e6"/>
      <path id="路径_9532" data-name="路径 9532" d="M3.608,10.539,0,8.268c.14-.222,3.482-5.444,8.82-6.229l.1-.012.357-.036L18.4,0l.408.069.682.114.251.042a2.134,2.134,0,0,1-.506,4.237c-.134.085-.288.18-.463.287-.509.31-1.015.6-1.036.616l-.166-.286-.875.422-.435-.672L9.944,6.208,9.4,6.263C6.055,6.784,3.631,10.5,3.608,10.539Z" transform="translate(161.812 269.295) rotate(121)" fill="#2988e6"/>
      <path id="路径_9533" data-name="路径 9533" d="M19.084,9.916,9.593,8.138l-.478-.043C3.636,7.4.146,2.719,0,2.52L3.438,0C3.459.027,6,3.383,9.611,3.861l.561.049,4.749.89a2.659,2.659,0,0,1,1.639-.572l.137-.006.137.012a12.808,12.808,0,0,1,1.982.58c1.031.373,2.756,1,2.806,2.7a2.332,2.332,0,0,1-2.188,2.354Z" transform="translate(183.605 263.538) rotate(59)" fill="#2988e6"/>
    </g>
  </g>
</svg>
