<svg xmlns="http://www.w3.org/2000/svg" width="14.8" height="18.5" viewBox="0 0 14.8 18.5">
  <path id="路径_8364" data-name="路径 8364" d="M212.2,128a7.4,7.4,0,0,1,7.4,7.4,8.858,8.858,0,0,1-3.059,6.537l-.509.5-1.116,1.055A17.89,17.89,0,0,0,212.2,146.5a16.013,16.013,0,0,0-2.291-2.605l-1.283-1.21-.515-.5c-1.782-1.754-3.311-3.7-3.311-6.788A7.4,7.4,0,0,1,212.2,128Zm0,1.542a5.858,5.858,0,0,0-5.858,5.858c0,2.334.84,3.756,3.261,6.083l1.283,1.212.617.6c.191.191.37.373.535.549l.163.176.163-.176c.25-.265.524-.543.832-.842l.664-.637.6-.56.66-.635c2.177-2.148,2.941-3.544,2.941-5.772A5.858,5.858,0,0,0,212.2,129.542Zm0,3.083a3.083,3.083,0,1,1-3.083,3.083A3.083,3.083,0,0,1,212.2,132.625Zm0,1.542a1.542,1.542,0,1,0,1.542,1.542A1.542,1.542,0,0,0,212.2,134.167Z" transform="translate(-204.8 -128)" fill="#4b4b4b"/>
</svg>
