<svg xmlns="http://www.w3.org/2000/svg" xmlns:xlink="http://www.w3.org/1999/xlink" width="214" height="214" viewBox="0 0 214 214">
  <defs>
    <filter id="矩形_17403" x="0" y="0" width="214" height="214" filterUnits="userSpaceOnUse">
      <feOffset dy="3" input="SourceAlpha"/>
      <feGaussianBlur stdDeviation="3" result="blur"/>
      <feFlood flood-opacity="0.161"/>
      <feComposite operator="in" in2="blur"/>
      <feComposite in="SourceGraphic"/>
    </filter>
  </defs>
  <g id="组件_44_3" data-name="组件 44 – 3" transform="translate(9 5.578)">
    <g id="组_10170" data-name="组 10170">
      <g transform="matrix(1, 0, 0, 1, -9, -5.58)" filter="url(#矩形_17403)">
        <g id="矩形_17403-2" data-name="矩形 17403" transform="translate(9 6)" fill="#fff" stroke="#dfe1e5" stroke-width="1">
          <rect width="196" height="196" rx="11" stroke="none"/>
          <rect x="0.5" y="0.5" width="195" height="195" rx="10.5" fill="none"/>
        </g>
      </g>
      <g id="组_10169" data-name="组 10169" transform="translate(-2 -4.867)">
        <text id="Pregnancy" transform="translate(56 152)" fill="#143459" font-size="20" font-family="SegoeUI, Segoe UI" letter-spacing="-0.02em"><tspan x="0" y="0">Pregnancy</tspan></text>
        <g id="组_7075" data-name="组 7075" transform="translate(74 48.289)">
          <path id="路径_5096" data-name="路径 5096" d="M642.98,923.614c-.437,4.118-3.153,8.026-6.733,9.317a.256.256,0,0,0-.164.282l.467,3.014a3.453,3.453,0,0,1-3.339,4.014H614.246c-1.844,0-3.819-1.791-3.091-3.539,1.2-2.875,4.8-9.6,5.646-12.216,2.225-6.887.74-14.886.7-19.852a3.017,3.017,0,0,1,3.091-2.875h8.18a3.146,3.146,0,0,1,3.091,2.875L632.8,912C634.344,912.712,644,914,642.98,923.614Z" transform="translate(-592.652 -872.604)" fill="#f25c79" opacity="0.47"/>
          <g id="组_7068" data-name="组 7068" transform="translate(26.322 30.19)">
            <path id="路径_5097" data-name="路径 5097" d="M620.1,910.4a1,1,0,0,1-1-.933c-.084-1.277-.139-2.32-.128-3.262.039-3.409,2.629-3.409,3.6-3.409h.759a1,1,0,0,1,0,2h-.759c-1.18,0-1.588.069-1.6,1.433-.01.876.042,1.875.124,3.1a1,1,0,0,1-.932,1.064Z" transform="translate(-618.974 -902.794)" fill="#fff"/>
          </g>
          <path id="路径_5098" data-name="路径 5098" d="M636.247,932.931c3.58-1.291,6.1-5.224,6.733-9.317,1.02-6.614-2.555-8.4-5.339-9.854,2.072,1.934,3.914,4.912,3.359,8.24a11.481,11.481,0,0,1-7,9c-1.789.894,1,7-1,7H611.074a3.421,3.421,0,0,0,3.172,2.241h18.965a3.453,3.453,0,0,0,3.339-4.014l-.467-3.014A.256.256,0,0,1,636.247,932.931Z" transform="translate(-592.652 -872.604)" fill="#f25c79"/>
          <g id="组_7069" data-name="组 7069" transform="translate(12.477 23.316)">
            <path id="路径_5099" data-name="路径 5099" d="M632.432,942.08H609.974a5.249,5.249,0,0,1-4.234-2.254,3.3,3.3,0,0,1-.345-3.2c.594-1.386,1.664-3.5,2.795-5.732a87.47,87.47,0,0,0,3.862-8.208c2.534-7.6.8-22.2.782-22.344l-.013-.112.012-.113a4.669,4.669,0,0,1,4.654-4.2h9.687a4.669,4.669,0,0,1,4.654,4.2l1.591,10.374.28.074c3.091.8,11.3,2.926,11.3,11.437,0,4.725-3.44,9.535-8.09,11.427l.462,2.889a5,5,0,0,1-4.94,5.764Zm-17.6-41.86c.181,1.549,1.692,15.364-.886,23.1a85.387,85.387,0,0,1-3.973,8.479c-1.118,2.206-2.172,4.291-2.743,5.618a1.336,1.336,0,0,0,.178,1.314,3.267,3.267,0,0,0,2.564,1.353h22.458a3,3,0,0,0,2.964-3.454l-.551-3.453a1.3,1.3,0,0,1,.851-1.425c3.591-1.256,7.3-5.245,7.3-9.748,0-6.963-6.869-8.741-9.8-9.5-.295-.076-.548-.143-.75-.2a1.373,1.373,0,0,1-.951-1.147l-1.651-10.781a2.689,2.689,0,0,0-2.672-2.45h-9.687A2.673,2.673,0,0,0,614.834,900.22Z" transform="translate(-605.128 -895.92)"/>
          </g>
          <path id="路径_5100" data-name="路径 5100" d="M626.015,878.595a5.821,5.821,0,0,1,.7,2.781c0,3.231-2.619,10.029-5.851,10.029-1.159,0-3.166-.584-3.149-2.148.139-12.615,3.482-9.272,3.482-9.272Z" transform="translate(-592.652 -872.604)" fill="#f25c79" opacity="0.47"/>
          <path id="路径_5101" data-name="路径 5101" d="M627.762,878.336a6.968,6.968,0,0,1,.84,3.328c0,3.866-3.134,12-7,12-1.387,0-2.681-1.048-3.769-2.57" transform="translate(-592.652 -872.604)" fill="none" stroke="#000" stroke-linecap="round" stroke-miterlimit="10" stroke-width="2"/>
          <path id="路径_5102" data-name="路径 5102" d="M599.573,917.722c-3.261-4.507-5.077-11.228,1.946-19.42a24.818,24.818,0,0,1,6.639-5.481c1.884-1.19,3.51-2.218,4.506-3.712a10.768,10.768,0,0,0,1.2-4.205c.765-4.859,1.734-8.3,7.26-8.3a7.733,7.733,0,0,1,4.6,1.776c-.439.145-2.254,1.4-2.723,1.62-.029-.035-1.344-2-2-2-.8,0-1.014.189-1.984,1.273C617.515,880.948,618,883,618,888c-.023,1.856-1.353,9.94-11.9,15.211l-.134.074C601.692,905.853,599.666,912.313,599.573,917.722Z" transform="translate(-592.652 -872.604)" fill="#f25c79" opacity="0.47"/>
          <g id="组_7070" data-name="组 7070" transform="translate(6.628 19.148)">
            <path id="路径_5103" data-name="路径 5103" d="M600.279,895.556a1,1,0,0,1-.715-1.7,22.846,22.846,0,0,1,2.1-1.885,1,1,0,0,1,1.246,1.564,20.656,20.656,0,0,0-1.913,1.722A1,1,0,0,1,600.279,895.556Z" transform="translate(-599.279 -891.752)"/>
          </g>
          <g id="组_7071" data-name="组 7071">
            <path id="路径_5104" data-name="路径 5104" d="M600.862,922.986a1.328,1.328,0,0,1-.875-.333c-4.078-3.566-12.523-13.222-2.912-25.863A1,1,0,0,1,598.667,898c-3.365,4.426-7.475,12.927,1.068,21.666-.759-5.449,1.1-13.732,5.75-16.524,11.238-5.622,11.891-14.635,11.9-16.487-.4-3.673.066-6.258,1.372-7.716a3.163,3.163,0,0,1,2.227-1.136,2.1,2.1,0,0,1,1.981,1.473,10.8,10.8,0,0,1,3.537-1.319c-1.268-2.193-4.374-3.354-6.385-3.354-6.808,0-7.606,5.071-8.248,9.145a10.066,10.066,0,0,1-1.04,3.806,13.707,13.707,0,0,1-4.208,3.422l-.773.49a1,1,0,0,1-1.079-1.684l.783-.5a12.653,12.653,0,0,0,3.613-2.841,9.942,9.942,0,0,0,.728-3.007c.638-4.052,1.707-10.834,10.224-10.834,2.721,0,7.342,1.735,8.62,5.457a1.314,1.314,0,0,1-.139,1.147,1.339,1.339,0,0,1-1.01.615,8.581,8.581,0,0,0-4.355,1.69,1.337,1.337,0,0,1-2.151-1.2.8.8,0,0,0-.044-.476c-.036-.029-.438.007-.85.505-.49.595-1.248,2.182-.812,6.129l.009.149c-.011,5.712-3.415,13.511-12.941,18.274-4.339,2.606-5.784,12.016-4.321,16.3a1.357,1.357,0,0,1-.523,1.562A1.334,1.334,0,0,1,600.862,922.986Zm25.987-44.276,0,0Z" transform="translate(-592.652 -872.604)"/>
          </g>
          <g id="组_7072" data-name="组 7072" transform="translate(27.348 41.396)">
            <path id="路径_5105" data-name="路径 5105" d="M632,925c-6.617,0-12-4.486-12-10a1,1,0,0,1,2,0c0,4.411,4.486,8,10,8a1,1,0,0,1,0,2Z" transform="translate(-620 -914)"/>
          </g>
        </g>
      </g>
    </g>
  </g>
</svg>
