<svg xmlns="http://www.w3.org/2000/svg" xmlns:xlink="http://www.w3.org/1999/xlink" width="213.53" height="213.53" viewBox="0 0 213.53 213.53">
  <defs>
    <filter id="矩形_17403" x="0" y="0" width="213.53" height="213.53" filterUnits="userSpaceOnUse">
      <feOffset dy="3" input="SourceAlpha"/>
      <feGaussianBlur stdDeviation="3" result="blur"/>
      <feFlood flood-opacity="0.161"/>
      <feComposite operator="in" in2="blur"/>
      <feComposite in="SourceGraphic"/>
    </filter>
  </defs>
  <g id="组件_44_1" data-name="组件 44 – 1" transform="translate(9 6.158)">
    <g transform="matrix(1, 0, 0, 1, -9, -6.16)" filter="url(#矩形_17403)">
      <g id="矩形_17403-2" data-name="矩形 17403" transform="translate(9 6)" fill="#fff" stroke="#dfe1e5" stroke-width="1">
        <rect width="195.53" height="195.53" rx="11" stroke="none"/>
        <rect x="0.5" y="0.5" width="194.53" height="194.53" rx="10.5" fill="none"/>
      </g>
    </g>
    <g id="组_10173" data-name="组 10173" transform="translate(-0.001 -8.13)">
      <g id="组_6992" data-name="组 6992" transform="translate(73 54.973)">
        <g id="组_6976" data-name="组 6976" transform="translate(29.029 0.903)">
          <path id="路径_4970" data-name="路径 4970" d="M289.365,9.1v6.173a1.607,1.607,0,0,0,1.6,1.6h16.866a1.609,1.609,0,0,0,1.6-1.6V9.1a1.607,1.607,0,0,0-1.6-1.6H290.966a1.6,1.6,0,0,0-1.6,1.6Z" transform="translate(-289.365 -7.5)" fill="#fe8d94"/>
        </g>
        <g id="组_6977" data-name="组 6977" transform="translate(35.402 47.761)">
          <path id="路径_4971" data-name="路径 4971" d="M343.152,396.342l-.833,8.29c-.311,3.112,1.536,4.672,3.465,4.734h.318c1.93-.062,3.776-1.622,3.465-4.734l-.833-8.29Z" transform="translate(-342.284 -396.342)" fill="#eff6ff"/>
        </g>
        <g id="组_6978" data-name="组 6978" transform="translate(36.266 10.289)">
          <path id="路径_4972" data-name="路径 4972" d="M349.49,85.343h5.582V122.8H349.49Z" transform="translate(-349.49 -85.343)" fill="#fde588"/>
        </g>
        <g id="组_6979" data-name="组 6979" transform="translate(44.705 0.903)">
          <path id="路径_4973" data-name="路径 4973" d="M419.521,16.876h2.791a1.609,1.609,0,0,0,1.6-1.6V9.1a1.607,1.607,0,0,0-1.6-1.6h-2.791a1.607,1.607,0,0,1,1.6,1.6v6.173A1.609,1.609,0,0,1,419.521,16.876Z" transform="translate(-419.521 -7.5)" fill="#ff6d75"/>
        </g>
        <g id="组_6980" data-name="组 6980" transform="translate(39.057 10.289)">
          <path id="路径_4974" data-name="路径 4974" d="M372.661,85.343h2.791V122.8h-2.791Z" transform="translate(-372.661 -85.343)" fill="#fdd76f"/>
        </g>
        <g id="组_6981" data-name="组 6981" transform="translate(37.664 47.761)">
          <path id="路径_4975" data-name="路径 4975" d="M362.458,396.342l.833,8.29c.242,2.431-.83,3.911-2.231,4.475a3.635,3.635,0,0,0,1.238.259h.318c1.93-.062,3.776-1.622,3.465-4.734l-.833-8.29h-2.791Z" transform="translate(-361.061 -396.342)" fill="#d9eeff"/>
        </g>
        <g id="组_6982" data-name="组 6982" transform="translate(2.733 6.668)">
          <path id="路径_4976" data-name="路径 4976" d="M71.2,55.366v44.56a9.552,9.552,0,1,0,19.1,0V98.169H78.617a2.2,2.2,0,0,1-2.189-2.194V63.4a2.2,2.2,0,0,1,2.189-2.194H90.306V55.366Z" transform="translate(-71.203 -55.366)" fill="#a1d4ff"/>
        </g>
        <g id="组_6983" data-name="组 6983" transform="translate(0.903 0.903)">
          <path id="路径_4977" data-name="路径 4977" d="M57.843,13.265H77.822a.956.956,0,0,0,.954-.954V8.451a.956.956,0,0,0-.954-.951H56.965a.955.955,0,0,0-.951.951v3.86a.956.956,0,0,0,.951.954Z" transform="translate(-56.014 -7.5)" fill="#eff6ff"/>
        </g>
        <g id="组_6984" data-name="组 6984" transform="translate(7.963 12.522)">
          <path id="路径_4978" data-name="路径 4978" d="M116.778,140.806h11.689V103.864H116.778a2.2,2.2,0,0,0-2.189,2.193v32.557A2.2,2.2,0,0,0,116.778,140.806Zm6.861-6.429h-4.108v-4.105h4.108Zm0-9.739h-4.108v-4.1h4.108Z" transform="translate(-114.589 -103.864)" fill="#eff6ff"/>
        </g>
        <g id="组_6985" data-name="组 6985" transform="translate(12.906 38.934)">
          <path id="路径_4979" data-name="路径 4979" d="M155.619,323.122h4.108v4.105h-4.108Z" transform="translate(-155.619 -323.122)" fill="#fe8d94"/>
        </g>
        <g id="组_6986" data-name="组 6986" transform="translate(12.906 29.191)">
          <path id="路径_4980" data-name="路径 4980" d="M155.619,242.264h4.108v4.105h-4.108Z" transform="translate(-155.619 -242.264)" fill="#fe8d94"/>
        </g>
        <g id="组_6987" data-name="组 6987" transform="translate(19.86 0.903)">
          <path id="路径_4981" data-name="路径 4981" d="M214.286,8.451v3.86a.959.959,0,0,1-.954.954h2.86a.956.956,0,0,0,.954-.954V8.451a.956.956,0,0,0-.954-.951h-2.86a.958.958,0,0,1,.954.951Z" transform="translate(-213.332 -7.5)" fill="#d9eeff"/>
        </g>
        <g id="组_6988" data-name="组 6988" transform="translate(18.981 6.668)">
          <path id="路径_4982" data-name="路径 4982" d="M206.039,55.366v5.841H208.9V55.366h-2.863Z" transform="translate(-206.039 -55.366)" fill="#86beec"/>
        </g>
        <g id="组_6989" data-name="组 6989" transform="translate(18.981 12.522)">
          <path id="路径_4983" data-name="路径 4983" d="M206.039,103.864H208.9v36.942h-2.863Z" transform="translate(-206.039 -103.864)" fill="#d9eeff"/>
        </g>
        <g id="组_6990" data-name="组 6990" transform="translate(10.858 49.476)">
          <path id="路径_4984" data-name="路径 4984" d="M146.741,412.34a9.584,9.584,0,0,1-8.12,9.445,9.3,9.3,0,0,0,1.432.107,9.58,9.58,0,0,0,9.552-9.552v-1.757h-2.863Z" transform="translate(-138.621 -410.583)" fill="#86beec"/>
        </g>
        <g id="组_6991" data-name="组 6991">
          <path id="路径_4985" data-name="路径 4985" d="M301.235,0H284.369a2.508,2.508,0,0,0-2.5,2.505V8.681a2.508,2.508,0,0,0,2.5,2.505h4.737V28.792a.9.9,0,1,0,1.807,0V11.187h3.775V46.852h-3.775V33.02a.9.9,0,1,0-1.807,0V47.71l-.829,8.249a5.373,5.373,0,0,0,1.153,4.246,4.363,4.363,0,0,0,3.181,1.483c.062,0,.126,0,.189,0s.127,0,.188,0a4.364,4.364,0,0,0,3.182-1.483,5.373,5.373,0,0,0,1.153-4.247l-.829-8.248V11.187h4.74a2.508,2.508,0,0,0,2.5-2.505V2.505A2.508,2.508,0,0,0,301.235,0Zm-6.424,59.014a2.577,2.577,0,0,1-1.882.868c-.083,0-.175,0-.259,0a2.575,2.575,0,0,1-1.881-.868,3.7,3.7,0,0,1-.714-2.875l.752-7.48h3.947l.752,7.479a3.705,3.705,0,0,1-.714,2.875Zm7.121-50.332a.707.707,0,0,1-.7.7H284.369a.707.707,0,0,1-.7-.7V2.505a.7.7,0,0,1,.7-.7h2.313V5.592a.9.9,0,1,0,1.807,0V1.807H291.9V5.592a.9.9,0,1,0,1.807,0V1.807h3.412V5.592a.9.9,0,1,0,1.807,0V1.807h2.313a.707.707,0,0,1,.7.7Z" transform="translate(-253.74)"/>
          <path id="路径_4986" data-name="路径 4986" d="M71.225,0H50.368a1.857,1.857,0,0,0-1.854,1.855V5.716a1.858,1.858,0,0,0,1.829,1.857V28.792a.9.9,0,1,0,1.807,0V7.575h17.3v4.036H58.661a3.1,3.1,0,0,0-3.092,3.1v32.57a3.1,3.1,0,0,0,3.092,3.1H69.447v.854a8.648,8.648,0,1,1-17.3,0V33.02a.9.9,0,1,0-1.807,0V51.229a10.455,10.455,0,1,0,20.91,0V7.573a1.86,1.86,0,0,0,1.829-1.857V1.855A1.858,1.858,0,0,0,71.225,0ZM69.447,48.568H58.661a1.289,1.289,0,0,1-1.286-1.29V14.708a1.289,1.289,0,0,1,1.286-1.29H69.447Zm1.83-42.851a.053.053,0,0,1-.051.051H50.368a.053.053,0,0,1-.048-.051V1.855a.052.052,0,0,1,.048-.048H71.225a.053.053,0,0,1,.051.048Z" transform="translate(-48.514)"/>
          <path id="路径_4987" data-name="路径 4987" d="M149.022,240.676h4.108a.9.9,0,0,0,.9-.9v-4.105a.9.9,0,0,0-.9-.9h-4.108a.9.9,0,0,0-.9.9v4.105a.9.9,0,0,0,.9.9Zm.9-4.1h2.3v2.3h-2.3Z" transform="translate(-136.117 -206.476)"/>
          <path id="路径_4988" data-name="路径 4988" d="M149.022,321.535h4.108a.9.9,0,0,0,.9-.9v-4.105a.9.9,0,0,0-.9-.9h-4.108a.9.9,0,0,0-.9.9v4.105a.9.9,0,0,0,.9.9Zm.9-4.105h2.3v2.3h-2.3Z" transform="translate(-136.117 -277.592)"/>
          <path id="路径_4989" data-name="路径 4989" d="M149.022,150.315h4.108a.9.9,0,1,0,0-1.807h-4.108a.9.9,0,1,0,0,1.807Z" transform="translate(-136.117 -130.614)"/>
          <path id="路径_4990" data-name="路径 4990" d="M149.022,184.973h4.108a.9.9,0,1,0,0-1.807h-4.108a.9.9,0,1,0,0,1.807Z" transform="translate(-136.117 -161.096)"/>
        </g>
      </g>
      <text id="Primary_Care" data-name="Primary Care" transform="translate(98 152.465)" fill="#143459" font-size="20" font-family="SegoeUI, Segoe UI" letter-spacing="-0.02em"><tspan x="-54.04" y="0">Primary Care</tspan></text>
    </g>
  </g>
</svg>
