<svg xmlns="http://www.w3.org/2000/svg" width="19.941" height="19.304" viewBox="0 0 19.941 19.304">
  <g id="组_9632" data-name="组 9632" transform="translate(-37 -324.25)">
    <g id="组_9631" data-name="组 9631" transform="translate(0 105.828)">
      <path id="路径_9550" data-name="路径 9550" d="M-2376.3,1729v3.288" transform="translate(2426 -1509.827)" fill="none" stroke="#fff" stroke-linecap="round" stroke-width="1.5"/>
      <path id="路径_9551" data-name="路径 9551" d="M-2376.3,1729v3.288" transform="translate(2419 -1509.827)" fill="none" stroke="#fff" stroke-linecap="round" stroke-width="1.5"/>
      <path id="路径_9553" data-name="路径 9553" d="M-2376.3,1729v4.041" transform="translate(-1688.942 -2146.481) rotate(-90)" fill="none" stroke="#fff" stroke-linecap="round" stroke-width="1.5"/>
      <path id="路径_9554" data-name="路径 9554" d="M-2376.3,1729v4.041" transform="translate(-1688.942 -2143.481) rotate(-90)" fill="none" stroke="#fff" stroke-linecap="round" stroke-width="1.5"/>
      <g id="矩形_18747" data-name="矩形 18747" transform="translate(37 220)" fill="#fff" stroke="#fff" stroke-width="1">
        <path d="M2,0H17a2,2,0,0,1,2,2V6a0,0,0,0,1,0,0H0A0,0,0,0,1,0,6V2A2,2,0,0,1,2,0Z" stroke="none"/>
        <path d="M2,.5H17A1.5,1.5,0,0,1,18.5,2V5a.5.5,0,0,1-.5.5H1A.5.5,0,0,1,.5,5V2A1.5,1.5,0,0,1,2,.5Z" fill="none"/>
      </g>
      <path id="路径_9552" data-name="路径 9552" d="M-2380.192,1746.761h-6.819a1.644,1.644,0,0,1-1.535-1.847c.019-1.805,0-8.94,0-8.94" transform="translate(2426.046 -1510.083)" fill="none" stroke="#fff" stroke-width="1"/>
    </g>
    <path id="路径_9555" data-name="路径 9555" d="M3.661,9.879A5,5,0,0,1,2.1,9.125L2.12,8.11A.913.913,0,0,0,1.392,7.2l-1-.206A5,5,0,0,1,.012,5.3l.807-.616a.913.913,0,0,0,.26-1.139l-.46-.906A5.043,5.043,0,0,1,1.7,1.283l.985.247a.913.913,0,0,0,1.052-.507L4.16.1A5.076,5.076,0,0,1,5.894.1l.422.924a.913.913,0,0,0,1.052.507l.985-.247A5.043,5.043,0,0,1,9.435,2.638l-.46.906a.913.913,0,0,0,.26,1.139l.807.616a5,5,0,0,1-.385,1.691l-1,.206a.913.913,0,0,0-.728.913l.021,1.016a5,5,0,0,1-1.562.753l-.782-.65a.913.913,0,0,0-1.168,0l-.782.65ZM5.027,7.1A2.054,2.054,0,1,0,2.973,5.045,2.054,2.054,0,0,0,5.027,7.1Z" transform="translate(46.898 333.676)" fill="#fff"/>
  </g>
</svg>
