<svg id="组_8616" data-name="组 8616" xmlns="http://www.w3.org/2000/svg" width="36" height="36" viewBox="0 0 36 36">
  <path id="路径_9654" data-name="路径 9654" d="M18,0A18,18,0,1,1,0,18,18,18,0,0,1,18,0Z" fill="#c1c1c1"/>
  <g id="doctor" transform="translate(10.319 7.924)">
    <path id="路径_5665" data-name="路径 5665" d="M273.831,285.827h-6.4V284.8c.906-.481,1.9-5.658,2.639-5.636,2.874.593,4.909,2.225,4.909,5.334C274.95,285.313,274.569,285.827,273.831,285.827Zm-2.471-10.4a4.278,4.278,0,0,1-8.454-.011,1.464,1.464,0,0,1-.783-1.208c-.168-1.006.447-1.252.447-1.252q.067,0,.134.1a1.882,1.882,0,0,1,.481-.727,5.886,5.886,0,0,1,4.026-1.208c1.6-.011,2.717.1,3.858,1.185a2.038,2.038,0,0,1,.492.794c.056-.089.112-.145.168-.134,0,0,.626.246.458,1.252A1.49,1.49,0,0,1,271.36,275.428Z" transform="translate(-259.429 -266.27)" fill="#fff"/>
    <path id="路径_5666" data-name="路径 5666" d="M139.428,34.133a9.688,9.688,0,0,0-4.551,1.275v4.249s1.364-1.554,4.674-1.554c3.288,0,4.674,1.566,4.674,1.566V35.419A11.743,11.743,0,0,0,139.428,34.133Zm1.409,2.3h-1.029v1.029h-.548V36.437h-1.018v-.559h1.018V34.849h.548v1.029h1.029Zm-1.4,16.225v1.029c-2.784,0-4.73-.011-6.4,0-.716,0-1.107-.514-1.152-1.32,0-3.109,2.035-4.752,4.909-5.334.76-.034,1.744,5.144,2.639,5.625Z" transform="translate(-131.891 -34.133)" fill="#fff"/>
  </g>
</svg>
