<svg xmlns="http://www.w3.org/2000/svg" xmlns:xlink="http://www.w3.org/1999/xlink" width="214" height="214" viewBox="0 0 214 214">
  <defs>
    <filter id="矩形_17403" x="0" y="0" width="214" height="214" filterUnits="userSpaceOnUse">
      <feOffset dy="3" input="SourceAlpha"/>
      <feGaussianBlur stdDeviation="3" result="blur"/>
      <feFlood flood-opacity="0.161"/>
      <feComposite operator="in" in2="blur"/>
      <feComposite in="SourceGraphic"/>
    </filter>
  </defs>
  <g id="组件_45_2" data-name="组件 45 – 2" transform="translate(9 5.578)">
    <g id="组_10166" data-name="组 10166">
      <g transform="matrix(1, 0, 0, 1, -9, -5.58)" filter="url(#矩形_17403)">
        <g id="矩形_17403-2" data-name="矩形 17403" transform="translate(9 6)" fill="#fff" stroke="#dfe1e5" stroke-width="1">
          <rect width="196" height="196" rx="11" stroke="none"/>
          <rect x="0.5" y="0.5" width="195" height="195" rx="10.5" fill="none"/>
        </g>
      </g>
      <g id="组_10165" data-name="组 10165" transform="translate(0 -8.207)">
        <text id="Rapid_COVID_test" data-name="Rapid COVID test" transform="translate(25 153)" fill="#143459" font-size="20" font-family="SegoeUI, Segoe UI" letter-spacing="-0.02em"><tspan x="0" y="0">Rapid COVID test</tspan></text>
        <g id="组_7077" data-name="组 7077" transform="translate(66 53.629)">
          <g id="组_7004" data-name="组 7004" transform="translate(1.132 1.132)">
            <g id="组_6993" data-name="组 6993">
              <ellipse id="椭圆_640" data-name="椭圆 640" cx="30.617" cy="30.61" rx="30.617" ry="30.61" fill="#1785f8"/>
              <path id="路径_4991" data-name="路径 4991" d="M277.877,38.11c0,16.9-16.791,30.61-37.5,30.61q-1.426,0-2.828-.085c19.39-1.181,34.674-14.4,34.674-30.525S256.935,8.766,237.545,7.585q1.4-.085,2.828-.085c20.712,0,37.5,13.7,37.5,30.61Z" transform="translate(-216.643 -7.5)" fill="#1576f7"/>
            </g>
            <g id="组_6994" data-name="组 6994" transform="translate(4.744 4.744)">
              <ellipse id="椭圆_641" data-name="椭圆 641" cx="25.873" cy="25.865" rx="25.873" ry="25.865" fill="#f2fbff"/>
              <path id="路径_4992" data-name="路径 4992" d="M272.529,64.8c0,14.285-14.666,25.865-32.759,25.865q-1.485,0-2.935-.1c16.714-1.175,29.819-12.26,29.819-25.762s-13.1-24.587-29.819-25.762q1.451-.1,2.935-.1C257.863,38.94,272.529,50.52,272.529,64.8Z" transform="translate(-220.784 -38.94)" fill="#c9f0fd"/>
            </g>
            <g id="组_6997" data-name="组 6997" transform="translate(11.292 14.112)">
              <g id="组_6995" data-name="组 6995">
                <circle id="椭圆_642" data-name="椭圆 642" cx="11.668" cy="11.668" r="11.668" transform="translate(0 0)" fill="#fc9085"/>
                <path id="路径_4993" data-name="路径 4993" d="M185.861,146.709A11.678,11.678,0,0,1,171.9,158.15a11.671,11.671,0,0,0,0-22.884,11.678,11.678,0,0,1,13.966,11.443Z" transform="translate(-162.524 -135.04)" fill="#fc7c6a"/>
              </g>
              <g id="组_6996" data-name="组 6996" transform="translate(5.752 8.86)">
                <circle id="椭圆_643" data-name="椭圆 643" cx="4.255" cy="4.255" r="4.255" fill="#f82f40"/>
                <path id="路径_4994" data-name="路径 4994" d="M166.231,198a4.254,4.254,0,0,1-6.766,3.433,4.254,4.254,0,0,0,2.033-7.661,4.177,4.177,0,0,1,.478-.027A4.254,4.254,0,0,1,166.231,198Z" transform="translate(-157.721 -193.75)" fill="#e22334"/>
              </g>
            </g>
            <g id="组_6999" data-name="组 6999" transform="translate(17.581 39.53)">
              <g id="组_6998" data-name="组 6998">
                <circle id="椭圆_644" data-name="椭圆 644" cx="4.124" cy="4.124" r="4.124" fill="#fc9085"/>
                <path id="路径_4995" data-name="路径 4995" d="M172.609,341.731a4.121,4.121,0,0,1-6.5,3.364,4.125,4.125,0,0,0,1.191-7.314,4.125,4.125,0,0,1,5.314,3.95Z" transform="translate(-164.361 -337.606)" fill="#fc7c6a"/>
              </g>
            </g>
            <g id="组_7001" data-name="组 7001" transform="translate(28.006 44.927)">
              <g id="组_7000" data-name="组 7000">
                <circle id="椭圆_645" data-name="椭圆 645" cx="3.477" cy="3.477" r="3.477" fill="#3f5959"/>
                <path id="路径_4996" data-name="路径 4996" d="M255.658,384.305a3.474,3.474,0,0,1-5.484,2.836,3.477,3.477,0,0,0,1-6.166,3.477,3.477,0,0,1,4.48,3.33Z" transform="translate(-248.704 -380.828)" fill="#384848"/>
              </g>
            </g>
            <g id="组_7003" data-name="组 7003" transform="translate(32.593 11.527)">
              <g id="组_7002" data-name="组 7002">
                <circle id="椭圆_646" data-name="椭圆 646" cx="3.477" cy="3.477" r="3.477" transform="translate(0 0)" fill="#3f5959"/>
                <path id="路径_4997" data-name="路径 4997" d="M293.768,106.759a3.474,3.474,0,0,1-5.484,2.836,3.477,3.477,0,0,0,1-6.166,3.477,3.477,0,0,1,4.48,3.33Z" transform="translate(-286.814 -103.282)" fill="#384848"/>
              </g>
            </g>
          </g>
          <g id="组_7017" data-name="组 7017">
            <g id="组_7006" data-name="组 7006" transform="translate(46.793 29.053)">
              <g id="组_7005" data-name="组 7005">
                <circle id="椭圆_647" data-name="椭圆 647" cx="2.408" cy="2.408" r="2.408" transform="translate(0 0)" fill="#fcb3a9"/>
                <path id="路径_4998" data-name="路径 4998" d="M395.754,240.158a2.408,2.408,0,0,1-3.442,2.175,2.409,2.409,0,0,0,0-4.35,2.408,2.408,0,0,1,3.442,2.175Z" transform="translate(-390.938 -237.75)" fill="#fc9085"/>
              </g>
            </g>
            <g id="组_7008" data-name="组 7008" transform="translate(37.705 27.249)">
              <g id="组_7007" data-name="组 7007">
                <circle id="椭圆_648" data-name="椭圆 648" cx="2.408" cy="2.408" r="2.408" transform="translate(0 0)" fill="#fcb3a9"/>
                <path id="路径_4999" data-name="路径 4999" d="M321.383,225.394a2.408,2.408,0,0,1-3.442,2.175,2.409,2.409,0,0,0,0-4.35,2.408,2.408,0,0,1,3.442,2.175Z" transform="translate(-316.567 -222.986)" fill="#fc9085"/>
              </g>
            </g>
            <g id="组_7009" data-name="组 7009" transform="translate(34.294 28.168)">
              <circle id="椭圆_649" data-name="椭圆 649" cx="8.537" cy="8.537" r="8.537" transform="translate(0 0.001)" fill="#f82f40"/>
              <path id="路径_5000" data-name="路径 5000" d="M349.066,250.633a8.543,8.543,0,0,1-10.51,8.308,8.54,8.54,0,0,0,0-16.616,8.543,8.543,0,0,1,10.51,8.308Z" transform="translate(-331.991 -242.095)" fill="#e22334"/>
            </g>
            <g id="组_7011" data-name="组 7011" transform="translate(44.204 40.579)">
              <g id="组_7010" data-name="组 7010">
                <circle id="椭圆_650" data-name="椭圆 650" cx="2.408" cy="2.408" r="2.408" transform="translate(0 0)" fill="#fcb3a9"/>
                <path id="路径_5001" data-name="路径 5001" d="M374.567,334.481a2.408,2.408,0,0,1-3.442,2.175,2.409,2.409,0,0,0,0-4.35,2.408,2.408,0,0,1,3.442,2.175Z" transform="translate(-369.751 -332.073)" fill="#fc9085"/>
              </g>
            </g>
            <g id="组_7013" data-name="组 7013" transform="translate(43.033 33.576)">
              <g id="组_7012" data-name="组 7012">
                <circle id="椭圆_651" data-name="椭圆 651" cx="2.408" cy="2.408" r="2.408" transform="translate(0 0)" fill="#fcb3a9"/>
                <path id="路径_5002" data-name="路径 5002" d="M364.987,277.172a2.408,2.408,0,0,1-3.442,2.175,2.409,2.409,0,0,0,0-4.35,2.408,2.408,0,0,1,3.442,2.175Z" transform="translate(-360.172 -274.764)" fill="#fc9085"/>
              </g>
            </g>
            <g id="组_7016" data-name="组 7016">
              <g id="组_7015" data-name="组 7015">
                <circle id="椭圆_652" data-name="椭圆 652" cx="2.408" cy="2.408" r="2.408" transform="translate(36.311 38.923)" fill="#fcb3a9"/>
                <path id="路径_5003" data-name="路径 5003" d="M309.977,320.923a2.408,2.408,0,0,1-3.442,2.175,2.409,2.409,0,0,0,0-4.35,2.408,2.408,0,0,1,3.442,2.175Z" transform="translate(-268.948 -279.593)" fill="#fc9085"/>
                <g id="组_7014" data-name="组 7014">
                  <path id="路径_5004" data-name="路径 5004" d="M62.829,32.881a.929.929,0,0,0-.989.866,29.88,29.88,0,1,1,0-4.069.93.93,0,1,0,1.856-.127A31.741,31.741,0,0,0,9.582,9.3,31.741,31.741,0,0,0,53.755,54.878,31.612,31.612,0,0,0,63.7,33.871a.93.93,0,0,0-.866-.989Z" transform="translate(-0.285)"/>
                  <path id="路径_5005" data-name="路径 5005" d="M60.7,85.339l.068,0a27.021,27.021,0,1,0-4.206-.009.9.9,0,1,0,.142-1.8,25.2,25.2,0,1,1,3.929.009.9.9,0,0,0,.067,1.8Z" transform="translate(-26.978 -26.693)"/>
                  <path id="路径_5006" data-name="路径 5006" d="M127.9,140.342a12.749,12.749,0,0,0-2.084-7,1.132,1.132,0,1,0-1.894,1.239,10.528,10.528,0,1,1-3.3-3.218,1.132,1.132,0,0,0,1.188-1.927,12.8,12.8,0,1,0,6.094,10.9Z" transform="translate(-91.016 -113.43)"/>
                  <path id="路径_5007" data-name="路径 5007" d="M140.411,191.636a5.387,5.387,0,1,0,5.387-5.387,5.393,5.393,0,0,0-5.387,5.387Zm8.509,0a3.123,3.123,0,1,1-3.123-3.123A3.126,3.126,0,0,1,148.92,191.636Z" transform="translate(-123.649 -163.969)"/>
                  <path id="路径_5008" data-name="路径 5008" d="M147.054,335.361a5.256,5.256,0,1,0,5.256-5.256A5.262,5.262,0,0,0,147.054,335.361Zm8.248,0a2.992,2.992,0,1,1-2.992-2.992A3,3,0,0,1,155.3,335.361Z" transform="translate(-129.479 -290.575)"/>
                  <path id="路径_5009" data-name="路径 5009" d="M237.545,382.545a4.609,4.609,0,1,0-4.609-4.609A4.614,4.614,0,0,0,237.545,382.545Zm0-6.954a2.345,2.345,0,1,1-2.345,2.345A2.348,2.348,0,0,1,237.545,375.592Z" transform="translate(-204.939 -328.401)"/>
                  <path id="路径_5010" data-name="路径 5010" d="M275.655,95.782a4.609,4.609,0,1,0,4.609,4.609A4.614,4.614,0,0,0,275.655,95.782Zm0,6.954A2.345,2.345,0,1,1,278,100.391,2.348,2.348,0,0,1,275.655,102.736Z" transform="translate(-238.463 -84.255)"/>
                  <path id="路径_5011" data-name="路径 5011" d="M368.8,160.545h.051a1.132,1.132,0,0,0,1.081-1.181l0-.045a1.132,1.132,0,1,0-2.262.1l0,.045a1.132,1.132,0,0,0,1.13,1.082Z" transform="translate(-322.415 -138.748)"/>
                  <path id="路径_5012" data-name="路径 5012" d="M367.588,191.5a1.132,1.132,0,0,0,1.13,1.082h.051a1.132,1.132,0,0,0,1.081-1.181l0-.045a1.132,1.132,0,0,0-2.262.1Z" transform="translate(-322.342 -166.837)"/>
                  <path id="路径_5013" data-name="路径 5013" d="M383.96,176.7h.057l.042,0a1.132,1.132,0,0,0-.111-2.261l-.042,0a1.132,1.132,0,0,0,.055,2.262Z" transform="translate(-335.714 -152.952)"/>
                  <path id="路径_5014" data-name="路径 5014" d="M353.347,176.615l.042,0a1.132,1.132,0,1,0-.111-2.261l-.042,0a1.132,1.132,0,0,0,.055,2.262Z" transform="translate(-308.823 -152.875)"/>
                  <path id="路径_5015" data-name="路径 5015" d="M100.4,293.478a1.132,1.132,0,1,0-2.262.1l0,.045a1.132,1.132,0,0,0,1.13,1.084h.049a1.132,1.132,0,0,0,1.083-1.179Z" transform="translate(-86.088 -256.383)"/>
                  <path id="路径_5016" data-name="路径 5016" d="M99.139,324.431a1.132,1.132,0,0,0-1.081,1.181l0,.045a1.132,1.132,0,0,0,1.13,1.082h.051a1.132,1.132,0,0,0,1.081-1.181l0-.045A1.133,1.133,0,0,0,99.139,324.431Z" transform="translate(-86.014 -284.472)"/>
                  <path id="路径_5017" data-name="路径 5017" d="M114.422,308.6l-.042,0a1.132,1.132,0,0,0,.053,2.263h.054l.042,0a1.132,1.132,0,0,0-.107-2.261Z" transform="translate(-99.382 -270.586)"/>
                  <path id="路径_5018" data-name="路径 5018" d="M83.709,308.513a1.132,1.132,0,0,0,.055,2.262h.057l.042,0a1.132,1.132,0,0,0-.111-2.261Z" transform="translate(-70.205 -270.508)"/>
                  <path id="路径_5019" data-name="路径 5019" d="M296.66,218.391a3.54,3.54,0,1,0-6.269,2.821,9.656,9.656,0,0,0-2.069,10.593,3.538,3.538,0,0,0,4.565,4.878,9.627,9.627,0,0,0,5.506.956,3.538,3.538,0,0,0,6.161-3.29,9.658,9.658,0,0,0,1.6-10.013,3.541,3.541,0,1,0-4.724-5,9.61,9.61,0,0,0-4.205-.964c-.191,0-.38.007-.568.018Zm-3.481-.638a1.278,1.278,0,0,1,1.252,1.035,9.621,9.621,0,0,0-2.263,1.02,1.275,1.275,0,0,1,1.01-2.054Zm-3,15.693a1.276,1.276,0,1,1,1.276,1.276A1.277,1.277,0,0,1,290.181,233.446Zm11.024,3.322a1.276,1.276,0,1,1,1.276-1.276A1.277,1.277,0,0,1,301.205,236.768Zm1.919-4.248a3.536,3.536,0,0,0-5.458,2.913c-.146.009-.292.014-.439.014a7.428,7.428,0,0,1-2.581-.467,3.538,3.538,0,0,0-4.514-4.816,7.406,7.406,0,1,1,12.992,2.356Zm1.278-12.54a1.275,1.275,0,0,1,.641,2.378,9.746,9.746,0,0,0-1.705-1.8,1.283,1.283,0,0,1,1.064-.574Z" transform="translate(-254.716 -191.313)"/>
                  <path id="路径_5020" data-name="路径 5020" d="M348.484,267.266a3.54,3.54,0,1,0,3.54,3.54A3.544,3.544,0,0,0,348.484,267.266Zm0,4.816a1.276,1.276,0,1,1,1.276-1.276A1.277,1.277,0,0,1,348.484,272.082Z" transform="translate(-303.147 -234.854)"/>
                </g>
              </g>
            </g>
          </g>
        </g>
      </g>
    </g>
  </g>
</svg>
