<svg xmlns="http://www.w3.org/2000/svg" width="74" height="74" viewBox="0 0 74 74">
  <g id="组_10713" data-name="组 10713" transform="translate(2.999)">
    <path id="ic_radio_button_unchecked_24px" d="M39,76A37,37,0,1,0,2,39,37.014,37.014,0,0,0,39,76ZM39,9.4A29.6,29.6,0,1,1,9.4,39,29.592,29.592,0,0,1,39,9.4Z" transform="translate(-4.999 -2)" fill="#fb5051"/>
    <path id="路径_5757" data-name="路径 5757" d="M445.426,172.8a2.507,2.507,0,0,1-4.927,0l-1.642-22.432a4.1,4.1,0,0,1,4.106-4.079,4.2,4.2,0,0,1,4.106,4.486Zm-2.463,6.118a4.079,4.079,0,1,1-4.106,4.078A3.866,3.866,0,0,1,442.963,178.914Z" transform="translate(-408.964 -129.679)" fill="#fb5051"/>
  </g>
</svg>
