<svg id="组_9753" data-name="组 9753" xmlns="http://www.w3.org/2000/svg" width="36" height="36" viewBox="0 0 36 36">
  <circle id="椭圆_696" data-name="椭圆 696" cx="18" cy="18" r="18" fill="#f8ae29"/>
  <path id="路径_5805" data-name="路径 5805" d="M88.719,58.3l-8.9-6.893a2.319,2.319,0,0,0-2.734,0l-8.9,6.893a.679.679,0,0,0-.116.966.7.7,0,0,0,.976.114l.442-.262V70.369a2.091,2.091,0,0,0,2.224,1.941H85.755c1.1,0,1.68-.706,1.68-1.941V59.113l.4.262a.725.725,0,0,0,.441.148.708.708,0,0,0,.553-.262A.678.678,0,0,0,88.719,58.3ZM80.8,70.757H76.121V64.935a2.382,2.382,0,0,1,4.682,0Z" transform="translate(-60.894 -44.213)" fill="#fff"/>
</svg>
