<svg xmlns="http://www.w3.org/2000/svg" xmlns:xlink="http://www.w3.org/1999/xlink" width="100" height="100" viewBox="0 0 100 100">
  <defs>
    <filter id="矩形_32" x="0" y="0" width="100" height="100" filterUnits="userSpaceOnUse">
      <feOffset input="SourceAlpha"/>
      <feGaussianBlur stdDeviation="3" result="blur"/>
      <feFlood flood-opacity="0.161"/>
      <feComposite operator="in" in2="blur"/>
      <feComposite in="SourceGraphic"/>
    </filter>
  </defs>
  <g id="组_11344" data-name="组 11344" transform="translate(-1522 -138)">
    <g id="组件_57_7" data-name="组件 57 – 7" transform="translate(1424.25 153)">
      <g id="组_7089" data-name="组 7089" transform="translate(0.75 -6)">
        <g transform="matrix(1, 0, 0, 1, 97, -9)" filter="url(#矩形_32)">
          <rect id="矩形_32-2" data-name="矩形 32" width="82" height="82" rx="11" transform="translate(9 9)" fill="#143459"/>
        </g>
      </g>
    </g>
    <path id="路径_9657" data-name="路径 9657" d="M29.587,29.586a1.413,1.413,0,0,1-2,0l-4-4a1.413,1.413,0,0,1,2-2l4,4A1.413,1.413,0,0,1,29.587,29.586ZM12.959,25.918A12.959,12.959,0,1,1,25.918,12.959,12.959,12.959,0,0,1,12.959,25.918Zm0-23.19A10.231,10.231,0,1,0,23.19,12.959,10.231,10.231,0,0,0,12.959,2.728Z" transform="translate(1557 173)" fill="#fff"/>
  </g>
</svg>
