<svg xmlns="http://www.w3.org/2000/svg" xmlns:xlink="http://www.w3.org/1999/xlink" width="112" height="112" viewBox="0 0 112 112">
  <defs>
    <filter id="矩形_19751" x="0" y="0" width="112" height="112" filterUnits="userSpaceOnUse">
      <feOffset input="SourceAlpha"/>
      <feGaussianBlur stdDeviation="5" result="blur"/>
      <feFlood flood-opacity="0.161"/>
      <feComposite operator="in" in2="blur"/>
      <feComposite in="SourceGraphic"/>
    </filter>
  </defs>
  <g id="组_11343" data-name="组 11343" transform="translate(-1516 -822)">
    <g transform="matrix(1, 0, 0, 1, 1516, 822)" filter="url(#矩形_19751)">
      <rect id="矩形_19751-2" data-name="矩形 19751" width="82" height="82" rx="41" transform="translate(15 15)" fill="#143459"/>
    </g>
    <path id="路径_9657" data-name="路径 9657" d="M29.587,29.586a1.413,1.413,0,0,1-2,0l-4-4a1.413,1.413,0,0,1,2-2l4,4A1.413,1.413,0,0,1,29.587,29.586ZM12.959,25.919A12.959,12.959,0,1,1,25.919,12.959,12.959,12.959,0,0,1,12.959,25.919Zm0-23.19A10.231,10.231,0,1,0,23.19,12.959,10.231,10.231,0,0,0,12.959,2.728Z" transform="translate(1559 865)" fill="#fff"/>
  </g>
</svg>
