<?xml version="1.0" standalone="no"?><!DOCTYPE svg PUBLIC "-//W3C//DTD SVG 1.1//EN" "http://www.w3.org/Graphics/SVG/1.1/DTD/svg11.dtd"><svg class="icon" width="200px" height="200.00px" viewBox="0 0 1024 1024" version="1.1" xmlns="http://www.w3.org/2000/svg"><path d="M933.888 512c0-59.904 37.376-110.592 90.112-131.072-12.8-49.152-32.256-95.744-57.344-138.752-51.712 23.04-114.176 13.824-156.16-28.672-42.496-42.496-51.712-104.96-28.672-156.16-43.008-25.6-89.6-45.056-138.752-57.344-20.48 52.736-71.168 90.112-131.072 90.112-59.904 0-110.592-37.376-131.072-90.112-49.152 12.8-95.744 32.256-138.752 57.344 23.04 51.712 13.824 114.176-28.672 156.16s-104.96 51.712-156.16 28.672C32.256 285.184 12.8 331.776 0 380.928c52.736 20.48 90.112 71.168 90.112 131.072 0 59.904-37.376 110.592-90.112 131.072 12.8 49.152 32.256 95.744 57.344 138.752 51.712-23.04 114.176-13.824 156.16 28.672 42.496 42.496 51.712 104.96 28.672 156.16 43.008 25.6 89.6 45.056 138.752 57.344 20.48-52.736 71.168-90.112 131.072-90.112 59.904 0 110.592 37.376 131.072 90.112 49.152-12.8 95.744-32.256 138.752-57.344-23.04-51.712-13.824-114.176 28.672-156.16s104.96-51.712 156.16-28.672c25.6-42.496 45.056-89.088 57.344-138.752-52.736-20.48-90.112-71.168-90.112-131.072zM512 652.8c-77.824 0-140.8-62.976-140.8-140.8S434.176 371.2 512 371.2s140.8 62.976 140.8 140.8-62.976 140.8-140.8 140.8z" fill="#ffffff" /></svg>