<svg xmlns="http://www.w3.org/2000/svg" xmlns:xlink="http://www.w3.org/1999/xlink" width="214" height="214" viewBox="0 0 214 214">
  <defs>
    <filter id="矩形_17403" x="0" y="0" width="214" height="214" filterUnits="userSpaceOnUse">
      <feOffset dy="3" input="SourceAlpha"/>
      <feGaussianBlur stdDeviation="3" result="blur"/>
      <feFlood flood-opacity="0.161"/>
      <feComposite operator="in" in2="blur"/>
      <feComposite in="SourceGraphic"/>
    </filter>
  </defs>
  <g id="组件_44_4" data-name="组件 44 – 4" transform="translate(9 5.578)">
    <g id="组_10168" data-name="组 10168">
      <g transform="matrix(1, 0, 0, 1, -9, -5.58)" filter="url(#矩形_17403)">
        <g id="矩形_17403-2" data-name="矩形 17403" transform="translate(9 6)" fill="#fff" stroke="#dfe1e5" stroke-width="1">
          <rect width="196" height="196" rx="11" stroke="none"/>
          <rect x="0.5" y="0.5" width="195" height="195" rx="10.5" fill="none"/>
        </g>
      </g>
      <g id="组_10167" data-name="组 10167" transform="translate(0 -7.689)">
        <text id="Skin_allergy" data-name="Skin allergy" transform="translate(50 153)" fill="#143459" font-size="20" font-family="SegoeUI, Segoe UI" letter-spacing="-0.02em"><tspan x="0" y="0">Skin allergy</tspan></text>
        <g id="组_7076" data-name="组 7076" transform="translate(69 54.111)">
          <g id="组_7021" data-name="组 7021">
            <path id="路径_5021" data-name="路径 5021" d="M224.693,91.445h29.654v11.64H224.693Z" transform="translate(-201.71 -80.274)" fill="#688d97"/>
            <path id="路径_5022" data-name="路径 5022" d="M229.323,323.63v9.517H190.679V323.63a16.576,16.576,0,0,1,16.576-16.576h5.492a16.576,16.576,0,0,1,16.576,16.576Z" transform="translate(-172.191 -270.712)" fill="#21c1f8"/>
            <path id="路径_5023" data-name="路径 5023" d="M344.844,323.629v9.516h-4.478v-9.516a16.576,16.576,0,0,0-16.575-16.576h4.477a16.576,16.576,0,0,1,16.576,16.576Z" transform="translate(-287.712 -270.711)" fill="#1faaee"/>
            <path id="路径_5024" data-name="路径 5024" d="M317.31,277.036v6.256a3.516,3.516,0,0,1-7.033,0v-6.256Z" transform="translate(-274.797 -243.104)" fill="#fdb0a0"/>
            <g id="组_7019" data-name="组 7019" transform="translate(21.034 18.211)">
              <path id="路径_5025" data-name="路径 5025" d="M317.31,277.036v4.717a8.624,8.624,0,0,1-7.033,0v-4.717Z" transform="translate(-297.018 -260.499)" fill="#f9a08f"/>
              <circle id="椭圆_653" data-name="椭圆 653" cx="4.027" cy="4.027" r="4.027" transform="translate(25.498)" fill="#f9a08f"/>
              <circle id="椭圆_654" data-name="椭圆 654" cx="4.027" cy="4.027" r="4.027" fill="#f9a08f"/>
            </g>
            <path id="路径_5026" data-name="路径 5026" d="M272.246,66.07v7.736a11.611,11.611,0,1,1-23.221.145V66.07a11.611,11.611,0,1,1,23.221,0Z" transform="translate(-222.826 -47.263)" fill="#fdb0a0"/>
            <path id="路径_5027" data-name="路径 5027" d="M272.246,66.07v1.689a9.441,9.441,0,0,1-2.943.466H251.97a9.471,9.471,0,0,1-2.945-.468V66.07a11.611,11.611,0,1,1,23.221,0Z" transform="translate(-222.826 -47.263)" fill="#f9a08f"/>
            <path id="路径_5028" data-name="路径 5028" d="M230.571,7.5a10.531,10.531,0,0,0-10.393,8.65q-.1.568-.164,1.151a6.8,6.8,0,0,0,.471,3.322v0a6.782,6.782,0,0,0,6.272,4.2h17.334a6.785,6.785,0,0,0,6.743-7.524q-.063-.584-.164-1.154A10.531,10.531,0,0,0,240.28,7.5Z" transform="translate(-197.615 -6.509)" fill="#3f5959"/>
            <path id="路径_5029" data-name="路径 5029" d="M357.086,18.043a6.783,6.783,0,0,1-6.783,6.788h-4.131a6.783,6.783,0,0,0,6.783-6.788,6.883,6.883,0,0,0-.04-.736c-.042-.389-.1-.774-.164-1.154A10.531,10.531,0,0,0,342.359,7.5h4.131a10.531,10.531,0,0,1,10.393,8.65c.067.379.122.765.164,1.154a6.886,6.886,0,0,1,.04.736Z" transform="translate(-303.826 -6.512)" fill="#384848"/>
            <g id="组_7020" data-name="组 7020">
              <path id="路径_5030" data-name="路径 5030" d="M419.471,411.732a.991.991,0,0,0-.991.991v11.268a.991.991,0,0,0,1.982,0V412.723A.991.991,0,0,0,419.471,411.732Z" transform="translate(-369.887 -361.557)"/>
              <path id="路径_5031" data-name="路径 5031" d="M241.288,411.732a.991.991,0,0,0-.991.991v11.268a.991.991,0,0,0,1.982,0V412.723A.991.991,0,0,0,241.288,411.732Z" transform="translate(-213.24 -361.557)"/>
              <path id="路径_5032" data-name="路径 5032" d="M64.709,37.191V36.035a11.987,11.987,0,0,0,7.347-8.757c.126.01.252.017.379.017a4.7,4.7,0,0,0,2.877-8.421v-5.2c.013-.03.027-.06.039-.091a7.329,7.329,0,0,0,.5-3.56c-.041-.383-.1-.767-.163-1.144A10.775,10.775,0,0,0,65.034,0h-.186a.929.929,0,1,0,0,1.858h.186A8.919,8.919,0,0,1,73.861,9.2c.059.336.108.679.145,1.021a5.466,5.466,0,0,1-.374,2.655,5.409,5.409,0,0,1-5.023,3.368H52.36a5.41,5.41,0,0,1-5.02-3.363l0-.008a5.462,5.462,0,0,1-.375-2.656c.037-.34.086-.683.145-1.018a8.919,8.919,0,0,1,8.827-7.341h4.724a.929.929,0,0,0,0-1.858H55.934A10.775,10.775,0,0,0,45.277,8.876c-.066.375-.121.759-.162,1.14a7.324,7.324,0,0,0,.506,3.568l0,.008c.01.025.022.049.032.074v5.207A4.7,4.7,0,0,0,48.533,27.3c.118,0,.236-.006.353-.015a11.854,11.854,0,0,0,7.371,8.774v1.137a16.372,16.372,0,0,0-9.277,4.078l-7.374-7.374a.929.929,0,0,0-.657-.272H22.331a.929.929,0,0,0,0,1.858H38.565l7.1,7.1a16.427,16.427,0,0,0-4.222,10.995V55.71a.929.929,0,1,0,1.858,0V53.575A14.572,14.572,0,0,1,46.98,43.9l.362.362a.929.929,0,1,0,1.314-1.314l-.358-.358a14.521,14.521,0,0,1,7.961-3.526v1.124a4.225,4.225,0,0,0,8.451,0V39.059A14.633,14.633,0,0,1,77.667,53.575V62.5a.929.929,0,1,0,1.858,0V53.575A16.494,16.494,0,0,0,64.709,37.191Zm7.726-11.754q-.076,0-.152,0c.008-.183.013-.367.013-.552V19.753c.046,0,.092-.006.139-.006a2.845,2.845,0,1,1,0,5.691Zm1.019-9.174V18a4.7,4.7,0,0,0-1.019-.112c-.046,0-.092,0-.139,0v-.262c0-.172-.005-.345-.013-.517a7.241,7.241,0,0,0,1.17-.849Zm-25.939,0a7.248,7.248,0,0,0,1.169.849c-.008.173-.013.346-.013.519v.262c-.046,0-.092,0-.138,0A4.7,4.7,0,0,0,47.514,18Zm1.019,9.176a2.845,2.845,0,1,1,0-5.691c.046,0,.092,0,.138.006v5.265c0,.139,0,.278.008.416Q48.607,25.437,48.534,25.437Zm2-.42V17.869a7.333,7.333,0,0,0,1.831.232H68.609a7.337,7.337,0,0,0,1.829-.231v7.011a10.05,10.05,0,0,1-9.879,10.09h-.074a9.955,9.955,0,0,1-9.956-9.954Zm9.955,17.532a2.37,2.37,0,0,1-2.368-2.367v-3.59a11.928,11.928,0,0,0,2.369.236h.087a11.628,11.628,0,0,0,2.278-.243v3.6a2.369,2.369,0,0,1-2.367,2.367Z" transform="translate(-21.402)"/>
              <path id="路径_5033" data-name="路径 5033" d="M184.17,476.041a.991.991,0,0,0-.991.991v2.77a.991.991,0,1,0,1.982,0v-2.77a.991.991,0,0,0-.991-.991Z" transform="translate(-163.183 -417.367)"/>
              <path id="路径_5034" data-name="路径 5034" d="M371.648,174.515h.012a.991.991,0,0,0,.011-1.982h-.023a.991.991,0,0,0,0,1.982Z" transform="translate(-327.492 -151.203)"/>
              <path id="路径_5035" data-name="路径 5035" d="M289.111,172.534H289.1a1,1,0,1,0,.011,0Z" transform="translate(-255.147 -151.204)"/>
              <path id="路径_5036" data-name="路径 5036" d="M54.409,307.939H41.873a.991.991,0,1,0,0,1.982H54.409a.991.991,0,0,0,0-1.982Z" transform="translate(-38.308 -269.869)"/>
              <path id="路径_5037" data-name="路径 5037" d="M89.835,334.273H82.693a.991.991,0,1,0,0,1.982h7.141a.991.991,0,1,0,0-1.982Z" transform="translate(-73.733 -292.947)"/>
              <path id="路径_5038" data-name="路径 5038" d="M89.835,360.606H82.693a.991.991,0,1,0,0,1.982h7.141a.991.991,0,1,0,0-1.982Z" transform="translate(-73.733 -316.025)"/>
              <path id="路径_5039" data-name="路径 5039" d="M312.521,216.534a.991.991,0,0,0-1.981-.071,2.4,2.4,0,0,1-4.789,0,.991.991,0,0,0-1.981.071,4.378,4.378,0,0,0,8.751,0Z" transform="translate(-269.174 -188.96)"/>
            </g>
          </g>
          <g id="组_7035" data-name="组 7035" transform="translate(2.574 6.362)">
            <g id="组_7034" data-name="组 7034">
              <g id="组_7023" data-name="组 7023" transform="translate(12.64 5.636)">
                <g id="组_7022" data-name="组 7022">
                  <circle id="椭圆_655" data-name="椭圆 655" cx="2.108" cy="2.108" r="2.108" transform="translate(0 0)" fill="#fcb3a9"/>
                  <path id="路径_5040" data-name="路径 5040" d="M148.649,92.9a2.108,2.108,0,0,1-3.014,1.9,2.109,2.109,0,0,0,0-3.809,2.108,2.108,0,0,1,3.014,1.9Z" transform="translate(-144.432 -90.789)" fill="#fc9085"/>
                </g>
              </g>
              <g id="组_7025" data-name="组 7025" transform="translate(2.812 3.685)">
                <g id="组_7024" data-name="组 7024">
                  <circle id="椭圆_656" data-name="椭圆 656" cx="2.108" cy="2.108" r="2.108" transform="translate(0 0)" fill="#fcb3a9"/>
                  <path id="路径_5041" data-name="路径 5041" d="M74.278,78.134a2.108,2.108,0,0,1-3.014,1.9,2.109,2.109,0,0,0,0-3.809,2.108,2.108,0,0,1,3.014,1.9Z" transform="translate(-70.061 -76.025)" fill="#fc9085"/>
                </g>
              </g>
              <g id="组_7026" data-name="组 7026" transform="translate(0.991 6.21)">
                <circle id="椭圆_657" data-name="椭圆 657" cx="7.475" cy="7.475" r="7.475" transform="translate(0 0.001)" fill="#f82f40"/>
                <path id="路径_5042" data-name="路径 5042" d="M101.082,102.61a7.48,7.48,0,0,1-9.2,7.275,7.478,7.478,0,0,0,0-14.549,7.48,7.48,0,0,1,9.2,7.275Z" transform="translate(-86.131 -95.134)" fill="#e22334"/>
              </g>
              <g id="组_7028" data-name="组 7028" transform="translate(9.841 18.101)">
                <g id="组_7027" data-name="组 7027">
                  <circle id="椭圆_658" data-name="椭圆 658" cx="2.108" cy="2.108" r="2.108" transform="translate(0 0)" fill="#fcb3a9"/>
                  <path id="路径_5043" data-name="路径 5043" d="M127.462,187.221a2.108,2.108,0,0,1-3.014,1.9,2.109,2.109,0,0,0,0-3.809,2.108,2.108,0,0,1,3.014,1.9Z" transform="translate(-123.245 -185.112)" fill="#fc9085"/>
                </g>
              </g>
              <g id="组_7030" data-name="组 7030" transform="translate(8.575 10.528)">
                <g id="组_7029" data-name="组 7029">
                  <circle id="椭圆_659" data-name="椭圆 659" cx="2.108" cy="2.108" r="2.108" transform="translate(0 0)" fill="#fcb3a9"/>
                  <path id="路径_5044" data-name="路径 5044" d="M117.882,129.912a2.108,2.108,0,0,1-3.014,1.9,2.109,2.109,0,0,0,0-3.809,2.108,2.108,0,0,1,3.014,1.9Z" transform="translate(-113.665 -127.803)" fill="#fc9085"/>
                </g>
              </g>
              <g id="组_7033" data-name="组 7033">
                <g id="组_7032" data-name="组 7032">
                  <circle id="椭圆_660" data-name="椭圆 660" cx="2.108" cy="2.108" r="2.108" transform="translate(1.305 16.31)" fill="#fcb3a9"/>
                  <path id="路径_5045" data-name="路径 5045" d="M62.872,173.663a2.108,2.108,0,0,1-3.014,1.9,2.109,2.109,0,0,0,0-3.809,2.108,2.108,0,0,1,3.014,1.9Z" transform="translate(-57.35 -155.245)" fill="#fc9085"/>
                  <g id="组_7031" data-name="组 7031">
                    <path id="路径_5046" data-name="路径 5046" d="M131.942,49.735a.991.991,0,1,0-1.572-1.207l-.024.031a.991.991,0,0,0,.149,1.363l.034.027a.991.991,0,0,0,1.39-.183Z" transform="translate(-118.346 -48.141)"/>
                    <path id="路径_5047" data-name="路径 5047" d="M68.353,240.357a.991.991,0,0,0-.946,1.034l0,.039a.991.991,0,0,0,.989.947h.045a.991.991,0,0,0,.946-1.034l0-.039A.993.993,0,0,0,68.353,240.357Z" transform="translate(-63.9 -214.955)"/>
                    <path id="路径_5048" data-name="路径 5048" d="M83.63,224.526l-.037,0a.991.991,0,0,0,.046,1.981h.048l.037,0a.991.991,0,1,0-.094-1.98Z" transform="translate(-77.13 -201.215)"/>
                    <path id="路径_5049" data-name="路径 5049" d="M109.665,50.741a.991.991,0,0,0-1.236,1.549l.039.031.029.022a.991.991,0,1,0,1.2-1.58Z" transform="translate(-99.196 -50.223)"/>
                    <path id="路径_5050" data-name="路径 5050" d="M48.851,71.069a3.1,3.1,0,1,0-5.489,2.47,8.455,8.455,0,0,0-1.812,9.276,3.1,3.1,0,0,0,4,4.271,8.479,8.479,0,0,0,3.8.9,8.567,8.567,0,0,0,1.02-.063,3.1,3.1,0,0,0,5.395-2.881,8.457,8.457,0,0,0,1.4-8.768A3.1,3.1,0,1,0,53.031,71.9a8.415,8.415,0,0,0-3.682-.844c-.167,0-.333.006-.5.016ZM45.8,70.51a1.119,1.119,0,0,1,1.1.906,8.426,8.426,0,0,0-1.981.893,1.117,1.117,0,0,1,.885-1.8ZM43.178,84.252A1.117,1.117,0,1,1,44.3,85.369,1.119,1.119,0,0,1,43.178,84.252Zm9.653,2.909a1.117,1.117,0,1,1,1.117-1.117A1.119,1.119,0,0,1,52.831,87.161Zm1.681-3.72a3.1,3.1,0,0,0-4.779,2.55C49.6,86,49.477,86,49.349,86a6.5,6.5,0,0,1-2.26-.409,3.1,3.1,0,0,0-3.953-4.217,6.485,6.485,0,1,1,11.376,2.063Zm1.119-10.98a1.117,1.117,0,0,1,.561,2.082A8.536,8.536,0,0,0,54.7,72.964a1.123,1.123,0,0,1,.932-.5Z" transform="translate(-40.882 -65.834)"/>
                    <path id="路径_5051" data-name="路径 5051" d="M101.367,120.3a3.1,3.1,0,1,0,3.1,3.1A3.1,3.1,0,0,0,101.367,120.3Zm0,4.217a1.117,1.117,0,1,1,1.117-1.117A1.119,1.119,0,0,1,101.367,124.522Z" transform="translate(-90.683 -110.768)"/>
                  </g>
                </g>
              </g>
            </g>
          </g>
        </g>
      </g>
    </g>
  </g>
</svg>
