<svg xmlns="http://www.w3.org/2000/svg" width="30" height="30" viewBox="0 0 30 30">
  <g id="组_10169" data-name="组 10169" transform="translate(-569 -223)">
    <circle id="椭圆_673" data-name="椭圆 673" cx="15" cy="15" r="15" transform="translate(569 223)" fill="#2988e6"/>
    <g id="组_10168" data-name="组 10168" transform="translate(576 232)">
      <g id="组_8644" data-name="组 8644" transform="translate(0)">
        <g id="组_8648" data-name="组 8648">
          <path id="路径_8439" data-name="路径 8439" d="M39,178.517a2.323,2.323,0,0,1,2.323,2.249v2.345l3.447-2.733a.562.562,0,0,1,.928.433v6.957a.562.562,0,0,1-.917.455l-3.447-2.733v2.289a2.323,2.323,0,0,1-2.289,2.306H32.019a2.317,2.317,0,0,1-2.323-2.25v-7.013a2.317,2.317,0,0,1,2.283-2.306Zm.157.866H31.844a1.232,1.232,0,0,0-1.26,1.2v7.311a1.226,1.226,0,0,0,1.215,1.181h7.356a1.226,1.226,0,0,0,1.232-1.2v-7.311a1.226,1.226,0,0,0-1.209-1.22Zm5.764,2.081-3.571,2.812,3.571,2.812Zm0,0" transform="translate(-29.696 -178.517)" fill="#fff" stroke="#fff" stroke-width="0.2"/>
          <path id="路径_8440" data-name="路径 8440" d="M168.193,317.7m-.6,0a.6.6,0,1,0,.6-.6.6.6,0,0,0-.6.6Z" transform="translate(-165.528 -314.838)" fill="#fff"/>
        </g>
      </g>
      <rect id="矩形_19722" data-name="矩形 19722" width="11" height="10" rx="2" transform="translate(0.164 0.8)" fill="#fff"/>
      <path id="路径_9659" data-name="路径 9659" d="M-8038.548-11039.713l4-3.3v7.164Z" transform="translate(8050.164 11045.234)" fill="#fff" stroke="#fff" stroke-linejoin="round" stroke-width="1"/>
    </g>
  </g>
</svg>
