<svg xmlns="http://www.w3.org/2000/svg" xmlns:xlink="http://www.w3.org/1999/xlink" width="213.53" height="213.53" viewBox="0 0 213.53 213.53">
  <defs>
    <filter id="矩形_17403" x="0" y="0" width="213.53" height="213.53" filterUnits="userSpaceOnUse">
      <feOffset dy="3" input="SourceAlpha"/>
      <feGaussianBlur stdDeviation="3" result="blur"/>
      <feFlood flood-opacity="0.161"/>
      <feComposite operator="in" in2="blur"/>
      <feComposite in="SourceGraphic"/>
    </filter>
  </defs>
  <g id="组件_44_2" data-name="组件 44 – 2" transform="translate(9 6.158)">
    <g id="组_10172" data-name="组 10172">
      <g transform="matrix(1, 0, 0, 1, -9, -6.16)" filter="url(#矩形_17403)">
        <g id="矩形_17403-2" data-name="矩形 17403" transform="translate(9 6)" fill="#fff" stroke="#dfe1e5" stroke-width="1">
          <rect width="195.53" height="195.53" rx="11" stroke="none"/>
          <rect x="0.5" y="0.5" width="194.53" height="194.53" rx="10.5" fill="none"/>
        </g>
      </g>
      <g id="组_10171" data-name="组 10171" transform="translate(0 -10.926)">
        <text id="Tooth_pain" data-name="Tooth pain" transform="translate(53 153.465)" fill="#143459" font-size="20" font-family="SegoeUI, Segoe UI" letter-spacing="-0.02em"><tspan x="0" y="0">Tooth pain</tspan></text>
        <g id="组_7074" data-name="组 7074" transform="translate(73 58.768)">
          <path id="路径_5091" data-name="路径 5091" d="M286.9,579.67c5.744,0,2.116,8.768,6.954,8.768,4.232,0,6.953-8.466,7.256-12.094,5.744-6.953,7.256-11.186,6.953-18.14-.6-14.209-7.558-15.116-9.977-15.116a21.771,21.771,0,0,0-7.256,1.511,12.068,12.068,0,0,1-3.93.6h.036a12.068,12.068,0,0,1-3.93-.6,21.759,21.759,0,0,0-7.256-1.511c-2.419,0-9.372.907-9.977,15.116-.3,6.954,1.209,11.187,6.954,18.14.3,3.628,3.023,12.094,7.256,12.094,4.837,0,1.209-8.768,6.953-8.768Z" transform="translate(-260.94 -536.308)" fill="#f29808" opacity="0.47"/>
          <g id="组_7065" data-name="组 7065" transform="translate(7.871 8.737)">
            <path id="路径_5092" data-name="路径 5092" d="M269.811,552.924a1,1,0,0,1-.938-1.349c2.114-5.681,6.127-6.53,8.332-6.53a1,1,0,0,1,0,2c-2.059,0-4.85.907-6.457,5.227A1,1,0,0,1,269.811,552.924Z" transform="translate(-268.81 -545.045)" fill="#fff"/>
          </g>
          <path id="路径_5093" data-name="路径 5093" d="M308.061,558.2c-.6-14.209-7.558-15.116-9.977-15.116a22.992,22.992,0,0,0-6.561,1.225c5.387,1.8,20.259,3.952,9.866,31.682C306.894,569.251,308.358,565.039,308.061,558.2Z" transform="translate(-260.94 -536.308)" fill="#f29808"/>
          <g id="组_7066" data-name="组 7066" transform="translate(1.947 3.873)">
            <path id="路径_5094" data-name="路径 5094" d="M263.886,545.366a1,1,0,0,1-.924-1.382,15.4,15.4,0,0,1,1.9-3.4,1,1,0,1,1,1.6,1.2,13.441,13.441,0,0,0-1.651,2.963A1,1,0,0,1,263.886,545.366Z" transform="translate(-262.887 -540.181)"/>
          </g>
          <g id="组_7067" data-name="组 7067">
            <path id="路径_5095" data-name="路径 5095" d="M293.8,589.692c-3.453,0-4.021-3.029-4.477-5.463-.533-2.848-.954-4.462-3.381-4.471-2.427.009-2.848,1.623-3.382,4.471-.456,2.434-1.024,5.463-4.476,5.463-5.562,0-8.708-9.833-9.188-14.3-6.417-7.821-8.27-12.765-7.912-21a40.079,40.079,0,0,1,.607-5.611q.07-.383.149-.751a1,1,0,0,1,1.957.415q-.074.344-.14.7a38.241,38.241,0,0,0-.575,5.332c-.335,7.727,1.452,12.37,7.651,19.874l.2.241.025.313c.367,4.389,3.465,12.785,7.226,12.785,1.63,0,2-1.109,2.51-3.832.482-2.567,1.14-6.079,5.327-6.1h.041c4.187.023,4.846,3.535,5.327,6.1.51,2.723.88,3.832,2.511,3.832,3.761,0,6.859-8.4,7.225-12.785l.026-.313.2-.241c6.2-7.5,7.986-12.148,7.65-19.874-.6-14.07-6.713-16.171-10.3-16.171a23.946,23.946,0,0,0-7.775,1.607,13.864,13.864,0,0,1-4.859.791h-.041a13.871,13.871,0,0,1-4.859-.791,23.933,23.933,0,0,0-7.774-1.607,8.254,8.254,0,0,0-4.038,1.005,1,1,0,1,1-.966-1.751,10.235,10.235,0,0,1,5-1.254,25.653,25.653,0,0,1,8.668,1.818,13.983,13.983,0,0,0,7.971,0,25.665,25.665,0,0,1,8.669-1.818c10.41,0,12.072,12.648,12.3,18.086.358,8.23-1.495,13.174-7.911,21C302.506,579.859,299.36,589.692,293.8,589.692Z" transform="translate(-260.94 -536.308)"/>
          </g>
        </g>
      </g>
    </g>
  </g>
</svg>
