<?xml version="1.0" standalone="no"?><!DOCTYPE svg PUBLIC "-//W3C//DTD SVG 1.1//EN" "http://www.w3.org/Graphics/SVG/1.1/DTD/svg11.dtd"><svg class="icon" width="200px" height="200.00px" viewBox="0 0 1024 1024" version="1.1" xmlns="http://www.w3.org/2000/svg"><path d="M512 512m-512 0a512 512 0 1 0 1024 0 512 512 0 1 0-1024 0Z" fill="#DBDFED" /><path d="M512 1024C229.236364 1024 0 794.763636 0 512S229.236364 0 512 0s512 229.236364 512 512-229.236364 512-512 512z m0-46.545455c257.070545 0 465.454545-208.384 465.454545-465.454545S769.070545 46.545455 512 46.545455 46.545455 254.929455 46.545455 512s208.384 465.454545 465.454545 465.454545z" fill="#8E99BB" /><path d="M179.130182 837.352727C214.388364 742.306909 303.243636 674.909091 407.272727 674.909091h209.454546c104.029091 0 192.884364 67.421091 228.142545 162.443636A464.058182 464.058182 0 0 1 512 977.454545a464.058182 464.058182 0 0 1-332.869818-140.101818zM512 651.636364a209.454545 209.454545 0 1 1 0-418.909091 209.454545 209.454545 0 0 1 0 418.909091z" fill="#FFFFFF" /></svg>