<svg xmlns="http://www.w3.org/2000/svg" width="74" height="69" viewBox="0 0 74 69">
  <g id="组_10013" data-name="组 10013" transform="translate(-0.001 -2)">
    <path id="路径_8589" data-name="路径 8589" d="M147.98,182.655l-27.829-50.116A9.017,9.017,0,0,0,112.2,128a9.4,9.4,0,0,0-7.951,4.539L76.42,182.655a9.746,9.746,0,0,0,0,9.442,9.366,9.366,0,0,0,7.951,4.9h55.658a8.8,8.8,0,0,0,7.951-4.9A9.746,9.746,0,0,0,147.98,182.655Zm-38.491-34.682a2.786,2.786,0,0,1,2.711-2.724,2.752,2.752,0,0,1,2.711,2.542v23.787A2.786,2.786,0,0,1,112.2,174.3a2.752,2.752,0,0,1-2.711-2.542Zm2.711,39.947a3.632,3.632,0,1,1,3.614-3.632A3.634,3.634,0,0,1,112.2,187.921Z" transform="translate(-75.199 -126)" fill="#d81e06"/>
  </g>
</svg>
