<?xml version="1.0" standalone="no"?><!DOCTYPE svg PUBLIC "-//W3C//DTD SVG 1.1//EN" "http://www.w3.org/Graphics/SVG/1.1/DTD/svg11.dtd"><svg class="icon" width="200px" height="200.00px" viewBox="0 0 1024 1024" version="1.1" xmlns="http://www.w3.org/2000/svg"><path d="M512 512m-512 0a512 512 0 1 0 1024 0 512 512 0 1 0-1024 0Z" fill="#89D8DB" /><path d="M429.634783 721.252174h163.617391c111.304348 0 204.8 103.513043 204.8 214.817391 0 4.452174-13.356522 8.904348-20.034783 14.469565-11.130435 7.791304-23.373913 13.356522-40.069565 22.26087C680.069565 1000.626087 603.269565 1024 512 1024c-105.73913 0-194.782609-32.278261-244.869565-61.217391-8.904348-5.565217-21.147826-12.243478-30.052174-17.808696-7.791304-4.452174-11.130435-5.565217-11.130435-8.904348 0-111.304348 93.495652-214.817391 203.686957-214.817391z" fill="#FFFFFF" /><path d="M425.182609 704.556522l70.121739 20.034782-27.826087 94.608696-70.121739-21.147826z" fill="#EFF3F7" /><path d="M451.895652 794.713043l89.043478 23.373914-33.391304 156.93913-114.643478-113.530435zM598.817391 704.556522l-70.121739 21.147826 27.826087 93.495652 70.121739-20.034783z" fill="#EFF3F7" /><path d="M572.104348 794.713043l-89.043478 23.373914 33.391304 156.93913 114.643478-113.530435z" fill="#EFF3F7" /><path d="M340.591304 843.686957c0-4.452174-2.226087-102.4 64.556522-152.486957 45.634783-33.391304 111.304348-35.617391 194.782609-5.565217 103.513043 36.730435 89.043478 117.982609 89.043478 119.095652l-22.26087-4.452174c0-2.226087 10.017391-64.556522-74.573913-93.495652-76.8-26.713043-134.678261-25.6-174.747826 3.33913-57.878261 42.295652-55.652174 132.452174-55.652174 133.565218h-21.147826z" fill="#623000" /><path d="M368.417391 826.991304c13.356522 0 24.486957 11.130435 24.486957 24.486957s-11.130435 24.486957-24.486957 24.486956c-13.356522 0-24.486957-11.130435-24.486956-24.486956s11.130435-24.486957 24.486956-24.486957zM631.095652 892.66087c8.904348 0 16.695652 7.791304 16.695652 16.695652s-7.791304 16.695652-16.695652 16.695652-16.695652-7.791304-16.695652-16.695652 7.791304-16.695652 16.695652-16.695652zM704.556522 892.66087c8.904348 0 16.695652 7.791304 16.695652 16.695652s-7.791304 16.695652-16.695652 16.695652-16.695652-7.791304-16.695652-16.695652 7.791304-16.695652 16.695652-16.695652z" fill="#582900" /><path d="M723.478261 901.565217h-22.26087v-51.2c0-20.034783-13.356522-35.617391-30.052174-35.617391-16.695652 0-30.052174 15.582609-30.052174 35.617391V901.565217h-22.260869v-51.2c0-32.278261 23.373913-57.878261 52.313043-57.87826s52.313043 25.6 52.313044 57.87826V901.565217z" fill="#623000" /><path d="M426.295652 721.252174h171.408696l-81.252174 253.773913z" fill="#618EFF" /><path d="M458.573913 638.886957h106.852174l16.695652 90.156521H441.878261z" fill="#FFE2C2" /><path d="M512 704.556522c38.956522 0 70.121739 11.130435 70.121739 24.486956s-31.165217 24.486957-70.121739 24.486957-70.121739-11.130435-70.121739-24.486957 31.165217-24.486957 70.121739-24.486956z" fill="#FFE2C2" /><path d="M508.66087 215.930435c211.478261 0 232.626087 107.965217 232.626087 242.643478 0 133.565217-145.808696 242.643478-232.626087 242.643478-103.513043 0-232.626087-107.965217-232.626087-242.643478-1.113043-133.565217 33.391304-242.643478 232.626087-242.643478z" fill="#FFEDDA" /><path d="M754.643478 392.904348c-1.113043 21.147826-5.565217 36.730435-12.243478 50.086956-1.113043-18.921739-5.565217-35.617391-13.356522-50.086956C698.991304 333.913043 622.191304 311.652174 516.452174 311.652174c-100.173913 0-161.391304 28.93913-197.008696 82.365217-12.243478 17.808696-34.504348 32.278261-37.843478 56.765218-12.243478-13.356522-20.034783-32.278261-20.034783-57.878261 0-105.73913 66.782609-245.982609 181.426087-252.66087 15.582609-1.113043 38.956522 15.582609 54.539131 15.582609 129.113043 4.452174 264.904348 42.295652 257.113043 237.078261z" fill="#674C53" /></svg>