<?xml version="1.0" standalone="no"?><!DOCTYPE svg PUBLIC "-//W3C//DTD SVG 1.1//EN" "http://www.w3.org/Graphics/SVG/1.1/DTD/svg11.dtd"><svg class="icon" width="200px" height="200.00px" viewBox="0 0 1024 1024" version="1.1" xmlns="http://www.w3.org/2000/svg"><path d="M536.059471 525.76057m-385.778197 0a385.778196 385.778196 0 1 0 771.556393 0 385.778196 385.778196 0 1 0-771.556393 0Z" fill="#FF642F" /><path d="M363.837061 346.649265h344.444819v427.111575h-344.444819z" fill="#FFFFFF" /><path d="M494.726092 718.649669h82.666757v55.111171h-82.666757z" fill="#7DCECF" /><path d="M487.837196 677.31629h96.444549v41.333379h-96.444549z" fill="#FF642F" /><path d="M405.17044 387.982643h55.111171v27.555586h-55.111171zM474.059403 387.982643h55.111171v27.555586h-55.111171zM542.948367 387.982643h55.111171v27.555586h-55.111171zM611.837331 387.982643h55.11117v27.555586h-55.11117zM405.17044 429.316021h55.111171v27.555586h-55.111171zM474.059403 429.316021h55.111171v27.555586h-55.111171zM542.948367 429.316021h55.111171v27.555586h-55.111171zM611.837331 429.316021h55.11117v27.555586h-55.11117zM405.17044 470.6494h55.111171v27.555585h-55.111171zM474.059403 470.6494h55.111171v27.555585h-55.111171zM542.948367 470.6494h55.111171v27.555585h-55.111171zM611.837331 470.6494h55.11117v27.555585h-55.11117zM405.17044 511.982778h55.111171v27.555585h-55.111171zM474.059403 511.982778h55.111171v27.555585h-55.111171zM542.948367 511.982778h55.111171v27.555585h-55.111171zM611.837331 511.982778h55.11117v27.555585h-55.11117zM405.17044 553.316156h55.111171v27.555585h-55.111171zM474.059403 553.316156h55.111171v27.555585h-55.111171zM542.948367 553.316156h55.111171v27.555585h-55.111171zM611.837331 553.316156h55.11117v27.555585h-55.11117zM405.17044 594.649534h55.111171v27.555586h-55.111171zM474.059403 594.649534h55.111171v27.555586h-55.111171zM542.948367 594.649534h55.111171v27.555586h-55.111171zM611.837331 594.649534h55.11117v27.555586h-55.11117zM405.17044 635.982912h55.111171v27.555586h-55.111171zM474.059403 635.982912h55.111171v27.555586h-55.111171zM542.948367 635.982912h55.111171v27.555586h-55.111171zM611.837331 635.982912h55.11117v27.555586h-55.11117z" fill="#7DCECF" /><path d="M467.170507 263.982509h137.777927v110.222341h-137.777927z" fill="#FFFFFF" /><path d="M536.059471 312.204783m-34.444482 0a34.444482 34.444482 0 1 0 68.888963 0 34.444482 34.444482 0 1 0-68.888963 0Z" fill="#FF642F" /><path d="M556.72616 305.315887h-13.777793v-13.777793h-13.777793v13.777793h-13.777793v13.777793h13.777793v13.777792h13.777793v-13.777792h13.777793v-13.777793z" fill="#FFFFFF" /></svg>