<svg xmlns="http://www.w3.org/2000/svg" width="19.5" height="19" viewBox="0 0 19.5 19">
  <g id="组_9480" data-name="组 9480" transform="translate(-815.249 -583.249)">
    <path id="路径_8270" data-name="路径 8270" d="M123.167,118.833h-3.475v-1a.5.5,0,1,0-1,0v1h-5.435v-1a.5.5,0,1,0-1,0v1h-3.09a2.5,2.5,0,0,0-2.5,2.5v12a2.5,2.5,0,0,0,2.5,2.5h14a2.5,2.5,0,0,0,2.5-2.5v-12a2.5,2.5,0,0,0-2.5-2.5Zm1.5,14.5a1.5,1.5,0,0,1-1.5,1.5h-14a1.5,1.5,0,0,1-1.5-1.5v-10h17Zm-17-11v-1a1.5,1.5,0,0,1,1.5-1.5h3.09v1a.5.5,0,1,0,1,0v-1h5.435v1a.5.5,0,1,0,1,0v-1h3.5a1.5,1.5,0,0,1,1.5,1.5v1Z" transform="translate(708.832 466.166)" fill="#2988e6" stroke="#2988e6" stroke-width="0.5"/>
    <g id="组_8550" data-name="组 8550" transform="translate(819.937 592.606)">
      <path id="路径_8271" data-name="路径 8271" d="M290.347,485.76m.5,0h1.007a.445.445,0,0,1,.5.5v1.006a.445.445,0,0,1-.5.5H290.85a.445.445,0,0,1-.5-.5v-1.006A.445.445,0,0,1,290.85,485.76Z" transform="translate(-290.347 -485.76)" fill="#2988e6" stroke="#2988e6" stroke-width="0.5"/>
      <path id="路径_8272" data-name="路径 8272" d="M470.4,485.76m.5,0h1.006a.445.445,0,0,1,.5.5v1.006a.445.445,0,0,1-.5.5H470.9a.445.445,0,0,1-.5-.5v-1.006A.445.445,0,0,1,470.9,485.76Z" transform="translate(-466.153 -485.76)" fill="#2988e6" stroke="#2988e6" stroke-width="0.5"/>
      <path id="路径_8273" data-name="路径 8273" d="M646.187,485.76m.5,0H647.7a.445.445,0,0,1,.5.5v1.006a.445.445,0,0,1-.5.5H646.69a.445.445,0,0,1-.5-.5v-1.006A.445.445,0,0,1,646.69,485.76Z" transform="translate(-637.793 -485.76)" fill="#2988e6" stroke="#2988e6" stroke-width="0.5"/>
      <path id="路径_8274" data-name="路径 8274" d="M292.48,644.907m.5,0h1.006a.445.445,0,0,1,.5.5v1.006a.445.445,0,0,1-.5.5h-1.006a.445.445,0,0,1-.5-.5V645.41A.445.445,0,0,1,292.983,644.907Z" transform="translate(-292.431 -641.153)" fill="#2988e6" stroke="#2988e6" stroke-width="0.5"/>
      <path id="路径_8275" data-name="路径 8275" d="M472.533,644.907m.5,0h1.006a.445.445,0,0,1,.5.5v1.006a.445.445,0,0,1-.5.5h-1.006a.445.445,0,0,1-.5-.5V645.41A.445.445,0,0,1,473.037,644.907Z" transform="translate(-468.236 -641.153)" fill="#2988e6" stroke="#2988e6" stroke-width="0.5"/>
      <path id="路径_8276" data-name="路径 8276" d="M648.32,644.907m.5,0h1.006a.445.445,0,0,1,.5.5v1.006a.445.445,0,0,1-.5.5h-1.006a.445.445,0,0,1-.5-.5V645.41A.445.445,0,0,1,648.823,644.907Z" transform="translate(-639.876 -641.153)" fill="#2988e6" stroke="#2988e6" stroke-width="0.5"/>
    </g>
  </g>
</svg>
