<svg xmlns="http://www.w3.org/2000/svg" width="30.075" height="20.646" viewBox="0 0 30.075 20.646">
  <g id="组_8538" data-name="组 8538" transform="translate(-1958.838 -8518.793)">
    <path id="减去_11" data-name="减去 11" d="M16.022,19.769H3.974a3.964,3.964,0,0,1-2.788-1.134A3.909,3.909,0,0,1,0,15.888V4.441l1.957,1.32V15.822a2.011,2.011,0,0,0,1.984,1.99H15.957a2.015,2.015,0,0,0,1.436-.594l1.638,1.105A3.978,3.978,0,0,1,16.022,19.769ZM26.437,16.8a.965.965,0,0,1-.584-.2l-.02-.015-5.9-4.678v2.3H17.972V3.947a2.012,2.012,0,0,0-1.982-1.99H3.974a2.011,2.011,0,0,0-1.8,1.091l-1.63-1.1A3.955,3.955,0,0,1,3.909,0H15.957a3.97,3.97,0,0,1,2.788,1.134,3.91,3.91,0,0,1,1.186,2.748V7.859l5.9-4.678a.977.977,0,0,1,1.588.742v11.9A.985.985,0,0,1,26.437,16.8Zm-.975-10.83L20.528,9.885,25.462,13.8Z" transform="translate(1961.493 8518.793)" fill="#fff"/>
    <rect id="矩形_18513" data-name="矩形 18513" width="2.371" height="28.567" rx="1.185" transform="translate(1958.838 8523.053) rotate(-55)" fill="#fff"/>
    <g id="路径_8282" data-name="路径 8282" transform="translate(1962 8520)" fill="#fff">
      <path d="M 1.000000238418579 1.572268724441528 C 0.7489902377128601 1.572268724441528 0.5203902721405029 1.299508690834045 0.5203902721405029 0.9999987483024597 C 0.5203902721405029 0.7106387615203857 0.8520902395248413 0.6472787261009216 0.9799002408981323 0.6472787261009216 L 0.9909102320671082 0.6473787426948547 C 1.181350231170654 0.6508387327194214 1.463130235671997 0.7895087599754333 1.463130235671997 1.076168775558472 C 1.463130235671997 1.363628745079041 1.268360257148743 1.572268724441528 1.000000238418579 1.572268724441528 Z" stroke="none"/>
      <path d="M 0.9799038171768188 0.1472761631011963 C 0.9866064190864563 0.1472761631011963 0.9933010935783386 0.1473369598388672 1.000000238418579 0.1474587917327881 C 1.483520269393921 0.1562488079071045 1.963130235671997 0.5238887071609497 1.963130235671997 1.076168775558472 C 1.963130235671997 1.628458738327026 1.552280187606812 2.072268724441528 1.000000238418579 2.072268724441528 C 0.4477202892303467 2.072268724441528 0.02039027214050293 1.552288770675659 0.02039027214050293 0.9999988079071045 C 0.02039027214050293 0.4553705453872681 0.502835750579834 0.1472761631011963 0.9799038171768188 0.1472761631011963 Z" stroke="none" fill="#fff"/>
    </g>
    <g id="路径_8281" data-name="路径 8281" transform="translate(1980.055 8531)" fill="#fff">
      <path d="M 0.4994916915893555 2.283058166503906 C 0.4866916835308075 2.283058166503906 0.47373166680336 2.282698154449463 0.4605216681957245 2.281978130340576 C 0.1107916831970215 2.263038158416748 -0.0665283203125 2.094568014144897 -0.0665283203125 1.781248092651367 C -0.0665283203125 1.505548119544983 0.1577716767787933 1.281248092651367 0.4334716796875 1.281248092651367 C 0.7091716527938843 1.281248092651367 0.9334716796875 1.505548119544983 0.9334716796875 1.781248092651367 C 0.9334716796875 1.932128071784973 0.8911817073822021 2.283058166503906 0.4994916915893555 2.283058166503906 Z" stroke="none"/>
      <path d="M 0.4334716796875 0.7812480926513672 C 0.9857516884803772 0.7812480926513672 1.4334716796875 1.228968143463135 1.4334716796875 1.781248092651367 C 1.4334716796875 2.333538055419922 1.082521796226501 2.816407680511475 0.4334716796875 2.781248092651367 C -0.2155783176422119 2.746098041534424 -0.5665283203125 2.333538055419922 -0.5665283203125 1.781248092651367 C -0.5665283203125 1.228968143463135 -0.1188083291053772 0.7812480926513672 0.4334716796875 0.7812480926513672 Z" stroke="none" fill="#fff"/>
    </g>
  </g>
</svg>
