<?xml version="1.0" standalone="no"?><!DOCTYPE svg PUBLIC "-//W3C//DTD SVG 1.1//EN" "http://www.w3.org/Graphics/SVG/1.1/DTD/svg11.dtd"><svg t="1629265052711" class="icon" viewBox="0 0 1044 1024" version="1.1" xmlns="http://www.w3.org/2000/svg" p-id="6694" xmlns:xlink="http://www.w3.org/1999/xlink" width="130.5" height="128"><defs><style type="text/css"></style></defs><path d="M460.04224 11.93984h52.20352v152.28928h-52.20352V11.93984z m239.22688 20.29568l-76.84096 130.53952 43.49952 23.20384 76.84096-131.9936-43.49952-21.74976z m-494.3872 58.01984l88.43264 123.2896 40.59136-29.02016-88.43264-123.2896-40.59136 29.02016z m820.61312 388.7104l-127.5904-150.8352c-2.88768-5.79584-8.704-11.61216-15.95392-13.06624l-408.84224-84.11136c-4.36224-1.45408-8.704 0-13.06624 1.4336l-330.5472 130.56c-1.45408 1.4336-4.36224 1.4336-5.81632 2.88768-1.4336 1.45408-2.88768 4.36224-4.34176 5.81632L14.9504 550.03136c-4.36224 5.81632-4.36224 14.52032-1.45408 20.31616 2.88768 5.79584 8.704 11.61216 15.95392 13.06624l86.97856 23.20384v246.5792c0 10.1376 7.24992 18.8416 17.408 21.74976l459.59168 133.44768c5.81632 1.4336 13.06624 1.4336 18.8416-1.45408l289.9968-162.44736a23.1424 23.1424 0 0 0 11.59168-20.31616l-2.90816-245.12512 110.1824-65.26976c5.81632-2.90816 10.15808-10.15808 11.61216-15.95392 0-7.24992-1.4336-14.49984-7.24992-18.8416z m-555.29472-198.69696l342.15936 71.0656-36.2496 21.74976-171.06944 100.08576-318.976-76.86144-71.04512-17.408 255.1808-98.63168zM71.49568 548.59776l79.72864-136.33536 124.70272 30.45376 281.27232 68.15744-95.70304 140.6976-390.00064-102.97344zM162.816 837.2224V619.66336l301.568 79.7696c10.1376 2.90816 20.2752-1.4336 24.63744-10.1376l81.2032-120.40192 4.34176 385.8432L162.83648 837.2224z m459.59168 110.22336l-4.34176-387.2768 72.4992 121.856c7.24992 11.59168 20.2752 14.49984 31.88736 8.68352l142.09024-84.11136 2.88768 204.51328-245.02272 136.33536z m97.15712-310.39488l-76.86144-130.53952L800.768 412.2624l72.4992-43.52 100.02432 117.49376-253.70624 150.8352z" fill="#1296db" p-id="6695"></path><path d="M470.20032 22.07744v130.53952h30.45376V22.07744h-30.45376zM522.40384 0.32768v174.05952h-73.95328V0.32768h73.9328z m172.52352 17.408l62.34112 33.36192L670.3104 201.9328l-62.3616-34.816L694.92736 17.75616z m-56.5248 140.6976l23.18336 13.04576 65.2288-113.13152-23.18336-13.04576-65.24928 113.13152zM188.90752 87.36768l59.43296-40.63232 101.49888 140.6976-59.43296 40.61184-101.49888-140.6976z m31.88736 5.79584l75.40736 105.8816 23.18336-15.9744-75.3664-105.8816-23.22432 15.9744z m801.792 362.5984l13.04576 14.49984c7.24992 7.2704 10.1376 17.408 7.24992 27.56608-1.45408 10.15808-7.24992 18.8416-15.9744 24.65792l-104.36608 60.928 1.4336 239.3088c0 13.06624-7.24992 24.65792-17.408 30.47424L616.6528 1015.64416c-8.704 4.34176-18.8416 5.79584-27.5456 2.88768L129.47456 886.53824A34.38592 34.38592 0 0 1 104.8576 853.1968V615.3216l-78.29504-20.31616a35.88096 35.88096 0 0 1-23.20384-20.29568c-4.34176-10.15808-2.88768-21.77024 1.45408-30.47424l104.38656-178.3808 1.45408-1.47456c1.4336-1.4336 2.90816-4.34176 5.79584-5.79584l2.90816-2.88768h2.88768c1.45408-1.45408 2.90816-1.45408 4.36224-2.90816l330.5472-129.08544c5.81632-2.90816 13.06624-2.90816 18.86208-1.45408l408.86272 84.13184c10.15808 1.4336 17.408 8.68352 23.20384 17.408l114.52416 131.97312z m-131.95264-120.38144l-1.4336-1.4336a14.848 14.848 0 0 0-8.704-7.2704L471.6544 242.54464h-7.24992L133.8368 373.08416c-1.45408 0-1.45408 1.45408-2.90816 1.45408l-2.88768 2.90816-1.45408 1.4336-101.49888 176.96768c-1.4336 2.90816-2.88768 7.24992-1.4336 11.61216 1.4336 2.88768 4.34176 5.79584 8.68352 7.24992l94.24896 24.65792V854.6304c0 5.81632 4.34176 10.15808 8.704 11.61216l461.04576 131.9936c2.90816 1.4336 7.24992 0 10.15808-1.45408l289.95584-162.44736c4.36224-2.90816 5.81632-5.79584 5.81632-11.61216l-2.90816-250.92096 5.79584-2.90816 110.1824-65.26976c2.90816-1.4336 5.81632-5.79584 5.81632-8.704v-7.24992l-130.49856-152.28928zM123.6992 374.53824l1.45408 2.90816h2.90816l-4.36224-2.90816z m347.9552-84.11136l-220.3648 85.56544 37.6832 8.704 314.63424 75.42784 166.72768-98.63168 13.04576-7.24992-311.7056-63.81568z m371.17952 55.0912l-24.63744 14.52032-36.2496 21.74976-173.99808 102.99392-4.34176-1.45408-318.976-76.88192L180.224 381.78816l289.97632-113.13152 372.61312 76.88192zM87.42912 541.36832l368.27136 97.1776 82.6368-121.856-265.3184-63.7952-115.99872-27.56608-69.59104 116.03968z m57.99936-142.1312l7.24992 1.4336 124.68224 30.45376 295.77216 72.51968-108.7488 159.5392-410.29632-108.7488 91.3408-155.21792z m27.5456 429.32224l391.4752 111.67744-2.90816-335.0528-62.34112 91.38176a37.74464 37.74464 0 0 1-37.6832 14.49984L172.9536 634.1632v194.3552zM151.22432 606.6176l13.04576 2.88768 301.58848 79.79008c5.79584 1.4336 10.1376 0 13.04576-5.81632l101.4784-149.38112 4.36224 435.11808-434.97472-124.7232V606.6176h1.45408z m704.63488 197.26336l-1.4336-178.42176-124.70272 73.97376c-15.95392 10.15808-37.6832 4.36224-46.3872-11.59168l-52.20352-87.04 2.90816 329.25696 221.81888-126.17728zM606.49472 519.5776l20.2752 34.816 72.4992 121.856c2.90816 5.79584 11.61216 7.22944 17.408 4.34176l158.02368-92.83584 2.90816 229.1712-266.77248 149.4016-4.34176-446.75072z m349.3888-34.816l-86.97856-100.06528-65.2288 37.70368-149.34016 88.4736 66.68288 111.69792 234.88512-137.78944z m-329.1136 18.86208l8.704-5.79584 158.04416-94.26944 79.74912-47.86176 114.52416 133.4272-272.56832 163.90144-88.43264-149.4016z" fill="#1296db" p-id="6696"></path><path d="M876.15488 341.1968l1.45408-1.47456-408.86272-84.11136-329.1136 129.08544h-1.4336L35.2256 563.0976l434.95424 114.5856 123.22816-182.76352-311.7056-75.40736 327.68 78.31552 178.31936-104.448-178.33984 105.8816 101.49888 169.71776 297.22624-175.5136z" fill="#1296db" fill-opacity=".2" p-id="6697"></path><path d="M172.97408 386.1504l430.61248 104.42752 27.5456-17.408c-192.83968-65.26976-234.88512-146.49344-224.72704-188.55936L172.97408 386.1504z" fill="#1296db" fill-opacity=".3" p-id="6698"></path></svg>