<svg xmlns="http://www.w3.org/2000/svg" width="20" height="19.79" viewBox="0 0 20 19.79">
  <path id="FAQ" d="M20.778,2H5.222A2.074,2.074,0,0,0,3,3.885V17.078a2.074,2.074,0,0,0,2.222,1.885H9.667L13,21.79l3.333-2.827h4.444A2.081,2.081,0,0,0,23,17.078V3.885A2.081,2.081,0,0,0,20.778,2ZM14.111,17.078H11.889V15.194h2.222Zm2.3-7.3-1,.867a3.01,3.01,0,0,0-1.3,2.667H11.889v-.471a3.529,3.529,0,0,1,1.3-2.667l1.378-1.187a1.718,1.718,0,0,0,.656-1.329A2.081,2.081,0,0,0,13,5.77a2.081,2.081,0,0,0-2.222,1.885H8.556c0-2.083,1.989-3.77,4.444-3.77s4.444,1.687,4.444,3.77A2.79,2.79,0,0,1,16.411,9.775Z" transform="translate(-3 -2)" fill="#2988e6"/>
</svg>
