<svg xmlns="http://www.w3.org/2000/svg" width="15.184" height="15.184" viewBox="0 0 15.184 15.184">
  <g id="组_8482" data-name="组 8482" transform="translate(0.15 0.15)">
    <path id="路径_5085" data-name="路径 5085" d="M7.442,1.24a6.2,6.2,0,1,1-6.2,6.2,6.2,6.2,0,0,1,6.2-6.2m0-1.24a7.442,7.442,0,1,0,7.442,7.442A7.442,7.442,0,0,0,7.442,0Z" fill="#2988e6" stroke="#2988e6" stroke-width="0.3"/>
    <path id="路径_5086" data-name="路径 5086" d="M431.008,219.535h-3.721a.62.62,0,0,1-.62-.62v-4.961a.62.62,0,1,1,1.24,0v4.341h3.1a.62.62,0,1,1,0,1.24Z" transform="translate(-420.466 -210.232)" fill="#2988e6" stroke="#2988e6" stroke-width="0.3"/>
  </g>
</svg>
