<svg xmlns="http://www.w3.org/2000/svg" width="20" height="20" viewBox="0 0 20 20">
  <g id="组_10399" data-name="组 10399" transform="translate(-12 -38)">
    <g id="组_10385" data-name="组 10385" transform="translate(-1021 -1119)">
      <rect id="矩形_19726" data-name="矩形 19726" width="20" height="20" transform="translate(1033 1157)" fill="none"/>
    </g>
    <g id="组_10393" data-name="组 10393" transform="translate(11.355 39.027)">
      <g id="组_10398" data-name="组 10398" transform="translate(2.644 2.973)">
        <path id="路径_9567" data-name="路径 9567" d="M210.632,278.737h2.474a.632.632,0,0,0,.632-.632v-1.474a.632.632,0,0,0-.632-.632h-2.474a.632.632,0,0,0-.632.632v1.474A.632.632,0,0,0,210.632,278.737Zm4.269,0h2.474a.632.632,0,0,0,.632-.632v-1.474a.632.632,0,0,0-.632-.632H214.9a.632.632,0,0,0-.632.632v1.474A.632.632,0,0,0,214.9,278.737Zm4.269,0h2.473a.632.632,0,0,0,.632-.632v-1.474a.632.632,0,0,0-.632-.632h-2.473a.632.632,0,0,0-.632.632v1.474A.632.632,0,0,0,219.169,278.737Z" transform="translate(-210 -276)" fill="#333"/>
        <path id="路径_9568" data-name="路径 9568" d="M225.58,274.618a.619.619,0,0,0-.619-.618h-1.445a.619.619,0,0,0-.619.618v4.121H219.05a.619.619,0,0,0-.619.618V280.8a.619.619,0,0,0,.619.618h5.936a.619.619,0,0,0,.619-.618v-1.441a.617.617,0,0,0-.026-.176Zm-8.328,4.121h-2.426a.619.619,0,0,0-.619.618V280.8a.619.619,0,0,0,.619.618h2.426a.619.619,0,0,0,.619-.618v-1.441A.619.619,0,0,0,217.252,278.739Zm-6.633,2.7h2.426a.619.619,0,0,0,.619-.618v-1.441a.619.619,0,0,0-.619-.618h-2.426a.619.619,0,0,0-.619.618v1.441A.619.619,0,0,0,210.619,281.441Zm14.337,2.043H210.619a.619.619,0,0,0-.619.618v1.428a.619.619,0,0,0,.619.618h14.337a.619.619,0,0,0,.619-.618V284.1A.619.619,0,0,0,224.956,283.484Z" transform="translate(-210 -274)" fill="#333"/>
      </g>
    </g>
  </g>
</svg>
