<svg xmlns="http://www.w3.org/2000/svg" width="77" height="30" viewBox="0 0 77 30">
  <g id="mark" transform="translate(-267 -688)">
    <text id="Mark-2" data-name="Mark" transform="translate(300 708)" fill="#f8ae29" font-size="12" font-family="Poppins-Regular, Poppins"><tspan x="0" y="0">Mark</tspan></text>
    <g id="路径_5695" data-name="路径 5695" transform="translate(267 688)" fill="none">
      <path d="M15,0H62a15,15,0,0,1,0,30H15A15,15,0,0,1,15,0Z" stroke="none"/>
      <path d="M 15 1 C 11.26046752929688 1 7.744758605957031 2.456254959106445 5.100502014160156 5.10051155090332 C 2.456253051757812 7.744754791259766 1 11.26046752929688 1 15 C 1 18.73953247070312 2.456253051757812 22.25524520874023 5.100502014160156 24.89948844909668 C 7.744758605957031 27.54374504089355 11.26046752929688 29 15 29 L 62 29 C 65.73953247070312 29 69.25524139404297 27.54374504089355 71.89949035644531 24.89948844909668 C 74.54374694824219 22.25524520874023 76 18.73953247070312 76 15 C 76 11.26046752929688 74.54374694824219 7.744754791259766 71.89949035644531 5.10051155090332 C 69.25524139404297 2.456254959106445 65.73953247070312 1 62 1 L 15 1 M 15 0 L 62 0 C 70.28426361083984 0 77 6.715732574462891 77 15 C 77 23.28426742553711 70.28426361083984 30 62 30 L 15 30 C 6.715721130371094 30 0 23.28426742553711 0 15 C 0 6.715732574462891 6.715721130371094 0 15 0 Z" stroke="none" fill="#f8ae29"/>
    </g>
    <g id="多边形_8" data-name="多边形 8" transform="translate(282 696)" fill="#fff">
      <path d="M 9.954179763793945 12.55327129364014 C 9.8685302734375 12.55327129364014 9.784520149230957 12.52978134155273 9.704489707946777 12.48346138000488 L 7.751500129699707 11.35290145874023 C 7.523409843444824 11.22086143493652 7.2635498046875 11.15107154846191 7 11.15107154846191 C 6.7364501953125 11.15107154846191 6.476590156555176 11.22086143493652 6.248499870300293 11.35289096832275 L 4.295509815216064 12.48346138000488 C 4.215489864349365 12.52978134155273 4.131470203399658 12.55327129364014 4.045810222625732 12.55327129364014 C 3.899359941482544 12.55327129364014 3.753870010375977 12.48368072509766 3.656599998474121 12.36711120605469 C 3.590169906616211 12.28749084472656 3.518280029296875 12.15244102478027 3.553100109100342 11.96119117736816 L 3.999399900436401 9.509381294250488 C 4.088300228118896 9.020991325378418 3.930350065231323 8.521310806274414 3.576889991760254 8.172740936279297 L 1.806710004806519 6.427021026611328 C 1.667590022087097 6.289821147918701 1.621620059013367 6.097321033477783 1.683730006217957 5.912061214447021 C 1.745839953422546 5.726811408996582 1.898569941520691 5.600931167602539 2.092269897460938 5.575331211090088 L 4.411520004272461 5.268781185150146 C 4.924099922180176 5.201021194458008 5.373549938201904 4.865691184997559 5.584469795227051 4.393640995025635 L 6.543499946594238 2.247311115264893 C 6.666230201721191 1.972631216049194 6.923940181732178 1.951281189918518 7 1.951281189918518 C 7.076059818267822 1.951281189918518 7.333769798278809 1.972631216049194 7.456500053405762 2.24730110168457 L 8.415530204772949 4.393640995025635 C 8.626449584960938 4.865691184997559 9.075900077819824 5.201021194458008 9.588479995727539 5.268781185150146 L 11.90773010253906 5.575331211090088 C 12.10142993927002 5.600931167602539 12.25415992736816 5.726811408996582 12.31626987457275 5.912061214447021 C 12.37837982177734 6.097321033477783 12.33240985870361 6.289821147918701 12.19330024719238 6.427011013031006 L 10.42310047149658 8.172751426696777 C 10.0696496963501 8.521310806274414 9.911700248718262 9.020991325378418 10.00059986114502 9.509381294250488 L 10.44690036773682 11.96119117736816 C 10.48171043395996 12.15240097045898 10.40981960296631 12.28745079040527 10.34337997436523 12.3670711517334 C 10.24610042572021 12.48366165161133 10.10060977935791 12.55327129364014 9.954179763793945 12.55327129364014 Z" stroke="none"/>
      <path d="M 7 2.451281547546387 L 6.040969848632812 4.597611427307129 C 5.759739875793457 5.227010726928711 5.160479545593262 5.674120903015137 4.47704029083252 5.764471054077148 L 2.157790184020996 6.071011543273926 L 3.927969932556152 7.816730976104736 C 4.399259567260742 8.281491279602051 4.60984992980957 8.947731018066406 4.491310119628906 9.598931312561035 L 4.045009613037109 12.05073165893555 L 5.998000144958496 10.9201717376709 C 6.302110195159912 10.74412155151367 6.648600101470947 10.65107154846191 7 10.65107154846191 C 7.351379871368408 10.65107154846191 7.697859764099121 10.74412155151367 8.001999855041504 10.9201717376709 L 9.954978942871094 12.0507230758667 C 9.954980850219727 12.05072212219238 9.954983711242676 12.05072021484375 9.954990386962891 12.05074119567871 L 9.508689880371094 9.598931312561035 C 9.39015007019043 8.947731018066406 9.600740432739258 8.281491279602051 10.07201957702637 7.816740989685059 L 11.842209815979 6.07102108001709 L 9.522950172424316 5.764471054077148 C 8.839519500732422 5.674120903015137 8.240260124206543 5.227010726928711 7.959030151367188 4.597611427307129 L 7 2.451281547546387 M 7 1.451281547546387 C 7.368319988250732 1.451281547546387 7.736639976501465 1.64863109588623 7.913000106811523 2.043331146240234 L 8.872030258178711 4.189661026000977 C 9.013700485229492 4.506721496582031 9.309720039367676 4.727581024169922 9.653999328613281 4.773091316223145 L 11.9732494354248 5.079641342163086 C 12.79817008972168 5.188671112060547 13.13683986663818 6.198751449584961 12.54438018798828 6.783020973205566 L 10.77418994903564 8.528751373291016 C 10.53874015808105 8.760940551757812 10.43330001831055 9.094511032104492 10.49252033233643 9.419841766357422 L 10.93881988525391 11.87165069580078 C 11.0915002822876 12.71042156219482 10.19182968139648 13.34331130981445 9.45398998260498 12.91618156433105 L 7.500999927520752 11.78562164306641 C 7.191090106964111 11.60622119903564 6.808909893035889 11.60622119903564 6.499000072479248 11.78562164306641 L 4.54601001739502 12.91618156433105 C 3.808159828186035 13.34331035614014 2.908500671386719 12.71042156219482 3.061180114746094 11.87165069580078 L 3.507479667663574 9.419841766357422 C 3.566699981689453 9.094511032104492 3.461259841918945 8.760940551757812 3.225810050964355 8.528751373291016 L 1.455619812011719 6.783020973205566 C 0.8631601333618164 6.198751449584961 1.20182991027832 5.188671112060547 2.026749610900879 5.079641342163086 L 4.345999717712402 4.773091316223145 C 4.690279960632324 4.727581024169922 4.986300468444824 4.506721496582031 5.127969741821289 4.189661026000977 L 6.086999893188477 2.043331146240234 C 6.263360023498535 1.64863109588623 6.631680011749268 1.451281547546387 7 1.451281547546387 Z" stroke="none" fill="#f8ae29"/>
    </g>
  </g>
</svg>
