<svg id="组_10404" data-name="组 10404" xmlns="http://www.w3.org/2000/svg" width="24" height="24" viewBox="0 0 24 24">
  <rect id="矩形_19726" data-name="矩形 19726" width="24" height="24" fill="none"/>
  <g id="组_10402" data-name="组 10402" transform="translate(-155.757 -418.633)">
    <path id="路径_9640" data-name="路径 9640" d="M161.833,430.633m-1.833,0a1.833,1.833,0,1,0,1.833-1.833A1.833,1.833,0,0,0,160,430.633Z" transform="translate(0 0)" fill="#ffffff"/>
    <path id="路径_9641" data-name="路径 9641" d="M430.633,430.633m-1.833,0a1.833,1.833,0,1,0,1.833-1.833A1.833,1.833,0,0,0,428.8,430.633Z" transform="translate(-262.877 0)" fill="#ffffff"/>
    <path id="路径_9642" data-name="路径 9642" d="M699.433,430.633m-1.833,0a1.833,1.833,0,1,0,1.833-1.833A1.833,1.833,0,0,0,697.6,430.633Z" transform="translate(-525.753 0)" fill="#ffffff"/>
  </g>
</svg>
