<svg xmlns="http://www.w3.org/2000/svg" width="77" height="30" viewBox="0 0 77 30">
  <g id="add_to" data-name="add to" transform="translate(-149 -688)">
    <text id="Move" transform="translate(177.59 708)" fill="#2988e6" font-size="12" font-family="Poppins-Regular, Poppins"><tspan x="0" y="0">Add to</tspan></text>
    <g id="矩形_18156" data-name="矩形 18156" transform="translate(149 688)" fill="none" stroke="#2988e6" stroke-width="1">
      <rect width="77" height="30" rx="15" stroke="none"/>
      <rect x="0.5" y="0.5" width="76" height="29" rx="14.5" fill="none"/>
    </g>
    <path id="路径_5690" data-name="路径 5690" d="M28.589,87.682H17.92a.856.856,0,0,1-.853-.853V77.654a.856.856,0,0,1,.853-.853H22.4L23.467,78.3h5.121a.856.856,0,0,1,.853.853v7.681a.856.856,0,0,1-.852.853Zm0-8.321a.2.2,0,0,0-.213-.213H22.828l-1.067-1.494H18.134a.2.2,0,0,0-.213.213v8.748a.2.2,0,0,0,.213.213H28.375a.2.2,0,0,0,.213-.213Zm-2.112,3.99-1.643,1.664a.439.439,0,0,1-.619-.619l.981-.981H20.267a.427.427,0,0,1,0-.853H25.26l-.939-.939a.424.424,0,0,1,.6-.6L26.6,82.71a.407.407,0,0,1-.021.576.466.466,0,0,1-.1.064Z" transform="translate(143.069 620.946)" fill="#2988e6"/>
  </g>
</svg>
