<svg xmlns="http://www.w3.org/2000/svg" xmlns:xlink="http://www.w3.org/1999/xlink" width="37.618" height="40.166" viewBox="0 0 37.618 40.166">
  <defs>
    <linearGradient id="linear-gradient" x1="2.338" y1="0.379" x2="2.055" y2="1.048" gradientUnits="objectBoundingBox">
      <stop offset="0" stop-color="#29abe2"/>
      <stop offset="1" stop-color="#1071bc"/>
    </linearGradient>
    <linearGradient id="linear-gradient-2" x1="0.5" y1="1" x2="0.5" gradientUnits="objectBoundingBox">
      <stop offset="0" stop-color="#97b6cc"/>
      <stop offset="1" stop-color="#ebf5fc"/>
    </linearGradient>
    <clipPath id="clip-path">
      <rect id="矩形_6256" data-name="矩形 6256" width="23.026" height="17.936" fill="none"/>
    </clipPath>
  </defs>
  <g id="My_Patient" data-name="My Patient" transform="translate(-0.001)">
    <g id="组_6665" data-name="组 6665">
      <g id="phone-book_3_" data-name="phone-book (3)">
        <g id="组_6610" data-name="组 6610" transform="translate(2.351)">
          <g id="组_6609" data-name="组 6609">
            <path id="路径_5056" data-name="路径 5056" d="M76.565,4.785V3.53A3.524,3.524,0,0,0,73.038,0H49.527A3.524,3.524,0,0,0,46,3.53V36.636a3.524,3.524,0,0,0,3.527,3.53H73.038a3.524,3.524,0,0,0,3.527-3.53V16.553l2.351-5.476Z" transform="translate(-46)" fill="url(#linear-gradient)"/>
          </g>
        </g>
        <g id="组_6612" data-name="组 6612" transform="translate(0 4.785)">
          <g id="组_6611" data-name="组 6611">
            <path id="路径_5057" data-name="路径 5057" d="M21.878,61h-4.7a1.177,1.177,0,1,0,0,2.354h4.7a1.177,1.177,0,1,0,0-2.354Zm0,9.414h-4.7a1.177,1.177,0,0,0,0,2.354h4.7a1.177,1.177,0,0,0,0-2.354Zm0,9.414h-4.7a1.177,1.177,0,0,0,0,2.354h4.7a1.177,1.177,0,0,0,0-2.354Zm0,9.414h-4.7a1.177,1.177,0,0,0,0,2.354h4.7a1.177,1.177,0,0,0,0-2.354ZM52.442,61H48.916V72.768h3.527a1.165,1.165,0,0,0,1.176-1.177V62.177A1.165,1.165,0,0,0,52.442,61Z" transform="translate(-16 -61)" fill="url(#linear-gradient-2)"/>
          </g>
        </g>
      </g>
    </g>
    <g id="组_6664" data-name="组 6664" transform="translate(5.113 11.115)">
      <g id="组_6663" data-name="组 6663" transform="translate(2)">
        <g id="组_6662" data-name="组 6662">
          <g id="组_6661" data-name="组 6661" clip-path="url(#clip-path)">
            <path id="路径_5072" data-name="路径 5072" d="M709.319,158.7c0,1.766-.639,4.476-3.2,4.476s-3.2-2.71-3.2-4.476a3.2,3.2,0,0,1,6.394,0Zm1.918,5.754c-.422-.843-2.038-.769-3.205-1.056q.008.206.008.416a6.756,6.756,0,0,1-1.015,3.95l-.263-3.95h-1.279l-.263,3.95a6.756,6.756,0,0,1-1.015-3.95q0-.211.008-.417c-1.167.287-2.784.213-3.205,1.056-.639,1.279-1.279,6.394-.639,7.672a1.931,1.931,0,0,0,2.174,1.279H709.7a1.931,1.931,0,0,0,2.174-1.279c.639-1.279,0-6.394-.639-7.672Zm-10.344-4.216" transform="translate(-694.617 -155.491)" fill="#ebf5fc"/>
          </g>
        </g>
      </g>
      <ellipse id="椭圆_508" data-name="椭圆 508" cx="4.338" cy="2.523" rx="4.338" ry="2.523" transform="translate(9.173 7.68)" fill="#ebf5fc"/>
    </g>
  </g>
</svg>
