<svg xmlns="http://www.w3.org/2000/svg" width="44" height="35" viewBox="0 0 44 35">
  <g id="组_10025" data-name="组 10025" transform="translate(-275 -560)">
    <g id="组_9923" data-name="组 9923" transform="translate(210.468 425.916)">
      <path id="路径_9489" data-name="路径 9489" d="M354.545,235.233l-.939-3.454a1.384,1.384,0,0,0-1.692-.974l-16.723,4.43Z" transform="translate(-255.866 -90.842)" fill="#ff5023"/>
      <path id="路径_9490" data-name="路径 9490" d="M182.1,341.845h29.012v21.186H182.1Z" transform="translate(-108.973 -197.434)" fill="#fee9ab"/>
      <path id="路径_9491" data-name="路径 9491" d="M211.113,565.359v-11.2c-1.423,3.2-4.856,7.965-12.724,7.965a49.2,49.2,0,0,1-16.289-3.033V565.3a1.384,1.384,0,0,0,1.384,1.384h26.249A1.384,1.384,0,0,0,211.113,565.359Z" transform="translate(-108.973 -401.15)" fill="#ffd422"/>
      <path id="路径_9492" data-name="路径 9492" d="M209.732,341.333H183.484a1.384,1.384,0,0,0-1.384,1.384v2a1.384,1.384,0,0,1,1.384-1.384h26.249a1.384,1.384,0,0,1,1.384,1.384v-2a1.384,1.384,0,0,0-1.387-1.384Z" transform="translate(-108.973 -196.942)" fill="#ebbf00"/>
      <path id="路径_9493" data-name="路径 9493" d="M661.8,512h9.215v7.385H661.8a1.844,1.844,0,0,1-1.837-1.858v-3.669A1.844,1.844,0,0,1,661.8,512Z" transform="translate(-567.498 -360.701)" fill="#fee9ab"/>
      <path id="路径_9494" data-name="路径 9494" d="M670.657,562.176s.428,3.682-4.642,3.682a19.376,19.376,0,0,1-6.217-.919v.732a1.837,1.837,0,0,0,1.837,1.837h9.222V562.5Z" transform="translate(-567.336 -408.846)" fill="#ffd422"/>
      <path id="路径_9495" data-name="路径 9495" d="M91.322,575.337m-5.989,0a5.989,5.989,0,1,0,5.989-5.989A5.989,5.989,0,0,0,85.333,575.337Z" transform="translate(-16.122 -415.725)" fill="#fee9ab"/>
      <path id="路径_9496" data-name="路径 9496" d="M114.169,589.995a5.975,5.975,0,0,1-8.185,8.185,5.982,5.982,0,1,0,8.185-8.185Z" transform="translate(-35.937 -435.539)" fill="#ffd422"/>
      <path id="路径_9497" data-name="路径 9497" d="M103.521,150.608h-.692v-4.835a2.072,2.072,0,0,0-2.072-2.072H99.2l-.8-3a2.072,2.072,0,0,0-2.535-1.465l-.761.208-1.029-2.162a2.072,2.072,0,0,0-2.763-1L75.379,143.7h-.87a2.072,2.072,0,0,0-2.072,2.072v7.766A6.673,6.673,0,0,0,75.2,166.283h25.558a2.072,2.072,0,0,0,2.072-2.072v-4.835h.692a.692.692,0,0,0,.692-.692V151.3a.692.692,0,0,0-.694-.691Zm-11.6-13.124a.692.692,0,0,1,.919.332l.912,1.962-6.286,1.686a.694.694,0,0,0,.359,1.34l8.407-2.252a.692.692,0,0,1,.842.485l.692,2.639H78.647ZM69.9,159.588a5.3,5.3,0,1,1,5.3,5.291,5.3,5.3,0,0,1-5.3-5.291Zm31.547,2.072H88.857a.692.692,0,0,0,0,1.384h12.593v1.147a.692.692,0,0,1-.692.692H79.248a6.555,6.555,0,0,0,1.651-1.837h1.9a.692.692,0,1,0,0-1.384H81.541A6.673,6.673,0,0,0,75.2,152.91a6.465,6.465,0,0,0-1.384.145v-7.283a.692.692,0,0,1,.692-.692h26.249a.692.692,0,0,1,.692.692v4.835H94.306a2.528,2.528,0,0,0-2.528,2.528v3.689a2.528,2.528,0,0,0,2.528,2.528h7.142Zm1.384-3.689H94.306a1.147,1.147,0,0,1-1.147-1.147v-3.669a1.147,1.147,0,0,1,1.147-1.167h8.524Z" transform="translate(0 0)"/>
      <path id="路径_9498" data-name="路径 9498" d="M195.162,587.79H196.2a.692.692,0,1,0,0-1.384h-1.038a.692.692,0,1,0,0,1.384Zm-9.215,5.968h-.919a.692.692,0,0,0,0,1.385h.919a.692.692,0,0,0,0-1.385Zm-10.444.995.076.214a.692.692,0,1,0,1.3-.47l-.1-.277a1.926,1.926,0,0,0,.649-.739,1.83,1.83,0,0,0,.062-1.384,1.851,1.851,0,0,0-2.383-1.108l-.442.138a.463.463,0,0,1-.311-.831l.87-.318a.692.692,0,1,0,1.3-.47,1.347,1.347,0,0,0-1.748-.831l-.111-.248a.692.692,0,1,0-1.3.47l.1.283a1.837,1.837,0,0,0,1.672,3.24l.428-.159a.463.463,0,0,1,.594.277.449.449,0,0,1,0,.352.428.428,0,0,1-.255.235l-.87.318a.692.692,0,1,0-1.292.477,1.384,1.384,0,0,0,1.769.822Z" transform="translate(-99.929 -432.099)"/>
    </g>
    <rect id="矩形_19714" data-name="矩形 19714" width="44" height="35" transform="translate(275 560)" fill="#f4f4f4" opacity="0.703"/>
  </g>
</svg>
