<svg xmlns="http://www.w3.org/2000/svg" width="15" height="15" viewBox="0 0 15 15">
  <path id="问号_1_" data-name="问号 (1)" d="M107.98,96a7.5,7.5,0,1,1-7.5,7.5A7.5,7.5,0,0,1,107.98,96Zm0,1.154a6.346,6.346,0,1,0,6.346,6.346A6.346,6.346,0,0,0,107.98,97.154Zm.156,9.294a.577.577,0,1,1-.577.577A.577.577,0,0,1,108.136,106.449Zm0-6.986a2.292,2.292,0,0,1,2.306,3.007,3.675,3.675,0,0,1-.765,1.2l-.214.227-.307.317a1.182,1.182,0,0,0-.443.844.577.577,0,0,1-1.154,0,2.143,2.143,0,0,1,.658-1.527l.1-.107c.075-.079.338-.349.387-.4a2.827,2.827,0,0,0,.662-.965,1.146,1.146,0,0,0-1.229-1.438c-.867,0-1.349.581-1.322,1.072l.007.063a.577.577,0,1,1-1.141.173,2.289,2.289,0,0,1,2.456-2.463Z" transform="translate(-100.48 -96)" fill="#4b4b4b"/>
</svg>
