<svg xmlns="http://www.w3.org/2000/svg" width="86.059" height="33.529" viewBox="0 0 86.059 33.529">
  <g id="reply" transform="translate(-298.941 -688)">
    <g id="组_7573" data-name="组 7573" transform="translate(298.941 688)">
      <text id="Reply-2" data-name="Reply" transform="translate(34.059 22)" fill="#2fb355" font-size="14" font-family="Poppins-Regular, Poppins"><tspan x="0" y="0">Reply</tspan></text>
      <g id="路径_5695" data-name="路径 5695" fill="none">
        <path d="M16.765,0H69.294a16.765,16.765,0,0,1,0,33.529H16.765A16.765,16.765,0,0,1,16.765,0Z" stroke="none"/>
        <path d="M 16.76470184326172 1 C 12.55380249023438 1 8.594932556152344 2.639812469482422 5.617378234863281 5.617376327514648 C 2.639808654785156 8.594928741455078 1 12.55380058288574 1 16.76470565795898 C 1 20.97561264038086 2.639808654785156 24.93448257446289 5.617378234863281 27.91203498840332 C 8.594932556152344 30.88959884643555 12.55380249023438 32.52941131591797 16.76470184326172 32.52941131591797 L 69.29411315917969 32.52941131591797 C 73.50502014160156 32.52941131591797 77.46389770507812 30.88959884643555 80.44144439697266 27.91203498840332 C 83.41901397705078 24.93448257446289 85.05882263183594 20.97561264038086 85.05882263183594 16.76470565795898 C 85.05882263183594 12.55380058288574 83.41901397705078 8.594928741455078 80.44144439697266 5.617376327514648 C 77.46389770507812 2.639812469482422 73.50502014160156 1 69.29411315917969 1 L 16.76470184326172 1 M 16.76470184326172 0 L 69.29411315917969 0 C 78.55300903320312 0 86.05882263183594 7.50581169128418 86.05882263183594 16.76470565795898 C 86.05882263183594 26.02359962463379 78.55300903320312 33.52941131591797 69.29411315917969 33.52941131591797 L 16.76470184326172 33.52941131591797 C 7.505813598632812 33.52941131591797 0 26.02359962463379 0 16.76470565795898 C 0 7.50581169128418 7.505813598632812 0 16.76470184326172 0 Z" stroke="none" fill="#2fb355"/>
      </g>
    </g>
    <path id="路径_5691" data-name="路径 5691" d="M6.308,114.971a.933.933,0,0,0,.682-.305.991.991,0,0,0,.262-.652h0v-2.022a.657.657,0,0,1,.644-.639h0a15.945,15.945,0,0,1,3.9.46A7.082,7.082,0,0,1,14.87,113.5l.059.056.043.042.024.023.035.026a.931.931,0,0,0,.536.169.959.959,0,0,0,.853-1.365,13.32,13.32,0,0,0-2.94-4.235,9.4,9.4,0,0,0-5.669-2.574.648.648,0,0,1-.559-.636v-1.629h0a.993.993,0,0,0-.261-.651.922.922,0,0,0-1.288-.083l-.01.007-.029.027-5.1,4.712-.031.028-.066.062a1.6,1.6,0,0,0-.1,2.152l.017.019.2.2,5.049,4.836a.61.61,0,0,0,.047.046.937.937,0,0,0,.626.241Zm.022-.977a.083.083,0,0,1-.025.058h0l-5.241-5.018a.691.691,0,0,1,.048-.894h0l5.192-4.8a.086.086,0,0,1,.025.059v1.584c0,.015,0,.035,0,.059a1.57,1.57,0,0,0,1.386,1.514h0a8.491,8.491,0,0,1,5.124,2.328,12.414,12.414,0,0,1,2.735,3.949l0,.008a.043.043,0,0,1,0,.02.046.046,0,0,1-.017.039l-.063-.06-.134-.127h0c-1.993-1.8-4.439-2.214-7.484-2.277h0a1.585,1.585,0,0,0-1.555,1.522c0,.02,0,.039,0,.058v1.978Z" transform="translate(311.473 595.989)" fill="#2fb355"/>
  </g>
</svg>
