<svg xmlns="http://www.w3.org/2000/svg" width="34" height="34" viewBox="0 0 34 34">
  <g id="schedule2" transform="translate(-219 -740)">
    <rect id="矩形_18176" data-name="矩形 18176" width="34" height="34" transform="translate(219 740)" fill="none"/>
    <g id="页面-1" transform="translate(223 742.25)">
      <g id="iPhone-8" transform="translate(-253 -287)">
        <g id="schedule" transform="translate(253 288)">
          <path id="路径" d="M1.563,11V21.5a3,3,0,0,0,2.824,2.995l.176.005H13.25a.75.75,0,0,1,0,1.5H4a4,4,0,0,1-4-4V6A4,4,0,0,1,4,2H21a4,4,0,0,1,4,4v5Z" fill="#fece55" fill-rule="evenodd"/>
          <g id="编组" transform="translate(14 13)">
            <path id="形状" d="M7,0a7,7,0,1,0,7,7A7,7,0,0,0,7,0ZM9.8,8.4H7a.7.7,0,0,1-.7-.7h0V3.5a.7.7,0,1,1,1.4,0V7H9.8a.7.7,0,0,1,0,1.4Z" fill="#fece55"/>
          </g>
          <line id="直线-2" y2="3" transform="translate(5.5 0.5)" fill="none" stroke="#fece55" stroke-linecap="round" stroke-width="1.3"/>
          <line id="直线-2备份" y2="3" transform="translate(17.5 0.5)" fill="none" stroke="#fece55" stroke-linecap="round" stroke-width="1.3"/>
          <line id="直线" x2="5" transform="translate(4.5 14.5)" fill="none" stroke="#fece55" stroke-linecap="round" stroke-width="1.6"/>
          <line id="直线备份" x2="5" transform="translate(4.5 20)" fill="none" stroke="#fece55" stroke-linecap="round" stroke-width="1.6"/>
        </g>
      </g>
    </g>
  </g>
</svg>
