<svg xmlns="http://www.w3.org/2000/svg" width="15.572" height="15.572" viewBox="0 0 15.572 15.572">
  <path id="Add_Facility" data-name="Add Facility" d="M13.222,1.993H9.284L8.537.965A2.338,2.338,0,0,0,6.654,0H2.35A2.384,2.384,0,0,0,0,2.421V13.159a2.383,2.383,0,0,0,2.35,2.414H13.222a2.389,2.389,0,0,0,2.35-2.421V4.407a2.393,2.393,0,0,0-2.35-2.414ZM5.448,6.229h4.669a.779.779,0,1,1,0,1.557H5.448a.779.779,0,1,1,0-1.557ZM10.117,10.9H5.448a.686.686,0,0,1-.779-.779.686.686,0,0,1,.779-.779h4.669a.686.686,0,0,1,.779.779A.686.686,0,0,1,10.117,10.9Z" fill="#fece55"/>
</svg>
