<svg xmlns="http://www.w3.org/2000/svg" xmlns:xlink="http://www.w3.org/1999/xlink" width="375.001" height="222.001" viewBox="0 0 375.001 222.001">
  <defs>
    <linearGradient id="linear-gradient" x1="0.987" y1="0.453" x2="0" y2="1.049" gradientUnits="objectBoundingBox">
      <stop offset="0" stop-color="#2988e6"/>
      <stop offset="1" stop-color="#337fe8"/>
    </linearGradient>
  </defs>
  <g id="BG" transform="translate(0 0)">
    <rect id="矩形_6214" data-name="矩形 6214" width="375" height="56" transform="translate(0 44)" fill="none"/>
    <path id="减去_2" data-name="减去 2" d="M-706.9-5876h-.1v-222h375v135a44.713,44.713,0,0,1-3.536,17.516,44.84,44.84,0,0,1-9.644,14.3,44.85,44.85,0,0,1-14.3,9.644A44.73,44.73,0,0,1-377-5918H-664v.043a44.887,44.887,0,0,0-29.485,12.807A44.888,44.888,0,0,0-706.9-5876Z" transform="translate(707 6098)" fill="url(#linear-gradient)"/>
    <path id="交叉_3" data-name="交叉 3" d="M3386,432.539V372.461A51.093,51.093,0,0,1,3427,352c28.167,0,51,22.61,51,50.5s-22.833,50.5-51,50.5A51.093,51.093,0,0,1,3386,432.539Z" transform="translate(-3386 -324)" fill="#fff" opacity="0.079"/>
    <path id="交叉_2" data-name="交叉 2" d="M3455,531V351h98.368a106.528,106.528,0,0,1-35.536,180Z" transform="translate(-3455 -351)" fill="#fff" opacity="0.055"/>
    <path id="交叉_1" data-name="交叉 1" d="M3528,606V426h192.708a181.742,181.742,0,0,1-12.049,180Z" transform="translate(-3528 -426)" fill="#fff" opacity="0.047"/>
  </g>
</svg>
