<?xml version="1.0" standalone="no"?><!DOCTYPE svg PUBLIC "-//W3C//DTD SVG 1.1//EN" "http://www.w3.org/Graphics/SVG/1.1/DTD/svg11.dtd"><svg t="1628473352541" class="icon" viewBox="0 0 1024 1024" version="1.1" xmlns="http://www.w3.org/2000/svg" p-id="7186" xmlns:xlink="http://www.w3.org/1999/xlink" width="200" height="200"><defs><style type="text/css"></style></defs><path d="M481.827 106.962c0-25.372 29.516-39.107 48.886-23.088l0.583 0.494 225.395 195.52c13.219 11.467 13.778 31.736 1.372 43.92l-0.564 0.54-199.723 186.403 199.379 180.334c13.25 11.984 13.073 32.785-0.213 44.557l-0.586 0.506-225.394 189.77c-19.247 16.206-48.542 2.815-49.126-22.12l-0.01-0.76V581.636l-164.46 153.5c-11.88 11.086-30.386 10.626-41.703-0.902l-0.542-0.567c-11.082-11.885-10.621-30.4 0.901-41.723l0.566-0.542 192.814-179.958-229.557-207.629c-12.054-10.902-13.165-29.396-2.637-41.658l0.51-0.579c10.897-12.06 29.382-13.171 41.637-2.639l0.58 0.51 201.892 182.606V106.962z m59.779 469.787v262.037L691.648 712.46 541.606 576.749z m0-404.28v271.584L692.42 303.295 541.606 172.47z" fill="#ffffff" p-id="7187"></path></svg>