<svg xmlns="http://www.w3.org/2000/svg" width="24" height="24" viewBox="0 0 24 24">
  <g id="组_10509" data-name="组 10509" transform="translate(-903 -1151)">
    <rect id="矩形_19726" data-name="矩形 19726" width="24" height="24" transform="translate(903 1151)" fill="none"/>
    <g id="组_10522" data-name="组 10522" transform="translate(907 1154)">
      <path id="路径_9638" data-name="路径 9638" d="M123.535,77.811a4.958,4.958,0,0,0,1.665-3.7v-4.8a.561.561,0,0,0-.137-.515A6.964,6.964,0,0,0,120.2,67.13a7.11,7.11,0,0,0-4.671,1.495v0a.569.569,0,0,0-.272.484v5a4.959,4.959,0,0,0,1.688,3.724,6.653,6.653,0,0,0-4.578,5.731,1.1,1.1,0,0,0,1.1,1.2H127.1a1.1,1.1,0,0,0,1.1-1.206A6.7,6.7,0,0,0,123.535,77.811Zm.524-8.386v3.7a9.3,9.3,0,0,0-7.665-.007V69.39a6.1,6.1,0,0,1,3.8-1.118A6.206,6.206,0,0,1,124.059,69.424Zm-7.65,4.988.017.022a6.487,6.487,0,0,1,3.787-1,6.386,6.386,0,0,1,3.827,1.041,3.83,3.83,0,0,1-7.631-.061ZM113.5,83.626a5.6,5.6,0,0,1,3.058-4.4,5.79,5.79,0,0,1,1.542-.5c.058-.01.114-.023.173-.031l.012,0a4.973,4.973,0,0,0,3.871,0,2.844,2.844,0,0,1,1.515.385,5.554,5.554,0,0,1,3.379,4.55H113.5Z" transform="translate(-112.358 -67.13)" fill="#2988e6"/>
    </g>
  </g>
</svg>
