<svg xmlns="http://www.w3.org/2000/svg" width="30.137" height="20.65" viewBox="0 0 30.137 20.65"><g transform="translate(-499.812 -1301.881)"><path d="M80.227,189a4.029,4.029,0,0,1,4.041,3.948v4.044l6-4.758a1,1,0,0,1,1.615.755v12.1a1,1,0,0,1-1.6.795l-.02-.015-6-4.758v3.978a4.028,4.028,0,0,1-3.975,4.014H68.042A4.029,4.029,0,0,1,64,205.156V193.014A4.028,4.028,0,0,1,67.975,189Zm0,1.991H68.042a2.038,2.038,0,0,0-2.05,1.99V205.09a2.037,2.037,0,0,0,2.016,2.023H80.227a2.038,2.038,0,0,0,2.05-1.99V193.014a2.037,2.037,0,0,0-2.016-2.023Zm9.666,4.084-5.017,3.978,5.017,3.978Z" transform="translate(438.067 1112.923)" fill="#fff"/><rect width="30.07" height="20.65" transform="translate(499.812 1301.881)" fill="none" opacity="0.402"/></g></svg>