<svg id="组件_20_10" data-name="组件 20 – 10" xmlns="http://www.w3.org/2000/svg" width="18" height="18" viewBox="0 0 18 18">
  <g id="组_12167" data-name="组 12167" transform="translate(-750 -1607)">
    <g id="路径_13249" data-name="路径 13249" transform="translate(750 1607)" fill="#2988e6">
      <path d="M 9 17.5 C 4.313079833984375 17.5 0.5 13.68692016601562 0.5 9 C 0.5 4.313079833984375 4.313079833984375 0.5 9 0.5 C 13.68692016601562 0.5 17.5 4.313079833984375 17.5 9 C 17.5 13.68692016601562 13.68692016601562 17.5 9 17.5 Z" stroke="none"/>
      <path d="M 9 1 C 4.588789939880371 1 1 4.588789939880371 1 9 C 1 13.41121006011963 4.588789939880371 17 9 17 C 13.41121006011963 17 17 13.41121006011963 17 9 C 17 4.588789939880371 13.41121006011963 1 9 1 M 9 0 C 13.97056007385254 0 18 4.029439926147461 18 9 C 18 13.97056007385254 13.97056007385254 18 9 18 C 4.029439926147461 18 0 13.97056007385254 0 9 C 0 4.029439926147461 4.029439926147461 0 9 0 Z" stroke="none" fill="#2988e6"/>
    </g>
    <g id="组_13557" data-name="组 13557" transform="translate(0 -0.5)">
      <line id="直线_1281" data-name="直线 1281" x2="9" transform="translate(754.5 1616.5)" fill="none" stroke="#fff" stroke-linecap="round" stroke-width="1"/>
      <line id="直线_1282" data-name="直线 1282" x2="9" transform="translate(759 1612) rotate(90)" fill="none" stroke="#fff" stroke-linecap="round" stroke-width="1"/>
    </g>
  </g>
  <g id="组_13559" data-name="组 13559" transform="translate(-333 -247)">
    <circle id="椭圆_693" data-name="椭圆 693" cx="9" cy="9" r="9" transform="translate(333 247)" fill="#2fb355"/>
    <g id="组_13558" data-name="组 13558" transform="translate(-0.477 -0.582)">
      <line id="直线_1308" data-name="直线 1308" x2="2.577" y2="2.577" transform="translate(337.976 257.505)" fill="none" stroke="#fff" stroke-linecap="round" stroke-width="1.5"/>
      <line id="直线_1309" data-name="直线 1309" x1="6.423" y2="7" transform="translate(340.554 253.082)" fill="none" stroke="#fff" stroke-linecap="round" stroke-width="1.5"/>
    </g>
  </g>
</svg>
