<svg id="组_8529" data-name="组 8529" xmlns="http://www.w3.org/2000/svg" width="23.221" height="23.225" viewBox="0 0 23.221 23.225">
  <path id="路径_8271" data-name="路径 8271" d="M21.769,3.9V19.87a2.178,2.178,0,0,1-2.177,2.177H3.628A2.178,2.178,0,0,1,1.451,19.87V3.9A2.178,2.178,0,0,1,3.628,1.723H19.593A2.178,2.178,0,0,1,21.769,3.9ZM2.9.271A2.9,2.9,0,0,0,0,3.175V20.59a2.9,2.9,0,0,0,2.9,2.9H20.317a2.9,2.9,0,0,0,2.9-2.9V3.174a2.9,2.9,0,0,0-2.9-2.9Z" transform="translate(0 -0.27)" fill="#2fb355"/>
  <path id="路径_8272" data-name="路径 8272" d="M26.637,33.314S23.384,34.4,19.6,38.729a42.031,42.031,0,0,0-5.686,7.717,19.035,19.035,0,0,0-7.581-6.9L9.173,36.83a15.544,15.544,0,0,1,4.333,5.01A29.761,29.761,0,0,1,26.637,31.55Z" transform="translate(-4.873 -27.386)" fill="#2fb355"/>
</svg>
