<svg xmlns="http://www.w3.org/2000/svg" width="30" height="30" viewBox="0 0 30 30">
  <g id="组_13571" data-name="组 13571" transform="translate(-30 -465)">
    <g id="组_13569" data-name="组 13569">
      <g id="组_10836" data-name="组 10836" transform="translate(0 -50)">
        <rect id="矩形_20721" data-name="矩形 20721" width="30" height="30" rx="4" transform="translate(30 515)" fill="#2988e6" opacity="0.063"/>
        <g id="组_10834" data-name="组 10834">
          <g id="组_10833" data-name="组 10833" transform="translate(0 1)">
            <path id="路径_13138" data-name="路径 13138" d="M12.628,12.618a.794.794,0,0,1,1.123,0L15.81,14.28h.036a1.087,1.087,0,0,1,0,1.525,1.058,1.058,0,0,1-1.508,0l-1.709-1.959-.064-.072a.873.873,0,0,1,.064-1.154ZM6.954,0a6.873,6.873,0,0,1,4.888,2.047,7.026,7.026,0,0,1,2.024,4.94A6.914,6.914,0,1,1,6.952,0Z" transform="translate(37.962 522)" fill="#2988e6"/>
          </g>
          <g id="路径_13141" data-name="路径 13141" transform="translate(39 524)" fill="none">
            <path d="M5.842,0A5.842,5.842,0,1,1,0,5.842,5.842,5.842,0,0,1,5.842,0Z" stroke="none"/>
            <path d="M 5.8416748046875 0.5999946594238281 C 2.951404571533203 0.5999946594238281 0.5999946594238281 2.951404571533203 0.5999946594238281 5.8416748046875 C 0.5999946594238281 8.731945037841797 2.951404571533203 11.08334445953369 5.8416748046875 11.08334445953369 C 8.731945037841797 11.08334445953369 11.08334445953369 8.731945037841797 11.08334445953369 5.8416748046875 C 11.08334445953369 2.951404571533203 8.731945037841797 0.5999946594238281 5.8416748046875 0.5999946594238281 M 5.8416748046875 -4.76837158203125e-06 C 9.067944526672363 -4.76837158203125e-06 11.68334484100342 2.615405082702637 11.68334484100342 5.8416748046875 C 11.68334484100342 9.067944526672363 9.067944526672363 11.68334484100342 5.8416748046875 11.68334484100342 C 2.615405082702637 11.68334484100342 -4.76837158203125e-06 9.067944526672363 -4.76837158203125e-06 5.8416748046875 C -4.76837158203125e-06 2.615405082702637 2.615405082702637 -4.76837158203125e-06 5.8416748046875 -4.76837158203125e-06 Z" stroke="none" fill="#fff"/>
          </g>
        </g>
      </g>
    </g>
  </g>
</svg>
