<svg xmlns="http://www.w3.org/2000/svg" xmlns:xlink="http://www.w3.org/1999/xlink" width="30" height="30" viewBox="0 0 30 30">
  <defs>
    <linearGradient id="linear-gradient" x1="0.668" y1="0.698" x2="0.127" y2="0.191" gradientUnits="objectBoundingBox">
      <stop offset="0" stop-color="#2988e6"/>
      <stop offset="1" stop-color="#649fff"/>
    </linearGradient>
  </defs>
  <g id="组_13748" data-name="组 13748" transform="translate(-128 -463)">
    <path id="support_face_icon" data-name="support face icon" d="M55.44,65.915a7.374,7.374,0,0,0-5.394-2.158,7.555,7.555,0,0,0-5.462,2.158A6.85,6.85,0,0,0,42.6,70.837a7.336,7.336,0,0,0,.91,3.506l-.472,1.382a1.5,1.5,0,0,0,1.416,1.955.742.742,0,0,0,.27-.034l2.09-.371a7.721,7.721,0,0,0,3.169.641h.169a7.421,7.421,0,0,0,5.26-2.158,7.129,7.129,0,0,0,.034-9.845Zm-5.428,8.631a3.734,3.734,0,0,1-3.776-3.709.674.674,0,0,1,1.349,0,2.428,2.428,0,0,0,4.855,0,.674.674,0,0,1,1.349,0A3.734,3.734,0,0,1,50.012,74.546Z" transform="translate(93.406 407.247)" stroke="rgba(0,0,0,0)" stroke-width="1" fill="url(#linear-gradient)"/>
    <g id="组_13747" data-name="组 13747" transform="translate(98 13)">
      <rect id="矩形_21" data-name="矩形 21" width="30" height="30" rx="4" transform="translate(30 450)" fill="#2988e6" opacity="0.063"/>
    </g>
  </g>
</svg>
