<svg xmlns="http://www.w3.org/2000/svg" width="16" height="17.204" viewBox="0 0 16 17.204">
  <path id="路径_9664" data-name="路径 9664" d="M67.057,78.835a1.073,1.073,0,0,0,1.071,1.074h7.713a1.073,1.073,0,0,0,1.069-1.074V67.43H67.057ZM74.77,65.5a.218.218,0,0,0-.22-.221H69.4a.213.213,0,0,0-.156.063.224.224,0,0,0-.065.158v.648H74.77Zm-6.862.648V65.5A1.5,1.5,0,0,1,69.4,64H74.55a1.5,1.5,0,0,1,1.5,1.5v.648h3.307a.647.647,0,0,1,0,1.294H78.2V78.835A2.364,2.364,0,0,1,75.841,81.2H68.128a2.363,2.363,0,0,1-2.359-2.369V67.43H64.646a.629.629,0,0,1-.454-.186A.662.662,0,0,1,64,66.782a.633.633,0,0,1,.646-.633h3.263Zm4.077,11.818a.629.629,0,0,1-.454-.186.662.662,0,0,1-.192-.461V70.433a.645.645,0,1,1,1.29,0V77.32A.645.645,0,0,1,71.984,77.967Zm3,0a.629.629,0,0,1-.453-.187.662.662,0,0,1-.191-.461V70.433a.645.645,0,1,1,1.29,0V77.32A.663.663,0,0,1,74.989,77.967Zm-6.011,0a.629.629,0,0,1-.453-.187.662.662,0,0,1-.191-.461V70.433a.645.645,0,1,1,1.29,0V77.32A.645.645,0,0,1,68.978,77.967Z" transform="translate(-64 -64)" fill="#999"/>
</svg>
