<svg xmlns="http://www.w3.org/2000/svg" width="24" height="24" viewBox="0 0 24 24">
  <g id="组_13712" data-name="组 13712" transform="translate(-336 -53)">
    <rect id="矩形_21126" data-name="矩形 21126" width="24" height="24" transform="translate(336 53)" fill="none"/>
    <g id="组_13716" data-name="组 13716">
      <path id="路径_14282" data-name="路径 14282" d="M6.2-8.506h7.988a.585.585,0,0,0,.435-.186.609.609,0,0,0,.181-.439.6.6,0,0,0-.181-.43.585.585,0,0,0-.435-.186H6.2a.585.585,0,0,0-.435.186.6.6,0,0,0-.181.43.609.609,0,0,0,.181.439A.585.585,0,0,0,6.2-8.506Zm0,3.271h7.988a.588.588,0,0,0,.439-.181.613.613,0,0,0,.176-.444.584.584,0,0,0-.176-.43.6.6,0,0,0-.439-.176H6.2a.6.6,0,0,0-.439.176.584.584,0,0,0-.176.43.613.613,0,0,0,.176.444A.588.588,0,0,0,6.2-5.234Zm0,3.457h4.063a.585.585,0,0,0,.435-.186.609.609,0,0,0,.181-.439.592.592,0,0,0-.181-.435.592.592,0,0,0-.435-.181H6.2a.588.588,0,0,0-.439.181.6.6,0,0,0-.176.435.609.609,0,0,0,.181.439A.585.585,0,0,0,6.2-1.777Zm-.908,5.82h9.8a2.946,2.946,0,0,0,2.2-.757,3.048,3.048,0,0,0,.742-2.222v-14a3.085,3.085,0,0,0-.718-2.2A2.782,2.782,0,0,0,15.2-15.9H14.98a.54.54,0,0,1,.024.137q0,.078,0,.166v.85a1.75,1.75,0,0,1-.059.479h.205a1.144,1.144,0,0,1,.928.371,1.481,1.481,0,0,1,.313.986V1.035a1.372,1.372,0,0,1-.347,1.006,1.386,1.386,0,0,1-1.03.352H5.371a1.372,1.372,0,0,1-1.021-.352A1.372,1.372,0,0,1,4,1.035V-12.91a1.481,1.481,0,0,1,.313-.986,1.132,1.132,0,0,1,.918-.371h.215a1.75,1.75,0,0,1-.059-.479v-.85q0-.088,0-.166A.54.54,0,0,1,5.42-15.9H5.205a2.8,2.8,0,0,0-2.134.762,3.085,3.085,0,0,0-.718,2.2v14A3.035,3.035,0,0,0,3.1,3.286,2.949,2.949,0,0,0,5.293,4.043ZM7.354-13.7h5.693a.851.851,0,0,0,.645-.244.947.947,0,0,0,.234-.684V-15.6a.965.965,0,0,0-.234-.688.842.842,0,0,0-.645-.249h-.811a2.033,2.033,0,0,0-.64-1.353,1.944,1.944,0,0,0-1.4-.562,1.949,1.949,0,0,0-1.4.562,2.025,2.025,0,0,0-.645,1.353h-.8a.855.855,0,0,0-.654.249.965.965,0,0,0-.234.688v.967a.947.947,0,0,0,.234.684A.864.864,0,0,0,7.354-13.7ZM10.2-15.654a.775.775,0,0,1-.576-.239.777.777,0,0,1-.234-.562.8.8,0,0,1,.234-.581.775.775,0,0,1,.576-.239.775.775,0,0,1,.576.239.8.8,0,0,1,.234.581.777.777,0,0,1-.234.562A.775.775,0,0,1,10.2-15.654Z" transform="translate(337.646 72.447)" fill="#fff"/>
    </g>
  </g>
</svg>
