<svg xmlns="http://www.w3.org/2000/svg" width="60" height="60" viewBox="0 0 60 60">
  <g id="组_3386" data-name="组 3386" transform="translate(3.066 2.613)">
    <path id="路径_9645" data-name="路径 9645" d="M30,0A30,30,0,1,1,0,30,30,30,0,0,1,30,0Z" transform="translate(-3.066 -2.613)" fill="#ff4646"/>
    <path id="路径_558" data-name="路径 558" d="M128.15,278.577s0-4.347-2.609-6.835c-3.251-3.106-7.831-3.792-11.852-3.942-4.021.15-8.6.836-11.852,3.942-2.609,2.488-2.609,6.835-2.609,6.835-.067.78.75,2,1.073,2.644a1.166,1.166,0,0,0,.673.674,2.58,2.58,0,0,0,1.238-.293l1.4-.468c.935-.306,1.869-.6,2.814-.861a1.1,1.1,0,0,0,.858-.773,12.668,12.668,0,0,0-.072-3.418,2.338,2.338,0,0,1,.324-1.809,4.714,4.714,0,0,1,2.188-.9A16.68,16.68,0,0,1,115,273a13.741,13.741,0,0,1,3.061.48,3.867,3.867,0,0,1,1.828.861,2.517,2.517,0,0,1,.257,1.734,12.672,12.672,0,0,0-.072,3.418,1.124,1.124,0,0,0,.858.773c.945.256,1.879.555,2.814.861l1.4.468a2.524,2.524,0,0,0,1.238.293,1.166,1.166,0,0,0,.673-.674C127.4,280.573,128.216,279.356,128.15,278.577Z" transform="translate(-87.134 -247.304)" fill="#fff"/>
  </g>
</svg>
