<svg id="组件_6_1" data-name="组件 6 – 1" xmlns="http://www.w3.org/2000/svg" width="21" height="26" viewBox="0 0 21 26">
  <g id="组_20264" data-name="组 20264" transform="translate(-27 -560)">
    <g id="组_20255" data-name="组 20255" transform="translate(0 -55)">
      <g id="组_20242" data-name="组 20242" transform="translate(2 144)">
        <rect id="矩形_22787" data-name="矩形 22787" width="21" height="26" rx="2" transform="translate(25 471)" fill="#fff"/>
      </g>
    </g>
  </g>
  <g id="组_20275" data-name="组 20275" transform="translate(-326.321 -218.649)">
    <path id="路径_22308" data-name="路径 22308" d="M336.737,236.743a.929.929,0,0,1-.93-.93v-.708a3.831,3.831,0,0,1,.259-1.672,2.979,2.979,0,0,1,1.2-1.313h-.024q.784-.606,1.323-1.078a5.359,5.359,0,0,0,.784-.808,2.678,2.678,0,0,0,.494-1.548,2.21,2.21,0,0,0-.19-1.022,3.6,3.6,0,0,0-.594-.882l-.048-.05a2.893,2.893,0,0,0-2.108-.806,2.471,2.471,0,0,0-2.018.977,4.415,4.415,0,0,0-.811,2.15.928.928,0,0,1-1.838-.248,6.621,6.621,0,0,1,.327-1.421,5.211,5.211,0,0,1,1-1.738,4.249,4.249,0,0,1,1.482-1.078,4.64,4.64,0,0,1,1.862-.37,4.813,4.813,0,0,1,3.455,1.257,4.278,4.278,0,0,1,1.368,3.23,4.514,4.514,0,0,1-.695,2.443,6.364,6.364,0,0,1-.988,1.122,14.9,14.9,0,0,1-1.614,1.278,1.629,1.629,0,0,0-.584.618,2.42,2.42,0,0,0-.135.932v.732a.929.929,0,0,1-.93.93Z" transform="translate(0 0)" fill="#9c9fae"/>
    <path id="路径_22309" data-name="路径 22309" d="M468.951,736.951m-.951,0a.951.951,0,1,0,.951-.951A.951.951,0,0,0,468,736.951Z" transform="translate(-132.182 -498.282)" fill="#9c9fae"/>
  </g>
</svg>
