<svg xmlns="http://www.w3.org/2000/svg" width="22.269" height="28" viewBox="0 0 22.269 28">
  <g id="组_6753" data-name="组 6753" transform="translate(-131.891 -34.133)">
    <path id="路径_5665" data-name="路径 5665" d="M278.944,292.233h-9.182v-1.477c1.3-.69,2.729-8.123,3.789-8.091,4.126.851,7.047,3.195,7.047,7.657-.048,1.172-.594,1.91-1.653,1.91ZM275.4,277.3c-.915,3.034-3.291,5.185-6.068,5.185-2.793,0-5.169-2.167-6.068-5.2a2.1,2.1,0,0,1-1.124-1.734c-.241-1.445.642-1.8.642-1.8q.1,0,.193.145a2.7,2.7,0,0,1,.69-1.044c1.14-1.124,3.243-1.718,5.779-1.734,2.3-.016,3.9.144,5.538,1.7a2.926,2.926,0,0,1,.706,1.14c.08-.128.161-.209.241-.193,0,0,.9.353.658,1.8A2.139,2.139,0,0,1,275.4,277.3Z" transform="translate(-126.437 -230.1)" fill="#fff"/>
    <path id="路径_5666" data-name="路径 5666" d="M142.673,34.133a13.852,13.852,0,0,0-6.511,1.825v6.083s1.952-2.225,6.687-2.225c4.7,0,6.687,2.241,6.687,2.241V35.974a16.79,16.79,0,0,0-6.863-1.841Zm2.016,3.3h-1.472V38.9h-.784V37.431h-1.456v-.8h1.456V35.158h.784V36.63h1.472Zm-2,23.229v1.473c-3.983,0-6.767-.016-9.151,0-1.024,0-1.584-.736-1.648-1.889,0-4.451,2.912-6.8,7.023-7.636,1.088-.048,2.5,7.364,3.775,8.053Z" transform="translate(0 0)" fill="#fff"/>
  </g>
</svg>
