<svg xmlns="http://www.w3.org/2000/svg" width="20" height="20" viewBox="0 0 20 20">
  <g id="组_10769" data-name="组 10769" transform="translate(-329 -249)">
    <path id="路径_24" data-name="路径 24" d="M262.062,90.382a.5.5,0,0,0-.016-.12.429.429,0,0,0-.013-.051.5.5,0,0,0-.136-.221l-5.056-4.531a.5.5,0,0,0-.714.044.518.518,0,0,0,.044.723l4.637,4.154-4.637,4.155a.518.518,0,0,0-.044.723.5.5,0,0,0,.714.044l5.056-4.532a.5.5,0,0,0,.136-.221.429.429,0,0,0,.013-.05.5.5,0,0,0,.016-.12" transform="translate(79.998 168.667)" fill="#4b4b4b"/>
    <rect id="矩形_20714" data-name="矩形 20714" width="20" height="20" transform="translate(329 249)" fill="none"/>
  </g>
</svg>
