<svg xmlns="http://www.w3.org/2000/svg" width="34" height="34" viewBox="0 0 34 34">
  <g id="doctor2" transform="translate(-311 -740)">
    <rect id="矩形_18177" data-name="矩形 18177" width="34" height="34" transform="translate(311 740)" fill="none"/>
    <g id="doctor" transform="translate(184.373 707.867)">
      <path id="路径_5665" data-name="路径 5665" d="M279.5,292.927h-9.484V291.4c1.343-.713,2.819-8.39,3.913-8.357,4.261.879,7.279,3.3,7.279,7.909-.05,1.21-.614,1.973-1.708,1.973Zm-3.664-15.42c-.945,3.134-3.4,5.356-6.268,5.356-2.885,0-5.339-2.238-6.268-5.372a2.171,2.171,0,0,1-1.161-1.791c-.249-1.492.663-1.857.663-1.857q.1,0,.2.149a2.79,2.79,0,0,1,.713-1.078c1.177-1.161,3.349-1.774,5.969-1.791,2.371-.017,4.029.149,5.72,1.758a3.023,3.023,0,0,1,.73,1.177c.083-.133.166-.216.249-.2,0,0,.929.365.68,1.857a2.21,2.21,0,0,1-1.227,1.791Z" transform="translate(-126.25 -229.794)" fill="#fece55"/>
      <path id="路径_5666" data-name="路径 5666" d="M143.067,34.133a14.365,14.365,0,0,0-6.748,1.89v6.3s2.023-2.3,6.931-2.3c4.875,0,6.931,2.321,6.931,2.321v-6.3a17.411,17.411,0,0,0-7.113-1.907Zm2.089,3.416H143.63v1.525h-.812V37.549h-1.509V36.72h1.509V35.194h.812V36.72h1.525Zm-2.073,24.059v1.525c-4.129,0-7.014-.017-9.484,0-1.061,0-1.642-.763-1.708-1.957,0-4.61,3.018-7.047,7.279-7.909,1.127-.05,2.587,7.627,3.913,8.34Z" transform="translate(0)" fill="#fece55"/>
    </g>
  </g>
</svg>
