<svg xmlns="http://www.w3.org/2000/svg" width="18.763" height="23.88" viewBox="0 0 18.763 23.88">
  <g id="关闭语音" transform="translate(-174.078 -81.92)">
    <path id="路径_8276" data-name="路径 8276" d="M207.243,512a.852.852,0,0,1,.942.752,6.819,6.819,0,0,0,11.363,4.288.852.852,0,1,1,1.146,1.261,8.523,8.523,0,0,1-14.2-5.36A.852.852,0,0,1,207.243,512Z" transform="translate(-31.509 -418.144)" fill="#fff"/>
    <path id="路径_8277" data-name="路径 8277" d="M328.532,312.33a.852.852,0,0,1,.852.82v4.719a3.409,3.409,0,0,0,5.7,2.524.852.852,0,1,1,1.148,1.26,5.114,5.114,0,0,1-8.553-3.7v-4.772A.852.852,0,0,1,328.532,312.33Zm4.261,12.358a.852.852,0,0,1,.852.82v3.441a.852.852,0,1,1-1.7.032V325.54A.852.852,0,0,1,332.794,324.688Z" transform="translate(-149.34 -224.018)" fill="#fff"/>
    <path id="路径_8278" data-name="路径 8278" d="M174.357,83.846a.852.852,0,0,1,1.179.031l.025.026,17.046,18.75a.852.852,0,1,1-1.237,1.173l-.025-.026L174.3,85.05A.852.852,0,0,1,174.357,83.846Zm9.1-1.926a5.114,5.114,0,0,1,5.113,5.038v6.513a.852.852,0,1,1-1.7.032v-6.47a3.41,3.41,0,0,0-6.278-1.843l-.033.052a.852.852,0,1,1-1.451-.9A5.111,5.111,0,0,1,183.453,81.92Zm6.777,12.691a.852.852,0,1,1,1.694.187,8.474,8.474,0,0,1-.531,2.157.852.852,0,0,1-1.588-.621A6.77,6.77,0,0,0,190.23,94.611Z" transform="translate(0 0)" fill="#fff"/>
  </g>
</svg>
