<svg xmlns="http://www.w3.org/2000/svg" width="18.76" height="24" viewBox="0 0 18.76 24"><g transform="translate(-548.385 -1328)"><g transform="translate(-1378 -7151)"><path d="M5,2A3,3,0,0,0,2,5v7a3,3,0,0,0,6,0V5A3,3,0,0,0,5,2M5,0a5,5,0,0,1,5,5v7A5,5,0,0,1,0,12V5A5,5,0,0,1,5,0Z" transform="translate(1931 8479)" fill="#fff"/><path d="M0,1A.987.987,0,0,1,.974,0a.987.987,0,0,1,.974,1,7.051,7.051,0,0,0,2,4.948A6.685,6.685,0,0,0,8.765,8a6.918,6.918,0,0,0,6.817-7,.974.974,0,1,1,1.948,0,8.885,8.885,0,0,1-8.765,9A8.885,8.885,0,0,1,0,1Z" transform="translate(1927 8490.374)" fill="#fff"/><rect width="2" height="4" rx="1" transform="translate(1935 8499)" fill="#fff"/></g><rect width="18.76" height="23.93" transform="translate(548.385 1328)" fill="none" opacity="0.108"/></g></svg>