<svg xmlns="http://www.w3.org/2000/svg" xmlns:xlink="http://www.w3.org/1999/xlink" width="37.618" height="40.166" viewBox="0 0 37.618 40.166">
  <defs>
    <linearGradient id="linear-gradient" x1="2.338" y1="0.379" x2="2.055" y2="1.048" gradientUnits="objectBoundingBox">
      <stop offset="0" stop-color="#29abe2"/>
      <stop offset="1" stop-color="#1071bc"/>
    </linearGradient>
    <linearGradient id="linear-gradient-2" x1="0.5" y1="1" x2="0.5" gradientUnits="objectBoundingBox">
      <stop offset="0" stop-color="#97b6cc"/>
      <stop offset="1" stop-color="#ebf5fc"/>
    </linearGradient>
    <clipPath id="clip-path">
      <rect id="矩形_6255" data-name="矩形 6255" width="23.382" height="18.214" fill="none"/>
    </clipPath>
  </defs>
  <g id="My_Health_Network" data-name="My Health Network" transform="translate(-57.43 -22.377)">
    <g id="组_7115" data-name="组 7115">
      <g id="组_6656" data-name="组 6656" transform="translate(57.429 22.377)">
        <g id="phone-book_3_" data-name="phone-book (3)">
          <g id="组_6610" data-name="组 6610" transform="translate(2.351)">
            <g id="组_6609" data-name="组 6609">
              <path id="路径_5056" data-name="路径 5056" d="M76.565,4.785V3.53A3.524,3.524,0,0,0,73.038,0H49.527A3.524,3.524,0,0,0,46,3.53V36.636a3.524,3.524,0,0,0,3.527,3.53H73.038a3.524,3.524,0,0,0,3.527-3.53V16.553l2.351-5.476Z" transform="translate(-46)" fill="url(#linear-gradient)"/>
            </g>
          </g>
          <g id="组_6612" data-name="组 6612" transform="translate(0 4.785)">
            <g id="组_6611" data-name="组 6611">
              <path id="路径_5057" data-name="路径 5057" d="M21.878,61h-4.7a1.177,1.177,0,1,0,0,2.354h4.7a1.177,1.177,0,1,0,0-2.354Zm0,9.414h-4.7a1.177,1.177,0,0,0,0,2.354h4.7a1.177,1.177,0,0,0,0-2.354Zm0,9.414h-4.7a1.177,1.177,0,0,0,0,2.354h4.7a1.177,1.177,0,0,0,0-2.354Zm0,9.414h-4.7a1.177,1.177,0,0,0,0,2.354h4.7a1.177,1.177,0,0,0,0-2.354ZM52.442,61H48.916V72.768h3.527a1.165,1.165,0,0,0,1.176-1.177V62.177A1.165,1.165,0,0,0,52.442,61Z" transform="translate(-16 -61)" fill="url(#linear-gradient-2)"/>
            </g>
          </g>
        </g>
      </g>
    </g>
    <g id="组_7114" data-name="组 7114">
      <g id="组_6660" data-name="组 6660" transform="translate(62.087 33.355)">
        <g id="组_6659" data-name="组 6659">
          <g id="组_6658" data-name="组 6658" clip-path="url(#clip-path)">
            <path id="路径_5070" data-name="路径 5070" d="M709.462,158.749c0,1.793-.649,4.545-3.246,4.545s-3.246-2.752-3.246-4.545a3.246,3.246,0,1,1,6.493,0Zm1.948,5.843c-.428-.856-2.07-.78-3.255-1.072q.008.209.008.423a6.859,6.859,0,0,1-1.031,4.011l-.267-4.011h-1.3l-.267,4.011a6.857,6.857,0,0,1-1.031-4.011c0-.143,0-.284.009-.423-1.185.292-2.827.216-3.255,1.072-.649,1.3-1.3,6.493-.649,7.791a1.961,1.961,0,0,0,2.208,1.3h7.271a1.961,1.961,0,0,0,2.207-1.3c.649-1.3,0-6.492-.649-7.791Zm-10.5-4.281" transform="translate(-694.532 -155.491)" fill="#ebf5fc"/>
            <path id="路径_5071" data-name="路径 5071" d="M1169.789,267.766c0,1.222-.443,3.1-2.212,3.1s-2.212-1.875-2.212-3.1a2.212,2.212,0,1,1,4.423,0Zm1.327,3.981c-.292-.583-1.41-.532-2.218-.73,0,.1.006.191.006.288a4.675,4.675,0,0,1-.7,2.733l-.182-2.733h-.885l-.182,2.733a4.674,4.674,0,0,1-.7-2.733c0-.1,0-.193.006-.288-.418.1-.918.139-1.345.23a1.252,1.252,0,0,1,.718.574,18.518,18.518,0,0,1,.915,6.12h3.51a1.336,1.336,0,0,0,1.5-.885c.442-.885,0-4.423-.442-5.308Zm0,0" transform="translate(-1148.371 -262.945)" fill="#ebf5fc"/>
          </g>
        </g>
      </g>
    </g>
  </g>
</svg>
