<svg xmlns="http://www.w3.org/2000/svg" width="64" height="64" viewBox="0 0 64 64">
  <g id="组_10704" data-name="组 10704" transform="translate(-114.267 -113.138)">
    <circle id="椭圆_786" data-name="椭圆 786" cx="32" cy="32" r="32" transform="translate(114.267 113.138)" fill="#fece55" opacity="0.143"/>
    <g id="组_10714" data-name="组 10714">
      <path id="路径_13098" data-name="路径 13098" d="M681.732,131.376V154.17a3.8,3.8,0,0,1-3.8,3.8h-3.8a3.8,3.8,0,0,0,3.8-3.8V131.376a3.815,3.815,0,0,0-3.576-3.8h3.576A3.8,3.8,0,0,1,681.732,131.376Z" transform="translate(-520.268 2.365)" fill="#ffe7ac"/>
      <path id="路径_13099" data-name="路径 13099" d="M217.271,136.713v22.794a3.7,3.7,0,0,1-3.62,3.8H193.136a1.241,1.241,0,0,1-1.207-1.251v-2.011a.5.5,0,0,1,.492-.492h.76a1.249,1.249,0,0,0,1.251-1.251v-1.251a1.249,1.249,0,0,0-1.251-1.251h-.76a.5.5,0,0,1-.492-.492v-4.067a.5.5,0,0,1,.492-.492h.76a1.249,1.249,0,0,0,1.251-1.251v-1.251a1.249,1.249,0,0,0-1.251-1.251h-.76a.5.5,0,0,1-.492-.492v-4.067a.5.5,0,0,1,.492-.492h.76a1.249,1.249,0,0,0,1.251-1.251V139.44a1.249,1.249,0,0,0-1.251-1.251h-.76a.5.5,0,0,1-.492-.492v-3.307a1.212,1.212,0,0,1,1.207-1.251H213.83A3.421,3.421,0,0,1,217.271,136.713Z" transform="translate(-58.356 -2.973)" fill="#fece55"/>
      <path id="路径_13100" data-name="路径 13100" d="M420.566,356.213a2.548,2.548,0,1,1,0-5.1h2.548v2.548A2.546,2.546,0,0,1,420.566,356.213Zm1.877,7.6h-3.8a3.186,3.186,0,0,1-3.173-3.173v-3.173h6.972a3.186,3.186,0,0,1,3.173,3.173A3.129,3.129,0,0,1,422.443,363.811Z" transform="translate(-273.047 -212.326)" fill="#fff"/>
      <path id="路径_13101" data-name="路径 13101" d="M131.968,275.72H129.2a.5.5,0,0,1-.492-.492v-1.52a.5.5,0,0,1,.492-.492h2.771a.5.5,0,0,1,.492.492v1.52A.5.5,0,0,1,131.968,275.72Zm0,8.85H129.2a.5.5,0,0,1-.492-.492v-1.52a.5.5,0,0,1,.492-.492h2.771a.5.5,0,0,1,.492.492v1.52A.5.5,0,0,1,131.968,284.57Zm0,8.85H129.2a.5.5,0,0,1-.492-.492v-1.52a.5.5,0,0,1,.492-.492h2.771a.5.5,0,0,1,.492.492v1.52A.5.5,0,0,1,131.968,293.419Z" transform="translate(2.365 -137.51)" fill="#fece55"/>
    </g>
  </g>
</svg>
