<svg xmlns="http://www.w3.org/2000/svg" width="14.61" height="14.61" viewBox="0 0 14.61 14.61">
  <g id="组_9773" data-name="组 9773" transform="translate(-44.213 -229.308)">
    <g id="组_9771" data-name="组 9771">
      <g id="组_9770" data-name="组 9770">
        <g id="组_9768" data-name="组 9768">
          <path id="路径_5814" data-name="路径 5814" d="M72.665,77.287H66.358a1.393,1.393,0,0,1-1.393-1.394V66.36a1.393,1.393,0,0,1,1.393-1.394h9.534a1.392,1.392,0,0,1,1.393,1.394l-.022,6.306v0a.514.514,0,1,0,1.028,0l.021-6.307v0a2.419,2.419,0,0,0-2.42-2.42H66.358a2.417,2.417,0,0,0-2.418,2.42v9.534a2.417,2.417,0,0,0,2.418,2.42h6.307a.513.513,0,0,0,0-1.026Z" transform="translate(-19.627 165.468)" fill="#2fb355" stroke="#2fb355" stroke-width="0.2"/>
        </g>
        <g id="组_9769" data-name="组 9769">
          <path id="路径_5815" data-name="路径 5815" d="M235.687,297.816l-1.958-1.958a3.084,3.084,0,1,0-.725.725l1.958,1.958a.513.513,0,1,0,.725-.725Zm-4.468-1.689a2.054,2.054,0,1,1,1.452-.6,2.054,2.054,0,0,1-1.452.6Zm1.54-7.184a.514.514,0,0,0,0-1.029l-8.214,0a.514.514,0,0,0,0,1.029Zm-5.133,3.077a.513.513,0,0,0,0-1.026h-3.08a.512.512,0,0,0,0,1.025Zm-3.08,2.051a.513.513,0,0,0,0,1.026H226.6a.512.512,0,0,0,0-1.025Z" transform="translate(-177.151 -54.911)" fill="#2fb355" stroke="#2fb355" stroke-width="0.2"/>
        </g>
      </g>
    </g>
  </g>
</svg>
