<svg xmlns="http://www.w3.org/2000/svg" xmlns:xlink="http://www.w3.org/1999/xlink" width="220" height="210" viewBox="0 0 220 210">
  <defs>
    <linearGradient id="linear-gradient" x1="0.5" x2="0.5" y2="1" gradientUnits="objectBoundingBox">
      <stop offset="0" stop-color="#92c1fc" stop-opacity="0.2"/>
      <stop offset="0.45" stop-color="#187fc4" stop-opacity="0"/>
    </linearGradient>
    <linearGradient id="linear-gradient-2" x1="0.5" x2="0.5" y2="1" gradientUnits="objectBoundingBox">
      <stop offset="0.03" stop-color="#92c1fc" stop-opacity="0.4"/>
      <stop offset="0.25" stop-color="#92c1fc" stop-opacity="0.2"/>
      <stop offset="0.8" stop-color="#187fc4" stop-opacity="0"/>
    </linearGradient>
    <linearGradient id="linear-gradient-3" x1="0.5" y1="0" x2="0.5" y2="1.001" xlink:href="#linear-gradient-2"/>
    <linearGradient id="linear-gradient-4" x1="0.5" y1="0" x2="0.5" y2="1" xlink:href="#linear-gradient-2"/>
    <linearGradient id="linear-gradient-5" x1="1.295" y1="-0.067" x2="0.906" y2="0.332" gradientUnits="objectBoundingBox">
      <stop offset="0" stop-color="#63a6f9"/>
      <stop offset="1" stop-color="#92c1fc"/>
    </linearGradient>
    <linearGradient id="linear-gradient-6" x1="3.667" y1="-1.977" x2="3.312" y2="-1.421" xlink:href="#linear-gradient-5"/>
  </defs>
  <g id="组_13556" data-name="组 13556" transform="translate(-78 -301)">
    <g id="组_11005" data-name="组 11005" transform="translate(-22.451 205.313)">
      <ellipse id="椭圆_683" data-name="椭圆 683" cx="108.458" cy="64.393" rx="108.458" ry="64.393" transform="translate(103.535 176.901)" fill="url(#linear-gradient)"/>
      <path id="路径_5802" data-name="路径 5802" d="M217.547,110.021c1.7-2.885,5.471-5.065,13.507-3.516,0,0,12.836-22.888,32.958-2.082,0,0,12.007-2.867,15.068,6.2a7.9,7.9,0,0,1-4.694,9.875c-10.322,3.962-33.99,10.881-53.6.4A7.891,7.891,0,0,1,217.547,110.021Z" transform="translate(-72.573 0)" fill="url(#linear-gradient-2)"/>
      <path id="路径_5803" data-name="路径 5803" d="M101.291,261.213c1.377-2.33,4.416-4.09,10.919-2.84,0,0,10.363-18.483,26.606-1.681,0,0,9.68-2.311,12.168,5.009a6.378,6.378,0,0,1-3.8,7.958c-8.333,3.2-27.439,8.769-43.273.319A6.346,6.346,0,0,1,101.291,261.213Z" transform="translate(0 -96.064)" fill="url(#linear-gradient-3)"/>
      <path id="路径_5804" data-name="路径 5804" d="M535.6,157.445c1.426-2.281,4.581-4,11.331-2.78,0,0,10.753-18.111,27.611-1.647,0,0,10.044-2.251,12.626,4.908a6.165,6.165,0,0,1-3.936,7.808c-8.63,3.137-28.478,8.6-44.908.315A6.065,6.065,0,0,1,535.6,157.445Z" transform="translate(-271.557 -31.501)" fill="url(#linear-gradient-4)"/>
      <path id="路径_5805" data-name="路径 5805" d="M472.48,376.8s6.529-20.888,25.105-30.268l4.555,3.114-2.221-4.48s13.3-7.407,20.07-1.677c3.8,3.216-.668,14.149-12.622,28.189l-4.063-1.216,2.529,3.658s-7.74,14.551-21.6,15.444l-6.465-5.707Z" transform="translate(-232.665 -153.243)" fill="url(#linear-gradient-5)"/>
      <path id="路径_5806" data-name="路径 5806" d="M486.5,387.486c-.4.375,2.443-3.82,7.2-9.725,7.59-9.41,20.306-24.606,35.022-30.651" transform="translate(-241.359 -156.868)" stroke="#aad0ff" stroke-linecap="round" stroke-miterlimit="10" stroke-width="1.74" fill="url(#linear-gradient-6)"/>
      <path id="路径_5807" data-name="路径 5807" d="M544.1,385.662s7.268-2.341,12.179,2.844" transform="translate(-277.368 -180.638)" fill="none" stroke="#aad0ff" stroke-linecap="round" stroke-miterlimit="10" stroke-width="1.74"/>
      <path id="路径_5808" data-name="路径 5808" d="M521.618,432.522c-6.712-7.639-14.408-5.651-14.408-5.651" transform="translate(-254.306 -206.537)" fill="none" stroke="#aad0ff" stroke-linecap="round" stroke-miterlimit="10" stroke-width="1.74"/>
      <path id="路径_5809" data-name="路径 5809" d="M516.17,383.877s6.622-9.091,6.806-19.657" transform="translate(-259.902 -167.569)" fill="none" stroke="#aad0ff" stroke-linecap="round" stroke-miterlimit="10" stroke-width="1.74"/>
      <path id="路径_5810" data-name="路径 5810" d="M543.383,402.7s-10.945,32.508-45.055,29.536l-5.9-10.082S538.824,408.005,543.383,402.7Z" transform="translate(-245.129 -191.568)" fill="#aad0ff"/>
      <path id="路径_5811" data-name="路径 5811" d="M492.43,422.154s10.281-10.96,29.821-14c0,0,15.166-1.418,21.132-5.459a39.927,39.927,0,0,1-23.135,10.611s1.264,1.234,10.386-.443c0,0-14.164,12.671-34.2,13.159Z" transform="translate(-245.129 -191.577)" fill="#63a6f9"/>
      <path id="路径_5812" data-name="路径 5812" d="M466.951,160.317H463.27V156.37a1.135,1.135,0,1,0-2.27,0v3.947h-3.681a.829.829,0,0,0,0,1.658H461v3.947a1.135,1.135,0,1,0,2.27,0v-3.947h3.681a.829.829,0,0,0,0-1.658Z" transform="translate(-222.594 -37.206)" fill="#63a6f9"/>
      <path id="路径_5813" data-name="路径 5813" d="M223.071,258.536a2.131,2.131,0,1,1-2.127,2.127,2.131,2.131,0,0,1,2.127-2.127m0-2.626a4.758,4.758,0,1,0,4.754,4.754A4.758,4.758,0,0,0,223.071,255.91Z" transform="translate(-73.684 -99.988)" fill="#63a6f9"/>
      <path id="路径_5814" data-name="路径 5814" d="M588.581,310.626a2.131,2.131,0,1,1-2.127,2.131,2.131,2.131,0,0,1,2.127-2.131m0-2.626a4.758,4.758,0,1,0,4.754,4.758A4.758,4.758,0,0,0,588.581,308Z" transform="translate(-302.229 -132.495)" fill="#63a6f9"/>
      <rect id="矩形_18195" data-name="矩形 18195" width="90.811" height="112.251" rx="12" transform="translate(161.934 139.094)" fill="#63a6f9"/>
      <rect id="矩形_18196" data-name="矩形 18196" width="90.811" height="112.251" rx="12" transform="translate(163.807 139.094)" fill="#92c1fc"/>
      <rect id="矩形_18197" data-name="矩形 18197" width="81.806" height="101.122" rx="12" transform="translate(168.31 144.66)" fill="#f7f8f8"/>
      <rect id="矩形_18198" data-name="矩形 18198" width="35.382" height="13.567" rx="6.784" transform="translate(191.227 133.927)" fill="#63a6f9"/>
      <rect id="矩形_18199" data-name="矩形 18199" width="35.382" height="13.567" rx="6.784" transform="translate(193.101 133.927)" fill="#92c1fc"/>
      <rect id="矩形_18200" data-name="矩形 18200" width="21.586" height="2.488" rx="1.244" transform="translate(178.972 162.955)" fill="#63a6f9"/>
      <rect id="矩形_18201" data-name="矩形 18201" width="59.755" height="2.24" rx="1.12" transform="translate(179.333 172.135)" fill="#63a6f9"/>
      <rect id="矩形_18202" data-name="矩形 18202" width="21.586" height="2.488" rx="1.244" transform="translate(178.972 193.028)" fill="#63a6f9"/>
      <rect id="矩形_18203" data-name="矩形 18203" width="59.755" height="2.24" rx="1.12" transform="translate(179.333 202.208)" fill="#63a6f9"/>
      <text id="No_diagnoses_here_" data-name="No diagnoses here～" transform="translate(144.951 278.627)" fill="#63a6f9" font-size="14" font-family="ProximaNova-Regular, Proxima Nova"><tspan x="0" y="0">No diagnoses here</tspan><tspan y="0" font-family="YuGothicUI-Regular, Yu Gothic UI">～</tspan></text>
    </g>
  </g>
</svg>
