<svg xmlns="http://www.w3.org/2000/svg" xmlns:xlink="http://www.w3.org/1999/xlink" width="239.473" height="237" viewBox="0 0 239.473 237">
  <defs>
    <linearGradient id="linear-gradient" x1="0.5" y1="1" x2="0.5" gradientUnits="objectBoundingBox">
      <stop offset="0" stop-color="#fff"/>
      <stop offset="1" stop-color="#dbe3ee"/>
    </linearGradient>
    <linearGradient id="linear-gradient-2" x1="0.5" y1="1" x2="0.5" y2="0" xlink:href="#linear-gradient"/>
    <linearGradient id="linear-gradient-3" x1="0.5" y1="1" x2="0.5" y2="0" xlink:href="#linear-gradient"/>
    <linearGradient id="linear-gradient-5" x1="0.5" y1="1" x2="0.5" gradientUnits="objectBoundingBox">
      <stop offset="0" stop-color="#fff"/>
      <stop offset="1" stop-color="#edf1f9"/>
    </linearGradient>
    <linearGradient id="linear-gradient-6" x1="0.5" y1="1" x2="0.5" y2="0" xlink:href="#linear-gradient-5"/>
    <linearGradient id="linear-gradient-7" x1="0.5" y1="1" x2="0.5" gradientUnits="objectBoundingBox">
      <stop offset="0.233" stop-color="#fff"/>
      <stop offset="1" stop-color="#d3dfee"/>
    </linearGradient>
    <linearGradient id="linear-gradient-9" x1="0.5" y1="1" x2="0.5" y2="0" xlink:href="#linear-gradient-7"/>
    <linearGradient id="linear-gradient-10" x1="0.5" y1="1" x2="0.5" gradientUnits="objectBoundingBox">
      <stop offset="0.407" stop-color="#fff"/>
      <stop offset="1" stop-color="#dae4ef"/>
    </linearGradient>
    <linearGradient id="linear-gradient-11" x1="0.547" y1="0.923" x2="0.461" y2="-0.134" gradientUnits="objectBoundingBox">
      <stop offset="0.147" stop-color="#fff"/>
      <stop offset="1" stop-color="#bbcbe0"/>
    </linearGradient>
    <linearGradient id="linear-gradient-12" y1="0.5" x2="1" y2="0.5" gradientUnits="objectBoundingBox">
      <stop offset="0" stop-color="#e5ecf3"/>
      <stop offset="1" stop-color="#becfe0"/>
    </linearGradient>
    <linearGradient id="linear-gradient-13" y1="0.5" x2="1" y2="0.5" gradientUnits="objectBoundingBox">
      <stop offset="0" stop-color="#d9e3ed"/>
      <stop offset="1" stop-color="#acc2db"/>
    </linearGradient>
    <linearGradient id="linear-gradient-14" x1="0.5" y1="1" x2="0.5" gradientUnits="objectBoundingBox">
      <stop offset="0" stop-color="#eff3f9"/>
      <stop offset="0.97" stop-color="#9cb6d2"/>
    </linearGradient>
    <linearGradient id="linear-gradient-15" y1="0.5" x2="1" y2="0.5" gradientUnits="objectBoundingBox">
      <stop offset="0" stop-color="#eff3f9"/>
      <stop offset="1" stop-color="#b4c7dc"/>
    </linearGradient>
    <linearGradient id="linear-gradient-16" x1="-0.226" y1="0.827" x2="1.126" y2="0.097" xlink:href="#linear-gradient-14"/>
    <linearGradient id="linear-gradient-17" y1="0.5" x2="1" y2="0.5" gradientUnits="objectBoundingBox">
      <stop offset="0" stop-color="#d5e0ee"/>
      <stop offset="1" stop-color="#f5f9fa"/>
    </linearGradient>
    <linearGradient id="linear-gradient-18" y1="0.5" x2="1" y2="0.5" gradientUnits="objectBoundingBox">
      <stop offset="0" stop-color="#f7fafb"/>
      <stop offset="1" stop-color="#d5e0ee"/>
    </linearGradient>
    <linearGradient id="linear-gradient-19" x1="0.978" y1="0.894" x2="0.128" y2="0.054" gradientUnits="objectBoundingBox">
      <stop offset="0.403" stop-color="#eff4f8"/>
      <stop offset="1" stop-color="#d4dfec"/>
    </linearGradient>
    <linearGradient id="linear-gradient-20" y1="0.5" x2="1" y2="0.5" gradientUnits="objectBoundingBox">
      <stop offset="0.102" stop-color="#f0f5f8"/>
      <stop offset="1" stop-color="#b4c7dc"/>
    </linearGradient>
    <linearGradient id="linear-gradient-21" x1="0.978" y1="0.894" x2="0.128" y2="0.053" xlink:href="#linear-gradient-19"/>
    <linearGradient id="linear-gradient-22" x1="0" y1="0.5" x2="1" y2="0.5" xlink:href="#linear-gradient-20"/>
    <linearGradient id="linear-gradient-23" x1="0.978" y1="0.894" x2="0.128" y2="0.053" gradientUnits="objectBoundingBox">
      <stop offset="0" stop-color="#eaeff6"/>
      <stop offset="1" stop-color="#cddae9"/>
    </linearGradient>
    <linearGradient id="linear-gradient-24" x1="0" y1="0.5" x2="1" y2="0.5" xlink:href="#linear-gradient-20"/>
    <linearGradient id="linear-gradient-25" x1="0.5" y1="67.804" x2="0.5" y2="0.002" gradientUnits="objectBoundingBox">
      <stop offset="0" stop-color="#f3f6f9"/>
      <stop offset="1" stop-color="#d0dae8"/>
    </linearGradient>
    <linearGradient id="linear-gradient-26" x1="0.5" y1="1.019" x2="0.5" y2="-0.013" xlink:href="#linear-gradient-25"/>
    <linearGradient id="linear-gradient-27" x1="0.505" y1="1" x2="0.505" y2="-50.592" xlink:href="#linear-gradient-25"/>
    <linearGradient id="linear-gradient-28" y1="0.5" x2="1" y2="0.5" gradientUnits="objectBoundingBox">
      <stop offset="0" stop-color="#f3f6f9"/>
      <stop offset="1" stop-color="#b5c6d8"/>
    </linearGradient>
    <linearGradient id="linear-gradient-29" x1="0.5" y1="1" x2="0.5" y2="0" xlink:href="#linear-gradient-17"/>
    <linearGradient id="linear-gradient-30" x1="0.097" y1="0.042" x2="0.886" y2="0.933" gradientUnits="objectBoundingBox">
      <stop offset="0.225" stop-color="#f1f5f9"/>
      <stop offset="1" stop-color="#bbcde1"/>
    </linearGradient>
    <linearGradient id="linear-gradient-31" y1="0.5" x2="1" y2="0.5" gradientUnits="objectBoundingBox">
      <stop offset="0" stop-color="#61aaf3"/>
      <stop offset="0.69" stop-color="#448be0"/>
    </linearGradient>
    <linearGradient id="linear-gradient-32" x1="0.047" y1="0.844" x2="0.992" y2="0.237" gradientUnits="objectBoundingBox">
      <stop offset="0" stop-color="#78c8ff"/>
      <stop offset="0.69" stop-color="#4d8fe9"/>
    </linearGradient>
    <linearGradient id="linear-gradient-33" x1="0.5" y1="1" x2="0.5" gradientUnits="objectBoundingBox">
      <stop offset="0" stop-color="#f2a319"/>
      <stop offset="0.48" stop-color="#ffc552"/>
    </linearGradient>
  </defs>
  <g id="组_13557" data-name="组 13557" transform="translate(-68 -303)">
    <text id="_No_product_here_" data-name=" No product here～" transform="translate(129 536)" fill="#999" font-size="14" font-family="ProximaNova-Regular, Proxima Nova"><tspan x="0" y="0" xml:space="preserve"> No product here</tspan><tspan y="0" font-family="YuGothicUI-Regular, Yu Gothic UI">～</tspan></text>
    <g id="暂无内容" transform="translate(38.38 184.09)">
      <g id="背景" transform="translate(29.62 123.597)">
        <path id="路径_13146" data-name="路径 13146" d="M246.233,331.361v-1.1h-9.521v1.278H234.62V361.5h13.895V331.361h-2.282Zm1.078,26.7H235.679v-.888h11.632Zm0-4.089H235.679v-.888h11.632Zm0-4.093H235.679v-.888h11.632Zm0-3.983H235.679v-.888h11.632Zm0-3.976H235.679v-.888h11.632Zm0-4.089H235.679v-.888h11.632Zm0-3.983H235.679v-.888h11.632Z" transform="translate(-168.455 -266.733)" fill="url(#linear-gradient)"/>
        <path id="路径_13147" data-name="路径 13147" d="M178.521,306.29V271.371h-10.57V268.55h-4.477v17.213h-1.2v52.661h18.885V306.29Zm-7.908,10.267h-2.666v-2.585h2.666Zm0-4.044h-2.666v-2.585h2.666Zm0-4.028h-2.666V305.9h2.666Zm0-4.012h-2.666v-2.585h2.666Zm0-4.047h-2.666V297.84h2.666Zm0-8.069h-2.666v-2.585h2.666Zm0-4.044h-2.666v-2.585h2.666Zm0-4.025h-2.666V281.7h2.666Zm0-4.015h-2.666v-2.585h2.666Zm0-4.044h-2.666v-2.585h2.666Zm3.986,40.328h-2.666v-2.585H174.6Zm0-4.044h-2.666v-2.585H174.6Zm0-4.028h-2.666V305.9H174.6Zm0-4.012h-2.666v-2.585H174.6Zm0-4.047h-2.666V297.84H174.6Zm0-8.069h-2.666v-2.585H174.6Zm0-4.044h-2.666v-2.585H174.6Zm0-4.025h-2.666V281.7H174.6Zm0-4.015h-2.666v-2.585H174.6Zm0-4.044h-2.666v-2.585H174.6Z" transform="translate(-119.456 -224.94)" fill="url(#linear-gradient-2)"/>
        <path id="路径_13148" data-name="路径 13148" d="M534.92,336.385c.116-1.5,0-50.505,0-50.505H540.9v10.88h9.521V319.5h5.4v16.887Z" transform="translate(-371.831 -236.677)" fill="url(#linear-gradient-3)"/>
        <path id="路径_13149" data-name="路径 13149" d="M618.214,320.765V319.2H616.6V305.538h-3.938v-1.517h-2.656v-2.23h-1.385v-6.5h-1v6.546h-1.272v2.23h-3.938v3.654H600.14v42.355h19.165V320.762h-1.091ZM603.526,337.8h-1.3v-4.919h1.3Zm0-6.019h-1.3v-4.919h1.3Zm0-6.019h-1.3v-4.919h1.3Zm0-6.129h-1.3v-4.919h1.3Zm0-6.126h-1.3v-4.919h1.3ZM606.2,337.8h-1.3v-4.919h1.3Zm0-6.019h-1.3v-4.919h1.3Zm0-6.019h-1.3v-4.919h1.3Zm0-6.129h-1.3v-4.919h1.3Zm0-6.126h-1.3v-4.919h1.3Zm2.673,24.294h-1.3v-4.919h1.3Zm0-6.019h-1.3v-4.919h1.3Zm0-6.019h-1.3v-4.919h1.3Zm0-6.129h-1.3v-4.919h1.3Zm0-6.126h-1.3v-4.919h1.3Zm2.672,24.294h-1.3v-4.919h1.3Zm0-6.019h-1.3v-4.919h1.3Zm0-6.019h-1.3v-4.919h1.3Zm0-6.129h-1.3v-4.919h1.3Zm0-6.126h-1.3v-4.919h1.3Zm2.673,24.294h-1.3v-4.919h1.3Zm0-6.019h-1.3v-4.919h1.3Zm0-6.019h-1.3v-4.919h1.3Zm0-6.129h-1.3v-4.919h1.3Zm0-6.126h-1.3v-4.919h1.3Z" transform="translate(-416.001 -243.05)" fill="url(#linear-gradient-2)"/>
        <path id="路径_13150" data-name="路径 13150" d="M94.49,405.178v-28.9H97.8v-14.75l11.38-4.928v19.446h2.5v29.132Z" transform="translate(-73.553 -284.571)" fill="url(#linear-gradient-5)"/>
        <path id="路径_13151" data-name="路径 13151" d="M678.306,407.114H668.32V367.37l9.986,4.832Z" transform="translate(-462.175 -291.865)" fill="url(#linear-gradient-6)"/>
        <path id="路径_13152" data-name="路径 13152" d="M76.4,177.817s3.015-8.224,10.425-5c1.711-1.736,3.828-3,6.691-2.43a7.684,7.684,0,0,1,5.335,4.141c.9-.042,8.082.2,8.082,7.649s-8.7,7.31-9.324,6.72c-.775.691-4.5,4.438-9.018.161-.978.836-4.173,4.377-9.224-.51-2.34.978-7.9,1.73-8.979-4.012S74.844,177.182,76.4,177.817Z" transform="translate(-57.138 -158.369)" fill="url(#linear-gradient-7)"/>
        <path id="路径_13153" data-name="路径 13153" d="M593.473,141s3.015-8.224,10.425-5c1.711-1.736,3.828-3,6.691-2.43a7.684,7.684,0,0,1,5.335,4.141c.9-.042,8.082.2,8.082,7.649s-8.7,7.31-9.324,6.72c-.775.691-4.5,4.438-9.018.161-.978.836-4.173,4.377-9.224-.51-2.34.978-7.9,1.73-8.979-4.012S591.911,140.362,593.473,141Z" transform="translate(-407.319 -133.433)" fill="url(#linear-gradient-7)"/>
        <path id="路径_13154" data-name="路径 13154" d="M477.7,199.913s2.182-5.955,7.546-3.615a5.113,5.113,0,0,1,4.845-1.759,5.56,5.56,0,0,1,3.86,3c.649-.029,5.852.142,5.852,5.535s-6.294,5.29-6.749,4.864c-.562.5-3.257,3.211-6.529.119-.707.6-3.021,3.169-6.675-.368-1.695.707-5.719,1.252-6.5-2.9A3.89,3.89,0,0,1,477.7,199.913Z" transform="translate(-330.065 -174.748)" fill="url(#linear-gradient-9)"/>
        <ellipse id="椭圆_779" data-name="椭圆 779" cx="119.736" cy="56.825" rx="119.736" ry="56.825" transform="translate(0 87.508)" fill="url(#linear-gradient-10)"/>
      </g>
      <g id="箱子" transform="translate(95.598 171.923)">
        <path id="路径_13155" data-name="路径 13155" d="M273.53,440.055l42.6,71.655,99.509-22.954-61.1-49.375Z" transform="translate(-260.784 -388.959)" fill="url(#linear-gradient-11)"/>
        <path id="路径_13156" data-name="路径 13156" d="M273.53,331.954h36.73V283.16L273.53,292.8Z" transform="translate(-260.784 -283.16)" fill="url(#linear-gradient-12)"/>
        <path id="路径_13157" data-name="路径 13157" d="M431.641,315.549H387.33V283.16l44.311,10.122Z" transform="translate(-337.855 -283.16)" fill="url(#linear-gradient-13)"/>
        <path id="路径_13158" data-name="路径 13158" d="M246.786,313.02,234.04,328.206l12.746,5.7Z" transform="translate(-234.04 -303.382)" fill="url(#linear-gradient-14)"/>
        <path id="路径_13159" data-name="路径 13159" d="M316.867,372.059,273.53,354.481V313.02l43.337,11.032Z" transform="translate(-260.784 -303.382)" fill="url(#linear-gradient-15)"/>
        <path id="路径_13160" data-name="路径 13160" d="M407.8,373.075l37.7-18.184V314.52l-37.7,10.548Z" transform="translate(-351.718 -304.398)" fill="url(#linear-gradient-16)"/>
        <path id="路径_13161" data-name="路径 13161" d="M445.5,314.52l12.768,17.093L421.3,346.283l-13.5-21.215Z" transform="translate(-351.718 -304.398)" fill="url(#linear-gradient-17)"/>
        <path id="路径_13162" data-name="路径 13162" d="M249.488,313.02,238.03,332.172l44.976,14.853,9.818-22.974Z" transform="translate(-236.742 -303.382)" fill="url(#linear-gradient-18)"/>
      </g>
      <g id="树苗" transform="translate(56.367 203.966)">
        <g id="组_13511" data-name="组 13511" transform="translate(0 12.549)">
          <path id="路径_13163" data-name="路径 13163" d="M136.915,529.18s-1.139,1.617.765,4.025a4.065,4.065,0,0,0,5.271,1.039c.274,1.866,2.563,5.8,6.184,3.573,3.405-2.088,1.765-5.264.678-6.513,2.127-.6,3.712-5.7-1.168-7.456.723-2.1.852-3.056-.207-4.948-1.02-1.82-2.7-2.111-5.367-1l-3.867,1.63-2.463-4.6-1.317.762,2.84,4.389-3.763,1.888a3.436,3.436,0,0,0-1.83,4.712A3.713,3.713,0,0,0,136.915,529.18Z" transform="translate(-125.922 -484.716)" fill="url(#linear-gradient-19)"/>
          <path id="路径_13164" data-name="路径 13164" d="M116.932,446.188H128.57A4.613,4.613,0,0,0,133.079,442c.823-4.716-2.608-5.364-2.608-5.364s2.066-.949,1.617-4.515a4.283,4.283,0,0,0-4.9-3.85c.213-2.114.658-6.9-4.312-6.949-4.8-.048-4.77,4.783-4.412,6.688-1.711.019-6.878,2.585-3.244,8.214-1.979,1.694-2.814,2.672-2.727,5.116S114.079,446.188,116.932,446.188Z" transform="translate(-112.491 -421.319)" fill="url(#linear-gradient-20)"/>
          <path id="路径_13165" data-name="路径 13165" d="M138.123,455.754l-4.964,3.266-.136-3.157,3.14-3.7-3.189,2.576-.413-9.65-.3,9.712-3.35-2.666,3.318,3.657-.1,3.25-5.106-3.75,5.067,4.922-.255,8.185h1.73l-.349-8.137Z" transform="translate(-122.331 -437.418)" fill="#c6d5e6"/>
        </g>
        <g id="组_13512" data-name="组 13512" transform="translate(169.483 10.163)">
          <path id="路径_13166" data-name="路径 13166" d="M660.1,513.257s-1.049,1.491.7,3.705a3.738,3.738,0,0,0,4.854.955c.252,1.717,2.363,5.335,5.7,3.292,3.134-1.924,1.627-4.848.623-6,1.959-.552,3.418-5.248-1.075-6.865.668-1.937.788-2.814-.19-4.554-.939-1.675-2.482-1.946-4.941-.923l-3.563,1.5-2.269-4.231-1.21.7,2.614,4.041-3.463,1.74a3.165,3.165,0,0,0-1.685,4.341A3.418,3.418,0,0,0,660.1,513.257Z" transform="translate(-649.979 -472.315)" fill="url(#linear-gradient-21)"/>
          <path id="路径_13167" data-name="路径 13167" d="M641.694,436.826H652.41a4.243,4.243,0,0,0,4.151-3.857c.755-4.341-2.4-4.938-2.4-4.938s1.9-.875,1.488-4.157a3.943,3.943,0,0,0-4.509-3.544c.2-1.946.607-6.355-3.97-6.4-4.419-.045-4.393,4.4-4.064,6.158-1.575.016-6.336,2.379-2.985,7.565-1.82,1.559-2.592,2.463-2.511,4.709S639.067,436.826,641.694,436.826Z" transform="translate(-637.602 -413.929)" fill="url(#linear-gradient-22)"/>
          <path id="路径_13168" data-name="路径 13168" d="M661.212,445.621l-4.57,3.008-.123-2.908,2.889-3.405-2.934,2.372-.381-8.889-.281,8.947-3.082-2.456,3.053,3.366-.094,2.992-4.7-3.453,4.667,4.535-.236,7.536h1.591l-.32-7.491Z" transform="translate(-646.669 -428.741)" fill="#c6d5e6"/>
        </g>
        <g id="组_13513" data-name="组 13513" transform="translate(32.321)">
          <path id="路径_13169" data-name="路径 13169" d="M224.716,435.8s-.565.8.378,1.991a2.006,2.006,0,0,0,2.608.513c.136.923,1.268,2.866,3.06,1.769a2,2,0,0,0,.336-3.221c1.052-.3,1.837-2.818-.578-3.686a2.417,2.417,0,0,0-.1-2.447c-.5-.9-1.333-1.046-2.653-.5l-1.914.807-1.217-2.272-.652.378,1.4,2.169-1.862.933a1.7,1.7,0,0,0-.9,2.33A1.834,1.834,0,0,0,224.716,435.8Z" transform="translate(-219.278 -413.81)" fill="url(#linear-gradient-23)"/>
          <path id="路径_13170" data-name="路径 13170" d="M214.828,394.74h5.755a2.283,2.283,0,0,0,2.23-2.072c.407-2.334-1.291-2.653-1.291-2.653s1.023-.471.8-2.233a2.12,2.12,0,0,0-2.421-1.9c.107-1.046.326-3.415-2.133-3.437-2.375-.023-2.359,2.366-2.182,3.308-.846.01-3.4,1.278-1.6,4.063-.978.836-1.394,1.323-1.349,2.53A2.275,2.275,0,0,0,214.828,394.74Z" transform="translate(-212.63 -382.439)" fill="url(#linear-gradient-24)"/>
          <path id="路径_13171" data-name="路径 13171" d="M225.313,399.467l-2.456,1.617-.068-1.562,1.552-1.83-1.575,1.275-.207-4.777L222.412,399l-1.656-1.317,1.64,1.807-.052,1.607-2.524-1.856,2.508,2.437-.129,4.047h.855l-.171-4.025Z" transform="translate(-217.499 -390.397)" fill="#c6d5e6"/>
        </g>
      </g>
      <g id="发送" transform="translate(139.232 118.91)">
        <g id="组_13517" data-name="组 13517" transform="translate(0 12.172)">
          <g id="组_13514" data-name="组 13514" transform="translate(34.599)">
            <path id="路径_13172" data-name="路径 13172" d="M476.751,157.515a.323.323,0,0,1-.129-.62c.394-.168.607-.252.607-.252a.322.322,0,0,1,.232.6s-.207.081-.584.242A.257.257,0,0,1,476.751,157.515Z" transform="translate(-476.428 -156.621)" fill="url(#linear-gradient-25)"/>
          </g>
          <g id="组_13515" data-name="组 13515" transform="translate(0 0.774)">
            <path id="路径_13173" data-name="路径 13173" d="M381.921,217.135a.327.327,0,0,1-.3-.21,8.36,8.36,0,0,1-.365-1.294.322.322,0,0,1,.633-.123,7.052,7.052,0,0,0,.336,1.188.326.326,0,0,1-.187.416A.272.272,0,0,1,381.921,217.135Zm4.331-2.482h-.006c-.442-.01-.884-.039-1.314-.084a.323.323,0,1,1,.068-.642c.413.045.836.071,1.262.081a.324.324,0,0,1,.316.329A.327.327,0,0,1,386.252,214.653Zm1.291-.019a.323.323,0,0,1-.019-.646c.416-.023.839-.061,1.262-.116a.324.324,0,0,1,.081.642c-.439.055-.878.1-1.31.119Zm-6.11-.023a.324.324,0,0,1-.323-.313c0-.074,0-.152,0-.229q0-.213.01-.426l-.016-.006c-.413-.152-.82-.32-1.214-.494a.323.323,0,0,1,.261-.591c.333.148.678.29,1.026.423a.029.029,0,0,1,0-.016.324.324,0,1,1,.642.081,7.949,7.949,0,0,0-.065,1.03c0,.071,0,.142,0,.21a.326.326,0,0,1-.313.332Zm2.256-.236a.439.439,0,0,1-.065-.006c-.355-.071-.707-.155-1.046-.252l-.236-.068a.322.322,0,0,1,.184-.616l.226.068c.323.094.658.174,1,.242a.323.323,0,0,1,.252.381A.316.316,0,0,1,383.69,214.375Zm6.416-.068a.324.324,0,0,1-.061-.642c.413-.081.826-.178,1.236-.287a.326.326,0,0,1,.4.229.322.322,0,0,1-.229.4c-.423.113-.852.213-1.278.3A.487.487,0,0,1,390.106,214.307Zm2.492-.668a.324.324,0,0,1-.107-.629c.4-.136.8-.287,1.188-.449a.323.323,0,0,1,.249.6c-.4.168-.813.323-1.227.465A.364.364,0,0,1,392.6,213.639Zm2.382-.994a.317.317,0,0,1-.287-.178.322.322,0,0,1,.142-.432c.384-.194.755-.4,1.107-.613a.322.322,0,1,1,.332.552c-.368.223-.755.436-1.152.636A.319.319,0,0,1,394.979,212.645Zm-16.118-.042a.322.322,0,0,1-.152-.039c-.387-.207-.768-.429-1.136-.662a.323.323,0,1,1,.345-.545c.352.223.723.439,1.094.636a.325.325,0,0,1-.152.61Zm2.889-.545a.373.373,0,0,1-.084-.01.325.325,0,0,1-.229-.4,10.922,10.922,0,0,1,.426-1.259.322.322,0,0,1,.6.242,10.876,10.876,0,0,0-.4,1.185A.321.321,0,0,1,381.75,212.058Zm15.434-.755a.313.313,0,0,1-.258-.132.324.324,0,0,1,.068-.452,10.673,10.673,0,0,0,.965-.8.322.322,0,0,1,.442.468,11.526,11.526,0,0,1-1.023.849A.308.308,0,0,1,397.184,211.3Zm-20.5-.077a.3.3,0,0,1-.19-.065c-.352-.261-.7-.536-1.026-.823a.323.323,0,1,1,.423-.487c.316.274.649.542.988.791a.324.324,0,0,1-.194.584Zm6.029-1.559a.323.323,0,0,1-.284-.474,11.379,11.379,0,0,1,.694-1.133.322.322,0,0,1,.529.368A10.614,10.614,0,0,0,383,209.5.327.327,0,0,1,382.708,209.666Zm-7.975-.129a.32.32,0,0,1-.229-.1c-.307-.31-.607-.636-.891-.968a.323.323,0,1,1,.491-.42c.274.32.562.633.855.933a.319.319,0,0,1,0,.455A.3.3,0,0,1,374.733,209.537Zm24.31-.013a.349.349,0,0,1-.2-.065.323.323,0,0,1-.061-.452c.039-.052.077-.1.116-.158a10.136,10.136,0,0,0,.565-.888.322.322,0,1,1,.562.316,10.693,10.693,0,0,1-.6.946c-.042.058-.084.116-.129.174A.313.313,0,0,1,399.043,209.524Zm-25.982-1.949a.323.323,0,0,1-.261-.132c-.255-.352-.5-.717-.736-1.088a.323.323,0,1,1,.549-.342c.223.358.461.71.71,1.049a.322.322,0,0,1-.071.452A.326.326,0,0,1,373.061,207.575Zm11.109-.029a.323.323,0,0,1-.245-.533c.281-.326.584-.649.907-.962a.322.322,0,0,1,.449.462c-.307.3-.6.607-.865.917A.309.309,0,0,1,384.17,207.546Zm16.115-.274a.309.309,0,0,1-.107-.019.325.325,0,0,1-.2-.413,5.03,5.03,0,0,0,.274-1.178.323.323,0,0,1,.642.061,5.633,5.633,0,0,1-.307,1.33A.323.323,0,0,1,400.286,207.271Zm-14.266-1.527a.32.32,0,0,1-.249-.116.326.326,0,0,1,.042-.455c.332-.274.684-.542,1.046-.8a.322.322,0,1,1,.371.526c-.349.249-.687.507-1.007.771A.305.305,0,0,1,386.02,205.745Zm-14.324-.358a.324.324,0,0,1-.287-.171c-.2-.384-.394-.784-.571-1.181a.323.323,0,0,1,.591-.261c.171.387.355.771.552,1.143a.322.322,0,0,1-.136.436A.357.357,0,0,1,371.7,205.386Zm28.8-.652a.323.323,0,0,1-.313-.249,3,3,0,0,0-.481-1.052.324.324,0,0,1,.526-.378,3.62,3.62,0,0,1,.584,1.278.323.323,0,0,1-.239.391A.362.362,0,0,1,400.5,204.734Zm-12.375-.484a.315.315,0,0,1-.274-.155.32.32,0,0,1,.107-.442c.371-.226.755-.445,1.143-.649a.323.323,0,0,1,.3.571c-.374.2-.746.407-1.1.626A.336.336,0,0,1,388.124,204.25Zm2.285-1.2a.322.322,0,0,1-.129-.616c.4-.177.813-.345,1.217-.491a.323.323,0,1,1,.219.607c-.391.142-.788.3-1.178.474A.354.354,0,0,1,390.409,203.05Zm-19.756-.026a.322.322,0,0,1-.3-.213c-.148-.41-.284-.829-.4-1.249a.324.324,0,0,1,.623-.178c.116.407.245.813.387,1.207a.322.322,0,0,1-.194.413A.263.263,0,0,1,370.653,203.024Zm28.39-.352a.336.336,0,0,1-.187-.058,5.065,5.065,0,0,0-1.068-.568.323.323,0,1,1,.239-.6,5.661,5.661,0,0,1,1.2.639.321.321,0,0,1,.078.449A.318.318,0,0,1,399.043,202.672Zm-6.207-.5a.322.322,0,0,1-.087-.633c.439-.123.871-.223,1.285-.3a.323.323,0,0,1,.119.636c-.4.074-.81.171-1.23.287A.4.4,0,0,1,392.836,202.169Zm3.828-.429a.158.158,0,0,1-.039,0,5.856,5.856,0,0,0-.733-.042c-.155-.006-.326.006-.5.016a.323.323,0,1,1-.039-.646c.184-.013.362-.016.536-.016h0a6.467,6.467,0,0,1,.81.048.322.322,0,0,1,.281.358A.329.329,0,0,1,396.664,201.739Zm-26.718-1.2a.324.324,0,0,1-.316-.255c-.09-.429-.168-.862-.226-1.294a.323.323,0,1,1,.639-.09c.058.416.132.836.22,1.249a.326.326,0,0,1-.249.384A.242.242,0,0,1,369.946,200.542Zm-.355-2.556a.324.324,0,0,1-.323-.3c-.026-.394-.039-.788-.039-1.175v-.142a.318.318,0,0,1,.326-.32.322.322,0,0,1,.32.326v.136c0,.371.013.752.039,1.13a.324.324,0,0,1-.3.345Zm.026-2.579h-.029a.325.325,0,0,1-.294-.352c.036-.4.09-.8.158-1.185l.013-.052.042-.116a.322.322,0,1,1,.607.213l-.032.09c-.058.339-.11.72-.145,1.1A.322.322,0,0,1,369.617,195.407Zm.636-2.485a.3.3,0,0,1-.116-.023.321.321,0,0,1-.187-.416c.155-.407.313-.81.478-1.207a.322.322,0,1,1,.6.242c-.161.394-.32.791-.471,1.194A.322.322,0,0,1,370.253,192.922Zm.978-2.388a.367.367,0,0,1-.129-.026.322.322,0,0,1-.165-.426c.174-.4.355-.791.539-1.181a.323.323,0,0,1,.584.274c-.181.384-.358.775-.533,1.168A.325.325,0,0,1,371.231,190.533Zm1.1-2.334a.3.3,0,0,1-.145-.036.322.322,0,0,1-.142-.432c.194-.387.394-.771.6-1.152a.322.322,0,0,1,.568.3c-.2.374-.4.755-.591,1.139A.322.322,0,0,1,372.332,188.2Zm1.217-2.279a.306.306,0,0,1-.158-.042.323.323,0,0,1-.123-.439c.213-.378.432-.752.655-1.123a.322.322,0,1,1,.552.332c-.219.365-.436.736-.646,1.107A.317.317,0,0,1,373.548,185.921Zm1.327-2.214a.3.3,0,0,1-.171-.052.321.321,0,0,1-.1-.445c.232-.368.468-.729.707-1.088a.324.324,0,0,1,.539.358c-.236.355-.468.713-.7,1.075A.32.32,0,0,1,374.875,183.707Zm1.433-2.146a.321.321,0,0,1-.261-.507c.248-.355.5-.707.758-1.055a.323.323,0,1,1,.52.384c-.252.342-.5.691-.749,1.042A.343.343,0,0,1,376.308,181.561Zm1.53-2.082a.323.323,0,0,1-.255-.52c.265-.345.533-.684.8-1.02a.324.324,0,0,1,.5.407c-.268.332-.533.668-.8,1.007A.313.313,0,0,1,377.838,179.479Zm1.623-2.008a.311.311,0,0,1-.207-.077.323.323,0,0,1-.039-.455c.281-.332.565-.658.849-.981a.322.322,0,0,1,.484.426c-.281.32-.562.642-.839.971A.329.329,0,0,1,379.461,177.471Zm1.707-1.937a.34.34,0,0,1-.219-.084.322.322,0,0,1-.019-.455c.294-.32.591-.636.888-.946a.322.322,0,0,1,.465.445c-.294.307-.587.62-.881.936A.306.306,0,0,1,381.169,175.535Zm1.788-1.862a.331.331,0,0,1-.229-.094.321.321,0,0,1,0-.455c.307-.307.616-.61.926-.91a.322.322,0,1,1,.445.465c-.307.294-.613.594-.917.9A.317.317,0,0,1,382.957,173.672Zm1.862-1.791a.318.318,0,0,1-.236-.1.322.322,0,0,1,.019-.455c.32-.3.639-.587.962-.871a.322.322,0,0,1,.429.481c-.316.284-.636.571-.952.865A.355.355,0,0,1,384.819,171.881Zm1.93-1.717a.323.323,0,0,1-.21-.568c.332-.284.662-.562.994-.836a.323.323,0,0,1,.41.5c-.326.271-.655.545-.984.826A.325.325,0,0,1,386.749,170.164Zm1.991-1.643a.318.318,0,0,1-.252-.123.327.327,0,0,1,.052-.455c.342-.271.684-.539,1.023-.8a.322.322,0,0,1,.391.513c-.336.258-.675.52-1.013.791A.31.31,0,0,1,388.741,168.521Zm2.053-1.572a.324.324,0,0,1-.194-.584c.352-.261.7-.513,1.052-.762a.322.322,0,0,1,.371.526c-.345.245-.691.5-1.042.755A.294.294,0,0,1,390.793,166.949Zm2.1-1.494a.328.328,0,0,1-.268-.139.322.322,0,0,1,.084-.449c.365-.249.723-.491,1.078-.723a.324.324,0,1,1,.358.539c-.352.232-.707.471-1.068.717A.358.358,0,0,1,392.9,165.455Zm2.156-1.423a.322.322,0,0,1-.171-.594c.374-.239.742-.465,1.1-.687a.322.322,0,0,1,.336.549c-.358.219-.72.445-1.091.681A.321.321,0,0,1,395.054,164.032Zm2.2-1.349a.323.323,0,0,1-.164-.6c.384-.226.762-.442,1.123-.649a.322.322,0,1,1,.316.562c-.361.2-.733.416-1.114.642A.321.321,0,0,1,397.258,162.682Zm2.253-1.272a.322.322,0,0,1-.284-.168.327.327,0,0,1,.129-.439c.4-.216.784-.42,1.149-.607a.323.323,0,1,1,.3.575c-.362.187-.739.387-1.136.6A.344.344,0,0,1,399.511,161.411Zm2.295-1.188a.328.328,0,0,1-.29-.181.324.324,0,0,1,.148-.432c.432-.213.826-.4,1.175-.562a.323.323,0,1,1,.271.587c-.342.158-.733.345-1.162.555A.315.315,0,0,1,401.806,160.223Z" transform="translate(-369.23 -159.019)" fill="url(#linear-gradient-26)"/>
          </g>
          <g id="组_13516" data-name="组 13516" transform="translate(12.93 59.413)">
            <path id="路径_13174" data-name="路径 13174" d="M409.985,341.876a.325.325,0,0,1-.245-.113,4.9,4.9,0,0,1-.4-.571.322.322,0,0,1,.549-.336,4.147,4.147,0,0,0,.336.484.322.322,0,0,1-.035.455A.28.28,0,0,1,409.985,341.876Z" transform="translate(-409.292 -340.702)" fill="url(#linear-gradient-27)"/>
          </g>
        </g>
        <path id="路径_13175" data-name="路径 13175" d="M464.48,123l24.5-4.089-7.653,14.447Z" transform="translate(-433.737 -118.91)" fill="url(#linear-gradient-28)"/>
        <path id="路径_13176" data-name="路径 13176" d="M496.485,129.71l-9.228,6.123-1.194,4.838-1.743-6.423Z" transform="translate(-447.174 -126.224)" fill="url(#linear-gradient-29)"/>
        <path id="路径_13177" data-name="路径 13177" d="M494.164,150.785,489.72,153.4l1.123-4.893Z" transform="translate(-450.831 -138.956)" fill="#b4c6d9"/>
      </g>
      <g id="_人物" transform="translate(105.61 180.975)">
        <path id="路径_13178" data-name="路径 13178" d="M294.346,326.655l3.528,1.853s-7.2.107-10.3,2.743-5.81,8.376-15.754,4.954-2.388-7.094,1.427-6.452,9.018-.713,11.619-3.421S293.455,325.942,294.346,326.655Z" transform="translate(-266.302 -320.583)" fill="url(#linear-gradient-30)"/>
        <path id="路径_13179" data-name="路径 13179" d="M289.769,318.58a7.249,7.249,0,0,0-5.293,2.96c-.607.855-.962,1.407-1.249,1.853a1.4,1.4,0,0,1-2.263.268c-1.175-.962-4.115-3.441-4.115-3.441l-1.549,2.088s5.112,5.626,7.2,5.361,4.419-.055,7.11-3.386,3.386-4.134,3.386-4.134Z" transform="translate(-271.995 -316.2)" fill="url(#linear-gradient-31)"/>
        <path id="路径_13180" data-name="路径 13180" d="M269.819,318.91,266.04,324s1.336,1.381,2.763-.668,2.2-3.27,2.2-3.27Z" transform="translate(-265.724 -316.423)" fill="#f8b62d"/>
        <path id="路径_13181" data-name="路径 13181" d="M268.9,317.83l-1.862,2.095.349.384-2.324,2.74.3.31,4.222-4.877Z" transform="translate(-265.06 -315.692)" fill="#e6e8e8"/>
        <path id="路径_13182" data-name="路径 13182" d="M292.986,319.09a7.114,7.114,0,0,0-3.886,3.634c-1.472,2.924-1.7,4.015-3.328,3.208s-4.622-2.3-4.622-2.3l-1.32,2.327s5.894,4.764,8.185,3.718,9.363-5.823,9.363-5.823a12.167,12.167,0,0,0,.416-1.866C297.714,321.908,292.986,319.09,292.986,319.09Z" transform="translate(-275.063 -316.545)" fill="url(#linear-gradient-32)"/>
        <path id="路径_13183" data-name="路径 13183" d="M273.11,329.49l-3.78,5.087s1.336,1.381,2.763-.668,2.2-3.27,2.2-3.27Z" transform="translate(-267.952 -323.588)" fill="#f8b62d"/>
        <path id="路径_13184" data-name="路径 13184" d="M272.194,328.41l-1.862,2.095.349.384-2.321,2.74.3.31,4.218-4.877Z" transform="translate(-267.295 -322.857)" fill="#e6e8e8"/>
        <path id="路径_13185" data-name="路径 13185" d="M329.636,319.13s-2-7-7.714-7.753-7.988,1.136-8.124,1.862c-.094.491.474.658.474.658s4.609,1.769,5.345,5.074c.119.545.523.381,1.662-.071a9.077,9.077,0,0,1,5.087-.6C327.783,318.7,329.636,319.13,329.636,319.13Z" transform="translate(-298.061 -311.205)" fill="url(#linear-gradient-33)"/>
      </g>
    </g>
  </g>
</svg>
