<svg xmlns="http://www.w3.org/2000/svg" width="21" height="26" viewBox="0 0 21 26">
  <g id="组_20331" data-name="组 20331" transform="translate(-27 -611)">
    <g id="组_20266" data-name="组 20266" transform="translate(0 123)">
      <g id="组_20252" data-name="组 20252" transform="translate(0 -127)">
        <g id="组_20242" data-name="组 20242" transform="translate(2 144)">
          <rect id="矩形_22787" data-name="矩形 22787" width="21" height="26" rx="2" transform="translate(25 471)" fill="#fff"/>
        </g>
      </g>
      <path id="路径_22306" data-name="路径 22306" d="M95.008,100.961,93.668,96.5h-1.86l-1.265,4.465H89.054l1.34-4.465H87.566a1.493,1.493,0,0,1-1.488-1.488v-6.7a.744.744,0,0,1,0-1.488h5.209a1.488,1.488,0,0,1,2.977,0h5.209a.744.744,0,0,1,0,1.488v6.7A1.493,1.493,0,0,1,97.984,96.5H95.156l1.34,4.465Zm2.6-5.953a.352.352,0,0,0,.372-.372V88.682a.352.352,0,0,0-.372-.372H87.938a.352.352,0,0,0-.372.372v5.953a.352.352,0,0,0,.372.372Z" transform="translate(-55.275 407.853)" fill="#f88f00"/>
    </g>
  </g>
</svg>
