<svg xmlns="http://www.w3.org/2000/svg" width="30" height="30" viewBox="0 0 30 30">
  <g id="组_13362" data-name="组 13362" transform="translate(-30 -302)">
    <rect id="矩形_22" data-name="矩形 22" width="30" height="30" rx="4" transform="translate(30 302)" fill="#2988e6" opacity="0.063"/>
    <path id="路径_13144" data-name="路径 13144" d="M109.429,64.9H97.813a.974.974,0,0,0-.974.974v12.66a.968.968,0,0,0,.974.974,7.756,7.756,0,0,0,1.948-.487,20.26,20.26,0,0,1,3.861-1.461,21.613,21.613,0,0,1,3.861,1.461,10.371,10.371,0,0,0,1.948.487.993.993,0,0,0,.974-.974V65.878A.974.974,0,0,0,109.429,64.9ZM106.7,71.081a2.359,2.359,0,0,0-.838,2.695q.468,1.649-.887.674a2.129,2.129,0,0,0-2.711,0q-1.356.975-.887-.674a2.359,2.359,0,0,0-.838-2.695q-1.306-1.046.339-1.09a2.215,2.215,0,0,0,2.193-1.665q.548-1.621,1.1,0a2.215,2.215,0,0,0,2.193,1.665Q108,70.035,106.7,71.081Z" transform="translate(-58.839 245.096)" fill="#fece55"/>
  </g>
</svg>
