<svg xmlns="http://www.w3.org/2000/svg" width="64" height="64" viewBox="0 0 64 64">
  <g id="组_10706" data-name="组 10706" transform="translate(-246.869 -351.869)">
    <g id="组_10671" data-name="组 10671" transform="translate(247 352)">
      <circle id="椭圆_788" data-name="椭圆 788" cx="32" cy="32" r="32" transform="translate(-0.131 -0.131)" fill="#ffebeb"/>
    </g>
    <g id="组_10705" data-name="组 10705" transform="translate(263.869 369.869)">
      <path id="路径_13102" data-name="路径 13102" d="M79.169,140.218l2.3-2.5a1.3,1.3,0,0,1,2.09.238l1.677,2.949,2.263-4.873a1.3,1.3,0,0,1,1.174-.754,1.323,1.323,0,0,1,1.183.74l2.583,5.4.815-1.726a1.3,1.3,0,0,1,1.177-.747h9.7a11.034,11.034,0,0,0-.105-4.419c-1.107-5.037-5.05-8.188-10.653-7.058a8.437,8.437,0,0,0-4.384,2.585.876.876,0,0,1-.175-.079c-.079-.066-.155-.134-.227-.207a8.3,8.3,0,0,0-5.88-2.522,7.9,7.9,0,0,0-6.79,2.913,10.988,10.988,0,0,0-1.872,10.067Z" transform="translate(-73.563 -127.228)" fill="#f23d4f"/>
      <path id="路径_13103" data-name="路径 13103" d="M140.779,484.577l-1.631,3.456a1.3,1.3,0,0,1-1.174.747h0a1.3,1.3,0,0,1-1.175-.74l-2.574-5.378-2.165,4.659a1.3,1.3,0,0,1-2.313.095l-2.044-3.592-1.483,1.611a1.305,1.305,0,0,1-.959.422H120.73c.136.223.279.443.432.657a27.018,27.018,0,0,0,5.144,5.334c1.993,1.6,4.032,3.153,6.082,4.682a3.1,3.1,0,0,0,3.885.157,62.087,62.087,0,0,0,9.942-8.276,15.3,15.3,0,0,0,2.6-3.833Z" transform="translate(-119.084 -470.262)" fill="#f23d4f"/>
      <path id="路径_13104" data-name="路径 13104" d="M99.379,128.182a9.222,9.222,0,0,0-6.005-.62,8.437,8.437,0,0,0-4.384,2.585.876.876,0,0,1-.175-.079c-.079-.066-.155-.134-.227-.207a8.3,8.3,0,0,0-5.88-2.522,7.9,7.9,0,0,0-6.79,2.913,10.979,10.979,0,0,0-1.872,10.064h5.121l2.3-2.5a1.3,1.3,0,0,1,2.09.238L85.237,141l2.265-4.873a1.3,1.3,0,0,1,1.174-.754,1.323,1.323,0,0,1,1.183.74l2.583,5.4.815-1.726a1.3,1.3,0,0,1,1.177-.747h4.485a20.962,20.962,0,0,0,.461-10.853Z" transform="translate(-73.563 -127.327)" fill="#fc4956"/>
      <path id="路径_13105" data-name="路径 13105" d="M143.417,484.577h-2.638l-1.631,3.456a1.3,1.3,0,0,1-1.174.747h0a1.3,1.3,0,0,1-1.175-.74l-2.574-5.378-2.165,4.659a1.3,1.3,0,0,1-2.313.095l-2.044-3.592-1.483,1.611a1.305,1.305,0,0,1-.959.422H120.73c.136.223.279.443.432.657a27.018,27.018,0,0,0,5.144,5.334c1.552,1.247,3.131,2.463,4.721,3.662A20.9,20.9,0,0,0,143.417,484.577Z" transform="translate(-119.084 -470.262)" fill="#fc4956"/>
      <path id="路径_13106" data-name="路径 13106" d="M93.373,127.563a8.437,8.437,0,0,0-4.384,2.585.876.876,0,0,1-.175-.079c-.079-.066-.155-.134-.227-.207a8.3,8.3,0,0,0-5.88-2.522,7.9,7.9,0,0,0-6.79,2.913,10.979,10.979,0,0,0-1.872,10.064h5.121l2.3-2.5a1.3,1.3,0,0,1,2.09.238L85.237,141l2.265-4.873a1.3,1.3,0,0,1,1.174-.754,1.323,1.323,0,0,1,1.183.74l.564,1.177a20.735,20.735,0,0,0,3.655-9.848C93.845,127.477,93.611,127.514,93.373,127.563ZM82.18,140.888,80.7,142.5a1.305,1.305,0,0,1-.959.422h-4.53c.136.223.279.443.432.657a23.671,23.671,0,0,0,1.8,2.213,20.715,20.715,0,0,0,6.213-2.322Z" transform="translate(-73.563 -127.327)" fill="#ff5c64"/>
      <path id="路径_13107" data-name="路径 13107" d="M86.384,128.175a8.985,8.985,0,0,0-3.564-.836,7.9,7.9,0,0,0-6.79,2.913,10.79,10.79,0,0,0-2.3,7.826A20.891,20.891,0,0,0,86.384,128.175Z" transform="translate(-73.676 -127.327)" fill="#ff716e"/>
    </g>
  </g>
</svg>
