<svg xmlns="http://www.w3.org/2000/svg" width="19.766" height="4.351" viewBox="0 0 19.766 4.351">
  <g id="组_9602" data-name="组 9602" transform="translate(-325.234 -57.825)">
    <g id="caidan" transform="translate(325.234 57.825)">
      <path id="路径_9485" data-name="路径 9485" d="M98.876,417.876m-2.176,0a2.176,2.176,0,1,0,2.176-2.176A2.176,2.176,0,0,0,96.7,417.876Z" transform="translate(-96.7 -415.7)" fill="#fff"/>
      <path id="路径_9486" data-name="路径 9486" d="M426.876,417.876m-2.176,0a2.176,2.176,0,1,0,2.176-2.176A2.176,2.176,0,0,0,424.7,417.876Z" transform="translate(-416.901 -415.7)" fill="#fff"/>
      <path id="路径_9487" data-name="路径 9487" d="M747.176,417.876m-2.176,0a2.176,2.176,0,1,0,2.176-2.176A2.176,2.176,0,0,0,745,417.876Z" transform="translate(-729.585 -415.7)" fill="#fff"/>
    </g>
  </g>
</svg>
