<svg xmlns="http://www.w3.org/2000/svg" width="85" height="85" viewBox="0 0 85 85">
  <g id="组_13544" data-name="组 13544" transform="translate(-143 -118)">
    <path id="路径_13247" data-name="路径 13247" d="M42.5,42.5,0,42.5A42.5,42.5,0,1,0,42.5,0,42.5,42.5,0,0,0,0,42.5Z" transform="translate(143 118)" fill="#e4f5e9"/>
    <g id="组_13541" data-name="组 13541" transform="translate(159.937 134.937)">
      <g id="组_13540" data-name="组 13540" transform="translate(0.063 0.063)">
        <circle id="椭圆_797" data-name="椭圆 797" cx="25.5" cy="25.5" r="25.5" fill="#2fb355"/>
        <path id="路径_13248" data-name="路径 13248" d="M234.8,260.167a25.358,25.358,0,1,1,17.93-7.427A25.357,25.357,0,0,1,234.8,260.167Zm-10.405-27.5a3.023,3.023,0,0,0-2.146,5.153l7.794,7.856a2.507,2.507,0,0,0,3.559,0L247.5,231.7A2.508,2.508,0,0,0,244.13,228l-10.679,8.784a2.506,2.506,0,0,1-3.235-.041l-3.847-3.333A3.018,3.018,0,0,0,224.393,232.671Z" transform="translate(-209.195 -209.206)" fill="#2fb355"/>
      </g>
      <path id="路径_13245" data-name="路径 13245" d="M177.6,193.96a2.593,2.593,0,0,1-1.379-.39l-7.538-4.635a2.614,2.614,0,1,1,2.738-4.452l5.517,3.383,7.931-10.58a2.614,2.614,0,0,1,4.179,3.142l-9.373,12.487a2.614,2.614,0,0,1-2.076,1.045Z" transform="translate(-152.812 -159.435)" fill="#fff"/>
    </g>
  </g>
</svg>
