<svg xmlns="http://www.w3.org/2000/svg" width="15.865" height="15.865" viewBox="0 0 15.865 15.865">
  <g id="scan" transform="translate(-29.257 -30.878)">
    <g id="组_7613" data-name="组 7613" transform="translate(32.377 34.264)">
      <path id="路径_5731" data-name="路径 5731" d="M560.462,65.109a.661.661,0,0,1-.085,0c-.459,0-.918,0-1.376,0a1.169,1.169,0,0,0-.391.062.615.615,0,0,0-.415.464,1.088,1.088,0,0,0-.029.257c0,.811,0,1.622,0,2.433a1.3,1.3,0,0,0,.075.493.621.621,0,0,0,.45.383.945.945,0,0,0,.233.027h2.632a1.563,1.563,0,0,0,.3-.028.643.643,0,0,0,.542-.543c0-.027,0-.063.035-.075v-2.8a.024.024,0,0,1-.006-.018c-.018-.058-.02-.118-.04-.177a.688.688,0,0,0-.517-.469.811.811,0,0,0-.236-.025c-.016,0-.036.012-.047-.011h-1.075C560.509,65.112,560.482,65.106,560.462,65.109Zm1.192.491a.484.484,0,0,1,.144.025.178.178,0,0,1,.129.182c0,.9,0,1.806,0,2.71,0,.135-.1.217-.255.219-.461,0-.921,0-1.383,0h-1.364a.471.471,0,0,1-.153-.033c-.1-.037-.116-.127-.117-.216,0-.453,0-.906,0-1.358V65.856a.248.248,0,0,1,.083-.205.283.283,0,0,1,.188-.052Q560.29,65.6,561.654,65.6Z" transform="translate(-552.918 -65.077)" fill="#2988e6"/>
      <path id="路径_5732" data-name="路径 5732" d="M71.363,64.753h-1.43a1.48,1.48,0,0,0-.335.037.666.666,0,0,0-.362.2.757.757,0,0,0-.179.514q0,1.261,0,2.523a1.431,1.431,0,0,0,.034.328.683.683,0,0,0,.2.368.737.737,0,0,0,.5.181q1.342,0,2.686,0a1.247,1.247,0,0,0,.335-.036.647.647,0,0,0,.483-.432c.021-.064.022-.132.046-.194-.039.012-.03.048-.035.075a.642.642,0,0,1-.542.543,1.666,1.666,0,0,1-.3.028H69.834a.946.946,0,0,1-.233-.027.623.623,0,0,1-.45-.383,1.3,1.3,0,0,1-.075-.493c0-.811,0-1.622,0-2.433A1.084,1.084,0,0,1,69.1,65.3a.614.614,0,0,1,.415-.464,1.2,1.2,0,0,1,.391-.062c.459,0,.918,0,1.377,0a.657.657,0,0,0,.085,0c.021,0,.047,0,.051-.029C71.408,64.767,71.384,64.753,71.363,64.753Zm-7.5,3.505a.758.758,0,0,0,.173.411.677.677,0,0,0,.519.219q1.36.005,2.722,0a1.124,1.124,0,0,0,.339-.047.644.644,0,0,0,.472-.641q0-1.34,0-2.68a.9.9,0,0,0-.029-.227.69.69,0,0,0-.574-.511,1.029,1.029,0,0,0-.15-.013c-.024,0-.054.007-.063-.029H66.2c-.016.025-.04.011-.059.011-.5,0-.993,0-1.489,0a.949.949,0,0,0-.51.129.654.654,0,0,0-.286.4c-.01.033,0,.069-.023.1v2.814C63.864,68.2,63.856,68.235,63.86,68.258Zm.477-2.789a.207.207,0,0,1,.175-.2.787.787,0,0,1,.159-.012h2.644a.518.518,0,0,1,.15.024.165.165,0,0,1,.13.176v2.723a.184.184,0,0,1-.14.192.447.447,0,0,1-.15.024H65.959c-.455,0-.909,0-1.364,0a.261.261,0,0,1-.209-.074.177.177,0,0,1-.05-.122Q64.335,66.838,64.337,65.469Z" transform="translate(-63.828 -64.74)" fill="#2988e6"/>
      <path id="路径_5733" data-name="路径 5733" d="M63.84,68.562a.709.709,0,0,0,.077.3.653.653,0,0,0,.623.377c.9.007,1.8,0,2.7,0a1.419,1.419,0,0,0,.334-.036.65.65,0,0,0,.529-.657c.006-.891,0-1.782,0-2.673a.974.974,0,0,0-.011-.178.712.712,0,0,0-.292-.471.789.789,0,0,0-.446-.138c-.028,0-.059.014-.083-.011.008.036.04.029.063.029a1.235,1.235,0,0,1,.15.013.69.69,0,0,1,.574.511.9.9,0,0,1,.029.227c0,.894,0,1.786,0,2.679a.646.646,0,0,1-.472.641,1.123,1.123,0,0,1-.339.047q-1.36,0-2.722,0a.679.679,0,0,1-.519-.219.761.761,0,0,1-.173-.411c0-.023,0-.056-.031-.063C63.845,68.538,63.84,68.553,63.84,68.562Zm.879,5.738a.565.565,0,0,1,.078,0h2.487a1.181,1.181,0,0,0,.3-.037.643.643,0,0,0,.5-.642c0-.305,0-.612,0-.918V70.914a.7.7,0,0,0-.647-.721c-.138-.014-.277-.021-.415-.024-.417-.008-.833.006-1.249.016-.4.01-.8,0-1.194.008a.861.861,0,0,0-.395.1.6.6,0,0,0-.31.4c-.008.034,0,.078-.045.1v2.826c.024.066.027.138.047.206a.643.643,0,0,0,.481.47.806.806,0,0,0,.24.025c.017,0,.04-.013.053.011h.024C64.677,74.3,64.7,74.3,64.719,74.3Zm-.138-.49a.225.225,0,0,1-.249-.248c0-.885,0-1.77,0-2.657a.206.206,0,0,1,.221-.223c.9-.029,1.8-.006,2.7-.01a.474.474,0,0,1,.237.036.177.177,0,0,1,.1.165c0,.453,0,.906,0,1.358s0,.9,0,1.346c0,.146-.094.213-.226.233a1.872,1.872,0,0,1-.308,0C66.236,73.809,65.409,73.81,64.582,73.81Z" transform="translate(-63.828 -65.077)" fill="#2988e6"/>
      <path id="路径_5734" data-name="路径 5734" d="M64.627,546.7q1.228,0,2.457,0a1.677,1.677,0,0,0,.338-.025.714.714,0,0,0,.392-.206.651.651,0,0,0,.175-.454c0-.9,0-1.8,0-2.693a.866.866,0,0,0-.024-.223.7.7,0,0,0-.443-.5,1.411,1.411,0,0,0-.5-.064c-.279-.006-.558-.011-.837.006-.229.014-.461,0-.692.012-.333.011-.668,0-1,0a1.058,1.058,0,0,0-.229.024.667.667,0,0,0-.49.378c-.031.069-.034.145-.063.214.045-.018.036-.063.045-.1a.606.606,0,0,1,.31-.4.866.866,0,0,1,.395-.1c.4-.006.8,0,1.194-.008.417-.01.832-.024,1.249-.016.139,0,.278.008.415.024a.7.7,0,0,1,.647.721v1.787c0,.305,0,.612,0,.918a.643.643,0,0,1-.5.642,1.177,1.177,0,0,1-.3.037H64.684c-.027,0-.052,0-.079,0s-.042,0-.045.029C64.579,546.692,64.606,546.7,64.627,546.7Z" transform="translate(-63.716 -537.464)" fill="#2988e6"/>
      <path id="路径_5735" data-name="路径 5735" d="M64.025,65a.96.96,0,0,1,.51-.129c.5,0,.993,0,1.489,0,.019,0,.043.014.059-.011a.12.12,0,0,1-.065.006c-.541,0-1.082-.01-1.623.007a.7.7,0,0,0-.561.285.613.613,0,0,0-.117.342c.022-.029.014-.065.023-.1A.659.659,0,0,1,64.025,65Zm8.409-.132a.814.814,0,0,1,.235.025.69.69,0,0,1,.517.469c.019.058.022.12.04.177v0a.694.694,0,0,0-.636-.668,1.143,1.143,0,0,1-.2-.011C72.4,64.879,72.418,64.867,72.434,64.865Zm-7.95,9.228a.807.807,0,0,1-.24-.025.643.643,0,0,1-.481-.47c-.019-.069-.022-.14-.047-.206.013.064.01.13.025.194a.662.662,0,0,0,.587.507,1.2,1.2,0,0,1,.209.01C64.523,74.08,64.5,74.092,64.484,74.093Z" transform="translate(-63.716 -64.852)" fill="#2988e6"/>
      <path id="路径_5736" data-name="路径 5736" d="M204.722,202.28a.233.233,0,0,0-.246.242V204.6a.23.23,0,0,0,.251.24.228.228,0,0,0,.255-.238c0-.693,0-1.387,0-2.081A.232.232,0,0,0,204.722,202.28Zm3.055,0a.236.236,0,0,0-.281.22c0,.353,0,.7,0,1.057v1.051a.193.193,0,0,0,0,.059.262.262,0,0,0,.284.169c.138-.033.216-.087.217-.258,0-.67,0-1.34,0-2.011C208,202.394,207.947,202.313,207.777,202.282Zm-1.119.723a.254.254,0,0,0-.267-.182c-.15.029-.234.08-.235.252,0,.5,0,.994,0,1.49a.232.232,0,0,0,.211.268.24.24,0,0,0,.3-.231v-1.546A.257.257,0,0,0,206.657,203.005Zm-.334-2.2a.231.231,0,0,0-.169.239v1.067c0,.158.048.254.219.286a.241.241,0,0,0,.289-.223c0-.191,0-.382,0-.574s0-.369,0-.555C206.664,200.813,206.484,200.767,206.323,200.8Zm-1.437.031a.3.3,0,0,0-.186-.04.218.218,0,0,0-.223.221v.314c0,.109,0,.217,0,.326a.2.2,0,0,0,.059.148.277.277,0,0,0,.22.079.237.237,0,0,0,.227-.226c0-.214,0-.426,0-.64A.21.21,0,0,0,204.886,200.833Zm3.095.1a.244.244,0,0,0-.216-.145.239.239,0,0,0-.272.275c.006.085,0,.169,0,.254v.3a.193.193,0,0,0,0,.053.251.251,0,0,0,.289.169.226.226,0,0,0,.213-.238c0-.191,0-.383,0-.574A.282.282,0,0,0,207.981,200.936Zm-6.355-3.6a.222.222,0,0,0-.186-.165.328.328,0,0,0-.048,0c-.007,0-.018,0-.021-.01h-.348c0,.008-.013,0-.019,0-.161,0-.321,0-.482,0a.308.308,0,0,0-.165.042.211.211,0,0,0-.093.129c0,.011,0,.023-.007.031v.912c.012,0,.008.013.01.021a.252.252,0,0,0,.056.133.223.223,0,0,0,.168.071c.293,0,.588,0,.881,0a.341.341,0,0,0,.11-.016.21.21,0,0,0,.153-.208v-.868A.248.248,0,0,0,201.625,197.336Zm5.235-.093a.222.222,0,0,0-.186-.165.327.327,0,0,0-.048,0c-.007,0-.018,0-.02-.01h-.348c0,.008-.013,0-.019,0-.161,0-.321,0-.482,0a.307.307,0,0,0-.165.042.211.211,0,0,0-.093.129c0,.011,0,.023-.007.031v.912c.012,0,.008.013.01.021a.252.252,0,0,0,.056.133.223.223,0,0,0,.168.071c.293,0,.588,0,.882,0a.341.341,0,0,0,.11-.016.21.21,0,0,0,.153-.208v-.868A.21.21,0,0,0,206.86,197.243Zm-5.242,5.15a.222.222,0,0,0-.186-.165.332.332,0,0,0-.048,0c-.007,0-.018,0-.021-.01h-.348c0,.008-.013,0-.019,0-.161,0-.321,0-.482,0a.308.308,0,0,0-.165.042.211.211,0,0,0-.093.129c0,.011,0,.023-.007.031v.912c.012,0,.008.013.01.021a.251.251,0,0,0,.056.133.223.223,0,0,0,.168.071c.293,0,.588,0,.882,0a.341.341,0,0,0,.11-.016.21.21,0,0,0,.153-.208v-.868A.248.248,0,0,0,201.618,202.393Z" transform="translate(-198.8 -195.659)" fill="#2988e6"/>
    </g>
    <g id="组_7614" data-name="组 7614" transform="translate(29.257 30.878)">
      <path id="路径_5739" data-name="路径 5739" d="M3.575,8.6a.5.5,0,0,1-.5-.5V4.84A2.441,2.441,0,0,1,5.516,2.4H8.779a.5.5,0,0,1,0,.992H5.516A1.448,1.448,0,0,0,4.069,4.842V8.1a.493.493,0,0,1-.494.494Zm14.873,0a.5.5,0,0,1-.5-.5V4.84a1.448,1.448,0,0,0-1.446-1.446H13.243a.5.5,0,0,1,0-.992h3.263a2.441,2.441,0,0,1,2.437,2.437V8.1A.5.5,0,0,1,18.448,8.6Zm-1.943,9.668H13.243a.5.5,0,0,1,0-.992h3.263a1.448,1.448,0,0,0,1.446-1.446V12.565a.5.5,0,0,1,.992,0v3.263A2.443,2.443,0,0,1,16.505,18.267Zm-7.725,0H5.516A2.441,2.441,0,0,1,3.079,15.83V12.565a.5.5,0,0,1,.992,0v3.263a1.448,1.448,0,0,0,1.446,1.446H8.78a.5.5,0,1,1,0,.992Zm0,0" transform="translate(-3.079 -2.401)" fill="#2988e6"/>
      <path id="路径_5740" data-name="路径 5740" d="M49.36,481.487H35.48a.5.5,0,1,1,0-.992H49.36a.5.5,0,1,1,0,.992Zm0,0" transform="translate(-34.487 -473.059)" fill="#2988e6"/>
    </g>
  </g>
</svg>
