<svg xmlns="http://www.w3.org/2000/svg" width="30" height="30" viewBox="0 0 30 30">
  <g id="组_13586" data-name="组 13586" transform="translate(-30 -291)">
    <g id="组_10792" data-name="组 10792" transform="translate(0 -2)">
      <path id="路径_38" data-name="路径 38" d="M142.447,90.951v8.026a1.605,1.605,0,0,1-1.605,1.605H129.605A1.605,1.605,0,0,1,128,98.977V90.951Zm-5.121,1.817-.07.072-2.783,3.293-1.05-1.22-.071-.072a.8.8,0,0,0-1.207,1.04l.061.08,1.665,1.933.068.07a.8.8,0,0,0,1.081,0l.072-.076,3.389-4.011.06-.08a.8.8,0,0,0-1.217-1.028Zm1.91-7.435a.8.8,0,0,1,.8.8v.8h.8a1.605,1.605,0,0,1,1.605,1.605v1.2H128v-1.2a1.605,1.605,0,0,1,1.605-1.605h.8v-.8a.8.8,0,1,1,1.605,0v.8h6.421v-.8A.8.8,0,0,1,139.236,85.333Z" transform="translate(-90 214.442)" fill="#30b354"/>
      <g id="组_13582" data-name="组 13582">
        <g id="组_13556" data-name="组 13556">
          <g id="组件_20_1" data-name="组件 20 – 1" transform="translate(30 293)">
            <g id="组_13584" data-name="组 13584">
              <g id="组_13559" data-name="组 13559">
                <g id="组_13560" data-name="组 13560">
                  <path id="路径_13249" data-name="路径 13249" d="M4,0H26a4,4,0,0,1,4,4V26a4,4,0,0,1-4,4H4a4,4,0,0,1-4-4V4A4,4,0,0,1,4,0Z" fill="#2988e6" opacity="0.063"/>
                </g>
              </g>
            </g>
          </g>
        </g>
      </g>
    </g>
  </g>
</svg>
