<svg xmlns="http://www.w3.org/2000/svg" width="28" height="25.914" viewBox="0 0 28 25.914">
  <g id="组_9854" data-name="组 9854" transform="translate(-218 -14.184)">
    <g id="编组" transform="translate(232.418 26.515)">
      <path id="形状" d="M6.791,0a6.791,6.791,0,1,0,6.791,6.791A6.791,6.791,0,0,0,6.791,0ZM9.508,8.149H6.791a.679.679,0,0,1-.679-.679h0V3.4a.679.679,0,1,1,1.358,0v3.4H9.508a.679.679,0,1,1,0,1.358Z" transform="translate(0 0)" fill="#fff"/>
    </g>
    <g id="组_10999" data-name="组 10999">
      <path id="路径" d="M1.54,10.456v9.865A2.879,2.879,0,0,0,4.32,23.135l.174,0h8.554a.705.705,0,1,1,0,1.409H3.939A3.852,3.852,0,0,1,0,20.791V5.758A3.852,3.852,0,0,1,3.939,2H20.679a3.852,3.852,0,0,1,3.939,3.758v4.7Z" transform="translate(218 13.955)" fill="#fff" fill-rule="evenodd"/>
      <line id="直线-2" y2="1.542" transform="translate(224.316 15.184)" fill="none" stroke="#fff" stroke-linecap="round" stroke-width="2"/>
      <line id="直线-2备份" y2="1.542" transform="translate(236.58 15.184)" fill="none" stroke="#fff" stroke-linecap="round" stroke-width="2"/>
    </g>
    <line id="直线" x2="4.244" transform="translate(223.615 27.797)" fill="none" stroke="#fff" stroke-linecap="round" stroke-width="1.6"/>
    <line id="直线备份" x2="4.244" transform="translate(223.615 33.205)" fill="none" stroke="#fff" stroke-linecap="round" stroke-width="1.6"/>
  </g>
</svg>
