<svg xmlns="http://www.w3.org/2000/svg" width="17" height="17" viewBox="0 0 17 17">
  <g id="组_7045" data-name="组 7045" transform="translate(-29 -826)">
    <g id="组件_11_4" data-name="组件 11 – 4" transform="translate(29 826)">
      <g id="矩形_19659" data-name="矩形 19659" fill="#fff" stroke="#707070" stroke-width="1">
        <rect width="17" height="17" rx="3" stroke="none"/>
        <rect x="0.5" y="0.5" width="16" height="16" rx="2.5" fill="none"/>
      </g>
      <path id="Icon_ionic-ios-checkmark" data-name="Icon ionic-ios-checkmark" d="M21.63,13.235l-.92-.965a.2.2,0,0,0-.146-.064h0a.188.188,0,0,0-.146.064l-6.377,6.554L11.72,16.456a.2.2,0,0,0-.293,0l-.93.949a.216.216,0,0,0,0,.3L13.424,20.7a.918.918,0,0,0,.612.3.963.963,0,0,0,.606-.293h.005l6.988-7.167A.231.231,0,0,0,21.63,13.235Z" transform="translate(-7.434 -8.104)" fill="#5ab65c"/>
    </g>
  </g>
</svg>
