<svg xmlns="http://www.w3.org/2000/svg" width="14.404" height="14.705" viewBox="0 0 14.404 14.705">
  <path id="路径_9630" data-name="路径 9630" d="M87.613,65.121a.485.485,0,0,0-.537-.037l-.348.2-.952.55-1.4.812-1.717.994-1.875,1.084-1.892,1.094-1.764,1.021-1.491.863-1.076.623c-.169.1-.34.194-.508.294l-.022.013a.488.488,0,0,0,0,.834l1.094.692,1.736,1.1.4.253a.487.487,0,0,0,.661-.173.493.493,0,0,0-.173-.661l-1.094-.692L75.2,73.067l.611-.353,1.4-.811,1.718-.994,1.875-1.084L82.7,68.73l1.764-1.021.826-.478-.837,1.023-1.468,1.794L81.5,71.866l-1.327,1.622L79.184,74.7l-.47.575a.584.584,0,0,0-.158.363c0,.052,0,.1,0,.156v3.031a.486.486,0,0,0,.825.342l.8-.8,1.276-1.276.081-.081,1.069.371,2.113.734.485.168a.485.485,0,0,0,.594-.337l.053-.329q.072-.447.144-.895L86.21,75.4l.261-1.616.286-1.771q.144-.894.288-1.787l.268-1.669.228-1.41q.082-.509.164-1.017c.026-.16.052-.32.077-.478l0-.021A.5.5,0,0,0,87.613,65.121Zm-1.17,2.8-.261,1.616L85.9,71.308q-.144.894-.288,1.787l-.269,1.667-.227,1.409-.162,1-.815-.283-2.113-.734-.485-.168a.478.478,0,0,0-.47.124l-.8.8-.746.747V75.805l.08-.1.6-.733.891-1.089,1.082-1.324,1.19-1.456,1.2-1.47,1.117-1.364L86.56,67.2Q86.5,67.561,86.443,67.921Z" transform="translate(-73.592 -64.809)" fill="#2988e6" stroke="#2988e6" stroke-width="0.4"/>
</svg>
