<?xml version="1.0" encoding="utf-8"?>
<!-- Generator: Adobe Illustrator 25.3.1, SVG Export Plug-In . SVG Version: 6.00 Build 0)  -->
<svg version="1.1" id="Layer_1" xmlns="http://www.w3.org/2000/svg" xmlns:xlink="http://www.w3.org/1999/xlink" x="0px" y="0px"
	 viewBox="0 0 40 40" style="enable-background:new 0 0 40 40;" xml:space="preserve">
<style type="text/css">
	.st0{fill:#2988E6;}
	.st1{fill:#FFFFFF;}
	.st2{fill:none;stroke:#FFFFFF;stroke-width:1.5;stroke-miterlimit:10;}
</style>
<g id="Group_6685" transform="translate(-56 -471)">
	<path id="Rectangle_6283" class="st0" d="M62,471h28c3.3,0,6,2.7,6,6v28c0,3.3-2.7,6-6,6H62c-3.3,0-6-2.7-6-6v-28
		C56,473.7,58.7,471,62,471z"/>
</g>
<rect x="13.1" y="14.1" class="st1" width="6.1" height="1.5"/>
<rect x="15.4" y="11.7" class="st1" width="1.5" height="6.1"/>
<path class="st2" d="M9.3,31.5h21.3V18.6c0,0-0.2-1.5-1.5-1.5s-5.9,0-5.9,0l-0.1-7c0,0-0.2-1.5-1.6-1.5s-10.7,0-10.7,0
	s-1.5,0.1-1.5,1.5C9.3,11.5,9.3,31.5,9.3,31.5z"/>
<path d="M-6.1,29"/>
<rect x="22.4" y="17.8" class="st1" width="1.4" height="13.1"/>
<rect x="26.2" y="20.1" class="st1" width="1.5" height="1.5"/>
<rect x="26.2" y="24" class="st1" width="1.5" height="1.5"/>
<rect x="26.2" y="27.8" class="st1" width="1.5" height="3.2"/>
<rect x="13.1" y="20.1" class="st1" width="6.1" height="1.6"/>
<rect x="13.1" y="24" class="st1" width="6.1" height="1.5"/>
<rect x="13.1" y="27.8" class="st1" width="6.1" height="3.3"/>
</svg>
