<svg xmlns="http://www.w3.org/2000/svg" width="12.16" height="17.213" viewBox="0 0 12.16 17.213">
  <path id="Icon_awesome-file-invoice-dollar" data-name="Icon awesome-file-invoice-dollar" d="M11.939,3.53,8.838.235A.738.738,0,0,0,8.3,0H8.107V4.3H12.16V4.1A.83.83,0,0,0,11.939,3.53ZM7.094,4.572V0H.76A.783.783,0,0,0,0,.807v15.6a.783.783,0,0,0,.76.807H11.4a.783.783,0,0,0,.76-.807V5.379H7.854A.787.787,0,0,1,7.094,4.572ZM2.027,2.421a.261.261,0,0,1,.253-.269H4.813a.261.261,0,0,1,.253.269v.538a.261.261,0,0,1-.253.269H2.28a.261.261,0,0,1-.253-.269Zm0,2.69V4.572A.261.261,0,0,1,2.28,4.3H4.813a.261.261,0,0,1,.253.269V5.11a.261.261,0,0,1-.253.269H2.28A.261.261,0,0,1,2.027,5.11Zm4.56,8.871v.811a.261.261,0,0,1-.253.269H5.827a.261.261,0,0,1-.253-.269v-.817a1.749,1.749,0,0,1-.993-.382.28.28,0,0,1-.018-.408l.372-.377a.248.248,0,0,1,.321-.025.73.73,0,0,0,.406.125h.89a.414.414,0,0,0,.374-.443.438.438,0,0,0-.278-.428l-1.425-.454a1.515,1.515,0,0,1-1-1.459A1.461,1.461,0,0,1,5.573,8.61V7.8a.261.261,0,0,1,.253-.269h.507a.261.261,0,0,1,.253.269v.817A1.747,1.747,0,0,1,7.58,9a.28.28,0,0,1,.018.408l-.372.377a.248.248,0,0,1-.321.025A.728.728,0,0,0,6.5,9.682h-.89a.414.414,0,0,0-.374.443.438.438,0,0,0,.278.428l1.425.454a1.515,1.515,0,0,1,1,1.459A1.461,1.461,0,0,1,6.587,13.981Z" fill="#fece55"/>
</svg>
