<svg xmlns="http://www.w3.org/2000/svg" width="30" height="30" viewBox="0 0 30 30">
  <g id="组_13669" data-name="组 13669" transform="translate(-30 -347)">
    <g id="组_13560" data-name="组 13560">
      <g id="组_13667" data-name="组 13667">
        <g id="组_13665" data-name="组 13665">
          <g id="组_13658" data-name="组 13658">
            <g id="组_13664" data-name="组 13664">
              <g id="组_13663" data-name="组 13663">
                <g id="组_13660" data-name="组 13660">
                  <g id="组_13659" data-name="组 13659">
                    <g id="组_13661" data-name="组 13661">
                      <rect id="矩形_21" data-name="矩形 21" width="30" height="30" rx="4" transform="translate(30 347)" fill="#2988e6" opacity="0.063"/>
                    </g>
                  </g>
                </g>
              </g>
            </g>
          </g>
        </g>
      </g>
      <g id="组_13668" data-name="组 13668">
        <g id="组_13666" data-name="组 13666">
          <g id="组_13662" data-name="组 13662">
            <path id="Icon_awesome-file-invoice-dollar" data-name="Icon awesome-file-invoice-dollar" d="M12.759,3.281,9.446.219A.847.847,0,0,0,8.871,0H8.664V4H13V3.809A.72.72,0,0,0,12.759,3.281ZM7.581,4.25V0H.812A.781.781,0,0,0,0,.75v14.5A.781.781,0,0,0,.812,16H12.184A.781.781,0,0,0,13,15.25V5h-4.6A.785.785,0,0,1,7.581,4.25Zm-5.415-2A.261.261,0,0,1,2.437,2H5.144a.261.261,0,0,1,.271.25v.5A.261.261,0,0,1,5.144,3H2.437a.261.261,0,0,1-.271-.25Zm0,2.5v-.5A.261.261,0,0,1,2.437,4H5.144a.261.261,0,0,1,.271.25v.5A.261.261,0,0,1,5.144,5H2.437A.261.261,0,0,1,2.166,4.75ZM7.04,13v.754a.261.261,0,0,1-.271.25H6.227a.261.261,0,0,1-.271-.25v-.759a2.04,2.04,0,0,1-1.062-.355.238.238,0,0,1-.019-.379l.4-.35a.3.3,0,0,1,.343-.023A.865.865,0,0,0,6.05,12H7a.407.407,0,0,0,.4-.412.411.411,0,0,0-.3-.4l-1.523-.422A1.431,1.431,0,0,1,4.512,9.412,1.446,1.446,0,0,1,5.956,8V7.25A.261.261,0,0,1,6.227,7h.542a.261.261,0,0,1,.271.25v.759A2.037,2.037,0,0,1,8.1,8.364a.238.238,0,0,1,.019.379l-.4.35a.3.3,0,0,1-.343.023A.862.862,0,0,0,6.946,9H5.995a.407.407,0,0,0-.4.412.411.411,0,0,0,.3.4l1.523.422a1.431,1.431,0,0,1,1.069,1.356A1.446,1.446,0,0,1,7.04,13Z" transform="translate(38.5 354)" fill="#2988e6"/>
          </g>
        </g>
      </g>
    </g>
  </g>
</svg>
