<svg xmlns="http://www.w3.org/2000/svg" width="77" height="30" viewBox="0 0 77 30">
  <g id="trash" transform="translate(-31 -688)">
    <text id="Trash-2" data-name="Trash" transform="translate(60 708)" fill="#ff3200" font-size="12" font-family="Poppins-Regular, Poppins"><tspan x="0" y="0">Trash</tspan></text>
    <g id="矩形_18155" data-name="矩形 18155" transform="translate(31 688)" fill="none" stroke="#ff3200" stroke-width="1">
      <rect width="77" height="30" rx="15" stroke="none"/>
      <rect x="0.5" y="0.5" width="76" height="29" rx="14.5" fill="none"/>
    </g>
    <path id="路径_5671" data-name="路径 5671" d="M66.14,74.382a.751.751,0,0,0,.749.752h5.4a.751.751,0,0,0,.748-.752V66.4h-6.9Zm5.4-9.331a.152.152,0,0,0-.154-.155h-3.6a.149.149,0,0,0-.109.044.157.157,0,0,0-.045.111V65.5h3.909Zm-4.8.453v-.453A1.052,1.052,0,0,1,67.783,64h3.6a1.052,1.052,0,0,1,1.048,1.051V65.5h2.314a.453.453,0,0,1,0,.906h-.807v7.973a1.655,1.655,0,0,1-1.651,1.658h-5.4a1.654,1.654,0,0,1-1.651-1.658V66.4h-.786a.44.44,0,0,1-.318-.13A.463.463,0,0,1,64,65.947a.443.443,0,0,1,.452-.443h2.284Zm2.853,8.271a.44.44,0,0,1-.318-.13.463.463,0,0,1-.134-.323V68.5a.451.451,0,1,1,.9,0v4.82A.451.451,0,0,1,69.588,73.775Zm2.1,0a.44.44,0,0,1-.317-.131.463.463,0,0,1-.134-.323V68.5a.451.451,0,1,1,.9,0v4.82A.464.464,0,0,1,71.691,73.775Zm-4.207,0a.44.44,0,0,1-.317-.131.463.463,0,0,1-.134-.323V68.5a.451.451,0,1,1,.9,0v4.82A.451.451,0,0,1,67.484,73.775Z" transform="translate(-19.594 633.587)" fill="#ff3200"/>
  </g>
</svg>
