<svg xmlns="http://www.w3.org/2000/svg" width="13.3" height="13.3" viewBox="0 0 13.3 13.3">
  <g id="组_10724" data-name="组 10724" transform="translate(-63.85 -63.85)">
    <path id="路径_12960" data-name="路径 12960" d="M70.515,64h-.029A6.486,6.486,0,0,0,64,70.485v.029A6.486,6.486,0,0,0,70.486,77h.029A6.485,6.485,0,0,0,77,70.515v-.029A6.485,6.485,0,0,0,70.515,64Zm6.118,6.515a6.126,6.126,0,0,1-6.119,6.119h-.029a6.126,6.126,0,0,1-6.119-6.119v-.029a6.126,6.126,0,0,1,6.119-6.119h.029a6.126,6.126,0,0,1,6.119,6.119Z" transform="translate(0 0)" fill="#e24445" stroke="#e24445" stroke-width="0.3"/>
    <path id="路径_12961" data-name="路径 12961" d="M259.139,254.068a.139.139,0,0,0-.139.139v3.956a.828.828,0,0,1-.827.827h-5.42a.828.828,0,0,1-.827-.827v-.507a.139.139,0,1,0-.278,0v.507a1.106,1.106,0,0,0,1.1,1.1h5.42a1.106,1.106,0,0,0,1.105-1.1v-3.956A.139.139,0,0,0,259.139,254.068Zm-.966-2.431h-5.42a1.106,1.106,0,0,0-1.1,1.1v4.171a.139.139,0,1,0,.278,0v-4.171a.828.828,0,0,1,.827-.827h5.42a.828.828,0,0,1,.827.827v.537a.139.139,0,0,0,.278,0v-.537A1.106,1.106,0,0,0,258.173,251.637Z" transform="translate(-184.963 -184.953)" fill="#e24445" stroke="#e24445" stroke-width="0.3"/>
    <path id="路径_12962" data-name="路径 12962" d="M612.623,559.8l-.107-.043-.063-.024a.136.136,0,0,0-.1.254l.061.023.1.04.093.04a.136.136,0,1,0,.112-.247Z" transform="translate(-540.309 -488.531)" fill="#e24445" stroke="#e24445" stroke-width="0.3"/>
    <path id="路径_12963" data-name="路径 12963" d="M327.411,334.186l.346.725a.481.481,0,0,0,.559.257c.069-.018.139-.036.213-.052l.134-.028.119-.022.1-.017.11-.016.05-.007.191-.022a7.521,7.521,0,0,1,.77-.039,6.667,6.667,0,0,1,1.69.2.48.48,0,0,0,.559-.257l.346-.725a.481.481,0,0,0-.17-.61l-.12-.074a.136.136,0,0,0-.139.233c.038.023.075.046.112.07a.209.209,0,0,1,.073.265l-.346.725a.21.21,0,0,1-.244.111,6.938,6.938,0,0,0-1.76-.212c-.223,0-.444.012-.66.03a.134.134,0,0,0,0-.1l-.252-.732a.136.136,0,0,0-.257.088l.252.732a.14.14,0,0,0,.016.03l-.1.012-.058.008-.109.016-.108.018-.124.023-.141.029c-.077.017-.151.035-.224.055a.209.209,0,0,1-.244-.111l-.346-.725a.209.209,0,0,1,.073-.266,4.236,4.236,0,0,1,2.277-.641,4.5,4.5,0,0,1,1.09.133.136.136,0,1,0,.066-.263,4.766,4.766,0,0,0-1.156-.141,4.508,4.508,0,0,0-2.424.685A.481.481,0,0,0,327.411,334.186Zm1.338-4.145v0a1.036,1.036,0,0,0-.64-.151c-.059,0-.2,0-.311.009a.172.172,0,0,0-.166.172v1.82a.172.172,0,0,0,.167.172c.16,0,.386.011.448.011a1.087,1.087,0,0,0,.483-.083.63.63,0,0,0,.3-.563.6.6,0,0,0-.246-.511.591.591,0,0,0,.181-.437A.55.55,0,0,0,328.75,330.041Zm-.907.074c.1-.009.188-.012.268-.012a.9.9,0,0,1,.517.108.337.337,0,0,1,.126.274.322.322,0,0,1-.258.345h-.652v-.714Zm.975,1.316a.453.453,0,0,1-.185.375.942.942,0,0,1-.384.062c-.1,0-.2-.006-.308-.012l-.1,0v-.815h.646A.382.382,0,0,1,328.818,331.431Zm2.374.609a.1.1,0,0,0,.1-.1v-1s0,0,0-.007l0-.91v-.029a.118.118,0,0,0-.216-.056h0l-.665,1.029-.661-1.03h0a.12.12,0,0,0-.1-.05.121.121,0,0,0-.121.12v0l.005,1.7v.226a.1.1,0,0,0,.209,0V331.8h0c0-.578-.006-.917-.006-1.495l.594.919h.157l.594-.916,0,1.492v.132A.1.1,0,0,0,331.192,332.039Zm.824.009a.1.1,0,0,0,.1-.1v-1.963a.1.1,0,0,0-.209,0v1.963A.1.1,0,0,0,332.016,332.049Z" transform="translate(-259.506 -261.982)" fill="#e24445" stroke="#e24445" stroke-width="0.3"/>
  </g>
</svg>
