<svg xmlns="http://www.w3.org/2000/svg" width="19.162" height="19.162" viewBox="0 0 19.162 19.162">
  <path id="路径_8459" data-name="路径 8459" d="M9.381,0A9.381,9.381,0,1,1,0,9.381,9.381,9.381,0,0,1,9.381,0Zm0,1.173a8.208,8.208,0,1,0,8.208,8.208A8.208,8.208,0,0,0,9.381,1.173Zm0,11.726a.879.879,0,1,1-.879.879A.879.879,0,0,1,9.381,12.9Zm0-7.622a1.079,1.079,0,0,1,1.075,1.169l-.444,5.33a.586.586,0,0,1-.584.537H9.334a.586.586,0,0,1-.584-.537l-.444-5.33A1.079,1.079,0,0,1,9.381,5.277Z" transform="translate(0.2 0.2)" fill="#e24445" stroke="#e24445" stroke-width="0.4"/>
</svg>
