<svg id="Layer_1" data-name="Layer 1" xmlns="http://www.w3.org/2000/svg" viewBox="0 0 901.77 840.32"><defs><style>.cls-1{fill:#fff;}</style></defs><g id="Group_3381" data-name="Group 3381"><path id="Path_812" data-name="Path 812" class="cls-1" d="M661.66,499.64s.52,53.36,6.25,78.59c3.64,16,5.8,37.94,22,46.47a30.59,30.59,0,0,0,28.67-.25c6.83-3.78,12-10.09,18.7-14.05s16.69-4.7,21.25,1.63,1.06,14.9-3.17,21.24a90.76,90.76,0,0,1-126,24.58c-1.68-1.14-3.32-2.32-4.92-3.56-29.7-23-42.18-61.94-47.53-99.14-12.26-84.5,3.63-170.76-4-255.79-1.41-15.74-3.72-31.69-10.77-45.86-1.76-3.56-3.92-7.08-7.21-9.31-8.87-6-22.3-.59-30.92-7-8.09-6-6.49-19.52.66-26.63s17.69-9.39,27.65-10.94c19.38-3,40.36-4.23,57.51,5.28,16.74,9.28,26.79,27.21,33.49,45.12,13.73,36.92,16.76,76.67,17.49,115.74.76,40.41,1.52,80.74.4,121.21"/><path id="Path_813" data-name="Path 813" class="cls-1" d="M344,758S307.79,738.91,303.1,705s-11.7-76.51,25.35-179.56c0,0,41.76-1.18,96.79,7.39s78.85,18,92.12,19.9,18.93-.19,22.84-3.9,1.36-10.56-8.2-18.74-56-35.13-184-52.69c0,0,39.42-87,78.06-135.83s78.45-95.62,112.79-99.92c0,0-15.61-4.29-18.72-15.61s13.65-21.46,13.65-21.46S499.4,211.93,435,281.42,318.33,444.61,305.06,472.33c0,0-53.47-12.11-111.24,15.61-45.27,22.25-49.18,42.94-52.69,55,0,0,96-21.85,139.34-16.39-1.32-.17-8.45,20.07-9.25,22.06-4.87,12.62-9.58,25.28-13.86,38.1-8.51,25.54-15.4,51.76-18.45,78.54-2.65,23.23-2.22,47.66,8.05,68.65C265.74,772.31,309.09,777,344,758Z"/><circle id="Ellipse_444" data-name="Ellipse 444" class="cls-1" cx="584.79" cy="120.19" r="48.72"/></g></svg>