<svg xmlns="http://www.w3.org/2000/svg" width="24.372" height="24.372" viewBox="0 0 24.372 24.372">
  <path id="路径_5687" data-name="路径 5687" d="M16.778,50.194a4.951,4.951,0,0,0-3.829-1.418A6,6,0,0,0,9.087,50.52l-.037.037L1.1,58.5a3.776,3.776,0,1,0,5.337,5.343l7.887-7.825a.006.006,0,0,1,.006-.006l.02-.018a2.4,2.4,0,0,0,.792-1.725,2.158,2.158,0,0,0-.7-1.487,2.134,2.134,0,0,0-1.528-.7,2.29,2.29,0,0,0-1.645.689L5.758,58.193a.767.767,0,0,0,1.074,1.094l5.52-5.433.006-.006a.759.759,0,0,1,.533-.239.632.632,0,0,1,.442.215l.02.024a.79.79,0,0,1,.257.449.992.992,0,0,1-.363.62L5.359,62.751A2.238,2.238,0,0,1,2.19,59.59l7.945-7.948a4.432,4.432,0,0,1,2.9-1.332,3.454,3.454,0,0,1,2.666.969l.078.081a3.421,3.421,0,0,1,.97,2.666,4.435,4.435,0,0,1-1.332,2.9l-5.331,5.354a.767.767,0,1,0,1.086,1.082L16.5,58.005a5.5,5.5,0,0,0,.357-7.732l-.081-.079Z" transform="translate(45.929 -34.483) rotate(45)" fill="#4c5264"/>
</svg>
