<svg xmlns="http://www.w3.org/2000/svg" width="18.616" height="15.225" viewBox="0 0 18.616 15.225">
  <path id="Icon_ionic-ios-checkmark" data-name="Icon ionic-ios-checkmark" d="M27.879,13.871,26.446,12.31a.3.3,0,0,0-.228-.1h0a.288.288,0,0,0-.228.1l-9.936,10.6-3.616-3.83a.3.3,0,0,0-.456,0l-1.45,1.535a.358.358,0,0,0,0,.492l4.561,4.831a1.411,1.411,0,0,0,.953.492,1.482,1.482,0,0,0,.945-.474H17L27.887,14.363A.385.385,0,0,0,27.879,13.871Z" transform="translate(-9.891 -11.706)" fill="#0063a8" stroke="#0063a8" stroke-width="1"/>
</svg>
