<svg xmlns="http://www.w3.org/2000/svg" width="19.2" height="21" viewBox="0 0 19.2 21">
  <path id="排除_9" data-name="排除 9" d="M17.373,21H1.827A1.712,1.712,0,0,1,0,19.439V1.561A1.712,1.712,0,0,1,1.827,0H17.373A1.712,1.712,0,0,1,19.2,1.561V19.439A1.712,1.712,0,0,1,17.373,21Zm-2.958-9.566a3.289,3.289,0,0,0-2.349.978,3.35,3.35,0,0,0,0,4.727,3.3,3.3,0,0,0,2.351.978h.012a3.342,3.342,0,0,0-.008-6.684ZM3.875,16.225a.764.764,0,0,0,0,1.528H7.986a.763.763,0,0,0,.761-.764.754.754,0,0,0-.761-.764Zm0-4.7a.764.764,0,0,0,0,1.527H7.986a.763.763,0,0,0,.761-.764.754.754,0,0,0-.761-.763Zm0-4.69a.764.764,0,0,0,0,1.527H15.9a.764.764,0,0,0,.761-.764A.754.754,0,0,0,15.9,6.83Zm0-4.69a.764.764,0,0,0,0,1.528H15.9a.764.764,0,0,0,.761-.764A.755.755,0,0,0,15.9,2.14Zm10.546,14.9a.257.257,0,0,1-.257-.257V16.4l-.039-.009a1.3,1.3,0,0,1-.4-.171A1.145,1.145,0,0,1,13.46,16a.257.257,0,1,1,.387-.338.713.713,0,0,0,.147.117.8.8,0,0,0,.427.126.588.588,0,0,0,.436-.17.268.268,0,0,0,.076-.208c-.017-.161-.152-.277-.579-.5l-.1-.05a2.532,2.532,0,0,1-.634-.416.8.8,0,0,1-.046-1.055,1.033,1.033,0,0,1,.552-.341l.038-.01v-.386a.257.257,0,0,1,.514,0v.384l.039.009a1.337,1.337,0,0,1,.4.171,1.21,1.21,0,0,1,.262.214.259.259,0,0,1-.025.363A.256.256,0,0,1,15,13.888a.725.725,0,0,0-.147-.116.79.79,0,0,0-.427-.127.586.586,0,0,0-.436.17.272.272,0,0,0-.077.207c.018.161.153.278.58.5l.1.051a2.512,2.512,0,0,1,.634.416.8.8,0,0,1,.046,1.056,1.045,1.045,0,0,1-.552.341l-.038.009v.387A.257.257,0,0,1,14.422,17.038Z" fill="#fff"/>
</svg>
