<svg xmlns="http://www.w3.org/2000/svg" xmlns:xlink="http://www.w3.org/1999/xlink" width="250" height="150" viewBox="0 0 250 150"><defs><linearGradient id="a" x1="0.5" x2="0.5" y2="1" gradientUnits="objectBoundingBox"><stop offset="0" stop-color="#fff"/><stop offset="0.606" stop-color="#5ca4ed"/><stop offset="1" stop-color="#2988e7"/></linearGradient></defs><g transform="translate(-703 -781)"><g transform="translate(703 781)"><rect width="250" height="150" fill="#fff"/><path d="M0,0H5V1H0ZM10,0h5V1H10ZM20,0h5V1H20ZM30,0h5V1H30ZM40,0h5V1H40ZM50,0h5V1H50ZM60,0h5V1H60ZM70,0h5V1H70ZM80,0h5V1H80ZM90,0h5V1H90Zm10,0h5V1h-5Zm10,0h5V1h-5Zm10,0h5V1h-5Zm10,0h5V1h-5Zm10,0h5V1h-5Zm10,0h5V1h-5Zm10,0h5V1h-5Zm10,0h5V1h-5Zm10,0h5V1h-5Zm10,0h5V1h-5Zm10,0h5V1h-5Zm10,0h5V1h-5Zm10,0h5V1h-5Zm10,0h5V1h-5Zm10,0h5V1h-5Zm9,0h1V5h-1Zm0,10h1v5h-1Zm0,10h1v5h-1Zm0,10h1v5h-1Zm0,10h1v5h-1Zm0,10h1v5h-1Zm0,10h1v5h-1Zm0,10h1v5h-1Zm0,10h1v5h-1Zm0,10h1v5h-1Zm0,10h1v5h-1Zm0,10h1v5h-1Zm0,10h1v5h-1Zm0,10h1v5h-1Zm0,10h1v5h-1Zm-4,9h5v1h-5Zm-10,0h5v1h-5Zm-10,0h5v1h-5Zm-10,0h5v1h-5Zm-10,0h5v1h-5Zm-10,0h5v1h-5Zm-10,0h5v1h-5Zm-10,0h5v1h-5Zm-10,0h5v1h-5Zm-10,0h5v1h-5Zm-10,0h5v1h-5Zm-10,0h5v1h-5Zm-10,0h5v1h-5Zm-10,0h5v1h-5Zm-10,0h5v1h-5Zm-10,0h5v1H95Zm-10,0h5v1H85Zm-10,0h5v1H75Zm-10,0h5v1H65Zm-10,0h5v1H55Zm-10,0h5v1H45Zm-10,0h5v1H35Zm-10,0h5v1H25Zm-10,0h5v1H15ZM5,149h5v1H5Zm-5-4H1v5H0Zm0-10H1v5H0Zm0-10H1v5H0Zm0-10H1v5H0Zm0-10H1v5H0ZM0,95H1v5H0ZM0,85H1v5H0ZM0,75H1v5H0ZM0,65H1v5H0ZM0,55H1v5H0ZM0,45H1v5H0ZM0,35H1v5H0ZM0,25H1v5H0ZM0,15H1v5H0ZM0,5H1v5H0Z" fill="#dededf"/></g><text transform="translate(748.016 897.19)" fill="#aaa" font-size="16" font-family="Poppins-Regular, Poppins"><tspan x="0" y="0">Click here to upload</tspan></text><path d="M66.619,21.628S66.074,3.956,51.476.444,29.847,12.1,29.7,12.534s-.859.233-.859.233a10.567,10.567,0,0,0-11.717-.385,8.132,8.132,0,0,0-3.446,9.311s-8-.638-12.11,11.553S11.86,48.917,11.86,48.917H36.006V35.935H30.424V35.9a.5.5,0,0,1-.5-.5.475.475,0,0,1,.221-.409L40.037,24.73a.749.749,0,0,1,.561-.258.761.761,0,0,1,.581.282L51,34.937a.283.283,0,0,1,.053.045l.094.1h-.033a.524.524,0,0,1,.082.27.561.561,0,0,1-.565.557H45.288v13.01H67.2A15.5,15.5,0,0,0,78.573,35.694C79.5,25.049,66.619,21.628,66.619,21.628Z" transform="translate(788.185 817.479)" fill="url(#a)"/></g></svg>