<svg xmlns="http://www.w3.org/2000/svg" width="13.87" height="16.885" viewBox="0 0 13.87 16.885">
  <path id="路径_8392" data-name="路径 8392" d="M100.715,0H93.238a1.814,1.814,0,0,0-1.809,1.809V15.076a1.814,1.814,0,0,0,1.809,1.809h10.251a1.814,1.814,0,0,0,1.809-1.809V4.583Zm.06,1.749,2.774,2.774h-2.171a.6.6,0,0,1-.6-.6V1.749Zm2.714,13.93H93.238a.6.6,0,0,1-.6-.6V1.809a.6.6,0,0,1,.6-.6h6.332V3.92a1.814,1.814,0,0,0,1.809,1.809h2.714v9.347A.6.6,0,0,1,103.489,15.679Z" transform="translate(-91.429)" fill="#a0a0a0"/>
</svg>
