<svg xmlns="http://www.w3.org/2000/svg" width="18.74" height="18.802" viewBox="0 0 18.74 18.802">
  <g id="组_8666" data-name="组 8666" transform="translate(-65.513 -64.037)">
    <path id="路径_8387" data-name="路径 8387" d="M79.153,282.01a.812.812,0,0,0-.813.813v.636a.7.7,0,0,1-.7.7h-9.8a.7.7,0,0,1-.7-.7v-9.8a.7.7,0,0,1,.7-.7H68.4a.813.813,0,1,0,0-1.625h-.564a2.327,2.327,0,0,0-2.325,2.325v9.8a2.328,2.328,0,0,0,2.325,2.325h9.8a2.327,2.327,0,0,0,2.325-2.325v-.636A.812.812,0,0,0,79.153,282.01Z" transform="translate(0 -202.944)" fill="#004779"/>
    <path id="路径_8388" data-name="路径 8388" d="M281.853,64.037h-9.576a2.441,2.441,0,0,0-2.438,2.438v9.576a2.441,2.441,0,0,0,2.438,2.438h9.576a2.441,2.441,0,0,0,2.438-2.438V66.476A2.441,2.441,0,0,0,281.853,64.037Zm.813,12.014a.813.813,0,0,1-.813.813h-9.576a.814.814,0,0,1-.813-.813V66.476a.814.814,0,0,1,.813-.813h9.576a.814.814,0,0,1,.813.813Z" transform="translate(-200.038)" fill="#004779"/>
  </g>
</svg>
