<svg xmlns="http://www.w3.org/2000/svg" width="20" height="19" viewBox="0 0 20 19">
  <g id="starred-1" fill="#fff">
    <path d="M 14.79761123657227 17.4008960723877 C 14.7489013671875 17.40090751647949 14.70167064666748 17.3879566192627 14.65322113037109 17.36130714416504 L 10.81920051574707 15.25281620025635 C 10.56892108917236 15.1151762008667 10.28564071655273 15.04242706298828 10.00000095367432 15.04242706298828 C 9.714361190795898 15.04242706298828 9.43108081817627 15.1151762008667 9.180801391601562 15.25282669067383 L 5.346770763397217 17.36130714416504 C 5.298330783843994 17.38794708251953 5.251091003417969 17.4008960723877 5.202351093292236 17.4008960723877 C 5.114420890808105 17.4008960723877 5.026330947875977 17.35784721374512 4.966721057891846 17.28572654724121 C 4.909700870513916 17.21673583984375 4.889791011810303 17.13473701477051 4.9075608253479 17.0419864654541 L 5.729691028594971 12.75131702423096 C 5.840070724487305 12.17519664764404 5.650411128997803 11.59182643890381 5.222341060638428 11.19079685211182 L 2.033290863037109 8.203066825866699 C 1.912270903587341 8.089696884155273 1.931080937385559 7.9591965675354 1.953060984611511 7.891496658325195 C 1.975040912628174 7.82379674911499 2.036490917205811 7.707136631011963 2.201030969619751 7.686476707458496 L 6.541131019592285 7.141506671905518 C 7.122430801391602 7.068496704101562 7.618330955505371 6.708426475524902 7.867671012878418 6.178286552429199 L 9.728521347045898 2.221876621246338 C 9.799040794372559 2.071946620941162 9.92888069152832 2.049556732177734 10.00000095367432 2.049556732177734 C 10.07111072540283 2.049556732177734 10.20095062255859 2.071946620941162 10.27147102355957 2.221876621246338 L 12.13233089447021 6.178286552429199 C 12.38165092468262 6.70841646194458 12.87755107879639 7.068496704101562 13.45886135101318 7.141496658325195 L 17.79898071289062 7.686476707458496 C 17.96351051330566 7.707136631011963 18.02496147155762 7.82379674911499 18.04694175720215 7.891496658325195 C 18.06892013549805 7.9591965675354 18.08773040771484 8.089696884155273 17.96671104431152 8.203066825866699 L 14.77765083312988 11.19079685211182 C 14.34958076477051 11.59183692932129 14.15992069244385 12.17521667480469 14.27031135559082 12.75132656097412 L 15.09244060516357 17.0419864654541 C 15.11020088195801 17.13469696044922 15.09029102325439 17.2166862487793 15.0332612991333 17.28568649291992 C 14.97363090515137 17.35782623291016 14.88554096221924 17.4008960723877 14.79761123657227 17.4008960723877 Z" stroke="none"/>
    <path d="M 9.999998092651367 3.289382934570312 L 8.501100540161133 6.476226806640625 C 8.149090766906738 7.22464656829834 7.449001312255859 7.732986450195312 6.628340721130371 7.83604621887207 L 3.133743286132812 8.274849891662598 L 5.700921058654785 10.67995643615723 C 6.305271148681641 11.24613666534424 6.573031425476074 12.06972694396973 6.417190551757812 12.88304710388184 L 5.755223274230957 16.33781623840332 L 8.843470573425293 14.63946723937988 C 9.196830749511719 14.44513702392578 9.59675121307373 14.34241676330566 10.00000095367432 14.34241676330566 C 10.4032506942749 14.34241676330566 10.80317115783691 14.44513702392578 11.1565113067627 14.6394567489624 L 14.24477767944336 16.33781814575195 L 13.58282089233398 12.883056640625 C 13.42697143554688 12.06972694396973 13.69473075866699 11.24613666534424 14.29907035827637 10.67996692657471 L 16.86625099182129 8.274848937988281 L 13.37162113189697 7.83604621887207 C 12.55097103118896 7.732976913452148 11.85088062286377 7.224626541137695 11.49889087677002 6.476216316223145 L 9.999998092651367 3.289382934570312 M 9.999996185302734 1.349559783935547 C 10.36239624023438 1.349559783935547 10.72479629516602 1.541021347045898 10.90490055084229 1.923946380615234 L 12.76576042175293 5.880356788635254 C 12.91160106658936 6.190446853637695 13.20607089996338 6.404256820678711 13.54607105255127 6.446956634521484 L 17.88619041442871 6.991926193237305 C 18.72665023803711 7.097466468811035 19.06345176696777 8.134777069091797 18.4453010559082 8.713906288146973 L 15.25624084472656 11.70163726806641 C 15.00589084625244 11.93617630004883 14.8932409286499 12.28266716003418 14.95780086517334 12.61958694458008 L 15.77993106842041 16.91025733947754 C 15.93924140930176 17.74173736572266 15.05774116516113 18.38263702392578 14.31591033935547 17.97467613220215 L 10.4818811416626 15.86618614196777 C 10.1818208694458 15.7011661529541 9.818181037902832 15.7011661529541 9.518120765686035 15.86618614196777 L 5.684081077575684 17.97467613220215 C 4.942251205444336 18.38263702392578 4.060751914978027 17.74173545837402 4.220070838928223 16.91024589538574 L 5.042201042175293 12.61958694458008 C 5.10676097869873 12.28266716003418 4.994111061096191 11.93617630004883 4.74376106262207 11.70163726806641 L 1.55470085144043 8.713906288146973 C 0.9365501403808594 8.134777069091797 1.273351669311523 7.097466468811035 2.113811492919922 6.991926193237305 L 6.453921318054199 6.446956634521484 C 6.793931007385254 6.404256820678711 7.088391304016113 6.190446853637695 7.234240531921387 5.880356788635254 L 9.095090866088867 1.923946380615234 C 9.275196075439453 1.541021347045898 9.637596130371094 1.349559783935547 9.999996185302734 1.349559783935547 Z" stroke="none" fill="#4c5264"/>
  </g>
</svg>
