<svg xmlns="http://www.w3.org/2000/svg" width="13.075" height="13.076" viewBox="0 0 13.075 13.076">
  <path id="路径_8449" data-name="路径 8449" d="M7.4,13.076a1.306,1.306,0,0,1-.619-.153l-1.684-.939a1.264,1.264,0,0,1-.67-1.125V5.515a.264.264,0,0,0-.1-.2L.426,2.191.384,2.14A1.243,1.243,0,0,1,.138.761,1.247,1.247,0,0,1,1.308,0H11.816a1.293,1.293,0,0,1,1.178.761,1.26,1.26,0,0,1-.229,1.379l-.051.05L8.769,5.346a.27.27,0,0,0-.093.2V11.79a1.268,1.268,0,0,1-1.25,1.287ZM1.094,1.43l3.879,3.1a1.275,1.275,0,0,1,.484,1v5.345a.25.25,0,0,0,.126.228l1.685.921a.287.287,0,0,0,.263,0,.267.267,0,0,0,.127-.228V5.558a1.274,1.274,0,0,1,.473-1L12.019,1.43a.261.261,0,0,0,.025-.27.255.255,0,0,0-.228-.146H1.308a.242.242,0,0,0-.228.145.257.257,0,0,0,.016.27h0ZM12.586,6.741H9.7a.507.507,0,1,1,0-1.015h2.887a.51.51,0,0,1,.51.507.5.5,0,0,1-.509.507Zm0,1.912H9.7a.508.508,0,0,1,0-1.015h2.887a.51.51,0,0,1,.51.506.5.5,0,0,1-.509.509Zm0,1.9H9.7a.507.507,0,1,1,0-1.015h2.887a.51.51,0,0,1,.51.507.5.5,0,0,1-.509.506h0Z" transform="translate(-0.031 0)" fill="#0b4a7e"/>
</svg>
