<svg xmlns="http://www.w3.org/2000/svg" width="30.255" height="29.137" viewBox="0 0 30.255 29.137">
  <path id="folder" d="M28.989,13.112h-1.76V9.582a1.355,1.355,0,0,0-1.378-1.327H24.2V7.083L16.345,0H4.034V4.856H1.378A1.355,1.355,0,0,0,0,6.183V28.147H.029a1.226,1.226,0,0,0,.238.5,1.3,1.3,0,0,0,1.027.489h22.57a1.275,1.275,0,0,0,1.235-.88l5.156-13.616v-.086A1.318,1.318,0,0,0,28.989,13.112Zm-13.358-12a.06.06,0,0,1,.1-.041l7.358,6.6a.057.057,0,0,1-.042.1H15.632ZM8.068,2.428H13.11a.486.486,0,1,1,0,.971H8.068a.486.486,0,1,1,0-.971Zm0,3.4H13.11a.486.486,0,1,1,0,.971H8.068a.486.486,0,1,1,0-.971Zm0,3.4h12.1a.486.486,0,1,1,0,.971H8.068a.486.486,0,1,1,0-.971ZM5.184,13.992,1.008,25.022V6.183a.363.363,0,0,1,.369-.355H4.034v9.227l.84-2.022a.67.67,0,0,1,.622-.406H24.2v-3.4h1.648a.363.363,0,0,1,.369.355v3.529H6.42A1.275,1.275,0,0,0,5.184,13.992Z" fill="#5b88a8"/>
</svg>
