<?xml version="1.0" standalone="no"?><!DOCTYPE svg PUBLIC "-//W3C//DTD SVG 1.1//EN" "http://www.w3.org/Graphics/SVG/1.1/DTD/svg11.dtd"><svg t="1631672280636" class="icon" viewBox="0 0 1024 1024" version="1.1" xmlns="http://www.w3.org/2000/svg" p-id="6781" width="600" height="600" xmlns:xlink="http://www.w3.org/1999/xlink"><defs><style type="text/css"></style></defs><path d="M336.963 409.694a36.987 36.987 0 0 1-55.998 31.735L19.985 284.827a36.987 36.987 0 0 1 0-63.47l260.98-156.601a36.987 36.987 0 0 1 55.998 31.808v100.974l332.881 0.074a351.375 351.375 0 0 1 16.052 702.38l-16.052 0.37H78.055a55.48 55.48 0 0 1-7.545-110.443l7.545-0.518h591.79a240.414 240.414 0 0 0 13.61-480.459l-13.61-0.37H336.962z" p-id="6782" fill="#005795" data-spm-anchor-id="a313x.7781069.0.i3"></path></svg>