<svg xmlns="http://www.w3.org/2000/svg" width="16.024" height="9.722" viewBox="0 0 16.024 9.722">
  <g id="view" transform="translate(-90.04 -255.78)">
    <path id="路径_8435" data-name="路径 8435" d="M98.052,255.78a8.52,8.52,0,0,0-8.012,4.861,9.034,9.034,0,0,0,16.024,0A8.52,8.52,0,0,0,98.052,255.78Zm0,8.507a3.646,3.646,0,1,1,3.646-3.646A3.646,3.646,0,0,1,98.052,264.287Z" transform="translate(0 0)" fill="#c1c1c1"/>
    <path id="路径_8436" data-name="路径 8436" d="M386.43,386.21m-2.43,0a2.43,2.43,0,1,0,2.43-2.43A2.43,2.43,0,0,0,384,386.21Z" transform="translate(-288.378 -125.57)" fill="#c1c1c1"/>
  </g>
</svg>
