<svg xmlns="http://www.w3.org/2000/svg" xmlns:xlink="http://www.w3.org/1999/xlink" width="118" height="118" viewBox="0 0 118 118">
  <defs>
    <filter id="椭圆_621" x="0" y="0" width="118" height="118" filterUnits="userSpaceOnUse">
      <feOffset dy="3" input="SourceAlpha"/>
      <feGaussianBlur stdDeviation="3" result="blur"/>
      <feFlood flood-opacity="0.161"/>
      <feComposite operator="in" in2="blur"/>
      <feComposite in="SourceGraphic"/>
    </filter>
  </defs>
  <g id="组_6621" data-name="组 6621" transform="translate(-670 -246)">
    <g transform="matrix(1, 0, 0, 1, 670, 246)" filter="url(#椭圆_621)">
      <circle id="椭圆_621-2" data-name="椭圆 621" cx="50" cy="50" r="50" transform="translate(9 6)" fill="#d9d9d9"/>
    </g>
    <g id="Icon_ionic-md-images" data-name="Icon ionic-md-images" transform="translate(704.748 278.498)">
      <path id="路径_1302" data-name="路径 1302" d="M44.295,12.017l-8.15-.395L35.67,6.314a2.039,2.039,0,0,0-2.262-1.805L4.175,6.906A2.014,2.014,0,0,0,2.259,9.047L4.353,32.31a2.045,2.045,0,0,0,2.262,1.805L8.1,34,7.86,38.515a2.242,2.242,0,0,0,2.213,2.318l32.611,1.549a2.265,2.265,0,0,0,2.45-2.091l1.373-25.975A2.232,2.232,0,0,0,44.295,12.017Zm-35.061.523-.7,13.3L6.8,28.275,5.213,10.714v-.1a1.069,1.069,0,0,1,.948-.927L31.946,7.577a.953.953,0,0,1,1.037.779c0,.02.03.02.03.039s.03.02.03.039l.267,3.039L11.674,10.438A2.278,2.278,0,0,0,9.234,12.539Zm33,23.371-8.378-9.816-3.695,3.384-6.836-7.971L11.2,34.4l1.027-19.642V14.72a1.129,1.129,0,0,1,1.176-.888l28.768,1.381A1.049,1.049,0,0,1,43.2,16.219c0,.02.03.03.03.049Z" fill="#fff"/>
      <path id="路径_1303" data-name="路径 1303" d="M27,18a2.25,2.25,0,1,0-2.25-2.25A2.257,2.257,0,0,0,27,18Z" transform="translate(12.758 4.352)" fill="#fff"/>
    </g>
    <path id="Icon_awesome-plus" data-name="Icon awesome-plus" d="M29.25,14.625H19.125V4.5a2.25,2.25,0,0,0-2.25-2.25h-2.25a2.25,2.25,0,0,0-2.25,2.25V14.625H2.25A2.25,2.25,0,0,0,0,16.875v2.25a2.25,2.25,0,0,0,2.25,2.25H12.375V31.5a2.25,2.25,0,0,0,2.25,2.25h2.25a2.25,2.25,0,0,0,2.25-2.25V21.375H29.25a2.25,2.25,0,0,0,2.25-2.25v-2.25A2.25,2.25,0,0,0,29.25,14.625Z" transform="translate(750.95 322)" fill="#1492e6"/>
  </g>
</svg>
