<svg xmlns="http://www.w3.org/2000/svg" width="60" height="60" viewBox="0 0 60 60">
  <g id="组_9644" data-name="组 9644" transform="translate(8442 -46)">
    <g id="组_9641" data-name="组 9641">
      <g id="组_9640" data-name="组 9640" transform="translate(-8472 -62)">
        <g id="组_9599" data-name="组 9599" transform="translate(0 4)">
          <g id="组_9537" data-name="组 9537" transform="translate(30 104)">
            <rect id="矩形_19148" data-name="矩形 19148" width="60" height="60" rx="6" fill="#dfefff"/>
          </g>
          <g id="组_9540" data-name="组 9540" transform="translate(40 112.758)">
            <path id="路径_9227" data-name="路径 9227" d="M244.957,141.693c.5-.134,1-.12,1.144.414a3.041,3.041,0,0,1-.06,1.9c-.187.541-.97,1.035-1.385,1.5a1.134,1.134,0,0,1-.89.26,20.8,20.8,0,0,1-1.786,3.632c-1.659,2.611-3.921,4.507-6.644,4.507s-4.984-1.9-6.643-4.507a19.9,19.9,0,0,1-1.786-3.632,1.134,1.134,0,0,1-.89-.26c-.415-.461-1.2-.955-1.392-1.5a3.089,3.089,0,0,1-.06-1.9.675.675,0,0,1,.85-.474,13.216,13.216,0,0,1-.361-5.381c.522-2.4,1.278-3.051,2.643-3.579a8.021,8.021,0,0,1,7.359-4.073c3.459,0,6.751,1.062,8.8,5.148a4.841,4.841,0,0,0,.428.294C246.121,135.13,245.379,139.863,244.957,141.693Zm-3.412-6.616a9.385,9.385,0,0,1-9.38,1.382,10.489,10.489,0,0,0,4.088.975,11.207,11.207,0,0,0,1.786-.067,8.471,8.471,0,0,0,1.592-.341.592.592,0,0,1,.361,1.128,9.429,9.429,0,0,1-1.82.387,12.568,12.568,0,0,1-1.967.073,11.308,11.308,0,0,1-5.085-1.369,5.417,5.417,0,0,1-1.98-1.843,6.5,6.5,0,0,0-1.632,2.958c-.02.24-.027.481-.027.721a20.033,20.033,0,0,0,2.629,9.474c1.385,2.163,3.185,3.739,5.232,3.739s3.847-1.576,5.232-3.739c2.162-3.384,3.647-9.987.971-13.479Zm-22.934,25.017c1.017-2.036,3.412-2.664,6.242-3.425a21.015,21.015,0,0,0,.549,13.814,2.116,2.116,0,1,0,1.358-.641c-1.545-3.946-1.947-9.648-.087-13.66.736-.2,2.067-.734,2.643-.955a38.2,38.2,0,0,0,3.967,9.648l.9-5.248-.515-1.242L235.323,157l1.659,1.382-.515,1.235.9,5.241a40.158,40.158,0,0,0,4-9.648c.756.294,2.194.808,3.211,1.075a10.012,10.012,0,0,1-.114,4.72,4.5,4.5,0,0,0-4.656,3.432c-.943,3.185-4.115,8.179.094,9.113a.749.749,0,0,0,.328-1.462c-.95-.214-1.057-.975-.83-1.97.328-1.442,1.372-3.625,1.853-5.261a3.02,3.02,0,1,1,5.895,1.315c-.269,1.7-.275,4.119-.6,5.541-.227.995-.649,1.642-1.6,1.429a.749.749,0,1,0-.328,1.462c4.215.941,3.5-4.941,4.021-8.2a4.466,4.466,0,0,0-2.7-5.067,12.378,12.378,0,0,0,.268-4.62c2.669.741,4.917,1.442,5.867,3.352,2.087,4.179,2.582,14.061,3.138,19.769H215.5c.562-5.989.93-15.4,3.111-19.749Z" transform="translate(-215.5 -128.6)" fill="#2988e6"/>
            <path id="路径_9228" data-name="路径 9228" d="M-8395.2,6367l-7.795,2.268c-1.95.567-4.017,2.856-4.861,11.483s-.944,11.132-.944,11.132h39.71l-1.456-11.73s-.706-7.659-2.739-9.561-9.907-3.592-9.907-3.592-3.332,9.49-3.765,9.914-.973-5.3-4.128,0c0,0-.24.65-.354.4S-8395.2,6367-8395.2,6367Z" transform="translate(8408.971 -6340.642)" fill="#2988e6"/>
          </g>
        </g>
        <path id="路径_9529" data-name="路径 9529" d="M-8959.256-10285.722l5.91,9.967,6.144-9.967,1.114.406-5.525,13.972-4.418-.123-4.244-13.979Z" transform="translate(9013 10428.865)" fill="#2988e6"/>
        <path id="路径_9530" data-name="路径 9530" d="M-8958.579-10283.551l3.646,6.3,1.416,2.514,5.264-8.741Z" transform="translate(9013.165 10428)" fill="#dfefff"/>
      </g>
      <path id="路径_9531" data-name="路径 9531" d="M-8405.324,61.63a9.416,9.416,0,0,1-5.837,2.63,6.836,6.836,0,0,1-1.234,0,12.179,12.179,0,0,1-6.42-2.466" fill="none" stroke="#2988e6" stroke-width="2.1"/>
      <path id="路径_9532" data-name="路径 9532" d="M6.971-.266s1.794-1.041.374-.356c-.287-.444,1.839-.045.464-.279L3.662,0,3.437.027A5.74,5.74,0,0,0,0,2.493" transform="translate(-8417.457 60.158) rotate(121)" fill="none" stroke="#2988e6" stroke-width="2"/>
      <path id="路径_9533" data-name="路径 9533" d="M7.292,2.478s1.876.935.391.319c-.147.2-1.329-.378-.677-.407.036,0,1.9.55,1.162.657L3.83,2.235,3.6,2.215A5.954,5.954,0,0,1,0,0" transform="translate(-8405.243 58.716) rotate(59)" fill="none" stroke="#2988e6" stroke-width="2"/>
    </g>
  </g>
</svg>
