<svg xmlns="http://www.w3.org/2000/svg" width="19.2" height="22.203" viewBox="0 0 19.2 22.203">
  <g id="组_9062" data-name="组 9062" transform="translate(-78.001 -610.11)">
    <path id="路径_8718" data-name="路径 8718" d="M382.647,65.933H387.2a1.091,1.091,0,0,0,.97-1.163,1.165,1.165,0,0,0-.27-.806,1.017,1.017,0,0,0-.732-.365h-4.516a1.177,1.177,0,0,0,0,2.326Zm0,0" transform="translate(-297.309 546.51)" fill="#fcfcfc"/>
    <path id="排除_4" data-name="排除 4" d="M17.2,21.209H2a2,2,0,0,1-2-2V2A2,2,0,0,1,2,0H4.464A2.633,2.633,0,0,0,5.1,1.682a1.908,1.908,0,0,0,1.415.533h5.871a2.111,2.111,0,0,0,.215.009,2.634,2.634,0,0,0,1.345-.348A2.066,2.066,0,0,0,14.859,0H17.2a2,2,0,0,1,2,2V19.209A2,2,0,0,1,17.2,21.209ZM4.975,14.037a.508.508,0,1,0,0,1.016h9.143a.508.508,0,0,0,0-1.016Zm0-2.034a.509.509,0,1,0,0,1.017h5.079a.509.509,0,0,0,0-1.017ZM5.4,8.274h.283a.492.492,0,0,1,.29.1,1.738,1.738,0,0,1,.35.456l.63,1.044a.2.2,0,0,0,.173.1h.59a.2.2,0,0,0,.171-.313l-.627-.989A1.58,1.58,0,0,0,6.59,8V7.991a1.413,1.413,0,0,0,.721-.451,1.188,1.188,0,0,0,.263-.769c0-.79-.527-1.191-1.567-1.191H4.67a.2.2,0,0,0-.2.2v3.98a.2.2,0,0,0,.2.2l.528.005a.2.2,0,0,0,.2-.2V8.275Zm3.073-1.44a.2.2,0,0,0-.172.312L9.03,8.293a.2.2,0,0,1,0,.223L8.258,9.645a.2.2,0,0,0,.168.318H8.97v.01a.2.2,0,0,0,.178-.107L9.568,9.1a1.8,1.8,0,0,0,.126-.273h.013a2.229,2.229,0,0,0,.134.28l.409.757a.2.2,0,0,0,.179.106h.563a.2.2,0,0,0,.178-.106.2.2,0,0,0-.007-.209l-.756-1.18a.206.206,0,0,1,0-.226l.746-1.1a.2.2,0,0,0,.011-.21.2.2,0,0,0-.179-.107H10.5a.2.2,0,0,0-.181.109l-.422.791a2.062,2.062,0,0,0-.131.293h-.01a3.014,3.014,0,0,0-.126-.291l-.407-.79a.2.2,0,0,0-.181-.112ZM5.86,7.56H5.605a.2.2,0,0,1-.2-.2V6.5a.2.2,0,0,1,.2-.2h.273c.472,0,.712.2.712.6a.641.641,0,0,1-.2.478A.744.744,0,0,1,5.86,7.56Z" transform="translate(78 611.104)" fill="#fff"/>
  </g>
</svg>
