<svg xmlns="http://www.w3.org/2000/svg" width="17.628" height="17.628" viewBox="0 0 17.628 17.628"><g transform="translate(0.05 0.05)"><path d="M8.764,17.528a8.764,8.764,0,1,1,8.764-8.764A8.79,8.79,0,0,1,8.764,17.528Zm0-16.433A7.621,7.621,0,0,0,1.1,8.764a7.621,7.621,0,0,0,7.669,7.669,7.621,7.621,0,0,0,7.669-7.669A7.621,7.621,0,0,0,8.764,1.1Z" fill="#999"/><path d="M8.764,17.578A8.8,8.8,0,0,1,2.539,2.539a8.8,8.8,0,1,1,12.45,12.45A8.751,8.751,0,0,1,8.764,17.578ZM8.764.05a8.714,8.714,0,1,0,8.714,8.714A8.724,8.724,0,0,0,8.764.05Zm0,16.433a7.719,7.719,0,1,1,0-15.437,7.719,7.719,0,1,1,0,15.437Zm0-15.337A7.538,7.538,0,0,0,1.146,8.764a7.538,7.538,0,0,0,7.619,7.619,7.538,7.538,0,0,0,7.619-7.619A7.538,7.538,0,0,0,8.764,1.146Z" fill="#999"/><path d="M356.711,275.857a2.313,2.313,0,0,1,.657,1.753,2.02,2.02,0,0,1-.438,1.424q0,.164-.986.986a1.924,1.924,0,0,0-.438.548,2.064,2.064,0,0,0-.219.876v.219h-1.315v-.219a2.749,2.749,0,0,1,.219-1.1,7.854,7.854,0,0,1,1.424-1.534l.219-.329a1.457,1.457,0,0,0,.329-.876,1.339,1.339,0,0,0-.329-.986,1.636,1.636,0,0,0-1.1-.329,1.348,1.348,0,0,0-1.1.548,1.762,1.762,0,0,0-.329,1.205H352a2.647,2.647,0,0,1,2.848-2.848A2.577,2.577,0,0,1,356.711,275.857Zm-1.424,6.683c.219.11.219.329.219.657a.933.933,0,0,1-1.534.657c-.219-.219-.219-.329-.219-.657a1.557,1.557,0,0,1,.219-.657.926.926,0,0,1,.657-.219A.488.488,0,0,1,355.287,282.54Z" transform="translate(-345.975 -270.489)" fill="#999"/><path d="M354.848,275.15a2.612,2.612,0,0,1,1.9.672,2.366,2.366,0,0,1,.672,1.788,2.126,2.126,0,0,1-.441,1.447c-.02.1-.182.318-1,1a1.879,1.879,0,0,0-.425.532,2.015,2.015,0,0,0-.214.854v.269h-1.415v-.269a2.788,2.788,0,0,1,.224-1.118l0-.005a7.86,7.86,0,0,1,1.428-1.539l.215-.323a1.411,1.411,0,0,0,.32-.849,1.3,1.3,0,0,0-.314-.951,1.581,1.581,0,0,0-1.06-.314,1.3,1.3,0,0,0-1.054.526l-.006.008a1.712,1.712,0,0,0-.314,1.17v.05H351.95v-.05a2.7,2.7,0,0,1,2.9-2.9Zm.388,6.464v-.169a2.121,2.121,0,0,1,.224-.9,1.961,1.961,0,0,1,.448-.561c.877-.731.971-.908.971-.951v-.021l.015-.015a2.013,2.013,0,0,0,.424-1.389,2.272,2.272,0,0,0-.643-1.717,2.515,2.515,0,0,0-1.827-.643,2.592,2.592,0,0,0-2.8,2.748h1.215a1.763,1.763,0,0,1,.34-1.187,1.405,1.405,0,0,1,1.134-.566,1.653,1.653,0,0,1,1.131.343,1.392,1.392,0,0,1,.343,1.021,1.493,1.493,0,0,1-.337.9l-.228.339a7.782,7.782,0,0,0-1.413,1.521,2.685,2.685,0,0,0-.212,1.07v.169Zm-.367.614a.5.5,0,0,1,.454.275c.232.126.232.365.232.694a1.6,1.6,0,0,1-.224.68l-.007.015-.015.007a1.142,1.142,0,0,1-1.359,0l-.007,0-.006-.006a.75.75,0,0,1-.234-.693,1.6,1.6,0,0,1,.224-.68l0-.007.006-.006a.948.948,0,0,1,.685-.234A.81.81,0,0,1,354.87,282.228Zm.379,1.589a1.491,1.491,0,0,0,.206-.62c0-.322,0-.517-.191-.613l-.015-.007-.007-.015a.444.444,0,0,0-.6-.194l-.008,0h-.008a.873.873,0,0,0-.616.2,1.511,1.511,0,0,0-.21.627c0,.326,0,.416.2.616a1.512,1.512,0,0,0,.628.21A1.491,1.491,0,0,0,355.249,283.817Z" transform="translate(-345.975 -270.489)" fill="#999"/></g></svg>