<svg xmlns="http://www.w3.org/2000/svg" width="16.88" height="18.151" viewBox="0 0 16.88 18.151">
  <g id="组_7571" data-name="组 7571" transform="translate(-15.194 -10.866)">
    <path id="路径_5671" data-name="路径 5671" d="M67.226,79.651a1.133,1.133,0,0,0,1.13,1.133h8.137a1.132,1.132,0,0,0,1.128-1.133V67.618H67.226Zm8.137-14.067a.23.23,0,0,0-.232-.233H69.7a.224.224,0,0,0-.164.066.236.236,0,0,0-.068.167v.683h5.893Zm-7.24.683v-.683A1.585,1.585,0,0,1,69.7,64H75.13a1.586,1.586,0,0,1,1.579,1.584v.683H80.2a.683.683,0,0,1,0,1.365H78.981V79.651a2.494,2.494,0,0,1-2.489,2.5H68.355a2.493,2.493,0,0,1-2.489-2.5V67.618H64.681a.663.663,0,0,1-.479-.2.7.7,0,0,1-.2-.487.668.668,0,0,1,.681-.668h3.443Zm4.3,12.468a.663.663,0,0,1-.479-.2.7.7,0,0,1-.2-.487V70.787a.68.68,0,1,1,1.361,0v7.266A.68.68,0,0,1,72.424,78.736Zm3.17,0a.663.663,0,0,1-.478-.2.7.7,0,0,1-.2-.486V70.787a.68.68,0,1,1,1.361,0v7.266A.7.7,0,0,1,75.594,78.736Zm-6.342,0a.663.663,0,0,1-.478-.2.7.7,0,0,1-.2-.486V70.787a.68.68,0,1,1,1.361,0v7.266A.68.68,0,0,1,69.252,78.736Z" transform="translate(-48.806 -53.134)" fill="#bf0000"/>
  </g>
</svg>
