<svg xmlns="http://www.w3.org/2000/svg" width="15.134" height="15.187" viewBox="0 0 15.134 15.187">
  <path id="路径_11" data-name="路径 11" d="M98.854,104.149h4.772a.466.466,0,1,0,0-.931H99.959a6.623,6.623,0,0,1,12.569,1.862h.989a7.615,7.615,0,0,0-14.2-2.735V98.912a.459.459,0,0,0-.466-.466.5.5,0,0,0-.466.466v4.772a.456.456,0,0,0,.466.466m14.256,3.782h-4.771a.466.466,0,0,0,0,.931h3.608a6.588,6.588,0,0,1-5.993,3.782,6.7,6.7,0,0,1-6.575-5.7h-.931a7.571,7.571,0,0,0,14.14,2.793v3.433a.466.466,0,0,0,.931,0V108.4a.4.4,0,0,0-.407-.466M113.11,107.931Z" transform="translate(113.522 113.633) rotate(-180)" fill="#fff"/>
</svg>
