<svg xmlns="http://www.w3.org/2000/svg" width="48" height="48" viewBox="0 0 48 48">
  <g id="组_10045" data-name="组 10045" transform="translate(0 -8.412)">
    <circle id="Circle_BG" data-name="Circle BG" cx="24" cy="24" r="24" transform="translate(0 8.412)" fill="#005795"/>
    <g id="组_10035" data-name="组 10035" transform="translate(2.26 6.284)">
      <path id="路径_9548" data-name="路径 9548" d="M30.773,24.506a.8.8,0,0,1-.441-.127l-8.745-6.6L12.818,24.4a.8.8,0,0,1-.423.11c-.361,0-.654-.535-.654-.795a.383.383,0,0,1,.15-.3l9.7-7.279,9.657,7.25a.412.412,0,0,1,.187.334C31.43,23.971,31.134,24.506,30.773,24.506Z" transform="translate(0 0)" fill="#fff"/>
      <path id="路径_9549" data-name="路径 9549" d="M100.178,182.7l-8.273-5.933L83.6,182.726a.329.329,0,0,0-.127.248h0V191.5a1.627,1.627,0,0,0,1.627,1.626H98.71a1.625,1.625,0,0,0,1.624-1.626v-8.473a.369.369,0,0,0,0-.038A.352.352,0,0,0,100.178,182.7Zm-4.618,3.97H92.474v3.086a.571.571,0,0,1-.571.571h0a.573.573,0,0,1-.572-.571v-3.086H88.246a.572.572,0,0,1,0-1.143h3.085v-3.085a.571.571,0,0,1,1.143,0v3.085H95.56a.572.572,0,0,1,0,1.143Z" transform="translate(-70.32 -157.479)" fill="#fff"/>
    </g>
  </g>
</svg>
