<svg id="组_9619" data-name="组 9619" xmlns="http://www.w3.org/2000/svg" width="20" height="20" viewBox="0 0 20 20">
  <g id="矩形_24" data-name="矩形 24" fill="#fff" stroke="#0063a8" stroke-width="1">
    <rect width="20" height="20" rx="4" stroke="none"/>
    <rect x="0.5" y="0.5" width="19" height="19" rx="3.5" fill="none"/>
  </g>
  <path id="路径_15" data-name="路径 15" d="M179.078,273.769a.709.709,0,0,1-.209.5l-6.493,6.493c-.216.216-.439.5-.794.145l-3.358-3.443a.744.744,0,0,1-.067-1,.708.708,0,0,1,1.038-.035l2.675,2.675a.113.113,0,0,0,.163,0l5.859-5.863a.638.638,0,0,1,.627-.177A.733.733,0,0,1,179.078,273.769Z" transform="translate(-163.828 -267.196)" fill="#0063a8"/>
</svg>
