<svg xmlns="http://www.w3.org/2000/svg" width="12.993" height="16.716" viewBox="0 0 12.993 16.716">
  <path id="Icon_payment-invoice-sign-alt-o" data-name="Icon payment-invoice-sign-alt-o" d="M23.827,19.908a2.387,2.387,0,0,1,.415.686,2.126,2.126,0,0,1,.148.816V32.184a.821.821,0,0,1-.237.62.736.736,0,0,1-.563.261H12.2a.735.735,0,0,1-.563-.261.819.819,0,0,1-.237-.62V17.231a.819.819,0,0,1,.237-.62.736.736,0,0,1,.563-.261h7.594a1.635,1.635,0,0,1,.742.2,2.2,2.2,0,0,1,.652.425l2.64,2.938Zm-.5,11.949V22.324h-3.53a.735.735,0,0,1-.563-.261.862.862,0,0,1-.237-.653V17.558H12.465v14.3H23.323Zm-8.692-8.031a.331.331,0,0,1,.089-.229.247.247,0,0,1,.178-.1h5.993a.249.249,0,0,1,.178.1.33.33,0,0,1,.089.229v.588q0,.164-.089.2a.249.249,0,0,1-.178.1H14.9a.249.249,0,0,1-.178-.1q-.089-.032-.089-.2v-.588Zm6.259,2.089a.23.23,0,0,1,.178.065.33.33,0,0,1,.089.229V26.8a.33.33,0,0,1-.089.229.424.424,0,0,1-.178.065H14.9a.42.42,0,0,1-.178-.065.329.329,0,0,1-.089-.229v-.588a.331.331,0,0,1,.089-.229.228.228,0,0,1,.178-.065Zm0,2.383a.428.428,0,0,1,.178.065.33.33,0,0,1,.089.229v.588a.33.33,0,0,1-.089.229.424.424,0,0,1-.178.065H14.9a.42.42,0,0,1-.178-.065.329.329,0,0,1-.089-.229v-.588a.331.331,0,0,1,.089-.229A.424.424,0,0,1,14.9,28.3ZM20.06,17.623v3.493h3.2a.6.6,0,0,0-.208-.359l-2.64-2.938a.944.944,0,0,0-.356-.2Z" transform="translate(-11.398 -16.35)" fill="#ffffff"/>
</svg>
