<svg id="iOS_switch" data-name="iOS, switch" xmlns="http://www.w3.org/2000/svg" xmlns:xlink="http://www.w3.org/1999/xlink" width="51" height="31" viewBox="0 0 51 31">
  <defs>
    <clipPath id="clip-path">
      <path id="Mask" d="M15.857.092C17.6-.008,19.335,0,21.075,0h8.817c1.774,0,3.512-.008,5.251.092A21.645,21.645,0,0,1,39.8.8a15.242,15.242,0,0,1,0,29.394,21.707,21.707,0,0,1-4.654.711c-1.739.1-3.477.091-5.217.091H21.107c-1.772,0-3.51.008-5.25-.092A21.708,21.708,0,0,1,11.2,30.2,15.242,15.242,0,0,1,11.2.8,21.645,21.645,0,0,1,15.857.092Z" transform="translate(0 0)" fill="#34c759"/>
    </clipPath>
    <filter id="knob" x="20.5" y="2" width="30" height="31.5" filterUnits="userSpaceOnUse">
      <feOffset dy="3" input="SourceAlpha"/>
      <feGaussianBlur stdDeviation="0.5" result="blur"/>
      <feFlood flood-opacity="0.059"/>
      <feComposite operator="in" in2="blur"/>
      <feComposite in="SourceGraphic"/>
    </filter>
  </defs>
  <rect id="Switch_background" data-name="Switch background" width="51" height="31" transform="translate(0 0)" fill="rgba(0,0,0,0)"/>
  <path id="Mask-2" data-name="Mask" d="M15.857.092C17.6-.008,19.335,0,21.075,0h8.817c1.774,0,3.512-.008,5.251.092A21.645,21.645,0,0,1,39.8.8a15.242,15.242,0,0,1,0,29.394,21.707,21.707,0,0,1-4.654.711c-1.739.1-3.477.091-5.217.091H21.107c-1.772,0-3.51.008-5.25-.092A21.708,21.708,0,0,1,11.2,30.2,15.242,15.242,0,0,1,11.2.8,21.645,21.645,0,0,1,15.857.092Z" transform="translate(0 0)" fill="#34c759"/>
  <g id="Switch" transform="translate(0 0)" clip-path="url(#clip-path)">
    <g transform="matrix(1, 0, 0, 1, 0, 0)" filter="url(#knob)">
      <circle id="knob-2" data-name="knob" cx="13.5" cy="13.5" r="13.5" transform="translate(22 2)" fill="#fff"/>
    </g>
  </g>
</svg>
