<svg xmlns="http://www.w3.org/2000/svg" width="16.829" height="12.278" viewBox="0 0 16.829 12.278">
  <g id="组_8644" data-name="组 8644" transform="translate(0.2 0.2)">
    <g id="组_8648" data-name="组 8648">
      <path id="路径_8439" data-name="路径 8439" d="M39.247,178.517a2.385,2.385,0,0,1,2.385,2.31v2.408l3.54-2.806a.577.577,0,0,1,.953.445v7.143a.577.577,0,0,1-.941.468l-3.54-2.806v2.35a2.385,2.385,0,0,1-2.35,2.368H32.081a2.379,2.379,0,0,1-2.385-2.31v-7.2a2.379,2.379,0,0,1,2.345-2.368Zm.162.889H31.9a1.265,1.265,0,0,0-1.294,1.23v7.507a1.259,1.259,0,0,0,1.247,1.213h7.553a1.259,1.259,0,0,0,1.265-1.23v-7.507a1.259,1.259,0,0,0-1.242-1.253Zm5.919,2.137-3.667,2.887,3.667,2.887Zm0,0" transform="translate(-29.696 -178.517)" fill="#30b354" stroke="#30b354" stroke-width="0.4"/>
      <path id="路径_8440" data-name="路径 8440" d="M168.27,317.774m-.676,0a.676.676,0,1,0,.676-.676.676.676,0,0,0-.676.676Z" transform="translate(-165.262 -314.754)" fill="#30b354"/>
    </g>
  </g>
</svg>
