<svg xmlns="http://www.w3.org/2000/svg" width="74.668" height="69.289" viewBox="0 0 74.668 69.289"><path d="M148.637,182.884l-28.08-50.325A9.107,9.107,0,0,0,112.534,128a9.5,9.5,0,0,0-8.023,4.558l-28.08,50.325a9.746,9.746,0,0,0,0,9.482,9.456,9.456,0,0,0,8.023,4.923h56.16a8.888,8.888,0,0,0,8.023-4.923A9.746,9.746,0,0,0,148.637,182.884ZM109.8,148.057a2.8,2.8,0,0,1,2.735-2.735,2.771,2.771,0,0,1,2.735,2.553v23.886a2.8,2.8,0,0,1-2.735,2.735,2.771,2.771,0,0,1-2.735-2.553Zm2.735,40.114a3.647,3.647,0,1,1,3.647-3.647A3.657,3.657,0,0,1,112.534,188.172Z" transform="translate(-75.2 -128)" fill="#e24445"/></svg>