<svg id="addDeepBule" xmlns="http://www.w3.org/2000/svg" width="20" height="20" viewBox="0 0 20 20">
  <path id="路径_8682" data-name="路径 8682" d="M71.44,71.44m-10,0a10,10,0,1,0,10-10A10,10,0,0,0,61.44,71.44Z" transform="translate(-61.44 -61.44)" fill="#045795"/>
  <path id="路径_8683" data-name="路径 8683" d="M230.284,225.28a.536.536,0,0,1,.536.536v3.932h3.932a.536.536,0,1,1,0,1.072H230.82v3.932a.536.536,0,0,1-1.072,0V230.82h-3.932a.536.536,0,1,1,0-1.072h3.932v-3.932A.536.536,0,0,1,230.284,225.28Z" transform="translate(-220.284 -220.284)" fill="#fff"/>
</svg>
