<svg id="AiTmed_Logo" data-name="AiTmed Logo" xmlns="http://www.w3.org/2000/svg" width="51.347" height="55.309" viewBox="0 0 51.347 55.309">
  <g id="组_3381" data-name="组 3381" transform="translate(0 0)">
    <path id="路径_812" data-name="路径 812" d="M390.9,165.937a35.727,35.727,0,0,0,.518,5.888c.3,1.2.48,2.843,1.82,3.486a2.778,2.778,0,0,0,2.376-.019c.566-.283.992-.756,1.55-1.053a1.473,1.473,0,0,1,1.762.122c.37.464.089,1.117-.264,1.591a7.739,7.739,0,0,1-5.047,2.915,8.233,8.233,0,0,1-5.8-1.341c-2.462-1.726-3.5-4.641-3.944-7.429-1.016-6.331.3-12.8-.33-19.167a8.8,8.8,0,0,0-.892-3.436,1.791,1.791,0,0,0-.6-.7c-.736-.452-1.849-.044-2.563-.524a1.288,1.288,0,0,1,.054-2,4.288,4.288,0,0,1,2.292-.82,8.187,8.187,0,0,1,4.767.393,6.251,6.251,0,0,1,2.775,3.382,23.764,23.764,0,0,1,1.45,8.673c.063,3.028.126,6.05.033,9.082" transform="translate(-347.755 -133.852)" fill="#fff"/>
    <path id="路径_813" data-name="路径 813" d="M120.112,189.956s-3-1.433-3.393-3.977-.971-5.732,2.1-13.453a53.967,53.967,0,0,1,8.023.556c4.562.643,6.535,1.345,7.635,1.491s1.569-.015,1.893-.292.113-.79-.679-1.4-4.642-2.632-15.254-3.948c0,0,3.267-6.522,6.47-10.178s6.5-7.165,9.35-7.487c0,0-1.294-.322-1.553-1.17s1.132-1.608,1.132-1.608-2.847.556-8.185,5.761a68.259,68.259,0,0,0-10.773,14.3,16.906,16.906,0,0,0-9.22,1.17c-3.753,1.667-4.076,3.217-4.368,4.124,0,0,7.958-1.638,11.549-1.228a10.126,10.126,0,0,0-.766,1.654c-.4.944-.794,1.894-1.148,2.854a26.766,26.766,0,0,0-1.53,5.885,8.483,8.483,0,0,0,.667,5.144C113.622,191.027,117.215,191.377,120.112,189.956Z" transform="translate(-103.293 -138.511)" fill="#fff"/>
    <ellipse id="椭圆_444" data-name="椭圆 444" cx="4.039" cy="3.651" rx="4.039" ry="3.651" transform="translate(32.735)" fill="#fff"/>
  </g>
  <text id="AiTmed" transform="translate(35.846 53.309)" fill="#fff" font-size="9" font-family="SegoeUI, Segoe UI" letter-spacing="0.007em"><tspan x="-14.996" y="0">AiTmed</tspan></text>
</svg>
