<svg xmlns="http://www.w3.org/2000/svg" xmlns:xlink="http://www.w3.org/1999/xlink" width="114" height="114" viewBox="0 0 114 114"><defs><filter id="a" x="0" y="0" width="114" height="114" filterUnits="userSpaceOnUse"><feOffset dy="1" input="SourceAlpha"/><feGaussianBlur stdDeviation="2" result="b"/><feFlood flood-opacity="0.071"/><feComposite operator="in" in2="b"/><feComposite in="SourceGraphic"/></filter><radialGradient id="c" cx="0.505" cy="0.567" r="0.502" gradientTransform="translate(0)" gradientUnits="objectBoundingBox"><stop offset="0" stop-color="#ffd25a"/><stop offset="0.48" stop-color="#fbb432"/><stop offset="0.73" stop-color="#f9a41c"/><stop offset="0.81" stop-color="#f9b61e"/><stop offset="0.95" stop-color="#fad923"/><stop offset="1" stop-color="#fbed25"/></radialGradient></defs><g transform="translate(18435 15)"><g transform="matrix(1, 0, 0, 1, -18435, -15)" filter="url(#a)"><circle cx="51" cy="51" r="51" transform="translate(6 5)" fill="#fff"/></g><g transform="translate(1092 429.86)"><g transform="translate(-19503 -425.86)"><path d="M372.563,151.559a56.16,56.16,0,0,0,.667,8.38c.387,1.712.617,4.046,2.341,4.962a3.267,3.267,0,0,0,3.058-.027c.729-.4,1.276-1.076,1.994-1.5a1.755,1.755,0,0,1,2.267.173c.488.676.113,1.589-.338,2.265a9.677,9.677,0,0,1-13.431,2.623h0q-.268-.181-.525-.378c-3.172-2.463-4.5-6.609-5.079-10.573-1.307-9.011.387-18.21-.425-27.278a13.63,13.63,0,0,0-1.148-4.891,2.5,2.5,0,0,0-.769-.992c-.947-.644-2.379-.063-3.3-.746a1.96,1.96,0,0,1,.07-2.84,5.194,5.194,0,0,1,2.95-1.167c2.067-.322,4.3-.451,6.132.563a8.759,8.759,0,0,1,3.571,4.812,37.132,37.132,0,0,1,1.872,12.337c.08,4.308.162,8.61.042,12.925" transform="translate(-317.054 -105.897)" fill="#3890ce"/><path d="M21.638,185.023s-3.866-2.04-4.365-5.66-1.249-8.158,2.7-19.149A62.969,62.969,0,0,1,30.3,161c5.87.913,8.407,1.915,9.822,2.122s2.02-.02,2.435-.417.145-1.126-.874-2-5.975-3.735-19.623-5.614c0,0,4.2-9.281,8.325-14.484s8.363-10.2,12.029-10.656c0,0-1.665-.457-2-1.665S41.871,126,41.871,126s-3.663.788-10.529,8.2a96.947,96.947,0,0,0-13.855,20.354,19.8,19.8,0,0,0-11.862,1.665C.788,158.593.375,160.805,0,162.089c0,0,10.239-2.33,14.859-1.748a15.457,15.457,0,0,0-.987,2.353c-.519,1.345-1.021,2.7-1.477,4.063a41.433,41.433,0,0,0-1.969,8.375,13.235,13.235,0,0,0,.858,7.322C13.291,186.547,17.91,187.05,21.638,185.023Z" transform="translate(0 -111.808)" fill="#30b354"/><circle cx="5.196" cy="5.196" r="5.196" transform="translate(42.116 0)" fill="url(#c)"/></g><g transform="translate(-19480.029 -363.981)"><text transform="translate(0 10)" font-size="11" font-family="Arial-BoldMT, Arial" font-weight="700" letter-spacing="0.01em" style="isolation:isolate"><tspan x="0" y="0">AiTmed</tspan></text></g></g></g></svg>