<svg xmlns="http://www.w3.org/2000/svg" width="12.373" height="12.164" viewBox="0 0 12.373 12.164">
  <path id="filter" d="M79.147,75.27c-.327-.8-1.4-.858-1.467-.861h-4.6c-.011,0-.02.005-.029.006s-.015,0-.023,0H68.4c-.046,0-1.122.064-1.448.86-.279.682.1,1.57,1.163,2.729l3.573,3.541a.169.169,0,0,0,.015.01V85.3a.392.392,0,0,0,.232.358c1.185.534,1.928.874,1.929.875a.412.412,0,0,0,.164.035.393.393,0,0,0,.393-.392V81.531L78,77.986C79.049,76.84,79.426,75.952,79.147,75.27Zm-5.279,5.72a.382.382,0,0,0-.06.089.386.386,0,0,0-.175.318v4.172c-.287-.131-.676-.306-1.145-.519V81.4a.39.39,0,0,0-.22-.349.317.317,0,0,0-.038-.057l-3.56-3.528c-1.111-1.208-1.073-1.73-1-1.9.115-.284.61-.374.753-.383h4.6c.011,0,.02-.005.029-.006s.014,0,.023,0h4.586c.132.007.652.091.771.382.069.168.109.689-.991,1.887Z" transform="translate(-66.862 -74.409)" fill="#045795"/>
</svg>
