<svg xmlns="http://www.w3.org/2000/svg" width="22.4" height="22.095" viewBox="0 0 22.4 22.095">
  <path id="Icon_ionic-ios-settings" data-name="Icon ionic-ios-settings" d="M25.051,15.545A2.844,2.844,0,0,1,26.9,12.893a11.182,11.182,0,0,0-1.383-3.285,2.956,2.956,0,0,1-1.172.247,2.906,2.906,0,0,1-2.036-.828,2.815,2.815,0,0,1-.595-3.164A11.479,11.479,0,0,0,18.389,4.5a2.895,2.895,0,0,1-5.378,0A11.514,11.514,0,0,0,9.68,5.863a2.807,2.807,0,0,1-.6,3.164,2.9,2.9,0,0,1-2.036.828,2.86,2.86,0,0,1-1.173-.247A11.428,11.428,0,0,0,4.5,12.9a2.828,2.828,0,0,1,.006,5.3,11.182,11.182,0,0,0,1.382,3.285,2.943,2.943,0,0,1,1.167-.242,2.906,2.906,0,0,1,2.036.828,2.816,2.816,0,0,1,.6,3.158A11.581,11.581,0,0,0,13.017,26.6a2.889,2.889,0,0,1,5.367,0,11.514,11.514,0,0,0,3.331-1.363,2.818,2.818,0,0,1,.595-3.158,2.886,2.886,0,0,1,2.036-.828,2.922,2.922,0,0,1,1.167.242A11.247,11.247,0,0,0,26.894,18.2,2.857,2.857,0,0,1,25.051,15.545Zm-9.3,4.6a4.6,4.6,0,1,1,4.667-4.6A4.633,4.633,0,0,1,15.753,20.141Z" transform="translate(-4.5 -4.5)" fill="#fff"/>
</svg>
