<svg xmlns="http://www.w3.org/2000/svg" width="60" height="60" viewBox="0 0 60 60"><circle cx="30" cy="30" r="30" fill="#b6edae"/><g transform="translate(20.027 5.937) rotate(4.992)"><path d="M3.357,0H27.475a3.357,3.357,0,0,1,3.357,3.357V34.188a3.357,3.357,0,0,1-3.357,3.357H3.357A3.357,3.357,0,0,1,0,34.188V3.357A3.357,3.357,0,0,1,3.357,0Z" transform="translate(0 0)" fill="#ffc670"/><path d="M27.769,37.532c-.1.008-.2.013-.295.013H3.357A3.361,3.361,0,0,1,0,34.188V3.357A3.337,3.337,0,0,1,3.062.013C3.16,0,3.259,0,3.357,0H27.475a3.361,3.361,0,0,1,3.357,3.357V34.188A3.337,3.337,0,0,1,27.769,37.532ZM3.279,2.49a.874.874,0,0,0-.792.867V34.188a.871.871,0,0,0,.87.87H27.475a.874.874,0,0,0,.87-.87V3.357a.871.871,0,0,0-.87-.87H3.357Q3.317,2.487,3.279,2.49Z" transform="translate(0 0)" fill="#3d3d63"/></g><g transform="translate(11.868 12.306)"><path d="M3.108,0H27.723a3.108,3.108,0,0,1,3.108,3.108V34.436a3.108,3.108,0,0,1-3.108,3.108H3.108A3.108,3.108,0,0,1,0,34.436V3.108A3.108,3.108,0,0,1,3.108,0Z" transform="translate(0 0)" fill="#fff6e6"/><path d="M27.723,37.544H3.108A3.112,3.112,0,0,1,0,34.436V3.108A3.112,3.112,0,0,1,3.108,0H27.723a3.112,3.112,0,0,1,3.108,3.108V34.436A3.112,3.112,0,0,1,27.723,37.544ZM3.108,2.486a.622.622,0,0,0-.622.622V34.436a.622.622,0,0,0,.622.622H27.723a.622.622,0,0,0,.622-.622V3.108a.622.622,0,0,0-.622-.622Z" transform="translate(0 0)" fill="#3d3d63"/></g><path d="M351.991,379.563l7.335,1.173h6.033v2.486s-9.9.014-13.148-.014c-.025-.05-.182-.05-.22-.547C351.99,381.516,351.991,379.563,351.991,379.563Z" transform="translate(-337.637 -335.858)" fill="#ffb038"/><rect width="1" height="6" transform="translate(15 41)" fill="#ffc670"/><rect width="1" height="2" transform="translate(17 45)" fill="#ffc670"/><path d="M407.8,460.243H395.622a.622.622,0,0,1,0-1.243H407.8a.622.622,0,1,1,0,1.243Z" transform="translate(-375.3 -405.42)" fill="#3d3d63"/><path d="M513.854,460.243h-3.232a.622.622,0,1,1,0-1.243h3.232a.622.622,0,0,1,0,1.243Z" transform="translate(-476.003 -405.42)" fill="#3d3d63"/><path d="M376.622,460.243a.62.62,0,1,1,.44-.181A.628.628,0,0,1,376.622,460.243Z" transform="translate(-358.661 -405.42)" fill="#3d3d63"/><path d="M406.67,204.486H393.243a1.243,1.243,0,0,1,0-2.486H406.67a1.243,1.243,0,1,1,0,2.486Z" transform="translate(-372.672 -180.37)" fill="#3d3d63"/><path d="M428.459,170.486h-6.216a1.243,1.243,0,1,1,0-2.486h6.216a1.243,1.243,0,0,1,0,2.486Z" transform="translate(-398.067 -150.597)" fill="#3d3d63"/><path d="M406.67,238.486H393.243a1.243,1.243,0,0,1,0-2.486H406.67a1.243,1.243,0,1,1,0,2.486Z" transform="translate(-372.672 -210.143)" fill="#3d3d63"/><g transform="translate(18.582 30.009)"><path d="M396.87,297.746a.87.87,0,0,1-.87-.87V284.4a.87.87,0,0,1,.87-.87h15.372l2.322-4.132h11.521v17.479a.87.87,0,0,1-.87.87H396.87Z" transform="translate(-394.757 -278.154)" fill="#96ddff"/><path d="M416.458,290.232H388.113A2.116,2.116,0,0,1,386,288.118V275.641a2.116,2.116,0,0,1,2.113-2.113h14.644l1.966-3.5a1.244,1.244,0,0,1,1.084-.634h11.521a1.243,1.243,0,0,1,1.243,1.243v17.479A2.116,2.116,0,0,1,416.458,290.232Zm-27.972-2.486h27.6V271.882h-9.551l-1.966,3.5a1.243,1.243,0,0,1-1.084.634h-15Z" transform="translate(-386 -269.396)" fill="#3d3d63"/></g><path d="M564.594,372.486h-4.351a1.243,1.243,0,0,1,0-2.486h4.351a1.243,1.243,0,1,1,0,2.486Z" transform="translate(-518.911 -327.484)" fill="#3d3d63"/><path d="M406,387.563l15.144,1.173H433.6v2.486H406Z" transform="translate(-384.932 -342.864)" fill="#69baf9"/><rect width="1" height="7" transform="translate(26 41)" fill="#4da6ff"/><rect width="0.995" height="4.289" transform="translate(23.43 44.07)" fill="#4da6ff"/><rect width="1" height="3" transform="translate(29 45)" fill="#4da6ff"/><rect width="1" height="2" transform="translate(32 46)" fill="#4da6ff"/><rect width="1" height="2" transform="translate(34 46)" fill="#4da6ff"/></svg>