<svg xmlns="http://www.w3.org/2000/svg" width="30" height="30" viewBox="0 0 30 30">
  <g id="组_13589" data-name="组 13589" transform="translate(-30 -526)">
    <g id="组_13588" data-name="组 13588">
      <g id="组_10785" data-name="组 10785" transform="translate(0 76)">
        <g id="组_13587" data-name="组 13587">
          <g id="组_13585" data-name="组 13585">
            <g id="组_13568" data-name="组 13568">
              <g id="组_13567" data-name="组 13567">
                <rect id="矩形_21" data-name="矩形 21" width="30" height="30" rx="4" transform="translate(30 450)" fill="#2988e6" opacity="0.063"/>
              </g>
            </g>
          </g>
        </g>
        <g id="组_13586" data-name="组 13586">
          <path id="路径_40" data-name="路径 40" d="M73.489,65.983A7.506,7.506,0,1,0,81,73.489,7.514,7.514,0,0,0,73.489,65.983Zm.539,11.276a.539.539,0,1,1-1.077,0V72.412a.539.539,0,0,1,1.077,0v4.847ZM73.489,70.8a.808.808,0,1,1,.808-.808.808.808,0,0,1-.808.808Z" transform="translate(-28.026 391.017)" fill="#2fb355"/>
        </g>
      </g>
    </g>
  </g>
</svg>
