<svg xmlns="http://www.w3.org/2000/svg" width="40" height="40" viewBox="0 0 40 40">
  <g id="组_6689" data-name="组 6689" transform="translate(2.999)">
    <path id="ic_radio_button_unchecked_24px" d="M22,42A20,20,0,1,0,2,22,20.007,20.007,0,0,0,22,42ZM22,6A16,16,0,1,1,6,22,16,16,0,0,1,22,6Z" transform="translate(-4.999 -2)" fill="#fb5051"/>
    <path id="路径_5757" data-name="路径 5757" d="M442.4,160.633a1.353,1.353,0,0,1-2.659,0l-.886-12.14a2.216,2.216,0,0,1,2.216-2.207,2.272,2.272,0,0,1,2.216,2.428Zm-1.33,3.311a2.207,2.207,0,1,1-2.216,2.207A2.089,2.089,0,0,1,441.073,163.944Z" transform="translate(-424.073 -137.322)" fill="#fb5051"/>
  </g>
</svg>
