<svg xmlns="http://www.w3.org/2000/svg" width="19.647" height="18.686" viewBox="0 0 19.647 18.686">
  <g id="组_9769" data-name="组 9769" transform="translate(-824.438 -996.578)">
    <path id="路径_9567" data-name="路径 9567" d="M15.587,13.175A3.587,3.587,0,1,0,12,9.587,3.587,3.587,0,0,0,15.587,13.175Z" transform="translate(817.322 991.278)" fill="none" stroke="#fff" stroke-linejoin="round" stroke-width="1.4"/>
    <path id="路径_9568" data-name="路径 9568" d="M36,29v0Z" transform="translate(804.513 978.901)" fill="none" fill-rule="evenodd"/>
    <path id="路径_9569" data-name="路径 9569" d="M30,35h0Z" transform="translate(807.437 975.977)" fill="none" fill-rule="evenodd"/>
    <path id="路径_9570" data-name="路径 9570" d="M33.075,29v6.15M30,32.075h6.15" transform="translate(807.235 978.901)" fill="none" stroke="#fff" stroke-linecap="round" stroke-linejoin="round" stroke-width="1.4"/>
    <path id="路径_9571" data-name="路径 9571" d="M16.762,28h-4.2c-2.3,0-3.444,0-4.321.447a4.1,4.1,0,0,0-1.792,1.792C6,31.116,6,32.264,6,34.56v.615H16.762" transform="translate(819.138 979.389)" fill="none" stroke="#fff" stroke-linecap="round" stroke-linejoin="round" stroke-width="1.4"/>
  </g>
</svg>
