<svg id="Group_6681" data-name="Group 6681" xmlns="http://www.w3.org/2000/svg" xmlns:xlink="http://www.w3.org/1999/xlink" width="23.382" height="18.213" viewBox="0 0 23.382 18.213">
  <defs>
    <clipPath id="clip-path">
      <rect id="Rectangle_6255" data-name="Rectangle 6255" width="23.382" height="18.214" fill="#2988e6"/>
    </clipPath>
  </defs>
  <g id="Group_6659" data-name="Group 6659" transform="translate(0 0)">
    <g id="Group_6658" data-name="Group 6658" transform="translate(0 0)" clip-path="url(#clip-path)">
      <path id="Path_5070" data-name="Path 5070" d="M709.462,158.749c0,1.793-.649,4.545-3.246,4.545s-3.246-2.752-3.246-4.545a3.246,3.246,0,0,1,6.493,0Zm1.948,5.843c-.428-.856-2.07-.78-3.255-1.072q.008.209.008.423a6.859,6.859,0,0,1-1.031,4.011l-.267-4.011h-1.3l-.267,4.011a6.858,6.858,0,0,1-1.031-4.011c0-.143,0-.284.009-.423-1.185.292-2.827.216-3.255,1.072-.649,1.3-1.3,6.493-.649,7.791a1.961,1.961,0,0,0,2.208,1.3h7.271a1.961,1.961,0,0,0,2.207-1.3c.649-1.3,0-6.492-.649-7.791Zm-10.5-4.281" transform="translate(-694.532 -155.491)" fill="#2988e6"/>
      <path id="Path_5071" data-name="Path 5071" d="M1169.789,267.766c0,1.222-.443,3.1-2.212,3.1s-2.212-1.875-2.212-3.1a2.212,2.212,0,1,1,4.423,0Zm1.327,3.981c-.292-.583-1.41-.532-2.218-.73,0,.095.006.191.006.288a4.675,4.675,0,0,1-.7,2.733l-.182-2.733h-.885l-.182,2.733a4.674,4.674,0,0,1-.7-2.733c0-.1,0-.193.006-.288-.418.1-.918.139-1.345.23a1.253,1.253,0,0,1,.718.574,18.52,18.52,0,0,1,.915,6.12h3.51a1.336,1.336,0,0,0,1.5-.885c.442-.885,0-4.423-.442-5.308Zm0,0" transform="translate(-1148.371 -262.945)" fill="#2988e6"/>
    </g>
  </g>
</svg>
