<svg xmlns="http://www.w3.org/2000/svg" width="30" height="30" viewBox="0 0 30 30">
  <g id="组_13578" data-name="组 13578" transform="translate(-24 -174)">
    <g id="组_10894" data-name="组 10894" transform="translate(-6 -186)">
      <g id="组_13565" data-name="组 13565">
        <rect id="矩形_21" data-name="矩形 21" width="30" height="30" rx="4" transform="translate(30 360)" fill="#2988e6" opacity="0.063"/>
      </g>
      <g id="组_10887" data-name="组 10887" transform="translate(-24.909 288.876)">
        <path id="路径_13139" data-name="路径 13139" d="M488.163,381.652a1.171,1.171,0,1,0,1.171-1.162,1.166,1.166,0,0,0-1.171,1.162Zm0,0" transform="translate(-419.09 -296.647)" fill="#2fb355"/>
        <path id="路径_13140" data-name="路径 13140" d="M65.563,79.124A1.555,1.555,0,0,0,64,80.673v1.163H63a.591.591,0,1,0,0,1.182h1v1.142H63a.591.591,0,1,0,0,1.182h1v1.142H63a.591.591,0,1,0,0,1.182h1v3.466a1.554,1.554,0,0,0,1.562,1.548h9.36a1.555,1.555,0,0,0,1.562-1.548V80.673a1.554,1.554,0,0,0-1.562-1.548Zm4.68,10.141c-.485,0-2.341-2.415-2.341-4.26a2.344,2.344,0,1,1,4.682,0c0,1.883-1.856,4.26-2.341,4.26Zm0,0" transform="translate(0 0)" fill="#2fb355"/>
      </g>
    </g>
  </g>
</svg>
