<svg id="Layer_1" data-name="Layer 1" xmlns="http://www.w3.org/2000/svg" xmlns:xlink="http://www.w3.org/1999/xlink" viewBox="0 0 633.08 693.5"><defs><style>.cls-1{fill:#3890ce;}.cls-2{fill:#30b354;}.cls-3{fill:url(#radial-gradient);}.cls-4,.cls-5{isolation:isolate;}.cls-5{font-size:109.68px;font-family:Arial-BoldMT, Arial;font-weight:700;letter-spacing:0.01em;}</style><radialGradient id="radial-gradient" cx="-191.97" cy="1561.31" r="0.64" gradientTransform="matrix(72.34, 0, 0, -72.34, 14307.68, 112997.59)" gradientUnits="userSpaceOnUse"><stop offset="0" stop-color="#ffd25a"/><stop offset="0.48" stop-color="#fbb432"/><stop offset="0.73" stop-color="#f9a41c"/><stop offset="0.81" stop-color="#f9b61e"/><stop offset="0.95" stop-color="#fad923"/><stop offset="1" stop-color="#fbed25"/></radialGradient></defs><g id="Group_3381" data-name="Group 3381"><path id="Path_812" data-name="Path 812" class="cls-1" d="M492.81,405.38s.5,50.51,5.92,74.4c3.44,15.2,5.48,35.92,20.78,44.05a29,29,0,0,0,27.15-.24c6.47-3.58,11.33-9.55,17.7-13.3s15.8-4.46,20.13,1.54,1,14.11-3,20.11A85.91,85.91,0,0,1,462.21,555.2q-2.38-1.61-4.66-3.36C429.43,530,417.61,493.2,412.5,458c-11.6-80,3.44-161.67-3.77-242.17-1.34-14.9-3.52-30-10.19-43.42-1.68-3.37-3.73-6.7-6.83-8.81-8.41-5.72-21.12-.56-29.28-6.62-7.66-5.69-6.15-18.48.62-25.21s16.75-8.89,26.19-10.36c18.35-2.86,38.2-4,54.44,5,15.85,8.79,25.36,25.76,31.7,42.72C488.44,204,491.26,241.67,492,278.66c.71,38.25,1.44,76.44.37,114.75"/><path id="Path_813" data-name="Path 813" class="cls-2" d="M192.1,650s-34.32-18.11-38.75-50.25-11.09-72.43,24-170c0,0,39.53-1.11,91.64,7s74.64,17,87.2,18.84,17.93-.18,21.62-3.7,1.29-10-7.76-17.73S317,401,195.84,384.32c0,0,37.32-82.4,73.91-128.59S344,165.2,376.54,161.13c0,0-14.78-4.06-17.74-14.78S371.73,126,371.73,126s-32.52,7-93.48,72.79-110.49,154.46-123,180.7c0,0-50.62-11.46-105.31,14.78C7,415.36,3.33,435,0,446.4c0,0,90.9-20.69,131.92-15.52-1.25-.16-8,19-8.76,20.89-4.61,11.94-9.06,23.93-13.11,36.07-8.07,24.18-14.58,49-17.48,74.35-2.51,22-2.1,45.13,7.62,65C118,663.53,159,668,192.1,650Z"/><circle id="Ellipse_444" data-name="Ellipse 444" class="cls-3" cx="420.03" cy="46.13" r="46.13"/></g><g id="AiTmed" class="cls-4"><text class="cls-5" transform="translate(203.94 648.36)" fill="#fff">AiTmed</text></g></svg>
