<svg xmlns="http://www.w3.org/2000/svg" width="24" height="24" viewBox="0 0 24 24">
  <g id="组_10382" data-name="组 10382" transform="translate(-621 -1157)">
    <path id="Icon_ionic-md-calendar" data-name="Icon ionic-md-calendar" d="M15.7,12.164H12.164V15.7H15.7ZM14.522,4.5V5.679h-5.9V4.5H6.858V5.679H5.974A1.478,1.478,0,0,0,4.5,7.153V17.176a1.478,1.478,0,0,0,1.474,1.474h11.2a1.478,1.478,0,0,0,1.474-1.474V7.153a1.478,1.478,0,0,0-1.474-1.474h-.884V4.5Zm2.653,12.676H5.974V9.364h11.2Z" transform="translate(621.5 1157.5)" fill="#2988e6"/>
    <rect id="矩形_19726" data-name="矩形 19726" width="24" height="24" transform="translate(621 1157)" fill="none"/>
  </g>
</svg>
