<svg xmlns="http://www.w3.org/2000/svg" width="24" height="24" viewBox="0 0 24 24">
  <g id="组_10461" data-name="组 10461" transform="translate(-743 -742)">
    <path id="路径_9234" data-name="路径 9234" d="M7.382,0A7.382,7.382,0,1,1,0,7.382,7.382,7.382,0,0,1,7.382,0Zm0,10.036a.726.726,0,1,0,.683.723.705.705,0,0,0-.683-.723h0Zm0-6.755A.7.7,0,0,0,6.7,4V8.347a.684.684,0,1,0,1.367,0V4.005a.7.7,0,0,0-.683-.725Z" transform="translate(748 747)" fill="#fb5051"/>
    <rect id="矩形_19726" data-name="矩形 19726" width="24" height="24" transform="translate(743 742)" fill="none"/>
  </g>
</svg>
