<svg xmlns="http://www.w3.org/2000/svg" width="24" height="24" viewBox="0 0 24 24">
  <g id="组_10395" data-name="组 10395" transform="translate(-767 -1238)">
    <g id="组_8499" data-name="组 8499" transform="translate(739 840)">
      <path id="矩形_18233" data-name="矩形 18233" d="M1.908,1.145a.764.764,0,0,0-.763.763V9.538a.764.764,0,0,0,.763.763H12.4a.764.764,0,0,0,.763-.763V1.908a.764.764,0,0,0-.763-.763H1.908M1.908,0H12.4a1.908,1.908,0,0,1,1.908,1.908V9.538A1.908,1.908,0,0,1,12.4,11.446H1.908A1.908,1.908,0,0,1,0,9.538V1.908A1.908,1.908,0,0,1,1.908,0Z" transform="translate(33 404)" fill="#2988e6"/>
      <path id="路径_9555" data-name="路径 9555" d="M3933.484,409.064H3920.3V407.92h13.186Z" transform="translate(-3887.042 -0.596)" fill="#2988e6"/>
      <path id="路径_9556" data-name="路径 9556" d="M3926.477,411.615h-6.207a.572.572,0,1,1,0-1.145h6.207a.572.572,0,0,1,0,1.145Z" transform="translate(-3886.533 -0.947)" fill="#2988e6"/>
      <path id="路径_9557" data-name="路径 9557" d="M3933.08,413.3h-2.931a.572.572,0,0,1,0-1.145h2.931a.572.572,0,1,1,0,1.145Z" transform="translate(-3888.376 -1.18)" fill="#2988e6"/>
      <path id="路径_9558" data-name="路径 9558" d="M3.5,1.145H.572A.572.572,0,0,1,.572,0H3.5a.572.572,0,0,1,0,1.145Z" transform="translate(42.666 413.587) rotate(-90)" fill="#2988e6"/>
    </g>
    <rect id="矩形_19726" data-name="矩形 19726" width="24" height="24" transform="translate(767 1238)" fill="none"/>
  </g>
</svg>
