<svg xmlns="http://www.w3.org/2000/svg" width="23" height="23" viewBox="0 0 23 23">
  <g id="attachment2" transform="translate(-9 -9)">
    <circle id="椭圆_683" data-name="椭圆 683" cx="11.5" cy="11.5" r="11.5" transform="translate(9 9)" fill="#4c5264"/>
    <path id="路径_5687" data-name="路径 5687" d="M8.079,7.106a2.384,2.384,0,0,1-1.843.683,2.888,2.888,0,0,1-1.86-.84l-.018-.018L.532,3.105A1.818,1.818,0,0,1,1.818,0,1.807,1.807,0,0,1,3.1.533L6.9,4.3a0,0,0,0,0,0,0l.01.009a1.153,1.153,0,0,1,.381.83,1.039,1.039,0,0,1-.337.716A1.028,1.028,0,0,1,6.22,6.2a1.1,1.1,0,0,1-.792-.332L2.773,3.255a.369.369,0,1,1,.517-.527L5.948,5.344l0,0a.366.366,0,0,0,.257.115.3.3,0,0,0,.213-.1l.01-.012a.38.38,0,0,0,.124-.216.478.478,0,0,0-.175-.3L2.581,1.06A1.078,1.078,0,0,0,1.055,2.582L4.88,6.409a2.134,2.134,0,0,0,1.4.641,1.663,1.663,0,0,0,1.284-.467L7.6,6.545a1.647,1.647,0,0,0,.467-1.284,2.136,2.136,0,0,0-.641-1.4L4.856,1.288A.369.369,0,1,1,5.379.767L7.945,3.345a2.648,2.648,0,0,1,.172,3.723l-.039.038Z" transform="translate(24.396 16) rotate(90)" fill="#fff"/>
  </g>
</svg>
