<svg xmlns="http://www.w3.org/2000/svg" xmlns:xlink="http://www.w3.org/1999/xlink" width="202" height="90" viewBox="0 0 202 90">
  <defs>
    <clipPath id="clip-path">
      <rect id="矩形_19833" data-name="矩形 19833" width="202" height="90" rx="8" fill="#fff4e0"/>
    </clipPath>
  </defs>
  <g id="组_10730" data-name="组 10730" transform="translate(-30 -331)">
    <g id="组_10729" data-name="组 10729">
      <g id="组_1" data-name="组 1" transform="translate(30 331)" clip-path="url(#clip-path)">
        <rect id="矩形_19833-2" data-name="矩形 19833" width="202" height="90" rx="8" fill="#fff4e0"/>
        <g id="Online_calendar-cuate的副本" data-name="Online calendar-cuate的副本" transform="translate(7.9 13.705)">
          <g id="freepik--Plant--inject-5" transform="translate(138.968 30.962)">
            <path id="路径_11176" data-name="路径 11176" d="M20.528,64.178a12.545,12.545,0,0,0-.358,2.169c.019.036.015.173,0,.134,0,.118-.174.1-.174-.021v-.227a13.82,13.82,0,0,0-1.432-1.313,2.9,2.9,0,0,1-.785-1.335c-.384-1.418-.024-2.92-.486-4.335a20.644,20.644,0,0,0-1.721-3.383A8.392,8.392,0,0,1,14.414,52.1a4.655,4.655,0,0,1,.825-3.229c.791-.834,1.772-.21,2.377.534a14.51,14.51,0,0,1,2.9,7.656,32.288,32.288,0,0,1,.324,4.647,13.54,13.54,0,0,1-.311,2.466Z" transform="translate(-11.905 -48.478)" fill="#fece55"/>
            <path id="路径_11177" data-name="路径 11177" d="M20.735,67.72a28.232,28.232,0,0,0-.049-4.366.028.028,0,0,0,0-.016c.023-1.181.11-2.355.066-3.537a22.421,22.421,0,0,0-.486-3.794c0-.014-.024-.01-.021,0a26.366,26.366,0,0,1,.383,3.711q.034,1-.015,2c-.01.217-.029.435-.042.654h0A24.386,24.386,0,0,0,17.3,53.082c-.024-.038-.088,0-.065.042A25.168,25.168,0,0,1,19.9,60.013c-.843-1.672-2.119-3.048-3.066-4.656,0-.009-.018,0-.013.01.843,1.79,2.254,3.2,3.149,4.963q.234,1.079.376,2.174a25.76,25.76,0,0,1,.2,3.019c-.514-1.027-1.048-2.011-1.469-3.1-.011-.028-.05-.009-.041.021a12.431,12.431,0,0,0,1.513,3.309q0,1.072-.057,2.145c-.1,1.907-.409,3.785-.55,5.686a.043.043,0,0,0,.036.049.042.042,0,0,0,.045-.038,46.341,46.341,0,0,0,.7-5.875Z" transform="translate(-12.462 -49.292)" fill="#263238"/>
            <path id="路径_11178" data-name="路径 11178" d="M19.442,53.009A.012.012,0,0,0,19.433,53,.011.011,0,0,0,19.42,53a.013.013,0,0,0,0,.015c.324.962.509,1.939.744,2.925a.034.034,0,0,0,.038.025.036.036,0,0,0,.028-.037A11.075,11.075,0,0,0,19.442,53.009Z" transform="translate(-13.061 -49.28)" fill="#263238"/>
            <path id="路径_11179" data-name="路径 11179" d="M28.268,57.684a14.681,14.681,0,0,1-.749,1.644,9.244,9.244,0,0,0-1.307,3.508,8.742,8.742,0,0,1-.237,1.757,5.4,5.4,0,0,1-.649,1.375c-.636.99-1.429,1.843-2.017,2.87A12.521,12.521,0,0,0,21.961,72.3a.05.05,0,1,1-.1-.019.044.044,0,0,0,0-.014.028.028,0,0,1,0-.014,26.445,26.445,0,0,1,.929-8.431,30.353,30.353,0,0,1,1.288-3.506,8.285,8.285,0,0,1,1.738-2.676c.486-.477,1.568-1.379,2.27-.9C28.427,56.966,28.4,57.328,28.268,57.684Z" transform="translate(-13.621 -49.92)" fill="#fece55"/>
            <path id="路径_11180" data-name="路径 11180" d="M25.391,64.65a23.41,23.41,0,0,1-1.545,2.374c-.258.359-.519.716-.775,1.075-.122.173-.258.347-.368.52.07-.3.138-.6.209-.9A36.868,36.868,0,0,1,24.1,63.457a29.588,29.588,0,0,1,1.845-3.869c.018-.033-.032-.057-.05-.026-.561.988-1.135,1.975-1.6,3.015a16.782,16.782,0,0,0-.681,1.789,29.305,29.305,0,0,1,.906-3.815c0-.012-.011-.021-.016-.009a13.853,13.853,0,0,0-.941,3.976h0c-.115.369-.221.742-.324,1.117-.418,1.59-.786,3.2-1.135,4.81a18.44,18.44,0,0,1,.256-3.161c0-.024-.029-.029-.034,0a10.652,10.652,0,0,0-.258,3.331q-.193.921-.376,1.842c-.261,1.311-.582,2.644-.735,3.974a.026.026,0,0,0,.02.03A.025.025,0,0,0,21,76.442c.182-.716.292-1.46.441-2.187s.3-1.455.462-2.181q.349-1.587.72-3.166a5.7,5.7,0,0,1,.722-1.053c.261-.347.522-.711.777-1.073a16.051,16.051,0,0,0,1.294-2.11.017.017,0,0,0,0-.023A.014.014,0,0,0,25.391,64.65Z" transform="translate(-13.415 -50.443)" fill="#263238"/>
            <path id="路径_11181" data-name="路径 11181" d="M26.417,64.272A14.923,14.923,0,0,0,24.9,66.84c0,.012.013.024.019.012.508-.851,1.009-1.711,1.516-2.565C26.448,64.274,26.427,64.258,26.417,64.272Z" transform="translate(-14.328 -51.28)" fill="#263238"/>
            <path id="路径_11182" data-name="路径 11182" d="M11.926,60.505a3.371,3.371,0,0,1,.59,2.157c-.094.482-.423.867-.486,1.366-.133,1.086.879,1.8,1.61,2.317,1.829,1.28,4.339,2.422,4.664,5.039.013.092.162.069.152-.021a.056.056,0,0,0,0-.017v-.016a10.713,10.713,0,0,0-.034-3.988A13.193,13.193,0,0,0,16.95,63.6a21.408,21.408,0,0,0-3.923-5.59c-.459-.425-1.4-1.188-1.768-.229C10.91,58.7,11.5,59.732,11.926,60.505Z" transform="translate(-11.154 -50.047)" fill="#fece55"/>
            <path id="路径_11183" data-name="路径 11183" d="M14.327,65.759c1.21,1.4,3.133,2.187,4.176,3.756a16.117,16.117,0,0,0-3.209-6.447.053.053,0,0,1,0-.07.045.045,0,0,1,.066,0,12.773,12.773,0,0,1,2.622,4.061,18.948,18.948,0,0,0-1.135-3.088.034.034,0,0,1,.011-.045.03.03,0,0,1,.042.012A12.279,12.279,0,0,1,18.117,67.4,26.82,26.82,0,0,1,19.33,78.87a.04.04,0,1,1-.079,0,35.383,35.383,0,0,0-.628-8.843c-.013-.061-.029-.12-.042-.173-1.135-1.689-3.05-2.473-4.281-4.077C14.291,65.766,14.311,65.744,14.327,65.759Z" transform="translate(-11.879 -51.053)" fill="#263238"/>
            <path id="路径_11184" data-name="路径 11184" d="M13.953,64.893c.636.624,1.26,1.261,1.9,1.883,0,0,0,.019-.01.014a9.55,9.55,0,0,1-1.928-1.857.031.031,0,0,1,0-.041A.026.026,0,0,1,13.953,64.893Z" transform="translate(-11.789 -51.39)" fill="#263238"/>
            <path id="路径_11185" data-name="路径 11185" d="M13.825,61.611a21.418,21.418,0,0,0,1.9,2.8.013.013,0,0,1,0,.017.011.011,0,0,1-.016,0,9.811,9.811,0,0,1-1.918-2.792A.022.022,0,0,1,13.8,61.6a.019.019,0,0,1,.027.008Z" transform="translate(-11.762 -50.807)" fill="#263238"/>
            <path id="路径_11186" data-name="路径 11186" d="M7.1,75.235h5.564l-.749-8.006H7.961Z" transform="translate(-2.181 -44.773)" fill="#455a64"/>
            <path id="路径_11187" data-name="路径 11187" d="M8.037,68.531h4.219l-.122-1.3H8.176Z" transform="translate(-2.396 -44.773)" fill="#263238"/>
            <rect id="矩形_20031" data-name="矩形 20031" width="5.217" height="1.278" transform="translate(10.314 22.848) rotate(180)" fill="#455a64"/>
          </g>
          <g id="freepik--Device--inject-5" transform="translate(49.249)">
            <rect id="矩形_20032" data-name="矩形 20032" width="87.488" height="62.59" rx="2.717" fill="#616262"/>
            <line id="直线_1311" data-name="直线 1311" y1="0.145" transform="translate(11.516 2.568)" fill="none"/>
            <rect id="矩形_20033" data-name="矩形 20033" width="75.295" height="57.235" transform="translate(6.125 2.642)" fill="#fff"/>
            <rect id="矩形_20034" data-name="矩形 20034" width="0.91" height="13.621" rx="0.264" transform="translate(3.099 24.484)" fill="#455a64"/>
            <path id="路径_12930" data-name="路径 12930" d="M1.755-.026A1.646,1.646,0,0,1,3.484,1.6,1.77,1.77,0,0,1,1.7,3.28,1.646,1.646,0,0,1-.026,1.653,1.77,1.77,0,0,1,1.755-.026Z" transform="matrix(0.231, -0.973, 0.973, 0.231, 82.4, 32.605)" fill="#455a64"/>
            <rect id="矩形_20035" data-name="矩形 20035" width="75.295" height="57.235" transform="translate(6.125 2.642)" fill="#fff"/>
            <rect id="矩形_20036" data-name="矩形 20036" width="75.295" height="1.967" transform="translate(6.125 2.642)" fill="#455a64"/>
            <path id="路径_11189" data-name="路径 11189" d="M36.567,19.676a.377.377,0,1,1-.378-.4.364.364,0,0,1,.267.117.417.417,0,0,1,.111.285Z" transform="translate(-28.992 -16.052)" fill="#c7c7c7"/>
            <ellipse id="椭圆_733" data-name="椭圆 733" cx="0.376" cy="0.402" rx="0.376" ry="0.402" transform="translate(8.362 3.222)" fill="#fff"/>
            <ellipse id="椭圆_734" data-name="椭圆 734" cx="0.376" cy="0.402" rx="0.376" ry="0.402" transform="translate(9.901 3.222)" fill="#fece55"/>
            <rect id="矩形_20037" data-name="矩形 20037" width="4.909" height="4.079" transform="translate(11.318 35.356)" fill="#fece55"/>
            <rect id="矩形_20038" data-name="矩形 20038" width="4.909" height="4.079" transform="translate(11.318 35.356)" fill="#fff" opacity="0.6"/>
            <rect id="矩形_20039" data-name="矩形 20039" width="4.909" height="4.079" transform="translate(17.743 35.356)" fill="#ebebeb"/>
            <rect id="矩形_20040" data-name="矩形 20040" width="4.909" height="4.079" transform="translate(24.21 35.356)" fill="#ebebeb"/>
            <rect id="矩形_20041" data-name="矩形 20041" width="4.909" height="4.079" transform="translate(30.656 35.356)" fill="#ebebeb"/>
            <rect id="矩形_20042" data-name="矩形 20042" width="4.909" height="4.079" transform="translate(37.102 35.356)" fill="#ebebeb"/>
            <rect id="矩形_20043" data-name="矩形 20043" width="4.909" height="4.079" transform="translate(43.547 35.356)" fill="#fece55"/>
            <rect id="矩形_20044" data-name="矩形 20044" width="4.909" height="4.079" transform="translate(43.547 35.356)" fill="#fff" opacity="0.6"/>
            <rect id="矩形_20045" data-name="矩形 20045" width="4.909" height="4.079" transform="translate(49.993 35.356)" fill="#ebebeb"/>
            <rect id="矩形_20046" data-name="矩形 20046" width="4.909" height="4.079" transform="translate(11.318 41.006)" fill="#fece55"/>
            <rect id="矩形_20047" data-name="矩形 20047" width="4.909" height="4.079" transform="translate(11.318 41.006)" fill="#fff" opacity="0.6"/>
            <rect id="矩形_20048" data-name="矩形 20048" width="4.909" height="4.079" transform="translate(17.764 41.006)" fill="#ebebeb"/>
            <rect id="矩形_20049" data-name="矩形 20049" width="4.909" height="4.079" transform="translate(24.21 41.006)" fill="#ebebeb"/>
            <rect id="矩形_20050" data-name="矩形 20050" width="4.909" height="4.079" transform="translate(30.656 41.006)" fill="#ebebeb"/>
            <rect id="矩形_20051" data-name="矩形 20051" width="4.909" height="4.079" transform="translate(37.102 41.006)" fill="#ebebeb"/>
            <rect id="矩形_20052" data-name="矩形 20052" width="4.909" height="4.079" transform="translate(43.547 41.006)" fill="#ebebeb"/>
            <rect id="矩形_20053" data-name="矩形 20053" width="4.909" height="4.079" transform="translate(49.993 41.006)" fill="#ebebeb"/>
            <rect id="矩形_20054" data-name="矩形 20054" width="4.909" height="4.079" transform="translate(30.656 29.709)" fill="#ebebeb"/>
            <rect id="矩形_20055" data-name="矩形 20055" width="4.909" height="4.079" transform="translate(37.102 29.709)" fill="#ebebeb"/>
            <rect id="矩形_20056" data-name="矩形 20056" width="4.909" height="4.079" transform="translate(43.547 29.709)" fill="#ebebeb"/>
            <rect id="矩形_20057" data-name="矩形 20057" width="4.909" height="4.079" transform="translate(49.993 29.709)" fill="#ebebeb"/>
            <rect id="矩形_20058" data-name="矩形 20058" width="4.909" height="4.079" transform="translate(11.318 46.656)" fill="#fece55"/>
            <rect id="矩形_20059" data-name="矩形 20059" width="4.909" height="4.079" transform="translate(11.318 46.656)" fill="#fff" opacity="0.6"/>
            <rect id="矩形_20060" data-name="矩形 20060" width="4.909" height="4.079" transform="translate(17.764 46.656)" fill="#ebebeb"/>
            <rect id="矩形_20061" data-name="矩形 20061" width="4.909" height="4.079" transform="translate(24.21 46.656)" fill="#ebebeb"/>
            <rect id="矩形_20062" data-name="矩形 20062" width="4.909" height="4.079" transform="translate(30.656 46.656)" fill="#fece55"/>
            <rect id="矩形_20063" data-name="矩形 20063" width="4.909" height="4.079" transform="translate(30.656 46.656)" fill="#fff" opacity="0.6"/>
            <rect id="矩形_20064" data-name="矩形 20064" width="4.909" height="4.079" transform="translate(37.102 46.656)" fill="#ebebeb"/>
            <rect id="矩形_20065" data-name="矩形 20065" width="4.909" height="4.079" transform="translate(43.547 46.656)" fill="#ebebeb"/>
            <rect id="矩形_20066" data-name="矩形 20066" width="4.909" height="4.079" transform="translate(49.993 46.656)" fill="#ebebeb"/>
            <rect id="矩形_20067" data-name="矩形 20067" width="4.909" height="4.079" transform="translate(11.318 52.303)" fill="#fece55"/>
            <rect id="矩形_20068" data-name="矩形 20068" width="4.909" height="4.079" transform="translate(11.318 52.303)" fill="#fff" opacity="0.6"/>
            <rect id="矩形_20069" data-name="矩形 20069" width="4.909" height="4.079" transform="translate(17.764 52.303)" fill="#ebebeb"/>
            <rect id="矩形_20070" data-name="矩形 20070" width="4.909" height="4.079" transform="translate(24.21 52.303)" fill="#ebebeb"/>
            <rect id="矩形_20071" data-name="矩形 20071" width="4.909" height="4.079" transform="translate(30.656 52.303)" fill="#ebebeb"/>
            <rect id="矩形_20072" data-name="矩形 20072" width="4.909" height="4.079" transform="translate(37.102 52.303)" fill="#ebebeb"/>
            <path id="路径_11190" data-name="路径 11190" d="M43.33,45.362a.16.16,0,0,1,.11-.062.156.156,0,0,1,.119.04,1.012,1.012,0,0,0,.606.261.648.648,0,0,0,.4-.127.31.31,0,0,0,.136-.244.2.2,0,0,0-.03-.108.288.288,0,0,0-.094-.1,1.228,1.228,0,0,0-.435-.159h0a1.62,1.62,0,0,1-.408-.132.678.678,0,0,1-.3-.265.541.541,0,0,1-.072-.276.639.639,0,0,1,.253-.5.9.9,0,0,1,.548-.179,1.2,1.2,0,0,1,.691.27.183.183,0,0,1,.044.24.161.161,0,0,1-.1.077.152.152,0,0,1-.123-.026.881.881,0,0,0-.509-.215.579.579,0,0,0-.353.115.272.272,0,0,0-.12.214.177.177,0,0,0,.023.094.323.323,0,0,0,.085.087,1.058,1.058,0,0,0,.4.149h0a1.8,1.8,0,0,1,.436.142.762.762,0,0,1,.316.282.576.576,0,0,1,.076.287.664.664,0,0,1-.272.525.938.938,0,0,1-.585.189,1.314,1.314,0,0,1-.811-.338.186.186,0,0,1-.025-.244Z" transform="translate(-30.203 -18.567)" fill="#fece55"/>
            <path id="路径_11191" data-name="路径 11191" d="M52.568,43.774v2a.177.177,0,1,1-.353,0V44.347l-.456.676a.174.174,0,0,1-.143.079h0a.173.173,0,0,1-.145-.079l-.452-.676v1.425a.177.177,0,1,1-.353,0v-2a.183.183,0,0,1,.177-.189h.011a.173.173,0,0,1,.14.077l.629.945.631-.945a.173.173,0,0,1,.141-.077h0A.183.183,0,0,1,52.568,43.774Z" transform="translate(-31.395 -18.574)" fill="#fece55"/>
            <path id="路径_11192" data-name="路径 11192" d="M60.144,43.965h-.5v1.806a.177.177,0,1,1-.353,0V43.965h-.5a.189.189,0,0,1,0-.378h1.352a.19.19,0,0,1,.007.378Z" transform="translate(-32.681 -18.574)" fill="#fece55"/>
            <path id="路径_11193" data-name="路径 11193" d="M68.26,43.872l-.776,1.975a.118.118,0,0,1-.016.03h0a.164.164,0,0,1-.016.021v.009l-.021.017h0c-.011,0-.016.017-.028.021h-.025a.083.083,0,0,1-.032,0,.073.073,0,0,1-.028,0h-.057a.063.063,0,0,1-.03-.021h0c-.011,0-.016-.013-.023-.017a.018.018,0,0,1,0-.009.149.149,0,0,1-.014-.021h0a.057.057,0,0,1-.012-.03L66.754,44.8l-.415,1.049a.248.248,0,0,1-.012.03h0l-.019.021v.009a.086.086,0,0,0-.019.017h0a.2.2,0,0,1-.025.021h0a.043.043,0,0,0-.025,0h-.009a.078.078,0,0,1-.028,0,.086.086,0,0,1-.032,0h-.032a.1.1,0,0,1-.028-.021h0a.09.09,0,0,0-.021-.017V45.9l-.016-.021h0a.038.038,0,0,0-.016-.03l-.779-1.975a.194.194,0,0,1,.1-.24.173.173,0,0,1,.224.1l.622,1.568.408-1.039a.175.175,0,0,1,.329,0l.408,1.039.618-1.568a.173.173,0,0,1,.186-.093A.194.194,0,0,1,68.26,43.872Z" transform="translate(-33.758 -18.578)" fill="#fece55"/>
            <path id="路径_11194" data-name="路径 11194" d="M75.388,43.965h-.512v1.806a.177.177,0,1,1-.353,0V43.965h-.495a.189.189,0,0,1,0-.378h1.361a.189.189,0,0,1,0,.378Z" transform="translate(-35.148 -18.574)" fill="#fece55"/>
            <path id="路径_11195" data-name="路径 11195" d="M81.8,45.772v-2a.183.183,0,0,1,.177-.189h1.035a.189.189,0,0,1,0,.378h-.859v.616h.739a.189.189,0,0,1,0,.378h-.739v.812a.177.177,0,1,1-.353,0Z" transform="translate(-36.434 -18.574)" fill="#fece55"/>
            <path id="路径_11196" data-name="路径 11196" d="M89.244,45.362a.157.157,0,0,1,.231-.023,1.007,1.007,0,0,0,.6.261.648.648,0,0,0,.4-.127.306.306,0,0,0,.136-.244.215.215,0,0,0-.028-.108.315.315,0,0,0-.1-.1,1.228,1.228,0,0,0-.435-.159h0a1.642,1.642,0,0,1-.408-.132.7.7,0,0,1-.3-.265.541.541,0,0,1-.072-.276.639.639,0,0,1,.253-.5.9.9,0,0,1,.548-.179,1.2,1.2,0,0,1,.691.27.181.181,0,0,1,.044.24.16.16,0,0,1-.1.077.151.151,0,0,1-.122-.026.886.886,0,0,0-.511-.215.582.582,0,0,0-.353.115.272.272,0,0,0-.12.214.177.177,0,0,0,.023.094.323.323,0,0,0,.085.087,1.07,1.07,0,0,0,.4.149h0a1.774,1.774,0,0,1,.436.142.751.751,0,0,1,.316.282.577.577,0,0,1,.076.287.664.664,0,0,1-.272.525.938.938,0,0,1-.585.189,1.314,1.314,0,0,1-.811-.338.2.2,0,0,1-.025-.244Z" transform="translate(-37.634 -18.567)" fill="#fece55"/>
            <path id="路径_11197" data-name="路径 11197" d="M43.637,58.019a.056.056,0,0,1,0-.076.051.051,0,0,1,.072,0,.358.358,0,0,0,.53,0,.427.427,0,0,0,0-.567.364.364,0,0,0-.53,0,.046.046,0,0,1-.069,0,.028.028,0,0,1-.012-.017h0a.044.044,0,0,1,0-.017.089.089,0,0,0,0-.009l.067-.607a.06.06,0,0,1,.053-.051H44.4a.05.05,0,0,1,.052.024.058.058,0,0,1,0,.061.05.05,0,0,1-.052.024h-.611l-.051.446a.452.452,0,0,1,.24-.068.459.459,0,0,1,.335.149.525.525,0,0,1,.138.359.519.519,0,0,1-.14.361.456.456,0,0,1-.675,0Z" transform="translate(-30.256 -19.932)" fill="#263238"/>
            <path id="路径_11198" data-name="路径 11198" d="M51.351,56.992a.563.563,0,0,1,.491-.327.046.046,0,0,1,.034.014.053.053,0,0,1,.015.036.055.055,0,0,1-.048.057.473.473,0,0,0-.41.272,1.081,1.081,0,0,0-.1.3.442.442,0,0,1,.583-.1.512.512,0,0,1,.2.594.46.46,0,0,1-.508.32.485.485,0,0,1-.39-.474.9.9,0,0,1,0-.1,1.3,1.3,0,0,1,.134-.6Zm-.035.688a.119.119,0,0,0,0,.026.034.034,0,0,1,0,.015.387.387,0,0,0,.388.377.4.4,0,0,0,0-.8.387.387,0,0,0-.388.377Z" transform="translate(-31.484 -19.931)" fill="#263238"/>
            <path id="路径_11199" data-name="路径 11199" d="M59.16,58.093l.521-1.323H59a.054.054,0,0,1,0-.1h.744a.043.043,0,0,1,.035.005.049.049,0,0,1,.021.031.048.048,0,0,1,0,.017.046.046,0,0,1,0,.026l-.544,1.385a.053.053,0,0,1-.046.032.028.028,0,0,1-.019,0,.052.052,0,0,1-.03-.028A.058.058,0,0,1,59.16,58.093Z" transform="translate(-32.738 -19.931)" fill="#263238"/>
            <path id="路径_11200" data-name="路径 11200" d="M66.953,56.663a.3.3,0,0,1,.293.312.329.329,0,0,1-.12.253.5.5,0,0,1,.27.546.451.451,0,0,1-.894,0,.5.5,0,0,1,.27-.546.328.328,0,0,1-.117-.253.323.323,0,0,1,.087-.223A.282.282,0,0,1,66.953,56.663Zm0,1.4a.379.379,0,1,0-.353-.378A.366.366,0,0,0,66.953,58.063Zm0-.877a.207.207,0,0,0,.2-.212.2.2,0,0,0-.2-.21.187.187,0,0,0-.139.061.214.214,0,0,0-.056.149.2.2,0,0,0,.194.212Z" transform="translate(-33.957 -19.931)" fill="#263238"/>
            <path id="路径_11201" data-name="路径 11201" d="M74.734,56.663a.473.473,0,0,1,.461.438.027.027,0,0,0,0,.009q0,.062,0,.13a1.333,1.333,0,0,1-.134.6.584.584,0,0,1-.493.327h0a.046.046,0,0,1-.035-.014.053.053,0,0,1-.015-.037.053.053,0,0,1,.048-.055.48.48,0,0,0,.41-.272,1.057,1.057,0,0,0,.1-.3.444.444,0,0,1-.563.115.509.509,0,0,1-.239-.557.472.472,0,0,1,.449-.381Zm.368.493a.394.394,0,0,0-.226-.364.35.35,0,0,0-.4.084.413.413,0,0,0-.08.429.368.368,0,0,0,.34.243.352.352,0,0,0,.26-.113.4.4,0,0,0,.107-.278Z" transform="translate(-35.214 -19.931)" fill="#263238"/>
            <path id="路径_11202" data-name="路径 11202" d="M81.9,56.815l-.2.123a.04.04,0,0,1-.025,0,.051.051,0,0,1-.042-.026.052.052,0,0,1-.006-.039.049.049,0,0,1,.023-.031l.272-.176a.048.048,0,0,1,.065.019.058.058,0,0,1,0,.038V58.1a.049.049,0,1,1-.1,0Z" transform="translate(-36.406 -19.93)" fill="#263238"/>
            <path id="路径_11203" data-name="路径 11203" d="M82.505,57.414a1.009,1.009,0,0,1,.134-.527.388.388,0,0,1,.707,0,1.027,1.027,0,0,1,.136.527,1.008,1.008,0,0,1-.136.523.385.385,0,0,1-.707,0A.994.994,0,0,1,82.505,57.414Zm.1,0a.893.893,0,0,0,.118.465.289.289,0,0,0,.53,0,.951.951,0,0,0,0-.932.29.29,0,0,0-.53,0A.9.9,0,0,0,82.6,57.414Z" transform="translate(-36.548 -19.93)" fill="#263238"/>
            <path id="路径_11204" data-name="路径 11204" d="M89.859,56.815l-.2.123a.035.035,0,0,1-.023,0,.047.047,0,0,1-.042-.026.052.052,0,0,1-.006-.039.049.049,0,0,1,.023-.031l.27-.176a.049.049,0,0,1,.067.019.07.07,0,0,1,0,.038V58.1a.053.053,0,0,1-.013.037.046.046,0,0,1-.034.016.051.051,0,0,1-.048-.053Z" transform="translate(-37.694 -19.93)" fill="#263238"/>
            <path id="路径_11205" data-name="路径 11205" d="M90.662,56.815l-.2.123a.035.035,0,0,1-.023,0,.047.047,0,0,1-.042-.026.052.052,0,0,1-.006-.039.049.049,0,0,1,.023-.031l.27-.176a.049.049,0,0,1,.067.019.071.071,0,0,1,0,.038V58.1a.053.053,0,0,1-.013.037.046.046,0,0,1-.034.016.051.051,0,0,1-.048-.053Z" transform="translate(-37.824 -19.93)" fill="#263238"/>
            <path id="路径_11206" data-name="路径 11206" d="M67.084,50.4l-.2.125a.055.055,0,0,1-.025,0,.049.049,0,0,1-.042-.025.054.054,0,0,1-.006-.04.051.051,0,0,1,.023-.032l.272-.176a.048.048,0,0,1,.065.019.065.065,0,0,1,0,.04v1.381a.049.049,0,1,1-.1,0Z" transform="translate(-34.008 -19.265)" fill="#263238"/>
            <path id="路径_11207" data-name="路径 11207" d="M74.313,51.662l.656-.633a.4.4,0,0,0,.122-.289.377.377,0,0,0-.362-.378.356.356,0,0,0-.246.1l-.067.066a.044.044,0,0,1-.069,0,.052.052,0,0,1,0-.072l.069-.07a.455.455,0,0,1,.311-.127.44.44,0,0,1,.338.161.5.5,0,0,1,.12.329.513.513,0,0,1-.15.367l-.562.542h.664a.048.048,0,0,1,.034.017.055.055,0,0,1,.013.038.051.051,0,0,1-.048.051h-.79a.039.039,0,0,1-.035-.015.057.057,0,0,1,0-.085Z" transform="translate(-35.219 -19.266)" fill="#263238"/>
            <path id="路径_11208" data-name="路径 11208" d="M82.966,50.345l-.364.406a.461.461,0,0,1,.24.136.527.527,0,0,1,.14.361.513.513,0,0,1-.141.361.459.459,0,0,1-.338.151.454.454,0,0,1-.336-.151.053.053,0,0,1,0-.074.046.046,0,0,1,.071,0,.364.364,0,0,0,.53,0,.419.419,0,0,0,.111-.287.411.411,0,0,0-.111-.283.354.354,0,0,0-.265-.117.047.047,0,0,1-.039-.023h0a.055.055,0,0,1,0-.076l.353-.378h-.53a.048.048,0,0,1-.036-.015.055.055,0,0,1-.015-.038.053.053,0,0,1,.051-.055h.656a.053.053,0,0,1,.051.055.034.034,0,0,1,0,.023.032.032,0,0,1-.028,0Z" transform="translate(-36.491 -19.267)" fill="#263238"/>
            <path id="路径_11209" data-name="路径 11209" d="M90.394,51.446h-.767a.041.041,0,0,1-.03,0,.054.054,0,0,1,0-.074l.815-1.083h0a.042.042,0,0,1,.067,0,.07.07,0,0,1,.016.026h0v1.037h.1a.051.051,0,0,1,0,.1h-.1V51.7a.049.049,0,0,1-.1,0Zm0-.1v-.881l-.664.881Z" transform="translate(-37.694 -19.268)" fill="#263238"/>
            <path id="路径_11210" data-name="路径 11210" d="M43.307,69.361l-.2.125a.049.049,0,0,1-.023.009.047.047,0,0,1-.042-.026.05.05,0,0,1-.006-.039.046.046,0,0,1,.024-.031l.272-.178a.05.05,0,0,1,.065.021.056.056,0,0,1,0,.038v1.389a.051.051,0,0,1-.013.037.044.044,0,0,1-.034.014.049.049,0,0,1-.048-.051Z" transform="translate(-30.16 -21.233)" fill="#263238"/>
            <path id="路径_11211" data-name="路径 11211" d="M44.378,69.209a.475.475,0,0,1,.463.436v.14a1.3,1.3,0,0,1-.134.6.573.573,0,0,1-.491.327h0a.046.046,0,0,1-.035-.013.053.053,0,0,1-.016-.036.053.053,0,0,1,.048-.055.475.475,0,0,0,.41-.274.949.949,0,0,0,.1-.3.445.445,0,0,1-.353.166.5.5,0,0,1,0-.99Zm.368.493a.367.367,0,1,0-.368.391.352.352,0,0,0,.259-.114.4.4,0,0,0,.107-.277Z" transform="translate(-30.301 -21.232)" fill="#263238"/>
            <path id="路径_11212" data-name="路径 11212" d="M50.449,70.618l.656-.633a.39.39,0,0,0,.122-.287.4.4,0,0,0-.1-.259.348.348,0,0,0-.512-.026l-.067.066a.048.048,0,0,1-.051.02.052.052,0,0,1-.037-.042.055.055,0,0,1,.021-.053l.069-.068a.45.45,0,0,1,.311-.127.478.478,0,0,1,.458.489.509.509,0,0,1-.15.365l-.562.544h.668a.054.054,0,0,1,0,.1h-.8a.039.039,0,0,1-.035-.015A.058.058,0,0,1,50.449,70.618Z" transform="translate(-31.358 -21.232)" fill="#263238"/>
            <path id="路径_11213" data-name="路径 11213" d="M51.892,69.958a1.025,1.025,0,0,1,.134-.525.388.388,0,0,1,.707,0,1.069,1.069,0,0,1,0,1.051.386.386,0,0,1-.707,0,1.015,1.015,0,0,1-.134-.525Zm.1,0a.9.9,0,0,0,.118.467.29.29,0,0,0,.53,0,.963.963,0,0,0,0-.932.29.29,0,0,0-.53,0,.893.893,0,0,0-.118.465Z" transform="translate(-31.594 -21.232)" fill="#263238"/>
            <path id="路径_11214" data-name="路径 11214" d="M58.564,70.618l.657-.633a.4.4,0,0,0,.109-.431.353.353,0,0,0-.352-.241.341.341,0,0,0-.244.1l-.069.066a.046.046,0,0,1-.069,0,.051.051,0,0,1,0-.074l.067-.068a.45.45,0,0,1,.311-.127.48.48,0,0,1,.459.489.511.511,0,0,1-.152.365l-.562.544h.664a.048.048,0,0,1,.051.023.056.056,0,0,1,0,.059.048.048,0,0,1-.051.023H58.6a.039.039,0,0,1-.035-.015A.062.062,0,0,1,58.564,70.618Z" transform="translate(-32.671 -21.233)" fill="#263238"/>
            <path id="路径_11215" data-name="路径 11215" d="M60.2,69.361l-.2.125a.049.049,0,0,1-.023.009.047.047,0,0,1-.042-.026.05.05,0,0,1-.006-.039.047.047,0,0,1,.024-.031l.27-.178a.051.051,0,0,1,.067.021.056.056,0,0,1,0,.038v1.389a.051.051,0,0,1-.013.037.044.044,0,0,1-.034.014.049.049,0,0,1-.048-.051Z" transform="translate(-32.895 -21.233)" fill="#263238"/>
            <path id="路径_11216" data-name="路径 11216" d="M65.809,70.619l.657-.633a.4.4,0,0,0,.022-.543.343.343,0,0,0-.508-.024l-.069.066a.044.044,0,0,1-.067,0,.051.051,0,0,1,0-.074l.069-.068a.443.443,0,0,1,.311-.127.478.478,0,0,1,.458.489.515.515,0,0,1-.15.365l-.564.544h.666a.054.054,0,0,1,0,.1h-.792a.044.044,0,0,1-.037-.015.061.061,0,0,1-.015-.043A.06.06,0,0,1,65.809,70.619Z" transform="translate(-33.843 -21.233)" fill="#263238"/>
            <path id="路径_11217" data-name="路径 11217" d="M67.223,70.619l.657-.633a.4.4,0,0,0,.022-.543.343.343,0,0,0-.508-.024l-.069.066a.044.044,0,0,1-.067,0,.051.051,0,0,1,0-.074l.069-.068a.446.446,0,0,1,.311-.127.478.478,0,0,1,.458.489.515.515,0,0,1-.15.365l-.564.544h.666a.054.054,0,0,1,0,.1h-.792a.044.044,0,0,1-.037-.015.061.061,0,0,1,0-.085Z" transform="translate(-34.072 -21.233)" fill="#263238"/>
            <path id="路径_11218" data-name="路径 11218" d="M73.61,70.618l.657-.633a.4.4,0,0,0,.12-.287.389.389,0,0,0-.216-.353.344.344,0,0,0-.39.068l-.069.066a.048.048,0,0,1-.051.02.052.052,0,0,1-.037-.042.055.055,0,0,1,.021-.053l.069-.068a.45.45,0,0,1,.311-.127.478.478,0,0,1,.458.489.509.509,0,0,1-.15.365l-.562.544h.664a.054.054,0,0,1,0,.1h-.792a.039.039,0,0,1-.035-.015.062.062,0,0,1,0-.077Z" transform="translate(-35.106 -21.232)" fill="#263238"/>
            <path id="路径_11219" data-name="路径 11219" d="M75.887,69.3l-.364.4a.489.489,0,0,1,.36.353.533.533,0,0,1-.122.506.462.462,0,0,1-.338.149.452.452,0,0,1-.334-.149.053.053,0,0,1,0-.076.046.046,0,0,1,.069,0,.367.367,0,0,0,.534,0,.417.417,0,0,0,.11-.285.405.405,0,0,0-.11-.283.36.36,0,0,0-.265-.119.052.052,0,0,1-.041-.021h0a.055.055,0,0,1,0-.077l.353-.378h-.53a.053.053,0,0,1,0-.106h.657a.051.051,0,0,1,.049.053.048.048,0,0,1,0,.023Z" transform="translate(-35.346 -21.233)" fill="#263238"/>
            <path id="路径_11220" data-name="路径 11220" d="M81.356,70.618l.657-.633a.4.4,0,0,0,.12-.287.389.389,0,0,0-.216-.353.344.344,0,0,0-.39.068l-.069.066a.048.048,0,0,1-.051.02.052.052,0,0,1-.037-.042.055.055,0,0,1,.021-.053l.069-.068a.45.45,0,0,1,.311-.127.478.478,0,0,1,.458.489.509.509,0,0,1-.15.365l-.562.544h.664a.054.054,0,0,1,0,.1h-.792a.039.039,0,0,1-.035-.015A.062.062,0,0,1,81.356,70.618Z" transform="translate(-36.36 -21.232)" fill="#263238"/>
            <path id="路径_11221" data-name="路径 11221" d="M83.508,70.4h-.767a.042.042,0,0,1-.03-.011.051.051,0,0,1,0-.074l.813-1.083h0a.044.044,0,0,1,.067,0,.053.053,0,0,1,.016.025.041.041,0,0,0,0,.009v1.037h.1a.048.048,0,0,1,.051.023.056.056,0,0,1,0,.059.048.048,0,0,1-.051.023h-.1v.257a.049.049,0,0,1-.1,0Zm0-.1V69.42l-.666.881Z" transform="translate(-36.579 -21.234)" fill="#263238"/>
            <path id="路径_11222" data-name="路径 11222" d="M89,70.619l.657-.633a.4.4,0,0,0,.022-.543.343.343,0,0,0-.508-.024l-.069.066a.044.044,0,0,1-.067,0,.051.051,0,0,1,0-.074l.067-.068a.45.45,0,0,1,.313-.127.478.478,0,0,1,.458.489.511.511,0,0,1-.152.365l-.562.544h.664a.048.048,0,0,1,.051.023.056.056,0,0,1,0,.059.048.048,0,0,1-.051.023h-.79A.044.044,0,0,1,89,70.7a.061.061,0,0,1-.015-.043A.06.06,0,0,1,89,70.619Z" transform="translate(-37.596 -21.233)" fill="#263238"/>
            <path id="路径_11223" data-name="路径 11223" d="M90.457,70.566a.053.053,0,0,1,0-.076.047.047,0,0,1,.071,0,.366.366,0,0,0,.265.115.381.381,0,0,0,.367-.3.414.414,0,0,0-.176-.455.358.358,0,0,0-.456.068.046.046,0,0,1-.069,0,.026.026,0,0,1-.016-.008h0a.05.05,0,0,1,0-.017.073.073,0,0,0,0-.011l.067-.6a.05.05,0,0,1,.021-.04.044.044,0,0,1,.032-.011h.656a.051.051,0,0,1,.049.053.053.053,0,0,1-.014.038.046.046,0,0,1-.036.015H90.6l-.051.448a.454.454,0,0,1,.24-.07.5.5,0,0,1,.474.51.519.519,0,0,1-.14.361.47.47,0,0,1-.338.147A.461.461,0,0,1,90.457,70.566Z" transform="translate(-37.833 -21.235)" fill="#263238"/>
            <path id="路径_11224" data-name="路径 11224" d="M42.836,76.848l.657-.633a.408.408,0,0,0,.12-.289.393.393,0,0,0-.094-.257.352.352,0,0,0-.267-.127.356.356,0,0,0-.246.1l-.069.066a.046.046,0,0,1-.064-.005.054.054,0,0,1,0-.069l.067-.07a.458.458,0,0,1,.313-.127.436.436,0,0,1,.338.161.5.5,0,0,1,.12.329.515.515,0,0,1-.152.367L43,76.835h.664a.053.053,0,0,1,0,.106h-.79a.049.049,0,0,1-.049-.033.055.055,0,0,1,.013-.06Z" transform="translate(-30.126 -21.878)" fill="#263238"/>
            <path id="路径_11225" data-name="路径 11225" d="M44.415,75.765a.57.57,0,0,1,.491-.327.051.051,0,0,1,.051.049.055.055,0,0,1-.048.057.471.471,0,0,0-.41.272.988.988,0,0,0-.1.3.442.442,0,0,1,.583-.1.512.512,0,0,1,.2.594.46.46,0,0,1-.508.32.485.485,0,0,1-.39-.474.9.9,0,0,1,0-.1,1.294,1.294,0,0,1,.133-.6Zm-.034.688a.155.155,0,0,0,0,.028.044.044,0,0,1,0,.015.387.387,0,0,0,.388.376.4.4,0,0,0,0-.8.387.387,0,0,0-.388.376Z" transform="translate(-30.362 -21.879)" fill="#263238"/>
            <path id="路径_11226" data-name="路径 11226" d="M50.594,76.848l.657-.633a.408.408,0,0,0,.12-.289.392.392,0,0,0-.1-.257.348.348,0,0,0-.511-.028l-.069.066a.044.044,0,0,1-.069,0,.051.051,0,0,1,0-.072l.069-.07a.458.458,0,0,1,.311-.127.478.478,0,0,1,.458.489.513.513,0,0,1-.15.367l-.562.542h.664a.053.053,0,0,1,0,.106h-.792a.044.044,0,0,1-.035-.015.062.062,0,0,1,0-.079Z" transform="translate(-31.381 -21.879)" fill="#263238"/>
            <path id="路径_11227" data-name="路径 11227" d="M52.208,76.867l.53-1.323h-.68a.051.051,0,0,1,0-.1H52.8a.055.055,0,0,1,.03,0,.052.052,0,0,1,.027.032.049.049,0,0,1,0,.017.052.052,0,0,1,0,.028L52.314,76.9a.053.053,0,0,1-.044.032.03.03,0,0,1-.021,0A.059.059,0,0,1,52.208,76.867Z" transform="translate(-31.613 -21.879)" fill="#263238"/>
            <path id="路径_11228" data-name="路径 11228" d="M58.213,76.848l.657-.633a.408.408,0,0,0,.12-.289.393.393,0,0,0-.094-.257.352.352,0,0,0-.267-.127.356.356,0,0,0-.246.1l-.069.066a.046.046,0,0,1-.048.016.05.05,0,0,1-.035-.039.053.053,0,0,1,.017-.05l.067-.07a.458.458,0,0,1,.313-.127.436.436,0,0,1,.337.161.5.5,0,0,1,.12.329.519.519,0,0,1-.15.367l-.564.542h.666a.053.053,0,0,1,0,.106h-.792a.049.049,0,0,1-.049-.033.055.055,0,0,1,.013-.06Z" transform="translate(-32.614 -21.878)" fill="#263238"/>
            <path id="路径_11229" data-name="路径 11229" d="M60.091,75.436a.293.293,0,0,1,.286.213.324.324,0,0,1-.109.354.5.5,0,0,1,.27.546.451.451,0,0,1-.894,0,.5.5,0,0,1,.27-.546.334.334,0,0,1-.032-.476.28.28,0,0,1,.208-.091Zm0,1.4a.379.379,0,1,0-.353-.378A.366.366,0,0,0,60.091,76.837Zm0-.877a.207.207,0,0,0,.2-.212.2.2,0,1,0-.2.212Z" transform="translate(-32.847 -21.878)" fill="#263238"/>
            <path id="路径_11230" data-name="路径 11230" d="M65.758,76.848l.657-.633a.4.4,0,0,0,.12-.289.393.393,0,0,0-.094-.257.352.352,0,0,0-.267-.127.356.356,0,0,0-.246.1l-.069.066a.042.042,0,0,1-.067,0,.049.049,0,0,1,0-.072l.069-.07a.455.455,0,0,1,.311-.127.435.435,0,0,1,.338.161.5.5,0,0,1,.12.329.513.513,0,0,1-.15.367l-.564.542h.666a.053.053,0,0,1,0,.106h-.792a.049.049,0,0,1-.049-.033.055.055,0,0,1,.013-.06Z" transform="translate(-33.835 -21.879)" fill="#263238"/>
            <path id="路径_11231" data-name="路径 11231" d="M67.67,75.436a.473.473,0,0,1,.461.438.067.067,0,0,0,0,.011v.128a1.322,1.322,0,0,1-.134.6.584.584,0,0,1-.493.327h0a.046.046,0,0,1-.034-.014.053.053,0,0,1-.015-.036.054.054,0,0,1,.048-.057.473.473,0,0,0,.41-.272,1.065,1.065,0,0,0,.1-.3.444.444,0,0,1-.562.112.509.509,0,0,1-.238-.556.473.473,0,0,1,.447-.382Zm.368.5a.4.4,0,0,0-.224-.366.35.35,0,0,0-.4.083.413.413,0,0,0-.081.429.368.368,0,0,0,.34.244.352.352,0,0,0,.26-.113.4.4,0,0,0,.108-.277Z" transform="translate(-34.071 -21.878)" fill="#263238"/>
            <path id="路径_11232" data-name="路径 11232" d="M74.379,75.531l-.364.4a.461.461,0,0,1,.24.136.527.527,0,0,1,.14.361.513.513,0,0,1-.141.361.464.464,0,0,1-.338.151.454.454,0,0,1-.336-.151.056.056,0,0,1,0-.076.048.048,0,0,1,.071,0,.361.361,0,0,0,.53,0,.419.419,0,0,0,0-.569.354.354,0,0,0-.265-.117.047.047,0,0,1-.039-.023h0a.06.06,0,0,1,0-.077l.353-.378H73.7a.05.05,0,0,1-.052-.024.058.058,0,0,1,0-.061.05.05,0,0,1,.052-.024h.656a.053.053,0,0,1,.051.053.036.036,0,0,1,0,.025.044.044,0,0,1-.028.011Z" transform="translate(-35.102 -21.879)" fill="#263238"/>
            <path id="路径_11233" data-name="路径 11233" d="M75.008,76.188a1.009,1.009,0,0,1,.134-.527.388.388,0,0,1,.707,0,1.026,1.026,0,0,1,.136.527.994.994,0,0,1-.136.523.385.385,0,0,1-.707,0A1,1,0,0,1,75.008,76.188Zm.1,0a.9.9,0,0,0,.118.467.29.29,0,0,0,.53,0,.955.955,0,0,0,0-.933.29.29,0,0,0-.53,0A.9.9,0,0,0,75.107,76.188Z" transform="translate(-35.335 -21.878)" fill="#263238"/>
            <path id="路径_11234" data-name="路径 11234" d="M43.461,63.067l-.2.125a.046.046,0,0,1-.023,0,.047.047,0,0,1-.042-.026.052.052,0,0,1-.006-.039.049.049,0,0,1,.023-.031l.272-.176a.048.048,0,0,1,.065.019.058.058,0,0,1,0,.038v1.381a.053.053,0,0,1-.013.037.046.046,0,0,1-.034.016.051.051,0,0,1-.048-.053Z" transform="translate(-30.185 -20.579)" fill="#263238"/>
            <path id="路径_11235" data-name="路径 11235" d="M44.037,64.326l.657-.635a.4.4,0,0,0,.12-.287.391.391,0,0,0-.107-.271.341.341,0,0,0-.256-.107.352.352,0,0,0-.244.1l-.069.066a.046.046,0,0,1-.069,0,.051.051,0,0,1,0-.074l.067-.068a.458.458,0,0,1,.311-.127.48.48,0,0,1,.459.489.507.507,0,0,1-.152.365l-.562.544h.664a.051.051,0,0,1,.049.053.053.053,0,0,1-.049.053h-.792a.051.051,0,0,1-.035-.015.061.061,0,0,1-.014-.044.06.06,0,0,1,.02-.041Z" transform="translate(-30.319 -20.58)" fill="#263238"/>
            <path id="路径_11236" data-name="路径 11236" d="M51.127,63.067l-.2.125a.045.045,0,0,1-.037.006.048.048,0,0,1-.03-.025.054.054,0,0,1,0-.039.05.05,0,0,1,.023-.031l.27-.176a.049.049,0,0,1,.067.019.073.073,0,0,1,0,.038v1.381a.053.053,0,0,1-.013.037.046.046,0,0,1-.034.016.051.051,0,0,1-.048-.053Z" transform="translate(-31.426 -20.58)" fill="#263238"/>
            <path id="路径_11237" data-name="路径 11237" d="M52.565,63.008,52.2,63.4a.5.5,0,0,1,.38.5.516.516,0,0,1-.141.361.464.464,0,0,1-.337.151.447.447,0,0,1-.334-.151.053.053,0,0,1,0-.076.046.046,0,0,1,.069,0,.368.368,0,0,0,.265.117.374.374,0,0,0,.269-.117.413.413,0,0,0,.11-.285.39.39,0,0,0-.376-.4.047.047,0,0,1-.039-.021h0a.055.055,0,0,1,0-.077l.353-.378h-.53a.053.053,0,0,1-.051-.055.055.055,0,0,1,.015-.038.048.048,0,0,1,.036-.015h.656a.048.048,0,0,1,.036.015.055.055,0,0,1,.015.038.04.04,0,0,1,0,.025.045.045,0,0,1-.027.017Z" transform="translate(-31.571 -20.579)" fill="#263238"/>
            <path id="路径_11238" data-name="路径 11238" d="M58.68,63.067l-.2.125a.046.046,0,0,1-.023,0,.047.047,0,0,1-.042-.026.052.052,0,0,1-.006-.039.049.049,0,0,1,.023-.031l.27-.176a.049.049,0,0,1,.067.019.072.072,0,0,1,0,.038v1.381a.053.053,0,0,1-.013.037.046.046,0,0,1-.034.016.051.051,0,0,1-.048-.053Z" transform="translate(-32.648 -20.579)" fill="#263238"/>
            <path id="路径_11239" data-name="路径 11239" d="M60.067,64.109H59.3a.036.036,0,0,1-.03-.011.049.049,0,0,1,0-.072l.815-1.083h0a.042.042,0,0,1,.067,0,.085.085,0,0,1,.018.026h0v1.037h.094a.048.048,0,0,1,.051.023.056.056,0,0,1,0,.059.048.048,0,0,1-.051.023h-.094v.257a.053.053,0,0,1-.051.053.051.051,0,0,1-.048-.053Zm0-.1v-.881l-.664.881Z" transform="translate(-32.785 -20.581)" fill="#263238"/>
            <path id="路径_11240" data-name="路径 11240" d="M66.373,63.066l-.2.125a.055.055,0,0,1-.025,0,.051.051,0,0,1-.042-.026.052.052,0,0,1,0-.04.048.048,0,0,1,.024-.03l.27-.176a.045.045,0,0,1,.036-.005.048.048,0,0,1,.029.024.06.06,0,0,1,0,.038v1.381a.053.053,0,0,1-.013.037.046.046,0,0,1-.034.016.053.053,0,0,1-.049-.053Z" transform="translate(-33.894 -20.579)" fill="#263238"/>
            <path id="路径_11241" data-name="路径 11241" d="M66.99,64.269a.053.053,0,0,1,0-.076.051.051,0,0,1,.072,0,.356.356,0,0,0,.53,0,.427.427,0,0,0,0-.568.363.363,0,0,0-.533,0,.046.046,0,0,1-.071,0,.03.03,0,0,1-.012-.017h0a.063.063,0,0,1,0-.019.089.089,0,0,0,0-.009l.069-.607a.042.042,0,0,1,.019-.038.041.041,0,0,1,.032-.013h.656a.056.056,0,0,1,0,.108h-.613l-.049.446a.457.457,0,0,1,.611.135.537.537,0,0,1-.036.666.477.477,0,0,1-.338.149A.455.455,0,0,1,66.99,64.269Z" transform="translate(-34.035 -20.58)" fill="#263238"/>
            <path id="路径_11242" data-name="路径 11242" d="M74.1,63.067l-.2.125a.045.045,0,0,1-.037.006.048.048,0,0,1-.03-.025.052.052,0,0,1,0-.04.048.048,0,0,1,.024-.03l.27-.176a.049.049,0,0,1,.067.019.073.073,0,0,1,0,.038v1.381a.053.053,0,0,1-.013.037.046.046,0,0,1-.034.016.053.053,0,0,1-.049-.053Z" transform="translate(-35.145 -20.58)" fill="#263238"/>
            <path id="路径_11243" data-name="路径 11243" d="M74.846,63.243a.57.57,0,0,1,.493-.327.046.046,0,0,1,.034.014.053.053,0,0,1,.015.036.055.055,0,0,1-.048.057.473.473,0,0,0-.41.272,1.081,1.081,0,0,0-.1.3.445.445,0,0,1,.513-.138.5.5,0,0,1,.3.465.466.466,0,1,1-.931.017.894.894,0,0,1,0-.1A1.316,1.316,0,0,1,74.846,63.243Zm-.025.688a.119.119,0,0,0,0,.026.035.035,0,0,1,0,.015.387.387,0,0,0,.388.377.4.4,0,0,0,0-.8.387.387,0,0,0-.388.377Z" transform="translate(-35.287 -20.579)" fill="#263238"/>
            <path id="路径_11244" data-name="路径 11244" d="M81.974,63.067l-.2.125a.045.045,0,0,1-.037.006.048.048,0,0,1-.03-.025.052.052,0,0,1,0-.04.048.048,0,0,1,.024-.03l.27-.176a.049.049,0,0,1,.067.019.072.072,0,0,1,0,.038v1.381a.053.053,0,0,1-.013.037.046.046,0,0,1-.034.016.051.051,0,0,1-.048-.053Z" transform="translate(-36.418 -20.58)" fill="#263238"/>
            <path id="路径_11245" data-name="路径 11245" d="M82.785,64.346l.521-1.323h-.673a.052.052,0,0,1,0-.1h.744a.042.042,0,0,1,.03,0,.057.057,0,0,1,.027.032.048.048,0,0,1,0,.017.046.046,0,0,1-.009.028L82.88,64.38a.048.048,0,0,1-.044.032.028.028,0,0,1-.019,0,.056.056,0,0,1-.032-.066Z" transform="translate(-36.561 -20.58)" fill="#263238"/>
            <path id="路径_11246" data-name="路径 11246" d="M89.509,63.067l-.2.125a.061.061,0,0,1-.025,0,.051.051,0,0,1-.042-.026.052.052,0,0,1-.006-.039.049.049,0,0,1,.023-.031l.272-.176a.048.048,0,0,1,.065.019.06.06,0,0,1,0,.038v1.381a.049.049,0,1,1-.1,0Z" transform="translate(-37.638 -20.579)" fill="#263238"/>
            <path id="路径_11247" data-name="路径 11247" d="M90.547,62.914a.293.293,0,0,1,.286.213.324.324,0,0,1-.109.354.5.5,0,0,1,.27.546.451.451,0,0,1-.894,0,.5.5,0,0,1,.27-.546.328.328,0,0,1-.117-.253A.321.321,0,0,1,90.338,63a.28.28,0,0,1,.208-.091Zm0,1.4a.379.379,0,1,0-.353-.378A.366.366,0,0,0,90.547,64.314Zm0-.877a.207.207,0,0,0,.2-.212.2.2,0,1,0-.392,0,.205.205,0,0,0,.194.212Z" transform="translate(-37.776 -20.579)" fill="#263238"/>
            <rect id="矩形_20073" data-name="矩形 20073" width="28.516" height="0.544" transform="translate(18.852 20.981)" fill="#ebebeb"/>
            <path id="路径_11248" data-name="路径 11248" d="M31.545,31.486V30.03l-.818.727Z" transform="translate(-19.409 -9.504)" fill="#ebebeb"/>
            <path id="路径_11249" data-name="路径 11249" d="M81.751,30.03v1.457l.818-.729Z" transform="translate(-27.667 -9.504)" fill="#ebebeb"/>
            <rect id="矩形_20074" data-name="矩形 20074" width="75.279" height="13.07" transform="translate(6.125 4.607)" fill="#fece55"/>
            <rect id="矩形_20075" data-name="矩形 20075" width="21.307" height="42.2" transform="translate(60.095 17.676)" fill="#ebebeb"/>
            <path id="路径_11250" data-name="路径 11250" d="M59.079,28.32a2.012,2.012,0,0,1,1.944-2.041,1.9,1.9,0,0,1,1.225.442.341.341,0,0,1,.056.456.291.291,0,0,1-.427.06,1.268,1.268,0,0,0-.853-.312,1.356,1.356,0,0,0-.954.408,1.448,1.448,0,0,0-.387.986,1.426,1.426,0,0,0,.387.986,1.356,1.356,0,0,0,.954.408,1.278,1.278,0,0,0,.853-.312.307.307,0,0,1,.424.062.351.351,0,0,1-.053.453,1.9,1.9,0,0,1-1.225.442,2.012,2.012,0,0,1-1.944-2.041Z" transform="translate(-32.757 -16.779)" fill="#fff"/>
            <path id="路径_11251" data-name="路径 11251" d="M67.054,29.439H65.766l-.26.737a.3.3,0,0,1-.276.2.291.291,0,0,1-.1-.017.328.328,0,0,1-.177-.408l1.172-3.337a.3.3,0,0,1,.281-.2.292.292,0,0,1,.281.2l1.164,3.337a.328.328,0,0,1-.177.408.292.292,0,0,1-.371-.189Zm-.217-.624L66.407,27.6l-.438,1.219Z" transform="translate(-33.705 -16.792)" fill="#fff"/>
            <path id="路径_11252" data-name="路径 11252" d="M70.415,30.062V26.717a.3.3,0,0,1,.292-.312.305.305,0,0,1,.3.312V29.74H72.44a.318.318,0,0,1,0,.629H70.706a.3.3,0,0,1-.292-.308Z" transform="translate(-34.592 -16.792)" fill="#fff"/>
            <path id="路径_11253" data-name="路径 11253" d="M75.118,30.062V26.717A.319.319,0,0,1,75.2,26.5a.279.279,0,0,1,.207-.09h1.733a.3.3,0,0,1,.292.312.31.31,0,0,1-.292.317H75.706v1.037h1.237a.318.318,0,0,1,0,.629H75.706v1.043h1.437a.318.318,0,0,1,0,.629H75.415a.282.282,0,0,1-.21-.089A.323.323,0,0,1,75.118,30.062Z" transform="translate(-35.353 -16.792)" fill="#fff"/>
            <path id="路径_11254" data-name="路径 11254" d="M80.591,30.066a.317.317,0,0,1-.138.288.274.274,0,0,1-.3,0,.317.317,0,0,1-.138-.288v-3.3a.314.314,0,0,1,.117-.261.279.279,0,0,1,.4.068l1.712,2.534V26.773a.3.3,0,0,1,.286-.306.3.3,0,0,1,.292.306v3.293a.3.3,0,0,1-.292.312.282.282,0,0,1-.217-.113.15.15,0,0,1-.026-.034l-1.7-2.517Z" transform="translate(-36.145 -16.796)" fill="#fff"/>
            <path id="路径_11255" data-name="路径 11255" d="M85.706,30.062V26.717a.32.32,0,0,1,.084-.222.279.279,0,0,1,.207-.09h.626a1.988,1.988,0,0,1,0,3.968H86A.3.3,0,0,1,85.706,30.062Zm.588-.317h.329a1.358,1.358,0,0,0,0-2.71h-.329Z" transform="translate(-37.066 -16.792)" fill="#fff"/>
            <path id="路径_11256" data-name="路径 11256" d="M92.83,29.439H91.547l-.26.737a.3.3,0,0,1-.276.2.291.291,0,0,1-.1-.017.328.328,0,0,1-.177-.408L91.9,26.612a.3.3,0,0,1,.281-.2.292.292,0,0,1,.281.2l1.173,3.337a.328.328,0,0,1-.177.408.292.292,0,0,1-.371-.189Zm-.223-.624L92.178,27.6l-.424,1.219Z" transform="translate(-37.877 -16.792)" fill="#fff"/>
            <path id="路径_11257" data-name="路径 11257" d="M98.644,29.9a.319.319,0,0,1-.186.4.438.438,0,0,1-.117.017h0a.367.367,0,0,1-.207-.062.553.553,0,0,1-.177-.2,1.617,1.617,0,0,1-.111-.68.473.473,0,0,0-.223-.408.976.976,0,0,0-.3-.136H96.7v1.23a.305.305,0,0,1-.3.312.3.3,0,0,1-.292-.312V26.717A.319.319,0,0,1,96.2,26.5a.279.279,0,0,1,.207-.09h.949a1.141,1.141,0,0,1,1.066.8,1.267,1.267,0,0,1-.345,1.345.857.857,0,0,1,.186.21,1.126,1.126,0,0,1,.177.612,1.527,1.527,0,0,0,.021.334A.3.3,0,0,1,98.644,29.9ZM97.9,27.624a.605.605,0,0,0-.158-.417.529.529,0,0,0-.388-.173H96.7V28.2h.652a.564.564,0,0,0,.546-.578Z" transform="translate(-38.751 -16.792)" fill="#fff"/>
            <rect id="矩形_20076" data-name="矩形 20076" width="3.67" height="8.847" transform="translate(62.198 20.862)" fill="#a6a6a6"/>
            <rect id="矩形_20077" data-name="矩形 20077" width="12.297" height="8.847" transform="translate(67.004 20.862)" fill="#a6a6a6"/>
            <path id="路径_11258" data-name="路径 11258" d="M103,39.852l-.2.123a.037.037,0,0,1-.025.009.046.046,0,0,1-.041-.026.052.052,0,0,1-.006-.039.049.049,0,0,1,.023-.031l.27-.176a.049.049,0,0,1,.067.019.071.071,0,0,1,0,.038v1.385a.053.053,0,0,1-.013.037.046.046,0,0,1-.034.016.051.051,0,0,1-.048-.053Z" transform="translate(-39.821 -18.172)" fill="#fff"/>
            <path id="路径_11259" data-name="路径 11259" d="M103.6,40.449a1.011,1.011,0,0,1,.136-.527.386.386,0,0,1,.707,0,1.028,1.028,0,0,1,.138.527,1.008,1.008,0,0,1-.138.523.383.383,0,0,1-.707,0A.994.994,0,0,1,103.6,40.449Zm.1,0a.894.894,0,0,0,.118.465.291.291,0,0,0,.539,0,.963.963,0,0,0,0-.932.292.292,0,0,0-.539,0,.9.9,0,0,0-.115.467Z" transform="translate(-39.962 -18.17)" fill="#fff"/>
            <rect id="矩形_20078" data-name="矩形 20078" width="9.323" height="0.482" transform="translate(67.93 21.631)" fill="#fff"/>
            <rect id="矩形_20079" data-name="矩形 20079" width="7.657" height="0.24" transform="translate(67.93 23.029)" fill="#fff"/>
            <rect id="矩形_20080" data-name="矩形 20080" width="7.657" height="0.24" transform="translate(67.93 23.638)" fill="#fff"/>
            <rect id="矩形_20081" data-name="矩形 20081" width="7.657" height="0.24" transform="translate(67.93 24.244)" fill="#fff"/>
            <rect id="矩形_20082" data-name="矩形 20082" width="7.657" height="0.24" transform="translate(67.93 25.459)" fill="#fff"/>
            <rect id="矩形_20083" data-name="矩形 20083" width="7.657" height="0.24" transform="translate(67.93 26.066)" fill="#fff"/>
            <rect id="矩形_20084" data-name="矩形 20084" width="7.657" height="0.24" transform="translate(67.93 26.674)" fill="#fff"/>
            <rect id="矩形_20085" data-name="矩形 20085" width="7.657" height="0.24" transform="translate(67.93 27.281)" fill="#fff"/>
            <rect id="矩形_20086" data-name="矩形 20086" width="7.657" height="0.24" transform="translate(67.93 27.889)" fill="#fff"/>
            <rect id="矩形_20087" data-name="矩形 20087" width="3.67" height="12.518" transform="translate(62.198 30.933)" fill="#fece55"/>
            <rect id="矩形_20088" data-name="矩形 20088" width="12.297" height="12.518" transform="translate(67.004 30.933)" fill="#fece55"/>
            <path id="路径_11260" data-name="路径 11260" d="M102.667,52.5l.656-.633a.4.4,0,0,0,.12-.289.393.393,0,0,0-.094-.257.344.344,0,0,0-.267-.127.356.356,0,0,0-.246.1l-.067.066a.044.044,0,0,1-.069,0,.051.051,0,0,1,0-.072l.069-.07a.455.455,0,0,1,.311-.127.435.435,0,0,1,.338.161.51.51,0,0,1,.12.353.5.5,0,0,1-.15.34l-.564.544h.666a.053.053,0,0,1,0,.106H102.7a.051.051,0,0,1-.037-.015.059.059,0,0,1,.005-.079Z" transform="translate(-39.808 -19.353)" fill="#fff"/>
            <path id="路径_11261" data-name="路径 11261" d="M104.079,52.5l.656-.633a.4.4,0,0,0,.122-.289.377.377,0,0,0-.362-.378.356.356,0,0,0-.246.1l-.067.066a.044.044,0,0,1-.069,0,.051.051,0,0,1,0-.072l.069-.07a.455.455,0,0,1,.311-.127.435.435,0,0,1,.337.161.51.51,0,0,1,.12.353.5.5,0,0,1-.15.34l-.562.544h.664a.053.053,0,0,1,0,.106h-.792a.051.051,0,0,1-.037-.015.059.059,0,0,1-.015-.044.058.058,0,0,1,.021-.041Z" transform="translate(-40.036 -19.353)" fill="#fff"/>
            <rect id="矩形_20089" data-name="矩形 20089" width="9.323" height="0.482" transform="translate(67.93 31.736)" fill="#fff"/>
            <rect id="矩形_20090" data-name="矩形 20090" width="7.657" height="0.24" transform="translate(67.93 33.134)" fill="#fff"/>
            <rect id="矩形_20091" data-name="矩形 20091" width="7.657" height="0.24" transform="translate(67.93 33.741)" fill="#fff"/>
            <rect id="矩形_20092" data-name="矩形 20092" width="7.657" height="0.24" transform="translate(67.93 34.349)" fill="#fff"/>
            <rect id="矩形_20093" data-name="矩形 20093" width="9.323" height="0.482" transform="translate(67.93 39.649)" fill="#fff"/>
            <rect id="矩形_20094" data-name="矩形 20094" width="7.657" height="0.24" transform="translate(67.93 41.048)" fill="#fff"/>
            <rect id="矩形_20095" data-name="矩形 20095" width="7.657" height="0.24" transform="translate(67.93 41.656)" fill="#fff"/>
            <rect id="矩形_20096" data-name="矩形 20096" width="7.657" height="0.24" transform="translate(67.93 35.564)" fill="#fff"/>
            <rect id="矩形_20097" data-name="矩形 20097" width="7.657" height="0.24" transform="translate(67.93 36.171)" fill="#fff"/>
            <rect id="矩形_20098" data-name="矩形 20098" width="7.657" height="0.24" transform="translate(67.93 36.777)" fill="#fff"/>
            <rect id="矩形_20099" data-name="矩形 20099" width="7.657" height="0.24" transform="translate(67.93 37.386)" fill="#fff"/>
            <rect id="矩形_20100" data-name="矩形 20100" width="7.657" height="0.24" transform="translate(67.93 37.992)" fill="#fff"/>
          </g>
          <g id="freepik--Character--inject-5" transform="translate(0 29.795)">
            <path id="路径_11262" data-name="路径 11262" d="M68.79,93.13c.444.173,13.343.434,13.849.125.055-.035.039-.643.229-2.218a3.986,3.986,0,0,1,.764-.78c1.725-1.545,5.779-4.8,5.779-4.8L82.971,79.48l-6.238,6.556-1.622,1.7s-5.27,3.043-5.792,3.445S68.345,92.948,68.79,93.13Z" transform="translate(-67.692 -60.721)" fill="#dd6a57"/>
            <path id="路径_11263" data-name="路径 11263" d="M68.791,94.432c.444.184,13.344.433,13.849.125.054-.035.039-.643.23-2.218a3.946,3.946,0,0,1,.762-.78c.6-.538.885-.782,1.784-1.526l-8.184-3.218-.486.52-1.622,1.7s-5.27,3.041-5.791,3.445S68.346,94.25,68.791,94.432Z" transform="translate(-67.692 -62.023)" fill="#ebebeb"/>
            <path id="路径_11264" data-name="路径 11264" d="M67.626,94.863c.448.173,14.192.328,14.687,0a6.9,6.9,0,0,0,.308-2.1c.01-.147,1.4-1.337,1.592-1.561L75.792,88.17l-1.064,1.07s-6.2,3.083-6.705,3.5S67.177,94.7,67.626,94.863Z" transform="translate(-67.416 -62.263)" fill="#fece55"/>
            <path id="路径_11265" data-name="路径 11265" d="M67.927,95.638c2.16-.029,11.737.069,13.875.215.018,0,.018.014,0,.014-2.141.08-11.718-.094-13.875-.191C67.888,95.675,67.888,95.64,67.927,95.638Z" transform="translate(-67.527 -63.588)" fill="#263238"/>
            <path id="路径_11266" data-name="路径 11266" d="M76.013,89.587a2.883,2.883,0,0,1,2.531.649c.024.026-.01.062-.037.054a11.325,11.325,0,0,0-2.492-.588.057.057,0,0,1,0-.114Z" transform="translate(-69.388 -62.505)" fill="#263238"/>
            <path id="路径_11267" data-name="路径 11267" d="M75.212,90.053a2.884,2.884,0,0,1,2.531.65c.024.024-.01.062-.037.052a11.234,11.234,0,0,0-2.491-.586.06.06,0,0,1,0-.116Z" transform="translate(-69.205 -62.588)" fill="#263238"/>
            <path id="路径_11268" data-name="路径 11268" d="M74.4,90.525a2.881,2.881,0,0,1,2.53.649c.026.026-.01.062-.036.054A11.345,11.345,0,0,0,74.4,90.64a.057.057,0,0,1,0-.114Z" transform="translate(-69.017 -62.671)" fill="#263238"/>
            <path id="路径_11269" data-name="路径 11269" d="M73.608,91a2.881,2.881,0,0,1,2.53.65c.026.024-.008.062-.036.052a11.247,11.247,0,0,0-2.492-.586.06.06,0,0,1,0-.116Z" transform="translate(-68.835 -62.755)" fill="#263238"/>
            <path id="路径_11270" data-name="路径 11270" d="M74.346,88.255a7.291,7.291,0,0,0,2.072,1.007.1.1,0,0,0,.094-.019.116.116,0,0,0,.041-.092.024.024,0,0,0,.021-.033,4.9,4.9,0,0,0-1.286-2.1c-.35-.323-.973-.551-1.309-.064S74,87.958,74.346,88.255Zm-.209-.735c-.138-1,.856-.463,1.106-.213a5.163,5.163,0,0,1,.446.52,14.067,14.067,0,0,1,.775,1.214c-.336-.163-.679-.295-1.02-.444C75.038,88.418,74.214,88.071,74.136,87.52Z" transform="translate(-68.9 -61.998)" fill="#263238"/>
            <path id="路径_11271" data-name="路径 11271" d="M80.18,87.905c-.2-.569-.853-.532-1.275-.326a4.613,4.613,0,0,0-1.784,1.632.026.026,0,0,0,0,.022.024.024,0,0,0,.014.016.121.121,0,0,0,.016.1.105.105,0,0,0,.085.047,7.233,7.233,0,0,0,2.254-.347C79.907,88.87,80.368,88.443,80.18,87.905Zm-1.832,1.138c-.367.043-.731.066-1.1.123.349-.317.681-.649,1.059-.929a4.761,4.761,0,0,1,.564-.373c.3-.173,1.4-.385,1.007.534C79.664,88.908,78.784,88.994,78.347,89.043Z" transform="translate(-69.655 -62.134)" fill="#263238"/>
            <path id="路径_11272" data-name="路径 11272" d="M79.058,84.257l7.957,4.41s8.29-8.023,9.049-8.084,11.911,8.034,17.535,8.058c5.815.026,6.109-6.489,6.109-6.489l-8.483-2.081c-6.115-3.224-12.487-9.017-16.651-8.471C90.042,72.179,79.058,84.257,79.058,84.257Z" transform="translate(-70.103 -59.316)" fill="#455a64"/>
            <path id="路径_11273" data-name="路径 11273" d="M81.579,85.631c1.343.709.973.487,2.3,1.214.649.347,3.944,2.129,4.5,2.57.013.009,0,.033-.013.028-.657-.236-3.911-2.081-4.558-2.454-1.323-.753-.937-.551-2.252-1.318a.023.023,0,0,1-.013-.019.023.023,0,0,1,.01-.021A.02.02,0,0,1,81.579,85.631Z" transform="translate(-70.678 -61.812)" fill="#263238"/>
            <path id="路径_11274" data-name="路径 11274" d="M91.232,88.4c1.555-1.467,6.649-6.242,6.859-6.416a2.838,2.838,0,0,1,.532-.427.529.529,0,0,1,.487.043c.237.118.467.246.7.368l1.38.721c1.784.929,3.555,1.885,5.351,2.785a43.806,43.806,0,0,0,4.766,2.344,25.6,25.6,0,0,0,5.535,1.411c.232.029.465.055.7.08.016,0,.016.029,0,.028a20.917,20.917,0,0,1-5.447-1.084,34.439,34.439,0,0,1-4.7-2.185c-1.759-.867-3.495-1.793-5.228-2.714-.916-.487-1.829-.978-2.747-1.458-.209-.109-.506-.347-.743-.229a1.306,1.306,0,0,0-.276.217l-.3.271c-.394.347-6.649,6.105-6.847,6.272C91.238,88.437,91.217,88.415,91.232,88.4Z" transform="translate(-72.912 -61.083)" fill="#263238"/>
            <path id="路径_11275" data-name="路径 11275" d="M122.893,83.968s.952,5.882-1.8,8.193-22.905,2.034-25.964.976-3.152-6.333.19-7.555c3.18-1.164,16.7-1.734,17.04-1.871.084-.036-1.2-.858-1.194-.909l3.081-1.006Z" transform="translate(-73.281 -61.132)" fill="#455a64"/>
            <path id="路径_11276" data-name="路径 11276" d="M126.484,84.252c0-.024.041-.016.041,0a3.034,3.034,0,0,0,.636,1.869,5.566,5.566,0,0,0,1.784,1.24c.06.033.015.134-.049.114a5.411,5.411,0,0,1-1.1-.51,2.72,2.72,0,0,1-.83-.739,2.672,2.672,0,0,1-.477-1.975Z" transform="translate(-81.043 -61.565)" fill="#263238"/>
            <path id="路径_11277" data-name="路径 11277" d="M118.471,82.966c.139-.191.292-.373.438-.557.344-.439.689-.879,1.051-1.3.034-.04.1.017.07.061-.243.347-.5.669-.754,1-.13.173-.259.347-.391.508a3.194,3.194,0,0,0-.365.494.249.249,0,0,0,.212.371.609.609,0,0,0,.439-.173,5.959,5.959,0,0,0,.746-.853c.146-.173.29-.347.438-.52s.324-.357.486-.541c.01-.012.029,0,.019.017-.136.2-.261.411-.4.61s-.276.4-.417.6-.271.368-.414.548a1.726,1.726,0,0,1-.42.4c-.261.165-.715.2-.855-.161a.53.53,0,0,1,.114-.5Z" transform="translate(-79.169 -61.007)" fill="#263238"/>
            <path id="路径_11278" data-name="路径 11278" d="M96.363,93.685c1.054.023,2.108.087,3.159.111s2.089.031,3.133.019q3.148-.031,6.289-.26c2.108-.156,4.4-.381,6.5-.694,1.005-.149,2.024-.272,3.018-.5a4.666,4.666,0,0,0,2.381-1.3,9.246,9.246,0,0,0,2.108-5.469c.029-.265.053-.532.075-.8a.014.014,0,0,1,0-.016.012.012,0,0,1,.016,0,.014.014,0,0,1,0,.016,10.757,10.757,0,0,1-1.614,5.786,4.82,4.82,0,0,1-1.946,1.616,11.707,11.707,0,0,1-2.979.642c-2.108.307-4.4.543-6.521.718s-4.276.288-6.417.323-4.284,0-6.423-.111c-.261-.014-.521-.031-.782-.055C96.347,93.709,96.347,93.685,96.363,93.685Z" transform="translate(-74.095 -61.66)" fill="#263238"/>
            <path id="路径_11279" data-name="路径 11279" d="M104.98,84.919c.663-.1,1.323-.2,1.99-.279s1.348-.139,2.022-.2c1.333-.12,2.669-.229,4.005-.295.761-.038,1.519-.043,2.28-.033.024,0,.021.038,0,.04-1.336.13-2.674.22-4.012.316s-2.671.22-4,.355c-.756.078-1.513.137-2.27.2C104.941,85.03,104.931,84.927,104.98,84.919Z" transform="translate(-76.079 -61.542)" fill="#263238"/>
            <path id="路径_11280" data-name="路径 11280" d="M116.451,82.932a10.045,10.045,0,0,1,1.534.877,12.349,12.349,0,0,1,1.421,1.063c.013.01,0,.028-.016.021-.522-.257-1.022-.579-1.518-.888a14.289,14.289,0,0,1-1.459-1C116.379,82.981,116.405,82.912,116.451,82.932Z" transform="translate(-78.722 -61.333)" fill="#263238"/>
            <path id="路径_11281" data-name="路径 11281" d="M117.535,70.195c-1,1.881-5,7.659-6.259,7.85-1.31.2-6.139-.241-7.02-1.351-.431-.543.264-5.2.934-4.938A32.709,32.709,0,0,0,110.52,73c.529-.083,4.813-4.508,6.391-5.473C119.629,65.879,118.077,69.185,117.535,70.195Z" transform="translate(-75.888 -58.519)" fill="#dd6a57"/>
            <path id="路径_11282" data-name="路径 11282" d="M106.581,71.9l-1.018,5.767s4.836,1.059,6.263.614,5.413-6.506,6.574-8.9.148-3.028-1.946-1.535-5.432,4.841-5.757,4.855S106.581,71.9,106.581,71.9Z" transform="translate(-76.221 -58.512)" fill="#fece55"/>
            <path id="路径_11283" data-name="路径 11283" d="M117.113,68.491a1.43,1.43,0,0,0-.287.439,1.492,1.492,0,0,0,.7-.746A1.336,1.336,0,0,0,117.113,68.491Zm-10.435,8.79a1.268,1.268,0,0,0-.487.092,1.345,1.345,0,0,0,.986,0,1.279,1.279,0,0,0-.5-.092Zm7.9-1.724a1.28,1.28,0,0,0-.495.092,1.252,1.252,0,0,0,.495.094h.065l.126-.173A1.4,1.4,0,0,1,114.581,75.557Zm-3.443,1.387a1.663,1.663,0,0,0,0,1.054,1.537,1.537,0,0,0,.088-.52,1.5,1.5,0,0,0-.088-.539Zm4.054-5.637a1.455,1.455,0,0,0-.086.52,1.5,1.5,0,0,0,.086.52,1.5,1.5,0,0,0,.086-.52,1.455,1.455,0,0,0-.088-.525Zm1.922-2.811a1.43,1.43,0,0,0-.287.439,1.492,1.492,0,0,0,.7-.746,1.334,1.334,0,0,0-.412.3Zm-5.2,4.748a1.409,1.409,0,0,0-.287.439,1.342,1.342,0,0,0,.41-.309,1.409,1.409,0,0,0,.287-.439A1.369,1.369,0,0,0,111.915,73.244Zm-4.883-1.079h0l-.044.043a1.409,1.409,0,0,0-.287.439,1.334,1.334,0,0,0,.41-.309c.039-.043.076-.087.112-.134Zm1.946,2.856a1.317,1.317,0,0,0-.41-.307,1.4,1.4,0,0,0,.289.439,1.33,1.33,0,0,0,.409.307,1.428,1.428,0,0,0-.292-.439Zm5.608.536a1.28,1.28,0,0,0-.495.092,1.252,1.252,0,0,0,.495.094h.065l.126-.173a1.426,1.426,0,0,1-.2-.012Zm.61-4.255a1.454,1.454,0,0,0-.086.52,1.5,1.5,0,0,0,.086.52,1.5,1.5,0,0,0,.086-.52,1.454,1.454,0,0,0-.091-.52Z" transform="translate(-76.366 -58.716)" fill="#fff"/>
            <path id="路径_11284" data-name="路径 11284" d="M107.856,76.178c.083-.458.4-2.285.446-2.747h-.013c-.125.43-.486,2.225-.569,2.683a26.6,26.6,0,0,0-.422,2.752c0,.016.023.024.028,0C107.557,77.987,107.694,77.078,107.856,76.178Z" transform="translate(-76.621 -59.647)" fill="#263238"/>
            <path id="路径_11285" data-name="路径 11285" d="M118.623,69.375c-1.164,2.4-5.149,8.457-6.576,8.9-1.082.338-4.114-.187-5.525-.463l12.029-10.775C119.228,67.1,119.336,67.908,118.623,69.375Z" transform="translate(-76.442 -58.513)" opacity="0.1"/>
            <path id="路径_11286" data-name="路径 11286" d="M116.768,80.76l11.893.739a72.877,72.877,0,0,0-3.214-10.331c-1.716-3.562-2.476-4.1-2.985-4.286-.649-.232-1.988-.232-2.382.44C117.955,70.952,116.606,80.6,116.768,80.76Z" transform="translate(-78.804 -58.46)" fill="#fece55"/>
            <path id="路径_11287" data-name="路径 11287" d="M120.484,68.381c-.063.135-.125.274-.187.42a1.938,1.938,0,0,0,.195-.173,1.43,1.43,0,0,0,.287-.439,1.148,1.148,0,0,0-.3.192Zm3.581,11.783a1.409,1.409,0,0,0-.287.439,1.336,1.336,0,0,0,.41-.307,1.451,1.451,0,0,0,.287-.439A1.336,1.336,0,0,0,124.064,80.163Zm-3.581-11.783c-.063.135-.125.274-.187.42a1.938,1.938,0,0,0,.195-.173,1.43,1.43,0,0,0,.287-.439,1.148,1.148,0,0,0-.3.192Zm6.986,6.213h0a.788.788,0,0,0-.092-.049,1.25,1.25,0,0,0,.178.309Zm-2.614-5.9a1.9,1.9,0,0,0-.146-.139h0a1.115,1.115,0,0,0-.261-.173,1.43,1.43,0,0,0,.287.439,1.5,1.5,0,0,0,.3.246.8.8,0,0,0,.114.061,1.431,1.431,0,0,0-.29-.428Zm-3.222,5.951a1.317,1.317,0,0,0-.41-.307,1.435,1.435,0,0,0,.289.439,1.317,1.317,0,0,0,.41.307,1.464,1.464,0,0,0-.289-.439Zm2.985,1.76a1.244,1.244,0,0,0-.486.094,1.371,1.371,0,0,0,.986,0,1.239,1.239,0,0,0-.5-.094Zm-2.9-5.577a1.24,1.24,0,0,0-.486.094,1.268,1.268,0,0,0,.486.092,1.247,1.247,0,0,0,.486-.092,1.25,1.25,0,0,0-.486-.094Zm-1.288,7.6a1.493,1.493,0,0,0-.088.52,1.544,1.544,0,0,0,.088.52,1.663,1.663,0,0,0,0-1.054Zm6.811-.529a1.636,1.636,0,0,0,0,1.056A1.662,1.662,0,0,0,127.241,77.9Zm-2.432-5.688a1.631,1.631,0,0,0,0,1.054,1.542,1.542,0,0,0,.086-.52,1.487,1.487,0,0,0-.1-.534Z" transform="translate(-79.622 -58.717)" fill="#fff"/>
            <path id="路径_11288" data-name="路径 11288" d="M125.221,68.552c3,3.952,6.289,10.513,4.68,11.783-1.468,1.16-6.547-.312-9.707-1.847-.6-.291,2.179-5.965,2.789-5.582a17.784,17.784,0,0,0,1.995,1.1c.175.062-.733-1.262-1.662-4.371C122.372,66.475,123.5,66.295,125.221,68.552Z" transform="translate(-79.578 -58.512)" fill="#dd6a57"/>
            <path id="路径_11289" data-name="路径 11289" d="M113.671,72.841c-.037.676,1.529.631,1.529.631a1.235,1.235,0,0,0-.509.652c-.143.492.516.947.516.947a1.556,1.556,0,0,0-.43.779c-.092.486.511,1.04.511,1.04a1.44,1.44,0,0,0,.021.942c.324.791,1.578.877,2.338,1.094a15.854,15.854,0,0,1,2.481,1l1.734-5.991s-3.235-2.3-4.166-2.308C116.9,71.626,113.728,71.808,113.671,72.841Z" transform="translate(-78.092 -59.328)" fill="#dd6a57"/>
            <path id="路径_11290" data-name="路径 11290" d="M115.672,73.807a9.957,9.957,0,0,1,2.575-.191c.019,0,.019.033,0,.031-.848-.024-1.724.192-2.57.2a.022.022,0,0,1-.018-.02A.023.023,0,0,1,115.672,73.807Z" transform="translate(-78.551 -59.679)" fill="#263238"/>
            <path id="路径_11291" data-name="路径 11291" d="M115.691,75.727a2.08,2.08,0,0,1,.587,0c.208.016.415.033.623.055.414.045.827.1,1.239.173.019,0,.019.033,0,.031-.414-.043-.827-.08-1.242-.1l-.623-.033a2.456,2.456,0,0,1-.585-.054.035.035,0,0,1,0-.069Z" transform="translate(-78.551 -60.051)" fill="#263238"/>
            <path id="路径_11292" data-name="路径 11292" d="M115.788,78.029a1.518,1.518,0,0,1,.529.029l.566.069c.378.045.756.088,1.135.118a.018.018,0,0,1,0,.033c-.386-.029-.77-.052-1.155-.085-.19-.016-.378-.031-.566-.05a1.375,1.375,0,0,1-.509-.094.013.013,0,0,1,0-.021Z" transform="translate(-78.58 -60.462)" fill="#263238"/>
            <path id="路径_11293" data-name="路径 11293" d="M124.046,73.056l-1.558,6.456s7.539,2.57,8.432.544-3.217-9.96-5.7-12.3-1.683,1.169-1.622,1.45a41.789,41.789,0,0,0,1.761,4.538Z" transform="translate(-80.127 -58.498)" fill="#fece55"/>
            <path id="路径_11294" data-name="路径 11294" d="M125.888,72.258a1.631,1.631,0,0,0,0,1.054,1.542,1.542,0,0,0,.086-.52,1.49,1.49,0,0,0-.086-.534Zm2.432,5.688a1.637,1.637,0,0,0,0,1.056,1.663,1.663,0,0,0,0-1.056ZM125.7,76.454a1.244,1.244,0,0,0-.487.094,1.371,1.371,0,0,0,.986,0,1.239,1.239,0,0,0-.493-.094Zm.237-7.706a1.33,1.33,0,0,0-.409-.307,1.492,1.492,0,0,0,.7.746,1.438,1.438,0,0,0-.282-.439Zm5.223,11.087a1.33,1.33,0,0,0-.409-.307,1.492,1.492,0,0,0,.7.746,1.437,1.437,0,0,0-.282-.439ZM128.871,74.9a1.336,1.336,0,0,0-.41-.307,1.492,1.492,0,0,0,.7.746,1.434,1.434,0,0,0-.281-.439Zm-3.715,5.311c-.044.05-.088.1-.128.154l.18.047c.024-.023.049-.045.071-.069a1.451,1.451,0,0,0,.287-.439A1.336,1.336,0,0,0,125.156,80.208Z" transform="translate(-80.714 -58.762)" fill="#fff"/>
            <path id="路径_11295" data-name="路径 11295" d="M124.63,74.375a17.888,17.888,0,0,1,3.582,2.272c.013.016,0,.04-.019.028a40.108,40.108,0,0,0-3.684-2.254.724.724,0,0,1-.034.071c-.016.023-.028,0-.026-.012s.036-.149.041-.158Z" transform="translate(-80.58 -59.805)" fill="#263238"/>
            <path id="路径_11296" data-name="路径 11296" d="M125.09,78.288c.105-.451.516-2.254.585-2.715,0,0-.01-.012-.011,0-.148.421-.6,2.192-.707,2.644a26.758,26.758,0,0,0-.561,2.722c0,.016.021.026.026.009C124.7,80.076,124.882,79.177,125.09,78.288Z" transform="translate(-80.568 -60.026)" fill="#263238"/>
            <path id="路径_11297" data-name="路径 11297" d="M125.882,74.541c-.212-.57-.487-1.117-.714-1.675s-.486-1.112-.7-1.675h-.013c.131.383.261.766.4,1.144-.044-.061-.088-.125-.128-.187-.076-.116-.144-.238-.212-.359h-.011a1.937,1.937,0,0,0,.195.381,2.611,2.611,0,0,0,.191.251c.058.154.118.307.182.461a12.2,12.2,0,0,0,.72,1.642C125.8,74.558,125.889,74.561,125.882,74.541Z" transform="translate(-80.582 -59.25)" fill="#263238"/>
            <path id="路径_11298" data-name="路径 11298" d="M129.787,83.388c-1.557.234-6.451-.978-7.284-1.214.015-.1.013-.13.036-.264,0-.017-.023-.028-.028-.009-.031.127-.123.376-.091.394.4.192,5.849,1.522,7.367,1.129C129.81,83.423,129.812,83.385,129.787,83.388Z" transform="translate(-80.11 -61.149)" fill="#263238"/>
            <path id="路径_11299" data-name="路径 11299" d="M103.263,70.116l-6.37.768L94.672,61.39l6.37-.768Z" transform="translate(-65.669 -50.341)" fill="#263238"/>
            <path id="路径_11300" data-name="路径 11300" d="M102.856,70.162l-6.37.768-2.222-9.494,6.37-.768Z" transform="translate(-65.575 -50.349)" fill="#37474f"/>
            <path id="路径_11301" data-name="路径 11301" d="M109.151,74.909a.7.7,0,0,0,.743.581.554.554,0,0,0,.4-.245.633.633,0,0,0,.093-.485.7.7,0,0,0-.744-.581.554.554,0,0,0-.4.245A.633.633,0,0,0,109.151,74.909Z" transform="translate(-77.046 -59.779)" fill="#fff"/>
            <path id="路径_11302" data-name="路径 11302" d="M104.4,72.523c-.279.787-1.057,1.8-1.08,2.428a.726.726,0,0,0,.428.727,1.068,1.068,0,0,0-.486.929c.036.295.5.494.5.494a.875.875,0,0,0-.344.813.792.792,0,0,0,.53.543,1.084,1.084,0,0,0-.092.888c.4.78,3.67.5,4.08-.834.19-.621-.606-.506-.606-.506s1.108-.461,1.072-1.184-1.064-.506-1.064-.506,1.07-.458.962-1.2c-.114-.777-1.106-.373-1.106-.373s.689-.59.486-1.141c-.341-.909-1.631.381-2.364.262l-.486-1.236Z" transform="translate(-75.689 -59.486)" fill="#dd6a57"/>
            <path id="路径_11303" data-name="路径 11303" d="M103.81,73.319c.2-.772-.733-1.621-.637-2.389.131-1.04,1.279-.13,1.63,1.332l.086,1.186Z" transform="translate(-75.667 -59.124)" fill="#dd6a57"/>
            <path id="路径_11304" data-name="路径 11304" d="M104.25,79.659a.011.011,0,0,0,0,.019,5.374,5.374,0,0,0,3.357-.5c.034-.017.021-.081-.019-.069a10.982,10.982,0,0,1-3.337.555Z" transform="translate(-75.916 -60.654)" fill="#263238"/>
            <path id="路径_11305" data-name="路径 11305" d="M103.9,77.92c-.013,0-.013.023,0,.026a5.055,5.055,0,0,0,3.631-.794c.037-.026.047-.09,0-.062A9.062,9.062,0,0,1,103.9,77.92Z" transform="translate(-75.834 -60.296)" fill="#263238"/>
            <path id="路径_11306" data-name="路径 11306" d="M107.419,75.117a6.963,6.963,0,0,1-3.464,1.03c-.015,0-.013.026,0,.029A4.371,4.371,0,0,0,105.947,76a3.224,3.224,0,0,0,1.492-.853C107.458,75.14,107.442,75.1,107.419,75.117Z" transform="translate(-75.847 -59.946)" fill="#263238"/>
            <path id="路径_11307" data-name="路径 11307" d="M121.493,68.889c.7.028,1.636-1.3,1.925-2.273.018-.068-.185-.694-.4-1.448-.13-.465-.261-.983-.35-1.467-.018-.1-2.7,1.335-2.7,1.335a8.2,8.2,0,0,1,.616,1.8,1.087,1.087,0,0,1,.016.2c0,.01,0,.021,0,.035C120.609,67.459,120.82,68.861,121.493,68.889Z" transform="translate(-79.546 -57.919)" fill="#dd6a57"/>
            <path id="路径_11308" data-name="路径 11308" d="M122.5,63.761c.018.846-.092,2.92-1.6,3.276a1.6,1.6,0,0,1-.294.045.129.129,0,0,1,0-.035,1.5,1.5,0,0,0-.018-.2,8.2,8.2,0,0,0-.616-1.8S121.907,64.013,122.5,63.761Z" transform="translate(-79.546 -57.931)" fill="#263238"/>
            <path id="路径_11309" data-name="路径 11309" d="M121.444,58.785c.6.949.962,4.143.461,5.048-.725,1.313-2.351,1.953-3.5.914-1.117-1.009-1.518-5.181-.918-6.052A2.454,2.454,0,0,1,121.444,58.785Z" transform="translate(-78.908 -56.861)" fill="#dd6a57"/>
            <path id="路径_11310" data-name="路径 11310" d="M119.811,62.373c0-.009.016.009.018.017.011.217.057.463.246.52v.012C119.848,62.907,119.79,62.58,119.811,62.373Z" transform="translate(-79.509 -57.684)" fill="#263238"/>
            <path id="路径_11311" data-name="路径 11311" d="M119.973,62.078c.324-.057.405.638.105.694S119.7,62.125,119.973,62.078Z" transform="translate(-79.508 -57.632)" fill="#263238"/>
            <path id="路径_11312" data-name="路径 11312" d="M118.306,62.566s-.015.012-.015.021c.032.215.036.466-.138.562v.012C118.374,63.1,118.367,62.763,118.306,62.566Z" transform="translate(-79.127 -57.719)" fill="#263238"/>
            <path id="路径_11313" data-name="路径 11313" d="M118.016,62.323c-.324.017-.269.714.034.694S118.29,62.308,118.016,62.323Z" transform="translate(-79.044 -57.676)" fill="#263238"/>
            <path id="路径_11314" data-name="路径 11314" d="M120.095,61.411a2.3,2.3,0,0,1-.263-.059.424.424,0,0,1-.258-.114.163.163,0,0,1,0-.182.328.328,0,0,1,.339-.085.5.5,0,0,1,.324.191.167.167,0,0,1,.007.176A.144.144,0,0,1,120.095,61.411Z" transform="translate(-79.448 -57.433)" fill="#263238"/>
            <path id="路径_11315" data-name="路径 11315" d="M117.584,61.847a2.341,2.341,0,0,0,.256-.085.435.435,0,0,0,.247-.14.157.157,0,0,0-.016-.173.324.324,0,0,0-.345-.05.5.5,0,0,0-.3.215.167.167,0,0,0,.008.175A.143.143,0,0,0,117.584,61.847Z" transform="translate(-78.953 -57.506)" fill="#263238"/>
            <path id="路径_11316" data-name="路径 11316" d="M120.538,64.644c-.023.068-.036.154-.1.2a.523.523,0,0,1-.217.059v.014a.256.256,0,0,0,.279-.023.241.241,0,0,0,.06-.248A.013.013,0,0,0,120.538,64.644Z" transform="translate(-79.605 -58.086)" fill="#263238"/>
            <path id="路径_11317" data-name="路径 11317" d="M119.818,63.523a.717.717,0,0,1-.418.388.84.84,0,0,1-.245.045h-.094a.051.051,0,0,1-.045-.042h0a.106.106,0,0,1,0-.023h0v-.019c-.023-.165-.037-.418-.037-.418-.054.036-.324.215-.324.128a11.745,11.745,0,0,1,0-2.254.019.019,0,0,1,.037,0c.068.694.023,1.387.081,2.081a1.2,1.2,0,0,1,.311-.149c.023,0,.019.492.036.565h0a.93.93,0,0,0,.681-.331A.019.019,0,0,1,119.818,63.523Z" transform="translate(-79.23 -57.497)" fill="#263238"/>
            <path id="路径_11318" data-name="路径 11318" d="M119.536,64.39a.728.728,0,0,0,.358.158.338.338,0,0,0,.2-.045c.135-.083.1-.227.044-.347a.9.9,0,0,0-.114-.173.985.985,0,0,1-.493.407Z" transform="translate(-79.446 -57.97)" fill="#263238"/>
            <path id="路径_11319" data-name="路径 11319" d="M120,64.585a.338.338,0,0,0,.2-.045c.135-.083.1-.227.044-.347A.375.375,0,0,0,120,64.585Z" transform="translate(-79.552 -58.008)" fill="#ff9bbc"/>
            <path id="路径_11320" data-name="路径 11320" d="M122.173,60.9c-.73.3-1.395-.52-1.443-1.344,0,0-1.9.94-2.492-.733a1.705,1.705,0,0,1-1.069,1.193l-.039.7c-.222,0-.618-.543-.261-1.193a2.251,2.251,0,0,1,.227-1.561,1.111,1.111,0,0,1,1.116-.562,1.7,1.7,0,0,1,1.106-.713,1.405,1.405,0,0,1,1.268.472s1.041-.125,1.425.565a1.721,1.721,0,0,1,.162,1.313,1.179,1.179,0,0,1,.391.89A1.032,1.032,0,0,1,122.173,60.9Z" transform="translate(-78.797 -56.673)" fill="#263238"/>
            <path id="路径_11321" data-name="路径 11321" d="M118.693,59.085a2.174,2.174,0,0,0,.115.418,1.777,1.777,0,0,0,.19.378,1.05,1.05,0,0,0,.636.46,1.613,1.613,0,0,0,.79-.047c.126-.047.258-.083.384-.139s.25-.116.376-.173c-.117.075-.238.146-.357.218s-.256.111-.384.173a1.587,1.587,0,0,1-.83.071,1.111,1.111,0,0,1-.676-.52A1.851,1.851,0,0,1,118.693,59.085Z" transform="translate(-79.251 -57.101)" fill="#263238"/>
            <path id="路径_11322" data-name="路径 11322" d="M117.734,60.422a2.287,2.287,0,0,0,.5-.546,1.424,1.424,0,0,0,.162-.336,1.767,1.767,0,0,0,.073-.376.993.993,0,0,1,0,.4,1.079,1.079,0,0,1-.149.373,1.239,1.239,0,0,1-.256.295,1.1,1.1,0,0,1-.331.194Z" transform="translate(-79.03 -57.115)" fill="#263238"/>
            <path id="路径_11323" data-name="路径 11323" d="M122.859,62.02s.378-1.181.861-1.065.384,1.691-.054,2.037a.5.5,0,0,1-.388.129.511.511,0,0,1-.356-.21Z" transform="translate(-80.213 -57.431)" fill="#dd6a57"/>
            <path id="路径_11324" data-name="路径 11324" d="M123.767,61.505v.012a1.446,1.446,0,0,0-.423,1.04.3.3,0,0,1,.15-.2.267.267,0,0,1,.24-.006c.011,0,0,.021,0,.021a.325.325,0,0,0-.306.218,1.777,1.777,0,0,0-.084.347c0,.038-.066.038-.065,0v-.009A1.284,1.284,0,0,1,123.767,61.505Z" transform="translate(-80.299 -57.531)" fill="#263238"/>
          </g>
        </g>
      </g>
    </g>
  </g>
</svg>
