<svg xmlns="http://www.w3.org/2000/svg" width="24" height="24" viewBox="0 0 24 24">
  <g id="组_9800" data-name="组 9800" transform="translate(-292 -742)">
    <circle id="椭圆_445" data-name="椭圆 445" cx="12" cy="12" r="12" transform="translate(292 742)" fill="#dfedfc" opacity="0.398"/>
    <path id="路径_3569" data-name="路径 3569" d="M95.777,213.539l4.107,4.107c.068.068.137.137.137.205a.75.75,0,0,1,0,.548c-.068.068-.068.137-.137.205l-4.107,4.107a.678.678,0,0,1-.958-.958l2.943-2.943H87.084a.684.684,0,0,1,0-1.369H97.762L94.819,214.5a.662.662,0,0,1,0-.958A.662.662,0,0,1,95.777,213.539Z" transform="translate(210.764 535.876)" fill="#fff"/>
  </g>
</svg>
