<svg xmlns="http://www.w3.org/2000/svg" width="161" height="100" viewBox="0 0 161 100">
  <g id="组_10506" data-name="组 10506" transform="translate(-101 -313.503)">
    <rect id="矩形_18618" data-name="矩形 18618" width="161" height="100" rx="6" transform="translate(101 313.503)" fill="#f0f2f4"/>
    <path id="路径_8591" data-name="路径 8591" d="M52.27,136.642c-1.524,0-3-.566-3-2a3,3,0,0,1,6,0C55.27,136.076,53.794,136.642,52.27,136.642Zm5-9a2.253,2.253,0,0,1,2,2v18a2.253,2.253,0,0,1-2,2h-24c-.986,0-1-1.1-1-2v-18c0-.9.014-2,1-2Zm-6,11,6,6v-14a1.275,1.275,0,0,0-1-1h-22c-.448,0,.09.642,0,1v14l7-8c.269-.269.642-1,1-1,.448,0,.821.731,1,1l3,3h1c.179.09-.179,1,0,1,.269,0,.731-.821,1-1l1-1c.269-.179.642,0,1,0C50.718,138.642,51.091,138.373,51.27,138.642Z" transform="translate(135.73 225.861)" fill="#ccced5"/>
  </g>
</svg>
