<svg id="图层_1" data-name="图层 1" xmlns="http://www.w3.org/2000/svg" viewBox="0 0 50 16"><defs><style>.cls-1,.cls-3{fill:#2988e6;}.cls-2,.cls-3{isolation:isolate;}.cls-3{font-size:12px;font-family:ProximaNova-Regular, Proxima Nova;}</style></defs><g id="组_11165" data-name="组 11165"><g id="组_9315" data-name="组 9315"><path id="矩形_18585" data-name="矩形 18585" class="cls-1" d="M2,1A1,1,0,0,0,1,2V14a1,1,0,0,0,1,1H48a1,1,0,0,0,1-1V2a1,1,0,0,0-1-1H2M2,0H48a2,2,0,0,1,2,2V14a2,2,0,0,1-2,2H2a2,2,0,0,1-2-2V2A2,2,0,0,1,2,0Z"/><g id="primary" class="cls-2"><text class="cls-3" transform="translate(5.22 11.05)">Primary</text></g></g></g></svg>