<svg xmlns="http://www.w3.org/2000/svg" width="23.905" height="23.905" viewBox="0 0 23.905 23.905">
  <g id="组_8535" data-name="组 8535" transform="translate(-1636.494 -8456.933)">
    <path id="路径_8269" data-name="路径 8269" d="M337.951,338.056l-5.612-5.613,5.612-5.612a.866.866,0,0,0-1.224-1.224l-5.612,5.612-5.612-5.612a.866.866,0,1,0-1.224,1.225l5.612,5.612-5.612,5.612a.866.866,0,0,0,1.225,1.224l5.612-5.612,5.612,5.612a.866.866,0,0,0,1.224-1.224Z" transform="translate(1317.333 8136.443)" fill="#dd3636"/>
    <path id="路径_8270" data-name="路径 8270" d="M103.773,93.175a12.017,12.017,0,1,0-4.756,9.511.522.522,0,0,0,.136-.347.53.53,0,0,0-.53-.53.521.521,0,0,0-.383.162h-.007a10.592,10.592,0,1,1,3.195-3.66v.009a.563.563,0,0,0-.031.154.527.527,0,0,0,1.023.182v0A11.911,11.911,0,0,0,103.773,93.175Z" transform="translate(1556.626 8375.71)" fill="#d9210a"/>
  </g>
</svg>
