<svg xmlns="http://www.w3.org/2000/svg" width="18.769" height="18.34" viewBox="0 0 18.769 18.34"><g transform="translate(0 -11.767)"><path d="M222.4,19.367l4.046,4.047a1.457,1.457,0,0,0,2.056,0l4.046-4.046a.81.81,0,0,0-1.146-1.146l-3.118,3.117V12.578a.81.81,0,1,0-1.621,0v8.761l-3.118-3.118a.81.81,0,0,0-1.146,1.146Z" transform="translate(-218.093 0)" fill="#fff"/><path d="M15.386,128.7a.81.81,0,1,0,0,1.621,1.764,1.764,0,0,1,1.762,1.762v9.431a1.764,1.764,0,0,1-1.762,1.762h-12a1.764,1.764,0,0,1-1.762-1.762v-9.431a1.764,1.764,0,0,1,1.762-1.762.81.81,0,1,0,0-1.621A3.386,3.386,0,0,0,0,132.083v9.431A3.386,3.386,0,0,0,3.383,144.9h12a3.386,3.386,0,0,0,3.383-3.383v-9.431A3.386,3.386,0,0,0,15.386,128.7Z" transform="translate(0 -114.79)" fill="#fff"/></g></svg>