<svg xmlns="http://www.w3.org/2000/svg" width="14.522" height="15.241" viewBox="0 0 14.522 15.241">
  <path id="Drafts" d="M199.063,213.065a1.183,1.183,0,0,1-1.149-1.206v-3.654a1.183,1.183,0,0,1,1.15-1.206h.729v-7.423a1.616,1.616,0,0,1,1.574-1.652h7.516a1.616,1.616,0,0,1,1.574,1.652V207h.73a1.183,1.183,0,0,1,1.149,1.207v3.653a1.183,1.183,0,0,1-1.15,1.206H199.063Zm0-5.129a.249.249,0,0,0-.181.078.278.278,0,0,0-.076.191v3.653a.278.278,0,0,0,.075.191.249.249,0,0,0,.181.079h12.124a.252.252,0,0,0,.181-.078.278.278,0,0,0,.076-.191v-3.653a.278.278,0,0,0-.075-.191.252.252,0,0,0-.181-.079h-3.131l-.612,1.58,0,.015a.872.872,0,0,1-.844.773h-2.946a.872.872,0,0,1-.844-.772l0-.015-.612-1.58h-3.13Zm2.3-9.075a.7.7,0,0,0-.681.715V207h1.809a.445.445,0,0,1,.414.293l.752,1.941a.46.46,0,0,1,.015.044l.024.089h2.853l.024-.09a.4.4,0,0,1,.014-.043l.752-1.942a.445.445,0,0,1,.414-.293h1.809v-7.423a.7.7,0,0,0-.681-.715Zm1.5,5.919a.469.469,0,0,1,0-.937h3.382a.469.469,0,0,1,0,.937Zm0-2.762a.469.469,0,0,1,0-.937h4.51a.469.469,0,0,1,0,.937Z" transform="translate(-197.864 -197.874)" fill="#fff" stroke="#fff" stroke-width="0.1"/>
</svg>
