<svg xmlns="http://www.w3.org/2000/svg" width="17.928" height="4.137" viewBox="0 0 17.928 4.137">
  <g id="省略号2" transform="translate(-234.667 -448)">
    <path id="路径_8283" data-name="路径 8283" d="M236.736,450.069m-2.069,0A2.069,2.069,0,1,0,236.736,448,2.069,2.069,0,0,0,234.667,450.069Z" fill="#fff"/>
    <path id="路径_8284" data-name="路径 8284" d="M663.4,450.069m-2.069,0A2.069,2.069,0,1,0,663.4,448,2.069,2.069,0,0,0,661.333,450.069Z" transform="translate(-412.875)" fill="#fff"/>
    <path id="路径_8285" data-name="路径 8285" d="M450.069,450.069m-2.069,0A2.069,2.069,0,1,0,450.069,448,2.069,2.069,0,0,0,448,450.069Z" transform="translate(-206.438)" fill="#fff"/>
  </g>
</svg>
