<svg xmlns="http://www.w3.org/2000/svg" xmlns:xlink="http://www.w3.org/1999/xlink" width="242.39" height="170.969" viewBox="0 0 242.39 170.969">
  <defs>
    <linearGradient id="linear-gradient" x1="0.5" x2="0.5" y2="0.921" gradientUnits="objectBoundingBox">
      <stop offset="0" stop-color="#2988e6" stop-opacity="0.365"/>
      <stop offset="1" stop-color="#fff" stop-opacity="0"/>
    </linearGradient>
    <linearGradient id="linear-gradient-2" x1="0.074" y1="0.666" x2="1.121" y2="0.225" gradientUnits="objectBoundingBox">
      <stop offset="0" stop-color="#2988e6"/>
      <stop offset="1" stop-color="#2988e6"/>
    </linearGradient>
    <linearGradient id="linear-gradient-3" y1="0.347" x2="1" y2="0.347" gradientUnits="objectBoundingBox">
      <stop offset="0" stop-color="#dfefff"/>
      <stop offset="1" stop-color="#2988e6"/>
    </linearGradient>
    <linearGradient id="linear-gradient-4" x1="0.664" y1="0.276" x2="0.262" y2="0.779" gradientUnits="objectBoundingBox">
      <stop offset="0" stop-color="#2988e6"/>
      <stop offset="1" stop-color="#2988e6" stop-opacity="0.482"/>
    </linearGradient>
    <linearGradient id="linear-gradient-5" x1="0.363" y1="0.612" x2="0.591" y2="0.308" gradientUnits="objectBoundingBox">
      <stop offset="0" stop-color="#2988e6" stop-opacity="0.796"/>
      <stop offset="1" stop-color="#dfefff"/>
    </linearGradient>
    <linearGradient id="linear-gradient-6" x1="0.5" y1="0.912" x2="0.5" y2="0.082" gradientUnits="objectBoundingBox">
      <stop offset="0" stop-color="#2988e6"/>
      <stop offset="1" stop-color="#ffefef"/>
    </linearGradient>
    <linearGradient id="linear-gradient-7" x1="0.773" y1="0.589" x2="0.591" y2="0.178" xlink:href="#linear-gradient-3"/>
    <linearGradient id="linear-gradient-8" x1="0.453" y1="0.583" x2="0.602" y2="0.259" xlink:href="#linear-gradient-2"/>
    <linearGradient id="linear-gradient-9" y1="1" y2="0" xlink:href="#linear-gradient-6"/>
    <linearGradient id="linear-gradient-10" x1="0.42" x2="0.66" y2="1" gradientUnits="objectBoundingBox">
      <stop offset="0" stop-color="#2fb355" stop-opacity="0.302"/>
      <stop offset="1" stop-color="#2fb355"/>
    </linearGradient>
    <linearGradient id="linear-gradient-13" x1="0.401" y1="1.751" x2="0.34" y2="1" gradientUnits="objectBoundingBox">
      <stop offset="0" stop-color="#2fb355"/>
      <stop offset="1" stop-color="#2fb355"/>
    </linearGradient>
    <linearGradient id="linear-gradient-14" x1="0.442" y1="0.107" x2="0.534" y2="0.5" xlink:href="#linear-gradient-10"/>
    <linearGradient id="linear-gradient-15" x1="0.224" y1="0.262" x2="0.57" y2="1" gradientUnits="objectBoundingBox">
      <stop offset="0" stop-color="#2fb355"/>
      <stop offset="1" stop-color="#2fb355" stop-opacity="0.302"/>
    </linearGradient>
    <linearGradient id="linear-gradient-16" x1="0.5" y1="0.327" x2="0.5" xlink:href="#linear-gradient-15"/>
    <linearGradient id="linear-gradient-17" x1="0.5" y1="0.673" x2="0.5" y2="0" xlink:href="#linear-gradient-15"/>
    <linearGradient id="linear-gradient-18" x1="0.401" y1="1.751" x2="0.34" y2="1" gradientUnits="objectBoundingBox">
      <stop offset="0" stop-color="#2fb355"/>
      <stop offset="1" stop-color="#2fb355" stop-opacity="0.435"/>
    </linearGradient>
    <linearGradient id="linear-gradient-19" x1="0" y1="0.501" x2="1" y2="0.501" xlink:href="#linear-gradient-13"/>
  </defs>
  <g id="空页面" transform="translate(-77.469 -56.001)">
    <g id="组_5828" data-name="组 5828" transform="translate(77.469 56.001)">
      <g id="组_5825" data-name="组 5825" transform="translate(19.7 0)">
        <path id="路径_8333" data-name="路径 8333" d="M283,227.03a105.658,105.658,0,0,0,22.463-65.321c0-58.343-46.99-105.648-104.95-105.648S95.56,103.357,95.56,161.708a105.633,105.633,0,0,0,22.463,65.321H283Z" transform="translate(-95.56 -56.061)" fill="url(#linear-gradient)"/>
        <path id="路径_5901" data-name="路径 5901" d="M80.311,108.211H74.845s-6.013.3-5.637-3.926c.349-3.9,4.353-3.023,4.353-3.023s.37-7.918,9.9-7.632c9.264.279,9.9,8.464,9.9,8.464a3.268,3.268,0,0,1,3.249,2.8c.225,2.116-1.814,3.326-3.7,3.326H80.31Z" transform="translate(65.66 -76.844)" fill="#fff"/>
        <path id="路径_5902" data-name="路径 5902" d="M439.944,131.1a12.869,12.869,0,0,0-1.624,2.166,16.558,16.558,0,0,0-2.041,8.812,6.742,6.742,0,0,0-6.351.881c-2.546,2.041-1.6,7.061,4.162,7.061h37.863s3.823.617,3.947-2.732c.154-4.225-5.009-3.448-5.009-3.448a4.674,4.674,0,0,0-2.01-5.784,5.036,5.036,0,0,0-6.29,1.018s-1.48-14.1-15.361-11.655a15.993,15.993,0,0,0-2.8.755,14.44,14.44,0,0,0-4.481,2.923Z" transform="translate(-399.003 -90.569)" fill="#fff"/>
      </g>
      <g id="组_5826" data-name="组 5826" transform="translate(74.823 87.742)">
        <path id="矩形" d="M100,7.674,140.182.5V41.282H100Z" transform="translate(-90.404 -0.5)" fill="url(#linear-gradient-2)"/>
        <path id="矩形-2" data-name="矩形" d="M167,.5l48.578,6.569V44.28H167Z" transform="translate(-117.222 -0.5)" fill="url(#linear-gradient-3)"/>
        <path id="矩形-3" data-name="矩形" d="M100,12.454l46.779,9.824V80.224L100,67.726Z" transform="translate(-90.404 -5.285)" fill="url(#linear-gradient-4)"/>
        <path id="矩形-4" data-name="矩形" d="M101,29h46.179l-4.643,26.031L101,44.282Z" transform="translate(-90.804 -11.907)" fill-rule="evenodd" fill="url(#linear-gradient-5)"/>
        <path id="矩形-5" data-name="矩形" d="M178,21.921l41.981-10.467V65.976L178,79.824Z" transform="translate(-121.625 -4.885)" fill="url(#linear-gradient-6)"/>
        <path id="矩形-6" data-name="矩形" d="M178,29h41.382V43.871l-37.544,13.9Z" transform="translate(-121.625 -11.907)" fill-rule="evenodd" fill="url(#linear-gradient-7)"/>
        <path id="矩形-7" data-name="矩形" d="M93.6,12.454l46.779,9.867-9.3,21.347L84,31.529Z" transform="translate(-84 -5.285)" fill="url(#linear-gradient-8)"/>
        <path id="矩形-8" data-name="矩形" d="M178,21.921l41.981-10.467,8.967,18.838-40,12.976Z" transform="translate(-121.625 -4.885)" fill="url(#linear-gradient-9)"/>
        <path id="路径-2" d="M178,28.905l10.943,21.347,40-12.976" transform="translate(-121.625 -11.869)" fill="none" fill-rule="evenodd"/>
        <path id="路径-12" d="M140.375,28.905l-9.3,21.347L84,38.114" transform="translate(-84 -11.869)" fill="none" stroke="#dfefff" stroke-width="0.5" fill-rule="evenodd" opacity="0.604"/>
        <path id="路径-13" d="M146.779,17.536,188.76,7.069,140.182.5,100,7.674Z" transform="translate(-90.404 -0.5)" fill="none" stroke="#fff" stroke-linejoin="round" stroke-width="0.5" fill-rule="evenodd"/>
      </g>
      <g id="组_5827" data-name="组 5827" transform="translate(0 88.222)" opacity="0.736">
        <g id="plant_11_" transform="translate(0 7.216) rotate(-1)">
          <path id="Path" d="M1.969,7.176a.168.168,0,0,1-.135-.058A6.483,6.483,0,0,1,.025,2.032,4.061,4.061,0,0,1,.832.057.173.173,0,0,1,1.061.032a.135.135,0,0,1,.028.2A3.869,3.869,0,0,0,.344,2.081,6.227,6.227,0,0,0,2.1,6.942a.135.135,0,0,1-.032.2.171.171,0,0,1-.1.031Z" transform="translate(6.752 10.175)" fill="#d0e7fe"/>
          <path id="Path-2" data-name="Path" d="M24.39,20.44C12.287,6.083-.009,8.694,0,4.156,0,2.765,3.9-1.316,9.565.425S22.974,7.851,24.39,20.44Z" transform="translate(10.585 46.477)" fill="url(#linear-gradient-10)"/>
          <path id="Path-3" data-name="Path" d="M1.69,7.279c11.371-19.3,55.668-.493,33.371,59.8,0,0-2.113-24.29-14.63-33.537S-4.629,18,1.69,7.279Z" transform="translate(0 0)" fill="url(#linear-gradient-10)"/>
          <path id="Path-4" data-name="Path" d="M0,27.26c10.653-6.2,21.41-7.581,21.845-16.65C22.142,4.441,20.538,0,16.26,0,13.871,0,4.011,6.98,0,27.26Z" transform="translate(35.616 39.878)" fill="url(#linear-gradient-10)"/>
          <path id="Path-5" data-name="Path" d="M3.091,3.587a.135.135,0,0,1-.135-.111c0-.032-.73-3.158-2.82-3.187A.135.135,0,0,1,0,.143.135.135,0,0,1,.136,0c2.3.031,3.055,3.27,3.086,3.409a.145.145,0,0,1-.1.175.135.135,0,0,1-.03,0Z" transform="translate(30.366 39.181)" fill="#fff"/>
          <path id="Path-6" data-name="Path" d="M.149,3.228H.123A.15.15,0,0,1,0,3.052C.022,2.952.441.6,1.959.009A.143.143,0,0,1,2.146.1.152.152,0,0,1,2.06.291C.7.812.3,3.082.291,3.105a.146.146,0,0,1-.142.123Z" transform="translate(34.851 47.017)" fill="#fff"/>
          <path id="Path-7" data-name="Path" d="M8.826,5.764a.143.143,0,0,1-.135-.1A7.559,7.559,0,0,0,.173.415.146.146,0,0,1,0,.295.15.15,0,0,1,.121.116,7.839,7.839,0,0,1,8.962,5.561a.154.154,0,0,1-.087.194A.135.135,0,0,1,8.826,5.764Z" transform="translate(20.662 22.511)" fill="#fff"/>
          <path id="Path-8" data-name="Path" d="M.441,8.248a.135.135,0,0,1-.119-.107A8.987,8.987,0,0,1,.836,1.974,5.794,5.794,0,0,1,2.344.022a.114.114,0,0,1,.171.045.16.16,0,0,1-.037.2C2.445.29-.672,2.706.565,8.067a.149.149,0,0,1-.088.177.118.118,0,0,1-.037,0Z" transform="translate(30.789 25.18)" fill="#fff"/>
          <path id="Path-9" data-name="Path" d="M21.294,57.4a.135.135,0,0,1-.129-.084C15.4,44.714,1.313,40.68,1.172,40.641a.149.149,0,0,1-.1-.18.135.135,0,0,1,.175-.1c.135.039,13.971,4,19.933,16.3a118.039,118.039,0,0,0-1.672-23.689C17.4,21.27,12.325,6.106.082.283A.149.149,0,0,1,.013.088.135.135,0,0,1,.2.015c6.82,3.249,15.754,11.586,19.586,32.9a117.18,117.18,0,0,1,1.649,24.336.145.145,0,0,1-.115.135Z" transform="translate(13.999 9.985)" fill="#fff"/>
          <path id="Path-10" data-name="Path" d="M.137,22.6a.135.135,0,0,1-.111-.057.153.153,0,0,1,.03-.2C13.866,10.939,16.555.223,16.58.116A.142.142,0,0,1,16.752,0a.148.148,0,0,1,.1.18C16.831.295,14.125,11.1.232,22.569a.135.135,0,0,1-.095.031Z" transform="translate(34.742 44.308)" fill="#fff"/>
          <path id="Path-11" data-name="Path" d="M1.323,3.584a.1.1,0,0,1-.062-.022A3.237,3.237,0,0,1,.132.087.114.114,0,0,1,.276.005.143.143,0,0,1,.345.181,2.889,2.889,0,0,0,1.378,3.333a.149.149,0,0,1,.038.188A.115.115,0,0,1,1.323,3.584Z" transform="translate(21.298 50.362)" fill="#fff"/>
          <path id="Path-12" data-name="Path" d="M5.593,2.511a.143.143,0,0,1-.1-.042A8.156,8.156,0,0,0,.148.3h0A.148.148,0,0,1,0,.153.148.148,0,0,1,.135,0a8.257,8.257,0,0,1,5.55,2.254.152.152,0,0,1,0,.21.135.135,0,0,1-.092.047Z" transform="translate(22.416 55.62)" fill="#fff"/>
          <path id="Path-13" data-name="Path" d="M.137,7.176a.135.135,0,0,1-.108-.219,5.764,5.764,0,0,0,0-6.739A.135.135,0,0,1,.058.029.135.135,0,0,1,.251.057c.027.037,2.657,3.663,0,7.065A.135.135,0,0,1,.137,7.176Z" transform="translate(46.571 47.115)" fill="#fff"/>
          <path id="Path-14" data-name="Path" d="M.145,3.587a.15.15,0,0,1-.107-.043.135.135,0,0,1,.007-.195C3.925-.055,6.564,0,6.672,0a.135.135,0,0,1,.135.142.142.142,0,0,1-.152.135C6.639.271,4.029.233.245,3.549A.154.154,0,0,1,.145,3.587Z" transform="translate(41.293 57.698)" fill="#fff"/>
        </g>
        <path id="Path备份-3" d="M78,506.751h0c0-3.038,2.94-5.5,6.567-5.5.057,0,.108.012.164.014.754-3.145,4.068-5.513,8.045-5.513a9.338,9.338,0,0,1,4.217,1A8.459,8.459,0,0,1,104.261,493c3.977,0,7.291,2.369,8.045,5.513.056,0,.107-.014.164-.014,4.533,0,8.209,3.078,8.209,6.875a4.578,4.578,0,0,1-4.925,4.125H81.284A3.053,3.053,0,0,1,78,506.751Z" transform="translate(-57.685 -431.029)" fill="url(#linear-gradient-13)"/>
        <g id="plant_25_" transform="translate(186.648 0)">
          <g id="Group" transform="translate(0 18.236)">
            <path id="Path-15" data-name="Path" d="M2.385,36.787c-1.419-3.5-3.536-8.466.788-11.4s.376-4.666.237-8.914,4.278-5.34,4.145-7.354a30.9,30.9,0,0,1,.057-7.1c.677-2.544,5.787-3.7,6.308,3.463.328,4.5.768,7.216,3.042,10.423s-2.734,6.6-2.642,9.187,2.561,2.2,2.29,7.677-3.681,9.611-6.924,9.373a9.68,9.68,0,0,1-7.3-5.362Z" transform="translate(-0.598 -0.065)" fill="url(#linear-gradient-14)"/>
            <path id="Path-16" data-name="Path" d="M18.879,27.491a.195.195,0,0,0-.271.092c-.038.08-.939,1.913-2.408,1.313a15.394,15.394,0,0,0,.169-3.376.179.179,0,0,0,.008-.02.214.214,0,0,0-.02-.135c-.018-.181-.039-.36-.069-.541a35.664,35.664,0,0,1,.032-8.191,10.048,10.048,0,0,0,.092-2.044.2.2,0,0,0-.241-.152.21.21,0,0,0-.143.254,12.914,12.914,0,0,1-.1,1.9,36.008,36.008,0,0,0-.028,8.3c.015.087.024.177.037.271a4.024,4.024,0,0,1-2.648-2.5.2.2,0,0,0-.25-.135.211.211,0,0,0-.127.264,4.441,4.441,0,0,0,3.076,2.833A30.074,30.074,0,0,1,14.9,33.476a51.423,51.423,0,0,0-1.2,6.939,22.186,22.186,0,0,0,.061,3.384c-1.083-.56-4.027-2.3-4.1-4.647a.214.214,0,0,0-.2-.2.2.2,0,0,0-.191.217c.092,2.8,3.645,4.685,4.542,5.118.292,3.105.977,6.633,1.489,9.241A25.607,25.607,0,0,1,15.9,57.3a.21.21,0,0,0,.153.248.173.173,0,0,0,.041,0,.2.2,0,0,0,.194-.167,20.29,20.29,0,0,0-.612-3.945c-.5-2.572-1.174-6.048-1.469-9.106a.2.2,0,0,0,.056-.07A.213.213,0,0,0,14.178,44a23.25,23.25,0,0,1-.089-3.372,3.79,3.79,0,0,0,3.552-2.572.211.211,0,0,0-.135-.26.2.2,0,0,0-.246.135,3.325,3.325,0,0,1-3.141,2.27,53.122,53.122,0,0,1,1.17-6.645c.322-1.469.636-2.9.85-4.248a1.863,1.863,0,0,0,.638.119,2.738,2.738,0,0,0,2.189-1.665.217.217,0,0,0-.085-.273Z" transform="translate(-6.154 -9.284)" fill="#fff"/>
          </g>
          <g id="Group-2" data-name="Group" transform="translate(18.355)">
            <path id="Path-17" data-name="Path" d="M22.154,51.573c2-4.9,4.983-11.838-1.114-15.935s-.531-6.525-.333-12.463-6.027-7.465-5.84-10.288.5-7.8-.08-9.921C13.826-.586,6.63-2.2,5.9,7.813,5.435,14.1,4.813,17.9,1.609,22.39s3.855,9.232,3.724,12.845S1.724,38.313,2.1,45.97s5.189,13.446,9.76,13.1C14.968,58.843,20.328,56.044,22.154,51.573Z" transform="translate(-0.774 -0.228)" fill="url(#linear-gradient-15)"/>
            <path id="Path-18" data-name="Path" d="M30.738,55.034a.206.206,0,0,0-.192-.217.217.217,0,0,0-.206.2c-.115,3.432-4.555,5.93-5.964,6.633a30.335,30.335,0,0,0,.1-4.865,71.283,71.283,0,0,0-1.691-9.69c-.907-4.091-1.76-7.974-1.519-11.058A6.182,6.182,0,0,0,25.6,32.126a.211.211,0,0,0-.127-.263.2.2,0,0,0-.25.135,5.807,5.807,0,0,1-3.905,3.594c.02-.171.042-.34.069-.5A49.867,49.867,0,0,0,21.347,23.5a17.079,17.079,0,0,1-.142-2.69.208.208,0,0,0-.143-.253.2.2,0,0,0-.242.15,14.451,14.451,0,0,0,.135,2.831,49.535,49.535,0,0,1,.037,11.479c-.041.244-.072.494-.1.749a.217.217,0,0,0-.028.156.2.2,0,0,0,.014.035,21.368,21.368,0,0,0,.248,4.788h0c-2.166.931-3.5-1.744-3.551-1.857a.195.195,0,0,0-.271-.092.214.214,0,0,0-.088.28c.014.027,1.128,2.284,3.008,2.284a2.611,2.611,0,0,0,.968-.2c.3,1.91.749,3.945,1.218,6.033a73.069,73.069,0,0,1,1.66,9.392c-.827-.054-3.805-.425-4.592-3.233a.2.2,0,0,0-.248-.135.21.21,0,0,0-.135.259c.877,3.128,4.186,3.5,5.009,3.537a31.194,31.194,0,0,1-.135,4.846h-.008a.213.213,0,0,0-.107.271.2.2,0,0,0,.079.1c-.42,4.149-1.367,8.765-2.071,12.194A25.666,25.666,0,0,0,21,79.636a.2.2,0,0,0,.195.165.178.178,0,0,0,.042,0,.208.208,0,0,0,.154-.246,31.16,31.16,0,0,1,.851-5.042c.713-3.474,1.676-8.163,2.091-12.37C25.5,61.588,30.612,58.948,30.738,55.034Z" transform="translate(-11.305 -13.264)" fill="#fff"/>
          </g>
        </g>
        <path id="Fill-1" d="M552.21,498.662a4.547,4.547,0,0,0,.356-2.481,5.333,5.333,0,0,0-4.475-4.321,6.226,6.226,0,0,0-2.9.16,7.871,7.871,0,0,0-7.31-4.482c-.208,0-.416.01-.62.024A10.167,10.167,0,0,0,530.414,485a9.747,9.747,0,0,0-8.689,4.923,6.513,6.513,0,0,0-5.87,3.69c-.082,0-.165-.012-.249-.012A4.383,4.383,0,0,0,511,497.725a3.715,3.715,0,0,0,.209,1.228,1.183,1.183,0,0,0,1.134.757h38.1a1.907,1.907,0,0,0,1.76-1.045" transform="translate(-310.218 -425.897)" fill="url(#linear-gradient-16)"/>
        <path id="路径-19" d="M0,0H52.8q-.12,5.516-7.215,4.509c.923,5.883-7.174,9.036-11.069,5.883-3.342,7.046-11.506,3.154-11.506,0-2.9,3.708-9.256,1.664-9.579-2.456-4.816,2.68-8.257-.727-8.257-3.586Q0,4.509,0,0Z" transform="translate(225.605 78.472) rotate(180)" fill="url(#linear-gradient-17)"/>
        <path id="路径-19-2" data-name="路径-19" d="M167.8,521.2H115q.12-4.688,7.215-3.833c-.923-5,7.174-7.681,11.069-5,3.342-5.99,11.506-2.68,11.506,0,2.9-3.151,9.256-1.413,9.579,2.087,4.816-2.278,8.257.619,8.257,3.047Q167.8,517.362,167.8,521.2Z" transform="translate(-74.413 -442.724)" fill="url(#linear-gradient-18)"/>
      </g>
    </g>
    <g id="组_5839" data-name="组 5839" transform="translate(182.478 106.086)">
      <g id="组_5836" data-name="组 5836" transform="translate(0 0)">
        <g id="组_5835" data-name="组 5835" transform="translate(0)">
          <path id="路径_8351" data-name="路径 8351" d="M405.2,176.531a38.2,38.2,0,0,1-11.472,9.834A70.919,70.919,0,0,1,378.5,192.61c-3.095.933-6.227,1.738-9.354,2.557-.042.014-.028.085.014.07a146.737,146.737,0,0,0,16.757-5.072,50.762,50.762,0,0,0,13.437-7.545,34.18,34.18,0,0,0,5.906-6.047c.028-.042-.028-.07-.057-.042Z" transform="translate(-369.119 -176.52)" fill="#ffc9c9"/>
        </g>
      </g>
      <g id="组_5838" data-name="组 5838" transform="translate(24.114 6.794)">
        <g id="组_5837" data-name="组 5837" transform="translate(0 0)">
          <path id="路径_8352" data-name="路径 8352" d="M552.9,224.654a70.6,70.6,0,0,1-9.863,9.409c-1.06.834-2.133,1.624-3.249,2.4a.035.035,0,0,0,.042.057,70.923,70.923,0,0,0,10.469-8.934c.9-.948,1.78-1.907,2.642-2.9.042-.014-.014-.07-.042-.042Z" transform="translate(-539.778 -224.641)" fill="#ffc6c6"/>
        </g>
      </g>
      <path id="路径_8353" data-name="路径 8353" d="M712.4,320.324s4.96,1.144,7.813-1.06a5.088,5.088,0,0,0,2.445-5.129,6.551,6.551,0,0,1,3.419.24c0,.085.325-.819-.975-.891s-4.521-.24-5.685.975-1.723,4.309-3.279,4.719a19.182,19.182,0,0,0,1.54-3.334,3.762,3.762,0,0,1,3.984-2.854,2.707,2.707,0,0,0-1.949-.891,4.014,4.014,0,0,0-3.575,1.949C715.339,315.505,714.915,320.579,712.4,320.324Z" transform="translate(-663.898 -292.946)" fill="url(#linear-gradient-19)"/>
      <path id="路径_8354" data-name="路径 8354" d="M657.089,259.62s-2.952-.948-3.758-2.978a3.113,3.113,0,0,1,.311-3.448,4.04,4.04,0,0,0-1.865-.933c-.028.042.085-.522.791-.169s2.445,1.271,2.671,2.274-.439,2.8.254,3.49a11.15,11.15,0,0,1,.226-2.23,2.281,2.281,0,0,0-1.2-2.729,1.639,1.639,0,0,1,1.3.135,2.456,2.456,0,0,1,1.271,2.133C657.047,256.187,655.69,258.957,657.089,259.62Z" transform="translate(-611.837 -241.313)" fill="url(#linear-gradient-19)"/>
      <path id="路径_8355" data-name="路径 8355" d="M701.23,217.128a4.76,4.76,0,0,1-1.144-3.193,2.2,2.2,0,0,1,1.489-1.949,2.887,2.887,0,0,0-.763-1.258c-.028.014.24-.283.542.2s.99,1.681.748,2.359-1.314,1.512-1.159,2.19a8.487,8.487,0,0,1,.975-1.258,1.605,1.605,0,0,0,.3-2.091,1.183,1.183,0,0,1,.735.565,1.733,1.733,0,0,1-.042,1.752C702.486,215.05,700.636,216.21,701.23,217.128Z" transform="translate(-653.293 -205.828)" fill="url(#linear-gradient-19)"/>
    </g>
  </g>
</svg>
