<svg xmlns="http://www.w3.org/2000/svg" width="13.662" height="11.843" viewBox="0 0 13.662 11.843">
  <path id="路径_5714" data-name="路径 5714" d="M111,139.843H100.066a1.4,1.4,0,0,1-1.366-1.366v-9.111A1.4,1.4,0,0,1,100.066,128h4.464l1.639,2.094H111a1.4,1.4,0,0,1,1.366,1.366v7.015A1.4,1.4,0,0,1,111,139.843Zm-10.932-10.932a.43.43,0,0,0-.455.455v9.109a.43.43,0,0,0,.455.455H111a.43.43,0,0,0,.455-.455v-7.013a.43.43,0,0,0-.455-.455h-5.283l-1.639-2.094h-4.008Zm0,0" transform="translate(-98.7 -128)" fill="#8d8d8d"/>
</svg>
