<svg xmlns="http://www.w3.org/2000/svg" width="355.281" height="231.112" viewBox="0 0 355.281 231.112">
  <g id="组_10775" data-name="组 10775" transform="translate(-9.86 -339)">
    <g id="bg8" transform="translate(9.92 339)" opacity="0.999">
      <path id="路径_13560" data-name="路径 13560" d="M452.249,409.7c-.246-1.776,2.345-9.33,3.064-10.993,4.237-9.8,19.126-47.146.7-62.38-20.821-17.234-31.239-55.268,3.9-70.719C487,253.7,504.183,209.147,555.58,238.859s85.886-5.349,108.659-3.566,69.621,1.19,80.028,37.438,74.826,51.7,35.135,101.028-2.594,71.909-50.744,80.818-40.99-7.132-91.741-4.159-53.352,8.915-104.756,9.509C483.976,460.487,454.653,427.093,452.249,409.7Z" transform="translate(-436.97 -228.82)" fill="#f8f8ff"/>
      <path id="路径_13561" data-name="路径 13561" d="M515.88,573.537l314.538,1.25,8.185-12.545s-30.27-26.859-64.612-15.444c-29.414,9.786-65.177-8.164-81.411-8.828-39.347-1.608-49.947,22.976-73.559,22.976s-33.345-24.384-60.095-20.481S515.88,573.537,515.88,573.537Z" transform="translate(-488.222 -429.409)" fill="#f5f5fc" opacity="0.603"/>
      <path id="路径_13562" data-name="路径 13562" d="M729.336,637.2s5.43.351,6.318,0-.3-1.292-2.106-1.292a14.95,14.95,0,0,0-3.556.2.87.87,0,0,0-.656,1.1Z" transform="translate(-626.732 -493.019)" fill="#e9edfa"/>
      <path id="路径_13563" data-name="路径 13563" d="M731.665,629.746s-2.436-2.3-1.45-2.369a2.123,2.123,0,0,1,2.039.986c.13.46.133-1.713.79-1.646s.986.79.723,1.713a3.156,3.156,0,0,1,1.646-.723c.79,0,.66.986.2,1.316s-1.843,1.186-1.843,1.186h-2.173Z" transform="translate(-627.173 -487.054)" fill="#e9edfa"/>
      <path id="路径_13564" data-name="路径 13564" d="M1225.426,638.51s5.43.351,6.318,0-.3-1.292-2.106-1.292a14.951,14.951,0,0,0-3.556.2.87.87,0,0,0-.656,1.1Z" transform="translate(-948.694 -493.869)" fill="#e9edfa"/>
      <path id="路径_13565" data-name="路径 13565" d="M1227.755,631.056s-2.436-2.3-1.45-2.369a2.123,2.123,0,0,1,2.039.986c.13.46.133-1.713.79-1.646s.986.79.723,1.713a3.155,3.155,0,0,1,1.646-.723c.79,0,.66.986.2,1.316s-1.843,1.186-1.843,1.186h-2.173Z" transform="translate(-949.135 -487.904)" fill="#e9edfa"/>
      <path id="路径_13566" data-name="路径 13566" d="M617.076,639.17s5.43.351,6.318,0-.3-1.292-2.106-1.292a14.95,14.95,0,0,0-3.556.2.87.87,0,0,0-.656,1.1Z" transform="translate(-553.875 -494.298)" fill="#e9edfa"/>
      <path id="路径_13567" data-name="路径 13567" d="M619.4,631.706s-2.436-2.3-1.45-2.369a2.123,2.123,0,0,1,2.039.986c.13.46.133-1.713.79-1.646s.986.79.723,1.713a3.156,3.156,0,0,1,1.646-.723c.79,0,.66.986.2,1.316s-1.843,1.186-1.843,1.186h-2.173Z" transform="translate(-554.316 -488.326)" fill="#e9edfa"/>
      <path id="路径_13568" data-name="路径 13568" d="M1295.156,639.99s5.43.351,6.318,0-.3-1.292-2.106-1.292a14.951,14.951,0,0,0-3.556.2.87.87,0,0,0-.656,1.1Z" transform="translate(-993.949 -494.83)" fill="#e9edfa"/>
      <path id="路径_13569" data-name="路径 13569" d="M1297.485,632.536s-2.436-2.3-1.45-2.369a2.123,2.123,0,0,1,2.039.986c.13.46.133-1.713.79-1.646s.986.79.723,1.713a3.156,3.156,0,0,1,1.646-.723c.79,0,.66.986.2,1.316s-1.843,1.186-1.843,1.186h-2.173Z" transform="translate(-994.39 -488.865)" fill="#e9edfa"/>
      <path id="路径_13570" data-name="路径 13570" d="M553.866,637.52s5.43.351,6.318,0-.3-1.292-2.106-1.292a14.95,14.95,0,0,0-3.556.2.87.87,0,0,0-.656,1.1Z" transform="translate(-512.852 -493.227)" fill="#e9edfa"/>
      <path id="路径_13571" data-name="路径 13571" d="M556.195,630.066s-2.436-2.3-1.45-2.369a2.123,2.123,0,0,1,2.039.986c.13.46.133-1.713.79-1.646s.986.79.723,1.713a3.155,3.155,0,0,1,1.646-.723c.79,0,.66.986.2,1.316s-1.843,1.186-1.843,1.186h-2.173Z" transform="translate(-513.293 -487.262)" fill="#e9edfa"/>
      <path id="路径_13572" data-name="路径 13572" d="M1334.8,640.29s5.43.351,6.318,0-.3-1.292-2.106-1.292a14.954,14.954,0,0,0-3.556.2.87.87,0,0,0-.656,1.1Z" transform="translate(-1019.675 -495.025)" fill="#e9edfa"/>
      <path id="路径_13573" data-name="路径 13573" d="M1337.125,632.836s-2.436-2.3-1.45-2.369a2.123,2.123,0,0,1,2.039.986c.13.46.133-1.713.79-1.646s.986.79.723,1.713a3.156,3.156,0,0,1,1.646-.723c.79,0,.66.986.2,1.316s-1.843,1.186-1.843,1.186h-2.173Z" transform="translate(-1020.116 -489.06)" fill="#e9edfa"/>
      <path id="路径_13574" data-name="路径 13574" d="M1125.881,519.325l-.323-10.267s-12.59-.586-7.206-10.425a1.68,1.68,0,0,0,1.3-1.857c0-1.671-2.969-1.671-3.159-2.783s-.186-3.51,2.783-5.567-3.714-6.669-3.9-7.424,0-2.6,2.043-4.454a6.635,6.635,0,0,0,2.411-5.753c-.186-1.857-5.2-4.268-2.969-6.125s6.869-3.342,7.238-4.826-.186-8.168,4.268-6.5,14.293-.372,16.336-.186a9.217,9.217,0,0,1,7.052,4.082c2.229,3.159,3.714.927,4.64,3.159s-1.113,9.477.558,11.323,4.268,3.342,3.159,6.669-5.2,5.384-5.2,6.669,1.857,5.753,1.857,7.052a3.66,3.66,0,0,1-2.969,3.714c-2.225.372-2.411,1.485-2.411,3.9s-1.671.558-1.671.558l.372,18.375h-2.784s0-16.89-.558-18.747H1144.9l.186,18.747h-2.229l-.186-16.7s-2.783-3.342-3.9-3.51.744,20.6.744,20.6h-2.043l-.558-18.933s-.927,3.714-1.857,3.714.372,15.033.372,15.033h-2.043l-.744-15.219s-1.113-2.043-2.043.558-1.594.509-1.4,1.622.242,13.5.242,13.5Z" transform="translate(-877.261 -374.366)" fill="#e9edfa"/>
      <path id="路径_13575" data-name="路径 13575" d="M665.049,562.728l2.952.1-.147-10.362s2.776-2.776,4.626-2.59,6.1,1.109,8.512-1.3.555-4.995,1.85-4.995-1.109-2.959-1.109-4.254c0-.835,2.475-14.04-2.945-12.741-4.76,1.127-6.922-7.589-12.116-4.261-4.1,2.629-9.621,1.085-10,3.664-.916,6.188-6.206,4.23-5.441,7.785,1.109,5.181.351,7.4,2.566,7.957s-.555,2.959.369,4.812.186,3.7,2.776,3.7a22.585,22.585,0,0,1,5.921,1.109c1.667.369,2.036,1.3,2.036,1.3Z" transform="translate(-576.015 -418.814)" fill="#e9edfa"/>
      <path id="路径_13576" data-name="路径 13576" d="M1341.309,565.9l2.952.1-.147-10.362s2.776-2.776,4.626-2.59,6.1,1.109,8.512-1.3.555-4.995,1.85-4.995-1.109-2.959-1.109-4.254c0-.835,2.474-14.04-2.945-12.741-4.76,1.127-6.922-7.589-12.116-4.261-4.1,2.629-9.621,1.085-10,3.664-.916,6.188-6.206,4.229-5.441,7.785,1.109,5.181.351,7.4,2.566,7.957s-.555,2.959.369,4.812.186,3.7,2.776,3.7a22.586,22.586,0,0,1,5.921,1.109c1.667.369,2.036,1.3,2.036,1.3Z" transform="translate(-1014.908 -420.871)" fill="#e9edfa"/>
      <path id="路径_13577" data-name="路径 13577" d="M573.316,544.567l2.952.126-.144-12.826s2.776-3.436,4.626-3.2,6.1,1.372,8.512-1.6.555-6.185,1.85-6.185S590,517.21,590,515.609c0-1.035,2.475-17.36-2.945-15.774-4.76,1.4-6.922-9.393-12.117-5.265-4.1,3.254-9.621,1.344-10,4.535-.916,7.659-6.206,5.237-5.441,9.638,1.109,6.413.351,9.165,2.566,9.853s-.555,3.664.369,5.967.186,4.563,2.776,4.563,4.254.916,5.921,1.372a2.81,2.81,0,0,1,2.036,1.6Z" transform="translate(-516.482 -400.677)" fill="#e9edfa"/>
      <path id="路径_13578" data-name="路径 13578" d="M615.608,445.217l4.022.112v-51.78s10.632,1.755,11.811-.59.983-3.159,4.528-3.159,4.914-.2,3.159-3.349-4.331.393-1.755-3.159,7.852-5.69,4.307-7.866-9.449,1.755-9.449-2.362-1.755-3.349-.786-7.48,1.379-3.742,1.183-7.876a29.343,29.343,0,0,1,.393-7.283c.2-1.179-2.755-3.349-4.914-5.511s-2.559-4.914-6.694-4.331-5.511.786-4.331,4.331-4.135.786-4.914,1.969.59,2.362-1.755,3.159-1.576.59.983,2.166.786,2.952-.983,2.952-3.742-3.545-4.135-1.969-2.755.786-1.183,5.118,1.576,3.545.786,4.331-.983.786,0,1.755-4.528-.786-4.528,1.379-.393,6.3.983,9.252-5.511.59-5.314,1.969.393,2.755,1.755,3.159,5.118.393,2.755,1.379-7.283,4.135-7.283,4.914.2,2.559,2.755,3.349.2,3.545,2.559,3.742a21.668,21.668,0,0,0,8.466-.983c2.755-.983,6.3-1.183,6.89.393s1.755.393,1.755.393Z" transform="translate(-539.084 -301.303)" fill="#bac6f2" opacity="0.79"/>
      <path id="路径_13579" data-name="路径 13579" d="M1244.006,472.049l-3.619.1V426.552s-9.561,1.562-10.625-.519-.885-2.773-4.072-2.773-4.426-.172-2.833-2.948,3.9.351,1.594-2.773-3.313-5.465-.126-7.371,2-1.3,2-4.942,4.317.351,3.433-3.289-4.012-3.226-3.833-6.866,2.594-5.444,2.418-6.483,2.478-2.948,4.426-4.854,2.3-4.335,6.02-3.815,4.96.7,3.9,3.815,3.721.7,4.426,1.734-.53,2.081,1.594,2.773,1.4.519-.885,1.906-.7,2.6.885,2.6,3.366-3.12,3.721-1.734,2.478.7,1.053,4.507-1.4,3.12-.7,3.815.885.7,0,1.562,4.072-.7,4.072,1.214.351,5.549-.885,8.147,4.96.519,4.781,1.734-.351,2.425-1.594,2.773-4.605.351-2.478,1.214a3.159,3.159,0,0,1,1.99,3.4c0,.695,1.446,3.075-.856,3.77s2.762,3.233.639,3.4a19.853,19.853,0,0,1-7.613-.867c-2.478-.867-5.669-1.053-6.2.351s-1.594.351-1.594.351Z" transform="translate(-946.6 -326.836)" fill="#bac6f2"/>
      <path id="路径_13580" data-name="路径 13580" d="M320.31,451.38V459.8H456.849v-8.073Z" transform="translate(-207.92 -292.945)" fill="#b1c1f2" opacity="0.603"/>
      <path id="路径_13581" data-name="路径 13581" d="M361.908,369.38l-.218,29.249h4.1l-.025-29.249Z" transform="translate(-234.776 -239.727)" fill="#b1c1f2"/>
      <path id="路径_13582" data-name="路径 13582" d="M656.31,369.38l.305,29.438h3.924l-.018-29.438Z" transform="translate(-425.984 -239.727)" fill="#b1c1f2"/>
      <path id="路径_13583" data-name="路径 13583" d="M778.29,591.061s1.053-3.861,3.861-3.861l113.464.028a2.3,2.3,0,0,1,1.1.278c.958.516,2.857,1.755,3.376,3.555Z" transform="translate(-658.526 -461.408)" fill="#bac6f2" opacity="0.603"/>
      <path id="路径_13584" data-name="路径 13584" d="M339.57,381.58v3.257l122.3.095-.095-3.159Z" transform="translate(-220.42 -247.645)" fill="#bac6f2" opacity="0.603"/>
      <path id="路径_13585" data-name="路径 13585" d="M339.57,401.58v3.257l122.3.095-.095-3.159Z" transform="translate(-220.42 -260.625)" fill="#bac6f2" opacity="0.603"/>
      <path id="路径_13586" data-name="路径 13586" d="M339.57,424.58v3.257l122.3.095-.095-3.159Z" transform="translate(-220.42 -275.552)" fill="#bac6f2" opacity="0.603"/>
      <path id="路径_13587" data-name="路径 13587" d="M339.57,442.58v3.257l122.3.095-.095-3.159Z" transform="translate(-220.42 -287.234)" fill="#bac6f2" opacity="0.603"/>
      <path id="路径_13588" data-name="路径 13588" d="M355.66,475.44l.1,21.264h9.674l.284-21.264Z" transform="translate(-230.862 -308.56)" fill="#bac6f2"/>
      <path id="路径_13589" data-name="路径 13589" d="M647.08,475.265l.19,21.551H657.42l-.19-21.646Z" transform="translate(-419.994 -308.385)" fill="#bac6f2"/>
      <circle id="椭圆_783" data-name="椭圆 783" cx="8.943" cy="8.943" r="8.943" transform="translate(120.473 44.402)" fill="#e9edfa"/>
    </g>
    <g id="Layer_2" data-name="Layer 2" transform="translate(74.942 421.917)">
      <g id="Layer_1" data-name="Layer 1" transform="translate(0)">
        <g id="组_10774" data-name="组 10774" transform="translate(1 -13)">
          <path id="路径_13500" data-name="路径 13500" d="M379.863,583.626c1.414,1.026,5.693,4.485,5.925,5.424s-2.1,7.193-2.605,7.646-5.465,1.654-5.7,1.975a2.44,2.44,0,0,0,.19,1.785c.236.483,7.829-.063,7.829-.063s9.857-9.738,9.734-10.461-11.182-10.7-11.182-10.7S378.453,582.6,379.863,583.626Z" transform="translate(-301.166 -462.259)" fill="#f77f89" fill-rule="evenodd"/>
          <path id="路径_13501" data-name="路径 13501" d="M390.813,610.12c-.378,2.552-1.714,6.4-5.9,7.145a20.5,20.5,0,0,1-1.725,4.083c-.5.45-5.463,1.654-5.7,1.975s-.042,1.3.19,1.785,7.827-.063,7.827-.063,9.863-9.734,9.738-10.457A40.268,40.268,0,0,0,390.813,610.12Z" transform="translate(-301.169 -486.911)" fill="#6367fd" fill-rule="evenodd"/>
          <path id="路径_13502" data-name="路径 13502" d="M56.385,638.616c-.5,1.329-5.87,14.051-6.44,14.318s-16.476-7.492-16.6-8.257.606-2.389,1.179-2.272C40.6,643.616,48,644.03,48.8,642.5a39.049,39.049,0,0,0,1.842-5.095S56.894,637.3,56.385,638.616Z" transform="translate(-26.602 -508.682)" fill="#f77f89" fill-rule="evenodd"/>
          <path id="路径_13503" data-name="路径 13503" d="M34.511,662.157c-.582-.115-1.307,1.508-1.179,2.272s16.026,8.53,16.6,8.255a40.987,40.987,0,0,0,2.795-5.749c-4.909.741-7.52-1.559-8.627-3.71a54.33,54.33,0,0,1-9.586-1.068Z" transform="translate(-26.589 -528.435)" fill="#6367fd" fill-rule="evenodd"/>
          <path id="路径_13504" data-name="路径 13504" d="M210.556,335.363c16.224,20.115,31.99,30.833,31.99,30.833l8.393-8.482-24.233-28.2s1.987-21.765-2.221-25.758S200.354,322.716,210.556,335.363Z" transform="translate(-165.743 -242.052)" fill="#c4c4c4" fill-rule="evenodd"/>
          <path id="路径_13505" data-name="路径 13505" d="M122.3,288.215l-16.64,68.006,9.021,4.443s15.107-39.783,17.341-42.206c4.6-4.978,12.056-22.88,11.4-29.809S122.3,288.215,122.3,288.215Z" transform="translate(-84.323 -227.808)" fill="#c4c4c4" fill-rule="evenodd"/>
          <path id="路径_13506" data-name="路径 13506" d="M305.773,316.668a13.748,13.748,0,0,1,.446,8.75c2.254,3.483,1.2,5.937-3.96,6.553a27.158,27.158,0,0,1-2.708-3.286,24.237,24.237,0,0,1-.315-4.065c-.055-1.159,2.3-6.286,1.878-8.346S305.385,315.379,305.773,316.668Z" transform="translate(-238.807 -251.509)" fill="#f77f89" fill-rule="evenodd"/>
          <path id="路径_13507" data-name="路径 13507" d="M329.152,382.486a.2.2,0,0,1-.147-.063,12.442,12.442,0,0,1-1.464-1.882.2.2,0,0,1,.341-.216,12.036,12.036,0,0,0,1.416,1.821.2.2,0,0,1-.147.341Z" transform="translate(-261.372 -303.445)" fill="#cb5d66"/>
          <path id="路径_13508" data-name="路径 13508" d="M313.026,381.612a.2.2,0,0,1-.14-.057,15.665,15.665,0,0,1-1.463-1.737c-.472-.633-.955-1.34-1.293-1.891a.2.2,0,1,1,.344-.211,22.348,22.348,0,0,0,2.692,3.549.2.2,0,0,1-.14.347Z" transform="translate(-247.477 -301.362)" fill="#cb5d66"/>
          <path id="路径_13509" data-name="路径 13509" d="M80.849,296.9a13.542,13.542,0,0,1-3.621,2.446c-2.141.517-6.058,4.812-6.058,5.737a1.259,1.259,0,0,0,1.268,1.212c.42.026,1.315-.945,1.541-1.222-.39.889-.606,2.092-.184,2.47a1,1,0,0,0,1.476.02,3.387,3.387,0,0,0,.592-2.262,8.273,8.273,0,0,1,1.674-2.294.733.733,0,0,1,.771.553c.079.442-.949,1.43-1.064,1.842,0,.523.569,1.187,1.064,1.056a11.872,11.872,0,0,0,2.682-2.3,14.855,14.855,0,0,0,1.028-2.423,14.264,14.264,0,0,1,1.551-1.616C83.769,299.922,81.921,296.033,80.849,296.9Z" transform="translate(-56.798 -236.844)" fill="#f77f89" fill-rule="evenodd"/>
          <path id="路径_13510" data-name="路径 13510" d="M83.922,328.668a.2.2,0,0,1-.14-.347c.073-.07.154-.15.239-.234a11.533,11.533,0,0,1,1.925-1.626c.923-.566,1.685-.609,2.265-.128a.2.2,0,0,1-.258.311c-.438-.364-1.025-.311-1.8.162a11.219,11.219,0,0,0-1.853,1.57c-.086.085-.168.166-.242.237A.2.2,0,0,1,83.922,328.668Z" transform="translate(-66.813 -260.167)" fill="#cb5d66"/>
          <path id="路径_13511" data-name="路径 13511" d="M129.386,125.907c-4.16,3.976-6.2,13.934-7.3,20.344-3.649,3.591-11,11.541-10.992,13.449s3.593,5.095,4.505,5.073,9.41-9.322,10.731-10.408S130.377,124.956,129.386,125.907Z" transform="translate(-88.656 -100.463)" fill="#f7d167" fill-rule="evenodd"/>
          <path id="路径_13512" data-name="路径 13512" d="M188.109,9.087c-.559-.5-1.509-.7-1.509-3.463C186.6,2.678,190.114,0,194.589,0c7.028,0,9.069,6.163,9.312,8.342s-.139,7.335.349,9.429c.981,4.285,5.1,7.593,5.1,14.754,0,2.177-9.443.291-11.133.038S194.557,21.1,194.557,21.1,188.668,9.59,188.109,9.087Z" transform="translate(-148.917)" fill-rule="evenodd"/>
          <path id="路径_13513" data-name="路径 13513" d="M221.78,76.46a46.579,46.579,0,0,0-.135,9.126c-1.145.822-5.406.727-6.295-.164a18.724,18.724,0,0,0,0-5.572C215.082,78.812,222.117,75.1,221.78,76.46Z" transform="translate(-171.856 -60.783)" fill="#f77f89" fill-rule="evenodd"/>
          <path id="路径_13514" data-name="路径 13514" d="M185,23.129c0-4.661,3.372-8.439,7.534-8.439s7.534,3.778,7.534,8.439-3.372,8.437-7.534,8.437S185,27.788,185,23.129Z" transform="translate(-147.641 -11.723)" fill="#f77f89" fill-rule="evenodd"/>
          <path id="路径_13515" data-name="路径 13515" d="M188.3,63.188c-.111-1.442-1.3-4.574-1.914-4.948s-5.469-.947-7.1-3.37a4.329,4.329,0,0,0-1.44,2.221c.137.547,1.436,1.474,1.436,1.474s.293,3.51,2.827,5.075C183.947,64.775,187.572,63.848,188.3,63.188Z" transform="translate(-141.932 -43.789)" fill="#fff" fill-rule="evenodd"/>
          <path id="路径_13516" data-name="路径 13516" d="M218.552,58.344a.2.2,0,0,1-.173-.306,12.371,12.371,0,0,1,4.411-3.862.2.2,0,1,1,.159.371,10.227,10.227,0,0,0-2.242,1.522,9.915,9.915,0,0,0-1.982,2.177A.2.2,0,0,1,218.552,58.344Z" transform="translate(-174.256 -43.223)" fill="#fff"/>
          <path id="路径_13517" data-name="路径 13517" d="M225.891,78.508a13.55,13.55,0,0,1-1.86-.128.2.2,0,0,1,.061-.4h0a13.315,13.315,0,0,0,2.459.1,5.89,5.89,0,0,0,1.813-.353,1.766,1.766,0,0,0,1.082-.971.2.2,0,0,1,.378.141,2.15,2.15,0,0,1-1.313,1.206,6.3,6.3,0,0,1-1.943.38C226.337,78.5,226.109,78.508,225.891,78.508Z" transform="translate(-178.653 -61.155)" fill="#fff"/>
          <path id="路径_13518" data-name="路径 13518" d="M201.318,11.478c.988.893,1.424,3.122,2.326,4.241,1.464,1.817,4.279,2.126,5.145,4.524s5.4.46,5.4.46l-.582-5.7-3.358-3.512L205.028,10S200.339,10.584,201.318,11.478Z" transform="translate(-160.556 -7.981)" fill-rule="evenodd"/>
          <path id="路径_13519" data-name="路径 13519" d="M232.44,55.49a2.88,2.88,0,1,1,2.88,2.88A2.88,2.88,0,0,1,232.44,55.49Z" transform="translate(-185.5 -41.986)" fill="#f77f89" fill-rule="evenodd"/>
          <path id="路径_13520" data-name="路径 13520" d="M201.18,49.406c0-.584.256-1.056.572-1.056s.574.473.574,1.056-.256,1.056-.574,1.056S201.18,49.99,201.18,49.406Z" transform="translate(-160.553 -38.586)" fill="#cb5d66" fill-rule="evenodd"/>
          <path id="路径_13521" data-name="路径 13521" d="M187.224,107.19c12.365,0,20.98,23.445,21.876,27s.2,16.523-.119,17.508a17.942,17.942,0,0,1-6.575-1.125c-.808-1.349-1.1-11.573-1.434-12.5a5.281,5.281,0,0,0-1.2-2.092,56.328,56.328,0,0,1-.269,10.489c-.238.985-19.431.939-20.887.329-.913-.382-1.557-.779-1.686-1.7-.2-1.521.416-2.526.248-3.8s-.88-1.466-1.1-3.534c-.224-2.165,1.236-5.049.757-7.185C174.316,119.282,180.378,107.19,187.224,107.19Z" transform="translate(-140.509 -85.544)" fill="#f7d167" fill-rule="evenodd"/>
          <path id="路径_13522" data-name="路径 13522" d="M215.909,106.81h5.311c.313,0,.567.359.567.808v2.193c0,.442-.254.808-.567.808h-5.311c-.315,0-.569-.359-.569-.808v-2.2C215.34,107.169,215.594,106.81,215.909,106.81Z" transform="translate(-171.854 -85.241)" fill="#f7d167" fill-rule="evenodd"/>
          <path id="路径_13523" data-name="路径 13523" d="M114.772,380.087a.2.2,0,0,1-.193-.26l19.912-65.813a.2.2,0,0,1,.387.117l-19.912,65.813A.2.2,0,0,1,114.772,380.087Z" transform="translate(-91.433 -250.486)" fill="#8d8d8d"/>
          <path id="路径_13524" data-name="路径 13524" d="M119.313,619.675a.2.2,0,0,1-.089-.021l-9.491-4.7a.2.2,0,1,1,.179-.362l9.491,4.7a.2.2,0,0,1-.09.383Z" transform="translate(-87.483 -490.462)" fill="#8d8d8d"/>
          <path id="路径_13525" data-name="路径 13525" d="M191.87,462.669a5.57,5.57,0,0,1-.634-.037,5.042,5.042,0,0,1-2.106-.692.2.2,0,1,1,.224-.336,4.626,4.626,0,0,0,1.928.627,3.222,3.222,0,0,0,1.867-.23.2.2,0,0,1,.2.35,2.531,2.531,0,0,1-.97.29A4.425,4.425,0,0,1,191.87,462.669Z" transform="translate(-150.865 -368.359)" fill="#8d8d8d"/>
          <path id="路径_13526" data-name="路径 13526" d="M200.206,439.846a.2.2,0,0,1-.138-.055l-4.215-3.972a.2.2,0,1,1,.277-.294l4.215,3.972a.2.2,0,0,1-.139.349Z" transform="translate(-156.252 -347.53)" fill="#8d8d8d"/>
          <path id="路径_13527" data-name="路径 13527" d="M225.362,344.689a.2.2,0,0,1-.184-.285,21.764,21.764,0,0,1,2.054-3.948v0a27.319,27.319,0,0,0,3.351-4.954,75.717,75.717,0,0,0,3.494-7.235,81.955,81.955,0,0,0,2.891-7.911,39.461,39.461,0,0,0,1.557-6.984.2.2,0,1,1,.4.044,39.854,39.854,0,0,1-1.572,7.058,82.377,82.377,0,0,1-2.906,7.951,76.127,76.127,0,0,1-3.513,7.275,27.7,27.7,0,0,1-3.406,5.03,20.514,20.514,0,0,0-1.984,3.842A.2.2,0,0,1,225.362,344.689Z" transform="translate(-179.69 -249.944)" fill="#8d8d8d"/>
          <path id="路径_13528" data-name="路径 13528" d="M275.435,468.033a.2.2,0,0,1-.139-.056c-.272-.259-27.169-25.935-28.411-26.934a.2.2,0,0,1-.075-.148l-.007-.154a29.208,29.208,0,0,0-.3-3.421,4.712,4.712,0,0,0-1.088-2.725.2.2,0,1,1,.264-.306,4.975,4.975,0,0,1,1.222,2.965,29.537,29.537,0,0,1,.3,3.469l0,.065c1.945,1.677,27.272,25.853,28.365,26.9a.2.2,0,0,1-.139.348Z" transform="translate(-195.803 -346.549)" fill="#8d8d8d"/>
          <path id="路径_13529" data-name="路径 13529" d="M285.942,444.614h-.016a.2.2,0,0,1-.185-.217,3.591,3.591,0,0,1,.318-1.116,8.495,8.495,0,0,1,.651-1.19,6.9,6.9,0,0,1,1.573-1.795.2.2,0,1,1,.228.333,6.606,6.606,0,0,0-1.463,1.681,5.22,5.22,0,0,0-.906,2.118A.2.2,0,0,1,285.942,444.614Z" transform="translate(-228.037 -351.353)" fill="#8d8d8d"/>
          <path id="路径_13530" data-name="路径 13530" d="M282.052,438.189a.2.2,0,0,1-.176-.3,3.662,3.662,0,0,1,1.144-1.055,5.446,5.446,0,0,1,1.229-.626.2.2,0,0,1,.11.389,5.131,5.131,0,0,0-1.118.576,3.245,3.245,0,0,0-1.012.913A.2.2,0,0,1,282.052,438.189Z" transform="translate(-224.932 -348.113)" fill="#8d8d8d"/>
          <path id="路径_13531" data-name="路径 13531" d="M274.889,425.97h-.015l-1.763-.131a.2.2,0,0,1-.056-.012l-2.924-1.1a.2.2,0,0,1,.143-.378l2.9,1.094,1.734.129a.2.2,0,0,1-.015.4Z" transform="translate(-215.475 -338.64)" fill="#8d8d8d"/>
          <path id="路径_13532" data-name="路径 13532" d="M286.728,430.355h-.015l-1.616-.121a.2.2,0,0,1,.03-.4l1.616.121a.2.2,0,0,1-.015.4Z" transform="translate(-227.375 -343.029)" fill="#8d8d8d"/>
          <path id="路径_13533" data-name="路径 13533" d="M361.2,565.8a.2.2,0,0,1-.138-.35l9.467-8.8a.2.2,0,0,1,.275.3l-9.467,8.8A.2.2,0,0,1,361.2,565.8Z" transform="translate(-288.099 -444.199)" fill="#8d8d8d"/>
          <path id="路径_13534" data-name="路径 13534" d="M189.664,325.05q-.447,0-.923-.013c-1.129-.032-2.381-.12-3.722-.262-2.282-.242-4.055-.561-4.073-.564a.2.2,0,0,1,.072-.4c.018,0,1.779.32,4.046.56,1.33.141,2.571.228,3.69.26a22.419,22.419,0,0,0,3.576-.143.2.2,0,1,1,.055.4A20.41,20.41,0,0,1,189.664,325.05Z" transform="translate(-144.273 -258.419)" fill="#8d8d8d"/>
          <path id="路径_13535" data-name="路径 13535" d="M177.245,192.62a.2.2,0,0,1-.094-.024,2.557,2.557,0,0,1-.805-.619,1.861,1.861,0,0,1-.407-.964,6.466,6.466,0,0,1,.128-2.136,5.225,5.225,0,0,0,.121-1.659A3.506,3.506,0,0,0,175.77,186a5.918,5.918,0,0,1-.68-2.326,11.244,11.244,0,0,1,.415-3.384,9.337,9.337,0,0,0,.346-3.778h0a25.9,25.9,0,0,1,.362-12.438.2.2,0,0,1,.389.108,25.493,25.493,0,0,0-.357,12.243,9.6,9.6,0,0,1-.346,3.953,10.977,10.977,0,0,0-.407,3.254,5.568,5.568,0,0,0,.64,2.188,3.884,3.884,0,0,1,.456,1.34,5.536,5.536,0,0,1-.124,1.784,6.136,6.136,0,0,0-.125,2.011,1.61,1.61,0,0,0,1,1.28.2.2,0,0,1-.095.38Z" transform="translate(-139.712 -130.825)" fill="#ff3274"/>
          <path id="路径_13536" data-name="路径 13536" d="M121.486,286.851a.2.2,0,0,1-.1-.027,20.8,20.8,0,0,1-2.7-2.359,16.7,16.7,0,0,1-2.819-3.455.2.2,0,1,1,.363-.177,14.154,14.154,0,0,0,2.741,3.346,20.97,20.97,0,0,0,2.612,2.294.2.2,0,0,1-.1.377Z" transform="translate(-92.455 -224.031)" fill="#ff3274"/>
          <path id="路径_13537" data-name="路径 13537" d="M128.342,307.736a.2.2,0,0,1-.148-.34l1.961-2.1a.2.2,0,0,1,.3.276l-1.961,2.1A.2.2,0,0,1,128.342,307.736Z" transform="translate(-102.263 -243.591)" fill="#ff3274"/>
          <path id="路径_13538" data-name="路径 13538" d="M122.112,302.928a.2.2,0,0,1-.148-.34l1.959-2.1a.2.2,0,1,1,.3.275l-1.959,2.1A.2.2,0,0,1,122.112,302.928Z" transform="translate(-97.291 -239.753)" fill="#ff3274"/>
          <path id="路径_13539" data-name="路径 13539" d="M116.582,297.211a.2.2,0,0,1-.148-.34l1.852-1.987a.2.2,0,0,1,.3.275l-1.852,1.987A.2.2,0,0,1,116.582,297.211Z" transform="translate(-92.878 -235.283)" fill="#ff3274"/>
          <path id="路径_13540" data-name="路径 13540" d="M111.962,290.811a.2.2,0,0,1-.148-.34l1.805-1.937a.2.2,0,0,1,.3.275l-1.805,1.937A.2.2,0,0,1,111.962,290.811Z" transform="translate(-89.191 -230.216)" fill="#ff3274"/>
          <path id="路径_13541" data-name="路径 13541" d="M310.314,311.012h-.022l-7.472-.808a.2.2,0,0,1,.043-.4l7.472.808a.2.2,0,0,1-.021.4Z" transform="translate(-241.524 -247.238)" fill="#ff3274"/>
          <path id="路径_13542" data-name="路径 13542" d="M332.732,316.89h-.012a.2.2,0,0,1-.189-.214l.2-3.346a.2.2,0,0,1,.4.024l-.2,3.346A.2.2,0,0,1,332.732,316.89Z" transform="translate(-265.378 -249.904)" fill="#ff3274"/>
          <path id="路径_13543" data-name="路径 13543" d="M323.062,315.85h-.018a.2.2,0,0,1-.184-.219l.287-3.316a.2.2,0,1,1,.4.035l-.287,3.316A.2.2,0,0,1,323.062,315.85Z" transform="translate(-257.661 -249.098)" fill="#ff3274"/>
          <path id="路径_13544" data-name="路径 13544" d="M314.312,314.71H314.3a.2.2,0,0,1-.188-.215l.216-3.166a.2.2,0,1,1,.4.027l-.216,3.166A.2.2,0,0,1,314.312,314.71Z" transform="translate(-250.678 -248.308)" fill="#ff3274"/>
          <path id="路径_13545" data-name="路径 13545" d="M322.9,234.856h0a5,5,0,0,1-1.894-9.622.2.2,0,1,1,.153.374,4.594,4.594,0,0,0,1.741,8.844.2.2,0,0,1,0,.4Z" transform="translate(-253.709 -179.738)" fill="#ff3274"/>
          <path id="路径_13546" data-name="路径 13546" d="M258.034,197.906a.2.2,0,0,1-.173-.1c-.731-1.2-8.372-13.247-8.755-13.708a.2.2,0,1,1,.31-.258c.238.286,2.8,4.3,4.3,6.66,2.143,3.366,4.171,6.579,4.487,7.1a.2.2,0,0,1-.172.307Z" transform="translate(-198.764 -146.659)" fill="#ff3274"/>
          <path id="路径_13547" data-name="路径 13547" d="M240.6,184.049a.2.2,0,0,1-.012-.4l1.757-.105a.2.2,0,1,1,.024.4l-1.757.105Z" transform="translate(-191.853 -146.475)" fill="#ff3274"/>
          <path id="路径_13548" data-name="路径 13548" d="M241.872,186.008a.2.2,0,0,1-.164-.32l1.48-2.054a.2.2,0,1,1,.328.236l-1.48,2.054A.2.2,0,0,1,241.872,186.008Z" transform="translate(-192.866 -146.483)" fill="#ff3274"/>
          <path id="路径_13549" data-name="路径 13549" d="M248.032,187.194h-.015a.2.2,0,0,1-.187-.216l.228-3.09a.2.2,0,1,1,.4.03l-.228,3.09A.2.2,0,0,1,248.032,187.194Z" transform="translate(-197.782 -146.603)" fill="#ff3274"/>
          <path id="路径_13550" data-name="路径 13550" d="M197.992,267.941a.2.2,0,0,1-.089-.383l5.422-2.647a.2.2,0,0,1,.177.363l-5.422,2.647A.2.2,0,0,1,197.992,267.941Z" transform="translate(-157.848 -211.397)" fill="#ff3274"/>
          <path id="路径_13551" data-name="路径 13551" d="M188.972,263.2a.2.2,0,0,1-.04-.4l7.151-1.436a.2.2,0,0,1,.08.4l-7.151,1.436A.2.2,0,0,1,188.972,263.2Z" transform="translate(-150.649 -208.58)" fill="#ff3274"/>
          <path id="路径_13552" data-name="路径 13552" d="M193.382,247.932a.2.2,0,0,1-.111-.371l5.98-3.938a.2.2,0,0,1,.222.337l-5.979,3.938A.2.2,0,0,1,193.382,247.932Z" transform="translate(-154.169 -194.399)" fill="#ff3274"/>
          <path id="路径_13553" data-name="路径 13553" d="M217.884,109.986h-2.773c-.433,0-.771-.444-.771-1.01V106.79a1.2,1.2,0,0,1,.2-.686.7.7,0,0,1,.568-.324h5.323a.724.724,0,0,1,.6.387.2.2,0,1,1-.358.186.319.319,0,0,0-.258-.17h-5.3c-.2,0-.368.283-.368.606v2.187c0,.362.19.606.368.606h2.773a.2.2,0,1,1,0,.4Z" transform="translate(-171.056 -84.419)" fill="#ff3274"/>
          <path id="路径_13554" data-name="路径 13554" d="M221.5,110.01a.2.2,0,0,1-.2-.2l-.036-3.8a.2.2,0,1,1,.4,0l.036,3.8a.2.2,0,0,1-.2.2Z" transform="translate(-176.578 -84.442)" fill="#ff3274"/>
          <path id="路径_13555" data-name="路径 13555" d="M229.238,110.27a.2.2,0,0,1-.2-.2l-.018-1.951L229,106.274a.2.2,0,1,1,.4,0l.018,1.846.018,1.951a.2.2,0,0,1-.2.2Z" transform="translate(-182.755 -84.65)" fill="#ff3274"/>
          <path id="路径_13556" data-name="路径 13556" d="M237.9,110.27a.2.2,0,0,1-.2-.2l-.018-1.951-.018-1.846a.2.2,0,0,1,.4,0l.018,1.846.018,1.951a.2.2,0,0,1-.2.2Z" transform="translate(-189.666 -84.65)" fill="#ff3274"/>
          <path id="路径_13557" data-name="路径 13557" d="M51.738,672.947a.2.2,0,0,1-.083-.018l-17.337-7.773a.2.2,0,0,1,.165-.369l17.337,7.773a.2.2,0,0,1-.083.386Z" transform="translate(-27.293 -530.525)" fill="#fff"/>
          <path id="路径_13558" data-name="路径 13558" d="M376.9,636.768a.2.2,0,0,1-.026-.4l7.4-.978,9.252-9.943a.2.2,0,0,1,.3.275l-9.3,10a.2.2,0,0,1-.121.063l-7.472.987Z" transform="translate(-300.628 -499.089)" fill="#fff"/>
          <path id="路径_13559" data-name="路径 13559" d="M8.716,43.928c-1.282-.541-1.121-3.582.242-4.748s4.786-2.173,6.133-5.8c.489-.987,1.949.45,2.33,2.9C17.633,42.119,11.529,45.115,8.716,43.928Z" transform="translate(-6.256 -26.385)" fill="#aadaf1" fill-rule="evenodd"/>
          <path id="路径_13560-2" data-name="路径 13560" d="M.2,60.048a.2.2,0,0,1-.053-.4A10.287,10.287,0,0,0,3.657,57.9a13.4,13.4,0,0,0,2.531-2.538,15.03,15.03,0,0,0,1.564-2.506,6.713,6.713,0,0,0,.607-1.618.2.2,0,1,1,.4.063,12.137,12.137,0,0,1-2.249,4.308A13.805,13.805,0,0,1,3.9,58.225,10.689,10.689,0,0,1,.255,60.041.2.2,0,0,1,.2,60.048Z" transform="translate(0 -40.757)" fill="#72a5bd"/>
          <path id="路径_13561-2" data-name="路径 13561" d="M183.622,63.571a6.863,6.863,0,0,1-.738-.038,3.984,3.984,0,0,1-1.67-.519,5.358,5.358,0,0,1-1.57-1.509,7.418,7.418,0,0,1-.877-1.718,8.823,8.823,0,0,1-.465-1.909c-.117-.087-.357-.269-.608-.49a2.494,2.494,0,0,1-.832-1.045c-.067-.267.226-.808.408-1.107a5.411,5.411,0,0,1,1.1-1.319.2.2,0,1,1,.257.311,4.976,4.976,0,0,0-.988,1.178,2.432,2.432,0,0,0-.384.844c.025.09.143.34.7.832.33.29.65.519.653.521a.2.2,0,0,1,.084.148,8.283,8.283,0,0,0,.456,1.909,7,7,0,0,0,.829,1.619,4.955,4.955,0,0,0,1.448,1.392,3.589,3.589,0,0,0,1.5.461,7.659,7.659,0,0,0,1.77-.035.2.2,0,1,1,.051.4A9.012,9.012,0,0,1,183.622,63.571Z" transform="translate(-141.138 -42.991)" fill="#c9c9c9"/>
        </g>
      </g>
    </g>
    <g id="Layer_2-2" data-name="Layer 2" transform="translate(43.096 403.485)">
      <g id="Layer_1-2" data-name="Layer 1" transform="translate(0)">
        <path id="路径_13325" data-name="路径 13325" d="M101.661,654.122l-1.761,5.79-7.04.254-.471-8.706Z" transform="translate(-73.736 -519.903)" fill="#f77f89" fill-rule="evenodd"/>
        <path id="路径_13326" data-name="路径 13326" d="M93.19,689.61v7.607l19.035.43s-.541-5.436-10.275-5.525c.036-2.389.04-2.512.04-2.512Z" transform="translate(-74.374 -550.349)" fill="#6367fd" fill-rule="evenodd"/>
        <path id="路径_13327" data-name="路径 13327" d="M50.2,668.528l.131,5.7,7.351.256,1.91-6.345Z" transform="translate(-40.066 -533.214)" fill="#f77f89" fill-rule="evenodd"/>
        <path id="路径_13328" data-name="路径 13328" d="M51.285,0c8,0,9.655,7.6,9.659,10.39,0,2.66-.519,3.065-.5,5.761.012,2.048.606,3.481.551,4.645-.315,6.058-8.506,7.805-10.844,7.839S37.63,26.7,37.63,21.989c0-3.286,2.09-8.54,2.034-12.189C39.538,2.221,45.875,0,51.285,0Z" transform="translate(-30.034 0)" fill-rule="evenodd"/>
        <path id="路径_13329" data-name="路径 13329" d="M50,693.28l.109,7.613,18.686.422s0-5.551-10.234-5.654V693.28Z" transform="translate(-39.906 -553.278)" fill="#6367fd" fill-rule="evenodd"/>
        <path id="路径_13330" data-name="路径 13330" d="M40.92,336.9l.048,53.258,13.352-.291.2-2.466,8.611,1.161L68.6,333.024,65.648,318.8l-19.5-.533Z" transform="translate(-32.66 -253.998)" fill="#3b4161" fill-rule="evenodd"/>
        <path id="路径_13331" data-name="路径 13331" d="M110.369,522.56l8.007,13.455-1.521,15.436-8.625-1.01Z" transform="translate(-86.377 -417.033)" fill="#15192c" fill-rule="evenodd"/>
        <path id="路径_13332" data-name="路径 13332" d="M71.487,168.71H85.672l1.92-20.956L85.03,131.7l-4.847-4.667-4.859-2.169L66.55,126.2Z" transform="translate(-53.114 -99.645)" fill="#f7d167" fill-rule="evenodd"/>
        <path id="路径_13333" data-name="路径 13333" d="M62.7,449.364h0a.172.172,0,0,1-.171-.172l.093-56.651a.172.172,0,0,1,.172-.171h0a.172.172,0,0,1,.171.172l-.093,56.651A.172.172,0,0,1,62.7,449.364Z" transform="translate(-49.906 -313.134)" fill="#737999"/>
        <path id="路径_13334" data-name="路径 13334" d="M16.971,123.567c-3.316.091-13.217,3.685-14.663,7.333-1.1,2.767-1.852,27.8.729,29.021a2.8,2.8,0,0,0,.517.19c-.155.767-1.642,18.536-1.264,20.014s1.369,3.716,2.8,3.635c5.555-.333,15.762-7.625,16.775-8.815.155-2.254.586-10.719.586-10.719l-.885-25.118-5.063-13.841S20.287,123.476,16.971,123.567Z" transform="translate(-1.035 -98.611)" fill="#fff" fill-rule="evenodd"/>
        <path id="路径_13335" data-name="路径 13335" d="M114.71,122.8c5.7.709,13.748,5.129,14.784,7.143.872,1.692.43,23.6.43,23.6a14.054,14.054,0,0,0-1.775,10.808c1.337,5.881,1.733,13.819.331,15.3-2.31-1.169-5.281-5.856-5.816-7.011s-.674-7.69-1.086-9.087-2.256-26.137-2.256-26.137S118.462,127.424,114.71,122.8Z" transform="translate(-91.549 -98.001)" fill="#fff" fill-rule="evenodd"/>
        <path id="路径_13336" data-name="路径 13336" d="M54.522,146.1a.2.2,0,0,1-.122-.041,33.836,33.836,0,0,1-2.7-2.344c-1.059-1.006-2.17-2.151-3.213-3.309-1.168-1.3-2.241-2.6-3.19-3.866a34.577,34.577,0,0,1-2.63-4.016.2.2,0,0,1,.354-.194,34.176,34.176,0,0,0,2.6,3.968c.942,1.258,2.007,2.55,3.167,3.838,1.036,1.151,2.139,2.287,3.191,3.287a33.441,33.441,0,0,0,2.669,2.315.2.2,0,0,1-.122.363Z" transform="translate(-34.032 -105.519)" fill="#c9c9c9"/>
        <path id="路径_13337" data-name="路径 13337" d="M129.414,140.418a.2.2,0,0,1-.191-.266,21.042,21.042,0,0,0,1.093-8.478,15.26,15.26,0,0,0-.755-3.637,10.928,10.928,0,0,0-1.52-2.945.2.2,0,1,1,.324-.241,11.33,11.33,0,0,1,1.577,3.054,15.662,15.662,0,0,1,.776,3.734,21.448,21.448,0,0,1-1.112,8.642A.2.2,0,0,1,129.414,140.418Z" transform="translate(-102.155 -99.574)" fill="#c9c9c9"/>
        <path id="路径_13338" data-name="路径 13338" d="M58.913,192.635h0a2.618,2.618,0,0,1,0,5.236h0a2.618,2.618,0,0,1,0-5.236Zm0,4.548a1.93,1.93,0,0,0,0-3.859v0a1.93,1.93,0,0,0,0,3.859Z" transform="translate(-44.93 -153.734)" fill="#353823"/>
        <path id="路径_13339" data-name="路径 13339" d="M63.48,201.011a1.161,1.161,0,1,1,1.161,1.161A1.161,1.161,0,0,1,63.48,201.011Z" transform="translate(-50.664 -159.492)" fill="#353823" fill-rule="evenodd"/>
        <path id="路径_13340" data-name="路径 13340" d="M60.954,134.877a.344.344,0,0,1-.332-.254,29.357,29.357,0,0,1-.851-4.56,22.884,22.884,0,0,1-.057-4.594c.327-3.337,1.521-5.465,3.452-6.154a.344.344,0,1,1,.231.649,3.781,3.781,0,0,0-2.06,1.964,10.148,10.148,0,0,0-.938,3.609,22.2,22.2,0,0,0,.056,4.454,28.657,28.657,0,0,0,.831,4.452.345.345,0,0,1-.332.435Z" transform="translate(-47.587 -95.204)" fill="#353823"/>
        <path id="路径_13341" data-name="路径 13341" d="M115.556,124.385a.344.344,0,0,1-.341-.3,17.438,17.438,0,0,0-1.765-5.521,11.13,11.13,0,0,0-1.421-2.149,4.4,4.4,0,0,0-1.525-1.211.344.344,0,0,1,.269-.634,5.061,5.061,0,0,1,1.776,1.394,11.812,11.812,0,0,1,1.511,2.282A18.154,18.154,0,0,1,115.9,124a.344.344,0,0,1-.3.387A.348.348,0,0,1,115.556,124.385Z" transform="translate(-88.025 -91.413)" fill="#353823"/>
        <path id="路径_13342" data-name="路径 13342" d="M126.6,173.054a4.086,4.086,0,0,1-3.026-1.715,9.75,9.75,0,0,1-1.886-4.155,9.44,9.44,0,0,1,.183-4.878,4.817,4.817,0,0,1,.982-1.723,2.887,2.887,0,0,1,1.536-.905,2.658,2.658,0,0,1,.548-.057,4.087,4.087,0,0,1,3.027,1.715,9.712,9.712,0,0,1,1.882,4.159,9.477,9.477,0,0,1-.185,4.877,4.812,4.812,0,0,1-.981,1.723,2.88,2.88,0,0,1-1.536.9A2.659,2.659,0,0,1,126.6,173.054Zm-1.662-12.746a1.968,1.968,0,0,0-.406.042,2.213,2.213,0,0,0-1.173.7,4.138,4.138,0,0,0-.837,1.48,7.341,7.341,0,0,0-.368,2.077,10.014,10.014,0,0,0,.208,2.438A9.053,9.053,0,0,0,124.1,170.9a3.429,3.429,0,0,0,2.494,1.464,1.968,1.968,0,0,0,.4-.042,2.206,2.206,0,0,0,1.172-.7,4.133,4.133,0,0,0,.836-1.479,7.362,7.362,0,0,0,.368-2.077,10.069,10.069,0,0,0-.206-2.438,9.016,9.016,0,0,0-1.74-3.86A3.43,3.43,0,0,0,124.937,160.308Z" transform="translate(-96.932 -127.386)" fill="#353823"/>
        <path id="路径_13343" data-name="路径 13343" d="M49.512,185.909H49.5a.2.2,0,0,1-.191-.212l.872-16.985a.2.2,0,0,1,.4.021l-.872,16.985A.2.2,0,0,1,49.512,185.909Z" transform="translate(-39.356 -134.489)" fill="#c9c9c9"/>
        <path id="路径_13344" data-name="路径 13344" d="M43.94,174.566a.2.2,0,0,1-.164-.084l-2.268-3.162a.2.2,0,0,1,.328-.235l2.268,3.162a.2.2,0,0,1-.164.32Z" transform="translate(-33.099 -136.468)" fill="#c9c9c9"/>
        <path id="路径_13345" data-name="路径 13345" d="M45.54,246.94l-8.72,2.086" transform="translate(-29.388 -197.072)" fill="#606060" fill-rule="evenodd"/>
        <path id="路径_13345_-_轮廓" data-name="路径 13345 - 轮廓" d="M36.022,248.43a.2.2,0,0,1-.047-.4l8.72-2.086a.2.2,0,1,1,.094.393l-8.72,2.086A.2.2,0,0,1,36.022,248.43Z" transform="translate(-28.59 -196.274)" fill="#c9c9c9"/>
        <path id="路径_13346" data-name="路径 13346" d="M40.423,246.82a.2.2,0,0,1-.122-.041l-2.221-1.7a.2.2,0,1,1,.245-.321l2.221,1.7a.2.2,0,0,1-.123.362Z" transform="translate(-30.33 -195.301)" fill="#c9c9c9"/>
        <path id="路径_13347" data-name="路径 13347" d="M5.038,172.245h-.2a7.611,7.611,0,0,1-1.486-.147,2.255,2.255,0,0,1-1.015-.45,3.611,3.611,0,0,1-.811-1.617,22.225,22.225,0,0,1-.608-2.874,81.119,81.119,0,0,1-.75-8.131c-.145-2.953-.191-6.065-.128-8.762a39.97,39.97,0,0,1,.511-6.32A7.364,7.364,0,0,1,3.02,140a14.078,14.078,0,0,1,3.24-2.132.2.2,0,0,1,.174.365A13.664,13.664,0,0,0,3.29,140.3,6.973,6.973,0,0,0,.95,144.026a39.623,39.623,0,0,0-.5,6.247c-.062,2.687-.017,5.789.128,8.732a80.718,80.718,0,0,0,.746,8.088,21.835,21.835,0,0,0,.6,2.819,3.2,3.2,0,0,0,.692,1.431,3.563,3.563,0,0,0,2.239.5,23.815,23.815,0,0,0,3.85-.332,39.692,39.692,0,0,0,7.726-1.979.2.2,0,0,1,.151.375,40.133,40.133,0,0,1-7.815,2A25.123,25.123,0,0,1,5.038,172.245Z" transform="translate(-0.017 -110.012)" fill="#c9c9c9"/>
        <path id="路径_13348" data-name="路径 13348" d="M63.285,260.1a.2.2,0,0,1-.159-.077c-.708-.9-1-3.674-1.095-4.826-.083-1.029-.12-2.1-.1-3.029a10.827,10.827,0,0,1,.219-2.248.2.2,0,0,1,.391.1,19.72,19.72,0,0,0-.105,5.145c.185,2.288.572,4.054,1.009,4.608a.2.2,0,0,1-.158.327Z" transform="translate(-49.423 -199.331)" fill="#c9c9c9"/>
        <path id="路径_13349" data-name="路径 13349" d="M69.23,255.055a.531.531,0,1,1,.156.376.533.533,0,0,1-.156-.376Z" transform="translate(-55.253 -203.122)" fill="#c9c9c9" fill-rule="evenodd"/>
        <path id="路径_13350" data-name="路径 13350" d="M38.068,336.47a.2.2,0,0,1,.19.133,3.507,3.507,0,0,1,.21,1.116s0,0,0,0v4.223a3.534,3.534,0,1,1-7.068,0v-4.219s0,0,0,0a3.554,3.554,0,0,1,.113-.831.2.2,0,0,1,.252-.143,9.846,9.846,0,0,0,2.668.4h0A9.838,9.838,0,0,0,38,336.484.2.2,0,0,1,38.068,336.47Zm0,1.256a3.1,3.1,0,0,0-.122-.792,10.237,10.237,0,0,1-3.5.615h-.007a10.25,10.25,0,0,1-2.572-.354,3.149,3.149,0,0,0-.055.533v4.217a3.13,3.13,0,0,0,6.26,0Z" transform="translate(-25.062 -268.522)" fill="#c9c9c9"/>
        <path id="路径_13351" data-name="路径 13351" d="M92.065,190.52h17.413a1.389,1.389,0,0,1,1.414,1.844l-6.723,24.73a2.639,2.639,0,0,1-2.423,1.844h-17.4a1.39,1.39,0,0,1-1.414-1.844l6.721-24.73A2.637,2.637,0,0,1,92.065,190.52Z" transform="translate(-66.135 -152.046)" fill="#6367fd" fill-rule="evenodd"/>
        <path id="路径_13352" data-name="路径 13352" d="M145.546,184.211h9.883a.652.652,0,0,1,.664.88l-.481,1.68a1.28,1.28,0,0,1-1.167.88h-9.883a.654.654,0,0,1-.664-.88l.481-1.68A1.284,1.284,0,0,1,145.546,184.211Z" transform="translate(-114.809 -147.009)" fill="#3b4161" fill-rule="evenodd"/>
        <path id="路径_13353" data-name="路径 13353" d="M79.057,227.506a11.83,11.83,0,0,1,2.437-1.064c1.226-1.01,2.126-5,2.452-5.251s1.414-.089,1.446.289a5.6,5.6,0,0,1-1.159,4.443c3.566-2.268,3.837-3.273,4.818-2.514s1.335,4.463.493,5.994c-2.318,4.225-8.417,4.8-10.283,4.824A20.683,20.683,0,0,1,79.057,227.506Z" transform="translate(-62.956 -176.426)" fill="#f77f89" fill-rule="evenodd"/>
        <path id="路径_13354" data-name="路径 13354" d="M40.472,651.4a.172.172,0,0,1-.005-.343l13.789-.442a.172.172,0,0,1,.011.343l-13.789.442Z" transform="translate(-32.165 -519.224)" fill="#737999"/>
        <path id="路径_13355" data-name="路径 13355" d="M107.632,441.463h-.013a.172.172,0,0,1-.158-.184l4.213-55.32a.172.172,0,1,1,.342.026L107.8,441.3A.172.172,0,0,1,107.632,441.463Z" transform="translate(-85.763 -307.891)" fill="#737999"/>
        <path id="路径_13356" data-name="路径 13356" d="M118.03,639.1h-.02l-8.708-1.022a.172.172,0,0,1,.04-.341l8.708,1.022a.172.172,0,0,1-.02.342Z" transform="translate(-87.111 -508.945)" fill="#737999"/>
        <path id="路径_13357" data-name="路径 13357" d="M147.809,498.382a3.793,3.793,0,1,1,1.1-7.422.172.172,0,0,1-.1.329,3.449,3.449,0,1,0-.656,6.733.172.172,0,0,1,.034.342Q148,498.382,147.809,498.382Z" transform="translate(-114.939 -391.684)" fill="#737999"/>
        <path id="路径_13358" data-name="路径 13358" d="M102.048,507.62h-.01a4.168,4.168,0,0,1,.23-8.33,3.991,3.991,0,0,1,.4.019.172.172,0,1,1-.035.342c-.114-.011-.236-.017-.364-.017a3.825,3.825,0,0,0-.211,7.644.172.172,0,0,1-.009.343Z" transform="translate(-78.293 -398.462)" fill="#737999"/>
        <path id="路径_13359" data-name="路径 13359" d="M115.539,239.572a.344.344,0,0,1-.215-.613l3.12-2.5a.344.344,0,1,1,.43.538l-3.12,2.5A.343.343,0,0,1,115.539,239.572Z" transform="translate(-91.936 -188.649)" fill="#a7464f"/>
        <path id="路径_13360" data-name="路径 13360" d="M113.019,253.024a.344.344,0,0,1-.215-.614l3.962-3.15a.344.344,0,1,1,.429.539l-3.962,3.15A.343.343,0,0,1,113.019,253.024Z" transform="translate(-89.924 -198.864)" fill="#a7464f"/>
        <path id="路径_13361" data-name="路径 13361" d="M213.321,226.071a11.643,11.643,0,0,1,.941-4.443c.271-.638.287-1.688-.664-1.688-1.082,0-2.53,2.173-1.817,4.76S213.392,227.246,213.321,226.071Z" transform="translate(-168.865 -175.525)" fill="#f77f89" fill-rule="evenodd"/>
        <path id="路径_13362" data-name="路径 13362" d="M199.442,226.09c.86,0,3.475,5.174,3.457,5.8s-.291,1.583-.7,1.535-3.8-4.372-3.8-5.84C198.4,226.736,198.814,226.09,199.442,226.09Z" transform="translate(-158.338 -180.433)" fill="#f77f89" fill-rule="evenodd"/>
        <path id="路径_13363" data-name="路径 13363" d="M194.225,240.81c1.072,0,3.9,4.124,3.92,4.6s-.551.907-1.024.927-3.851-2.75-3.851-4.039C193.264,241.507,193.619,240.81,194.225,240.81Z" transform="translate(-154.244 -192.18)" fill="#f77f89" fill-rule="evenodd"/>
        <path id="路径_13364" data-name="路径 13364" d="M199.124,265.8a2.825,2.825,0,0,0,1.757-2.086c0-.357-.9-1.282-1.355-1.254s-1.375,1.767-1.357,2.209S198.516,265.82,199.124,265.8Z" transform="translate(-158.153 -209.456)" fill="#f77f89" fill-rule="evenodd"/>
        <path id="路径_13365" data-name="路径 13365" d="M212.073,238.433h-.01a.344.344,0,0,1-.335-.349,6.609,6.609,0,0,0-.553-1.4c-.363-.769-.812-1.612-1.232-2.311a.344.344,0,0,1,.59-.355c.441.734.909,1.614,1.285,2.415.608,1.3.6,1.571.6,1.661A.344.344,0,0,1,212.073,238.433Z" transform="translate(-167.511 -186.63)" fill="#a7464f"/>
        <path id="路径_13366" data-name="路径 13366" d="M203.114,245.587a.344.344,0,0,1-.342-.311,3.662,3.662,0,0,0-.342-.643c-.218-.356-.505-.781-.808-1.2a11.547,11.547,0,0,0-1.98-2.213.344.344,0,1,1,.414-.55,13.267,13.267,0,0,1,2.177,2.432c.321.443.619.889.839,1.257a2.054,2.054,0,0,1,.386.865.344.344,0,0,1-.33.358Z" transform="translate(-159.22 -192.017)" fill="#a94b53"/>
        <path id="路径_13367" data-name="路径 13367" d="M63.06,25.379a8.264,8.264,0,1,1,8.268,8.371A8.324,8.324,0,0,1,63.06,25.379Z" transform="translate(-50.329 -13.567)" fill="#f77f89" fill-rule="evenodd"/>
        <path id="路径_13368" data-name="路径 13368" d="M97.853,58.006c.089-.533.4-.927.719-.874s.489.525.4,1.058-.4.927-.719.876S97.766,58.541,97.853,58.006Z" transform="translate(-78.078 -45.59)" fill="#b5545c" fill-rule="evenodd"/>
        <path id="路径_13369" data-name="路径 13369" d="M128.666,60.211c.083-.5.382-.866.67-.818s.456.491.376.99-.384.864-.672.808S128.584,60.71,128.666,60.211Z" transform="translate(-102.67 -47.396)" fill="#b5545c" fill-rule="evenodd"/>
        <path id="路径_13370" data-name="路径 13370" d="M69.243,75.679c.491,1.365,1.725,8.459,1.414,11.036,1.292,1.959,7.052,1.414,8.768-.244a11.3,11.3,0,0,1-.574-6.107C79.149,78.482,68.753,74.318,69.243,75.679Z" transform="translate(-55.25 -60.182)" fill="#f77f89" fill-rule="evenodd"/>
        <path id="路径_13371" data-name="路径 13371" d="M72.011,11.983c.071,1.989-1.745,3.889-6.68,4.832.541,1.4.586,3.494-2.11,3.871-3.144.436-3.4-3.58-3.4-3.58l4.709-5.564S71.943,9.99,72.011,11.983Z" transform="translate(-47.743 -8.752)" fill-rule="evenodd"/>
        <path id="路径_13372" data-name="路径 13372" d="M112.8,8.055c-.2,1.767,1.832,6.058,6.541,6.175C122.685,14.23,112.992,6.285,112.8,8.055Z" transform="translate(-90.01 -6.223)" fill-rule="evenodd"/>
        <path id="路径_13373" data-name="路径 13373" d="M85.21,74.766c-.452-.571.2-3.177.915-4.37.86-.507,3.912-.085,5.485-1.438.462-.4.711-.105,1.07.337.632.775,2.532,1.177,3.243,1.616a9.872,9.872,0,0,1-1.381,4.3C93.839,76.129,87.415,76.211,85.21,74.766Z" transform="translate(-67.887 -54.88)" fill="#fff" fill-rule="evenodd"/>
        <path id="路径_13374" data-name="路径 13374" d="M79.913,58.844a.344.344,0,0,1-.3-.167c-.07-.118-.179-.3-.317-.535-.651-1.1-2.006-3.387-2.478-4.028a.344.344,0,0,1,.555-.408c.492.669,1.808,2.892,2.515,4.086.137.232.246.416.316.532a.344.344,0,0,1-.3.521Z" transform="translate(-61.258 -42.748)" fill="#fff"/>
        <path id="路径_13375" data-name="路径 13375" d="M68.476,76.331a2.384,2.384,0,0,1-1.395-.7,11.983,11.983,0,0,1-1.451-1.508,17.226,17.226,0,0,1-1.265-1.742,6.078,6.078,0,0,1-.71-1.444.344.344,0,1,1,.667-.172,10.727,10.727,0,0,0,1.84,2.92A11.3,11.3,0,0,0,67.525,75.1c.579.488.858.54.951.54a.344.344,0,1,1,0,.689Z" transform="translate(-50.795 -56.267)" fill="#fff"/>
        <path id="路径_13376" data-name="路径 13376" d="M56.06,51.252a2.692,2.692,0,1,1,2.692,2.692A2.692,2.692,0,0,1,56.06,51.252Z" transform="translate(-44.742 -38.754)" fill="#f77f89" fill-rule="evenodd"/>
        <path id="路径_13377" data-name="路径 13377" d="M67.9,723.158h0l-18.147-.125a.172.172,0,0,1,0-.343h0l18.147.125a.172.172,0,0,1,0,.343Z" transform="translate(-39.571 -576.748)" fill="#4c4fd9"/>
        <path id="路径_13378" data-name="路径 13378" d="M101.772,706.3a.172.172,0,0,1-.164-.12,5.336,5.336,0,0,0-2.293-2.842c-1.762-1.148-4.32-1.747-7.605-1.779a.172.172,0,0,1-.17-.172v-.765a.172.172,0,1,1,.343,0v.6a14.417,14.417,0,0,1,7.62,1.833,5.674,5.674,0,0,1,2.433,3.026.172.172,0,0,1-.164.223Z" transform="translate(-73.058 -559)" fill="#4c4fd9"/>
        <path id="路径_13379" data-name="路径 13379" d="M53.185,716.375a.172.172,0,0,1-.172-.172v-.269a3.261,3.261,0,0,0-3.261-3.261.172.172,0,1,1,0-.343,3.6,3.6,0,0,1,3.6,3.6v.269A.172.172,0,0,1,53.185,716.375Z" transform="translate(-39.571 -568.48)" fill="#4c4fd9"/>
        <path id="路径_13380" data-name="路径 13380" d="M101.671,707.116a.172.172,0,0,1-.148-.257l.891-1.543a.172.172,0,1,1,.3.172l-.891,1.543A.172.172,0,0,1,101.671,707.116Z" transform="translate(-81.006 -562.814)" fill="#4c4fd9"/>
        <path id="路径_13381" data-name="路径 13381" d="M112.051,709.028a.172.172,0,0,1-.153-.249l.759-1.515a.172.172,0,0,1,.307.154l-.759,1.515A.172.172,0,0,1,112.051,709.028Z" transform="translate(-89.29 -564.362)" fill="#4c4fd9"/>
        <path id="路径_13382" data-name="路径 13382" d="M121.871,712.139a.172.172,0,0,1-.151-.253l.66-1.226a.172.172,0,0,1,.3.163l-.66,1.226A.172.172,0,0,1,121.871,712.139Z" transform="translate(-97.127 -567.076)" fill="#4c4fd9"/>
        <path id="路径_13383" data-name="路径 13383" d="M104.012,349.968a.172.172,0,0,1-.005-.343l9.431-.295a.172.172,0,0,1,.011.343l-9.431.295Z" transform="translate(-82.874 -278.786)" fill="#737999"/>
        <path id="路径_13384" data-name="路径 13384" d="M49.392,697.073a.172.172,0,0,1,0-.343l8.546-.139a.172.172,0,1,1,.006.343l-8.546.139Z" transform="translate(-39.284 -555.919)" fill="#4c4fd9"/>
        <path id="路径_13385" data-name="路径 13385" d="M92.512,693.214a.172.172,0,0,1,0-.343l8.789-.071h0a.172.172,0,0,1,0,.343l-8.789.071Z" transform="translate(-73.696 -552.894)" fill="#4c4fd9"/>
        <path id="路径_13386" data-name="路径 13386" d="M147.466,721.515h0l-9.374-.2a.172.172,0,0,1,0-.343h0l9.374.2a.172.172,0,0,1,0,.343Z" transform="translate(-110.071 -575.376)" fill="#4c4fd9"/>
        <path id="路径_13387" data-name="路径 13387" d="M145.991,703.989a.172.172,0,0,1-.149-.256l.808-1.436a.172.172,0,0,1,.3.168l-.808,1.436A.172.172,0,0,1,145.991,703.989Z" transform="translate(-116.376 -560.404)" fill="#4c4fd9"/>
        <path id="路径_13388" data-name="路径 13388" d="M152.661,705.581a.172.172,0,0,1-.149-.256l.808-1.438a.172.172,0,0,1,.3.168l-.808,1.438A.172.172,0,0,1,152.661,705.581Z" transform="translate(-121.699 -561.673)" fill="#4c4fd9"/>
        <path id="路径_13389" data-name="路径 13389" d="M159.781,707.541a.172.172,0,0,1-.149-.256l.808-1.438a.172.172,0,0,1,.3.168l-.808,1.438A.172.172,0,0,1,159.781,707.541Z" transform="translate(-127.381 -563.237)" fill="#4c4fd9"/>
        <path id="路径_13390" data-name="路径 13390" d="M8.945,339.275a3.693,3.693,0,0,1-2.058-.612,3.917,3.917,0,0,1-1.275-1.4,3.827,3.827,0,0,1-.473-1.788c-.018-2.275.871-15.637.99-16.955a.2.2,0,0,1,.4.037c-.12,1.315-1.007,14.648-.989,16.915a3.422,3.422,0,0,0,.423,1.6,3.511,3.511,0,0,0,1.143,1.252,3.274,3.274,0,0,0,1.547.534,4.093,4.093,0,0,0,1.928-.338.2.2,0,0,1,.156.373A4.651,4.651,0,0,1,8.945,339.275Z" transform="translate(-4.104 -254.054)" fill="#c9c9c9"/>
        <path id="路径_13391" data-name="路径 13391" d="M162.79,143.524h-.007a.2.2,0,0,1-.195-.209,5.584,5.584,0,0,0-.645-2.838,7.308,7.308,0,0,0-1.727-2.1,16.636,16.636,0,0,0-4.04-2.387l-.107-.049a.2.2,0,0,1,.167-.368l.107.048a16.985,16.985,0,0,1,4.138,2.449,7.709,7.709,0,0,1,1.82,2.214,5.983,5.983,0,0,1,.691,3.04A.2.2,0,0,1,162.79,143.524Z" transform="translate(-124.46 -108.185)" fill="#c9c9c9"/>
        <path id="路径_13392" data-name="路径 13392" d="M183.436,353.763l-.031,0a.2.2,0,0,1-.169-.23c.373-2.408.4-8.983-.23-11.469a.2.2,0,0,1,.391-.1,29.158,29.158,0,0,1,.5,5.851,41.487,41.487,0,0,1-.266,5.778A.2.2,0,0,1,183.436,353.763Z" transform="translate(-146.048 -272.784)" fill="#c9c9c9"/>
      </g>
    </g>
    <g id="Layer_2-3" data-name="Layer 2" transform="translate(232.516 408.917)">
      <g id="Layer_1-3" data-name="Layer 1" transform="translate(0 0)">
        <path id="路径_13432" data-name="路径 13432" d="M310.946,186.78h11.48a.607.607,0,0,1,.606.606v5.654a.607.607,0,0,1-.606.606h-11.48a.607.607,0,0,1-.606-.606v-5.654A.607.607,0,0,1,310.946,186.78Zm11.48,6.462a.2.2,0,0,0,.2-.2v-5.654a.2.2,0,0,0-.2-.2h-11.48a.2.2,0,0,0-.2.2v5.654a.2.2,0,0,0,.2.2Z" transform="translate(-267.219 -149.062)" fill="#aadaf1"/>
        <path id="路径_13433" data-name="路径 13433" d="M280.506,154.71h11.478a.607.607,0,0,1,.606.606v5.654a.607.607,0,0,1-.606.606H280.506a.607.607,0,0,1-.606-.606v-5.654A.606.606,0,0,1,280.506,154.71Zm11.478,6.462a.2.2,0,0,0,.2-.2v-5.654a.2.2,0,0,0-.2-.2H280.506a.2.2,0,0,0-.2.2v5.654a.2.2,0,0,0,.2.2Z" transform="translate(-230.63 -123.468)" fill="#aadaf1"/>
        <path id="路径_13434" data-name="路径 13434" d="M250.056,186.78h11.478a.606.606,0,0,1,.606.606v5.654a.607.607,0,0,1-.606.606H250.056a.607.607,0,0,1-.606-.606v-5.654A.606.606,0,0,1,250.056,186.78Zm11.478,6.462a.2.2,0,0,0,.2-.2v-5.654a.2.2,0,0,0-.2-.2H250.056a.2.2,0,0,0-.2.2v5.654a.2.2,0,0,0,.2.2Z" transform="translate(-194.031 -149.062)" fill="#aadaf1"/>
        <path id="路径_13435" data-name="路径 13435" d="M340.436,218.84h11.478a.607.607,0,0,1,.606.606V225.1a.607.607,0,0,1-.606.606H340.436a.607.607,0,0,1-.606-.606v-5.654A.606.606,0,0,1,340.436,218.84Zm11.478,6.462a.2.2,0,0,0,.2-.2v-5.654a.2.2,0,0,0-.2-.2H340.436a.2.2,0,0,0-.2.2V225.1a.2.2,0,0,0,.2.2Z" transform="translate(-302.663 -174.648)" fill="#aadaf1"/>
        <path id="路径_13436" data-name="路径 13436" d="M340.447,563.85h-38.9a.969.969,0,0,0-.969.969h0a.969.969,0,0,0,.969.967h38.9a.969.969,0,0,0,.969-.967h0A.969.969,0,0,0,340.447,563.85Z" transform="translate(-283.633 -449.986)" fill="#fff" fill-rule="evenodd"/>
        <path id="路径_13437" data-name="路径 13437" d="M39.871,592.73H.967A.965.965,0,0,0,0,593.7H0a.965.965,0,0,0,.967.967h38.9a.967.967,0,0,0,.967-.967h0a.967.967,0,0,0-.967-.967Z" transform="translate(77.645 -473.033)" fill="#fff" fill-rule="evenodd"/>
        <path id="路径_13438" data-name="路径 13438" d="M192.406,567.59a16.612,16.612,0,0,1,15.247,10.034,5.923,5.923,0,0,1,7.389-.038,10.109,10.109,0,0,1,18.112-1.078,7.674,7.674,0,0,1,11.252,3.92c-.178,0-.345-.051-.525-.051H167a6.222,6.222,0,0,1,10.24-2.922A16.6,16.6,0,0,1,192.406,567.59Z" transform="translate(-159.647 -452.97)" fill="#dedede" fill-rule="evenodd"/>
        <path id="路径_13439" data-name="路径 13439" d="M230.505,621.33H142.547a.969.969,0,0,0-.967.969h0a.969.969,0,0,0,.967.967h87.958a.969.969,0,0,0,.967-.967h0a.969.969,0,0,0-.967-.969Z" transform="translate(-141.58 -495.858)" fill="#dedede" fill-rule="evenodd"/>
        <path id="路径_13440" data-name="路径 13440" d="M68.135,566.4l2.559,3.584-5.271,6.606L63,572.349Z" transform="translate(35.067 -452.021)" fill="#f77f89" fill-rule="evenodd"/>
        <path id="路径_13441" data-name="路径 13441" d="M43.6,576.08l6.058,7-9.518,11.107s-6.317-.069-8.312-.069c.04-2.423,1.8-7.444,6.7-7.25-.99-1.737-1.692-3.169-1.692-3.169Z" transform="translate(62.396 -459.746)" fill="#6367fd" fill-rule="evenodd"/>
        <path id="路径_13442" data-name="路径 13442" d="M36.813,631.187q-.142,0-.282-.006a5.3,5.3,0,0,1-1.61-.3,3.4,3.4,0,0,1-1.318-.844,9.66,9.66,0,0,0-2.587-2.186,4.071,4.071,0,0,0-3.115-.055.2.2,0,0,1-.119-.386,5.756,5.756,0,0,1,1.875-.294,3.772,3.772,0,0,1,1.533.37,9.952,9.952,0,0,1,2.708,2.274,3,3,0,0,0,1.163.742,4.9,4.9,0,0,0,1.487.28,6.733,6.733,0,0,0,1.57-.125,6.036,6.036,0,0,0,1.4-.454.2.2,0,0,1,.174.365,6.442,6.442,0,0,1-1.5.485A7.116,7.116,0,0,1,36.813,631.187Z" transform="translate(73.093 -500.47)" fill="#4c4fd9"/>
        <path id="路径_13443" data-name="路径 13443" d="M58.612,638.778a.2.2,0,0,1-.134-.051,8.71,8.71,0,0,1-1.716-2.2,15.908,15.908,0,0,1-1.873-5.557,7.311,7.311,0,0,1,0-2.283.2.2,0,1,1,.4.079,10.779,10.779,0,0,0,.638,4.868,14.888,14.888,0,0,0,1.187,2.692,8.463,8.463,0,0,0,1.554,2.023,18.39,18.39,0,0,0,2.654-.906.2.2,0,1,1,.159.371,18.792,18.792,0,0,1-2.819.953A.206.206,0,0,1,58.612,638.778Z" transform="translate(45.815 -501.604)" fill="#4c4fd9"/>
        <path id="路径_13444" data-name="路径 13444" d="M46.02,596.266a.2.2,0,0,1-.066-.011,4.3,4.3,0,0,1-1.2-7.495.2.2,0,1,1,.244.322,3.9,3.9,0,0,0,1.087,6.791.2.2,0,0,1-.066.393Z" transform="translate(63.568 -469.833)" fill="#4c4fd9"/>
        <path id="路径_13445" data-name="路径 13445" d="M43.2,614.3h-.012l-6.941-.4a.2.2,0,1,1,.023-.4l6.845.4,9.3-10.16a.2.2,0,0,1,.3.273l-9.368,10.23A.2.2,0,0,1,43.2,614.3Z" transform="translate(58.429 -481.764)" fill="#4c4fd9"/>
        <path id="路径_13446" data-name="路径 13446" d="M90.2,410.61l16.018,29.356-6.133,7.179L71.14,417.278l6.353-8.978Z" transform="translate(-2.1 -325.848)" fill="#f7d167" fill-rule="evenodd"/>
        <path id="路径_13447" data-name="路径 13447" d="M81.822,551.459a.2.2,0,0,1-.151-.336l7.145-7.995a.2.2,0,1,1,.3.269l-7.145,7.995A.2.2,0,0,1,81.822,551.459Z" transform="translate(12.832 -433.394)" fill="#ff3274"/>
        <path id="路径_13448" data-name="路径 13448" d="M124.825,408.31l12.7,2.31,6.462,11.852-11.093-.265-3.617,6.234L118.47,417.29Z" transform="translate(-49.43 -325.856)" fill="#bf9111" fill-rule="evenodd"/>
        <path id="路径_13449" data-name="路径 13449" d="M110.418,457.243a.2.2,0,0,1-.154-.071c-6.488-7.6-26.455-30.885-26.656-31.119a.2.2,0,0,1,.307-.263c.2.234,20.168,23.519,26.657,31.12a.2.2,0,0,1-.153.333Z" transform="translate(-9.011 -339.75)" fill="#ff3274"/>
        <path id="路径_13450" data-name="路径 13450" d="M311.186,604.635l-1.935,4.039L300.58,607.1l1.434-4.865Z" transform="translate(-253.402 -480.623)" fill="#f77f89" fill-rule="evenodd"/>
        <path id="路径_13451" data-name="路径 13451" d="M325.194,623.59l-2.963,8.482s-17.139-3.433-18.441-3.77c2.423-5.695,7.4-4.74,9.576-4.194a31.332,31.332,0,0,0,1.462-3.2Z" transform="translate(-268.058 -495.523)" fill="#6367fd" fill-rule="evenodd"/>
        <path id="路径_13452" data-name="路径 13452" d="M360.977,617.489h0a1.51,1.51,0,0,1,1.058.55,3.473,3.473,0,0,1,.736,1.328,3.307,3.307,0,0,1,.1,1.669,1.254,1.254,0,0,1-.788,1.007.926.926,0,0,1-.273.041,1.514,1.514,0,0,1-1.059-.551,3.481,3.481,0,0,1-.738-1.325,3.292,3.292,0,0,1-.1-1.666,1.26,1.26,0,0,1,.787-1.01A.932.932,0,0,1,360.977,617.489Zm.838,4.19a.525.525,0,0,0,.154-.023.878.878,0,0,0,.513-.711,2.9,2.9,0,0,0-.1-1.46,3.063,3.063,0,0,0-.646-1.171,1.124,1.124,0,0,0-.762-.421h0a.525.525,0,0,0-.156.023.884.884,0,0,0-.513.714,2.886,2.886,0,0,0,.1,1.457,3.072,3.072,0,0,0,.647,1.169A1.128,1.128,0,0,0,361.815,621.679Z" transform="translate(-317.125 -492.793)" fill="#4c4fd9"/>
        <path id="路径_13453" data-name="路径 13453" d="M371.1,620.683h0a2.978,2.978,0,0,1,1.97,1.005,3.854,3.854,0,0,1,.956,1.585,1.5,1.5,0,0,1-.183,1.41,1.083,1.083,0,0,1-.855.362,2.982,2.982,0,0,1-1.971-1.007,3.821,3.821,0,0,1-.956-1.581,1.5,1.5,0,0,1,.183-1.411A1.085,1.085,0,0,1,371.1,620.683Zm1.887,3.958a.684.684,0,0,0,.548-.221,1.123,1.123,0,0,0,.1-1.038,3.444,3.444,0,0,0-.856-1.412,2.617,2.617,0,0,0-1.68-.883.686.686,0,0,0-.549.221,1.14,1.14,0,0,0-.1,1.039,3.413,3.413,0,0,0,.856,1.408A2.622,2.622,0,0,0,372.991,624.641Z" transform="translate(-330.348 -495.342)" fill="#4c4fd9"/>
        <path id="路径_13454" data-name="路径 13454" d="M332.845,296.1a13.585,13.585,0,0,1-3.621,2.444c-2.141.519-6.058,4.812-6.058,5.737a1.259,1.259,0,0,0,1.268,1.212c.42.026,1.315-.945,1.541-1.222-.39.889-.616,2.092-.184,2.47a1,1,0,0,0,1.478.02,3.4,3.4,0,0,0,.59-2.262,8.273,8.273,0,0,1,1.674-2.294.733.733,0,0,1,.771.553c.079.442-.949,1.43-1.064,1.842,0,.523.571,1.187,1.064,1.056a11.874,11.874,0,0,0,2.682-2.3,14.784,14.784,0,0,0,1.028-2.423,14.1,14.1,0,0,1,1.551-1.616C335.765,299.118,333.917,295.229,332.845,296.1Z" transform="translate(-282.357 -236.204)" fill="#f77f89" fill-rule="evenodd"/>
        <path id="路径_13455" data-name="路径 13455" d="M287.211,191.144c-3.859,3.278-9.635,16.186-13.346,19.362.388,1.993,6.537,9.417,10.883,7.648C290.192,215.936,290.125,188.67,287.211,191.144Z" transform="translate(-226 -152.418)" fill="#3b4161" fill-rule="evenodd"/>
        <path id="路径_13456" data-name="路径 13456" d="M229.252,274.133,217.81,339.1l11.987,2.827,15.741-41.305-3.91-28.706Z" transform="translate(-171.04 -217.009)" fill="#f7d167" fill-rule="evenodd"/>
        <path id="路径_13457" data-name="路径 13457" d="M219.762,435.444a.2.2,0,0,1-.189-.274L225.2,420.4a.2.2,0,0,1,.377.144l-5.628,14.77A.2.2,0,0,1,219.762,435.444Z" transform="translate(-151.447 -335.4)" fill="#ff3274"/>
        <path id="路径_13458" data-name="路径 13458" d="M229.2,382.125a.2.2,0,0,1-.193-.263L247.5,323.711a.2.2,0,0,1,.385.122l-18.492,58.151A.2.2,0,0,1,229.2,382.125Z" transform="translate(-175.657 -258.228)" fill="#ff3274"/>
        <path id="路径_13459" data-name="路径 13459" d="M249.874,312.741c-.6,0-1.312-.035-2.124-.1-1.174-.1-2.553-.274-3.987-.5a37.381,37.381,0,0,1-6-1.328.2.2,0,0,1,.156-.373,37.119,37.119,0,0,0,5.907,1.3,32.371,32.371,0,0,0,7.088.554.2.2,0,1,1,.042.4A10.545,10.545,0,0,1,249.874,312.741Z" transform="translate(-180.644 -247.734)" fill="#ff3274"/>
        <path id="路径_13460" data-name="路径 13460" d="M124.925,234.6l-21.711,2.3a2.429,2.429,0,0,0-2.08,2.726l3.526,33.209a2.416,2.416,0,0,0,2.605,2.221l21.711-2.3a2.429,2.429,0,0,0,2.08-2.726l-3.524-33.209A2.433,2.433,0,0,0,124.925,234.6Z" transform="translate(-33.006 -187.212)" fill="#6367fd" fill-rule="evenodd"/>
        <path id="路径_13461" data-name="路径 13461" d="M142.562,292.84a8.455,8.455,0,1,1-3.3.667A8.429,8.429,0,0,1,142.562,292.84Zm0,16.559a8.052,8.052,0,1,0-3.144-.635A8.027,8.027,0,0,0,142.562,309.4Z" transform="translate(-59.636 -233.704)" fill="#4c4fd9"/>
        <path id="路径_13462" data-name="路径 13462" d="M178.632,36.144c0-2.062-1.161-3.734-2.595-3.734s-2.6,1.672-2.6,3.734,1.163,3.734,2.6,3.734S178.632,38.206,178.632,36.144Z" transform="translate(-95.173 -25.866)" fill="#f77f89" fill-rule="evenodd"/>
        <path id="路径_13463" data-name="路径 13463" d="M197.267,27.824a8.294,8.294,0,1,0-8.293,8.294,8.294,8.294,0,0,0,8.293-8.294Z" transform="translate(-115.271 -15.587)" fill="#f77f89" fill-rule="evenodd"/>
        <path id="路径_13464" data-name="路径 13464" d="M165.551,317.985a13.748,13.748,0,0,1,.446,8.75c2.254,3.483,1.2,5.937-3.96,6.553A27.187,27.187,0,0,1,159.329,330a24.236,24.236,0,0,1-.315-4.065c-.055-1.159,1.644-5.745,1.222-7.805S165.165,316.7,165.551,317.985Z" transform="translate(-80.747 -252.823)" fill="#f77f89" fill-rule="evenodd"/>
        <path id="路径_13465" data-name="路径 13465" d="M158.705,115.45c11.931,0,16.472,25.071,15.17,41.113-2.474,1.561-12.347,2.169-15.17,1.428-.606-2.817-.808-14.606-.943-16.525-6.589.646-5.452,1.666-4.657,10.485a30.138,30.138,0,0,1-11.511-2.258C141.11,143.647,144.664,115.45,158.705,115.45Z" transform="translate(-84.192 -92.136)" fill="#3b4161" fill-rule="evenodd"/>
        <path id="路径_13466" data-name="路径 13466" d="M134.043,151.374a.684.684,0,0,1-.679-.613l-1.616-15.5a9.634,9.634,0,0,1,8.571-10.571l1.691-.176a9.634,9.634,0,0,1,10.571,8.571l1.575,15.075a.684.684,0,0,1-1.36.142l-1.575-15.075a8.266,8.266,0,0,0-9.07-7.354l-1.691.176a8.266,8.266,0,0,0-7.353,9.07l1.616,15.5a.684.684,0,0,1-.681.754Z" transform="translate(-62.272 -99.329)" fill="#6367fd"/>
        <path id="路径_13467" data-name="路径 13467" d="M201.725,80.81a33.5,33.5,0,0,0-.674,7.912c-1.581.933-5.681,1.581-7.652-1.064a9.62,9.62,0,0,0,1.062-4.645C194.382,81.715,202.347,78.138,201.725,80.81Z" transform="translate(-122.331 -63.72)" fill="#f77f89" fill-rule="evenodd"/>
        <path id="路径_13468" data-name="路径 13468" d="M218.71,58.883c.176-1.434-.856-4.808-1.446-5.277a11.139,11.139,0,0,1-9.544-4.826,6.535,6.535,0,0,0-1.109,2.3c-.143.549-.018.935.921,1.723C207.771,56.042,210.709,61.181,218.71,58.883Z" transform="translate(-141.96 -38.93)" fill="#fff" fill-rule="evenodd"/>
        <path id="路径_13469" data-name="路径 13469" d="M182.523,56.334a.308.308,0,0,1-.2-.546c.013-.01,1.285-1.05,2.721-2.1.846-.619,1.583-1.122,2.192-1.494a5.359,5.359,0,0,1,1.755-.8.308.308,0,0,1,.084.61c-.313.043-1.207.385-3.667,2.186-1.422,1.041-2.682,2.071-2.694,2.081A.307.307,0,0,1,182.523,56.334Z" transform="translate(-107.659 -41.009)" fill="#fff"/>
        <path id="路径_13470" data-name="路径 13470" d="M237.436,47.793c0-.719-.234-1.3-.523-1.3s-.523.584-.523,1.3.234,1.3.523,1.3S237.436,48.511,237.436,47.793Z" transform="translate(-166.69 -37.102)" fill="#cb5d66" fill-rule="evenodd"/>
        <path id="路径_13471" data-name="路径 13471" d="M142.6,297.078a15.082,15.082,0,0,1-1.846-.079.2.2,0,0,1,.058-.4,48.739,48.739,0,0,0,7.292-.163c1.777-.139,3.441-.327,4.811-.545a17.365,17.365,0,0,0,3.615-.876.2.2,0,0,1,.154.374c-2.044.841-6.233,1.27-8.549,1.45C146.143,296.994,144.089,297.078,142.6,297.078Z" transform="translate(-66.713 -235.428)" fill="#737999"/>
        <path id="路径_13472" data-name="路径 13472" d="M204.343,156.5h-.007a.2.2,0,0,1-.195-.209,29.328,29.328,0,0,0-.289-3.615c-.159-1.389-.339-2.963-.435-4.63a31.162,31.162,0,0,1,.078-5.136,18.96,18.96,0,0,1,.439-2.529,13.753,13.753,0,0,1,.818-2.38,10.656,10.656,0,0,1,1.284-2.136,9.536,9.536,0,0,1,1.833-1.791.2.2,0,0,1,.241.324,9.133,9.133,0,0,0-1.756,1.715,10.252,10.252,0,0,0-1.235,2.055,13.348,13.348,0,0,0-.794,2.31,18.557,18.557,0,0,0-.429,2.475,30.769,30.769,0,0,0-.076,5.07c.1,1.656.275,3.224.433,4.607a29.466,29.466,0,0,1,.291,3.674A.2.2,0,0,1,204.343,156.5Z" transform="translate(-130.774 -106.972)" fill="#737999"/>
        <path id="路径_13473" data-name="路径 13473" d="M207.2,245.137a.2.2,0,0,1-.079-.016l-3.649-1.563a.2.2,0,0,1,.159-.371l3.649,1.563a.2.2,0,0,1-.08.388Z" transform="translate(-129.984 -194.064)" fill="#737999"/>
        <path id="路径_13474" data-name="路径 13474" d="M204.342,242.1a.2.2,0,0,1-.014-.4l3.5-.246a.2.2,0,0,1,.028.4l-3.5.246Z" transform="translate(-130.784 -192.692)" fill="#737999"/>
        <path id="路径_13475" data-name="路径 13475" d="M206.912,232.346a.2.2,0,0,1-.135-.352l2.985-2.682a.2.2,0,1,1,.27.3l-2.985,2.682A.2.2,0,0,1,206.912,232.346Z" transform="translate(-133.359 -182.963)" fill="#737999"/>
        <path id="路径_13476" data-name="路径 13476" d="M290.76,219.506a.2.2,0,0,1-.2-.187c-.2-2.671.352-9.552,2.228-16.49a.2.2,0,1,1,.39.105,70.029,70.029,0,0,0-1.881,9.779,38.743,38.743,0,0,0-.334,6.575.2.2,0,0,1-.186.217Z" transform="translate(-233.368 -161.751)" fill="#737999"/>
        <path id="路径_13477" data-name="路径 13477" d="M308.258,277.737a.2.2,0,0,1-.081-.017,16.148,16.148,0,0,1-3.394-2.466,23.218,23.218,0,0,1-1.968-1.99,13.588,13.588,0,0,1-1.579-2.172.2.2,0,0,1,.351-.2,17.558,17.558,0,0,0,3.466,4.061,15.41,15.41,0,0,0,3.286,2.4.2.2,0,0,1-.081.387Z" transform="translate(-250.803 -216.107)" fill="#737999"/>
        <path id="路径_13478" data-name="路径 13478" d="M275.832,297.2l-.033,0a.2.2,0,0,1-.166-.232c.168-1.01.773-4.777.779-4.815a.2.2,0,1,1,.4.064c-.006.038-.612,3.807-.78,4.817A.2.2,0,0,1,275.832,297.2Z" transform="translate(-213.991 -233.017)" fill="#ff3274"/>
        <path id="路径_13479" data-name="路径 13479" d="M299.006,586.072l-.032,0L285.87,584a.2.2,0,1,1,.063-.4l13.1,2.068a.2.2,0,0,1-.031.4Z" transform="translate(-238.419 -465.747)" fill="#ff3274"/>
        <path id="路径_13480" data-name="路径 13480" d="M298.1,428.632a6.38,6.38,0,0,1-.709-.04.2.2,0,1,1,.045-.4,5.993,5.993,0,0,0,.676.037,6.123,6.123,0,0,0,1.459-12.07.2.2,0,1,1,.1-.392,6.527,6.527,0,0,1-1.555,12.866Z" transform="translate(-246.177 -331.801)" fill="#ff3274"/>
        <path id="路径_13481" data-name="路径 13481" d="M333.2,653.879a.2.2,0,0,1-.038,0l-18.33-3.475a.2.2,0,1,1,.075-.4l18.33,3.475a.2.2,0,0,1-.037.4Z" transform="translate(-278.466 -518.738)" fill="#4c4fd9"/>
        <path id="路径_13482" data-name="路径 13482" d="M307.747,651.633a.2.2,0,0,1-.2-.151,4.3,4.3,0,0,1,5.728-5.108.2.2,0,0,1-.148.376,3.9,3.9,0,0,0-5.189,4.63.2.2,0,0,1-.2.253Z" transform="translate(-257.003 -515.607)" fill="#4c4fd9"/>
        <path id="路径_13483" data-name="路径 13483" d="M183.553,81.389a.308.308,0,0,1-.109-.6l.064-.024a8.845,8.845,0,0,0,1.947-.985,6.874,6.874,0,0,0,2.329-2.638.308.308,0,1,1,.552.274,7.483,7.483,0,0,1-2.534,2.873,9.421,9.421,0,0,1-2.078,1.053l-.063.024A.307.307,0,0,1,183.553,81.389Z" transform="translate(-106.889 -61.431)" fill="#fff"/>
        <path id="路径_13484" data-name="路径 13484" d="M178.043,57.854a2.672,2.672,0,1,0-2.67,2.67A2.672,2.672,0,0,0,178.043,57.854Z" transform="translate(-94.435 -44.038)" fill="#f77f89" fill-rule="evenodd"/>
        <path id="路径_13485" data-name="路径 13485" d="M187.676,73.582a2.874,2.874,0,0,1-2.747-2.031.2.2,0,1,1,.386-.118,2.47,2.47,0,0,0,2.361,1.745h0a.2.2,0,1,1,0,.4Z" transform="translate(-106.738 -56.894)" fill="#cb5d66"/>
        <path id="路径_13486" data-name="路径 13486" d="M176.239,55.863a.2.2,0,0,1-.159-.078,2.467,2.467,0,0,0-1.43-.9.2.2,0,0,1,.084-.395,2.872,2.872,0,0,1,1.664,1.043.2.2,0,0,1-.159.326Z" transform="translate(-93.194 -43.487)" fill="#cb5d66"/>
        <path id="路径_13487" data-name="路径 13487" d="M183.392,1.23a8.934,8.934,0,0,1,6.7,10.713L172.679,7.93a8.934,8.934,0,0,1,10.713-6.7Z" transform="translate(-106.711 -0.798)" fill="#f2e283" fill-rule="evenodd"/>
        <path id="路径_13488" data-name="路径 13488" d="M234.118,17.193l-12.583-2.9c-1.042-.242-2.019.164-2.2.9h0c-.17.739.537,1.533,1.581,1.775l12.583,2.9c1.044.24,2.019-.164,2.2-.9h0C235.871,18.227,235.162,17.433,234.118,17.193Z" transform="translate(-161.53 -11.351)" fill="#f2e283" fill-rule="evenodd"/>
        <path id="路径_13489" data-name="路径 13489" d="M163.392,382.506a.2.2,0,0,1-.147-.063,12.572,12.572,0,0,1-1.463-1.882.2.2,0,0,1,.341-.216,12.167,12.167,0,0,0,1.416,1.822.2.2,0,0,1-.147.341Z" transform="translate(-77.774 -303.462)" fill="#cb5d66"/>
        <path id="路径_13490" data-name="路径 13490" d="M175.716,381.632a.2.2,0,0,1-.14-.057,15.674,15.674,0,0,1-1.464-1.737c-.474-.636-.957-1.343-1.292-1.891a.2.2,0,1,1,.345-.211,22.158,22.158,0,0,0,2.692,3.549.2.2,0,0,1-.14.347Z" transform="translate(-92.328 -301.379)" fill="#cb5d66"/>
        <path id="路径_13491" data-name="路径 13491" d="M349.692,327.858a.2.2,0,0,1-.14-.347c.073-.07.154-.15.239-.234a11.534,11.534,0,0,1,1.925-1.626c.923-.566,1.685-.609,2.265-.128a.2.2,0,1,1-.258.311c-.438-.364-1.025-.311-1.8.162a11.217,11.217,0,0,0-1.853,1.57c-.086.085-.168.166-.242.237A.2.2,0,0,1,349.692,327.858Z" transform="translate(-306.147 -259.521)" fill="#cb5d66"/>
        <path id="路径_13492" data-name="路径 13492" d="M180,64.588a1.327,1.327,0,0,1-.54-.114.2.2,0,1,1,.163-.369.927.927,0,0,0,.377.08h0a.949.949,0,1,0-.487-1.763.2.2,0,1,1-.208-.346,1.353,1.353,0,1,1,.7,2.514Z" transform="translate(-99.064 -49.387)" fill="#cb5d66"/>
        <path id="路径_13493" data-name="路径 13493" d="M183.257,8.448a.2.2,0,0,1-.2-.182A8.738,8.738,0,0,0,172.172.687a.2.2,0,1,1-.1-.391,9.142,9.142,0,0,1,11.387,7.93.2.2,0,0,1-.181.221Z" transform="translate(-99.693 -0.003)" fill="#ff3274"/>
        <path id="路径_13494" data-name="路径 13494" d="M236.4,58.816h-.02a7.726,7.726,0,0,1-2.983-.891,6.906,6.906,0,0,1-2.047-1.712,7.737,7.737,0,0,1-1.67-4.106,3.308,3.308,0,0,1-.853-.961,1.213,1.213,0,0,1-.069-.913A6.7,6.7,0,0,1,229.9,47.86a.2.2,0,1,1,.323.243,6.3,6.3,0,0,0-1.074,2.231.822.822,0,0,0,.04.632,3.182,3.182,0,0,0,.815.886.2.2,0,0,1,.072.14,7.135,7.135,0,0,0,.448,1.972,7.208,7.208,0,0,0,1.14,1.994,6.5,6.5,0,0,0,1.927,1.612,7.325,7.325,0,0,0,2.828.843.2.2,0,0,1-.019.4Z" transform="translate(-164.3 -38.132)" fill="#c9c9c9"/>
      </g>
    </g>
    <g id="Layer_2-4" data-name="Layer 2" transform="translate(207.5 408.917)">
      <g id="Layer_1-4" data-name="Layer 1" transform="translate(-1 5)">
        <path id="路径_13393" data-name="路径 13393" d="M85.434,647l1.163,5.917-6.644,3.1-2.793-6.127Z" transform="translate(-23.496 -516.343)" fill-rule="evenodd"/>
        <path id="路径_13394" data-name="路径 13394" d="M3.433,679.54,0,671.611s3.881-1.779,7.022-3.07a56.633,56.633,0,0,0,14.823-.2c.672,1.668,1.046,2.8,1.046,2.8Z" transform="translate(55.793 -533.374)" fill-rule="evenodd"/>
        <path id="路径_13395" data-name="路径 13395" d="M330.879,631.292l-2.859,2.645-6.179-4.544,2.181-2.884Z" transform="translate(-317.189 -499.991)" fill-rule="evenodd"/>
        <path id="路径_13396" data-name="路径 13396" d="M285.056,637.19,279.86,644l11.149,8.75h11.018L302,649.862s-7.811-1.414-7.787-1.391c-1.616-1.924-2.928-6.567-2.928-6.567Z" transform="translate(-279.86 -508.514)" fill-rule="evenodd"/>
        <path id="路径_13397" data-name="路径 13397" d="M93.8,338.14S90.18,364.893,88.9,367.775,75.18,396.558,75.18,396.558L84.164,403s20-30.156,20.909-31.772a69.836,69.836,0,0,0,2.147-7.191l15.4,41.945,10.208-4.665-10.717-62.1Z" transform="translate(-69.332 -269.855)" fill="#aadaf1" fill-rule="evenodd"/>
        <path id="路径_13398" data-name="路径 13398" d="M175,340.2l8.021.3-.059,1.935Zm7.819,7.328-.919,29.952-4.332-11.763Z" transform="translate(-139.678 -271.499)" fill="#73a9c3" fill-rule="evenodd"/>
        <path id="路径_13399" data-name="路径 13399" d="M171.582,383.183a.172.172,0,0,1-.165-.219l6.016-20.97a.172.172,0,0,1,.33.095l-6.016,20.97A.172.172,0,0,1,171.582,383.183Z" transform="translate(-133.701 -288.793)" fill="#0097f7"/>
        <path id="路径_13400" data-name="路径 13400" d="M255.068,500.254a.172.172,0,0,1-.151-.253l8.312-15.378a7.418,7.418,0,0,1-.993-1.242,2.151,2.151,0,0,1-.255-.564.56.56,0,0,1,.062-.492c.157-.207.474-.239.968-.1a10.041,10.041,0,0,1,1.943.891,9.958,9.958,0,0,0,1.58.75c.452.15.548.075.549.074s.064-.119-.236-.6a12.5,12.5,0,0,0-1.3-1.62c-1.865-2.052-2.473-3.07-2.169-3.631a.7.7,0,0,1,.39-.312,1.96,1.96,0,0,1,.6-.1,10.052,10.052,0,0,1,1.846.174.172.172,0,1,1-.055.339c-.616-.1-2.253-.364-2.484.063-.066.121-.064.393.316,1a17.561,17.561,0,0,0,1.806,2.236,12.806,12.806,0,0,1,1.332,1.669,2.212,2.212,0,0,1,.264.549.482.482,0,0,1-.051.446c-.195.245-.621.139-.925.038a10.272,10.272,0,0,1-1.639-.776,9.733,9.733,0,0,0-1.87-.861c-.494-.142-.591-.038-.6-.025-.04.052-.039.252.213.671a7.3,7.3,0,0,0,1.032,1.269.172.172,0,0,1,.029.2l-8.373,15.489A.172.172,0,0,1,255.068,500.254Z" transform="translate(-240.223 -381.213)" fill="#0097f7"/>
        <path id="路径_13401" data-name="路径 13401" d="M246.462,388.529l-.024,0a.172.172,0,0,1-.146-.194c.007-.047.683-4.788,1.447-9.752,1.026-6.672,1.712-10.55,2.038-11.525a.172.172,0,1,1,.326.109c-.766,2.287-3.443,21.027-3.47,21.216A.172.172,0,0,1,246.462,388.529Z" transform="translate(-221.164 -292.839)" fill="#0097f7"/>
        <path id="路径_13402" data-name="路径 13402" d="M133.225,438.889a.172.172,0,0,1-.167-.133c-.069-.3-.2-1.1-.39-2.216-.311-1.863-.738-4.414-1.19-6.581-.247-1.183-.475-2.117-.677-2.776a6.328,6.328,0,0,0-.317-.857c-.132-.273-.208-.3-.209-.3a12.336,12.336,0,0,1-3.051-1.208c-.748-.459-1.128-.943-1.129-1.439a1.5,1.5,0,0,1,.8-1.18,8.268,8.268,0,0,1,2.307-.966,23.855,23.855,0,0,0,2.521-.822c.681-.288.735-.453.735-.5s-.045-.193-.643-.462a19.949,19.949,0,0,0-2.2-.762,11.8,11.8,0,0,1-2.109-.8c-.507-.276-.776-.557-.848-.884-.078-.356.08-.737.515-1.236a19.848,19.848,0,0,1,1.629-1.55l.092-.082c.011-.01.066-.072.07-.327a4.377,4.377,0,0,0-.09-.813,22.951,22.951,0,0,0-.665-2.5c-.6-1.92-1.433-4.16-2.041-5.795-.406-1.094-.7-1.885-.76-2.137a.172.172,0,0,1,.334-.079c.055.231.36,1.055.747,2.1.609,1.639,1.442,3.883,2.046,5.812a23.28,23.28,0,0,1,.675,2.538c.152.818.125,1.268-.088,1.459l-.092.083a19.694,19.694,0,0,0-1.6,1.52c-.351.4-.49.7-.438.937.048.22.27.434.677.656a11.5,11.5,0,0,0,2.045.778,20.217,20.217,0,0,1,2.236.777,2.7,2.7,0,0,1,.6.343.57.57,0,0,1,.248.435c0,.288-.285.531-.945.81a24.117,24.117,0,0,1-2.56.836c-2.492.711-2.862,1.442-2.86,1.815s.335.761.966,1.148a12.018,12.018,0,0,0,2.964,1.17c.179.05.407.249.75,1.353.206.665.438,1.609.689,2.807.457,2.181.887,4.753,1.2,6.631.178,1.066.319,1.908.386,2.194a.172.172,0,0,1-.167.211Z" transform="translate(-80.039 -321.098)" fill="#0097f7"/>
        <path id="路径_13403" data-name="路径 13403" d="M275.108,214.93c.026-1.557-.309-4.332.386-6s5.281-.949,5.281-.949S275.084,216.479,275.108,214.93Z" transform="translate(-257.636 -165.858)" fill="#f77f89" fill-rule="evenodd"/>
        <path id="路径_13404" data-name="路径 13404" d="M133.407,110.15c-10.424,0-18.93,5.281-19.013,13.284a40.041,40.041,0,0,1-.975,8.635l9.243,2.3s-3.211,22.046-2.084,22.973c3.352,2.763,26.87,3.687,29.788.681.256-3.72-2.005-13.631-2.005-13.631s7.177-16.919,3.288-24.9c-3.685-7.563-13.375-8.922-17.67-9.069C133.742,110.415,133.609,110.15,133.407,110.15Z" transform="translate(-97.025 -87.906)" fill="#0097f7" fill-rule="evenodd"/>
        <path id="路径_13405" data-name="路径 13405" d="M140.045,8.482C139.985,4.909,143.634,0,148.888,0c4.118,0,8.324,1.959,8.431,5.145a8.777,8.777,0,0,0,.269-2.857c.889-.044,2.676,2.248,2.676,5.309,0,1.183-.923,5.654-3.548,5.6s-12.644,3.532-12.644,3.532a2.012,2.012,0,0,1-1.547.891,3.993,3.993,0,0,1-2.585-2.658c-.014-.919.818-2.571.808-3.082S140.108,12.048,140.045,8.482Z" transform="translate(-109.841)" fill="#6a3416" fill-rule="evenodd"/>
        <path id="路径_13406" data-name="路径 13406" d="M169.161,167.36a.344.344,0,0,1-.332-.253l-1.852-6.737a.344.344,0,0,1,.664-.183l1.852,6.737a.345.345,0,0,1-.332.436Z" transform="translate(-124.54 -127.637)"/>
        <path id="路径_13407" data-name="路径 13407" d="M167.55,33.817a7.815,7.815,0,1,0-7.814,7.813,7.815,7.815,0,0,0,7.814-7.813Z" transform="translate(-119.547 -20.749)" fill="#f77f89" fill-rule="evenodd"/>
        <path id="路径_13408" data-name="路径 13408" d="M165.65,21.27s-1.05-.2-2.595-2.488a18.092,18.092,0,0,1-7.8-.469c-.034,1.63-1.23,4.3-2.876,4s-2.32-4.261-2.32-4.261L153.939,14l5.866.038,4.13,2.91Z" transform="translate(-117.271 -11.173)" fill="#6a3416" fill-rule="evenodd"/>
        <path id="路径_13409" data-name="路径 13409" d="M162.687,55.386c.073-.624-.123-1.157-.436-1.193s-.628.438-.7,1.06.123,1.157.438,1.193S162.608,56.008,162.687,55.386Z" transform="translate(-116.64 -43.247)" fill="#90415b" fill-rule="evenodd"/>
        <path id="路径_13410" data-name="路径 13410" d="M186.649,72.124c.2,1.242.606,7.149-.034,8.4,1.428,1.438,5.614,2.058,7.807,1.434a7.514,7.514,0,0,1,.913-4.051C195.712,77.231,186.453,70.88,186.649,72.124Z" transform="translate(-154.348 -57.43)" fill="#f77f89" fill-rule="evenodd"/>
        <path id="路径_13411" data-name="路径 13411" d="M188.524,50.635c.073-.622-.123-1.155-.436-1.193s-.628.438-.7,1.062.121,1.157.436,1.193S188.452,51.259,188.524,50.635Z" transform="translate(-147.696 -39.455)" fill="#90415b" fill-rule="evenodd"/>
        <path id="路径_13412" data-name="路径 13412" d="M170.7,65.167a.172.172,0,0,1-.039-.339.76.76,0,0,0,.409-.241.16.16,0,0,0,.013-.134,22.506,22.506,0,0,1-.658-4.006.172.172,0,1,1,.342.029,22.79,22.79,0,0,0,.646,3.881.5.5,0,0,1-.046.4,1.074,1.074,0,0,1-.626.4A.172.172,0,0,1,170.7,65.167Z" transform="translate(-127.161 -48.115)" fill="#90415b"/>
        <path id="路径_13413" data-name="路径 13413" d="M168.008,67.16c-.04.782-1.886,4.812-2.975,5.432s-9.289.539-11.173-3.52c1.547-.24,2.595-1.553,3.819-4.362a33.825,33.825,0,0,0,6.333.026C164.559,64.769,165.876,66.586,168.008,67.16Z" transform="translate(-120.396 -51.642)" fill="#fff" fill-rule="evenodd"/>
        <path id="路径_13414" data-name="路径 13414" d="M249.914,150.271c-4.289-.083-12.8-.606-13.649,3.029s-1.666,9.869-1.2,10.723,9.2,1.937,9.2,1.937C244.961,164.211,248.773,154.351,249.914,150.271Z" transform="translate(-218.674 -119.867)" fill="#0097f7" fill-rule="evenodd"/>
        <path id="路径_13415" data-name="路径 13415" d="M162.128,194.193c2.363.384,16.307-9.332,18.035-9.142s6.165.02,6.165.02,2.524-9.675-2.862-10.032a12.715,12.715,0,0,0-2.306,1.733,1.089,1.089,0,0,0-.929.139c-.7.569-2.962,3.144-4.1,3.552-1.906.689-17.377,3.615-18.118,4.847S156.46,193.275,162.128,194.193Z" transform="translate(-140.042 -139.691)" fill="#f77f89" fill-rule="evenodd"/>
        <path id="路径_13416" data-name="路径 13416" d="M111.023,196H100.209a3.753,3.753,0,0,0-3.168,2.068L89.43,215.356a1.363,1.363,0,0,0,1.349,2.066H101.59a3.758,3.758,0,0,0,3.171-2.066l7.609-17.29A1.362,1.362,0,0,0,111.023,196Z" transform="translate(-51.888 -156.419)" fill="#f7d167" fill-rule="evenodd"/>
        <path id="路径_13417" data-name="路径 13417" d="M101.8,229.2c.515-1.329.882-3.164.16-4.34S98.458,220.063,97.3,220s-4.114,3.142-4.431,4.182a7.643,7.643,0,0,0,.295,4.273c.5.973,2.49,2.864,3.494,2.9S101.5,230.008,101.8,229.2Z" transform="translate(-42.405 -175.569)" fill="#f77f89" fill-rule="evenodd"/>
        <path id="路径_13418" data-name="路径 13418" d="M86.574,219.993a20.894,20.894,0,0,1,1.708-6.042c.424-1.048.111-1.947-.606-2.151s-2.94,2.728-3,5S86.433,222.132,86.574,219.993Z" transform="translate(-26.89 -169.021)" fill="#f77f89" fill-rule="evenodd"/>
        <path id="路径_13419" data-name="路径 13419" d="M94.775,234.2a.172.172,0,0,1-.156-.1,11.952,11.952,0,0,0-2-3.068.172.172,0,0,1,.255-.23,12.3,12.3,0,0,1,2.062,3.156.172.172,0,0,1-.156.242Z" transform="translate(-34.958 -184.144)" fill="#81666f"/>
        <path id="路径_13420" data-name="路径 13420" d="M110.173,228.741a.172.172,0,0,1-.172-.172,6.725,6.725,0,0,0-1.256-2.646,7.59,7.59,0,0,0-1.876-2.126.172.172,0,0,1,.145-.311,3.426,3.426,0,0,1,.932.824,14.419,14.419,0,0,1,1.083,1.422,13.151,13.151,0,0,1,.916,1.564,3.256,3.256,0,0,1,.4,1.273A.172.172,0,0,1,110.173,228.741Z" transform="translate(-53.223 -178.342)" fill="#905f6f"/>
        <path id="路径_13421" data-name="路径 13421" d="M121.275,238.286a.172.172,0,0,1-.171-.164,2.656,2.656,0,0,0-.3-.739,14.66,14.66,0,0,0-.742-1.264,7.272,7.272,0,0,0-1.777-2.069.172.172,0,0,1,.172-.3,8.154,8.154,0,0,1,1.893,2.179,7.579,7.579,0,0,1,1.1,2.175.172.172,0,0,1-.163.18Z" transform="translate(-66.634 -186.53)" fill="#8b5d6c"/>
        <path id="路径_13422" data-name="路径 13422" d="M138.6,172.232a.172.172,0,0,1-.168-.209,16.73,16.73,0,0,0,.1-5.812.172.172,0,1,1,.338-.058,17.109,17.109,0,0,1-.1,5.945A.172.172,0,0,1,138.6,172.232Z" transform="translate(-88.356 -132.485)" fill="#aadaf1"/>
        <path id="路径_13423" data-name="路径 13423" d="M207.012,190.831a.172.172,0,0,1,0-.343l6.816-.137a.172.172,0,0,1,.007.343l-6.816.137Z" transform="translate(-177.086 -151.91)" fill="#aadaf1"/>
        <path id="路径_13424" data-name="路径 13424" d="M196.17,112.071c.1,1,1.282,7.448-2.7,7.448-2.563,0-6.541-5.961-5.911-7.738" transform="translate(-155.589 -89.207)" fill="#f77f89" fill-rule="evenodd"/>
        <path id="路径_13424_-_轮廓" data-name="路径 13424 - 轮廓" d="M192.794,119.012a2.6,2.6,0,0,1-1.115-.289,5.733,5.733,0,0,1-1.139-.752,12.252,12.252,0,0,1-2.126-2.357A12.573,12.573,0,0,1,187,113.065a3.293,3.293,0,0,1-.277-2.021.172.172,0,0,1,.324.115,2.894,2.894,0,0,0,.273,1.781,12.223,12.223,0,0,0,1.376,2.475,12.079,12.079,0,0,0,2.064,2.291,3.5,3.5,0,0,0,2.036.962,2.65,2.65,0,0,0,1.073-.207,2.154,2.154,0,0,0,.753-.556,5.039,5.039,0,0,0,.935-3.161,18.435,18.435,0,0,0-.19-2.99c-.019-.146-.034-.262-.042-.345a.172.172,0,0,1,.342-.034c.008.078.022.191.041.334a18.741,18.741,0,0,1,.192,3.046,5.354,5.354,0,0,1-1.02,3.376A2.645,2.645,0,0,1,192.794,119.012Z" transform="translate(-154.914 -88.528)" fill="#aadaf1"/>
        <path id="路径_13425" data-name="路径 13425" d="M216.843,48.579a2.977,2.977,0,1,0-2.976,2.975,2.977,2.977,0,0,0,2.976-2.975Z" transform="translate(-180.748 -36.391)" fill="#f77f89" fill-rule="evenodd"/>
        <path id="路径_13426" data-name="路径 13426" d="M208.353,49.067a.172.172,0,0,1-.151-.089h0a14.565,14.565,0,0,0-1.177-1.756,5.342,5.342,0,0,0-2.584-2.063.172.172,0,1,1,.079-.334,3.752,3.752,0,0,1,1.517.845,9.3,9.3,0,0,1,1.261,1.345,14.624,14.624,0,0,1,1.2,1.8.172.172,0,0,1-.15.254Z" transform="translate(-171.1 -35.769)" fill="#fff"/>
        <path id="路径_13427" data-name="路径 13427" d="M224.64,76a.172.172,0,0,1-.149-.085l-1.458-2.51a.172.172,0,0,1,.3-.172l1.458,2.51a.172.172,0,0,1-.148.258Z" transform="translate(-191.164 -58.378)" fill="#fff"/>
        <path id="路径_13428" data-name="路径 13428" d="M237.441,171.01a.172.172,0,0,1-.16-.233c.951-2.493,2.711-7.175,3.81-10.52a.172.172,0,0,1,.326.107c-1.1,3.352-2.863,8.039-3.815,10.535A.172.172,0,0,1,237.441,171.01Z" transform="translate(-210.658 -127.801)" fill="#aadaf1"/>
        <path id="路径_13429" data-name="路径 13429" d="M154.228,84.8c-.2,0-.407,0-.6-.011a.344.344,0,1,1,.026-.688,12.762,12.762,0,0,0,1.72-.04,2.664,2.664,0,0,0,.868-.186l0,0a4.905,4.905,0,0,0,1.368-1.812,19.606,19.606,0,0,0,1.225-2.614.344.344,0,1,1,.647.237,20.048,20.048,0,0,1-1.272,2.715,5.711,5.711,0,0,1-1.626,2.071A5.922,5.922,0,0,1,154.228,84.8Z" transform="translate(-111.779 -63.226)" fill="#c9c9c9"/>
        <path id="路径_13430" data-name="路径 13430" d="M1.972,682.712a.172.172,0,0,1-.068-.329l19.562-8.409a.172.172,0,0,1,.136.315L2.039,682.7A.172.172,0,0,1,1.972,682.712Z" transform="translate(56.614 -537.859)" fill="#7c7c7c"/>
        <path id="路径_13431" data-name="路径 13431" d="M300.4,672.8h-.006l-10.451-.361a.171.171,0,0,1-.1-.037l-10.717-8.441a.172.172,0,1,1,.212-.27l10.673,8.406,10.394.36a.172.172,0,0,1-.006.343Z" transform="translate(-278.242 -529.631)" fill="#7c7c7c"/>
      </g>
    </g>
  </g>
</svg>
