<svg id="Group_6656" data-name="Group 6656" xmlns="http://www.w3.org/2000/svg" xmlns:xlink="http://www.w3.org/1999/xlink" width="37.618" height="40.167" viewBox="0 0 37.618 40.167">
  <defs>
    <linearGradient id="linear-gradient" x1="2.338" y1="0.379" x2="2.055" y2="1.048" gradientUnits="objectBoundingBox">
      <stop offset="0" stop-color="#29abe2"/>
      <stop offset="1" stop-color="#1071bc"/>
    </linearGradient>
    <linearGradient id="linear-gradient-2" x1="0.5" y1="1" x2="0.5" gradientUnits="objectBoundingBox">
      <stop offset="0" stop-color="#97b6cc"/>
      <stop offset="1" stop-color="#ebf5fc"/>
    </linearGradient>
  </defs>
  <g id="phone-book_3_" data-name="phone-book (3)">
    <g id="Group_6610" data-name="Group 6610" transform="translate(2.351)">
      <g id="Group_6609" data-name="Group 6609" transform="translate(0)">
        <path id="Path_5056" data-name="Path 5056" d="M76.565,4.785V3.53A3.524,3.524,0,0,0,73.038,0H49.527A3.524,3.524,0,0,0,46,3.53V36.636a3.524,3.524,0,0,0,3.527,3.53H73.038a3.524,3.524,0,0,0,3.527-3.53V16.553l2.351-5.476Z" transform="translate(-46)" fill="url(#linear-gradient)"/>
      </g>
    </g>
    <g id="Group_6612" data-name="Group 6612" transform="translate(0 4.785)">
      <g id="Group_6611" data-name="Group 6611" transform="translate(0)">
        <path id="Path_5057" data-name="Path 5057" d="M21.878,61h-4.7a1.177,1.177,0,0,0,0,2.354h4.7a1.177,1.177,0,0,0,0-2.354Zm0,9.414h-4.7a1.177,1.177,0,0,0,0,2.354h4.7a1.177,1.177,0,0,0,0-2.354Zm0,9.414h-4.7a1.177,1.177,0,0,0,0,2.354h4.7a1.177,1.177,0,0,0,0-2.354Zm0,9.414h-4.7a1.177,1.177,0,0,0,0,2.354h4.7a1.177,1.177,0,0,0,0-2.354ZM52.442,61H48.916V72.768h3.527a1.165,1.165,0,0,0,1.176-1.177V62.177A1.165,1.165,0,0,0,52.442,61Z" transform="translate(-16 -61)" fill="url(#linear-gradient-2)"/>
      </g>
    </g>
  </g>
</svg>
