<svg xmlns="http://www.w3.org/2000/svg" width="45" height="45" viewBox="0 0 45 45">
  <g id="组_3386" data-name="组 3386" transform="translate(0.453)">
    <circle id="椭圆_364" data-name="椭圆 364" cx="22.5" cy="22.5" r="22.5" transform="translate(-0.453)" fill="#fd3a3a"/>
    <path id="路径_558" data-name="路径 558" d="M125.584,277.935s0-4.088-2.377-6.429c-2.962-2.921-7.137-3.566-10.8-3.707-3.664.141-7.838.786-10.8,3.707-2.377,2.34-2.377,6.429-2.377,6.429a6.365,6.365,0,0,0,.978,2.487,1.079,1.079,0,0,0,.613.633c.36.088.791-.164,1.128-.276l1.278-.44c.852-.287,1.7-.569,2.564-.809a1.01,1.01,0,0,0,.782-.727,12.292,12.292,0,0,0-.066-3.214,2.257,2.257,0,0,1,.295-1.7,4.226,4.226,0,0,1,1.994-.85,14.741,14.741,0,0,1,4.806-.346,12.165,12.165,0,0,1,2.789.452,3.478,3.478,0,0,1,1.666.809,2.434,2.434,0,0,1,.234,1.631,12.3,12.3,0,0,0-.066,3.214,1.036,1.036,0,0,0,.781.727c.861.24,1.713.522,2.564.809l1.278.44a2.242,2.242,0,0,0,1.128.276,1.08,1.08,0,0,0,.613-.633A6.1,6.1,0,0,0,125.584,277.935Z" transform="translate(-90.679 -251.8)" fill="#fff"/>
  </g>
</svg>
