<svg xmlns="http://www.w3.org/2000/svg" width="30" height="19.872" viewBox="0 0 30 19.872">
  <g id="组_10731" data-name="组 10731" transform="translate(-173 -749)">
    <g id="组_9289" data-name="组 9289" transform="translate(173 749)">
      <path id="路径_1181" data-name="路径 1181" d="M33.13,10.356l-7.76,7.563a.129.129,0,0,0,0,.193l5.43,5.534a.868.868,0,0,1,0,1.27.97.97,0,0,1-1.327,0L24.065,19.4a.153.153,0,0,0-.209,0l-1.32,1.283a5.938,5.938,0,0,1-4.139,1.67,6.056,6.056,0,0,1-4.226-1.718L12.9,19.4a.153.153,0,0,0-.209,0L7.284,24.916a.97.97,0,0,1-1.327,0,.868.868,0,0,1,0-1.27l5.43-5.534a.142.142,0,0,0,0-.193L3.62,10.356a.143.143,0,0,0-.245.1V25.585a2.266,2.266,0,0,0,2.308,2.208H31.067a2.266,2.266,0,0,0,2.308-2.208V10.453A.145.145,0,0,0,33.13,10.356Z" transform="translate(-3.375 -7.921)" fill="#fff"/>
      <path id="路径_1182" data-name="路径 1182" d="M18.353,20.509a4.01,4.01,0,0,0,2.82-1.132L32.488,8.358a2.331,2.331,0,0,0-1.428-.483H5.654a2.315,2.315,0,0,0-1.428.483l11.315,11.02A4.01,4.01,0,0,0,18.353,20.509Z" transform="translate(-3.353 -7.875)" fill="#fff"/>
    </g>
  </g>
</svg>
