<svg xmlns="http://www.w3.org/2000/svg" width="20" height="20" viewBox="0 0 20 20">
  <g id="组_10169" data-name="组 10169" transform="translate(-569 -223)">
    <circle id="椭圆_673" data-name="椭圆 673" cx="10" cy="10" r="10" transform="translate(569 223)" fill="#30b354"/>
    <g id="组_10168" data-name="组 10168" transform="translate(573.782 229.1)">
      <g id="组_8644" data-name="组 8644" transform="translate(-0.1 -0.1)">
        <g id="组_8648" data-name="组 8648" transform="translate(0)">
          <path id="路径_8439" data-name="路径 8439" d="M35.8,178.517a1.523,1.523,0,0,1,1.523,1.475v1.538l2.261-1.793a.369.369,0,0,1,.609.284v4.562a.369.369,0,0,1-.6.3l-2.261-1.793v1.5a1.523,1.523,0,0,1-1.5,1.512H31.219a1.52,1.52,0,0,1-1.523-1.475v-4.6a1.52,1.52,0,0,1,1.5-1.512Zm.1.568H31.1a.808.808,0,0,0-.826.786v4.795a.8.8,0,0,0,.8.775H35.9a.8.8,0,0,0,.808-.786V179.86a.8.8,0,0,0-.793-.8Zm3.78,1.365-2.342,1.844,2.342,1.844Zm0,0" transform="translate(-29.63 -178.452)" fill="#fff"/>
          <path id="路径_8439_-_轮廓" data-name="路径 8439 - 轮廓" d="M31.18,186.1a1.574,1.574,0,0,1-1.584-1.532v-4.58a1.59,1.59,0,0,1,1.562-1.57h4.6a1.579,1.579,0,0,1,1.589,1.532v1.4l2.155-1.7a.435.435,0,0,1,.715.335v4.54a.432.432,0,0,1-.241.4.436.436,0,0,1-.467-.052l-2.154-1.7v1.359a1.585,1.585,0,0,1-1.566,1.57Zm-.021-7.551a1.458,1.458,0,0,0-1.432,1.44v4.577a1.443,1.443,0,0,0,1.453,1.4h4.611a1.462,1.462,0,0,0,1.436-1.44V182.9l2.367,1.868a.3.3,0,0,0,.327.037.3.3,0,0,0,.168-.281V179.98a.3.3,0,0,0-.175-.277.309.309,0,0,0-.325.044l-2.369,1.87v-1.666a1.448,1.448,0,0,0-1.457-1.4Zm4.71,6.89H31.041a.866.866,0,0,1-.862-.834V179.83a.867.867,0,0,1,.893-.847h4.755l.015-.026h.039a.872.872,0,0,1,.858.862v4.773A.873.873,0,0,1,35.869,185.438Zm-4.818-6.325a.736.736,0,0,0-.741.719v4.77a.735.735,0,0,0,.732.706h4.828a.741.741,0,0,0,.738-.718v-4.771a.74.74,0,0,0-.69-.73l-.014.024H31.051Zm8.66,5.1-2.514-1.97,2.514-1.97Zm-2.3-1.97,2.17,1.7v-3.4Z" transform="translate(-29.596 -178.417)" fill="#fff"/>
          <path id="路径_8440" data-name="路径 8440" d="M167.987,317.491m-.393,0a.392.392,0,1,0,.393-.393.393.393,0,0,0-.393.393Z" transform="translate(-166.174 -315.55)" fill="#fff"/>
        </g>
      </g>
      <rect id="矩形_19722" data-name="矩形 19722" width="7.51" height="6.827" rx="2" transform="translate(0.073 0.193)" fill="#fff"/>
      <path id="路径_9659" data-name="路径 9659" d="M-8038.548-11040.85l2.625-2.167v4.7Z" transform="translate(8046.132 11044.438)" fill="#fff"/>
      <path id="路径_9659_-_轮廓" data-name="路径 9659 - 轮廓" d="M-8036.1-11043.518a.31.31,0,0,1,.14.032.325.325,0,0,1,.188.295v4.7a.328.328,0,0,1-.2.3.323.323,0,0,1-.356-.066l-2.625-2.531a.323.323,0,0,1-.1-.248.328.328,0,0,1,.119-.241l2.624-2.166A.326.326,0,0,1-8036.1-11043.518Zm-.327,4.255v-3.229l-1.8,1.489Z" transform="translate(8046.304 11044.609)" fill="#fff"/>
    </g>
  </g>
</svg>
