<svg xmlns="http://www.w3.org/2000/svg" width="86" height="30" viewBox="0 0 86 30">
  <g id="组_10310" data-name="组 10310" transform="translate(-267 -688)">
    <text id="Mail" transform="translate(304.499 708)" fill="#30b354" font-size="14" font-family="ProximaNova-Regular, Proxima Nova"><tspan x="0" y="0">Mail</tspan></text>
    <g id="路径_5695" data-name="路径 5695" transform="translate(267 688)" fill="none">
      <path d="M16.753,0H69.247C78.5,0,86,6.716,86,15S78.5,30,69.247,30H16.753C7.5,30,0,23.284,0,15S7.5,0,16.753,0Z" stroke="none"/>
      <path d="M 16.75325012207031 1 C 12.52480316162109 1 8.554573059082031 2.469717025756836 5.573966979980469 5.138412475585938 C 2.624397277832031 7.779306411743164 1 11.28154182434082 1 15 C 1 18.71846008300781 2.624397277832031 22.22069358825684 5.573966979980469 24.86158752441406 C 8.554573059082031 27.53028297424316 12.52480316162109 29 16.75325012207031 29 L 69.24674987792969 29 C 73.47519683837891 29 77.44541931152344 27.53028297424316 80.42603302001953 24.86158752441406 C 83.37560272216797 22.22069358825684 85 18.71846008300781 85 15 C 85 11.28154182434082 83.37560272216797 7.779306411743164 80.42603302001953 5.138412475585938 C 77.44541931152344 2.469717025756836 73.47519683837891 1 69.24674987792969 1 L 16.75325012207031 1 M 16.75325012207031 0 L 69.24674987792969 0 C 78.49932098388672 0 86 6.715728759765625 86 15 C 86 23.28427124023438 78.49932098388672 30 69.24674987792969 30 L 16.75325012207031 30 C 7.500679016113281 30 0 23.28427124023438 0 15 C 0 6.715728759765625 7.500679016113281 0 16.75325012207031 0 Z" stroke="none" fill="#30b354"/>
    </g>
    <path id="路径_5738" data-name="路径 5738" d="M13.1,94.532a.666.666,0,0,0-.588-.583c-.007,0-.013-.007-.019-.007s-.012-.006-.019-.006l-.012-.007H2.05a1.606,1.606,0,0,0-.443.06L1.588,94a.955.955,0,0,0-.657.907v6.5a1.225,1.225,0,0,0,.234.722c.013.02.032.04.051.067l.006.007.013.013a1.276,1.276,0,0,0,.955.43h9.876a1.065,1.065,0,0,0,1.038-.848l.007-.019v-.007a1.328,1.328,0,0,0,.025-.212V94.719c-.013-.053-.019-.112-.032-.186ZM4.912,98.217l-1.19,1.12c-.683.642-1.367,1.279-2.051,1.928v-5.81l3.241,2.763Zm4.26-.013c1.076-.915,2.14-1.823,3.216-2.737v5.691l-1.349-1.239L9.172,98.2Zm-5.121,1.834,1.425-1.332c.24.206.474.4.709.6.132.112.266.225.393.337l.171.146a.37.37,0,0,0,.543,0c.431-.365.861-.736,1.3-1.107l.785.722c.9.828,1.791,1.65,2.7,2.478H2.088c.659-.622,1.311-1.232,1.963-1.849Zm2.975-.994q-1.67-1.422-3.336-2.849L1.937,94.7c.765-.025,4.12-.045,6.962-.045,1.652,0,2.8.006,3.266.019L7.026,99.045Z" transform="translate(289.069 605.07)" fill="#30b354"/>
  </g>
</svg>
