<svg xmlns="http://www.w3.org/2000/svg" width="17.149" height="17.159" viewBox="0 0 17.149 17.159">
  <g id="组_10223" data-name="组 10223" transform="translate(-63.826 -63.778)">
    <path id="路径_9637" data-name="路径 9637" d="M80.225,71.756H78.654A6.28,6.28,0,0,0,73,66.107V64.529a.6.6,0,0,0-1.2,0v1.578a6.28,6.28,0,0,0-5.649,5.649H64.577a.6.6,0,0,0,0,1.2h1.578A6.28,6.28,0,0,0,71.8,78.606v1.58a.6.6,0,0,0,1.2,0v-1.58a6.28,6.28,0,0,0,5.649-5.649h1.571a.6.6,0,1,0,0-1.2Zm-7.821,5.9a5.3,5.3,0,1,1,5.3-5.3A5.3,5.3,0,0,1,72.4,77.652Z" transform="translate(0)" fill="#2988e6" stroke="#2988e6" stroke-width="0.3"/>
    <path id="路径_9638" data-name="路径 9638" d="M443.458,443.437m-1.31,0a1.31,1.31,0,1,0,1.31-1.31A1.31,1.31,0,0,0,442.148,443.437Z" transform="translate(-371.054 -371.08)" fill="#2988e6" stroke="#2988e6" stroke-width="0.3"/>
  </g>
</svg>
