<?xml version="1.0" encoding="utf-8"?>
<!-- Generator: Adobe Illustrator 25.3.1, SVG Export Plug-In . SVG Version: 6.00 Build 0)  -->
<svg version="1.1" xmlns="http://www.w3.org/2000/svg" xmlns:xlink="http://www.w3.org/1999/xlink" x="0px" y="0px"
	 viewBox="0 0 40 40" style="enable-background:new 0 0 40 40;" xml:space="preserve">
<style type="text/css">
	.st0{fill:#FF7956;enable-background:new    ;}
	.st1{fill:#FF5023;enable-background:new    ;}
	.st2{fill:none;stroke:#000000;stroke-width:1.2;stroke-miterlimit:10;}
	.st3{fill:#FCE9B1;}
	.st4{fill:#FFD422;enable-background:new    ;}
	.st5{fill:none;stroke:#949494;stroke-width:1.2;stroke-miterlimit:10;}
	.st6{fill:#ACABB1;enable-background:new    ;}
	.st7{fill:#898890;enable-background:new    ;}
	.st8{fill:#787680;enable-background:new    ;}
	.st9{fill:#57565C;enable-background:new    ;}
	.st10{fill:#FF3051;enable-background:new    ;}
	.st11{fill:#CD2A00;enable-background:new    ;}
	.st12{fill:none;stroke:#FFFFFF;stroke-width:1.2;stroke-miterlimit:10;}
	.st13{fill:none;stroke:#000000;stroke-miterlimit:10;}
	.st14{fill:#FFCD00;enable-background:new    ;}
	.st15{fill:#FFE477;enable-background:new    ;}
	.st16{fill:#EBBF00;enable-background:new    ;}
	.st17{display:none;}
</style>
<g id="Layer_3">
	<rect x="2.2" y="6" class="st0" width="25.5" height="31.7"/>
</g>
<g id="Layer_15">
	<path class="st1" d="M25.5,6.2c0,0,0.2-0.1,0.2,1.4c0,1.5,0,29.2,0,29.2s0,0.5-0.2,0.8l2.1,0.5l0.6-27.4L28,6.2L25.5,6.2z"/>
</g>
<g id="Layer_4">
	<g>
		<path class="st2" d="M28.1,37.1c0,0.5-0.4,1-1,1H2.9c-0.5,0-1-0.5-1-1V6.6c0-0.5,0.4-1,1-1h24.2c0.6,0,1,0.5,1,1V37.1z"/>
	</g>
</g>
<g id="Layer_5">
	<rect x="4.4" y="8.1" class="st3" width="21.3" height="27.5"/>
</g>
<g id="Layer_16">
	<rect x="23.1" y="8.8" class="st4" width="1.9" height="14.1"/>
	<g>
		<path class="st5" d="M8.8,6.9"/>
	</g>
</g>
<g id="Layer_2">
	<g>
		<path class="st2" d="M25.6,35.4c0,0.1-0.1,0.2-0.2,0.2H4.6c-0.1,0-0.2-0.1-0.2-0.2V8.3c0-0.1,0.1-0.2,0.2-0.2h20.9
			c0.1,0,0.2,0.1,0.2,0.2V35.4z"/>
	</g>
</g>
<g id="Layer_18">
	<polygon class="st6" points="9.3,4.8 9,8.4 21,8.4 21,4.8 18.2,4.5 17.5,3 15.8,2 13.8,2 12.4,3.3 11.9,4.6 	"/>
</g>
<g id="Layer_19">
	<path class="st7" d="M14.4,2.4l0.8,0.8l1.2,1.1h1.4L18.6,5c0,0,0.2,0.1,0.2,0.7s0,2.7,0,2.7l2.1,0.1l0.3-2l-0.4-1.7l-2.1-0.5
		l-1.1-1l-1.3-1.2L14.7,2L14.4,2.4z"/>
</g>
<g id="Layer_20">
	<circle class="st8" cx="15" cy="4.9" r="1.1"/>
</g>
<g id="Layer_21">
	<path class="st9" d="M14.7,4.4c0,0,0.2,0,0.3,0.3s0,0.5,0,0.6c0,0.1-0.2,0.2-0.3,0.3c-0.1,0,0.1,0.4,0.1,0.4l1.3-0.8l-0.3-0.7
		l-0.7-0.3L14.7,4.4z"/>
</g>
<g id="Layer_17">
	<path class="st2" d="M11.9,4.4c0.3-1.5,1.6-2.6,3.1-2.6c1.5,0,2.8,1.1,3.1,2.6"/>
	<g>
		<path class="st2" d="M21.3,5.4v3.3c0,0.1,0,0.1-0.1,0.1H8.9c-0.1,0-0.1,0-0.1-0.1V5.4"/>
	</g>
	<g>
		<path class="st2" d="M18.1,4.4h2c0.6,0,1.1,0.5,1.1,1.1v1.4"/>
	</g>
	<g>
		<path class="st2" d="M8.8,6.9V5.5c0-0.6,0.5-1.1,1.1-1.1h2"/>
	</g>
	<circle class="st2" cx="15" cy="5" r="1.3"/>
	<circle cx="11.9" cy="4.4" r="0.6"/>
	<circle cx="18.1" cy="4.4" r="0.6"/>
</g>
<g id="Layer_7">
	<polygon class="st10" points="13.9,11.5 15,11.5 15,18.5 13.9,18.5 13.7,16.2 11.4,16.1 11.4,14 13.8,13.8 	"/>
	<polygon class="st11" points="16.1,11.5 15,11.5 15,18.5 16.2,18.5 16.3,16.2 18.7,16.1 18.7,14 16.2,13.8 	"/>
</g>
<g id="Layer_6">
	<g>
		<path class="st12" d="M13.8,13.8"/>
	</g>
	<g>
		<path class="st12" d="M16.3,13.8"/>
	</g>
	<g>
		<g>
			<path class="st2" d="M13.8,13.8v-2.3c0-0.1,0.1-0.2,0.2-0.2h2.1c0.1,0,0.2,0.1,0.2,0.2v2.3"/>
		</g>
		<g>
			<path class="st2" d="M13.7,16.2h-2.3c-0.1,0-0.2-0.1-0.2-0.2V14c0-0.1,0.1-0.2,0.2-0.2h2.3"/>
		</g>
		<g>
			<path class="st2" d="M16.2,16.2v2.3c0,0.1-0.1,0.2-0.2,0.2H14c-0.1,0-0.2-0.1-0.2-0.2v-2.3"/>
		</g>
		<g>
			<path class="st2" d="M16.3,13.8h2.3c0.1,0,0.2,0.1,0.2,0.2V16c0,0.1-0.1,0.2-0.2,0.2h-2.3"/>
		</g>
		<g>
			<circle class="st13" cx="13.8" cy="13.8" r="0.1"/>
		</g>
		<g>
			<circle class="st13" cx="16.3" cy="13.8" r="0.1"/>
		</g>
		<g>
			<path class="st13" d="M16.4,16.2c0,0.1,0,0.1-0.1,0.1h0c-0.1,0-0.1,0-0.1-0.1v0c0-0.1,0-0.1,0.1-0.1h0
				C16.3,16.1,16.4,16.2,16.4,16.2L16.4,16.2z"/>
		</g>
		<g>
			<path class="st13" d="M13.9,16.3c0,0.1,0,0.1-0.1,0.1h0c-0.1,0-0.1,0-0.1-0.1v0c0-0.1,0-0.1,0.1-0.1h0
				C13.8,16.1,13.9,16.2,13.9,16.3L13.9,16.3z"/>
		</g>
	</g>
</g>
<g id="Layer_8">
	<rect x="6.9" y="20.6" width="2.5" height="1.2"/>
	<rect x="10.6" y="20.6" width="9.4" height="1.2"/>
	<rect x="10.6" y="24.4" width="11.3" height="1.2"/>
	<rect x="10.6" y="28.1" width="11.3" height="1.2"/>
	<rect x="10.6" y="31.9" width="11.3" height="1.2"/>
	<rect x="6.9" y="24.4" width="2.5" height="1.2"/>
	<rect x="6.9" y="28.1" width="2.5" height="1.2"/>
	<rect x="6.9" y="31.9" width="2.5" height="1.2"/>
</g>
<g id="Layer_10">
	<polyline class="st14" points="21.8,22.6 26.4,21.8 30,19.4 33.5,21.8 38.1,22.6 37.7,33.3 34.5,36.1 30,38.1 22.6,34 21.8,22.6 	
		"/>
</g>
<g id="Layer_12">
	<polyline class="st15" points="30,22.8 24.7,25 24.7,31.5 25.3,33.1 29.5,35 31,35 35.1,32.8 35.7,29.7 35.7,24.9 31.8,23.7 
		30,22.8 	"/>
</g>
<g id="Layer_14">
	<path class="st4" d="M29.2,23.6c0,0,2.1,1.1,3.8,1.2l0.1,0.1v6.4c0,0,0,1.4-1.5,2.2s-2,1-2,1l0.4,0.5l4.4-1.6l1.2-2l0.1-6.2
		l-5.8-2.4L29.2,23.6z"/>
	<g id="Layer_13">
		<g>
			<path class="st2" d="M26.9,30l1.7,1.8c0,0,0.1,0,0.1,0l5-4.9"/>
		</g>
		<path class="st16" d="M29.1,20.6c0,0,2,1.6,4.3,1.7s2.1,0.4,2.1,0.4l0.1,0.3l-0.7,10.7c0,0-0.2,0.9-1.8,1.7
			c-1.6,0.9-3.6,1.8-3.6,1.8l0.4,0.6l6.4-2.9l1.7-2.9l0-9.5l-4.1-0.8l-4-2L29.1,20.6z"/>
	</g>
</g>
<g id="Layer_9">
	<g>
		<path class="st2" d="M30,38.2l5.8-2.7c0,0,0.1-0.1,0.2-0.1c0,0,2.1-1.4,2.2-3.7c0-2.3,0-9,0-9c0-0.1,0-0.1-0.1-0.1
			c0,0-4.1,0.5-8.1-3.1"/>
	</g>
	<g>
		<path class="st2" d="M30.1,38.2l-5.8-2.7c0,0-0.1-0.1-0.2-0.1c0,0-2.1-1.4-2.2-3.7c0-2.3,0-9,0-9c0-0.1,0-0.1,0.1-0.1
			c0,0,4.1,0.5,8.1-3.1"/>
	</g>
	<circle cx="30" cy="19.2" r="0.5"/>
	<circle cx="30" cy="38.4" r="0.4"/>
</g>
<g id="Layer_11">
	<g>
		<path class="st2" d="M30,35.2l4.6-2c0.1,0,0.1-0.1,0.2-0.1c0,0,0.8-0.7,0.8-1.6s0-6.5,0-6.5c0-0.1,0-0.1-0.1-0.1
			c0,0-2,0.1-5.5-2.3"/>
	</g>
	<g>
		<path class="st2" d="M30,35.2l-4.6-2c-0.1,0-0.1-0.1-0.2-0.1c0,0-0.8-0.7-0.8-1.6s0-6.5,0-6.5c0-0.1,0-0.1,0.1-0.1
			c0,0,2,0.1,5.5-2.3"/>
	</g>
	<circle cx="30" cy="22.4" r="0.5"/>
	<circle cx="30" cy="35.4" r="0.4"/>
</g>
<g id="Layer_1" class="st17">
	
		<image style="display:inline;overflow:visible;enable-background:new    ;" width="512" height="512" id="Image_243" xlink:href="9386D85A8C0C4F0E.png"  transform="matrix(7.812500e-02 0 0 7.812500e-02 0 0)">
	</image>
</g>
</svg>
