<svg xmlns="http://www.w3.org/2000/svg" width="22" height="22" viewBox="0 0 22 22">
  <g id="Mobile_Contacts" data-name="Mobile Contacts" transform="translate(-292 -50)">
    <rect id="矩形_18173" data-name="矩形 18173" width="22" height="22" transform="translate(292 50)" fill="#2fb355"/>
    <path id="路径_5741" data-name="路径 5741" d="M125.643,61.44H117.16a1.158,1.158,0,0,0-1.106,1.106v1.66a.553.553,0,0,1,.492.83.521.521,0,0,1-.492.277V66.7a.553.553,0,0,1,.492.83.521.521,0,0,1-.492.277v1.383a.553.553,0,0,1,.492.83.521.521,0,0,1-.492.277V72.5a1.1,1.1,0,0,0,1.106,1.106h8.483a1,1,0,0,0,.768-.338,1.1,1.1,0,0,0,.338-.768V62.546a1.1,1.1,0,0,0-1.106-1.106Zm-1.783,8.975c-.43.43-2.121.031-3.75-1.629-1.629-1.629-2.059-3.289-1.629-3.75.4-.4.861-1.076,1.568-.184s.369,1.137-.031,1.537c-.277.277.307.984.922,1.6s1.322,1.2,1.6.922c.4-.4.645-.738,1.537-.031C124.905,69.554,124.26,70.015,123.86,70.415Z" transform="translate(181.947 -6.438)" fill="#fff"/>
  </g>
</svg>
