<?xml version="1.0" encoding="utf-8"?>
<!-- Generator: Adobe Illustrator 25.3.1, SVG Export Plug-In . SVG Version: 6.00 Build 0)  -->
<svg version="1.1" id="Group_6656" xmlns="http://www.w3.org/2000/svg" xmlns:xlink="http://www.w3.org/1999/xlink" x="0px" y="0px"
	 viewBox="0 0 37.6 40.2" style="enable-background:new 0 0 37.6 40.2;" xml:space="preserve">
<style type="text/css">
	.st0{fill:url(#Path_5056_1_);}
	.st1{fill:url(#Path_5057_1_);}
	.st2{clip-path:url(#SVGID_2_);}
	.st3{fill:#EBF5FC;}
</style>
<g id="phone-book_3_">
	<g id="Group_6610" transform="translate(2.351)">
		<g id="Group_6609" transform="translate(0)">
			
				<linearGradient id="Path_5056_1_" gradientUnits="userSpaceOnUse" x1="-528.0624" y1="1209.4736" x2="-528.3453" y2="1208.8046" gradientTransform="matrix(32.916 0 0 -40.166 17407.7773 48568.6758)">
				<stop  offset="0" style="stop-color:#29ABE2"/>
				<stop  offset="1" style="stop-color:#1071BC"/>
			</linearGradient>
			<path id="Path_5056" class="st0" d="M30.6,4.8V3.5C30.6,1.6,29,0,27,0c0,0,0,0,0,0H3.5C1.6,0,0,1.6,0,3.5c0,0,0,0,0,0v33.1
				c0,1.9,1.6,3.5,3.5,3.5c0,0,0,0,0,0H27c1.9,0,3.5-1.6,3.5-3.5c0,0,0,0,0,0V16.6l2.4-5.5L30.6,4.8z"/>
		</g>
	</g>
	<g id="Group_6612" transform="translate(0 4.785)">
		<g id="Group_6611" transform="translate(0)">
			
				<linearGradient id="Path_5057_1_" gradientUnits="userSpaceOnUse" x1="-528.0654" y1="1194.0923" x2="-528.0654" y2="1195.0923" gradientTransform="matrix(37.6181 0 0 -30.5961 19883.6074 36565.1328)">
				<stop  offset="0" style="stop-color:#97B6CC"/>
				<stop  offset="1" style="stop-color:#EBF5FC"/>
			</linearGradient>
			<path id="Path_5057" class="st1" d="M5.9,0H1.2C0.5,0,0,0.5,0,1.2c0,0.6,0.5,1.2,1.2,1.2h4.7c0.7,0,1.2-0.5,1.2-1.2
				C7.1,0.5,6.5,0,5.9,0z M5.9,9.4H1.2C0.5,9.4,0,9.9,0,10.6s0.5,1.2,1.2,1.2h4.7c0.7,0,1.2-0.5,1.2-1.2S6.5,9.4,5.9,9.4z M5.9,18.8
				H1.2C0.5,18.8,0,19.4,0,20s0.5,1.2,1.2,1.2h4.7c0.7,0,1.2-0.5,1.2-1.2S6.5,18.8,5.9,18.8z M5.9,28.2H1.2c-0.7,0-1.2,0.5-1.2,1.2
				s0.5,1.2,1.2,1.2h4.7c0.7,0,1.2-0.5,1.2-1.2S6.5,28.2,5.9,28.2z M36.4,0h-3.5v11.8h3.5c0.6,0,1.2-0.5,1.2-1.2c0,0,0,0,0,0V1.2
				C37.6,0.5,37.1,0,36.4,0C36.5,0,36.5,0,36.4,0z"/>
		</g>
	</g>
</g>
<g id="Group_6659" transform="translate(0 0)">
	<g>
		<defs>
			<rect id="SVGID_1_" x="4.3" y="11" width="23.4" height="18.2"/>
		</defs>
		<clipPath id="SVGID_2_">
			<use xlink:href="#SVGID_1_"  style="overflow:visible;"/>
		</clipPath>
		<g id="Group_6658" transform="translate(0 0)" class="st2">
			<path id="Path_5070" class="st3" d="M19.2,14.2c0,1.8-0.6,4.5-3.2,4.5s-3.2-2.8-3.2-4.5c0-1.8,1.5-3.2,3.2-3.2
				C17.8,11,19.2,12.4,19.2,14.2L19.2,14.2z M21.2,20.1c-0.4-0.9-2.1-0.8-3.3-1.1c0,0.1,0,0.3,0,0.4c0.1,1.4-0.3,2.8-1,4l-0.3-4
				h-1.3l-0.3,4c-0.7-1.2-1.1-2.6-1-4c0-0.1,0-0.3,0-0.4c-1.2,0.3-2.8,0.2-3.3,1.1c-0.6,1.3-1.3,6.5-0.6,7.8
				c0.3,0.9,1.3,1.5,2.2,1.3h7.3c1,0.2,1.9-0.4,2.2-1.3C22.5,26.6,21.8,21.4,21.2,20.1L21.2,20.1z"/>
			<path id="Path_5071" class="st3" d="M25.7,15.8c0,1.2-0.4,3.1-2.2,3.1s-2.2-1.9-2.2-3.1c0-1.2,0.9-2.2,2.2-2.3
				C24.7,13.5,25.7,14.5,25.7,15.8C25.7,15.7,25.7,15.8,25.7,15.8L25.7,15.8z M27,19.8c-0.3-0.6-1.4-0.5-2.2-0.7c0,0.1,0,0.2,0,0.3
				c0.1,1-0.2,1.9-0.7,2.7l-0.2-2.7H23l-0.2,2.7c-0.5-0.8-0.8-1.8-0.7-2.7c0-0.1,0-0.2,0-0.3c-0.4,0.1-0.9,0.1-1.3,0.2
				c0.3,0.1,0.6,0.3,0.7,0.6c0.6,2,1,4,0.9,6.1H26c0.7,0.1,1.3-0.3,1.5-0.9C27.9,24.2,27.5,20.7,27,19.8L27,19.8z"/>
		</g>
	</g>
</g>
</svg>
