<svg xmlns="http://www.w3.org/2000/svg" xmlns:xlink="http://www.w3.org/1999/xlink" width="22" height="22" viewBox="0 0 22 22">
  <defs>
    <clipPath id="clip-path">
      <rect id="矩形_6255" data-name="矩形 6255" width="16" height="12.463" fill="none"/>
    </clipPath>
  </defs>
  <g id="invite_my_connection" data-name="invite my connection" transform="translate(-30 -525)">
    <g id="Invite-My_Connection" data-name="Invite-My Connection" transform="translate(-26 118)">
      <rect id="矩形_6282" data-name="矩形 6282" width="22" height="22" transform="translate(56 407)" fill="#2988e6"/>
    </g>
    <g id="组_6659" data-name="组 6659" transform="translate(31.43 529.354)">
      <g id="组_6658" data-name="组 6658" transform="translate(0 0)" clip-path="url(#clip-path)">
        <path id="路径_5070" data-name="路径 5070" d="M706.507,157.724c0,1.227-.444,3.11-2.221,3.11s-2.221-1.883-2.221-3.11a2.221,2.221,0,0,1,4.443,0Zm1.333,4c-.293-.586-1.416-.534-2.227-.734q.005.143.006.289a4.694,4.694,0,0,1-.706,2.744l-.183-2.744h-.888l-.183,2.744a4.693,4.693,0,0,1-.706-2.744q0-.146.006-.289c-.811.2-1.934.148-2.227.734-.444.889-.889,4.443-.444,5.331a1.342,1.342,0,0,0,1.511.889h4.976a1.342,1.342,0,0,0,1.51-.889c.444-.889,0-4.443-.444-5.331Zm-7.188-2.929" transform="translate(-696.291 -155.495)" fill="#fff"/>
        <path id="路径_5071" data-name="路径 5071" d="M1168.249,267.067c0,.836-.3,2.119-1.513,2.119s-1.513-1.283-1.513-2.119a1.513,1.513,0,0,1,3.027,0Zm.908,2.724c-.2-.4-.965-.364-1.517-.5,0,.065,0,.131,0,.2a3.2,3.2,0,0,1-.481,1.87l-.125-1.87h-.605l-.125,1.87a3.2,3.2,0,0,1-.481-1.87c0-.066,0-.132,0-.2-.286.07-.628.1-.92.158a.857.857,0,0,1,.491.393,12.673,12.673,0,0,1,.626,4.187h2.4a.914.914,0,0,0,1.029-.605,7.453,7.453,0,0,0-.3-3.632Zm0,0" transform="translate(-1153.593 -263.769)" fill="#fff"/>
      </g>
    </g>
  </g>
</svg>
