<svg xmlns="http://www.w3.org/2000/svg" xmlns:xlink="http://www.w3.org/1999/xlink" width="29.5" height="30.047" viewBox="0 0 29.5 30.047">
  <defs>
    <clipPath id="clip-path">
      <rect id="矩形_6255" data-name="矩形 6255" width="16.4" height="12.775" fill="none"/>
    </clipPath>
  </defs>
  <g id="组_10732" data-name="组 10732" transform="translate(-174 -587.933)">
    <g id="组_10202" data-name="组 10202" transform="translate(88 -24.269)">
      <g id="组_10731" data-name="组 10731">
        <g id="组_10730" data-name="组 10730">
          <g id="组_6656" data-name="组 6656" transform="translate(86 612.202)">
            <g id="phone-book_3_" data-name="phone-book (3)" transform="translate(0 0)">
              <g id="组_6610" data-name="组 6610" transform="translate(1.844)">
                <g id="组_6609" data-name="组 6609" transform="translate(0)">
                  <path id="路径_5056" data-name="路径 5056" d="M69.969,3.58V2.641A2.7,2.7,0,0,0,67.2,0H48.766A2.7,2.7,0,0,0,46,2.641V27.406a2.7,2.7,0,0,0,2.766,2.641H67.2a2.7,2.7,0,0,0,2.766-2.641V12.383l1.844-4.1Z" transform="translate(-46)" fill="#4fabf7"/>
                </g>
              </g>
              <g id="组_6612" data-name="组 6612" transform="translate(0 3.58)">
                <g id="组_6611" data-name="组 6611">
                  <path id="路径_5057" data-name="路径 5057" d="M20.609,61H16.922a.881.881,0,1,0,0,1.761h3.687a.881.881,0,1,0,0-1.761Zm0,7.042H16.922a.881.881,0,1,0,0,1.761h3.687a.881.881,0,1,0,0-1.761Zm0,7.042H16.922a.881.881,0,1,0,0,1.761h3.687a.881.881,0,1,0,0-1.761Zm0,7.042H16.922a.881.881,0,1,0,0,1.761h3.687a.881.881,0,1,0,0-1.761ZM44.578,61H41.812v8.8h2.766a.893.893,0,0,0,.922-.88V61.88A.893.893,0,0,0,44.578,61Z" transform="translate(-16 -61)" fill="#ebf5fc"/>
                </g>
              </g>
            </g>
          </g>
        </g>
      </g>
      <g id="组_6660" data-name="组 6660" transform="translate(90.479 620.918)">
        <g id="组_6659" data-name="组 6659" transform="translate(0 0)">
          <g id="组_6658" data-name="组 6658" transform="translate(0)" clip-path="url(#clip-path)">
            <path id="路径_5070" data-name="路径 5070" d="M706.667,157.78c0,1.258-.455,3.188-2.277,3.188s-2.277-1.93-2.277-3.188a2.277,2.277,0,0,1,4.554,0Zm1.366,4.1c-.3-.6-1.452-.547-2.283-.752q.006.146.006.3a4.81,4.81,0,0,1-.723,2.813l-.188-2.813h-.911l-.188,2.813a4.811,4.811,0,0,1-.723-2.813c0-.1,0-.2.006-.3-.831.2-1.983.152-2.283.752-.455.911-.911,4.554-.455,5.465a1.375,1.375,0,0,0,1.548.911h5.1a1.375,1.375,0,0,0,1.548-.911c.455-.911,0-4.554-.455-5.465Zm-7.367-3" transform="translate(-696.196 -155.495)" fill="#f7f7f7"/>
            <path id="路径_5071" data-name="路径 5071" d="M1168.332,267.105c0,.857-.31,2.172-1.551,2.172s-1.551-1.315-1.551-2.172a1.551,1.551,0,1,1,3.1,0Zm.931,2.792c-.2-.409-.989-.373-1.556-.512,0,.067,0,.134,0,.2a3.279,3.279,0,0,1-.493,1.917l-.128-1.917h-.621l-.128,1.917a3.278,3.278,0,0,1-.493-1.917c0-.068,0-.136,0-.2-.293.072-.644.1-.943.161a.878.878,0,0,1,.5.4,12.991,12.991,0,0,1,.642,4.292h2.462a.937.937,0,0,0,1.055-.621,7.641,7.641,0,0,0-.31-3.723Zm0,0" transform="translate(-1153.31 -263.724)" fill="#f7f7f7"/>
          </g>
        </g>
      </g>
    </g>
  </g>
</svg>
