<svg xmlns="http://www.w3.org/2000/svg" width="30" height="30" viewBox="0 0 30 30">
  <g id="组_13564" data-name="组 13564" transform="translate(-30 -318)">
    <g id="组_10893" data-name="组 10893" transform="translate(0 8)">
      <rect id="矩形_21" data-name="矩形 21" width="30" height="30" rx="4" transform="translate(30 310)" fill="#2988e6" opacity="0.063"/>
      <path id="路径_13138" data-name="路径 13138" d="M54.021,54.058V52.271a.556.556,0,1,1,1.111-.007v1.787a.556.556,0,0,1-1.111.007ZM64.27,56.31V54.5A1.356,1.356,0,0,0,62.9,53.172h-.886v.959a1.213,1.213,0,1,1-2.426,0v-.952H55.779v.959a1.213,1.213,0,0,1-2.426,0v-.959h-.77A1.323,1.323,0,0,0,51.2,54.429V56.31ZM51.2,57.182v6.225a1.347,1.347,0,0,0,1.337,1.358H62.854a1.381,1.381,0,0,0,1.416-1.351V57.182H51.2Zm9.734,2.208L57.4,62.964a.46.46,0,0,1-.654.007l-.007-.007L54.784,61a.483.483,0,0,1,0-.661.446.446,0,0,1,.625-.029l.029.029,1.627,1.642,3.2-3.24a.469.469,0,0,1,.661,0A.448.448,0,0,1,60.929,59.39Zm-.683-5.332v-1.78a.563.563,0,0,1,.552-.559.552.552,0,0,1,.552.552v1.787a.557.557,0,0,1-.545.559H60.8A.558.558,0,0,1,60.246,54.058Z" transform="translate(-13.195 266.288)" fill="#2988e6"/>
    </g>
  </g>
</svg>
