<svg xmlns="http://www.w3.org/2000/svg" xmlns:xlink="http://www.w3.org/1999/xlink" width="188.539" height="171.221" viewBox="0 0 188.539 171.221">
  <defs>
    <linearGradient id="linear-gradient" x1="0.5" x2="0.5" y2="1" gradientUnits="objectBoundingBox">
      <stop offset="0" stop-color="#d4dbe5"/>
      <stop offset="1" stop-color="#fff"/>
    </linearGradient>
    <linearGradient id="linear-gradient-2" x1="0.5" y1="1" x2="0.5" gradientUnits="objectBoundingBox">
      <stop offset="0.112" stop-color="#fff"/>
      <stop offset="0.92" stop-color="#e2e6ed"/>
    </linearGradient>
    <linearGradient id="linear-gradient-3" x1="0.5" y1="1" x2="0.5" gradientUnits="objectBoundingBox">
      <stop offset="0.112" stop-color="#f1f3f6"/>
      <stop offset="0.92" stop-color="#d2d9e3"/>
    </linearGradient>
    <linearGradient id="linear-gradient-5" x1="-118.225" y1="-46.165" x2="-118.225" y2="-47.165" xlink:href="#linear-gradient-3"/>
    <linearGradient id="linear-gradient-6" x1="0.5" y1="1" x2="0.5" gradientUnits="objectBoundingBox">
      <stop offset="0.112" stop-color="#b6c7d8"/>
      <stop offset="0.92" stop-color="#dae0e8"/>
    </linearGradient>
    <linearGradient id="linear-gradient-7" y1="0.5" x2="1" y2="0.5" gradientUnits="objectBoundingBox">
      <stop offset="0.088" stop-color="#ebeef2"/>
      <stop offset="1" stop-color="#d2d9e3"/>
    </linearGradient>
    <linearGradient id="linear-gradient-8" x1="0.5" y1="1" x2="0.5" gradientUnits="objectBoundingBox">
      <stop offset="0.112" stop-color="#c9d5e2"/>
      <stop offset="0.92" stop-color="#dae0e8"/>
    </linearGradient>
    <linearGradient id="linear-gradient-9" x1="0.5" y1="0" x2="0.5" y2="1" xlink:href="#linear-gradient-8"/>
    <linearGradient id="linear-gradient-10" x1="0.5" y1="0" x2="0.5" y2="1" xlink:href="#linear-gradient-7"/>
  </defs>
  <g id="图层_3" transform="translate(-105.12 -131.12)">
    <g id="组_7719" data-name="组 7719" transform="translate(105.12 131.12)">
      <g id="组_7716" data-name="组 7716" transform="translate(0 0)">
        <ellipse id="椭圆_699" data-name="椭圆 699" cx="94.27" cy="23.947" rx="94.27" ry="23.947" transform="translate(0 123.328)" fill="url(#linear-gradient)"/>
        <path id="路径_5749" data-name="路径 5749" d="M270.846,174.8V136.631l-7.662-5.511-33.468,13.308v38.98h-7.662V172.654H207.4v10.082h-6.99V163.916H187.778V197.25h-3.492V138.513H154.447v53.9h-15.19v19.965H130.52V231.73H297.727V174.8Z" transform="translate(-122.391 -131.12)" fill="url(#linear-gradient-2)"/>
        <circle id="椭圆_700" data-name="椭圆 700" cx="4.862" cy="4.862" r="4.862" transform="translate(8.862 66.866)" fill="url(#linear-gradient-3)"/>
        <circle id="椭圆_701" data-name="椭圆 701" cx="6.9" cy="6.9" r="6.9" transform="translate(151.365 35.104)" fill="url(#linear-gradient-3)"/>
        <circle id="椭圆_702" data-name="椭圆 702" cx="3.921" cy="3.921" r="3.921" transform="translate(147.444 136.274)" fill="url(#linear-gradient-5)"/>
      </g>
      <g id="组_7718" data-name="组 7718" transform="translate(40.219 28.192)">
        <path id="路径_5750" data-name="路径 5750" d="M334.028,258.794l-43.214-37.312a9.365,9.365,0,0,0-12.236-.006l-43.32,37.319a12.579,12.579,0,0,0-4.369,9.531v12.719h107.5V268.319A12.583,12.583,0,0,0,334.028,258.794Z" transform="translate(-230.856 -219.204)" fill="url(#linear-gradient-6)"/>
        <path id="路径_5751" data-name="路径 5751" d="M349.493,347.319H261.74V270.09a4.431,4.431,0,0,1,4.43-4.43h78.894a4.431,4.431,0,0,1,4.43,4.43Z" transform="translate(-251.832 -250.791)" fill="#fff"/>
        <g id="组_7717" data-name="组 7717" transform="translate(25.837 23.808)">
          <path id="路径_5752" data-name="路径 5752" d="M311.51,326.5c0-19.812,14.556-32.911,31.711-32.911,15.254,0,24.939,10.315,24.939,25.064,0,12.975-8.546,19.559-15.824,19.559-4.052,0-7.342-1.9-8.04-5.444h-.128c-2.09,2.849-5.7,4.81-8.67,4.81-5.444,0-9.24-4.052-9.24-10.632,0-8.417,6.075-17.344,14.3-17.344a5.745,5.745,0,0,1,5.505,3.543h.128l1.011-2.973h5.761l-3.1,15.443c-1.139,4.622,0,6.772,3.418,6.772,4.369,0,8.862-5.191,8.862-13.417,0-10.7-5.886-19.623-19.684-19.623-12.405,0-24.622,10.572-24.622,26.9,0,14.115,9.621,21.2,21.14,21.2a23.82,23.82,0,0,0,11.077-2.913l2.09,5.191a27.771,27.771,0,0,1-13.926,3.482C323.915,353.213,311.51,344.415,311.51,326.5Zm31.2,1.648,1.837-10.127a4.172,4.172,0,0,0-3.735-2.343c-4.622,0-7.531,6.139-7.531,10.76,0,3.543,1.709,5.252,4.177,5.252C339.105,331.693,340.686,330.681,342.712,328.15Z" transform="translate(-311.51 -293.59)" fill="url(#linear-gradient-7)"/>
        </g>
        <path id="路径_5753" data-name="路径 5753" d="M332.111,353.77,284.64,398.885,237.166,353.77a6.276,6.276,0,0,0-6.276,6.276v61.307a6.276,6.276,0,0,0,6.276,6.276h94.945a6.276,6.276,0,0,0,6.276-6.276V360.046A6.276,6.276,0,0,0,332.111,353.77Z" transform="translate(-230.856 -310.701)" fill="url(#linear-gradient-8)"/>
        <path id="路径_5754" data-name="路径 5754" d="M338.314,463.4l-49.9-40.657a6.093,6.093,0,0,0-7.7,0l-49.9,40.65c.048,3.918-.659,7.016,2.714,7.016l98.507-1.015C339.182,471.365,338.321,468.705,338.314,463.4Z" transform="translate(-230.783 -356.67)" fill="url(#linear-gradient-9)"/>
        <path id="路径_5755" data-name="路径 5755" d="M338.4,476.515l-49.887-40.647a6.093,6.093,0,0,0-7.7,0L230.92,476.515a6.274,6.274,0,0,0,6.264,6h94.945A6.274,6.274,0,0,0,338.4,476.515Z" transform="translate(-230.876 -365.591)" fill="url(#linear-gradient-10)"/>
      </g>
    </g>
  </g>
</svg>
