<svg xmlns="http://www.w3.org/2000/svg" width="175" height="110" viewBox="0 0 175 110"><g transform="translate(-101 -313.503)"><rect width="175" height="110" rx="6" transform="translate(101 313.503)" fill="#f0f2f4"/><path d="M56.542,138.908a3.279,3.279,0,1,1,3.49-3.272A3.478,3.478,0,0,1,56.542,138.908ZM62.651,128a1.9,1.9,0,0,1,2.072,1.854v22.361a1.9,1.9,0,0,1-2.072,1.854H34.072A1.9,1.9,0,0,1,32,152.215V129.963a1.9,1.9,0,0,1,2.072-1.854Zm-7.526,13.526,7.2,7.2V131.054a.881.881,0,0,0-.982-.764H35.272a.956.956,0,0,0-.982.764v17.671l9.163-10.362a1.752,1.752,0,0,1,1.2-.545,1.359,1.359,0,0,1,1.2.436l3.927,4.036.327.218a2.31,2.31,0,0,0,.764.327,1.451,1.451,0,0,0,.873-.327l1.309-1.091a1.523,1.523,0,0,1,.982-.327A1.149,1.149,0,0,1,55.124,141.526Z" transform="translate(140.189 228.203)" fill="#ccced5"/></g></svg>