<svg xmlns="http://www.w3.org/2000/svg" xmlns:xlink="http://www.w3.org/1999/xlink" width="214.334" height="60" viewBox="0 0 214.334 60">
  <defs>
    <linearGradient id="linear-gradient" x1="0.5" x2="0.5" y2="1" gradientUnits="objectBoundingBox">
      <stop offset="0" stop-color="#f4f2fb"/>
      <stop offset="1" stop-color="#e1eef5"/>
    </linearGradient>
    <linearGradient id="linear-gradient-2" x1="0.5" y1="1" x2="0.5" gradientUnits="objectBoundingBox">
      <stop offset="0" stop-color="#4f5c7c"/>
      <stop offset="1" stop-color="#274168"/>
    </linearGradient>
    <linearGradient id="linear-gradient-3" x1="0.5" y1="1" x2="0.5" gradientUnits="objectBoundingBox">
      <stop offset="0" stop-color="#c3d5fd"/>
      <stop offset="1" stop-color="#1a90fc"/>
    </linearGradient>
    <linearGradient id="linear-gradient-4" x1="0.5" x2="0.5" y2="1" gradientUnits="objectBoundingBox">
      <stop offset="0" stop-color="#f4ae98"/>
      <stop offset="1" stop-color="#fad1bb"/>
    </linearGradient>
    <linearGradient id="linear-gradient-5" x1="-32.058" y1="-3.536" x2="-31.772" y2="-4.526" xlink:href="#linear-gradient-3"/>
    <linearGradient id="linear-gradient-6" x1="67.836" y1="3.535" x2="68.122" y2="2.545" xlink:href="#linear-gradient-3"/>
    <linearGradient id="linear-gradient-8" x1="9.455" y1="1.051" x2="9.455" y2="2.055" gradientUnits="objectBoundingBox">
      <stop offset="0" stop-color="#f4b9a4"/>
      <stop offset="0.652" stop-color="#fad1bb"/>
    </linearGradient>
    <linearGradient id="linear-gradient-10" x1="0.5" x2="0.5" y2="1" gradientUnits="objectBoundingBox">
      <stop offset="0" stop-color="#275c89"/>
      <stop offset="1" stop-color="#013f7c"/>
    </linearGradient>
    <linearGradient id="linear-gradient-11" x1="240.481" y1="0.5" x2="241.481" y2="0.5" xlink:href="#linear-gradient-8"/>
    <linearGradient id="linear-gradient-12" y1="0.5" x2="1" y2="0.5" gradientUnits="objectBoundingBox">
      <stop offset="0" stop-color="#18264b"/>
      <stop offset="0.652" stop-color="#2d3c65"/>
    </linearGradient>
    <linearGradient id="linear-gradient-13" x1="0.5" x2="0.5" y2="1" gradientUnits="objectBoundingBox">
      <stop offset="0" stop-color="#ffdb80"/>
      <stop offset="1" stop-color="#ffbb24"/>
    </linearGradient>
    <linearGradient id="linear-gradient-14" x1="0" y1="0.5" x2="1" y2="0.5" xlink:href="#linear-gradient-8"/>
    <linearGradient id="linear-gradient-15" y1="0.5" x2="1" y2="0.5" gradientUnits="objectBoundingBox">
      <stop offset="0" stop-color="#445677"/>
      <stop offset="1" stop-color="#293861"/>
    </linearGradient>
    <linearGradient id="linear-gradient-17" x1="0.5" x2="0.5" y2="1" gradientUnits="objectBoundingBox">
      <stop offset="0" stop-color="#e9f2fc"/>
      <stop offset="1" stop-color="#2988e6"/>
    </linearGradient>
  </defs>
  <g id="组_10654" data-name="组 10654" transform="translate(-85 -142)">
    <rect id="矩形_20681" data-name="矩形 20681" width="205" height="60" transform="translate(85 142)" fill="none"/>
    <g id="组_10464" data-name="组 10464" transform="translate(-15 4)">
      <g id="组_10447" data-name="组 10447" transform="translate(63.785 -14.176)">
        <g id="组_10443" data-name="组 10443" transform="translate(44.215 155.176)">
          <path id="路径_9737" data-name="路径 9737" d="M86.472,159.149c-3.687,2.911-11.6,3.249-17.409-.213s-16.528-3.015-19.432,3.351,3.574,12.62,1.228,17.2-10.163,11.056-4.8,18.873,12.165,5.825,16.261,5.04c8.088-1.55,18.238,11.115,29.656,1.55,6.58-5.511,16.378,4.045,20.2-7.818,3.15-9.788-8.232-13.4-4.8-19.99,3.648-7,2.947-15.3-1-19.321C102.682,154.076,92.838,154.124,86.472,159.149Z" transform="translate(-44.215 -155.176)" fill="url(#linear-gradient)"/>
        </g>
      </g>
      <g id="组_10437" data-name="组 10437">
        <g id="组_10401" data-name="组 10401" transform="translate(59.584 8)">
          <text id="No_suggestions" data-name="No suggestions" transform="translate(124.75 150)" fill="#333" font-size="16" font-family="ProximaNova-Semibold, Proxima Nova" font-weight="600"><tspan x="0" y="15">No suggestions</tspan></text>
        </g>
        <g id="组_10436" data-name="组 10436" transform="translate(5.237)">
          <g id="组_10413" data-name="组 10413" transform="translate(113.43 149)">
            <path id="路径_9720" data-name="路径 9720" d="M350.234,372.809s-2.516.607-3,2.783c-1.015.248-4.433,2.087-1.852,6.151,1.3,1.594,1.5,1.863,1.5,1.863l7.456-2.2V372Z" transform="translate(-340.411 -368.305)" fill="url(#linear-gradient-2)"/>
            <path id="路径_9721" data-name="路径 9721" d="M355.966,398.986s-4.177-.578-5.534,1.341-1.853,6.831-1.853,6.831l3.144-.165-.265,5.723,5.8,3.4,8.262-4.444-1.257-5.186,2.64-.689s-.787-7.525-4.459-6.414a18.615,18.615,0,0,1-2.481.167,2.135,2.135,0,0,1-2.2,1.448C356.06,400.864,355.966,398.986,355.966,398.986Z" transform="translate(-343.653 -389.359)" fill="url(#linear-gradient-3)"/>
            <path id="路径_9722" data-name="路径 9722" d="M381.313,386.055l-.867,3.87a.38.38,0,0,0,.226.437,6.367,6.367,0,0,0,2.27.494,4.382,4.382,0,0,0,2.276-.8.382.382,0,0,0,.148-.439l-1.328-3.949a.383.383,0,0,0-.431-.254l-1.989.352a.384.384,0,0,0-.3.289Z" transform="translate(-368.583 -378.794)" fill="url(#linear-gradient-4)"/>
            <path id="路径_9723" data-name="路径 9723" d="M347.323,401.82c1.215-.4,2.864-.133,2.931,2.594s-2.6,7.073-1.648,8.584a31.949,31.949,0,0,0,4.362,4.946,8.563,8.563,0,0,1-1.135,2.681s-4.862-2.244-6.979-4.49-1.048-7.4-.067-11.065C345.525,402.307,347.323,401.82,347.323,401.82Z" transform="translate(-339.779 -391.524)" fill="url(#linear-gradient-5)"/>
            <path id="路径_9724" data-name="路径 9724" d="M398.894,401.82c-1.215-.4-2.863-.133-2.931,2.594s2.6,7.073,1.648,8.584a31.946,31.946,0,0,1-4.362,4.946,8.563,8.563,0,0,0,1.135,2.681s4.862-2.244,6.979-4.49,1.048-7.4.067-11.065C400.693,402.307,398.894,401.82,398.894,401.82Z" transform="translate(-378.611 -391.524)" fill="url(#linear-gradient-6)"/>
            <path id="路径_9725" data-name="路径 9725" d="M394.727,377.116a12.287,12.287,0,0,1,.661,4.153c-.222,1.483.089,3.614,1.963,4.264a3.364,3.364,0,0,0,4.3-2.311c.639-1.863.022-3.209-1.544-4.422.265-1.144-1.024-3.222-3.318-3.964C394.542,374.523,394.727,377.116,394.727,377.116Z" transform="translate(-379.764 -370.504)" fill="url(#linear-gradient-2)"/>
            <path id="路径_9726" data-name="路径 9726" d="M374.061,365.032a3.367,3.367,0,0,0-1.4,2.444c.031,1.433,1.181,1.166,1.181,1.166a2.693,2.693,0,0,0,2.609,2.2,2.532,2.532,0,0,0,2.581-2.189,1.042,1.042,0,0,0,1.161-1.161,4.529,4.529,0,0,0-1.95-3.553A4.424,4.424,0,0,0,374.061,365.032Z" transform="translate(-362.496 -361.852)" fill="url(#linear-gradient-8)"/>
            <path id="路径_9727" data-name="路径 9727" d="M372.553,357.738a2.445,2.445,0,0,1-1.589,1.526c-1.137.224-1.237.8-1.237,1.348a2.256,2.256,0,0,0,.23.963c-.613-.337-1.45-1.141-.917-3.359a3.934,3.934,0,0,1,4.235-3.15c1.787-.472,4.433,1.922,4.2,5.036a1.841,1.841,0,0,0-1-.713,1.743,1.743,0,0,1-.883-1.189,4.013,4.013,0,0,1-3.039-.462Z" transform="translate(-359.531 -355.006)" fill="url(#linear-gradient-2)"/>
            <path id="路径_9728" data-name="路径 9728" d="M350.551,460.419h11.8a1.314,1.314,0,0,0,1.2-1.016l2.379-7.827a1.542,1.542,0,0,0-1.2-2.1H348.279a1.538,1.538,0,0,0-1.2,2.074l2.272,7.827a1.32,1.32,0,0,0,1.2,1.042Z" transform="translate(-342.417 -428.939)" fill="url(#linear-gradient-10)"/>
            <g id="组_10411" data-name="组 10411" transform="translate(0 26.185)">
              <path id="路径_9729" data-name="路径 9729" d="M333.583,512.851s-.183-.4-.322-.446-2.159-.124-2.9-.315-2.859-.493-3.77.367a2.439,2.439,0,0,0,.152,3.511c.452.394.9.509,2.574.431s4.107-.061,4.64-.837a13.567,13.567,0,0,0-.374-2.711Z" transform="translate(-325.921 -503.955)" fill="#fff"/>
              <path id="路径_9730" data-name="路径 9730" d="M359.027,514.3a14.371,14.371,0,0,1-2.646.374c-.7-.065-.113,2.744-.113,2.744a11.651,11.651,0,0,0,3.507-.348C360.329,514.92,359.027,514.3,359.027,514.3Z" transform="translate(-349.491 -505.851)" fill="url(#linear-gradient-11)"/>
              <path id="路径_9731" data-name="路径 9731" d="M366.57,483.788l1.013,3.151s21.771-2.868,18.66-9.932C383.64,471.1,366.57,483.788,366.57,483.788Z" transform="translate(-357.732 -475.439)" fill="url(#linear-gradient-12)"/>
              <path id="路径_9732" data-name="路径 9732" d="M334.559,513.311a1.634,1.634,0,0,1,.9,1.424c.1,1.113-.228,1.859-1.924,2.066a22.249,22.249,0,0,1-3.19.154c-1.063.026-2.607.128-2.835-1.894s1.84-2.538,3.983-2.022C332.167,513.167,334.559,513.311,334.559,513.311Z" transform="translate(-327.149 -504.718)" fill="url(#linear-gradient-13)"/>
            </g>
            <g id="组_10412" data-name="组 10412" transform="translate(0.096 26.185)">
              <path id="路径_9733" data-name="路径 9733" d="M422.288,512.821s.183-.4.322-.446,2.159-.124,2.9-.315,2.716-.509,3.716.344a2.442,2.442,0,0,1-.067,3.507c-.452.394-.928.537-2.6.459s-4.107-.061-4.64-.837a13.569,13.569,0,0,1,.369-2.712Z" transform="translate(-401.135 -503.925)" fill="#fff"/>
              <path id="路径_9734" data-name="路径 9734" d="M411.843,514.3a14.366,14.366,0,0,0,2.646.374c.7-.065.113,2.744.113,2.744a11.651,11.651,0,0,1-3.507-.348C410.541,514.92,411.843,514.3,411.843,514.3Z" transform="translate(-392.564 -505.851)" fill="url(#linear-gradient-14)"/>
              <path id="路径_9735" data-name="路径 9735" d="M346.337,483.788l-1.013,3.151s-21.771-2.868-18.66-9.932C329.267,471.1,346.337,483.788,346.337,483.788Z" transform="translate(-326.36 -475.439)" fill="url(#linear-gradient-15)"/>
              <path id="路径_9736" data-name="路径 9736" d="M421.518,513.311a1.634,1.634,0,0,0-.9,1.424c-.1,1.113.228,1.859,1.924,2.066a22.241,22.241,0,0,0,3.19.154c1.063.026,2.607.128,2.835-1.894s-1.84-2.538-3.983-2.022C423.909,513.167,421.518,513.311,421.518,513.311Z" transform="translate(-400.112 -504.718)" fill="url(#linear-gradient-13)"/>
            </g>
          </g>
          <g id="组_10435" data-name="组 10435" transform="translate(17.418 6.833)">
            <path id="路径_9718" data-name="路径 9718" d="M244.575,252.878l-4.017-3.922a9.994,9.994,0,1,0-8.376,4.588,9.868,9.868,0,0,0,5.634-1.762l4.736,4.826c.382.389-.148.014.354.014a2.341,2.341,0,0,0,1.735-.812,2.2,2.2,0,0,0-.066-2.932Zm-18.505-9.5a6.114,6.114,0,1,1,6.113,6.2,6.114,6.114,0,0,1-6.113-6.2Z" transform="translate(-96.546 -82.787)" fill="#2988e6"/>
            <path id="路径_9719" data-name="路径 9719" d="M231.467,261.26l-4.112-4.027a10.223,10.223,0,0,0,1.647-5.58,10.022,10.022,0,1,0-10.021,10.174,9.858,9.858,0,0,0,5.633-1.764l4.083,4a1.933,1.933,0,0,0,2.764.007A2.007,2.007,0,0,0,231.467,261.26Zm-18.6-9.607a6.113,6.113,0,1,1,6.112,6.2,6.113,6.113,0,0,1-6.112-6.2Z" transform="translate(-84.057 -90.603)" fill="url(#linear-gradient-17)"/>
          </g>
        </g>
      </g>
    </g>
  </g>
</svg>
