<svg xmlns="http://www.w3.org/2000/svg" width="44" height="44" viewBox="0 0 44 44">
  <g id="组_10129" data-name="组 10129" transform="translate(-207 -50)">
    <circle id="椭圆_700" data-name="椭圆 700" cx="22" cy="22" r="22" transform="translate(207 50)" opacity="0.4"/>
    <g id="组_10128" data-name="组 10128" transform="translate(71.005 -81.68)">
      <path id="路径_5834" data-name="路径 5834" d="M168.68,290.836l.435-2.174c.062-.186-.186-.373-.373-.311l-2.112.683a.325.325,0,0,0-.124.5l1.677,1.429A.3.3,0,0,0,168.68,290.836Zm-21.369,2.671-.435,2.174c-.062.186.186.373.373.311l2.112-.683a.325.325,0,0,0,.124-.5l-1.677-1.429A.278.278,0,0,0,147.31,293.507Zm10.622-7.641a6.785,6.785,0,0,0-2.982.683,1.823,1.823,0,0,1,.248.994,1.935,1.935,0,0,1-1.926,1.926,1.734,1.734,0,0,1-1.118-.373,6.9,6.9,0,0,0-.994,3.541,6.771,6.771,0,1,0,6.771-6.771Zm0,9.939a3.168,3.168,0,1,1,3.168-3.168A3.181,3.181,0,0,1,157.933,295.806Z" transform="translate(0 -138.771)" fill="#fff"/>
      <path id="路径_5835" data-name="路径 5835" d="M186.372,151.506A.394.394,0,0,1,186,151.2a9.986,9.986,0,0,0-19.319,0,.492.492,0,0,1-.5.311.423.423,0,0,1-.248-.5,10.781,10.781,0,0,1,20.872,0,.408.408,0,0,1-.311.5Zm-10,12.921a10.883,10.883,0,0,1-10.5-8.386.408.408,0,0,1,.311-.5.467.467,0,0,1,.435.311,9.968,9.968,0,0,0,19.443,0,.414.414,0,0,1,.808.186A10.883,10.883,0,0,1,176.37,164.427Z" transform="translate(-18.438)" fill="#fff"/>
    </g>
  </g>
</svg>
