<svg id="组_10513" data-name="组 10513" xmlns="http://www.w3.org/2000/svg" width="24" height="24" viewBox="0 0 24 24">
  <rect id="矩形_20514" data-name="矩形 20514" width="24" height="24" fill="rgba(255,255,255,0.01)"/>
  <g id="组_10514" data-name="组 10514" transform="translate(2.48 3.24)">
    <path id="矩形_20515" data-name="矩形 20515" d="M-.48-2H11.677A1.521,1.521,0,0,1,13.2-.48V6.358a1.521,1.521,0,0,1-1.52,1.52H-.48A1.521,1.521,0,0,1-2,6.358V-.48A1.521,1.521,0,0,1-.48-2ZM11.677,6.358V-.48H-.481V6.358Z" transform="translate(3.52 9.599)" fill="#2988e6"/>
    <path id="路径_9639" data-name="路径 9639" d="M20.358,10.358a.76.76,0,0,1-.76-.76V6.559a3.039,3.039,0,1,0-6.079,0V9.6A.76.76,0,1,1,12,9.6V6.559a4.559,4.559,0,0,1,9.118,0V9.6A.76.76,0,0,1,20.358,10.358Z" transform="translate(-7.441 -1.24)" fill="#2988e6"/>
    <path id="路径_9640" data-name="路径 9640" d="M22.76,31.8a.76.76,0,0,1-.76-.76V28.76a.76.76,0,1,1,1.52,0v2.279A.76.76,0,0,1,22.76,31.8Z" transform="translate(-13.642 -17.362)" fill="#2988e6"/>
  </g>
</svg>
