<svg xmlns="http://www.w3.org/2000/svg" width="30" height="30" viewBox="0 0 30 30">
  <g id="组_13574" data-name="组 13574" transform="translate(-30 -684)">
    <g id="组_13573" data-name="组 13573">
      <g id="组_10825" data-name="组 10825" transform="translate(0 112)">
        <rect id="矩形_21" data-name="矩形 21" width="30" height="30" rx="4" transform="translate(30 572)" fill="#2988e6" opacity="0.063"/>
        <g id="组_31" data-name="组 31" transform="translate(-43.701 -49)">
          <path id="路径_49" data-name="路径 49" d="M80.9,5.22H73.856V4.1a2.952,2.952,0,0,1,3.1-2.855,2.856,2.856,0,0,1,2.973,2.864v.218a.626.626,0,0,0,1.222,0V4.117a4.03,4.03,0,0,0-1.226-2.966A4.283,4.283,0,0,0,77,0h-.055a4.517,4.517,0,0,0-3,1.139A3.951,3.951,0,0,0,72.63,4.1V5.311a2.689,2.689,0,0,0-2.088,2.614v4.526a2.711,2.711,0,0,0,2.705,2.7H80.9a2.709,2.709,0,0,0,2.7-2.7V7.925A2.711,2.711,0,0,0,80.9,5.22Z" transform="translate(11.458 628)" fill="#2fb355"/>
          <path id="路径_50" data-name="路径 50" d="M357.793,494.395h-.009a2.356,2.356,0,0,0-.609,4.619v.921a.623.623,0,0,0,.273.393.616.616,0,0,0,.337.1.665.665,0,0,0,.132-.014.628.628,0,0,0,.485-.485v-.919a2.356,2.356,0,0,0-.61-4.613Zm1.121,2.349a.928.928,0,1,1,0-.007Z" transform="translate(-269.257 140.922)" fill="#fff"/>
        </g>
      </g>
    </g>
  </g>
</svg>
