<svg xmlns="http://www.w3.org/2000/svg" width="45.001" height="31.5" viewBox="0 0 45.001 31.5">
  <path id="Icon_awesome-money-bill-wave" data-name="Icon awesome-money-bill-wave" d="M43.675,3.829A20.822,20.822,0,0,0,35.49,2.25c-8.66,0-17.32,4.383-25.98,4.383A21.333,21.333,0,0,1,3,5.669a2.4,2.4,0,0,0-.728-.114A2.237,2.237,0,0,0,0,7.791V30.1A2.236,2.236,0,0,0,1.325,32.17,20.81,20.81,0,0,0,9.51,33.75c8.66,0,17.321-4.384,25.981-4.384a21.333,21.333,0,0,1,6.514.965,2.4,2.4,0,0,0,.728.114A2.237,2.237,0,0,0,45,28.208V5.9a2.239,2.239,0,0,0-1.325-2.072ZM3.375,9.3a24.469,24.469,0,0,0,4.41.628,4.505,4.505,0,0,1-4.41,3.624Zm0,20.039v-3.36a4.5,4.5,0,0,1,4.48,4.317A16.986,16.986,0,0,1,3.375,29.336ZM22.5,24.75c-3.107,0-5.625-3.023-5.625-6.75s2.519-6.75,5.625-6.75,5.625,3.022,5.625,6.75S25.606,24.75,22.5,24.75ZM41.625,26.7a24.175,24.175,0,0,0-3.819-.593,4.491,4.491,0,0,1,3.819-3.465Zm0-16.6A4.491,4.491,0,0,1,37.7,5.774a16.9,16.9,0,0,1,3.924.89Z" transform="translate(0 -2.25)" fill="#30b354"/>
</svg>
