<svg xmlns="http://www.w3.org/2000/svg" width="14.9" height="16.83" viewBox="0 0 14.9 16.83">
  <path id="encloser" d="M15.446,13.586a4.558,4.558,0,0,1-3.525,1.306,5.522,5.522,0,0,1-3.555-1.606l-.034-.034L1.017,5.937A3.476,3.476,0,0,1,3.476,0,3.454,3.454,0,0,1,5.93,1.018l7.261,7.2a.005.005,0,0,0,.006.006l.018.017a2.2,2.2,0,0,1,.729,1.588A1.986,1.986,0,0,1,13.3,11.2a1.965,1.965,0,0,1-1.407.645,2.108,2.108,0,0,1-1.515-.634L5.3,6.223A.706.706,0,1,1,6.29,5.216l5.081,5,.006.006a.7.7,0,0,0,.491.22.582.582,0,0,0,.407-.2l.018-.022a.727.727,0,0,0,.237-.414.913.913,0,0,0-.334-.571L4.934,2.027a2.06,2.06,0,0,0-2.917,2.91l7.314,7.317A4.08,4.08,0,0,0,12,13.48a3.179,3.179,0,0,0,2.454-.892l.072-.074a3.149,3.149,0,0,0,.893-2.454,4.083,4.083,0,0,0-1.226-2.668L9.285,2.463a.706.706,0,1,1,1-1L15.191,6.4a5.062,5.062,0,0,1,.328,7.118l-.074.073Z" transform="translate(14.9) rotate(90)" fill="#2988e6"/>
</svg>
