<svg xmlns="http://www.w3.org/2000/svg" width="13" height="13" viewBox="0 0 13 13">
  <path id="路径_12964" data-name="路径 12964" d="M51.409,39.073a.594.594,0,0,0-.675-.576.644.644,0,0,0-.661.6,3.857,3.857,0,0,0-.028.569v.976c-.049.021-.105.049-.155.07-.169-.162-.337-.33-.513-.492a6.367,6.367,0,0,0-5.53-1.665A6.5,6.5,0,1,0,50.4,48.485a2.054,2.054,0,0,0,.267-.506.666.666,0,0,0-1.152-.653c-.119.147-.2.323-.316.478a5.014,5.014,0,0,1-4.062,2.276,5.121,5.121,0,1,1,3.422-8.73,5.654,5.654,0,0,1,.394.555c-.632,0-1.117-.028-1.6.007a.645.645,0,0,0-.682.667.66.66,0,0,0,.689.674c1.124.028,2.242.021,3.366.007a.632.632,0,0,0,.689-.583Q51.451,40.875,51.409,39.073Z" transform="translate(-38.43 -38.47)" fill="#c1c1c1"/>
</svg>
