<svg xmlns="http://www.w3.org/2000/svg" width="33.76" height="26.533" viewBox="0 0 33.76 26.533">
  <g id="组_10732" data-name="组 10732" transform="translate(-280 -587)">
    <g id="组_10418" data-name="组 10418" transform="translate(33 -18)">
      <g id="组_10417" data-name="组 10417" transform="translate(248.687 605)">
        <path id="路径_9734" data-name="路径 9734" d="M94.442,122.269a9.122,9.122,0,0,1,6.394,2.6,8.92,8.92,0,0,1,1.952,2.839,8.725,8.725,0,0,1,.717,3.494,9.916,9.916,0,0,1-.7,3.542,15.684,15.684,0,0,1-1.653,3.12,30.076,30.076,0,0,1-4.593,5.2,51.975,51.975,0,0,1-6.47,5.05l-.813.521a1.1,1.1,0,0,1-1.183,0l-.813-.521a51.34,51.34,0,0,1-6.47-5.05,30.081,30.081,0,0,1-4.593-5.2,15.856,15.856,0,0,1-1.653-3.12,9.912,9.912,0,0,1-.7-3.542,8.845,8.845,0,0,1,2.672-6.332,9.122,9.122,0,0,1,6.394-2.6,9.166,9.166,0,0,1,4.775,1.337,8.944,8.944,0,0,1,.978.689,8.947,8.947,0,0,1,.978-.689A9.166,9.166,0,0,1,94.442,122.269Zm-2.911,5.341h-.008a.709.709,0,0,0-.681.537l-2.252,8.973-2.071-6.192a.711.711,0,0,0-.644-.484.67.67,0,0,0-.683.429L83.245,135.4H78.027a.708.708,0,1,0,0,1.417h5.686a.709.709,0,0,0,.653-.43l1.4-3.245,2.252,6.733a.71.71,0,0,0,.674.484h.027a.709.709,0,0,0,.662-.536l2.184-8.7,1.416,5.176a.711.711,0,0,0,.686.522h5.686a.708.708,0,1,0,0-1.417H94.206l-1.989-7.27A.712.712,0,0,0,91.531,127.61Z" transform="translate(-73.871 -122.268)" fill="#fb5051"/>
        <ellipse id="椭圆_717" data-name="椭圆 717" cx="12.358" cy="7.895" rx="12.358" ry="7.895" transform="translate(2.06 3.998)" fill="#fb5051"/>
      </g>
      <path id="路径_9735" data-name="路径 9735" d="M1281.707,970.811h8.8l1.183,1.743,3.206-8.185,2.63,14.1,1.624-9.089h2.66l2.143,2.907,1.067-1.472h8.448" transform="translate(-1033.707 -352.847)" fill="none" stroke="#60daff" stroke-linecap="round" stroke-linejoin="round" stroke-width="2"/>
    </g>
  </g>
</svg>
