<svg xmlns="http://www.w3.org/2000/svg" width="40" height="40" viewBox="0 0 40 40">
  <g id="组_10700" data-name="组 10700" transform="translate(-15 -146)">
    <g id="组_8554" data-name="组 8554" transform="translate(-31 -210.948)">
      <rect id="矩形_18502" data-name="矩形 18502" width="40" height="40" rx="6" transform="translate(46 356.947)" fill="#f4f4f4"/>
      <g id="yiyuan" transform="translate(50.507 362.259)">
        <path id="路径_8285" data-name="路径 8285" d="M95.527,897.311a.28.28,0,0,1-.269.286H64.569a.28.28,0,0,1-.269-.286v-1.025a.28.28,0,0,1,.269-.286H95.258a.28.28,0,0,1,.269.286Z" transform="translate(-64.3 -867.901)" fill="#333e48"/>
        <path id="路径_8286" data-name="路径 8286" d="M555.669,896H540.4v1.6h15.269a.289.289,0,0,0,.286-.286v-1.025A.284.284,0,0,0,555.669,896Z" transform="translate(-524.729 -867.901)" fill="#00ad68"/>
        <path id="路径_8287" data-name="路径 8287" d="M133.6,183.6h16.045v24.444H133.6Z" transform="translate(-131.026 -179.949)" fill="#d1d3d3"/>
        <path id="路径_8288" data-name="路径 8288" d="M133.6,183.6h16.045v3.662H133.6Z" transform="translate(-131.026 -179.949)"/>
        <path id="路径_8289" data-name="路径 8289" d="M187.6,613.8h12.034v3.261H187.6Z" transform="translate(-183.02 -595.559)" fill="#fff"/>
        <path id="路径_8290" data-name="路径 8290" d="M187.6,613.8h12.034V615H187.6Z" transform="translate(-183.02 -595.465)"/>
        <path id="路径_8291" data-name="路径 8291" d="M335.3,613.8h1.062v3.261H335.3Z" transform="translate(-325.864 -595.559)" fill="#333e48"/>
        <path id="路径_8292" data-name="路径 8292" d="M174.362,602.857H185.33v-2.2H174.362Zm11.5,1.066H173.831a.531.531,0,0,1-.531-.531v-3.261a.531.531,0,0,1,.531-.531h12.034a.531.531,0,0,1,.531.531v3.261A.533.533,0,0,1,185.865,603.923Z" transform="translate(-169.251 -581.901)" fill="#0071ce"/>
        <path id="路径_8293" data-name="路径 8293" d="M187.6,469h12.034v3.261H187.6Z" transform="translate(-183.02 -455.757)" fill="#fff"/>
        <path id="路径_8294" data-name="路径 8294" d="M187.6,469h12.034v1.2H187.6Z" transform="translate(-183.02 -455.688)"/>
        <path id="路径_8295" data-name="路径 8295" d="M335.3,469h1.062v3.261H335.3Z" transform="translate(-325.864 -455.757)" fill="#333e48"/>
        <path id="路径_8296" data-name="路径 8296" d="M174.362,457.961H185.33v-2.2H174.362Zm11.5,1.066H173.831a.531.531,0,0,1-.531-.531v-3.265a.531.531,0,0,1,.531-.531h12.034a.531.531,0,0,1,.531.531v3.261A.532.532,0,0,1,185.865,459.027Z" transform="translate(-169.251 -441.988)" fill="#0071ce"/>
        <path id="路径_8297" data-name="路径 8297" d="M187.6,324.2h12.034v3.261H187.6Z" transform="translate(-183.02 -315.954)" fill="#fff"/>
        <path id="路径_8298" data-name="路径 8298" d="M187.6,324.2h12.034v1.2H187.6Z" transform="translate(-183.02 -315.912)"/>
        <path id="路径_8299" data-name="路径 8299" d="M335.3,324.2h1.062v3.261H335.3Z" transform="translate(-325.864 -315.954)" fill="#333e48"/>
        <path id="路径_8300" data-name="路径 8300" d="M174.362,313.261H185.33v-2.2H174.362Zm11.5,1.062H173.831a.531.531,0,0,1-.531-.531v-3.261a.531.531,0,0,1,.531-.531h12.034a.531.531,0,0,1,.531.531v3.261a.531.531,0,0,1-.531.531Z" transform="translate(-169.251 -302.267)" fill="#0071ce"/>
        <path id="路径_8301" data-name="路径 8301" d="M266.1,772.8h6.2v4.576h-6.2Z" transform="translate(-259.163 -749.277)" fill="#fff"/>
        <path id="路径_8302" data-name="路径 8302" d="M335.3,772.8h1.062v4.576H335.3Z" transform="translate(-325.864 -749.277)" fill="#333e48"/>
        <path id="路径_8303" data-name="路径 8303" d="M259.065,763.607H258v-4.045h-5.141v4.045H251.8v-4.576a.531.531,0,0,1,.531-.531h6.2a.531.531,0,0,1,.531.531Z" transform="translate(-245.375 -735.508)" fill="#0071ce"/>
        <path id="路径_8304" data-name="路径 8304" d="M118.758,87.647h-5V86.009a.712.712,0,0,0-.709-.709h-5.623a.712.712,0,0,0-.709.709v1.638h-5a.712.712,0,0,0-.709.709v2.767a.712.712,0,0,0,.709.709h17.048a.712.712,0,0,0,.709-.709V88.357A.712.712,0,0,0,118.758,87.647Z" transform="translate(-99.637 -85.3)" fill="#ff5959"/>
        <path id="路径_8305" data-name="路径 8305" d="M297.685,118.948h-.9v-.9a.353.353,0,0,0-.353-.353H295.5a.353.353,0,0,0-.353.353v.9h-.9a.353.353,0,0,0-.353.353v.932a.353.353,0,0,0,.353.353h.9v.9a.353.353,0,0,0,.353.353h.932a.353.353,0,0,0,.353-.353v-.9h.9a.353.353,0,0,0,.353-.353V119.3A.347.347,0,0,0,297.685,118.948Z" transform="translate(-285.962 -116.497)" fill="#fff"/>
        <path id="路径_8306" data-name="路径 8306" d="M565.6,571.3h12.042v12.06H565.6Z" transform="translate(-548.993 -555.261)" fill="#d1d3d3"/>
        <path id="路径_8307" data-name="路径 8307" d="M619.7,662.4h8.023v3.261H619.7Z" transform="translate(-601.083 -642.481)" fill="#fff"/>
        <path id="路径_8308" data-name="路径 8308" d="M619.7,662.4h8.023v1.2H619.7Z" transform="translate(-601.083 -642.379)"/>
        <path id="路径_8309" data-name="路径 8309" d="M713.4,662.4h1.062v3.261H713.4Z" transform="translate(-690.799 -642.481)" fill="#333e48"/>
        <path id="路径_8310" data-name="路径 8310" d="M606.462,651.457h6.957v-2.2h-6.957Zm7.492,1.066h-8.023a.531.531,0,0,1-.531-.531v-3.261a.531.531,0,0,1,.531-.531h8.023a.531.531,0,0,1,.531.531v3.261A.533.533,0,0,1,613.954,652.523Z" transform="translate(-587.314 -628.829)" fill="#0071ce"/>
        <path id="路径_8311" data-name="路径 8311" d="M565.6,515.4h12.692a.712.712,0,0,1,.709.709v1.359a.712.712,0,0,1-.709.709H565.6Z" transform="translate(-548.993 -500.536)" fill="#ff5959"/>
        <path id="路径_8312" data-name="路径 8312" d="M566.941,518.3v-2.839H565.6v15.073h1.341V519.823h10.7V518.3Z" transform="translate(-548.993 -502.443)"/>
        <path id="路径_8313" data-name="路径 8313" d="M701.839,837.169a2.269,2.269,0,0,0-4.539,0Z" transform="translate(-675.437 -809.07)" fill="#218649"/>
      </g>
    </g>
  </g>
</svg>
