<svg xmlns="http://www.w3.org/2000/svg" width="24" height="24" viewBox="0 0 24 24">
  <g id="组_10500" data-name="组 10500" transform="translate(-1414 -1156)">
    <g id="组_8592" data-name="组 8592" transform="translate(1258 1000)">
      <path id="路径_9459" data-name="路径 9459" d="M160.788,166.3a.745.745,0,0,1-.788-.788v-3.152A2.424,2.424,0,0,1,162.364,160h3.152a.788.788,0,1,1,0,1.576h-3.152a.745.745,0,0,0-.788.788v3.152A.744.744,0,0,1,160.788,166.3Z" fill="#2988e6" stroke="#fff" stroke-width="0.3"/>
      <path id="路径_9460" data-name="路径 9460" d="M165.516,614.3h-3.152A2.424,2.424,0,0,1,160,611.94v-3.152a.788.788,0,1,1,1.576,0v3.152a.745.745,0,0,0,.788.788h3.152a.788.788,0,1,1,0,1.576Z" transform="translate(0 -438.304)" fill="#2988e6" stroke="#fff" stroke-width="0.3"/>
      <path id="路径_9461" data-name="路径 9461" d="M611.94,614.3h-3.152a.788.788,0,1,1,0-1.576h3.152a.745.745,0,0,0,.788-.788v-3.152a.788.788,0,1,1,1.576,0v3.152A2.424,2.424,0,0,1,611.94,614.3Z" transform="translate(-438.304 -438.304)" fill="#2988e6" stroke="#fff" stroke-width="0.3"/>
      <path id="路径_9462" data-name="路径 9462" d="M613.516,166.3a.744.744,0,0,1-.788-.788v-3.152a.745.745,0,0,0-.788-.788h-3.152a.788.788,0,1,1,0-1.576h3.152a2.424,2.424,0,0,1,2.364,2.364v3.152A.744.744,0,0,1,613.516,166.3Z" transform="translate(-438.304)" fill="#2988e6" stroke="#fff" stroke-width="0.3"/>
      <path id="路径_9463" data-name="路径 9463" d="M175.273,481.576H160.727a.791.791,0,0,1,0-1.576h14.545a.791.791,0,0,1,0,1.576Z" transform="translate(0 -312.788)" fill="#2988e6" stroke="#fff" stroke-width="0.3"/>
    </g>
    <rect id="矩形_19726" data-name="矩形 19726" width="24" height="24" transform="translate(1414 1156)" fill="none"/>
  </g>
</svg>
