<svg xmlns="http://www.w3.org/2000/svg" width="46.369" height="50" viewBox="0 0 46.369 50">
  <g id="schedule_1_" data-name="schedule (1)" transform="translate(-17.058)">
    <g id="Group_6491" data-name="Group 6491" transform="translate(17.058)">
      <path id="Path_4936" data-name="Path 4936" d="M39.3,365.067H20.371a3.323,3.323,0,0,1-3.312-3.333V358.4H42.477Z" transform="translate(-17.059 -323.4)" fill="#d3dcfb"/>
      <path id="Path_4937" data-name="Path 4937" d="M60.118,76.6V99.933H20.371A3.323,3.323,0,0,1,17.059,96.6v-20l23.185-8.333Z" transform="translate(-17.059 -61.599)" fill="#ebf5fc"/>
      <g id="Group_6484" data-name="Group 6484" transform="translate(3.313 18.333)">
        <path id="Path_4938" data-name="Path 4938" d="M53.739,191.067H51.979a.779.779,0,0,1-.776-.781v-1.771a.779.779,0,0,1,.776-.781h1.759a.779.779,0,0,1,.776.781v1.771A.779.779,0,0,1,53.739,191.067Z" transform="translate(-51.203 -187.734)" fill="#3c58a0"/>
        <path id="Path_4939" data-name="Path 4939" d="M122.006,191.067h-1.759a.779.779,0,0,1-.776-.781v-1.771a.779.779,0,0,1,.776-.781h1.759a.779.779,0,0,1,.776.781v1.771A.779.779,0,0,1,122.006,191.067Z" transform="translate(-112.846 -187.734)" fill="#3c58a0"/>
        <path id="Path_4940" data-name="Path 4940" d="M190.272,191.067h-1.759a.779.779,0,0,1-.776-.781v-1.771a.779.779,0,0,1,.776-.781h1.759a.779.779,0,0,1,.776.781v1.771A.779.779,0,0,1,190.272,191.067Z" transform="translate(-174.488 -187.734)" fill="#3c58a0"/>
        <path id="Path_4941" data-name="Path 4941" d="M258.539,191.067h-1.759a.779.779,0,0,1-.776-.781v-1.771a.779.779,0,0,1,.776-.781h1.759a.779.779,0,0,1,.776.781v1.771A.779.779,0,0,1,258.539,191.067Z" transform="translate(-236.131 -187.734)" fill="#3c58a0"/>
        <path id="Path_4942" data-name="Path 4942" d="M326.794,191.067h-1.759a.779.779,0,0,1-.776-.781v-1.771a.779.779,0,0,1,.776-.781h1.759a.779.779,0,0,1,.776.781v1.771A.779.779,0,0,1,326.794,191.067Z" transform="translate(-297.764 -187.734)" fill="#3c58a0"/>
        <path id="Path_4943" data-name="Path 4943" d="M395.061,191.067H393.3a.779.779,0,0,1-.776-.781v-1.771a.779.779,0,0,1,.776-.781h1.759a.779.779,0,0,1,.776.781v1.771A.779.779,0,0,1,395.061,191.067Z" transform="translate(-359.407 -187.734)" fill="#3c58a0"/>
        <path id="Path_4944" data-name="Path 4944" d="M53.739,259.333H51.979a.779.779,0,0,1-.776-.781v-1.771a.779.779,0,0,1,.776-.781h1.759a.779.779,0,0,1,.776.781v1.771A.779.779,0,0,1,53.739,259.333Z" transform="translate(-51.203 -249.333)" fill="#3c58a0"/>
        <path id="Path_4945" data-name="Path 4945" d="M122.006,259.333h-1.759a.779.779,0,0,1-.776-.781v-1.771a.779.779,0,0,1,.776-.781h1.759a.779.779,0,0,1,.776.781v1.771A.779.779,0,0,1,122.006,259.333Z" transform="translate(-112.846 -249.333)" fill="#3c58a0"/>
        <path id="Path_4946" data-name="Path 4946" d="M190.272,259.333h-1.759a.779.779,0,0,1-.776-.781v-1.771a.779.779,0,0,1,.776-.781h1.759a.779.779,0,0,1,.776.781v1.771A.779.779,0,0,1,190.272,259.333Z" transform="translate(-174.488 -249.333)" fill="#3c58a0"/>
        <path id="Path_4947" data-name="Path 4947" d="M259.315,259.333v-2.5a.831.831,0,0,0-.828-.833h-1.656a.831.831,0,0,0-.828.833V258.5a.831.831,0,0,0,.828.833Z" transform="translate(-236.131 -249.333)" fill="#3c58a0"/>
        <path id="Path_4948" data-name="Path 4948" d="M53.739,327.6H51.979a.779.779,0,0,1-.776-.781v-1.771a.779.779,0,0,1,.776-.781h1.759a.779.779,0,0,1,.776.781v1.771A.779.779,0,0,1,53.739,327.6Z" transform="translate(-51.203 -310.934)" fill="#3c58a0"/>
        <path id="Path_4949" data-name="Path 4949" d="M122.006,327.6h-1.759a.779.779,0,0,1-.776-.781v-1.771a.779.779,0,0,1,.776-.781h1.759a.779.779,0,0,1,.776.781v1.771A.779.779,0,0,1,122.006,327.6Z" transform="translate(-112.846 -310.934)" fill="#3c58a0"/>
        <path id="Path_4950" data-name="Path 4950" d="M190.272,327.6h-1.759a.779.779,0,0,1-.776-.781v-1.771a.779.779,0,0,1,.776-.781h1.759a.779.779,0,0,1,.776.781v1.771A.779.779,0,0,1,190.272,327.6Z" transform="translate(-174.488 -310.934)" fill="#3c58a0"/>
      </g>
      <path id="Path_4951" data-name="Path 4951" d="M399.751,187.733h-1.713a.793.793,0,0,0-.293.057.8.8,0,0,1,.506.748v1.724a.8.8,0,0,1-.506.748.792.792,0,0,0,.293.057h1.713a.8.8,0,0,0,.8-.8v-1.724A.8.8,0,0,0,399.751,187.733Z" transform="translate(-360.807 -169.4)" fill="#2a428c"/>
      <path id="Path_4952" data-name="Path 4952" d="M331.484,187.733h-1.713a.793.793,0,0,0-.293.057.8.8,0,0,1,.506.748v1.724a.8.8,0,0,1-.506.748.792.792,0,0,0,.293.057h1.713a.8.8,0,0,0,.8-.8v-1.724A.8.8,0,0,0,331.484,187.733Z" transform="translate(-299.164 -169.4)" fill="#2a428c"/>
      <path id="Path_4953" data-name="Path 4953" d="M263.229,187.733h-1.712a.793.793,0,0,0-.293.057.8.8,0,0,1,.506.748v1.724a.8.8,0,0,1-.506.748.791.791,0,0,0,.293.057h1.712a.8.8,0,0,0,.8-.8v-1.724A.8.8,0,0,0,263.229,187.733Z" transform="translate(-237.532 -169.4)" fill="#2a428c"/>
      <path id="Path_4954" data-name="Path 4954" d="M194.962,187.733h-1.713a.793.793,0,0,0-.293.057.8.8,0,0,1,.507.748v1.724a.8.8,0,0,1-.507.748.792.792,0,0,0,.293.057h1.713a.8.8,0,0,0,.8-.8v-1.724A.8.8,0,0,0,194.962,187.733Z" transform="translate(-175.889 -169.4)" fill="#2a428c"/>
      <path id="Path_4955" data-name="Path 4955" d="M126.695,187.733h-1.713a.793.793,0,0,0-.293.057.8.8,0,0,1,.506.748v1.724a.8.8,0,0,1-.506.748.792.792,0,0,0,.293.057h1.713a.8.8,0,0,0,.8-.8v-1.724A.8.8,0,0,0,126.695,187.733Z" transform="translate(-114.246 -169.4)" fill="#2a428c"/>
      <path id="Path_4956" data-name="Path 4956" d="M58.429,187.733H56.716a.793.793,0,0,0-.293.057.8.8,0,0,1,.507.748v1.724a.8.8,0,0,1-.507.748.792.792,0,0,0,.293.057h1.713a.8.8,0,0,0,.8-.8v-1.724A.8.8,0,0,0,58.429,187.733Z" transform="translate(-52.603 -169.4)" fill="#2a428c"/>
      <path id="Path_4957" data-name="Path 4957" d="M58.429,256H56.716a.8.8,0,0,0-.293.057.8.8,0,0,1,.507.748v1.724a.8.8,0,0,1-.507.748.792.792,0,0,0,.293.057h1.713a.8.8,0,0,0,.8-.8V256.8A.8.8,0,0,0,58.429,256Z" transform="translate(-52.603 -231)" fill="#2a428c"/>
      <path id="Path_4958" data-name="Path 4958" d="M58.429,324.267H56.716a.793.793,0,0,0-.293.057.8.8,0,0,1,.507.748V326.8a.8.8,0,0,1-.507.748.792.792,0,0,0,.293.057h1.713a.8.8,0,0,0,.8-.8v-1.724A.8.8,0,0,0,58.429,324.267Z" transform="translate(-52.603 -292.6)" fill="#2a428c"/>
      <path id="Path_4959" data-name="Path 4959" d="M126.695,256h-1.713a.8.8,0,0,0-.293.057.8.8,0,0,1,.506.748v1.724a.8.8,0,0,1-.506.748.792.792,0,0,0,.293.057h1.713a.8.8,0,0,0,.8-.8V256.8A.8.8,0,0,0,126.695,256Z" transform="translate(-114.246 -231)" fill="#2a428c"/>
      <path id="Path_4960" data-name="Path 4960" d="M126.695,324.267h-1.713a.793.793,0,0,0-.293.057.8.8,0,0,1,.506.748V326.8a.8.8,0,0,1-.506.748.792.792,0,0,0,.293.057h1.713a.8.8,0,0,0,.8-.8v-1.724A.8.8,0,0,0,126.695,324.267Z" transform="translate(-114.246 -292.6)" fill="#2a428c"/>
      <path id="Path_4961" data-name="Path 4961" d="M194.962,256h-1.713a.8.8,0,0,0-.293.057.8.8,0,0,1,.507.748v1.724a.8.8,0,0,1-.507.748.792.792,0,0,0,.293.057h1.713a.8.8,0,0,0,.8-.8V256.8A.8.8,0,0,0,194.962,256Z" transform="translate(-175.889 -231)" fill="#2a428c"/>
      <path id="Path_4962" data-name="Path 4962" d="M264.027,259.333V256.8a.8.8,0,0,0-.8-.8h-1.713a.794.794,0,0,0-.293.057.8.8,0,0,1,.507.748v1.724a.8.8,0,0,1-.507.748.792.792,0,0,0,.293.057h2.512Z" transform="translate(-237.531 -231)" fill="#2a428c"/>
      <path id="Path_4963" data-name="Path 4963" d="M194.962,324.267h-1.713a.793.793,0,0,0-.293.057.8.8,0,0,1,.507.748V326.8a.8.8,0,0,1-.507.748.792.792,0,0,0,.293.057h1.713a.8.8,0,0,0,.8-.8v-1.724A.8.8,0,0,0,194.962,324.267Z" transform="translate(-175.889 -292.6)" fill="#2a428c"/>
      <path id="Path_4964" data-name="Path 4964" d="M437.114,143.721v24.3h2.3V144.686Z" transform="translate(-396.356 -129.686)" fill="#d3dcfb"/>
      <path id="Path_4965" data-name="Path 4965" d="M60.118,45.8V37.467a3.323,3.323,0,0,0-3.312-3.333H20.371a3.323,3.323,0,0,0-3.312,3.333V45.8Z" transform="translate(-17.059 -30.801)" fill="#29abe2"/>
      <g id="Group_6490" data-name="Group 6490" transform="translate(7.53 5.912)">
        <g id="Group_6489" data-name="Group 6489">
          <g id="Group_6485" data-name="Group 6485">
            <path id="Path_4966" data-name="Path 4966" d="M97.571,62.05H95.416a.755.755,0,0,1,0-1.509h2.156a.755.755,0,0,1,0,1.509Z" transform="translate(-94.666 -60.541)" fill="#0071bc"/>
          </g>
          <g id="Group_6486" data-name="Group 6486" transform="translate(5.296)">
            <path id="Path_4967" data-name="Path 4967" d="M152.153,62.05H150a.755.755,0,0,1,0-1.509h2.156a.755.755,0,0,1,0,1.509Z" transform="translate(-149.248 -60.541)" fill="#0071bc"/>
          </g>
          <g id="Group_6487" data-name="Group 6487" transform="translate(19.045)">
            <path id="Path_4968" data-name="Path 4968" d="M293.848,62.05h-2.156a.755.755,0,0,1,0-1.509h2.156a.755.755,0,0,1,0,1.509Z" transform="translate(-290.943 -60.541)" fill="#0071bc"/>
          </g>
          <g id="Group_6488" data-name="Group 6488" transform="translate(24.341)">
            <path id="Path_4969" data-name="Path 4969" d="M348.431,62.05h-2.156a.755.755,0,0,1,0-1.509h2.156a.755.755,0,0,1,0,1.509Z" transform="translate(-345.526 -60.541)" fill="#0071bc"/>
          </g>
        </g>
      </g>
      <path id="Path_4970" data-name="Path 4970" d="M123.6,6.25a2.07,2.07,0,1,1-4.14,0V2.083a2.07,2.07,0,1,1,4.14,0V6.25Z" transform="translate(-109.523)" fill="#ebf5fc"/>
      <path id="Path_4971" data-name="Path 4971" d="M319.876,6.25a2.07,2.07,0,1,1-4.14,0V2.083a2.07,2.07,0,1,1,4.14,0V6.25Z" transform="translate(-286.755)" fill="#ebf5fc"/>
      <path id="Path_4972" data-name="Path 4972" d="M326.381,0a2.05,2.05,0,0,0-1.148.35,2.084,2.084,0,0,1,.922,1.733V6.25a2.084,2.084,0,0,1-.922,1.733,2.051,2.051,0,0,0,1.148.35,2.077,2.077,0,0,0,2.07-2.083V2.083A2.076,2.076,0,0,0,326.381,0Z" transform="translate(-295.331)" fill="#d3dcfb"/>
      <path id="Path_4973" data-name="Path 4973" d="M130.1,0a2.05,2.05,0,0,0-1.148.35,2.084,2.084,0,0,1,.922,1.733V6.25a2.085,2.085,0,0,1-.922,1.733,2.051,2.051,0,0,0,1.148.35,2.077,2.077,0,0,0,2.07-2.083V2.083A2.077,2.077,0,0,0,130.1,0Z" transform="translate(-118.098)" fill="#d3dcfb"/>
      <path id="Path_4974" data-name="Path 4974" d="M405.29,34.133h-2.3a3.322,3.322,0,0,1,3.312,3.333V45.8h2.3V37.466A3.323,3.323,0,0,0,405.29,34.133Z" transform="translate(-365.543 -30.8)" fill="#0071bc"/>
      <path id="Path_4975" data-name="Path 4975" d="M17.058,111.74H60.117v1.509H17.058Z" transform="translate(-17.058 -100.828)" fill="#0071bc"/>
    </g>
    <ellipse id="Ellipse_503" data-name="Ellipse 503" cx="12.42" cy="12.5" rx="12.42" ry="12.5" transform="translate(38.587 25)" fill="#4fabf7"/>
    <ellipse id="Ellipse_504" data-name="Ellipse 504" cx="9.108" cy="9.167" rx="9.108" ry="9.167" transform="translate(41.899 28.333)" fill="#ebf5fc"/>
    <g id="Group_6493" data-name="Group 6493" transform="translate(50.257 30.912)">
      <g id="Group_6492" data-name="Group 6492">
        <path id="Path_4976" data-name="Path 4976" d="M359.966,322.216a.752.752,0,0,1-.75-.754v-4.167a.75.75,0,1,1,1.5,0v4.167A.752.752,0,0,1,359.966,322.216Z" transform="translate(-359.216 -316.54)" fill="#3c58a0"/>
      </g>
    </g>
    <g id="Group_6495" data-name="Group 6495" transform="translate(51.913 36.746)">
      <g id="Group_6494" data-name="Group 6494">
        <path id="Path_4977" data-name="Path 4977" d="M379.516,377.783h-2.484a.755.755,0,0,1,0-1.509h2.484a.755.755,0,0,1,0,1.509Z" transform="translate(-376.282 -376.274)" fill="#3c58a0"/>
      </g>
    </g>
    <path id="Path_4978" data-name="Path 4978" d="M356.244,256c-.388,0-.771.019-1.149.054a12.508,12.508,0,0,1,0,24.892c.379.035.762.054,1.15.054a12.5,12.5,0,0,0,0-25Z" transform="translate(-305.236 -231)" fill="#1886ea"/>
    <path id="Path_4979" data-name="Path 4979" d="M356.252,290.133a9.137,9.137,0,0,0-1.149.072,9.175,9.175,0,0,1,0,18.189,9.163,9.163,0,1,0,1.149-18.261Z" transform="translate(-305.245 -261.8)" fill="#d3dcfb"/>
    <ellipse id="Ellipse_505" data-name="Ellipse 505" cx="1.656" cy="1.667" rx="1.656" ry="1.667" transform="translate(49.351 35.833)" fill="#ffdd40"/>
  </g>
</svg>
