<svg xmlns="http://www.w3.org/2000/svg" width="32" height="32" viewBox="0 0 32 32">
  <g id="组_9751" data-name="组 9751" transform="translate(-216 -256)">
    <g id="椭圆_705" data-name="椭圆 705" transform="translate(216 256)" fill="none" stroke="#2fb355" stroke-width="1">
      <circle cx="16" cy="16" r="16" stroke="none"/>
      <circle cx="16" cy="16" r="15.5" fill="none"/>
    </g>
    <path id="路径_9509" data-name="路径 9509" d="M100.612,88.095a5.155,5.155,0,1,0-8.8,3.645,5.24,5.24,0,0,0,.577.5,8.722,8.722,0,0,0-5.567,6.956.784.784,0,0,0,.669.884.794.794,0,0,0,.108.007.784.784,0,0,0,.776-.677,7.174,7.174,0,0,1,7.082-6.16,5.155,5.155,0,0,0,5.155-5.155Zm-5.155,3.587a3.587,3.587,0,1,1,3.587-3.587A3.591,3.591,0,0,1,95.457,91.682Zm7.21,4.28h-1.772V94.19a.784.784,0,1,0-1.568,0v1.772H97.555a.784.784,0,0,0,0,1.568h1.772V99.3a.784.784,0,1,0,1.568,0V97.53h1.772a.784.784,0,0,0,0-1.568Z" transform="translate(137.186 180.06)" fill="#2fb355"/>
  </g>
</svg>
