<svg xmlns="http://www.w3.org/2000/svg" width="15.329" height="15.733" viewBox="0 0 15.329 15.733">
  <path id="Sent" d="M99.794,84.151a.925.925,0,0,0,1.4-.522l3.443-12.166a1.285,1.285,0,0,0-1.772-1.524L89.9,75.923a.93.93,0,0,0-.122,1.62l2.706,1.785a.568.568,0,1,0,.624-.948l-2.4-1.581,12.631-5.829a.144.144,0,0,1,.1-.008.155.155,0,0,1,.1.192l-3.364,11.892-2.4-1.585a.71.71,0,0,0-.971.183L95.492,83.5v-3.73l4.976-4.1a.568.568,0,1,0-.722-.876l-5.13,4.228a.71.71,0,0,0-.259.548v5.272a.71.71,0,0,0,1.289.409l1.85-2.618,2.3,1.516Z" transform="translate(-89.357 -69.82)" fill="#2988e6"/>
</svg>
