<svg xmlns="http://www.w3.org/2000/svg" width="44" height="44" viewBox="0 0 44 44">
  <g id="组_10130" data-name="组 10130" transform="translate(-319 -50)">
    <circle id="椭圆_700" data-name="椭圆 700" cx="22" cy="22" r="22" transform="translate(319 50)" opacity="0.4"/>
    <g id="组_8646" data-name="组 8646" transform="translate(8 12.319)">
      <path id="路径_5820" data-name="路径 5820" d="M280.362,273.444a5.515,5.515,0,0,1-3.267-1.179,10.221,10.221,0,0,1-2.535-2.861,13.129,13.129,0,0,1-1.755-4.616,6.916,6.916,0,0,1,.565-4.529,4.2,4.2,0,0,1,1.7-1.668,5.308,5.308,0,0,1,2.585-.572,1.213,1.213,0,0,1-.011,2.426h-.011a2.208,2.208,0,0,0-2.153,1.008c-.811,1.433-.318,4.305,1.145,6.682a7.77,7.77,0,0,0,1.914,2.183,3,3,0,0,0,1.918.7c1.156-.053,2.6-1.152,3.782-2.869a10,10,0,0,0,1.895-5.412c-.038-1.6-.784-2.308-2.418-2.308h0a1.213,1.213,0,0,1,0-2.426h0a4.757,4.757,0,0,1,3.642,1.387,4.887,4.887,0,0,1,1.2,3.293,12.315,12.315,0,0,1-2.319,6.841c-1.649,2.4-3.714,3.828-5.67,3.919C280.5,273.44,280.43,273.444,280.362,273.444Z" transform="translate(51.931 -209.491)" fill="#fff"/>
      <path id="路径_5821" data-name="路径 5821" d="M430.336,631.346a3.9,3.9,0,0,1-2.244-.618c-.019-.015-.057-.042-.095-.068a3.861,3.861,0,0,1-1.474-1.925,8.134,8.134,0,0,1,.224-4.874.947.947,0,0,1,1.819.531,6.521,6.521,0,0,0-.254,3.714,1.98,1.98,0,0,0,.8,1.023c.049.034.095.068.14.106a2.759,2.759,0,0,0,1.9.087,3.587,3.587,0,0,0,2.054-2.179.948.948,0,0,1,1.74.754,5.233,5.233,0,0,1-3.528,3.324A4.771,4.771,0,0,1,430.336,631.346ZM429.29,629.261Z" transform="translate(-95.828 -560.86)" fill="#fff"/>
      <path id="路径_5822" data-name="路径 5822" d="M608.888,660.688m-1.588,0a1.588,1.588,0,1,0,1.588-1.588A1.588,1.588,0,0,0,607.3,660.688Z" transform="translate(-270.027 -595.407)" fill="#66afff"/>
      <path id="路径_5823" data-name="路径 5823" d="M590.054,644.174a2.333,2.333,0,0,1-2.308-2.039,2.326,2.326,0,1,1,2.6,2.02A1.813,1.813,0,0,1,590.054,644.174Zm0-3.172a.985.985,0,0,0-.106.008.847.847,0,0,0-.735.947.848.848,0,0,0,1.683-.212.849.849,0,0,0-.841-.743Z" transform="translate(-251.198 -576.571)" fill="#fff"/>
      <path id="路径_5824" data-name="路径 5824" d="M600.614,654.328a1.914,1.914,0,1,1,1.914-1.914A1.916,1.916,0,0,1,600.614,654.328Zm0-3.642a1.724,1.724,0,1,0,1.724,1.724A1.726,1.726,0,0,0,600.614,650.686Z" transform="translate(-261.754 -587.133)" fill="#66afff"/>
      <path id="路径_5826" data-name="路径 5826" d="M532.829,250.265a1.615,1.615,0,0,0-3.229,0,1.492,1.492,0,0,0,.508,1.175,1.7,1.7,0,0,0,1.11.39A1.527,1.527,0,0,0,532.829,250.265Z" transform="translate(-195.267 -200.534)" fill="#fff"/>
      <path id="路径_5829" data-name="路径 5829" d="M364.529,250.765a1.615,1.615,0,0,0-3.229,0,1.492,1.492,0,0,0,.508,1.175,1.7,1.7,0,0,0,1.11.39A1.527,1.527,0,0,0,364.529,250.765Z" transform="translate(-33.335 -201.016)" fill="#fff"/>
      <path id="路径_5830" data-name="路径 5830" d="M365.9,251.571a1.419,1.419,0,0,1,.481,1.118,1.539,1.539,0,1,1-1.539-1.489A1.619,1.619,0,0,1,365.9,251.571Z" transform="translate(-35.259 -202.94)" fill="#fff"/>
    </g>
  </g>
</svg>
