<?xml version="1.0" standalone="no"?><!DOCTYPE svg PUBLIC "-//W3C//DTD SVG 1.1//EN" "http://www.w3.org/Graphics/SVG/1.1/DTD/svg11.dtd"><svg t="1628834234728" class="icon" viewBox="0 0 1024 1024" version="1.1" xmlns="http://www.w3.org/2000/svg" p-id="17483" xmlns:xlink="http://www.w3.org/1999/xlink" width="128" height="128"><defs><style type="text/css"></style></defs><path d="M0.0512 0.0512m102.4 0l819.0976 0q102.4 0 102.4 102.4l0 819.0976q0 102.4-102.4 102.4l-819.0976 0q-102.4 0-102.4-102.4l0-819.0976q0-102.4 102.4-102.4Z" fill="#000000" opacity=".6" p-id="17484" data-spm-anchor-id="a313x.7781069.0.i5" class="selected"></path><path d="M692.5312 331.4944a30.592 30.592 0 0 1 0 43.264l-137.2416 137.216 137.216 137.2672a30.592 30.592 0 0 1-43.264 43.264l-137.216-137.216-137.2416 137.216a30.592 30.592 0 1 1-43.264-43.264l137.216-137.2416-137.216-137.216a30.592 30.592 0 1 1 43.264-43.2896l137.216 137.216 137.216-137.216a30.592 30.592 0 0 1 43.2896 0z" fill="#FFFFFF" p-id="17485"></path></svg>