<svg xmlns="http://www.w3.org/2000/svg" width="24" height="24" viewBox="0 0 24 24">
  <g id="组_10501" data-name="组 10501" transform="translate(0 26)">
    <rect id="矩形_20493" data-name="矩形 20493" width="24" height="24" transform="translate(0 -26)" fill="rgba(255,255,255,0.01)"/>
    <g id="组_10503" data-name="组 10503" transform="translate(2.374 -24.033)">
      <path id="联合_6" data-name="联合 6" d="M-414.926-176.463h-14.635a.812.812,0,0,1-.813-.813.813.813,0,0,1,.813-.814h12.672l-3.49-3.49a.812.812,0,0,1,0-1.149.813.813,0,0,1,1.15,0l4.869,4.869a.811.811,0,0,1,.248.584.812.812,0,0,1-.366.679h0l-.015.01,0,0-.012.007-.006,0-.01.006-.008,0-.009,0-.009,0-.009,0-.009,0-.009,0-.008,0-.01,0-.008,0-.012,0-.006,0-.014.005,0,0-.016.006h0l-.017.006h0a.81.81,0,0,1-.152.033h0l-.018,0h-.079Z" transform="translate(432 185)" fill="#fece55" stroke="#fece55" stroke-linecap="round" stroke-width="0.4"/>
      <path id="联合_7" data-name="联合 7" d="M-425.257-176.7l-4.879-4.879a.811.811,0,0,1-.181-.277h0l-.006-.016,0,0,0-.013,0-.007,0-.01,0-.01,0-.008,0-.012,0-.007,0-.013v-.005l0-.014v0l0-.015v0l0-.016v0l0-.015v0l0-.014v-.059s0-.009,0-.013v-.007q0-.01,0-.02h0v0c0-.006,0-.012,0-.018v-.058l0-.019h0a.808.808,0,0,1,.046-.189v0l.006-.016v0l.006-.014,0-.005.005-.012,0-.007,0-.01,0-.008,0-.009.005-.01,0-.008.006-.01,0-.007.006-.01,0-.007.006-.01,0-.007.006-.008.006-.009,0-.007.008-.011,0,0,.01-.013v0a.811.811,0,0,1,.643-.316h14.635a.813.813,0,0,1,.814.813.814.814,0,0,1-.814.814H-427.6l3.49,3.49a.813.813,0,0,1,0,1.15.809.809,0,0,1-.574.238A.81.81,0,0,1-425.257-176.7Z" transform="translate(432.325 193.944)" fill="#fece55" stroke="#fece55" stroke-linecap="round" stroke-width="0.4"/>
    </g>
  </g>
</svg>
