<svg xmlns="http://www.w3.org/2000/svg" width="18.776" height="18.771" viewBox="0 0 18.776 18.771">
  <path id="路径_5780" data-name="路径 5780" d="M37.015,23.461a.046.046,0,0,0-.01-.022v-.011a.436.436,0,0,0-.695-.078l-2.3,2.305a1.782,1.782,0,0,1-2.486-2.485l2.318-2.294a.446.446,0,0,0-.1-.707,7.09,7.09,0,0,0-8.382,1.109,6.937,6.937,0,0,0-1.746,6.77.43.43,0,0,1-.123.425l-3.6,3.593a3.43,3.43,0,0,0,.436,4.779,3.428,3.428,0,0,0,4.79.416l3.583-3.581a.46.46,0,0,1,.425-.124,6.958,6.958,0,0,0,6.772-1.735,7.072,7.072,0,0,0,1.106-8.361Zm-5.33,6.6a.938.938,0,0,1-.662.274h-.012a.9.9,0,0,1-.644-.279l-3.244-3.242A.931.931,0,1,1,28.439,25.5l3.245,3.247a.923.923,0,0,1,0,1.317Z" transform="translate(-19.119 -19.287)" fill="#fece55"/>
</svg>
