<svg xmlns="http://www.w3.org/2000/svg" width="14.615" height="15.315" viewBox="0 0 14.615 15.315">
  <path id="Trash-inbox" d="M66.793,77.206a.968.968,0,0,0,.978.956h7.045a.968.968,0,0,0,.977-.956V67.053h-9Zm7.045-11.869a.2.2,0,0,0-.2-.2h-4.7a.2.2,0,0,0-.2.2v.577h5.1Zm-6.268.577v-.577A1.355,1.355,0,0,1,68.937,64h4.7A1.356,1.356,0,0,1,75,65.337v.577h3.02a.576.576,0,1,1,0,1.152H76.971V77.206a2.132,2.132,0,0,1-2.155,2.109H67.771a2.132,2.132,0,0,1-2.155-2.109V67.053H64.59a.582.582,0,0,1-.59-.577.571.571,0,0,1,.59-.563h2.981Zm3.724,10.521a.582.582,0,0,1-.59-.577V69.727a.589.589,0,0,1,1.178,0v6.131A.581.581,0,0,1,71.293,76.434Zm2.745,0a.582.582,0,0,1-.589-.577V69.727a.589.589,0,0,1,1.178,0v6.131A.6.6,0,0,1,74.038,76.434Zm-5.491,0a.582.582,0,0,1-.589-.577V69.727a.589.589,0,0,1,1.178,0v6.131A.582.582,0,0,1,68.548,76.434Z" transform="translate(-64 -64)" fill="#f45959"/>
</svg>
