<svg xmlns="http://www.w3.org/2000/svg" width="13.367" height="14.868" viewBox="0 0 13.367 14.868">
  <path id="路径_8444" data-name="路径 8444" d="M121.717,76.073a4.152,4.152,0,0,0,1.395-3.1V68.954a.47.47,0,0,0-.115-.431,5.831,5.831,0,0,0-4.076-1.392,5.954,5.954,0,0,0-3.912,1.252h0a.476.476,0,0,0-.228.405v4.184a4.152,4.152,0,0,0,1.413,3.119,5.571,5.571,0,0,0-3.833,4.8.924.924,0,0,0,.92,1.009H124.7a.925.925,0,0,0,.921-1.01A5.608,5.608,0,0,0,121.717,76.073Zm.439-7.022v3.094a7.79,7.79,0,0,0-6.418-.006V69.022a5.109,5.109,0,0,1,3.184-.936A5.2,5.2,0,0,1,122.156,69.051Zm-6.406,4.176.014.018a5.433,5.433,0,0,1,3.171-.839,5.348,5.348,0,0,1,3.2.872,3.207,3.207,0,0,1-6.39-.051Zm-2.433,7.715a4.688,4.688,0,0,1,2.561-3.684,3.148,3.148,0,0,0-.149.951v.248a.992.992,0,1,0,.956-.031v-.217a2.183,2.183,0,0,1,.484-1.372c.048-.008.1-.019.145-.026l.01,0a4.164,4.164,0,0,0,3.242,0,2.176,2.176,0,0,1,.5,1.4v.206a.978.978,0,0,0-.494.847v.587a.4.4,0,1,0,.8,0v-.587a.184.184,0,0,1,.107-.167.475.475,0,0,0,.068.007.462.462,0,0,0,.078-.008.184.184,0,0,1,.109.168v.587a.4.4,0,1,0,.8,0v-.587a.978.978,0,0,0-.506-.854v-.2a3.146,3.146,0,0,0-.192-1.076,4.651,4.651,0,0,1,2.83,3.809H113.317Zm2.918-1.833a.2.2,0,1,1-.2.2A.2.2,0,0,1,116.235,79.109Z" transform="translate(-112.307 -67.08)" fill="#f8ae29" stroke="#f8ae29" stroke-width="0.1"/>
</svg>
