<svg xmlns="http://www.w3.org/2000/svg" width="14.754" height="10.722" viewBox="0 0 14.754 10.722">
  <g id="组_8648" data-name="组 8648" transform="translate(0.1 0.1)">
    <path id="路径_8439" data-name="路径 8439" d="M38.157,178.517a2.113,2.113,0,0,1,2.113,2.046V182.7l3.136-2.486a.512.512,0,0,1,.844.394v6.328a.512.512,0,0,1-.834.414L40.28,184.86v2.082a2.113,2.113,0,0,1-2.082,2.1H31.809a2.108,2.108,0,0,1-2.113-2.046v-6.379a2.107,2.107,0,0,1,2.077-2.1Zm.143.788H31.65a1.12,1.12,0,0,0-1.146,1.09v6.65a1.115,1.115,0,0,0,1.1,1.074H38.3a1.115,1.115,0,0,0,1.12-1.09v-6.65a1.115,1.115,0,0,0-1.1-1.11Zm5.243,1.893L40.3,183.756l3.248,2.558Zm0,0" transform="translate(-29.696 -178.517)" fill="#30b354" stroke="#30b354" stroke-width="0.2"/>
    <path id="路径_8440" data-name="路径 8440" d="M168.193,317.7m-.6,0a.6.6,0,1,0,.6-.6.6.6,0,0,0-.6.6Z" transform="translate(-165.528 -315.022)" fill="#30b354"/>
  </g>
</svg>
