<svg xmlns="http://www.w3.org/2000/svg" width="12" height="12" viewBox="0 0 12 12">
  <path id="路径_12949" data-name="路径 12949" d="M4.06,0a.43.43,0,0,1,.32.143A22.467,22.467,0,0,1,6.8,3.664c.012.022.33.605.085.856s-.561.092-.726-.219a21.831,21.831,0,0,0-2.11-3.195C3.186,2.153.861,5.193.861,7.838a3.3,3.3,0,0,0,.933,2.319,3.167,3.167,0,0,0,2.266.962,3.112,3.112,0,0,0,1.482-.373.427.427,0,0,1,.583.187.446.446,0,0,1-.183.6A4,4,0,0,1,4.06,12,4.11,4.11,0,0,1,0,7.853C0,4.264,3.592.31,3.741.143A.431.431,0,0,1,4.061,0ZM6.651,5.725a.946.946,0,0,1,.534.559l.025.078L7.941,9.1a.05.05,0,0,0,.036.036.049.049,0,0,0,.048-.015l.008-.012.706-1.561A.935.935,0,0,1,9.51,7l.077,0h1.97a.453.453,0,0,1,.056.9l-.056,0H9.587a.049.049,0,0,0-.033.014l-.011.015L8.836,9.488A.927.927,0,0,1,7.109,9.41l-.022-.071L6.355,6.6a.05.05,0,0,0-.035-.035.048.048,0,0,0-.047.014l-.01.017L5.809,7.767a.937.937,0,0,1-.793.6l-.076,0H2.7a.453.453,0,0,1-.056-.9l.056,0H4.94a.049.049,0,0,0,.035-.015l.01-.017.453-1.172a.928.928,0,0,1,1.212-.537Z" transform="translate(0)" fill="#e24445"/>
</svg>
