<svg xmlns="http://www.w3.org/2000/svg" width="13" height="15" viewBox="0 0 13 15">
  <g id="组_10722" data-name="组 10722" transform="translate(-76.67)">
    <path id="路径_12955" data-name="路径 12955" d="M84.11,270.688a2.5,2.5,0,0,0-1.848-.821h-1.4a2.5,2.5,0,0,0-1.848.821l-2.26,2.5a.316.316,0,0,0,.011.435l.769.769a.3.3,0,0,0,.234.092.314.314,0,0,0,.227-.107l1.622-1.854v8.17a.316.316,0,0,0,.316.316h1.088a.316.316,0,0,0,.316-.316v-4.759h.456v4.759a.316.316,0,0,0,.316.316h1.087a.314.314,0,0,0,.315-.316v-8.17l1.622,1.853a.317.317,0,0,0,.228.107.305.305,0,0,0,.233-.092l.769-.769a.315.315,0,0,0,.011-.435Zm1.272,3.02-1.953-2.232a.315.315,0,0,0-.553.208v8.695h-.457v-4.76a.316.316,0,0,0-.316-.316H81.016a.316.316,0,0,0-.316.316v4.76h-.456v-8.7a.315.315,0,0,0-.553-.208l-1.953,2.232-.318-.318,2.058-2.279a1.864,1.864,0,0,1,1.38-.613h1.4a1.864,1.864,0,0,1,1.38.613L85.7,273.39Z" transform="translate(0 -266.01)" fill="#e24445"/>
    <path id="路径_12956" data-name="路径 12956" d="M808.21,0h-1.451a.313.313,0,1,0,0,.626h1.135V3.594h-.771a.313.313,0,1,0,0,.626h.771V7.187h-.771a.313.313,0,1,0,0,.626h.771V10.78h-.771a.313.313,0,1,0,0,.626h.771v2.968h-1.135a.313.313,0,1,0,0,.626h1.451a.314.314,0,0,0,.315-.313V.313A.314.314,0,0,0,808.21,0Z" transform="translate(-718.855 0)" fill="#e24445"/>
    <path id="路径_12957" data-name="路径 12957" d="M289.915,3.531a1.766,1.766,0,1,0-1.766-1.766A1.768,1.768,0,0,0,289.915,3.531Zm0-2.9a1.134,1.134,0,1,1-1.135,1.134A1.136,1.136,0,0,1,289.915.631Z" transform="translate(-208.309)" fill="#e24445"/>
  </g>
</svg>
