<svg xmlns="http://www.w3.org/2000/svg" width="8" height="15" viewBox="0 0 8 15">
  <g id="组_10721" data-name="组 10721" transform="translate(-284.816 -78.848)">
    <path id="路径_12953" data-name="路径 12953" d="M291.067,86.661v-5.6a2.251,2.251,0,0,0-4.5,0v5.6a3.882,3.882,0,0,0-1.749,3.25,3.951,3.951,0,0,0,3.208,3.856,4.015,4.015,0,0,0,4.478-2.33A3.9,3.9,0,0,0,291.067,86.661Zm-2.251,6.43a3.222,3.222,0,0,1-3.111-2.326,3.154,3.154,0,0,1,1.445-3.572.375.375,0,0,0,.18-.39.265.265,0,0,0,0-.063V84.206H288.9a.38.38,0,1,0,0-.76H287.33v-.618H288.9a.38.38,0,1,0,0-.76H287.33V81.055a1.479,1.479,0,0,1,2.957,0V86.74a.535.535,0,0,0,0,.063.38.38,0,0,0,.18.39,3.154,3.154,0,0,1,1.447,3.564A3.222,3.222,0,0,1,288.816,93.091Z" transform="translate(0)" fill="#e24445"/>
    <path id="路径_12954" data-name="路径 12954" d="M508.122,677.88a.381.381,0,0,0-.38.38,1.471,1.471,0,0,1-1,1.393.381.381,0,0,0,.124.741.339.339,0,0,0,.122-.02,2.232,2.232,0,0,0,1.522-2.113.381.381,0,0,0-.391-.38Z" transform="translate(-217.748 -588.664)" fill="#e24445"/>
  </g>
</svg>
