<svg xmlns="http://www.w3.org/2000/svg" width="10" height="12.6" viewBox="0 0 10 12.6">
  <g id="组_10720" data-name="组 10720" transform="translate(-122.763 -20.483)">
    <path id="路径_12951" data-name="路径 12951" d="M128.036,20.589a.4.4,0,0,0-.516-.019c-.249.2-6.078,4.929-4.479,9.194a5.026,5.026,0,0,0,4.811,3.319,4.774,4.774,0,0,0,4.455-2.752C133.868,26.723,131.177,23.517,128.036,20.589Zm3.545,9.431a3.986,3.986,0,0,1-3.73,2.276,4.261,4.261,0,0,1-4.071-2.808c-1.223-3.262,2.88-7.128,3.973-8.084C130.983,24.459,132.841,27.11,131.581,30.02Z" transform="translate(0 0)" fill="#e24445"/>
    <path id="路径_12952" data-name="路径 12952" d="M336.6,344.389a2.236,2.236,0,1,0,2.023,2.225A2.134,2.134,0,0,0,336.6,344.389Zm0,3.656a1.447,1.447,0,1,1,1.227-1.43A1.342,1.342,0,0,1,336.6,348.045Zm1-4.82a.265.265,0,0,0,.358.11.639.639,0,0,1,.361-.081c.008,0,.012,0,.02.022.034.077-.255.276-.41.383l-.068.047a.651.651,0,0,0-.2.589.265.265,0,0,0,.264.245h.718a.265.265,0,1,0,0-.53h-.289c.316-.225.655-.524.472-.945a.552.552,0,0,0-.331-.311,1.1,1.1,0,0,0-.784.112A.266.266,0,0,0,337.594,343.225Z" transform="translate(-209.106 -318.142)" fill="#e24445"/>
  </g>
</svg>
