<svg xmlns="http://www.w3.org/2000/svg" width="10.386" height="10.389" viewBox="0 0 10.386 10.389">
  <g id="组_9602" data-name="组 9602" transform="translate(-30.9 -112.952)">
    <g id="组件_24_1" data-name="组件 24 – 1" transform="translate(31 113.052)">
      <path id="路径_5799" data-name="路径 5799" d="M73.216,68.238a5.095,5.095,0,1,0,0,7.2,5.063,5.063,0,0,0,0-7.2h0Zm-.47,6.735a4.43,4.43,0,1,1,0-6.266,4.4,4.4,0,0,1,0,6.266h0Zm-.932-1.884L70.054,72.07V69.293a.425.425,0,1,0-.849,0v2.972c0,.158.2.29.323.363a.629.629,0,0,0,.191.135l1.751,1.061a.38.38,0,0,0,.54-.155.438.438,0,0,0-.2-.58h0ZM71.815,73.089Z" transform="translate(-64.519 -66.746)" fill="#4b4b4b" stroke="#4b4b4b" stroke-width="0.2"/>
    </g>
  </g>
</svg>
