<?xml version="1.0" encoding="utf-8"?>
<!-- Generator: Adobe Illustrator 25.3.1, SVG Export Plug-In . SVG Version: 6.00 Build 0)  -->
<svg version="1.1" id="Layer_1" xmlns="http://www.w3.org/2000/svg" xmlns:xlink="http://www.w3.org/1999/xlink" x="0px" y="0px"
	 viewBox="0 0 595.3 595.3" style="enable-background:new 0 0 595.3 595.3;" xml:space="preserve">
<style type="text/css">
	.st0{opacity:0.15;fill:#1D42AD;enable-background:new    ;}
	.st1{fill:#2988E6;}
	.st2{fill:#FFFFFF;}
</style>
<g id="Group_7921" transform="translate(-966 -4001)">
	<circle id="Ellipse_599" class="st0" cx="1263.6" cy="4298.6" r="297.6"/>
	<circle id="Ellipse_600" class="st1" cx="1263.6" cy="4298.6" r="260.4"/>
	<g id="cursor" transform="translate(989.293 4022.339)">
		<path id="Path_6115" class="st2" d="M396.1,359.7l-49.4-52.3l35.3-21.6c2.8-1.8,4.4-4.9,4.1-8.2c-0.2-3.3-2.2-6.2-5.2-7.5
			l-157.3-66.4c-3.1-1.3-6.7-0.5-8.9,1.9c-2.4,2.6-3.1,6.2-1.8,9.5l62.7,166.4c1.1,3.1,3.9,5.2,7.1,5.5c3.2,0.2,6.3-1.5,7.8-4.4
			l20.4-37.3l49.4,52.3c3,3.2,8,3.4,11.3,0.5c0.2-0.1,0.3-0.3,0.5-0.5l24.1-25.5C399.4,368.6,399.4,363.2,396.1,359.7z"/>
		<path id="Path_6116" class="st2" d="M186.6,163.6c-3-3.2-8.1-3.4-11.3-0.4c-0.2,0.1-0.3,0.3-0.4,0.4c-3.2,3.5-3.2,8.9,0,12.4
			l18.5,19.5c3,3.2,8,3.4,11.3,0.5c0.2-0.1,0.3-0.3,0.5-0.5c3.2-3.5,3.2-8.9,0-12.4L186.6,163.6z"/>
		<path id="Path_6117" class="st2" d="M192.9,224.4c0.1-4.7-3.6-8.7-8.3-8.8h-26.1c-4.9,0.2-8.6,4.4-8.3,9.2
			c0.2,4.5,3.8,8.1,8.3,8.3h26.1C189.3,233,193,229.1,192.9,224.4z"/>
		<path id="Path_6118" class="st2" d="M189.5,251.5L171,271c-3.2,3.5-3.2,8.9,0,12.4c3,3.2,8,3.4,11.3,0.5c0.2-0.1,0.3-0.3,0.5-0.5
			l18.5-19.5c3.2-3.5,3.2-8.9,0-12.4c-3-3.2-8.1-3.4-11.3-0.4C189.8,251.2,189.6,251.3,189.5,251.5z"/>
		<path id="Path_6119" class="st2" d="M232.3,182.6c4.7-0.1,8.4-4.1,8.3-8.8v-27.6c0.2-4.6-3.3-8.5-7.9-8.7
			c-4.6-0.2-8.5,3.3-8.7,7.9c0,0.3,0,0.6,0,0.9v27.6C223.9,178.6,227.6,182.5,232.3,182.6z"/>
		<path id="Path_6120" class="st2" d="M263.8,194.1c2.2,0,4.4-0.9,5.9-2.6l18.5-19.5c3.2-3.5,3.2-8.9,0-12.4c-3-3.2-8-3.4-11.3-0.5
			c-0.2,0.1-0.3,0.3-0.5,0.5l-18.5,19.5c-3.2,3.5-3.2,8.9,0,12.4C259.4,193.1,261.6,194.1,263.8,194.1z"/>
	</g>
</g>
</svg>
