<svg xmlns="http://www.w3.org/2000/svg" width="423.001" height="479.072" viewBox="0 0 423.001 479.072">
  <g id="doctor" transform="translate(-7.911 -1.998)" opacity="0.134">
    <path id="Path_7715" data-name="Path 7715" d="M133.155,286.133C67.579,284,51.852,227.85,48.486,209.724A28.465,28.465,0,0,1,32.541,199.6a32.042,32.042,0,0,1-5.969-21.812,30.087,30.087,0,0,1,7.1-23.39,22,22,0,0,1,5.3-4A115.642,115.642,0,0,1,21.737,84.71c7.591-54.24,51.3-59.519,64.994-59.824A64.092,64.092,0,0,1,109.772,7.894a81.2,81.2,0,0,1,52.2-2.908c33.9,8.849,56.5,25.819,67.226,50.445,15.269,35,1.876,75.289-5.817,93.379a22.271,22.271,0,0,1,7.94,4.559,29.163,29.163,0,0,1,8.114,24.437,31.991,31.991,0,0,1-5.962,21.812,28.509,28.509,0,0,1-15.952,10.128C214.151,227.85,198.461,284,133.155,286.133ZM51.118,162.02a9.837,9.837,0,0,0-7.024,2.5,17.326,17.326,0,0,0-2.974,13.007,7.467,7.467,0,0,1-.051,1.454A17.952,17.952,0,0,0,44.116,190.8a16.6,16.6,0,0,0,11.633,5.511,7.271,7.271,0,0,1,6.391,6.6c.24,2.7,6.689,66.579,71.029,68.687,63.983-2.109,70.461-65.983,70.7-68.7a7.271,7.271,0,0,1,6.391-6.587,16.585,16.585,0,0,0,11.633-5.511,17.988,17.988,0,0,0,3.047-11.873,7.609,7.609,0,0,1-.051-1.411,17.327,17.327,0,0,0-3.279-13.349,11.03,11.03,0,0,0-7.9-2.065,7.271,7.271,0,0,1-7.671-10.608c.269-.509,26.9-51.056,9.787-90.34-8.863-20.3-28.211-34.471-57.519-42.12a66.593,66.593,0,0,0-42.7,2.181A48.9,48.9,0,0,0,96.022,36.541a7.205,7.205,0,0,1-6.449,2.908c-1.883-.153-46.4-3.032-53.382,46.737h0s-2.014,39.59,20.918,63.583a7.271,7.271,0,0,1,1.381,8,6.885,6.885,0,0,1-6.885,4.3Z" transform="translate(86.075 0)" fill="#114a8f"/>
    <path id="Path_7716" data-name="Path 7716" d="M193.121,108.445a7.271,7.271,0,0,1-7.271-6.965c-.087-1.883-2.341-45.806-35.133-50.03A110.705,110.705,0,0,1,66.282,26.991c-9.27,6.973-30.632,28.167-26.524,73.37A7.271,7.271,0,0,1,25.3,101.676C19.276,35.359,61.861,12.34,63.672,11.395a7.271,7.271,0,0,1,8.391,1.192,97.1,97.1,0,0,0,77.26,24.379,8.129,8.129,0,0,1,2.014-.073c36.965,3.846,48.256,43.559,49.056,63.983a7.271,7.271,0,0,1-6.965,7.547Z" transform="translate(105.404 53.749)" fill="#114a8f"/>
    <path id="Path_7717" data-name="Path 7717" d="M7.911,201.375v-58.24a96.76,96.76,0,0,1,96.7-96.564h13.96a7.271,7.271,0,0,1,0,14.542h-13.96a82.2,82.2,0,0,0-82.16,82.022V201.38l393.918.142V143.135a82.117,82.117,0,0,0-82.022-82.022H319.385a7.271,7.271,0,0,1,0-14.542h14.963a96.7,96.7,0,0,1,96.564,96.564v58.122Z" transform="translate(0 279.508)" fill="#114a8f"/>
    <path id="Path_7718" data-name="Path 7718" d="M42.694,222.486,68.848,49.4a7.271,7.271,0,0,1,9.285-5.875l50.779,15.305a7.271,7.271,0,0,1,4.421,10.179l-20.184,40.5,11.706,13.138a7.271,7.271,0,0,1,.727,8.66L69.351,222.262ZM81.979,59.871,59.112,211.2l51.281-82.887-11.364-12.76a7.271,7.271,0,0,1-1.083-8.078L116.472,70.29Z" transform="translate(197.097 258.479)" fill="#114a8f"/>
    <path id="Path_7719" data-name="Path 7719" d="M86.459,222.571,30.01,131.308a7.271,7.271,0,0,1,.727-8.66L42.443,109.51,22.26,69.012A7.271,7.271,0,0,1,26.68,58.832L77.46,43.527A7.271,7.271,0,0,1,86.737,49.4l26.178,173.157Zm-41.231-94.3,51.281,82.887L73.642,59.85,39.15,70.248l18.519,37.183a7.271,7.271,0,0,1-1.076,8.078Z" transform="translate(85.269 258.499)" fill="#114a8f"/>
    <path id="Path_7720" data-name="Path 7720" d="M83.281,68.329a394.169,394.169,0,0,1-47.035-2.85,7.271,7.271,0,1,1,1.73-14.433,366.574,366.574,0,0,0,89.482,0,7.27,7.27,0,1,1,1.818,14.426,367.174,367.174,0,0,1-46,2.856Z" transform="translate(136.254 307.075)" fill="#114a8f"/>
    <path id="Path_7721" data-name="Path 7721" d="M60.58,94.757a7.271,7.271,0,0,1-5.817-2.945C43.959,77.205,42,48.253,41.822,45a7.271,7.271,0,0,1,6.835-7.678,7.351,7.351,0,0,1,7.678,6.835c.444,7.649,3.134,29.57,10.114,39.008a7.271,7.271,0,0,1-5.817,11.59Z" transform="translate(212.57 221.477)" fill="#114a8f"/>
    <path id="Path_7722" data-name="Path 7722" d="M35.737,94.773a7.271,7.271,0,0,1-5.817-11.59c6.995-9.452,9.677-31.366,10.121-39.008a7.283,7.283,0,1,1,14.542.843c-.182,3.25-2.181,32.2-12.942,46.809a7.271,7.271,0,0,1-5.9,2.945Z" transform="translate(129.1 221.461)" fill="#114a8f"/>
    <path id="Path_7723" data-name="Path 7723" d="M82.664,129.109a7.271,7.271,0,0,1-7.271-7.06C74.033,74.7,56.031,59.8,55.856,59.658a7.322,7.322,0,0,1-1.265-10.179,7.227,7.227,0,0,1,10.07-1.4c.96.727,23.681,18.373,25.273,73.544a7.271,7.271,0,0,1-7.053,7.474Z" transform="translate(283.291 279.952)" fill="#114a8f"/>
    <path id="Path_7724" data-name="Path 7724" d="M81.955,113.465a28.742,28.742,0,1,1,28.734-28.739,28.742,28.742,0,0,1-28.734,28.739Zm0-42.941a14.2,14.2,0,1,0,14.193,14.2,14.2,14.2,0,0,0-14.193-14.2Z" transform="translate(284.036 338.522)" fill="#114a8f"/>
    <path id="Path_7725" data-name="Path 7725" d="M22.657,128.764a7.271,7.271,0,0,1-7.271-6.755c-3.963-55.8,26.786-73.639,28.094-74.373A7.272,7.272,0,1,1,50.627,60.3c-1.105.654-23.994,14.782-20.744,60.682a7.271,7.271,0,0,1-6.74,7.765Z" transform="translate(44.664 280.296)" fill="#114a8f"/>
    <path id="Path_7726" data-name="Path 7726" d="M27.381,130.223a7.271,7.271,0,0,1-5.817-2.865,45.449,45.449,0,0,1-7.7-15.618A43.712,43.712,0,0,1,42.432,57.268,40.716,40.716,0,0,1,73.7,61.136a46.664,46.664,0,0,1,22.685,48.074,7.271,7.271,0,1,1-14.345-2.385,32.152,32.152,0,0,0-15.458-33.01,26.313,26.313,0,0,0-20.2-2.567,29.185,29.185,0,0,0-18.526,36.616,31.024,31.024,0,0,0,5.279,10.688,7.271,7.271,0,0,1-5.78,11.67Z" transform="translate(25.231 337.054)" fill="#114a8f"/>
    <path id="Path_7727" data-name="Path 7727" d="M35.924,77.315a5.8,5.8,0,0,1-.865-.044L26.864,76.3A7.274,7.274,0,0,1,28.58,61.857l8.194.974a7.271,7.271,0,0,1-.851,14.491Z" transform="translate(78.613 375.043)" fill="#114a8f"/>
    <path id="Path_7728" data-name="Path 7728" d="M20.339,81.329a7.271,7.271,0,0,1-2.53-14.091l8.725-3.221a7.276,7.276,0,0,1,5.09,13.633L22.9,80.878a7.27,7.27,0,0,1-2.559.451Z" transform="translate(32.273 386.014)" fill="#114a8f"/>
  </g>
</svg>
