<svg xmlns="http://www.w3.org/2000/svg" width="136.768" height="136.768" viewBox="0 0 136.768 136.768">
  <g id="hospital" transform="translate(0)">
    <path id="Path_7729" data-name="Path 7729" d="M126.75,42.378h-9.076a2,2,0,0,0,0,4.007h9.076a6.017,6.017,0,0,1,6.01,6.01v80.232a.134.134,0,0,1-.134.134h-22.3v-8.014h10.234a4.149,4.149,0,0,0,4.14-4.122l.045-9.865a4.169,4.169,0,0,0-4.14-4.159H110.328V98.7h10.234a4.149,4.149,0,0,0,4.14-4.121l.045-9.865a4.17,4.17,0,0,0-4.14-4.159H110.328V72.544h10.234a4.149,4.149,0,0,0,4.14-4.122l.045-9.865a4.17,4.17,0,0,0-4.14-4.159H110.328V33.658A10.028,10.028,0,0,0,100.31,23.641H93.95a25.644,25.644,0,0,0-51.132,0H36.329A10.028,10.028,0,0,0,26.312,33.658v8.72H10.017A10.028,10.028,0,0,0,0,52.395v80.232a4.145,4.145,0,0,0,4.14,4.14H132.627a4.145,4.145,0,0,0,4.14-4.14V52.395A10.028,10.028,0,0,0,126.75,42.378ZM110.328,58.405h10.279a.134.134,0,0,1,.134.134L120.7,68.4a.134.134,0,0,1-.134.133H110.328Zm0,26.159h10.279a.127.127,0,0,1,.095.039.128.128,0,0,1,.039.095l-.045,9.865a.134.134,0,0,1-.134.133H110.328Zm0,26.044h10.279a.127.127,0,0,1,.095.039.128.128,0,0,1,.039.095l-.045,9.865a.134.134,0,0,1-.134.133H110.328ZM26.312,120.74H16.206a.132.132,0,0,1-.134-.132l-.045-9.865a.129.129,0,0,1,.039-.1.127.127,0,0,1,.095-.039H26.312Zm0-26.045H16.206a.132.132,0,0,1-.134-.132L16.027,84.7a.128.128,0,0,1,.04-.1.126.126,0,0,1,.094-.04H26.312Zm0-26.159H16.206a.132.132,0,0,1-.134-.132l-.045-9.865a.128.128,0,0,1,.04-.1.126.126,0,0,1,.094-.04H26.312Zm0-14.139H16.161a4.167,4.167,0,0,0-4.14,4.16l.045,9.865a4.149,4.149,0,0,0,4.14,4.121H26.312v8.014H16.161a4.167,4.167,0,0,0-4.14,4.16l.045,9.865a4.149,4.149,0,0,0,4.14,4.121H26.312v7.9H16.161a4.165,4.165,0,0,0-4.14,4.16l.045,9.865a4.148,4.148,0,0,0,4.14,4.12H26.312v8.014H4.14a.134.134,0,0,1-.134-.134V52.395a6.017,6.017,0,0,1,6.01-6.01H26.312ZM68.384,4.007A21.637,21.637,0,1,1,46.747,25.644,21.661,21.661,0,0,1,68.384,4.007Zm17.9,128.754h-15.9V97.481h15.9ZM46.473,93.474V89.467H90.295v4.007Zm59.848,39.287H90.294V97.481A3.68,3.68,0,0,0,94.3,93.874V89.066A3.61,3.61,0,0,0,90.7,85.46H46.072a3.61,3.61,0,0,0-3.606,3.606v4.808a3.658,3.658,0,0,0,4.007,3.606v14.187a2,2,0,1,0,4.007,0V97.481h15.9v35.28H50.48V121.017a2,2,0,1,0-4.007,0v11.744H30.319v-99.1a6.017,6.017,0,0,1,6.01-6.01h6.489a25.644,25.644,0,0,0,51.132,0h6.361a6.017,6.017,0,0,1,6.01,6.01ZM62.373,31.654v8.014a3.61,3.61,0,0,0,3.606,3.606h4.808a3.61,3.61,0,0,0,3.606-3.606V31.654h8.014a3.61,3.61,0,0,0,3.606-3.606V23.24a3.61,3.61,0,0,0-3.606-3.606H74.394V11.62a3.61,3.61,0,0,0-3.606-3.606H65.98a3.61,3.61,0,0,0-3.606,3.606v8.014H54.36a3.61,3.61,0,0,0-3.606,3.606v4.808a3.61,3.61,0,0,0,3.606,3.606ZM54.76,23.641h8.815a2.808,2.808,0,0,0,2.8-2.8V12.021h4.007v8.815a2.808,2.808,0,0,0,2.8,2.8h8.815v4.007H73.192a2.808,2.808,0,0,0-2.8,2.8v8.815H66.38V30.452a2.808,2.808,0,0,0-2.8-2.8H54.76Zm5.61,95.534a2,2,0,0,0,2-2v-4.1a2,2,0,1,0-4.007,0v4.1A2,2,0,0,0,60.37,119.175ZM60.236,59.3H42.527a4.149,4.149,0,0,0-4.14,4.122l-.045,9.865a4.171,4.171,0,0,0,4.14,4.159H60.236a4.145,4.145,0,0,0,4.14-4.14V63.442a4.145,4.145,0,0,0-4.14-4.14Zm.134,14.005a.134.134,0,0,1-.134.134H42.482a.156.156,0,0,1-.134-.134l.045-9.865a.134.134,0,0,1,.134-.133h17.71a.134.134,0,0,1,.134.134ZM76.4,119.175a2,2,0,0,0,2-2v-4.1a2,2,0,1,0-4.007,0v4.1A2,2,0,0,0,76.4,119.175ZM94.221,59.3H76.531a4.145,4.145,0,0,0-4.14,4.14v9.865a4.145,4.145,0,0,0,4.14,4.14H94.176a4.149,4.149,0,0,0,4.14-4.122l.045-9.865A4.169,4.169,0,0,0,94.221,59.3Zm.089,14.006a.134.134,0,0,1-.134.133H76.531a.134.134,0,0,1-.134-.134V63.442a.134.134,0,0,1,.134-.134h17.69a.134.134,0,0,1,.134.134Z" fill="#fff"/>
  </g>
</svg>
