<svg xmlns="http://www.w3.org/2000/svg" width="484.763" height="427.416" viewBox="0 0 484.763 427.416">
  <g id="hospital" transform="translate(0 -28.404)">
    <path id="Path_7729" data-name="Path 7729" d="M449.258,150.2H417.089a7.1,7.1,0,0,0,0,14.2h32.169a21.327,21.327,0,0,1,21.3,21.3v269.95l-79.512-.106v-13.4h36.274A14.707,14.707,0,0,0,442,427.548l.159-34.965a14.778,14.778,0,0,0-14.675-14.742H391.048V349.847h36.274A14.706,14.706,0,0,0,442,335.239l.159-34.966a14.779,14.779,0,0,0-14.675-14.742H391.048v-28.4h36.274A14.707,14.707,0,0,0,442,242.518l.159-34.966a14.779,14.779,0,0,0-14.675-14.742H391.048V119.3a35.545,35.545,0,0,0-35.505-35.505H333A90.787,90.787,0,0,0,308.635,28.73L176.247,28.6a90.461,90.461,0,0,0-24.482,55.188h-23A35.545,35.545,0,0,0,93.26,119.3V150.2H35.505A35.545,35.545,0,0,0,0,185.71V455.639l484.763-.289V185.71A35.545,35.545,0,0,0,449.258,150.2Zm-58.209,56.808h36.433a.474.474,0,0,1,.473.474l-.158,34.965a.474.474,0,0,1-.473.471H391.048Zm0,92.72h36.433a.474.474,0,0,1,.473.475l-.158,34.965a.475.475,0,0,1-.473.471H391.048Zm0,92.309h36.433a.474.474,0,0,1,.473.475l-.158,34.965a.475.475,0,0,1-.473.471H391.048ZM93.26,427.955H57.442a.467.467,0,0,1-.473-.469l-.161-34.964a.455.455,0,0,1,.138-.34.45.45,0,0,1,.335-.139H93.26Zm0-92.313H57.442a.467.467,0,0,1-.473-.469l-.161-34.964a.455.455,0,0,1,.14-.339.446.446,0,0,1,.333-.14H93.26Zm0-92.72H57.442a.467.467,0,0,1-.473-.469l-.161-34.964a.455.455,0,0,1,.14-.339.446.446,0,0,1,.333-.14H93.26Zm0-50.114H57.282a14.768,14.768,0,0,0-14.675,14.746l.161,34.964a14.7,14.7,0,0,0,14.675,14.605H93.26v28.4H57.282a14.769,14.769,0,0,0-14.675,14.746l.161,34.965a14.7,14.7,0,0,0,14.675,14.605H93.26v28H57.282a14.762,14.762,0,0,0-14.675,14.746l.161,34.965a14.7,14.7,0,0,0,14.675,14.6H93.26v13.352l-79.058.037V185.71a21.327,21.327,0,0,1,21.3-21.3H93.26ZM287.228,28.715a76.691,76.691,0,1,1-89.659-.025ZM249.482,455.207V345.513H305.84V455.557Zm-84.762-123.9v-14.2H320.043v14.2ZM320.042,455.182V345.513c7.412.43,14.249-4.992,14.2-12.782V315.688a12.8,12.8,0,0,0-12.782-12.782H163.3a12.8,12.8,0,0,0-12.782,12.782v17.043a12.965,12.965,0,0,0,14.2,12.782V395.8a7.1,7.1,0,1,0,14.2,0V345.513H235.28V455.377l-56.357.443V428.935a7.1,7.1,0,1,0-14.2,0v26.537l-56.045-.042h-1.214V119.3a21.327,21.327,0,0,1,21.3-21.3h23a90.894,90.894,0,0,0,181.233,0h22.545a21.327,21.327,0,0,1,21.3,21.3v336.5ZM221.078,112.2v28.4a12.8,12.8,0,0,0,12.782,12.782H250.9A12.8,12.8,0,0,0,263.684,140.6V112.2h28.4A12.8,12.8,0,0,0,304.87,99.414V82.372A12.8,12.8,0,0,0,292.089,69.59h-28.4v-28.4A12.8,12.8,0,0,0,250.9,28.4H233.86a12.8,12.8,0,0,0-12.782,12.782v28.4h-28.4a12.8,12.8,0,0,0-12.782,12.782V99.414A12.8,12.8,0,0,0,192.674,112.2Zm-26.984-28.4h31.244a9.952,9.952,0,0,0,9.941-9.941V42.606h14.2V73.851a9.952,9.952,0,0,0,9.941,9.941h31.244v14.2H259.424a9.952,9.952,0,0,0-9.941,9.941V139.18h-14.2V107.935a9.952,9.952,0,0,0-9.941-9.941H194.094Zm19.883,338.613a7.1,7.1,0,0,0,7.1-7.1V400.77a7.1,7.1,0,1,0-14.2,0V415.3A7.1,7.1,0,0,0,213.977,422.405ZM213.5,210.19H150.735A14.705,14.705,0,0,0,136.059,224.8l-.158,34.964a14.784,14.784,0,0,0,14.675,14.743H213.5a14.692,14.692,0,0,0,14.675-14.675V224.866A14.692,14.692,0,0,0,213.5,210.19Zm.473,49.641a.474.474,0,0,1-.473.473H150.576a.553.553,0,0,1-.473-.475l.158-34.966a.474.474,0,0,1,.473-.471H213.5a.474.474,0,0,1,.473.473Zm56.808,162.574a7.1,7.1,0,0,0,7.1-7.1V400.77a7.1,7.1,0,1,0-14.2,0V415.3A7.1,7.1,0,0,0,270.785,422.405ZM333.96,210.19h-62.7a14.692,14.692,0,0,0-14.675,14.675v34.965a14.692,14.692,0,0,0,14.675,14.675H333.8A14.707,14.707,0,0,0,348.476,259.9l.158-34.966A14.778,14.778,0,0,0,333.96,210.19Zm.314,49.643a.475.475,0,0,1-.473.472H271.259a.474.474,0,0,1-.473-.473V224.866a.474.474,0,0,1,.473-.473h62.7a.473.473,0,0,1,.473.474Z" fill="#1767b3"/>
  </g>
</svg>
