<?xml version="1.0" encoding="utf-8"?>
<!-- Generator: Adobe Illustrator 25.3.1, SVG Export Plug-In . SVG Version: 6.00 Build 0)  -->
<svg version="1.1" id="Layer_1" xmlns="http://www.w3.org/2000/svg" xmlns:xlink="http://www.w3.org/1999/xlink" x="0px" y="0px"
	 viewBox="0 0 595.3 595.3" style="enable-background:new 0 0 595.3 595.3;" xml:space="preserve">
<style type="text/css">
	.st0{fill:#FFFFFF;}
</style>
<g id="medical" transform="translate(-22 -19)">
	<path id="Path_7730" class="st0" d="M528.7,437.2h-39.3v-38.9c0.1-6.1-4.7-11.2-10.8-11.3c-0.1,0-0.1,0-0.2,0h-35.1
		c-6.3,0-11.5,5-11.6,11.3v38.9h-39.9c-6.3,0-11.5,5-11.6,11.3v35.2c0.1,6.3,5.3,11.3,11.6,11.3h39.9v40.2
		c0.1,6.3,5.3,11.3,11.6,11.3h35.2c6.1,0,11-5,11-11.1c0-0.1,0-0.1,0-0.2V495h39.2c6.1,0,11-5,11-11.1c0-0.1,0-0.1,0-0.2v-35.2
		c0.1-6.1-4.7-11.2-10.8-11.3C528.8,437.2,528.7,437.2,528.7,437.2L528.7,437.2z M522.1,477.4h-38.6c-6.3,0-11.5,5-11.6,11.3v40.2
		h-22.6v-40.2c0.1-6.1-4.7-11.2-10.8-11.3c-0.1,0-0.1,0-0.2,0h-40.5v-22.6h40.5c6.1,0,11-5,11-11.1c0-0.1,0-0.1,0-0.2v-38.9h22.6
		v38.9c0.1,6.3,5.3,11.3,11.6,11.3h38.6L522.1,477.4z"/>
	<path id="Path_7731" class="st0" d="M462.8,313.1c-49.3,0-95.5,24.2-123.6,64.6c-2.4-0.7-4.6-1.4-6.7-2.1l-8.5-24.2
		c26.4-19.8,33.6-50.6,35.6-65.6c17.7-4.8,34-25.6,40.5-53.3c3.5-14.9-1.6-28.8-12.8-34.6c-3.1-1.6-6.5-2.4-10-2.4
		c0.6-4.4,1.2-9.6,1.8-16.1c1.5-15.2,2.4-30.6,2.4-34.5c0-2.8,0.1-5.6,0.1-8.6c0.5-24,1-54-25.5-80.8l0,0
		C306.3,6.3,226.1,6.9,177,56.8c-1,1-2,2-2.9,3c-0.7,0.8-1.4,1.5-2.1,2.3c-13.3,14.9-31.6,35.3-30.3,87.6
		c2.3,15.7,5.6,31.2,10.1,46.4c-3,0.3-5.8,1.2-8.4,2.6c-10.7,5.8-15.7,19.4-12.3,33.8c6.5,27.7,22.9,48.5,40.6,53.3
		c2.1,14.7,9.6,45.2,35.3,65L195.8,374c-8,2.5-17.1,5-26.4,7.6C108.9,398.6,26,421.8,26,497.1v78.8c0,18.6,10,38.4,27.8,38.4h409.5
		h0.2c83.2-0.2,150.4-67.8,150.2-151S546,312.9,462.8,313.1L462.8,313.1z M185.1,73.9l2.1-2.4c19.7-21.7,47.6-34.3,76.9-34.8
		c29.7-1,58.4,10.3,79.5,31.2c21.3,21.5,20.8,46.3,20.4,68.1c-0.1,3.1-0.1,6-0.1,9c0,1.9-0.2,5.7-0.5,10.7
		c-4.3-15.8-10.2-31.1-18.4-40l-0.6-1.3c-2.2-4.3-7.5-6.1-11.8-3.9c-1.8,0.9-3.2,2.4-4.1,4.2c-14.2,31.2-28.2,29.9-51.4,27.8
		c-2.7-0.2-5.4-0.5-8.2-0.7c-5.4-1-10.7,1.8-13,6.8c-2.9,6.7,1.1,13.8,8.4,22.4c-23.2-2.8-29.1-19.7-34.4-35.1
		c-3.7-10.6-7.8-22.7-20-22.7c-11.8-0.2-23.2,4.7-31.1,13.4c-8.8,10.6-14.7,23.4-16.9,37c-1.1-4.7-2-9.4-2.5-14.2
		C158.2,104,172.5,88,185.1,73.9z M188.6,277.7c-0.2-4.7-4.1-8.4-8.8-8.4h-0.4c-12.9,0-26.5-21-31.1-40.8
		c-1.8-7.6,0.6-12.8,3.5-14.3c3.3-1.8,6.9,1.4,8.2,2.8c3.3,3.5,8.9,3.7,12.4,0.3c1.5-1.4,2.4-3.3,2.7-5.3c0.9-1.5,1.3-3.2,1.1-5
		c-0.9-13.5,0-52.1,15.4-68.5c4.4-4.9,10.6-7.7,17.2-7.8c1.8,3.5,3.3,7.1,4.4,10.8c6.5,18.8,18.6,53.9,72.4,46.2
		c4.8-0.7,8.1-5.1,7.5-9.9c-0.3-2-1.3-3.9-2.8-5.2c-4.3-3.9-8.3-8.1-12.1-12.4c20.7,1.8,41.8,2.5,59.2-24.9
		c11,20.7,16.7,61.7,18.2,78c0.4,4.5,4.2,8,8.7,8c0.3,0,0.5,0,0.8,0c3.2-0.3,6.1-2.3,7.3-5.3c1.7-1.7,4.4-3.6,6.9-2.3
		c3.2,1.7,5.5,7.3,3.8,14.9c-4.7,19.8-18.3,40.8-31.1,40.8h-0.2c-1.7,0-3.4,0.4-4.8,1.3c-2.5,1.6-4,4.3-4.1,7.2
		c-0.4,7.2-3.8,44-33.7,62.6l-0.1,0.1c-13.1,7.6-28.1,11.3-43.2,10.8c-15.1,0.5-30.1-3.4-43.1-11.1
		C193,321.6,189.1,284.9,188.6,277.7L188.6,277.7z M210,385.1l12.2-25c13.7,6.1,28.5,9.2,43.5,8.9c14.7,0.3,29.4-2.6,42.9-8.5
		l8.8,25c0.9,2.5,2.9,4.5,5.5,5.4c2.2,0.7,4.5,1.5,7,2.3c-4.3,8.1-7.9,16.6-10.6,25.3c-25.4,29.4-69.8,32.7-99.2,7.3
		c-1.8-1.6-3.6-3.2-5.2-5c-7.9-8.2-13.5-18.2-16.3-29.2c2.2-0.7,4.3-1.3,6.3-2C207.1,388.8,208.9,387.2,210,385.1L210,385.1z
		 M43.6,575.9v-78.8c0-62,72.4-82.3,130.5-98.6c2.5-0.7,5-1.4,7.4-2c13.4,46.8,62.2,73.9,109,60.5c8-2.3,15.7-5.7,22.7-10.2
		c-6.9,61.5,24.5,120.9,79.1,149.8H53.8C48.2,596.7,43.6,585.5,43.6,575.9z M462.8,596.7c-73.5,0-133-59.6-133-133s59.6-133,133-133
		s133,59.6,133,133l0,0C595.9,537.2,536.3,596.7,462.8,596.7z"/>
</g>
</svg>
