<?xml version="1.0" encoding="utf-8"?>
<!-- Generator: Adobe Illustrator 25.3.1, SVG Export Plug-In . SVG Version: 6.00 Build 0)  -->
<svg version="1.1" id="Layer_1" xmlns="http://www.w3.org/2000/svg" xmlns:xlink="http://www.w3.org/1999/xlink" x="0px" y="0px"
	 viewBox="0 0 595.3 595.3" style="enable-background:new 0 0 595.3 595.3;" xml:space="preserve">
<style type="text/css">
	.st0{opacity:0.499;fill:#FFFFFF;enable-background:new    ;}
	.st1{fill:#2988E6;}
	.st2{fill:#FFFFFF;}
</style>
<circle id="Ellipse_586" class="st0" cx="297.6" cy="297.6" r="297.6"/>
<circle id="Ellipse_589" class="st1" cx="297.6" cy="297.6" r="260.4"/>
<path id="Icon_ionic-ios-lock" class="st2" d="M388.4,233.6h-18.1v-35.9c0.5-40.3-31.4-73.5-71.6-74.8
	c-40.5-0.1-73.5,32.7-73.6,73.3c0,0.2,0,0.4,0,0.5v36.9h-18.1c-16.8,0.2-30.3,13.9-30.2,30.7v147.6c-0.1,16.8,13.4,30.6,30.2,30.7
	h181.5c16.8-0.2,30.3-13.9,30.2-30.7V264.3C418.7,247.5,405.2,233.8,388.4,233.6z M308.2,329.5v52.9c0.1,5.8-4.3,10.6-10.1,11.1
	c-5.9,0.2-10.9-4.3-11.1-10.2c0-0.2,0-0.4,0-0.5v-53.2c-12.2-6.1-17.1-20.9-11-33.1c3.8-7.7,11.4-12.8,19.9-13.6
	c13.6-0.7,25.2,9.7,25.9,23.3C322.3,316,317,325.1,308.2,329.5z M349,233.6H246.2v-36.9c0-13.8,5.4-27.1,15.1-36.9
	c19.4-20,51.4-20.6,71.4-1.1c0.4,0.4,0.8,0.8,1.1,1.1c9.7,9.8,15.2,23.1,15.1,36.9L349,233.6z"/>
</svg>
