<?xml version="1.0" encoding="utf-8"?>
<!-- Generator: Adobe Illustrator 25.3.1, SVG Export Plug-In . SVG Version: 6.00 Build 0)  -->
<svg version="1.1" id="Layer_1" xmlns="http://www.w3.org/2000/svg" xmlns:xlink="http://www.w3.org/1999/xlink" x="0px" y="0px"
	 viewBox="0 0 595.3 595.3" style="enable-background:new 0 0 595.3 595.3;" xml:space="preserve">
<style type="text/css">
	.st0{fill:#186BB7;}
</style>
<g id="Group_7918" transform="translate(-33.474 -73.356)">
	<path id="Path_7740" class="st0" d="M384.4,593c0.1,0.1,0.1,0.1,0.2,0.2l0,0"/>
	<path id="Path_7741" class="st0" d="M574.5,378.7c-27.5-23.4-62.5-36.2-98.6-36.1h-0.3c-49.7,0-96.3,24.4-124.7,65.2
		c-2.4-0.7-4.7-1.4-6.8-2.1l-8.6-24.4c26.6-19.9,33.9-51.1,35.9-66.2c17.9-4.9,34.3-25.9,40.9-53.8c3.5-15.1-1.6-29.1-12.9-34.9
		c-3.1-1.6-6.6-2.5-10.1-2.5c0.6-4.4,1.2-9.7,1.8-16.3c1.5-15.4,2.4-30.9,2.4-34.8c0-2.8,0.1-5.7,0.1-8.7c0.3-15,0.6-32.3-5.6-50
		l-19.1,0.4c7.6,16.2,7.2,33.5,6.9,49.2c-0.1,3.1-0.1,6.1-0.1,9.1c0,1.9-0.2,5.8-0.5,10.7c-4.3-15.9-10.3-31.3-18.5-40.4l-0.7-1.3
		c-2.2-4.4-7.5-6.2-11.9-4c-1.8,0.9-3.3,2.4-4.1,4.3c-14.3,31.4-28.5,30.2-51.9,28.1c-2.7-0.2-5.5-0.5-8.3-0.7
		c-8.9-0.6-12.2,4.6-13.1,6.8c-2.9,6.7,1.1,14,8.5,22.6c-23.4-2.8-29.4-19.9-34.7-35.4c-3.7-10.7-7.9-22.9-20.1-22.9
		c-11.9-0.2-23.4,4.7-31.4,13.5c-9.1,9.8-14.2,23.7-17.1,37.3c-1.2-4.7-2-9.5-2.5-14.3c-0.8-31.8,6-49.3,14.6-62.1l-20.6,0
		c-7.1,13.7-12.5,33.1-11.7,62.5c0.1,5.2,5.1,28.8,10.2,46.8c-3,0.3-5.9,1.2-8.5,2.6c-10.8,5.9-15.8,19.6-12.4,34.2
		c6.6,27.9,23.1,49,41,53.8c2.1,14.8,9.7,45.6,35.6,65.6L206.1,404c-8.1,2.5-17.3,5.1-26.7,7.7c-61,17.1-144.6,40.5-144.6,116.5v65
		l17.7,0v-65c0-62.6,73.1-83,131.7-99.5c2.5-0.7,5-1.4,7.4-2.1c6.4,27,35.3,64.5,84.9,64.5c17,0.2,33.7-4.5,48-13.7
		c-4.6,41.7,8.2,83.5,35.4,115.5l24.5,0c-54.4-50.4-57.7-135.3-7.3-189.7s135.3-57.7,189.7-7.3c54.3,50.3,57.7,135.1,7.5,189.5
		c-2.4,2.6-4.8,5-7.4,7.4l25,0C646.3,528.9,638.4,433,574.5,378.7C574.5,378.7,574.5,378.7,574.5,378.7z M198.8,306.9L198.8,306.9
		c-0.2-4.7-4.1-8.5-8.9-8.5h-0.4c-13,0-26.7-21.2-31.4-41.1c-1.8-7.7,0.6-12.9,3.5-14.5c3.4-1.8,6.9,1.4,8.3,2.8
		c3.4,3.6,9,3.7,12.5,0.3c1.5-1.4,2.5-3.3,2.7-5.4c0.9-1.5,1.3-3.3,1.2-5c-0.9-13.6,0-52.6,15.5-69.2c4.4-4.9,10.7-7.8,17.3-7.8
		c1.3,1.9,3.1,7.1,4.4,10.9c6.6,19,18.8,54.3,73,46.6c4.9-0.7,8.2-5.2,7.5-10c-0.3-2-1.3-3.9-2.8-5.3c-4.3-4-8.4-8.1-12.2-12.5
		c20.9,1.8,42.1,2.5,59.7-25.2c11.1,20.8,16.9,62.3,18.3,78.7c0.4,4.6,4.2,8.1,8.8,8.1c0.3,0,0.5,0,0.8,0c3.3-0.3,6.1-2.3,7.4-5.4
		c1.8-1.7,4.4-3.6,7-2.3c3.3,1.7,5.6,7.4,3.8,15.1c-4.7,20-18.4,41.1-31.4,41.1h-0.2c-4.9-0.1-8.9,3.7-9,8.6
		c-0.4,7.3-3.8,44.3-34,63.1c0,0-0.1,0.1-0.1,0.1c-11.8,7.3-26.4,10.9-43.6,10.9c-17.1,0-31.7-3.8-43.5-11.2
		C203.3,351.2,199.3,314.1,198.8,306.9z M330.6,448.9c-8.2,9.7-25.4,24.6-54,24.6c-19.5,0.2-38.2-7.9-51.4-22.3
		c-9.4-10-14.7-21.2-16.4-29.5c2.2-0.7,4.3-1.3,6.4-2l0,0c2.3-0.7,4.2-2.4,5.2-4.6v0l12.3-25.3c12.7,6,27.4,9,43.9,9
		c16.2,0,30.7-2.9,43.3-8.5l8.9,25.3c0.9,2.6,2.9,4.6,5.5,5.4c2.2,0.8,4.5,1.5,7,2.3C337,431.5,333.4,440.1,330.6,448.9z"/>
	<path id="Path_7742" class="st0" d="M482.4,612.3"/>
</g>
<path id="Path_7738" class="st0" d="M511.3,395.5h-39.6v-39.2c0.1-6.1-4.7-11.2-10.9-11.4c-0.1,0-0.1,0-0.2,0h-35.5
	c-6.3,0-11.5,5-11.7,11.4v39.2h-40.2c-6.3,0-11.5,5-11.7,11.4v35.4c0.2,6.3,5.4,11.4,11.7,11.4h40.2v40.4
	c0.2,6.3,5.4,11.4,11.7,11.4h35.5c6.1,0,11.1-5,11.1-11.2c0-0.1,0-0.1,0-0.2v-40.4h39.6c6.1,0,11.1-5,11.1-11.2c0-0.1,0-0.1,0-0.2
	v-35.4c0.1-6.1-4.7-11.2-10.9-11.4C511.4,395.5,511.4,395.5,511.3,395.5L511.3,395.5z M504.7,436h-38.9c-6.3,0-11.5,5-11.7,11.4
	v40.4h-22.8v-40.4c0.1-6.1-4.7-11.2-10.9-11.4c-0.1,0-0.1,0-0.2,0h-40.8v-22.7h40.8c6.1,0,11.1-5,11.1-11.2c0-0.1,0-0.1,0-0.2v-39.2
	H454v39.2c0.2,6.3,5.4,11.4,11.7,11.4h38.9L504.7,436z"/>
</svg>
