<svg xmlns="http://www.w3.org/2000/svg" width="36.227" height="37.129" viewBox="0 0 36.227 37.129">
  <g id="schedule-_schedule" data-name="schedule- schedule" transform="translate(-162.304 -153.6)">
    <path id="路径_6023" data-name="路径 6023" d="M193.877,251.171H166.958a4.654,4.654,0,0,1-4.654-4.654V222a4.654,4.654,0,0,1,4.654-4.654h26.919A4.654,4.654,0,0,1,198.531,222v24.518A4.654,4.654,0,0,1,193.877,251.171ZM166.958,220a2.016,2.016,0,0,0-2,2v24.518a2.016,2.016,0,0,0,2,2h26.919a2.016,2.016,0,0,0,2-2V222a2.016,2.016,0,0,0-2-2Z" transform="translate(0 -60.442)"/>
    <path id="路径_6024" data-name="路径 6024" d="M174.769,162.564a1.326,1.326,0,0,1-1.326-1.326v-6.312a1.326,1.326,0,1,1,2.652,0v6.312A1.326,1.326,0,0,1,174.769,162.564Zm11.3,0a1.326,1.326,0,0,1-1.326-1.326v-6.312a1.326,1.326,0,1,1,2.652,0v6.312A1.326,1.326,0,0,1,186.067,162.564Zm11.139,6.617H163.63a1.326,1.326,0,1,1,0-2.652h33.575a1.326,1.326,0,1,1,0,2.652Z"/>
  </g>
</svg>
