<svg xmlns="http://www.w3.org/2000/svg" width="13.601" height="13.601" viewBox="0 0 13.601 13.601">
  <path id="路径_8398" data-name="路径 8398" d="M77.84,78.6H65.761A.761.761,0,0,1,65,77.84v-3.8a.456.456,0,1,1,.913,0v3.347a.3.3,0,0,0,.3.3H77.384a.3.3,0,0,0,.3-.3V74.037a.456.456,0,1,1,.913,0v3.8A.761.761,0,0,1,77.84,78.6Zm-5.725-3.725a.456.456,0,0,1-.645,0l-3.324-3.33a.457.457,0,1,1,.645-.647l2.553,2.557v-8a.456.456,0,0,1,.913,0v7.985L74.794,70.9a.457.457,0,1,1,.645.647Z" transform="translate(-65 -65)" fill="#0b4a7e"/>
</svg>
