<svg xmlns="http://www.w3.org/2000/svg" width="16.808" height="16.579" viewBox="0 0 16.808 16.579">
  <path id="schedule-_settings" data-name="schedule- settings" d="M19.92,12.787a2.134,2.134,0,0,1,1.388-1.99A8.39,8.39,0,0,0,20.27,8.333a2.218,2.218,0,0,1-.88.186A2.181,2.181,0,0,1,17.863,7.9a2.112,2.112,0,0,1-.446-2.374A8.613,8.613,0,0,0,14.922,4.5a2.172,2.172,0,0,1-4.036,0,8.64,8.64,0,0,0-2.5,1.023A2.106,2.106,0,0,1,7.94,7.9a2.173,2.173,0,0,1-1.528.622,2.146,2.146,0,0,1-.88-.186A8.575,8.575,0,0,0,4.5,10.8a2.122,2.122,0,0,1,0,3.98,8.39,8.39,0,0,0,1.037,2.465,2.208,2.208,0,0,1,.875-.181,2.181,2.181,0,0,1,1.528.622,2.113,2.113,0,0,1,.446,2.37,8.69,8.69,0,0,0,2.5,1.023,2.168,2.168,0,0,1,4.027,0,8.64,8.64,0,0,0,2.5-1.023,2.114,2.114,0,0,1,.446-2.37,2.166,2.166,0,0,1,1.528-.622,2.193,2.193,0,0,1,.875.181A8.439,8.439,0,0,0,21.3,14.781,2.144,2.144,0,0,1,19.92,12.787Zm-6.977,3.449a3.453,3.453,0,1,1,3.5-3.453A3.477,3.477,0,0,1,12.943,16.236Z" transform="translate(-4.5 -4.5)" fill="#0063a8"/>
</svg>
