<svg xmlns="http://www.w3.org/2000/svg" xmlns:xlink="http://www.w3.org/1999/xlink" width="39.608" height="39.638" viewBox="0 0 39.608 39.638"><defs><filter id="a" x="0" y="0" width="39.608" height="39.638" filterUnits="userSpaceOnUse"><feOffset dy="3" input="SourceAlpha"/><feGaussianBlur stdDeviation="2" result="b"/><feFlood flood-opacity="0.071"/><feComposite operator="in" in2="b"/><feComposite in="SourceGraphic"/></filter></defs><g transform="matrix(1, 0, 0, 1, 0, 0)" filter="url(#a)"><path d="M20.534,19.582,9.407,24.161,0,14.757,4.581,3.633A2.207,2.207,0,1,1,6.661,4.4a4.405,4.405,0,0,0,6.553,4.763l.154-.108,1.739-1.565A2.218,2.218,0,1,1,16.675,9.05L15.1,10.734l-.1.213A4.405,4.405,0,0,0,19.764,17.5a2.222,2.222,0,1,1,.77,2.084Z" transform="translate(6 6.77) rotate(-9)" fill="#fb0"/></g></svg>