<svg xmlns="http://www.w3.org/2000/svg" width="102.949" height="103.75" viewBox="0 0 102.949 103.75">
  <g id="组_7145" data-name="组 7145" transform="translate(-1015 -893)">
    <circle id="椭圆_621" data-name="椭圆 621" cx="50" cy="50" r="50" transform="translate(1015 893)" fill="#d9d9d9"/>
    <path id="Icon_awesome-plus" data-name="Icon awesome-plus" d="M29.25,14.625H19.125V4.5a2.25,2.25,0,0,0-2.25-2.25h-2.25a2.25,2.25,0,0,0-2.25,2.25V14.625H2.25A2.25,2.25,0,0,0,0,16.875v2.25a2.25,2.25,0,0,0,2.25,2.25H12.375V31.5a2.25,2.25,0,0,0,2.25,2.25h2.25a2.25,2.25,0,0,0,2.25-2.25V21.375H29.25a2.25,2.25,0,0,0,2.25-2.25v-2.25A2.25,2.25,0,0,0,29.25,14.625Z" transform="translate(1086.449 963)" fill="#0075c7"/>
    <path id="Icon_awesome-file-alt" data-name="Icon awesome-file-alt" d="M19.6,10.7V0H2.1A2,2,0,0,0,0,1.889v36.52A2,2,0,0,0,2.1,40.3H31.507a2,2,0,0,0,2.1-1.889V12.593H21.7A2.009,2.009,0,0,1,19.6,10.7Zm5.6,18.575a1,1,0,0,1-1.05.944H9.452a1,1,0,0,1-1.05-.944v-.63a1,1,0,0,1,1.05-.944h14.7a1,1,0,0,1,1.05.944Zm0-5.037a1,1,0,0,1-1.05.944H9.452a1,1,0,0,1-1.05-.944v-.63a1,1,0,0,1,1.05-.944h14.7a1,1,0,0,1,1.05.944Zm0-5.667v.63a1,1,0,0,1-1.05.944H9.452A1,1,0,0,1,8.4,19.2v-.63a1,1,0,0,1,1.05-.944h14.7A1,1,0,0,1,25.206,18.575Zm8.4-8.981v.48H22.4V0h.534a2.225,2.225,0,0,1,1.488.551l8.568,7.713A1.792,1.792,0,0,1,33.607,9.594Z" transform="translate(1048 922)" fill="#fff"/>
  </g>
</svg>
