<svg xmlns="http://www.w3.org/2000/svg" width="66.807" height="62.082" viewBox="0 0 66.807 62.082">
  <g id="enter" transform="translate(0 -0.333)">
    <path id="路径_1282" data-name="路径 1282" d="M44.3,223.233H2.178a2.117,2.117,0,1,1,0-4.233H44.3a2.117,2.117,0,1,1,0,4.233Zm0,0" transform="translate(0 -189.743)" fill="#fff"/>
    <path id="路径_1283" data-name="路径 1283" d="M226.182,160.442a2.194,2.194,0,0,1-1.54-.621,2.075,2.075,0,0,1,0-2.994l10.079-9.792-10.079-9.792a2.075,2.075,0,0,1,0-2.994,2.225,2.225,0,0,1,3.082,0l11.618,11.288a2.074,2.074,0,0,1,0,2.994l-11.618,11.287A2.195,2.195,0,0,1,226.182,160.442Zm0,0" transform="translate(-193.505 -115.664)" fill="#fff"/>
    <path id="路径_1284" data-name="路径 1284" d="M66.362,62.415A31.785,31.785,0,0,1,36.624,42.729a2.1,2.1,0,0,1,1.229-2.743,2.2,2.2,0,0,1,2.826,1.2,27.455,27.455,0,0,0,25.683,17c15.214,0,27.594-12.027,27.594-26.808S81.576,4.566,66.362,4.566a27.455,27.455,0,0,0-25.683,17,2.206,2.206,0,0,1-2.826,1.2,2.1,2.1,0,0,1-1.229-2.743A31.785,31.785,0,0,1,66.362.333c17.617,0,31.951,13.926,31.951,31.041S83.978,62.415,66.362,62.415Zm0,0" transform="translate(-31.506)" fill="#fff"/>
  </g>
</svg>
