<svg xmlns="http://www.w3.org/2000/svg" width="22.435" height="17.403" viewBox="0 0 22.435 17.403">
  <path id="Icon_awesome-users" data-name="Icon awesome-users" d="M3.365,9.708A2.376,2.376,0,0,0,5.609,7.222,2.376,2.376,0,0,0,3.365,4.736,2.376,2.376,0,0,0,1.122,7.222,2.376,2.376,0,0,0,3.365,9.708Zm15.7,0a2.376,2.376,0,0,0,2.244-2.486A2.376,2.376,0,0,0,19.07,4.736a2.376,2.376,0,0,0-2.244,2.486A2.376,2.376,0,0,0,19.07,9.708Zm1.122,1.243H17.948a2.133,2.133,0,0,0-1.581.723A5.714,5.714,0,0,1,19,15.924h2.314a1.186,1.186,0,0,0,1.122-1.243V13.438A2.376,2.376,0,0,0,20.192,10.951Zm-8.974,0A4.153,4.153,0,0,0,15.144,6.6,4.153,4.153,0,0,0,11.218,2.25,4.153,4.153,0,0,0,7.292,6.6,4.153,4.153,0,0,0,11.218,10.951Zm2.692,1.243h-.291a4.95,4.95,0,0,1-4.8,0H8.525a4.275,4.275,0,0,0-4.038,4.475v1.119A1.781,1.781,0,0,0,6.17,19.653h10.1a1.781,1.781,0,0,0,1.683-1.865V16.669A4.275,4.275,0,0,0,13.91,12.194Zm-7.842-.521a2.133,2.133,0,0,0-1.581-.723H2.244A2.376,2.376,0,0,0,0,13.438v1.243a1.186,1.186,0,0,0,1.122,1.243h2.31A5.728,5.728,0,0,1,6.068,11.674Z" transform="translate(0 -2.25)" fill="#fff"/>
</svg>
