<svg xmlns="http://www.w3.org/2000/svg" width="22.4" height="22.4" viewBox="0 0 22.4 22.4">
  <path id="联合_25" data-name="联合 25" d="M17.923,22.4a.5.5,0,0,1-.5-.5V19.911H4.978V21.9a.5.5,0,0,1-.5.5H.5a.5.5,0,0,1-.5-.5V18.422a1,1,0,0,1,1-1H21.4a1,1,0,0,1,1,1V21.9a.5.5,0,0,1-.5.5Zm-8.711,0a.5.5,0,0,1-.5-.5V19.911h4.978V21.9a.5.5,0,0,1-.5.5ZM4.178,14.934a2,2,0,0,1-2-2V2a2,2,0,0,1,2-2H18.222a2,2,0,0,1,2,2V12.933a2,2,0,0,1-2,2ZM8.711,3.422a.935.935,0,0,0,.933.934h3.111a.934.934,0,0,0,0-1.867H9.644A.934.934,0,0,0,8.711,3.422Z" fill="#fff"/>
</svg>
