<svg xmlns="http://www.w3.org/2000/svg" width="22.4" height="14.838" viewBox="0 0 22.4 14.838">
  <g id="组_8524" data-name="组 8524" transform="translate(-3723 1417.726)">
    <path id="路径_1181" data-name="路径 1181" d="M25.592,10.345,19.8,15.992a.1.1,0,0,0,0,.144l4.055,4.132a.648.648,0,0,1,0,.948.725.725,0,0,1-.991,0L18.823,17.1a.114.114,0,0,0-.156,0l-.985.958a4.434,4.434,0,0,1-3.091,1.247,4.522,4.522,0,0,1-3.155-1.283l-.948-.922a.114.114,0,0,0-.156,0L6.293,21.217a.725.725,0,0,1-.991,0,.648.648,0,0,1,0-.948l4.055-4.132a.106.106,0,0,0,0-.144l-5.8-5.647a.107.107,0,0,0-.183.072v11.3A1.692,1.692,0,0,0,5.1,23.365H24.052a1.692,1.692,0,0,0,1.723-1.649v-11.3A.108.108,0,0,0,25.592,10.345Z" transform="translate(3719.625 -1426.253)" fill="#fff"/>
    <path id="路径_1182" data-name="路径 1182" d="M14.774,17.309a2.994,2.994,0,0,0,2.105-.845l8.448-8.228a1.74,1.74,0,0,0-1.066-.361H5.292a1.729,1.729,0,0,0-1.066.361l8.448,8.228A2.994,2.994,0,0,0,14.774,17.309Z" transform="translate(3719.426 -1425.601)" fill="#fff"/>
  </g>
</svg>
