<svg xmlns="http://www.w3.org/2000/svg" width="15.674" height="16.959" viewBox="0 0 15.674 16.959">
  <path id="路径_9544" data-name="路径 9544" d="M40.5,8.584V22.79a.448.448,0,0,0,.666.382l3.468-1.5h-.446l1.525.772,1,.5a3.242,3.242,0,0,0,.556.272c.223.061.441-.1.63-.2l.994-.525,1.591-.839-.341.045,3.815,1.516a.445.445,0,0,0,.56-.427V10.177a.443.443,0,0,0-.885,0V22.79l.56-.427-3.736-1.485c-.427-.17-1.121.383-1.476.57l-1.817.959H47.6l-1.681-.851-1.049-.531c-.237-.12-.423-.238-.7-.119l-3.458,1.5.666.382V8.584A.443.443,0,0,0,40.5,8.584Zm2.581,1.858h9.865a3.686,3.686,0,0,0,2.468-.459,2.1,2.1,0,0,0-1.33-3.7h-11a.443.443,0,0,0,0,.885h9.865c.841,0,1.816-.17,2.273.728A1.206,1.206,0,0,1,54.09,9.557H43.078A.443.443,0,0,0,43.078,10.442Zm-1.7-2.08a1.195,1.195,0,1,1,1.2,1.195c-.569.021-.571.906,0,.885a2.1,2.1,0,0,0,1.47-3.55A2.079,2.079,0,0,0,41.77,6.45,2.112,2.112,0,0,0,40.5,8.362c-.02.571.865.569.885,0Zm2.631,4.869h7.4a.443.443,0,0,0,0-.885h-7.4A.443.443,0,0,0,44.014,13.231Zm0,2.934h7.4a.443.443,0,0,0,0-.885h-7.4A.443.443,0,0,0,44.014,16.165Zm0,3.015h7.4a.443.443,0,0,0,0-.885h-7.4A.443.443,0,0,0,44.014,19.18Z" transform="translate(-40.496 -6.282)" fill="#005795"/>
</svg>
