<svg xmlns="http://www.w3.org/2000/svg" width="15.297" height="15.297" viewBox="0 0 15.297 15.297">
  <g id="组_12629" data-name="组 12629" transform="translate(-115.05 -114.25)">
    <path id="路径_9710" data-name="路径 9710" d="M122.7,114.4a7.5,7.5,0,1,0,7.5,7.5A7.506,7.506,0,0,0,122.7,114.4Zm0,14.195a6.7,6.7,0,1,1,6.7-6.7A6.7,6.7,0,0,1,122.7,128.595Z" fill="#4b5266" stroke="#4b5266" stroke-width="0.3"/>
    <path id="路径_9711" data-name="路径 9711" d="M382.857,324.489l-4.71-2.718a.9.9,0,0,0-1.348.78v5.434a.889.889,0,0,0,.45.78.888.888,0,0,0,.9,0l4.71-2.718a.9.9,0,0,0,0-1.561Zm-.4.865-4.71,2.716a.089.089,0,0,1-.092,0,.093.093,0,0,1-.049-.085v-5.432a.093.093,0,0,1,.141-.083l4.71,2.718a.092.092,0,0,1,.047.085A.094.094,0,0,1,382.456,325.354Z" transform="translate(-256.69 -203.361)" fill="#4b5266" stroke="#4b5266" stroke-width="0.2"/>
  </g>
</svg>
