<svg xmlns="http://www.w3.org/2000/svg" width="60" height="60" viewBox="0 0 60 60"><path d="M30,0A30,30,0,1,1,0,30,30,30,0,0,1,30,0Zm0,0A30,30,0,1,1,0,30,30,30,0,0,1,30,0Z" fill="#2ea9d3"/><path d="M203.508,20.48a29.824,29.824,0,0,0-19.188,6.96V67.332l2.4-1.8,2.4,1.8,2.4-1.8,2.4,1.8,2.4-1.8,2.4,1.8,2.4-1.8,2.4,1.8,2.4-1.8,2.4,1.8,2.4-1.8,2.4,1.8,2.4-1.8,2.4,1.8,2.4-1.8,2.4,1.8V27.44A29.825,29.825,0,0,0,203.508,20.48Z" transform="translate(-173.508 -19.279)" fill="#2998bd"/><path d="M203.508,0A29.824,29.824,0,0,0,184.32,6.96V46.852l2.4-1.8,2.4,1.8,2.4-1.8,2.4,1.8,2.4-1.8,2.4,1.8,2.4-1.8,2.4,1.8,2.4-1.8,2.4,1.8,2.4-1.8,2.4,1.8,2.4-1.8,2.4,1.8,2.4-1.8,2.4,1.8V6.96A29.825,29.825,0,0,0,203.508,0Z" transform="translate(-173.508)" fill="#f2f1ef"/><path d="M286.72,491.52h26.429v1.2H286.72Z" transform="translate(-269.935 -462.721)" fill="#d9d8d7"/><path d="M286.72,196.725h21.624v-2.4H286.72Zm16.819,2.405H286.72v2.4h16.819Zm-16.819,7.206h20.423v-2.4H286.72Zm24.027-12.009v2.415h2.4v-2.415Zm0,7.22h2.4v-2.415h-2.4Zm0,4.805h2.4v-2.415h-2.4Z" transform="translate(-269.935 -182.942)" fill="#868686"/><path d="M292.126,1.031q-1.217.325-2.4.752V6.607h2.4Zm2.4-.536q-.6.109-1.2.243V6.607h1.2V.495Zm-6.007,1.756q-.914.375-1.8.81V6.607h1.8ZM297.532.1c-.605.048-1.207.112-1.8.195V6.607h1.8Zm2.4-.1c-.4,0-.8.014-1.2.031V6.607h1.2Zm10.812,2.014q-.6-.229-1.2-.434V6.607h1.2Zm1.2.492v4.1h1.2V3.061q-.595-.291-1.2-.555ZM303.539.223q-1.2-.145-2.4-.192V6.607h2.4Zm2.4.379c-.4-.08-.8-.15-1.2-.214v6.22h1.2Zm2.4.6q-.6-.175-1.2-.326V6.607h1.2Z" transform="translate(-269.935)" fill="#e4665c"/><text transform="translate(12.001 39.844)" fill="#ff3131" font-size="6" font-family="SegoeUI, Segoe UI" letter-spacing="0.05em" text-decoration="underline"><tspan x="0" y="0">19,320mins</tspan></text></svg>