<svg xmlns="http://www.w3.org/2000/svg" width="11.946" height="11.946" viewBox="0 0 11.946 11.946">
  <path id="路径_9567" data-name="路径 9567" d="M1.238,12.751c3.112-.382,3.277-.549,3.387-.66l7.82-7.839a.86.86,0,0,0,.014-1.213L10.5,1.072a.857.857,0,0,0-1.211.015L1.467,8.926C1.361,9.034,1.2,9.2.76,12.263a.43.43,0,0,0,.424.489.379.379,0,0,0,.052,0h0ZM9.891,1.681l1.947,1.964-.988.991L8.9,2.679Zm-1.6,1.606,1.952,1.957L4.519,10.985,2.57,9.034,8.291,3.287h0ZM2.055,9.734,3.813,11.5c-.444.092-1.288.22-2.122.331.125-.824.268-1.657.365-2.093h0Zm10.078,2.181H6.207a.43.43,0,1,0,0,.859h5.927a.43.43,0,0,0,0-.859Z" transform="translate(-0.756 -0.829)" fill="#fff"/>
</svg>
